<?xml version="1.0" encoding="UTF-8" standalone="no"?>
<!-- Created with Inkscape (http://www.inkscape.org/) -->

<svg
   width="62.897114mm"
   height="44.208851mm"
   viewBox="0 0 62.897114 44.208851"
   version="1.1"
   id="svg5"
   xml:space="preserve"
   xmlns="http://www.w3.org/2000/svg"
   xmlns:svg="http://www.w3.org/2000/svg"><defs
     id="defs2" /><g
     id="layer2"
     transform="translate(-76.936,-110.067)"><path
       id="path650-1"
       style="display:inline;opacity:0.74;fill:#0000ff;stroke-width:1;stroke-linecap:round"
       d="m 108.56004,143.76901 v 0.009 c -3.00357,0.25597 -5.24217,1.08282 -7.48378,2.75952 l -0.23358,0.79478 0.23358,1.07591 0.60823,1.26297 0.98237,0.65474 2.85306,0.98237 c 0.52351,0.9747 1.3254,1.71744 2.10478,2.47892 0.29829,0.0399 0.56512,0.13601 0.93534,0.0465 v -0.009 c 0.37022,0.0895 0.63706,-0.007 0.93535,-0.0465 0.77937,-0.76148 1.58127,-1.50422 2.10478,-2.47892 l 2.85305,-0.98237 0.98237,-0.65474 0.60772,-1.26297 0.23409,-1.0759 -0.23409,-0.79479 c -2.24161,-1.67669 -4.4797,-2.50355 -7.48327,-2.75952 z m 0.84698,0.40516 v 0.009 c -3.00357,0.25597 -5.24217,1.08282 -7.48378,2.75952 l -0.23358,0.79478 0.23358,1.07591 0.60823,1.26297 0.98237,0.65474 2.85306,0.98237 c 0.52351,0.9747 1.3254,1.71744 2.10478,2.47892 0.29829,0.0399 0.56512,0.13601 0.93534,0.0465 v -0.009 c 0.37022,0.0895 0.63706,-0.007 0.93535,-0.0465 0.77937,-0.76148 1.58127,-1.50422 2.10478,-2.47892 l 2.85305,-0.98237 0.98237,-0.65474 0.60772,-1.26297 0.23409,-1.0759 -0.23409,-0.79479 c -2.24161,-1.67669 -4.4797,-2.50355 -7.48327,-2.75952 z" /><path
       id="path1178-0"
       style="display:inline;fill:#0000ff;stroke-width:0.108576;stroke-linecap:round"
       d="m 81.478893,110.06742 c -3.13445,0.0403 -5.48062,2.84554 -4.17391,6.5841 -0.6785,6.33096 2.55427,12.19662 9.0196,14.75775 2.81085,1.37749 7.310968,2.46203 9.958568,1.16479 0.54264,-0.30933 1.04157,-0.66237 1.39836,-1.15755 l 0.0191,-0.0258 c -0.007,0.009 -0.0139,0.0162 -0.0217,0.0253 0.63518,-0.89117 0.911,-2.17305 0.64389,-3.95325 -1.23402,-6.98165 -5.76305,-14.25979 -13.268958,-16.26722 -1.20437,-0.79547 -2.44124,-1.14266 -3.57497,-1.1281 z" /><path
       id="path1180-4"
       style="display:inline;opacity:0.74;fill:#0000ff;stroke-width:0.104463;stroke-linecap:round"
       d="m 134.84362,110.85114 c -1.96257,-0.007 -3.99696,0.76647 -5.49373,1.96061 -6.14205,1.73027 -10.72488,8.15973 -10.19059,14.67249 0.0771,0.86398 0.67642,3.57749 2.2789,4.45244 4.03836,2.01913 8.94228,0.56744 12.46746,-1.93063 3.17703,-1.82458 4.39788,-5.56452 4.91184,-9.02478 0.21404,-2.80244 2.05257,-5.95168 0.18811,-8.52919 -1.15256,-1.11808 -2.63558,-1.59552 -4.16202,-1.60094 z" /></g></svg>
