<?xml version="1.0" encoding="UTF-8" standalone="no"?>
<!-- Created with Inkscape (http://www.inkscape.org/) -->

<svg
   width="159.29381mm"
   height="204.70532mm"
   viewBox="0 0 159.29381 204.70532"
   version="1.1"
   id="svg5"
   xml:space="preserve"
   xmlns="http://www.w3.org/2000/svg"
   xmlns:svg="http://www.w3.org/2000/svg"><defs
     id="defs2" /><g
     id="layer3"
     style="display:inline;opacity:0.7"
     transform="translate(-28.007981,-53.347023)"><path
       style="display:inline;opacity:0.565141;fill:#57e389;stroke-width:0.1;stroke-linecap:round"
       d="m 60.462142,150.49008 c -5.241221,0 -2.92977,7.31356 -1.842445,10.84735 0.514802,1.6731 0.07701,3.63379 -0.540343,5.24166 -0.199177,0.51876 -0.546621,0.49618 -0.825639,0.93277 -0.461298,0.72182 -1.324864,0.96298 -1.257906,1.34964 0.138461,0.79956 -0.477039,2.9633 -1.396356,4.19582 -0.945119,1.26711 -2.198038,1.60057 -2.293697,2.21481 -0.860029,5.52237 -1.983833,5.37031 -3.440106,11.05224 -0.92022,3.59042 -2.040697,10.82864 -4.121149,14.27151 -1.891207,3.1297 -3.240432,4.91787 -6.428443,6.95934 -1.978309,1.26682 -6.457609,1.8642 -8.291273,2.72365 -1.264906,0.59287 -3.367498,1.55841 -0.803013,3.0313 1.321116,0.75877 16.407758,-8.23875 12.282051,-3.42535 -3.505076,4.08932 -4.589646,7.40307 -3.193685,11.29102 0.02456,0.0684 1.237723,-0.46786 1.656515,-0.5274 3.335142,-0.47422 2.809853,1.37826 2.763249,1.60999 -0.226411,1.12578 -1.129235,2.28206 -1.727145,2.89606 -0.757425,0.7778 0.754655,0.85242 1.69941,1.40069 0.168159,0.0976 1.887042,-0.75534 2.015545,-0.61378 0.905687,0.99767 1.673255,2.28468 2.288586,3.38228 2.922278,5.21266 6.167167,10.29605 12.778797,10.27261 3.583457,-0.0127 11.400755,1.70236 11.995168,4.13714 0.459426,1.88186 -2.403555,4.62848 -2.117672,6.35605 0.511641,3.09179 1.187558,2.48237 3.796562,1.8634 3.51899,-0.83485 11.451515,-2.17248 12.042107,-6.86342 5.324108,0.5878 16.4354,7.80459 19.11926,9.91051 4.55158,3.57145 1.96555,1.66654 3.8343,3.05237 0.54538,-0.19431 1.63963,-1.27267 2.10087,-1.54869 2.73329,-1.63566 4.77338,-5.11837 8.51396,-7.44158 1.34794,-0.83719 2.73683,-1.511 4.82879,-2.19138 1.57314,-0.51164 6.53213,-2.62286 7.7708,-2.31872 0.78451,0.19263 0.86706,2.33963 2.88963,3.49282 2.33919,1.33372 9.81874,5.34298 12.89323,3.88944 1.14518,-1.46769 -0.1888,-2.60124 -1.88826,-8.2761 -0.98025,-3.27326 15.92613,-2.61668 19.85212,-7.75967 3.02457,-3.96214 3.97343,-7.34967 6.54963,-9.73924 0.25569,-0.23717 3.30202,-0.55328 3.22837,-1.08993 -0.17677,-1.28811 3.11873,-4.71886 3.59319,-7.41491 0.0759,-0.43136 -1.1695,-2.56917 -1.17769,-2.8303 -0.003,-0.0895 -1.49287,-0.17303 -1.82373,0.65775 -0.12555,0.31524 0.39584,0.13457 0.57045,0.63651 0.17386,0.49978 0.34654,1.68269 0.17138,2.29209 -0.21135,0.73527 -1.07079,-0.2835 -2.08722,-1.14003 -0.65268,-0.54999 -0.70106,-1.71614 -0.68979,-1.77164 1.0934,-2.8065 1.20601,-2.6937 1.53041,-3.81405 0.13092,-0.45216 0.18678,-1.44605 0.11591,-2.3092 -0.0383,-0.46683 -0.27918,-0.96158 -0.18901,-1.16121 0.15361,-0.34011 0.40099,-0.004 0.83936,0.28925 0.4341,0.29026 1.05776,0.53369 1.50444,0.95352 4.50993,1.83833 13.16142,5.22843 8.32334,0.44203 -2.85177,-2.82132 -15.17557,-6.3473 -10.06177,-10.08795 0.34503,-0.25238 0.72712,-1.69246 0.66307,-2.26055 -0.079,-0.70097 0.71418,-2.34231 1.02768,-1.70225 0.46422,0.94778 1.81778,2.88152 2.83377,2.59522 0.7353,-0.20721 -0.14208,-2.76076 0.32633,-3.14252 1.5851,-1.2919 -0.46333,-3.88425 -3.14474,-2.46456 -0.68436,0.36234 -2.57581,-2.06023 -3.50538,-2.21178 -5.95699,-0.97122 -7.97951,-10.94378 -8.84856,-13.57973 -0.41191,-1.24938 7.22402,2.22792 6.6877,0.98885 -0.85961,-1.98599 -3.73028,-2.89198 -6.33942,-3.66077 -2.67617,-0.78853 -5.18547,-0.69409 -4.5646,-2.53704 1.00923,-2.99575 -3.24812,-16.6743 -8.45749,-21.34594 L 138.75302,69.106513 108.84481,53.347023 78.76433,69.106513 60.657144,150.49008 Z"
       id="path1867" /><path
       style="display:inline;opacity:1;fill:#000000;stroke-width:0.1;stroke-linecap:round"
       d="m 108.23531,233.76041 c -0.0808,1.37635 -0.43824,4.12857 0.42241,4.67592 0.70917,-1.48558 0.43795,-3.4094 0.0352,-4.94145 -0.21615,-0.51263 -0.46485,-0.0128 -0.4576,0.26553 z"
       id="path2400" /><path
       style="display:inline;opacity:1;fill:#000000;stroke-width:0.1;stroke-linecap:round"
       d="m 106.71533,222.74055 c -0.79403,1.02709 -0.31587,3.01649 -1.48657,3.57107 -0.0915,-0.84125 0.53588,-1.46145 -0.0608,-2.10517 -0.55537,0.72477 0.11835,1.53133 -0.8541,2.13987 -0.73952,0.71144 -0.65073,1.91126 -0.49871,2.85303 0.30668,0.96578 0.71918,1.8978 1.26031,2.75756 0.2072,0.94201 1.28113,2.00057 0.18129,2.84149 -0.66745,0.99616 -1.31042,2.07075 -1.04157,3.3716 0.53856,0.74047 1.47465,1.24642 1.81345,2.107 0.81638,1.04767 0.12599,2.40362 0.67734,3.46976 1.16723,0.61861 1.02024,-1.43323 0.50238,-2.01848 -0.30155,-0.99635 -0.617,-2.02738 -1.3274,-2.81829 -0.65052,-0.79648 -1.00839,-1.78075 -0.86858,-2.81862 0.30034,-0.83675 1.67351,-1.03595 1.34579,-2.25093 0.066,-0.92547 0.034,-1.87957 -0.36786,-2.73615 0.10703,-0.86731 -1.51083,-2.25787 -0.58608,-2.70649 1.58959,-0.13652 1.81276,1.37867 1.85783,2.59188 1.08644,0.81597 0.54157,-1.18846 0.49546,-1.78342 0.18572,-1.17039 0.47675,-2.35446 0.35082,-3.57077 -0.002,-1.15503 0.004,-2.31007 9.5e-4,-3.4651 -0.96267,0.29151 -0.56048,1.73115 -0.69957,2.64528 -0.39119,1.0309 0.29555,2.80935 -0.82849,3.28725 -0.71392,-0.41086 -2.71192,-0.0659 -1.90782,-1.39366 0.43874,-0.7663 2.04561,0.0872 1.62274,-1.31223 -0.0454,-0.91347 0.48064,-1.79764 0.41928,-2.65648 z"
       id="path2402" /><path
       style="display:inline;opacity:1;fill:#000000;stroke-width:0.1;stroke-linecap:round"
       d="m 108.93197,222.36056 c 0.16291,2.21188 0.11488,4.45169 -0.14875,6.64913 -0.0553,0.74666 -0.51408,2.38305 0.71804,2.27343 0.55579,-0.80208 0.0898,-1.90338 0.28922,-2.81791 0.16084,-1.59454 0.13423,-3.20709 0.0365,-4.79921 0.17987,-0.75545 -0.31947,-1.02363 -0.89506,-1.30544 z"
       id="path2404" /><path
       style="display:inline;opacity:1;fill:#000000;stroke-width:0.1;stroke-linecap:round"
       d="m 111.33861,227.87049 c -0.14573,0.90603 -0.34237,1.80172 -0.40185,2.72018 -0.0567,0.83406 -0.53091,1.57434 -0.47081,2.42788 0.29752,0.88345 0.51823,1.83151 0.99473,2.65697 0.38619,0.77715 -0.14973,1.74171 -0.50866,2.30145 -0.62552,0.47024 -0.70421,1.26343 -0.75755,1.97945 -0.24418,0.92539 -0.18547,1.8808 -0.40769,2.8051 -0.12547,0.44869 -0.55048,1.9306 0.11536,1.79136 0.36914,-0.70831 0.85875,-1.40768 1.03603,-2.21248 0.21634,-0.81116 -0.0643,-1.66787 0.2315,-2.46834 0.20327,-1.00168 1.07637,-1.77874 1.1232,-2.83563 0.1535,-0.85216 0.0562,-1.68841 -0.34812,-2.45418 -0.28828,-0.63848 0.0443,-1.35089 0.12412,-2.00309 0.13519,-0.81694 0.2493,-1.62083 0.30332,-2.44809 0.006,-0.77973 -0.0329,-2.28716 -0.87999,-2.36418 l -0.15347,0.1036 z"
       id="path2406" /><path
       style="display:inline;opacity:1;fill:#000000;stroke-width:0.1;stroke-linecap:round"
       d="m 114.64465,220.57778 c -0.39193,3.42588 0.90381,6.23635 -0.51044,7.80884 -0.48278,1.57087 2.31508,2.67602 0.18795,3.6639 -0.10443,2.18628 1.62742,4.40212 0.19167,6.62545 -0.88367,1.73345 -1.09321,3.32948 -2.12808,4.63559 -0.91085,1.69363 -1.78878,3.58786 -3.22523,4.86872 -2.04259,1.34017 -3.22869,-1.56317 -3.49005,-3.18674 -0.94693,-2.04529 -3.04349,-3.44231 -3.41644,-5.77543 -1.07568,-1.81548 -1.2873,-4.44518 -0.0844,-6.0754 -0.74246,-0.5203 -2.919606,-0.95187 -1.40091,-2.11775 2.18393,-1.01695 1.53552,-3.31035 0.23654,-4.65027 1.92273,-1.35663 1.56521,-3.50071 0.50454,-5.3546 -0.36688,-1.10022 -1.06237,-3.69095 0.10141,-3.98432 1.40679,2.00813 2.90476,4.32603 2.4378,6.90164 0.054,1.54141 -2.74113,2.48501 -0.96824,3.91012 0.75907,1.61439 -1.73124,2.90398 0.088,3.92675 1.33104,1.68792 -0.80448,3.25202 -0.28651,4.97191 0.85906,1.5199 2.0678,2.75119 2.62971,4.42413 0.6455,1.96771 1.15269,4.3952 3.19044,5.39043 1.69004,-0.0356 2.46543,-2.17383 2.87224,-3.59524 0.65148,-1.7029 1.67989,-3.27333 1.87838,-5.11222 1.15376,-1.73035 0.63132,-3.39021 -0.45063,-4.96976 0.56252,-1.96896 0.29253,-3.63448 0.45833,-5.64322 1.68888,-3.31771 -1.88566,-9.21605 -0.22859,-10.38952 0.24923,-0.26746 0.87466,-0.66444 1.00751,-0.65934 1.22879,0.77548 0.39173,3.06014 0.40501,4.38633 z"
       id="path2398" /><path
       style="opacity:1;fill:#000000;stroke-width:1;stroke-linecap:round"
       d="m 60.324999,188.58177 c 0.697147,-1.1348 1.534254,-2.93069 2.965627,-2.39964 0.19465,-1.29045 0.817868,-2.8996 2.343609,-1.71733 1.42244,0.2443 4.411739,0.35114 2.870341,2.46468 -0.313971,0.99907 -1.876589,3.50376 0.22467,2.85216 1.510974,0.0418 2.962086,2.465 1.848214,3.5423 -1.279553,0.88798 -4.212923,0.36017 -2.096556,-1.30391 0.739713,-1.42991 -2.646163,-0.67958 -1.538574,-2.54414 0.697456,-1.44801 1.260573,-3.82068 -1.056383,-3.99457 -1.736462,-0.88358 -2.057678,1.48381 -2.853108,2.45145 -0.554497,1.05584 -1.14466,3.84892 -2.091033,3.6763 0.166018,-0.96905 1.780658,-3.247 0.755059,-3.39797 -0.337075,0.81415 -1.628437,2.35646 -1.371866,0.37067 z"
       id="path2083" /><path
       style="opacity:1;fill:#000000;stroke-width:1;stroke-linecap:round"
       d="m 69.717707,188.31719 c 0.308681,-1.32292 0.617361,-2.64583 0.926042,-3.96875 1.584274,0.0762 1.936686,2.52357 1.973695,3.77603 -0.223837,0.92464 -0.535195,2.08666 0.297613,0.66635 1.458786,-2.32617 3.889255,-3.70545 5.724566,-5.67265 1.632687,-1.35525 0.09224,-3.4499 0.884829,-5.00185 0.623373,-0.70991 4.084844,-1.1722 2.39925,0.22984 -1.968486,-0.0527 -2.216512,1.71391 -1.735947,3.19262 -0.187913,1.58177 -1.291264,2.77176 -2.388314,3.81236 -0.258264,1.25055 0.837175,2.67229 -0.102537,4.08334 -0.318313,1.04232 -2.340479,3.32934 -3.0227,2.19647 0.814029,-1.50782 2.748926,-3.18644 1.949878,-5.0402 -1.357693,0.65578 -1.642649,2.80771 -3.252336,3.47333 -1.64771,0.69717 0.307821,3.18502 -1.301016,3.34499 -0.409944,-1.34268 -1.131471,-2.91903 -0.459908,-4.324 0.504369,-0.86496 -0.229084,-2.85849 -0.819959,-1.05979 -0.18773,0.93358 -0.439196,1.31882 -1.073156,0.29191 z"
       id="path2085" /><path
       style="opacity:1;fill:#000000;stroke-width:1;stroke-linecap:round"
       d="m 78.978124,188.64791 c 0.15434,-1.01423 0.308681,-2.02847 0.463021,-3.0427 0.262691,-0.60683 0.508758,-1.68143 1.401772,-1.11729 0.655279,0.25441 1.471849,0.383 1.880963,1.01467 0.460578,0.631 -0.386955,1.11296 -0.657771,1.61358 -0.532406,0.6962 -1.066517,1.39168 -1.632777,2.06091 0.02364,-0.69119 0.206782,-1.37146 0.635224,-1.92264 0.271595,-0.47906 0.747731,-1.1636 0.4238,-1.6777 -0.78727,-0.43928 -0.839135,0.72367 -1.030439,1.20579 -0.256919,0.804 -0.54105,1.5989 -0.822326,2.3946 -0.220487,-0.17641 -0.440973,-0.35282 -0.661467,-0.52922 z"
       id="path2087" /><path
       style="opacity:1;fill:#000000;stroke-width:1;stroke-linecap:round"
       d="m 86.783332,198.63593 c -0.198437,-0.26458 -2.447396,-5.02708 -2.447396,-5.02708 l -1.719791,-2.11666 -1.785938,-0.52917 -2.116666,-0.26458 -1.322917,2.77812 -0.529167,2.18281 -1.190625,0.8599 -0.132291,-1.45521 1.058333,-1.98437 0.595313,-0.99219 -1.852084,0.39687 c 0,0 -1.058333,1.32292 -1.322916,1.52136 -0.264584,0.19843 -1.190625,0.33073 -1.256771,0.66146 -0.06615,0.33072 -0.529167,1.78593 -0.529167,1.78593 l -0.330729,1.32292 h -0.396875 l -0.06615,-3.30729 -2.38125,0.59531 c 0,0 -2.910417,0.19844 -3.108854,0.52917 -0.198437,0.33073 -1.719792,2.77812 -1.852083,3.10885 -0.132292,0.33073 -0.79375,2.4474 -0.727604,2.71198 0.06614,0.26458 0.330729,1.45521 0.79375,1.45521 0.46302,0 2.116666,-0.52917 2.116666,-0.52917 l 1.256771,-0.66146 0.264583,1.71979 2.116667,-0.52916 c 0,0 1.719792,0.26458 2.050521,0.33073 0.330729,0.0661 2.050521,0.33073 2.513541,0.66146 0.463021,0.33072 1.852084,1.25677 2.248959,1.4552 0.396875,0.19844 1.455208,0.72761 1.653646,1.12448 0.198437,0.39688 5.688541,6.74688 5.688541,6.74688 l 1.521354,-0.59531 c 0,0 -2.711979,-2.84428 -3.108854,-3.43959 -0.396875,-0.59531 -1.984375,-2.64583 -2.38125,-3.175 -0.396875,-0.52916 -2.182812,-2.44739 -2.182812,-2.44739 l -0.463021,-0.46302 -1.190625,-0.72761 -1.058333,-1.19062 -0.595313,-1.12448 -0.859896,-1.45521 -0.330729,-1.05833 -0.06615,-1.91823 0.727604,-1.05834 0.727605,-0.66145 1.124479,-0.59532 -0.859896,2.4474 0.06615,2.77812 c 0,0 0.463021,1.38907 0.463021,1.71979 0,0.33073 1.058333,1.65365 1.058333,1.65365 0,0 1.124479,0.92604 1.521354,1.05833 0.396875,0.1323 1.521354,0.46302 1.852083,0.46302 0.330729,0 1.058334,-0.26458 1.058334,-0.26458 l 0.396875,-0.7276 -0.264584,-1.45521 -0.51263,-0.19844 0.04961,0.46302 -0.396875,0.79375 -0.859895,0.13229 -2.050521,-1.91823 -0.992188,-1.05833 -0.396875,-1.71979 c 0,0 0.06615,-0.52917 0.33073,-0.46302 0.264583,0.0661 1.984375,1.85208 1.984375,1.85208 l 1.918229,1.52136 1.190625,0.39687 1.719791,0.79375 c 0,0 0.926042,0.39688 1.455209,0.72761 0.529166,0.33072 3.373437,1.52135 3.373437,1.52135 l 1.389063,0.92604 c 0,0 -1.256771,3.04271 -1.256771,3.37344 0,0.33073 -0.330729,2.57969 -0.264584,3.24114 0.06615,0.66146 3.241146,3.77032 3.241146,3.77032 0,0 0.661459,0.99218 0.926042,1.25677 0.264583,0.26458 1.389062,1.52135 1.389062,1.52135 l 2.182813,3.50573 2.579687,4.69636 0.926042,2.38125 0.595312,0.39687 0.132292,-1.5875 c 0,0 -0.727604,-0.99219 -0.727604,-1.32292 0,-0.33073 0.8599,-1.71979 0.99219,-1.98437 0.13229,-0.26458 0.46302,-1.19063 0.39688,-1.5875 -0.0661,-0.39688 -0.59532,-3.57188 -0.59532,-3.57188 l -1.389063,-3.24114 -0.926041,0.19844 -2.315104,0.66145 -1.058334,0.33073 -1.852083,-1.05833 -1.5875,-2.18281 -1.455208,-2.18282 -0.198438,-2.84427 0.396875,-1.32291 0.595313,-1.91823 -0.661459,-1.78594 c 0,0 -2.116666,-1.45521 -2.38125,-1.65365 -0.264583,-0.19843 -5.754687,-2.24895 -5.754687,-2.24895 l -3.439583,-2.64584 -0.529167,-0.79375 1.124479,-1.65364 0.79375,-1.98438 c 0,0 1.058333,-0.59531 1.322917,-0.33073 0.264583,0.26459 2.248958,2.4474 2.248958,2.4474 l 2.645833,4.03489 z"
       id="path2089" /><path
       style="display:inline;opacity:1;fill:#000000;stroke-width:1;stroke-linecap:round"
       d="m 134.54062,237.79427 c -0.37354,0.31456 -0.7103,0.88619 -0.38233,1.34762 0.38211,0.97579 0.78009,1.94658 1.15121,2.92702 0.34777,1.03755 0.52025,2.1245 0.73931,3.19456 0.008,0.31901 0.31364,0.78652 -0.0804,0.97492 -0.42981,0.14078 -0.67492,-0.39845 -0.67504,-0.75054 -0.0782,-0.57672 -0.29713,-1.1261 -0.45049,-1.68705 -0.26168,-0.88864 -0.60316,-1.7531 -0.87335,-2.6374 -0.24488,-1.09883 -0.39314,-2.21586 -0.54068,-3.33101 0.3081,-0.27797 0.75207,0.0551 1.11175,-0.0381 z"
       id="path2167" /><path
       style="display:inline;opacity:1;fill:#000000;stroke-width:1;stroke-linecap:round"
       d="m 74.69515,231.75609 -0.327404,2.0112 0.187087,0.8419 1.169305,-0.56127 c 0,0 0.888672,0.14032 1.075759,0.18709 0.187089,0.0468 0.795128,0.65481 0.888672,0.88867 0.09355,0.23386 0.467722,0.37418 0.748355,1.02899 0.280633,0.65481 1.028988,1.59026 1.028988,1.77734 0,0.18709 0.280633,1.02899 0.280633,1.02899 l -0.888671,0.93544 c 0,0 -2.011204,-0.0468 -2.291837,0.0935 -0.280633,0.14032 -1.590254,0.51449 -1.590254,0.51449 l -0.748353,-1.30962 -0.467723,-2.05797 -0.140316,-2.05798 0.140316,-2.05797 0.327406,-1.26285 z"
       id="path2169" /><path
       style="display:inline;opacity:1;fill:#000000;stroke-width:1;stroke-linecap:round"
       d="m 83.608332,237.86041 -2.182812,8.13594 c 0.264583,0.53337 0.529167,0.39787 0.79375,0 0,0 0.463021,-1.85208 0.595312,-2.3151 0.132292,-0.46302 1.322917,-4.7625 1.322917,-4.7625 0.292054,-0.82122 0.05085,-1.10919 -0.529167,-1.05834 z"
       id="path2173" /><path
       style="display:inline;opacity:1;fill:#000000;stroke-width:1;stroke-linecap:round"
       d="m 95.38229,241.89531 c 1.221727,-0.70461 2.895605,-0.8149 3.985122,0.19871 0.716728,0.20261 0.870628,1.48931 -0.08293,0.87526 -0.942099,-0.55368 -2.08332,-1.38626 -3.20488,-0.80881 -0.742281,0.56885 -1.107652,2.1515 -0.264493,2.57237 1.147113,-0.0979 2.244507,0.15555 3.199246,0.91543 0.617722,0.64335 2.510345,-0.29925 2.305695,0.92319 -1.19538,0.50889 -2.317418,-0.64214 -3.557926,-0.47516 -1.041829,-0.31134 -2.626309,-0.65654 -2.847239,-1.90268 0.01809,-0.84123 -0.188327,-2.23911 0.467405,-2.29831 z"
       id="path2175" /><ellipse
       style="display:inline;opacity:1;fill:#000000;stroke-width:1;stroke-linecap:round"
       id="path2177"
       cx="97.030945"
       cy="243.30043"
       rx="0.69453126"
       ry="0.52916664" /><ellipse
       style="display:inline;opacity:1;fill:#000000;stroke-width:1;stroke-linecap:round"
       id="path2179"
       cx="99.021973"
       cy="244.12656"
       rx="0.7606771"
       ry="0.49609375" /><path
       style="opacity:1;fill:#000000;stroke-width:0.1;stroke-linecap:round"
       d="m 69.427216,212.10268 c -2.065677,0.96859 -5.501654,-4.90523 -2.738013,-6.77933 0.99204,-0.4758 1.947098,-1.14573 3.112764,-0.99145 1.360141,-0.11286 2.820753,0.19668 3.872776,1.09762 0.767788,0.9598 0.354114,2.42167 -0.639107,3.05411 -1.996989,1.57097 -2.871718,2.97315 -3.60842,3.61905 z"
       id="path2228" /><path
       style="opacity:1;fill:#000000;stroke-width:0.1;stroke-linecap:round"
       d="m 71.456213,213.83061 c 0.602553,-1.46936 1.199041,-2.72658 2.239283,-3.83138 0.940025,-1.2768 3.500186,-0.73084 3.910806,0.88088 1.162089,0.88605 0.119316,2.06688 1.362556,2.77103 1.189398,0.47632 1.278616,1.20853 1.966245,2.22402 1.458274,0.49703 1.368817,3.43623 0.369512,5.01071 -0.666064,0.76981 -1.991215,0.46416 -1.698079,-0.6759 -1.659337,-1.96149 -1.700957,-2.88728 -2.3115,-4.43689 -0.02856,-0.86996 -1.325903,-2.35945 -1.429203,-0.63752 0.608014,1.02842 1.503373,3.77445 -0.808804,0.9572 -0.988316,-0.59194 -2.600981,-1.29389 -3.600816,-2.26215 z"
       id="path2230" /><path
       style="opacity:1;fill:#000000;stroke-width:0.1;stroke-linecap:round"
       d="m 57.322074,214.55473 c 0.601424,-1.34465 1.518898,-3.95789 2.446721,-4.47339 0.915116,0.83574 2.305848,1.03897 2.75752,-0.37554 l 0.233874,-0.73243 0.511225,0.0256 0.34827,0.6529 c 0.104407,0.19573 0.339754,0.3661 0.476837,0.74836 6.810529,6.13483 7.157829,3.25467 2.016309,8.00285 -0.967299,1.21155 -1.531799,2.031 -3.425335,0.83083 -1.75103,-1.10985 -4.003086,-2.30079 -5.365421,-4.67917 z"
       id="path2232" /><path
       style="opacity:1;fill:#000000;stroke-width:0.1;stroke-linecap:round"
       d="m 50.89665,205.86152 c 0.169129,-0.79813 1.008864,-0.1593 1.39393,0.0923 0.557794,0.37911 1.234231,0.69281 1.580759,1.27933 0.180346,0.76678 1.769814,2.78761 0.02435,2.56786 -2.315934,-1.63401 -2.516617,-1.0268 -2.99904,-3.93949 z"
       id="path2234" /><path
       style="opacity:1;fill:#000000;stroke-width:0.1;stroke-linecap:round"
       d="m 54.59032,204.88163 c 0.288782,-2.04077 2.802399,-8.33978 4.303294,-9.28638 3.023627,-3.39645 4.996229,-2.11049 5.551033,-1.32947 0.484415,1.33772 -2.537302,6.1243 -2.555722,7.52124 -0.02963,1.65212 -1.312706,3.3974 -2.328357,4.56323 -0.61247,0.77369 -1.548112,1.55044 -2.753331,1.44929 -1.240385,-0.12974 -1.53168,-1.5422 -1.937894,-2.49267 -0.07655,-0.15158 -0.167598,-0.29666 -0.279026,-0.42524 z"
       id="path2236" /><path
       style="opacity:1;fill:#000000;stroke-width:0.1;stroke-linecap:round"
       d="m 49.59537,204.5138 c -0.723819,-1.62487 -0.945045,-3.45262 -0.727422,-5.21169 0.426925,-1.53953 3.280988,-1.4581 4.11208,-0.2524 0.485042,1.04209 1.373819,2.00813 1.262422,3.23524 0.121716,1.03339 -0.282845,2.32085 -1.389739,2.62853 -0.706829,0.1507 -1.47228,0.20539 -2.180442,0.0501 -0.370564,-0.12156 -0.70505,-0.33165 -1.076899,-0.44977 z"
       id="path2238" /><path
       style="opacity:1;fill:#000000;stroke-width:0.1;stroke-linecap:round"
       d="m 54.76997,193.59896 c -1.854035,-0.69145 -2.703925,-3.06472 -1.957285,-4.84369 1.323568,-1.50825 3.698354,-0.74232 4.974987,0.44363 1.022123,0.75438 3.223072,2.42757 2.056015,3.69923 -1.48973,-0.157 -3.001839,-0.46371 -4.473579,0.11391 -0.23737,0.0888 -0.730908,0.24125 -0.600138,0.58692 z"
       id="path2240" /><path
       style="opacity:1;fill:#000000;stroke-width:0.1;stroke-linecap:round"
       d="m 58.593243,185.71314 c -0.638147,-1.34525 -2.821664,-3.33579 -0.989493,-4.60459 1.626419,-0.60955 4.383942,-0.49765 4.92724,1.52599 0.682234,1.77643 -1.172901,2.52823 -2.547583,2.79782 -0.455139,0.12917 -0.919094,0.23176 -1.390164,0.28078 z"
       id="path2242" /><path
       style="opacity:1;fill:#000000;stroke-width:0.1;stroke-linecap:round"
       d="m 51.022882,186.36827 c 1.919867,-2.45229 2.317227,-5.75834 4.380874,-8.12294 1.07029,-1.38421 2.248962,-2.79224 2.647174,-4.54028 -0.143205,-0.86955 0.984117,-1.96878 1.779441,-1.46366 0.159141,0.99748 -0.934894,1.6856 -1.30018,2.54433 -0.892309,1.35289 -1.643082,2.80292 -2.534033,4.14981 -1.522703,1.63724 -0.843439,4.29678 -2.478073,5.86124 -0.758607,0.62405 -1.547109,1.26187 -2.495203,1.5715 z"
       id="path2244" /><path
       style="opacity:1;fill:#000000;stroke-width:0.1;stroke-linecap:round"
       d="m 65.651689,176.57886 c -0.777827,1.74748 -2.135296,4.65556 0.467929,5.54642 1.868313,1.16883 3.605173,-0.20536 4.562396,-1.6753 2.222366,0.33075 -0.136502,3.48672 -1.729927,3.24304 -1.909379,0.25654 -4.47111,0.22287 -5.373653,-1.86482 -0.680681,-1.59038 -0.0098,-3.4198 0.752236,-4.84956 0.292566,-0.41592 0.84454,-0.59771 1.321019,-0.39978 z"
       id="path2246" /><path
       style="opacity:1;fill:#000000;stroke-width:0.1;stroke-linecap:round"
       d="m 70.085193,177.2506 c 0.541235,-0.82946 1.199917,-1.58453 1.76579,-2.38232 0.49891,-0.91154 -0.42432,-1.56711 -1.154217,-1.89516 -0.471222,-0.28751 -1.957226,-1.07163 -1.152914,-1.5758 0.642027,0.3975 1.597946,0.4786 1.946091,-0.37597 0.331263,-0.71774 0.919243,-1.27534 1.257671,-1.97361 0.04866,-0.98945 0.542128,-1.72423 1.298488,-2.29535 0.0097,-0.77629 -1.152318,0.11747 -1.524576,0.36593 -0.72364,0.70574 -0.900637,1.78376 -1.595329,2.51426 -0.391823,0.76795 -1.185164,1.14122 -1.965427,1.38427 -0.93535,0.30199 -1.15676,1.54193 -0.376003,2.13887 0.477834,0.67109 1.412367,0.61947 1.885839,1.24142 0.182005,0.86146 -1.226621,1.19848 -0.985119,2.16281 0.03765,0.2904 0.221417,0.7951 0.599706,0.69065 z"
       id="path2250" /><path
       style="opacity:1;fill:#000000;stroke-width:0.1;stroke-linecap:round"
       d="m 66.905607,173.13058 c -0.322994,0.14822 -0.573389,-0.19757 -0.814924,-0.35388 -0.24627,-0.12138 -0.664374,-0.51213 -0.241874,-0.6879 0.36105,-0.15859 0.809994,-0.20382 1.148144,0.0355 0.314138,0.12399 0.529094,0.5183 0.286658,0.80972 -0.09351,0.11655 -0.251078,0.13384 -0.378004,0.19652 z"
       id="path2252" /><path
       style="opacity:1;fill:#000000;stroke-width:0.1;stroke-linecap:round"
       d="m 71.718738,164.51502 c -0.156945,1.15668 -0.768901,2.22759 -1.588251,3.04227 -0.919199,0.76591 -2.130614,1.02015 -3.266893,1.28746 -0.512367,0.38237 -1.649466,-0.0877 -1.577403,0.91051 -0.07964,0.73187 -0.824308,1.10826 -1.199885,0.38795 -0.409242,0.42127 -1.69356,0.0389 -1.13655,-0.60317 0.77733,-0.4372 1.429872,-1.10287 2.32006,-1.32306 1.105732,-0.35135 2.30601,-0.38865 3.370111,-0.87203 0.820567,-0.50853 1.449991,-1.29429 1.858123,-2.16193 0.214258,-0.39465 0.661002,-0.53488 1.041527,-0.71339 0.161138,-0.0863 0.170208,-0.0205 0.179161,0.0454 z"
       id="path2256" /><path
       style="opacity:1;fill:#000000;stroke-width:0.1;stroke-linecap:round"
       d="m 60.904704,170.75709 c -0.41117,0.0982 -0.885782,0.35119 -0.789015,0.85227 -0.143725,0.45869 0.350288,1.00209 0.723519,0.51589 0.248532,-0.32745 0.572132,-0.70366 0.506614,-1.14493 -0.02687,-0.20281 -0.260705,-0.34846 -0.441118,-0.22323 z"
       id="path2258" /><path
       style="opacity:1;fill:#000000;stroke-width:0.1;stroke-linecap:round"
       d="m 67.990464,164.77571 c 0.414343,-0.2811 0.106707,-1.10066 -0.333571,-1.37958 -0.505162,-0.23101 -0.946128,0.4699 -0.628171,0.88064 0.126321,0.41383 0.522438,0.47045 0.866488,0.52286 l 0.04034,0.0463 z"
       id="path2260" /><path
       style="opacity:1;fill:#000000;stroke-width:0.1;stroke-linecap:round"
       d="m 70.712152,161.97964 c 1.434645,0.39748 1.264466,-1.91905 2.534243,-1.78851 1.267548,0.18343 2.415828,-0.20885 3.236358,-1.13814 1.604558,-0.63386 1.341956,1.84052 0.03807,1.92707 -1.034747,0.4345 -2.266274,0.22304 -3.194162,0.8547 -0.337461,1.09289 -1.509407,1.39818 -2.25172,0.42431 -0.117938,-0.0968 -0.236337,-0.19495 -0.362792,-0.27943 z"
       id="path2262" /><path
       style="opacity:1;fill:#000000;stroke-width:0.1;stroke-linecap:round"
       d="m 67.039957,155.79961 c 0.280936,0.64357 0.757679,1.18956 1.338644,1.57919 0.499573,0.34268 0.0035,1.1309 0.506334,1.39217 0.473314,0.022 0.948174,0.19434 1.107999,0.69171 0.128723,0.34537 0.744715,0.81804 0.962208,0.30846 0.141026,-0.42997 -0.2403,-1.10363 0.422087,-1.22706 0.335135,-0.12916 0.863861,-0.17963 0.913185,-0.62351 -0.04152,-0.49125 -0.686997,-0.39979 -0.975794,-0.18509 -0.379351,0.1142 -0.792125,0.10285 -1.126744,0.3479 -0.321014,0.0987 -0.891754,0.2319 -1.019669,-0.19841 -0.100425,-0.52914 0.614059,-0.55306 0.834429,-0.91798 0.271812,-0.2791 0.520101,-0.94086 0.0041,-1.10309 -0.462484,-0.0778 -0.578088,0.41956 -0.68853,0.75046 -0.306368,0.44988 -0.855022,0.009 -1.164244,-0.22783 -0.198241,-0.33924 -0.486236,-0.64503 -0.922584,-0.57363 -0.06388,-0.003 -0.128047,-0.006 -0.191377,-0.0133 z"
       id="path2264" /><path
       style="opacity:1;fill:#000000;stroke-width:0.1;stroke-linecap:round"
       d="m 74.966525,158.30745 c 0.467581,-0.22625 0.980723,-0.70608 1.52809,-0.43173 0.515783,0.51119 -0.452792,1.22967 -0.936863,0.80906 -0.200911,-0.11964 -0.365209,-0.3014 -0.591227,-0.37733 z"
       id="path2266" /><path
       style="opacity:1;fill:#000000;stroke-width:0.1;stroke-linecap:round"
       d="m 100.80624,160.72572 c 0.24006,0.85393 -0.52829,1.72465 -0.0301,2.50865 0.3848,0.98291 1.13666,1.72824 1.84565,2.47675 0.85901,0.69832 1.35598,1.7694 1.75308,2.79988 0.31396,0.83296 0.69466,1.63416 0.99979,2.47148 0.24432,0.96028 0.58351,1.89969 1.18764,2.69629 0.5636,0.77317 0.93747,1.64771 1.58349,2.35541 0.16822,0.44181 0.77599,1.4035 0.62942,0.41394 -0.0388,-0.702 -0.55637,-1.53188 -0.77748,-1.99607 -0.55264,-1.37599 -0.82011,-2.91386 -1.75722,-4.09611 -0.7524,-1.3442 -1.30233,-2.78797 -2.07867,-4.11958 -0.45305,-0.89327 -1.01806,-1.73763 -1.45383,-2.64062 -0.2641,-0.51936 -0.80081,-1.37903 -1.23011,-1.98144 -0.24496,-0.2765 -0.56529,-0.51783 -0.67164,-0.88858 z"
       id="path2268" /><path
       style="opacity:1;fill:#000000;stroke-width:0.1;stroke-linecap:round"
       d="m 103.89626,163.24946 c -0.0748,0.69786 0.5718,1.84979 0.66189,2.06933 0.55306,0.81257 1.11595,1.67266 2.03016,2.11923 1.19368,0.53661 1.57539,1.88459 1.96547,3.0216 0.29021,0.772 1.19031,1.55036 1.84274,0.59375 0.43695,-0.68825 0.84187,-1.40442 1.14392,-2.16532 0.55761,-0.95066 1.02185,-1.96225 1.74504,-2.80566 0.36137,-0.85945 0.90646,-1.61406 1.25111,-2.48013 0.35783,-1.12897 1.32782,-1.96831 1.49611,-3.17407 0.0203,-0.62033 -0.89504,0.51053 -1.13951,0.71534 -0.57741,0.52512 -0.63751,1.32332 -0.93474,2.00184 -0.66808,2.01277 -1.40604,4.10199 -2.88475,5.67391 -0.58666,0.45424 -0.95044,1.14121 -1.56074,1.55565 -0.76943,-0.0723 -0.89787,-1.44836 -0.45829,-2.05105 0.49185,-0.73146 1.01397,-1.44526 1.6364,-2.07367 0.59755,-0.82433 1.10591,-1.70264 1.47695,-2.65312 0.1808,-0.40264 0.68992,-1.39183 0.19336,-0.51868 -0.47318,0.67023 -0.96071,1.32515 -1.40916,2.00782 -0.50167,0.50749 -0.69203,1.32711 -1.29034,1.77285 -0.72137,0.27195 -1.57384,0.33695 -2.32311,0.11083 -1.0986,-0.40417 -0.85482,-2.05129 -1.9418,-2.56755 -0.45908,-0.42929 -1.2757,-0.57486 -1.50067,-1.1529 z"
       id="path2270" /><path
       style="opacity:1;fill:#000000;stroke-width:0.1;stroke-linecap:round"
       d="m 138.95923,157.68654 c 0.11215,0.078 0.21352,0.0483 0.3363,0.0433 0.16811,0.009 0.26005,0.1748 0.4174,0.2115 0.15165,0.0496 0.36043,0.0227 0.45073,0.18232 0.045,0.13878 0.0119,0.29855 -0.0682,0.41883 -0.0824,0.13988 -0.25768,0.16688 -0.4061,0.15248 -0.15595,-0.0188 -0.31325,-0.003 -0.46266,0.0454 -0.0999,0.0277 -0.25638,0.0938 -0.28048,-0.0611 -0.11236,-0.0751 -0.14946,-0.20801 -0.18916,-0.33349 -0.10246,-0.14257 -0.0907,-0.34699 0.023,-0.48 z"
       id="path2272" /><path
       style="opacity:1;fill:#000000;stroke-width:0.1;stroke-linecap:round"
       d="m 138.6416,159.25817 c 0.0186,0.48085 0.18229,1.03593 0.55509,1.34871 0.52633,0.27721 1.14065,0.12016 1.70662,0.19982 0.54779,0.0907 0.96114,-0.30826 1.4263,-0.4609 0.41898,-0.0345 0.42171,0.4435 0.63713,0.67648 0.20729,0.28365 0.41015,0.59988 0.76434,0.71376 0.55399,0.2135 1.14649,0.39787 1.74506,0.37648 0.34817,-0.0623 0.64476,-0.5942 0.31751,-0.85327 -0.47701,-0.27232 -1.08605,0.15087 -1.52566,-0.22986 -0.42239,-0.0919 -0.60779,-0.81586 -0.0528,-0.80802 0.3365,-0.11904 0.2909,-0.64848 -0.12531,-0.48368 -0.56961,-0.16765 -0.94846,0.57197 -1.51002,0.28332 -0.0788,-0.16748 -0.547,-0.17873 -0.8575,-0.26175 -0.40887,-0.058 -0.81925,-0.12806 -1.22277,-0.20305 -0.63854,-0.0113 -1.20176,-0.50626 -1.85797,-0.29804 z"
       id="path2274" /><path
       style="opacity:1;fill:#000000;stroke-width:0.1;stroke-linecap:round"
       d="m 143.61867,158.84484 c -0.16154,-0.27704 -0.34533,-0.68631 -0.14692,-0.96955 0.0915,-0.31204 0.51346,-0.2954 0.79701,-0.37723 0.53968,-0.0705 0.90769,0.54706 1.43715,0.53617 0.46617,0.16472 0.49631,-0.23315 0.41415,-0.57751 -0.0669,-0.36122 -0.22415,-0.7074 -0.24148,-1.07529 0.17267,-0.46802 0.69069,-0.37003 0.99743,-0.0981 0.29935,0.33399 0.75106,0.46187 1.19245,0.46023 0.51301,-0.0323 0.77361,-0.7268 0.42918,-1.09683 -0.12067,-0.27673 -0.69259,-0.67549 -0.28294,-0.9286 0.41074,-0.18706 0.86923,0.0181 1.22401,0.23294 0.24596,0.26463 0.51791,0.53678 0.58764,0.91214 0.0146,0.41746 -0.49243,0.58956 -0.61918,0.9529 -0.46087,0.17515 -0.92712,0.306 -1.34296,0.57537 -0.39458,0.002 -0.86519,0.0534 -1.21699,-0.0782 0.17289,0.34361 0.2601,0.72035 0.21298,1.10453 0.0811,0.43711 -0.2809,0.86317 -0.72417,0.86508 -0.53756,0.47376 -0.7635,-0.33458 -1.03807,-0.64361 -0.2822,-0.14368 -0.63999,-0.29576 -0.95445,-0.19558 -0.24144,0.13425 -0.50136,0.23996 -0.72484,0.40117 z"
       id="path2278" /><path
       style="opacity:1;fill:#000000;stroke-width:0.1;stroke-linecap:round"
       d="m 148.54066,162.90077 c -1.1e-4,0.28445 -0.0122,0.57252 0.059,0.8508 0.0402,0.12498 0.0212,0.25676 0.0438,0.38171 0.0247,0.11098 0.12542,0.15145 0.22425,0.17509 0.0304,0.10058 0.14068,0.12991 0.24419,0.13847 0.17711,0.0238 0.35731,0.0314 0.53542,0.0368 0.1292,-0.0222 0.0932,-0.18138 0.10501,-0.27756 -0.002,-0.11542 -0.004,-0.2316 0.0119,-0.34581 -0.0324,-0.10602 -0.11578,-0.1903 -0.14418,-0.30043 -0.0812,-0.20497 -0.18653,-0.42148 -0.39164,-0.52753 -0.13668,-0.0856 -0.28199,-0.16429 -0.39091,-0.28596 -0.0183,-0.12704 -0.15746,-0.15107 -0.26292,-0.12843 -0.056,0.005 -0.11193,0.0128 -0.16826,0.0141 z"
       id="path2280" /><path
       style="opacity:1;fill:#000000;stroke-width:0.1;stroke-linecap:round"
       d="m 145.31835,164.78371 c -0.0432,0.58066 0.33564,1.07561 0.55118,1.58714 0.28483,0.43614 0.61345,0.85258 1.09947,1.073 0.5153,0.32515 1.07466,0.56969 1.57378,0.92266 0.50616,0.20222 1.01287,0.36946 1.5296,0.50738 0.59165,0.23029 0.62414,0.8484 0.75039,1.34252 0.70406,-0.0749 1.24481,-0.66549 1.9775,-0.69913 0.84571,-0.0967 0.92154,1.02209 1.22927,1.57202 0.23046,0.6714 1.08404,0.2274 1.32977,-0.17484 0.21485,-0.60159 -0.34763,-0.9736 -0.76255,-1.28155 -0.47676,-0.28067 -0.86678,-0.66676 -1.08217,-1.19184 -0.2504,-0.85755 -1.26281,-0.057 -1.27667,0.52752 -0.24879,0.35958 -1.02655,0.4526 -0.91805,-0.13115 -0.24423,-0.58674 -0.73584,-0.73294 -1.31571,-0.63205 -0.74848,-0.14369 -1.41806,-0.54879 -2.07065,-0.90232 -0.46045,-0.56681 -1.21808,-0.82775 -1.57883,-1.44869 -0.3401,-0.33741 -0.55759,-0.94368 -1.03633,-1.07067 z"
       id="path2282" /><path
       style="opacity:1;fill:#000000;stroke-width:0.1;stroke-linecap:round"
       d="m 156.74907,180.80981 c 0.34235,-0.19199 0.6419,-0.4644 1.03424,-0.55192 0.33634,-0.0904 0.69546,-0.17979 1.03487,-0.055 0.36867,0.14323 0.77851,0.20654 1.08719,0.46515 0.29844,0.31595 0.77496,0.47167 0.95331,0.89114 0.26046,0.25603 0.2896,0.66321 0.44743,0.97521 0.0978,0.52493 0.13121,1.08385 -0.0259,1.59915 -0.20604,0.27264 -0.28781,0.60818 -0.47194,0.88324 -0.27481,0.2228 -0.32596,0.60837 -0.63012,0.79485 -0.54103,0.36133 -1.21935,0.27181 -1.8352,0.28322 -0.36128,0.002 -0.7188,-0.12848 -0.9721,-0.39069 -0.73651,-0.60296 -1.59083,-1.0858 -2.17717,-1.85318 -0.16149,-0.33376 -0.38396,-0.6718 -0.38401,-1.0537 0.12839,-0.33716 0.15632,-0.7469 0.45343,-0.98462 0.3671,-0.1758 0.40633,-0.61351 0.72554,-0.81497 0.24318,-0.10005 0.49006,-0.22763 0.76044,-0.1879 z"
       id="path2284" /><path
       style="opacity:1;fill:#000000;stroke-width:0.1;stroke-linecap:round"
       d="m 164.09963,182.76301 c 0.23034,1.10741 -0.44365,2.67175 0.91646,3.27176 1.07356,0.74281 1.51278,2.04016 2.36659,2.98461 -0.75646,-1.21788 -0.86247,-2.71293 -1.4583,-4.00729 -0.48349,-1.13454 -1.14897,-2.17702 -1.60992,-3.324 -0.38471,-0.91918 -1.12553,-1.59786 -1.94361,-2.13048 -1.72672,-1.42931 -2.67584,-3.55101 -3.40393,-5.62165 -0.29111,-0.82412 -0.58929,-2.13504 -1.71372,-2.04461 -0.44655,0.60584 -1.18074,1.35251 -1.17421,2.19041 0.0978,1.43233 1.78118,0.29898 2.34247,1.20767 0.65438,1.05651 0.99323,2.29293 1.75926,3.29278 0.96219,1.36299 2.2225,2.48128 3.25703,3.78459 0.18927,0.17614 0.41042,0.32628 0.66188,0.39621 z"
       id="path2286" /><path
       style="opacity:1;fill:#000000;stroke-width:0.1;stroke-linecap:round"
       d="m 157.74046,176.49135 c -0.072,0.35138 -0.097,0.73562 0.0621,1.06788 0.0692,0.114 0.20072,0.16879 0.31407,0.22885 0.12591,0.0315 0.22557,-0.0957 0.24326,-0.20815 0.0217,-0.21581 0.0201,-0.43367 0.0219,-0.65055 -0.003,-0.13431 0.003,-0.26958 -0.01,-0.40322 -0.01,-0.0945 -0.11038,-0.12052 -0.14638,-0.19898 -0.0433,-0.0807 -0.13413,-0.0824 -0.21286,-0.0704 -0.0717,-9.5e-4 -0.16616,-0.0206 -0.21046,0.0532 -0.0252,0.0586 -0.0447,0.12052 -0.0619,0.1814 z"
       id="path2288" /><path
       style="opacity:1;fill:#000000;stroke-width:0.1;stroke-linecap:round"
       d="m 151.38129,171.41158 c -0.23236,0.0886 -0.36047,0.34292 -0.61991,0.38869 -0.20062,0.11997 -0.50901,0.21126 -0.54659,0.47625 0.0215,0.20053 -0.0927,0.40542 0.002,0.59665 0.0887,0.14845 0.28007,0.19527 0.43949,0.22925 0.28278,0.0179 0.58353,0.0565 0.8493,-0.0687 0.0904,-0.13123 0.10556,-0.29836 0.15878,-0.44537 0.0508,-0.27325 -0.0182,-0.55069 -0.008,-0.82337 -0.0362,-0.15317 -0.18372,-0.23715 -0.27543,-0.35338 z"
       id="path2290" /><path
       style="opacity:1;fill:#000000;stroke-width:0.1;stroke-linecap:round"
       d="m 148.13557,176.81306 c -0.65698,0.64006 -0.74802,1.62957 -1.14585,2.41783 0.0263,0.69121 0.1538,1.51089 0.71105,1.98084 0.88767,0.61624 2.03203,0.5219 3.06168,0.58444 0.74662,-0.0392 1.79402,-0.0685 2.04796,-0.9388 0.14472,-0.79663 0.57679,-1.68118 0.0492,-2.43144 -0.3916,-0.71251 -0.88597,-1.36177 -1.14428,-2.14406 -0.2134,-0.27293 -0.41001,-1.00041 -0.0458,-0.30577 0.47706,0.8922 1.45056,1.34452 1.98033,2.17426 0.39405,0.92528 0.45981,1.96491 0.48863,2.96024 -0.0566,0.77354 -0.67561,1.36721 -1.2552,1.81691 -0.89802,0.63072 -2.03096,0.69029 -3.08437,0.80347 -0.7624,0.008 -1.61459,-0.082 -2.22407,-0.5697 -0.46062,-0.70267 -1.03451,-1.30476 -1.60409,-1.90876 -0.40675,-0.78714 -0.68509,-1.65917 -0.82594,-2.5335 -0.12278,-0.87711 0.82253,-1.22608 1.38178,-1.67481 0.42801,-0.25797 1.19853,-0.71301 1.609,-0.23115 z"
       id="path2292" /><path
       style="opacity:1;fill:#000000;stroke-width:0.1;stroke-linecap:round"
       d="m 163.45131,199.21968 c 0.0835,-1.18114 1.13727,-2.19049 2.32178,-2.21888 0.66412,-0.11027 1.38551,-0.48039 2.03855,-0.13795 0.48074,0.33249 0.57233,0.96621 0.71065,1.49244 0.0949,0.56469 0.20903,1.13229 0.24559,1.70271 -0.0179,1.28254 -0.50476,2.56688 -1.39509,3.49796 -0.85595,0.19399 -1.86144,0.41688 -2.63674,-0.1307 -0.75596,-0.60874 -0.78821,-1.65649 -1.12716,-2.49619 -0.17686,-0.54091 -0.28918,-1.14525 -0.15758,-1.70939 z"
       id="path2294" /><path
       style="opacity:1;fill:#000000;stroke-width:0.1;stroke-linecap:round"
       d="m 163.29354,206.65981 c 0.49154,-1.00566 2.075,-2.21684 3.05374,-1.21219 0.57622,1.2707 -0.86209,2.1585 -1.6286,2.92387 -0.54304,0.53182 -2.28221,1.683 -2.18464,0.18056 0.076,-0.69885 0.54547,-1.25643 0.7595,-1.89224 z"
       id="path2296" /><path
       style="opacity:1;fill:#000000;stroke-width:0.1;stroke-linecap:round"
       d="m 140.08984,224.91397 c 0.66796,-1.05518 1.70688,-1.76001 2.63367,-2.55185 0.17867,-1.20765 0.63949,-2.45082 2.10313,-2.34121 1.05523,-0.14168 2.30607,-0.63962 3.2207,0.16851 1.04074,0.76357 1.82229,1.84146 2.89047,2.57525 0.6509,0.98361 -0.68893,1.74387 -1.4868,2.00979 -1.20263,0.65814 -2.34074,1.44228 -3.62544,1.94066 -1.36582,0.64291 -2.36996,1.96621 -2.79567,3.39266 0.0282,1.49341 -1.90113,0.0543 -2.81873,0.60305 -1.09995,0.36972 -2.0483,1.12693 -2.91136,1.8599 -0.59582,0.70339 -0.9913,1.64138 -1.68714,2.21325 -0.0979,-1.27971 0.67015,-2.48572 1.4867,-3.41696 0.99109,-0.65859 2.12163,-1.11432 2.9456,-2.01542 0.63598,-0.74089 1.3201,-1.43578 1.88804,-2.23052 0.41391,-1.24115 1.97793,-1.67543 1.98128,-3.08299 0.25493,-0.80705 -0.66073,-1.22516 -0.84871,-0.2967 -0.62212,0.98767 -1.82237,1.48448 -2.97574,1.17258 z"
       id="path2304" /><path
       style="opacity:1;fill:#000000;stroke-width:0.1;stroke-linecap:round"
       d="m 160.0092,228.84047 c 0.003,1.52456 -0.24719,3.03642 -0.25523,4.56058 -0.53468,1.03588 0.97353,2.02354 1.60995,0.94922 0.56467,-0.74347 1.04565,-1.55496 1.51312,-2.36225 0.41436,-1.00446 -0.77346,-1.71098 -1.35821,-2.34223 -0.44498,-0.35383 -0.91978,-0.75084 -1.50963,-0.80532 z"
       id="path2310" /><path
       style="opacity:1;fill:#000000;stroke-width:0.1;stroke-linecap:round"
       d="m 158.57614,227.58655 c 0.24779,2.27483 0.15793,4.6913 -0.33684,6.89924 -0.82674,1.91788 -2.9208,2.70579 -4.69014,3.49764 -2.27034,0.75353 -4.8398,-0.45206 -6.98592,0.47747 -0.92813,-1.62871 -0.29878,-3.93013 0.0816,-5.76433 1.17183,-2.39706 2.63587,-4.89706 5.09919,-6.17348 2.58646,-0.56609 2.59773,-2.94298 2.75598,-4.99654 2.03083,-1.43248 4.43647,-2.4965 6.56059,-3.88593 1.79568,-1.04198 3.07772,-2.65074 3.75656,-4.59743 1.08594,-2.64858 3.1656,-4.62838 4.74306,-6.95235 0.7981,-1.00151 1.62631,-5.36331 2.55026,-2.41964 0.59581,1.5451 1.00658,2.84377 -0.0545,4.14742 0.72175,1.83822 1.39961,4.30636 -0.66424,5.5814 -1.01747,1.36721 -3.07275,2.6138 -1.18592,4.04058 -0.0144,2.59349 -1.10285,5.04943 -2.45088,7.23422 -0.67428,1.72526 -2.12734,3.10295 -4.04398,3.20303 -1.94532,0.42705 -3.68609,-0.71596 -4.84973,-2.17308 -2.30264,-1.43392 -2.36483,1.39239 -0.28515,1.88178 z"
       id="path2312" /><path
       style="opacity:1;fill:#000000;stroke-width:0.1;stroke-linecap:round"
       d="m 45.726095,202.28414 c 1.836102,3.28603 -3.119212,6.31351 -0.661765,9.59077 2.527105,2.92334 1.350942,6.63363 2.395938,9.88369 2.153717,2.58906 4.888284,7.92239 8.766558,4.71502 4.127761,0.21141 0.47428,6.28718 3.133278,8.41854 2.084949,3.36845 6.142854,2.72476 9.486263,2.7551 4.354277,-0.58121 1.457426,-5.4297 -0.264666,-7.34654 -0.1634,-4.12657 -4.930505,-4.26933 -7.114424,-6.95682 -0.639447,-3.73597 -4.654022,-4.46185 -7.172034,-6.60394 -3.178736,-3.05633 -4.145007,-7.62624 -6.724878,-11.13641 -0.645334,-1.089 -1.277927,-2.18678 -1.84427,-3.31941 z"
       id="path2314" /><path
       style="opacity:1;fill:#000000;stroke-width:0.1;stroke-linecap:round"
       d="m 53.452667,231.03712 c 0.251755,0.16141 0.731997,-0.62814 0.207668,-0.60574 0.446586,-0.41253 1.126921,0.0762 1.67819,-0.2372 0.64301,-0.1178 0.755429,-0.99113 1.236253,-1.15428 0.206238,0.58046 -0.05689,1.29108 0.08873,1.92528 0.05969,0.80395 0.04368,1.76168 -0.621209,2.32908 -0.22077,0.26195 -0.212411,1.09743 -0.564703,0.49941 -0.490652,-0.27304 -0.894212,-0.64588 -1.235526,-1.0869 -0.338867,-0.51844 -0.428123,-1.15907 -0.789406,-1.6696 z"
       id="path2316" /><path
       style="opacity:1;fill:#000000;stroke-width:0.1;stroke-linecap:round"
       d="m 137.93828,246.26859 c -0.80756,-0.87355 -1.11612,-2.12935 -0.96158,-3.29333 0.2636,-0.67691 1.06392,-0.89155 1.72278,-0.77776 0.70545,0.0866 1.39457,0.27768 2.10071,0.35665 0.86151,0.19158 1.7752,0.84952 1.78443,1.81021 -0.0437,0.93278 -0.61404,1.89371 -0.17053,2.8115 0.14361,0.39752 0.74406,0.76235 1.07759,0.37208 0.34957,-0.44427 -0.14494,-0.92778 -0.0346,-1.39169 0.22235,-0.49687 0.90442,-0.22223 0.99304,0.22869 0.15886,0.49866 -0.0975,0.98255 -0.19672,1.46205 -0.49332,0.85298 -1.86599,0.73067 -2.37033,-0.051 -0.64465,-0.68597 -1.76615,-0.53474 -2.38807,-1.25302 -0.44718,-0.3207 -1.03002,-0.34372 -1.5567,-0.27434 z"
       id="path2318" /><path
       style="opacity:1;fill:#000000;stroke-width:0.1;stroke-linecap:round"
       d="m 74.294782,231.03483 c -0.225889,-0.75555 -0.645073,-1.4275 -0.995556,-2.12747 -0.338874,-0.51588 -1.072922,-0.40642 -1.532166,-0.78713 -0.933905,-0.21895 -0.574383,-1.23718 0.07252,-1.57906 0.41473,-0.22593 1.078234,-0.79137 0.994212,-0.80982 0.606792,-0.88627 0.987614,0.28522 1.280504,0.78211 0.326673,0.51242 0.498957,1.13878 1.054244,1.46806 0.721827,0.63638 1.432293,1.30589 2.313018,1.71826 0.565992,0.48307 1.169321,0.92367 1.74816,1.3905 0.482686,0.45977 1.157414,0.68177 1.510297,1.27047 0.559061,0.58809 0.484764,1.4401 0.391184,2.17936 0.09414,0.362 -0.242468,1.45073 -0.290983,0.54623 -0.155457,-0.83682 -0.688515,-1.5391 -1.11341,-2.25695 -0.408797,-0.50096 -0.720686,-1.10559 -1.376839,-1.34198 -0.583624,-0.33532 -1.562625,-0.83719 -2.005673,-0.82815 -0.537648,-0.0782 -1.107731,-0.35775 -1.556896,0.19658 -0.151772,0.089 -0.321521,0.14237 -0.492612,0.17899 z"
       id="path2320" /><path
       style="opacity:1;fill:#000000;stroke-width:0.1;stroke-linecap:round"
       d="m 59.736235,176.16062 c -0.237618,-0.0883 -0.512745,0.0451 -0.628438,0.26215 -0.08225,0.13922 -0.09058,0.30948 -0.04651,0.46252 0.07392,0.27386 0.310126,0.49214 0.58131,0.56545 0.07276,0.009 0.173385,0.048 0.230309,-0.01 0.103056,-0.12279 0.09112,-0.29793 0.04614,-0.44169 -0.05001,-0.16811 -0.120662,-0.32984 -0.157039,-0.50198 -0.0289,-0.1091 -0.04712,-0.22439 -0.02577,-0.33651 z"
       id="path2324" /><path
       style="opacity:1;fill:#000000;stroke-width:0.1;stroke-linecap:round"
       d="m 68.831118,178.37013 c -0.01128,0.20289 0.0088,0.40564 0.01,0.6085 0.135136,0.48551 -0.397883,0.79058 -0.752897,0.43041 -0.364484,-0.35692 0.227,-0.82646 0.519136,-1.03887 z"
       id="path2326" /><path
       style="display:inline;opacity:1;fill:#000000;stroke-width:1;stroke-linecap:round"
       d="m 82.121025,170.65294 2.513542,-3.24115 2.248958,-1.65365 1.190625,0.66146 -0.264583,1.05834 -2.182813,0.92604 -1.5875,0.92604 -0.992187,1.25677 4.630208,-0.92604 0.396875,1.71979 4.696349,2.18281 -0.26458,0.59531 -4.564061,-1.91822 -0.859896,-1.5875 -2.38125,0.52916 z"
       id="path1974" /><path
       style="display:inline;opacity:1;fill:#000000;stroke-width:1;stroke-linecap:round"
       d="m 129.11666,169.0026 c 0.22738,-0.78259 0.22463,-1.66759 0.71579,-2.34869 0.41868,-0.57385 1.12205,-0.12419 1.61574,0.0776 0.65926,0.25834 0.79176,0.99507 1.15771,1.51976 0.0879,0.20475 0.40123,0.63424 0.28225,0.13913 -0.1307,-0.60701 -0.21572,-1.22437 -0.33192,-1.83523 0.92495,1.56605 1.80239,3.16072 2.77812,4.69635 -0.99007,-0.65146 -2.02476,-1.24493 -2.98604,-1.934 -0.50396,-0.54596 -1.00792,-1.09192 -1.51188,-1.63788 -0.57324,0.44097 -1.14659,0.88197 -1.71977,1.32292 z"
       id="path1980" /><path
       style="display:inline;opacity:1;fill:#000000;stroke-width:1;stroke-linecap:round"
       d="m 126.40468,172.83906 c 0.74965,-0.46302 1.49931,-0.92604 2.24896,-1.38906 0.27011,-0.39102 0.66199,-0.715 0.84754,-1.15354 0.1258,-0.21565 0.11329,-0.86037 0.43403,-0.47117 0.42477,0.24471 0.75844,0.69317 1.26132,0.76349 0.6694,0.14249 1.34642,0.26418 1.97792,0.53882 0.15458,0.074 0.7512,0.23664 0.61328,0.25194 -0.96742,-0.0539 -1.93996,-0.0671 -2.90409,-0.14801 -0.379,0.007 -0.91052,-0.42755 -1.17166,-0.0792 -0.30869,0.38586 -0.61737,0.77171 -0.92605,1.15756 -0.79375,0.17639 -1.5875,0.35278 -2.38125,0.52916 z"
       id="path1982" /><path
       style="display:inline;opacity:1;fill:#000000;stroke-width:1;stroke-linecap:round"
       d="m 131.36563,172.37604 c -0.33073,0.26458 -0.8599,1.05833 -0.8599,1.05833 l 0.33073,1.12448 1.5875,0.99219 1.12448,0.59531 c 0,0 0.79375,0.33073 0.59531,-0.0661 -0.19844,-0.39688 -1.05833,-1.7198 -1.05833,-1.7198 l -0.72761,-1.05833 z"
       id="path1984" /><path
       style="display:inline;opacity:1;fill:#000000;stroke-width:1;stroke-linecap:round"
       d="m 132.35781,172.37604 2.31511,-0.46302 -0.66146,0.99219 -0.19844,0.99219 z"
       id="path1986" /><path
       style="display:inline;opacity:1;fill:#000000;stroke-width:1;stroke-linecap:round"
       d="m 130.83645,175.68333 1.25677,0.85989 0.72761,0.99219 0.39687,0.92604 -0.66146,1.45521 -0.66145,-1.71979 -1.19063,-1.52136 z"
       id="path1988" /><path
       style="display:inline;opacity:1;fill:#000000;stroke-width:1;stroke-linecap:round"
       d="m 134.73906,176.27865 c 0.0661,-0.26459 1.25677,-4.10104 1.25677,-4.10104 l 1.45521,2.64583 -1.17527,1.04229 z"
       id="path1990" /><path
       style="display:inline;opacity:1;fill:#000000;stroke-width:1;stroke-linecap:round"
       d="m 137.31875,171.84688 c 0.43725,-0.34434 0.79192,-0.98857 1.44308,-0.8599 0.42296,0 0.84593,0 1.2689,0 -0.0179,0.4467 0.36184,1.28319 -0.0277,1.47238 -0.24507,-0.35233 -0.50203,-0.86519 -1.01982,-0.74479 -0.31138,-0.0112 -0.66631,-0.0538 -0.24896,0.3055 0.33422,0.72895 1.04747,1.08832 1.58589,1.60318 0.11274,0.44226 0.74677,1.40952 0.007,1.53192 -0.69934,-0.18702 -0.77192,-1.17141 -1.3022,-1.63167 -0.46445,-0.65399 -1.14124,-1.116 -1.70632,-1.67662 z"
       id="path1992" /><path
       style="display:inline;opacity:1;fill:#000000;stroke-width:1;stroke-linecap:round"
       d="m 135.59896,170.32552 c -0.60163,-0.94899 -1.22822,-1.88412 -1.81402,-2.84193 -0.23317,-0.52994 -0.46634,-1.05989 -0.69952,-1.58984 0.43517,-0.35479 0.85407,-0.76115 1.3801,-0.97554 0.36919,-0.0388 0.7418,0.0355 1.11244,0.044 0.44481,0.0453 0.91053,0.0118 1.3237,0.20861 0.19394,0.0684 0.47353,0.1065 0.23092,0.33186 -0.28613,0.49884 -0.60795,0.98464 -0.82523,1.51775 -0.28664,1.08953 -0.48044,2.20233 -0.70839,3.30506 z"
       id="path1994" /><path
       style="display:inline;opacity:1;fill:#000000;stroke-width:1;stroke-linecap:round"
       d="m 74.393199,169.2851 c 0.46076,-1.72087 1.063159,-3.40478 2.52569,-4.86431 1.330091,1.85976 1.672028,3.90954 1.87089,5.98684 -1.358439,0.0113 -2.817691,-0.34024 -4.39658,-1.12253 z"
       id="path1684" /><path
       style="opacity:1;fill:#000000;stroke-width:1;stroke-linecap:round"
       d="m 79.308853,164.50468 c -0.142014,2.09735 0.190652,3.76608 1.719792,5.22552 1.341686,-1.5019 1.412413,-2.90707 1.389062,-4.7625 -0.837503,-0.76524 -2.30643,-0.68961 -3.108854,-0.46302 z"
       id="path1804" /><path
       style="opacity:1;fill:#000000;stroke-width:1;stroke-linecap:round"
       d="m 78.448958,175.22031 2.248958,-3.57188 0.992187,4.69636 z"
       id="path1806" /><path
       style="opacity:1;fill:#000000;stroke-width:1;stroke-linecap:round"
       d="m 73.554166,170.4578 c 1.940278,0.33073 3.880555,0.66146 5.820833,0.99219 -0.661458,0.94809 -1.322917,1.89618 -1.984375,2.84427 0.505954,1.96662 0.765891,3.98044 0.661458,6.00919 0.08217,0.89537 1.03e-4,1.7286 -0.76249,2.34253 -1.015359,1.27859 -1.790045,2.88774 -3.328133,3.61145 -0.578644,0.5524 -0.462669,-0.67105 -0.690576,-1.01534 -0.475658,-0.97649 -0.21074,-1.2819 0.914374,-1.26116 1.540378,-0.39365 2.263942,-1.84937 2.722995,-3.22769 0.813738,-1.42929 -0.402249,-2.01452 -1.630884,-1.38511 -1.394262,-0.0173 -2.675338,-0.88461 -3.986938,-1.36514 -1.111525,-0.86895 1.709095,-1.18782 2.396029,-1.79047 0.567283,0.6776 1.064527,3.06629 2.102955,2.08762 -0.253226,-0.74116 -1.963251,-2.85523 -0.118738,-2.26573 0.24547,0.70639 1.48347,2.91791 1.6956,1.24643 -1.301476,-1.28917 -1.740523,-3.58853 0.390183,-4.33897 0.236198,-1.33424 -1.728465,-0.24948 -2.004868,0.56252 -0.89149,0.24874 0.348693,-1.93289 -1.102979,-1.87939 -0.518058,-0.20773 -1.067062,-0.54422 -1.094446,-1.1672 z"
       id="path1808" /><path
       style="opacity:1;fill:#000000;stroke-width:1;stroke-linecap:round"
       d="m 82.946874,176.74167 c 0.264583,-0.0661 3.241146,-3.77032 3.241146,-3.77032 l 1.785937,1.05834 -1.256771,0.46302 -2.38125,1.78594 z"
       id="path1810" /><path
       style="opacity:1;fill:#000000;stroke-width:1;stroke-linecap:round"
       d="m 83.80677,177.6677 2.645833,-1.98437 -0.992187,1.78594 0.198437,3.175 z"
       id="path1812" /><path
       style="opacity:1;fill:#000000;stroke-width:0.956687;stroke-linecap:round"
       d="m 82.995262,159.3654 c -2.315798,0.66995 -3.233848,2.66463 -4.528492,4.38063 1.083079,-3.35453 3.911491,-7.1547 7.35211,-4.37534 5.119388,2.55387 10.125466,5.3595 14.97316,8.40026 2.105,3.04507 3.76815,6.80174 3.76812,10.50321 -1.10096,3.2259 2.10604,6.07417 2.92907,9.09392 0.79413,2.17855 1.59525,4.06102 2.51052,1.10215 1.39766,-2.67743 2.79531,-5.35487 4.19297,-8.0323 -0.38342,-3.06914 -0.23917,-6.18561 1.35952,-8.91606 0.69935,-1.38406 1.92526,-4.82592 -0.29359,-2.15853 -1.89226,1.21964 -3.7757,6.27407 -4.85404,5.7103 1.90209,-3.60705 3.71964,-7.56486 7.7674,-9.167 4.97099,-3.07102 10.49685,-5.02716 15.78942,-7.42082 2.49768,-0.31883 5.05658,3.58143 5.00446,5.6739 -0.81213,-2.01682 -3.6814,-6.08639 -5.65753,-3.98643 1.76325,0.57181 5.7745,5.59541 2.26552,2.7469 -1.19495,-2.69285 -6.96854,-3.53763 -4.81845,0.72282 1.02296,1.28135 2.69822,3.17181 0.21045,1.31441 -1.60595,-0.8885 -3.52059,0.53919 -4.08409,-2.13765 -2.90248,1.35978 5.20994,5.73451 1.10165,8.35709 -2.02152,2.00543 0.76554,-3.10542 -0.98858,-3.90446 -0.62638,-1.07803 -1.67965,-4.88668 -1.71961,-1.63292 -0.43894,2.54884 3.37714,4.53688 0.3933,6.96471 -1.0029,1.99007 -1.28131,1.31763 -1.7943,-0.41372 -5.37118,1.65468 -9.31056,7.03999 -9.68964,12.66442 0.31556,1.71525 -1.41237,6.18499 -1.5143,2.14235 1.15682,-5.63597 4.27855,-10.86078 8.41994,-14.83086 2.30962,0.33511 1.63723,-2.81033 3.81925,-1.15384 1.50797,2.45038 0.77757,-5.74827 -0.42972,-1.67352 -1.8405,-0.75218 2.47295,-7.68349 -1.16891,-5.13672 -2.44399,5.15129 -5.27251,10.1069 -8.09553,15.05125 -1.62805,3.81272 -3.45955,7.52565 -4.9848,11.3649 -2.99684,2.96727 -3.43404,-3.45706 -4.85162,-5.25127 -2.34068,-5.93535 -5.777017,-11.30864 -8.805079,-16.89628 -0.561176,-2.00097 -4.277363,-6.23888 -3.348353,-1.74776 0.517979,2.76667 0.660391,2.05854 -0.814871,0.69328 0.351884,1.89379 -1.468104,4.52439 -0.69391,0.95857 0.330522,-1.74374 -0.01129,-4.69697 -0.858627,-1.40518 -1.805488,1.67469 2.26627,7.2481 -0.762202,3.16289 -0.815436,-1.98947 -0.515828,-2.03849 -0.612119,0.21024 -0.735357,1.29302 -1.810575,-3.94888 0.650778,-4.43409 2.303658,-1.01806 1.582902,-4.44844 -0.303292,-1.45098 -2.594441,1.40753 -0.668423,-0.86129 0.627112,-1.6894 -2.154109,-2.12932 -4.039792,3.70308 -5.003229,2.50652 2.616115,-1.29317 2.177851,-6.57928 -1.208343,-4.13224 -0.897894,1.27797 -5.287767,4.1465 -2.415023,1.03953 1.019866,-0.73804 3.250834,-1.63675 1.1635,-2.81688 z"
       id="path1816" /><path
       style="opacity:1;fill:#000000;stroke-width:1;stroke-linecap:round"
       d="m 129.50766,190.12553 4.02241,-3.46114 2.5257,3.08697 z"
       id="path2024" /><path
       style="opacity:1;fill:#000000;stroke-width:1;stroke-linecap:round"
       d="m 82.412559,172.33205 2.08136,0.11693 -1.286235,1.0056 z"
       id="path2026" /><path
       style="opacity:1;fill:#000000;stroke-width:1;stroke-linecap:round"
       d="m 129.97656,191.95521 c 0.26458,0 1.33945,0.51262 1.33945,0.51262 l 0.51263,0.77722 c 0,0 0.26459,1.42214 0.26459,1.75286 0,0.33073 -1.85209,4.43177 -1.85209,4.43177 l 3.43959,-5.02708 0.79375,-1.25677 1.85208,-0.66146 1.32292,-0.0661 1.19062,1.98437 0.52917,2.11667 -3.30729,2.97656 c 0,0 -1.65365,0.8599 -1.98438,1.12448 -0.33073,0.26458 -5.09323,2.3151 -5.09323,2.3151 l -1.05833,0.92605 0.33073,0.39687 6.87917,-3.43958 0.59531,2.57968 3.10885,-1.52135 2.05052,-1.52135 2.05052,-4.7625 0.26459,-3.63802 -1.25677,-3.90261 -2.64584,-2.71198 -0.59531,1.52136 1.45521,1.78593 1.25677,3.3073 c 0,0 -0.26458,2.38125 -0.26458,3.0427 0,0.66146 -0.0662,2.64584 -0.1323,2.91042 -0.0661,0.26458 -0.92604,2.05052 -1.19062,2.18281 -0.26458,0.13229 -2.4474,1.91823 -2.4474,1.91823 l -1.52135,-1.19062 3.43958,-2.31511 1.05834,-1.5875 -0.52917,-3.63802 -1.12448,-1.78593 -1.45521,-0.46303 c 0,0 -2.44739,0.59532 -2.71198,0.72761 -0.26458,0.13229 -0.79375,1.12448 -0.79375,1.12448 0,0 -0.52916,1.19062 -0.52916,0.92604 0,-0.26458 -0.46302,-1.78594 -0.46302,-1.78594 l -1.5875,-0.7276 z"
       id="path2028" /><path
       style="opacity:1;fill:#000000;stroke-width:1;stroke-linecap:round"
       d="m 135.26823,185.14219 -0.33073,1.78593 1.38906,1.25677 1.85208,1.38907 0.92605,0.46302 -1.25678,-2.38125 -0.33072,-1.45521 0.0661,-1.32292 -0.13229,-0.66146 z"
       id="path2030" /><path
       style="opacity:1;fill:#000000;stroke-width:1;stroke-linecap:round"
       d="m 137.38489,169.33333 1.85209,-5.02708 2.57968,4.36562 0.79375,-0.39687 -0.19843,-2.57969 1.71979,-0.26458 0.79375,1.32291 0.59531,2.84427 2.18281,1.32292 c 0,0 0.8599,0.13229 0.79375,0.39688 -0.0661,0.26458 -1.4552,2.38125 -1.4552,2.38125 0,0 0.59531,0.7276 0.59531,1.05833 0,0.33073 -0.33073,0.7276 -0.33073,0.7276 0,0 -2.18281,-1.25677 -2.11667,-0.92604 0.0661,0.33073 0.59531,1.91823 0.59531,1.91823 0,0 1.12448,-0.26458 0.92605,0.0661 -0.19844,0.33073 -1.85209,0.92604 -1.85209,0.92604 l -0.79375,-1.12448 0.0661,-2.11667 1.45521,-0.92604 1.38906,-0.99219 0.19844,-0.85989 c 0,0 -1.52136,-0.26459 -1.78594,-0.19844 -0.26458,0.0661 -0.8599,-0.0662 -0.8599,-0.0662 l -0.26458,-2.3151 -0.46302,-1.85208 -0.33073,-0.26459 -0.19844,1.5875 -0.52916,1.38907 -1.91823,-0.19844 -1.38907,-2.84427 -1.46162,2.69479 c -0.22495,0.21305 -0.42618,0.23633 -0.58885,-0.0489 z"
       id="path2032" /><path
       style="opacity:1;fill:#000000;stroke-width:1;stroke-linecap:round"
       d="m 149.24998,189.52082 c -0.45213,-1.52789 -0.90426,-3.05578 -1.35639,-4.58367 2.26193,-0.15978 6.50091,-2.29919 6.11263,1.79185 0.86221,0.9481 1.36955,-2.09674 2.56711,-0.10966 1.96697,0.6559 0.58505,6.39686 1.65035,2.56723 0.27344,-2.49232 4.0755,-3.61478 5.88551,-2.15354 1.64281,1.69237 3.98501,5.21057 0.66966,6.6368 -1.61407,0.91037 -5.92703,-2.34759 -5.23723,1.0562 1.56999,2.75003 3.43749,5.73418 3.345,8.99304 -1.15946,2.29208 -1.44021,4.82012 -0.39571,7.22275 0.41426,2.03127 -2.98324,-0.30586 -1.11014,-1.41601 -0.39561,-3.03951 -4.91428,-2.18026 -5.80439,-5.05771 -1.57762,-2.38998 1.69738,-5.75953 -1.35459,-7.81531 -3.03173,-1.495 -1.596,-5.98965 1.73453,-4.76994 2.18777,1.3854 4.52537,0.24574 6.92055,0.68446 3.7702,0.075 1.32779,-5.26481 -1.46217,-3.66927 -1.33823,1.56517 -4.33014,5.27099 -5.1829,1.17437 -0.39414,-1.2325 -1.97185,-2.60235 -0.92544,-0.51045 0.15517,3.24874 -1.9327,-1.22998 -1.94321,-2.42573 -0.58828,-2.85214 -5.54741,-2.3112 -3.8046,0.95814 0.17056,0.62311 0.81656,3.16429 -0.30857,1.42645 z"
       id="path2036" /><path
       style="opacity:1;fill:#000000;stroke-width:1;stroke-linecap:round"
       d="m 147.76979,194.66719 2.64583,-0.0661 c 0,0 3.30729,3.30729 3.30729,3.9026 0,0.59532 0.1323,2.11667 0.1323,2.4474 0,0.33073 -0.92605,1.5875 -0.92605,1.5875 l -1.98437,0.26458 -0.13229,-1.98437 1.5875,0.39687 c 0,0 0.7276,0.39688 0.66146,0.13229 -0.0662,-0.26458 -0.1323,-2.91041 -0.1323,-2.91041 l -2.11666,-2.24896 -0.92604,-0.79375 -0.8599,0.46302 -0.0661,1.19063 -0.52916,-0.46303 z"
       id="path2042" /><path
       style="opacity:1;fill:#000000;stroke-width:1;stroke-linecap:round"
       d="m 143.73489,191.42604 1.25677,2.64583 c 0,0 -0.66145,1.65365 -0.79375,2.11667 -0.13229,0.46302 -1.65364,4.10104 -1.65364,4.10104 l -2.71198,3.24115 -1.91823,1.78593 c 0,0 -2.18281,2.71198 -2.24896,2.97657 -0.0661,0.26458 -1.19062,2.11666 -1.32291,2.38125 -0.1323,0.26458 -1.52136,1.71979 -1.52136,1.71979 l -0.19844,0.59531 1.65365,-0.8599 -1.19063,2.38125 1.45521,-1.12447 1.45521,-1.98438 c 0,0 0.79375,-0.7276 0.99219,-1.5875 0.19844,-0.8599 1.05833,-3.57187 1.05833,-3.57187 l 1.38906,-0.46303 c 0,0 1.12448,0.26459 1.12448,-0.0661 0,-0.33073 1.65365,-1.19063 1.65365,-1.19063 l 1.78594,-1.32291 3.04271,-0.39688 2.18281,0.39688 0.85989,0.33073 -1.4552,-2.64584 -2.64584,0.79375 -2.57969,0.59532 -1.5875,1.25677 1.85209,-3.96875 c 0,0 0.66146,-0.79375 1.05833,-0.59532 0.39688,0.19844 2.64583,1.38907 2.64583,1.38907 l 0.26459,-1.19063 -0.99219,-2.77812 -0.33073,-2.38125 -0.92604,-1.85209 z"
       id="path2044" /><path
       style="opacity:1;fill:#000000;stroke-width:1;stroke-linecap:round"
       d="m 143.33802,206.375 2.11667,-1.05834 1.71979,-0.66145 1.19062,0.46302 1.05834,0.85989 0.66145,2.05052 v 1.65365 l -2.11666,1.32292 -0.72761,0.26458 -0.92604,-1.71979 -0.85989,-1.5875 -0.92605,-0.59532 z"
       id="path2050" /><path
       style="opacity:1;fill:#000000;stroke-width:1;stroke-linecap:round"
       d="m 143.27187,215.63541 c -0.12174,1.75111 2.32706,1.69223 3.53139,1.94185 1.71265,0.18691 0.68748,-3.43188 1.77965,-2.32017 -0.0953,0.73534 0.14876,1.67759 0.65252,1.11977 -0.72667,1.35989 1.58773,0.88273 0.86648,2.44638 1.22684,-1.8449 1.41598,1.00262 0.82284,0.86765 1.85124,0.0153 3.51526,-1.10909 5.34547,-1.35601 1.60403,-0.86591 3.3157,-2.04912 3.95774,-3.8339 0.40183,-1.64364 -1.80933,-2.22233 -1.62104,-4.00736 -0.24773,-1.8342 -1.87559,-1.18689 -3.0277,-1.31472 -0.49809,-1.63772 -3.73904,-2.04256 -3.32981,0.24695 -0.53511,2.06773 -2.71605,2.7589 -4.2691,3.86118 -1.68641,0.89203 -1.61602,4.51101 -3.98509,2.61717 l -0.36951,-0.16593 -0.35383,-0.10287 z"
       id="path2052" /><path
       style="opacity:1;fill:#000000;stroke-width:1;stroke-linecap:round"
       d="m 123.09739,242.22604 c 1.2481,-1.07222 2.34558,-2.37285 3.82658,-3.13504 1.15243,-0.35227 2.30005,-0.73134 3.44947,-1.09829 0.68318,-0.0417 1.79808,0.6366 0.97481,1.29238 -0.61157,0.75983 -1.22314,1.51966 -1.83471,2.27949 -1.82371,1.06253 -3.74176,1.94954 -5.71015,2.70817 -0.53634,-0.064 -1.38196,-0.0902 -0.96462,-0.83978 0.0862,-0.40231 0.17241,-0.80462 0.25862,-1.20693 z"
       id="path2054" /><path
       style="opacity:1;fill:#000000;stroke-width:1;stroke-linecap:round"
       d="m 74.414062,245.07031 c 0.389319,-0.88131 0.628491,-1.83117 1.132961,-2.65951 0.552415,-0.47502 1.336223,-0.31903 1.982893,-0.55461 0.653227,-0.16711 1.347997,-0.14497 1.996529,0.0329 0.367514,-0.0461 0.788751,0.13071 0.889192,0.51449 0.06907,0.30423 0.111134,0.61228 0.194245,0.91468 0.07989,0.34437 0.04828,0.70894 -0.106095,1.02751 -0.199875,0.61627 -0.399749,1.23255 -0.599624,1.84883 -0.947724,0.0494 -1.894169,0.14876 -2.844271,0.13229 -0.140881,0.49497 0.07977,1.05812 -0.189395,1.52016 -0.33337,0.32813 -0.857741,0.0363 -1.269033,0.17571 -0.726236,0.0922 -1.426388,0.32284 -2.142255,0.46115 -0.388564,0.0999 -0.63845,-0.25913 -0.522818,-0.60305 -0.01456,-0.40775 -0.02912,-0.81549 -0.04368,-1.22324 0.667911,-0.083 1.246573,0.34579 1.709742,0.77345 -0.05483,-0.78742 -0.128004,-1.57441 -0.188387,-2.36076 z"
       id="path2060" /><path
       style="opacity:1;fill:#000000;stroke-width:1;stroke-linecap:round"
       d="m 83.740624,208.55781 0.132292,-0.7276 0.46302,-0.1323 0.661459,0.26459 0.132291,0.46302 -0.595312,0.79375 z"
       id="path2064" /><path
       style="opacity:1;fill:#000000;stroke-width:1;stroke-linecap:round"
       d="m 131.69635,183.22396 0.8599,-1.85209 0.59531,-0.99218 0.8599,-0.19844 1.4552,0.46302 0.33073,0.26458 0.39688,-0.59531 0.7276,-2.84427 -1.32291,1.19062 -0.8599,-0.26458 1.38906,-2.18281 1.78594,0.13229 2.38125,-0.13229 -0.0661,1.52135 0.52917,1.38906 -0.19844,0.72761 -0.7276,-1.45521 -0.59531,-1.05833 -0.8599,0.0661 -0.39687,-0.13229 c 0,0 0.0661,1.38906 0.0661,1.71979 0,0.33073 -0.79375,2.05052 -0.85989,2.31511 -0.0662,0.26458 -0.1323,0.85989 -0.1323,1.25677 0,0.39687 0.0661,1.25677 -0.19843,1.19062 -0.26459,-0.0661 -1.38907,-1.25677 -1.38907,-1.25677 l -0.33072,-0.85989 -0.26459,1.5875 -0.79375,0.59531 c 0,0 -0.46302,-0.26458 -0.46302,-0.52917 0,-0.26458 0.26458,-2.11666 0.26458,-2.11666 l -1.52135,2.3151 z"
       id="path2066" /><path
       style="opacity:1;fill:#000000;stroke-width:1;stroke-linecap:round"
       d="m 141.68437,179.05677 v -1.19063 l 0.52917,-0.46302 0.79375,0.26459 0.8599,0.99218 -0.59532,0.66146 -1.12448,0.0661 z"
       id="path2068" /><path
       style="opacity:1;fill:#000000;stroke-width:1;stroke-linecap:round"
       d="m 148.82812,177.8 -0.39687,0.92604 0.52916,0.46302 0.99219,-0.46302 z"
       id="path2070" /><path
       style="opacity:1;fill:#000000;stroke-width:1;stroke-linecap:round"
       d="m 144.39635,183.48854 c -0.72444,-0.0196 -0.805,0.31389 -0.85989,0.66146 l 0.59531,0.59531 c 0.25512,-0.007 0.53398,0.0959 0.7276,-0.19844 0.0786,-0.2098 0.17754,-0.41109 0,-0.7276 -0.15434,-0.11024 -0.30868,-0.22049 -0.46302,-0.33073 z"
       id="path2072" /><path
       style="opacity:1;fill:#000000;stroke-width:1;stroke-linecap:round"
       d="m 138.37708,179.12291 0.0661,1.78594 c 0,0 0.66146,1.71979 0.66146,1.98438 0,0.26458 0.33072,1.45521 0.59531,1.5875 0.26458,0.13229 1.38906,1.32291 1.38906,1.32291 l 1.91823,1.91823 1.25677,0.92604 0.46302,0.52917 c 0,0 0.66146,1.05833 0.66146,1.38906 0,0.33073 0.39687,1.45521 0.39687,1.45521 0,0 0.59532,0.39688 0.8599,0.46302 0.26458,0.0661 1.25677,0.26459 1.25677,0.26459 0,0 0.52917,0.85989 0.79375,0.85989 0.26458,0 1.05833,0.39688 1.05833,0.0662 0,-0.33073 0,-1.05834 -0.33072,-1.05834 -0.33073,0 -0.39688,0.1323 -0.66146,-0.0661 -0.26459,-0.19844 -0.72761,-1.25677 -0.72761,-1.25677 l 0.92604,-0.33073 -0.7276,-0.79375 -1.38906,0.33073 -0.26459,0.66146 -0.46302,-0.1323 -0.19843,-1.78593 -0.33073,-1.32292 c 0,0 0.0661,-1.05833 0.46302,-0.46302 0.39687,0.59531 0.79375,1.38906 0.79375,1.38906 l 0.46302,0.39688 0.26458,-0.99219 -0.85989,-2.51354 -0.52917,-0.99219 -0.33073,0.33073 -0.66146,1.52135 -0.39687,0.99219 -0.26459,0.59531 -0.99218,-1.71979 -1.91823,-1.52135 -1.52136,-2.31511 -0.52916,-0.99218 -0.59532,-1.91823 z"
       id="path2074" /><path
       style="opacity:1;fill:#000000;stroke-width:1;stroke-linecap:round"
       d="m 140.95677,181.63646 c 1.13321,-0.69927 2.28533,-1.36957 3.38542,-2.12103 0.34132,-0.16108 0.90557,-0.4108 0.82556,0.22987 -0.0818,0.22499 -0.31045,0.35934 -0.45627,0.54758 -0.19469,0.22501 -0.43206,0.42255 -0.59977,0.66493 -0.24345,0.55379 -0.3877,1.15978 -0.71579,1.67091 -0.33456,0.47435 -0.67762,0.94344 -1.05009,1.38897 -0.46302,-0.79373 -0.92606,-1.58756 -1.38906,-2.38123 z"
       id="path2076" /><path
       style="opacity:1;fill:#000000;stroke-width:1;stroke-linecap:round"
       d="m 83.344889,190.41654 3.085853,0.94909 -0.299579,0.13523 c -1.106766,-0.3694 -2.159365,1.48917 -1.080856,1.8179 0.856924,-1.36269 2.91957,-0.98419 3.187352,0.62471 1.2797,2.45926 2.278207,5.09457 3.112403,7.73093 1.032378,1.31061 1.229385,-0.91853 0.517698,-1.50275 -1.426872,-3.42877 -3.220346,-6.70358 -4.483353,-10.19492 -0.810412,-1.2676 -2.33637,-1.9768 -3.650572,-2.65401 -0.660716,0.61893 -1.306031,2.14095 -2.308315,2.84655 z"
       id="path2091" /><path
       style="opacity:1;fill:#000000;stroke-width:1;stroke-linecap:round"
       d="m 85.791145,238.32343 c 0.771701,0 1.543403,0 2.315104,0 1.93469,1.43136 4.451052,2.06626 6.055382,3.92618 0.70773,0.7977 0.510888,3.62766 -0.788566,1.88001 -1.450138,-1.68008 -3.824406,-1.49992 -5.45408,-2.85471 -1.074401,-0.70181 -1.727824,-1.76385 -2.12784,-2.95148 z"
       id="path2093" /><path
       style="opacity:1;fill:#000000;stroke-width:1;stroke-linecap:round"
       d="m 116.3472,245.18792 1.5875,-1.71979 1.19063,-0.85989 1.65364,-0.46302 h 1.85208 c -0.12031,1.07791 -0.40982,2.12273 -0.66145,3.175 0,0 -1.91823,0.66145 -2.51355,0.85989 -0.59531,0.19844 -2.3151,0.46302 -2.3151,0.46302 z"
       id="path2099" /><path
       style="opacity:1;fill:#000000;stroke-width:1;stroke-linecap:round"
       d="m 120.71614,216.03229 c -1.85336,0.0721 -3.52853,0.61811 -3.85273,2.655 -0.50099,1.63943 -0.84028,3.54747 0.28872,4.98973 0.66598,1.04153 1.84147,2.51889 0.75141,3.6671 -0.10894,0.44229 -1.12176,1.42075 -0.53367,1.44958 1.52208,-0.41121 2.33798,-2.62539 2.66763,-4.16082 0.23512,-1.88245 1.79684,-3.08881 2.80907,-4.56148 -0.0117,-2.08279 1.46939,-3.31529 2.97514,-4.49705 1.39816,-0.96451 1.85665,-2.67773 2.96423,-3.90769 0.46748,-0.64632 0.8393,-3.0977 -0.3501,-2.16113 -0.90431,0.91 0.14608,2.37621 -1.05887,3.319 -0.61658,1.16775 -2.39961,2.08731 -3.10256,2.66128 -1.15328,-1.31762 -2.14655,-2.85608 -3.76861,-3.64848 -1.09368,-0.50638 -1.89269,-1.7843 -0.45111,-2.41967 -0.91009,-1.59462 -0.25316,-3.43352 -0.95202,-5.08439 -0.58768,-1.35596 -1.01225,-3.46822 -2.81074,-3.55925 -0.91252,0.0113 -2.42439,2.02915 -0.99415,2.00156 0.0617,-1.59536 1.8224,-1.63855 2.13231,-0.12463 0.53467,1.4855 1.66973,2.79673 1.53342,4.46573 0.34832,1.7866 -2.1628,3.90899 0.30356,4.93032 1.56732,1.27691 2.91849,2.78265 4.22717,4.31602 -0.20243,1.48349 -1.99208,-0.36794 -2.7781,-0.33073 z"
       id="path2157" /><ellipse
       style="opacity:1;fill:#000000;stroke-width:1;stroke-linecap:round"
       id="path2163"
       cx="132.62239"
       cy="208.98776"
       rx="0.79374999"
       ry="1.0252604" /><path
       style="opacity:1;fill:#000000;stroke-width:1;stroke-linecap:round"
       d="m 93.876986,215.17641 0.727604,0.39687 1.719792,-2.05052 1.785937,-1.98437 0.926042,-0.99219 -0.595313,-1.05833 0.463021,-2.51355 0.658134,-3.26384 0.4002,-1.5648 0.727597,-0.66146 2.51355,1.32292 0.99218,3.0427 c 0,0 0.99219,3.50573 1.05834,3.90261 0.0661,0.39687 0.52916,2.77812 0.52916,3.10885 0,0.33073 0.19844,3.30729 0.19844,3.30729 l -0.26458,2.57969 -0.26459,1.32292 0.8599,-0.72761 0.33073,-1.78593 c 0,0 -0.13229,-2.05052 -0.13229,-2.51354 0,-0.46303 -0.13229,-3.43959 -0.13229,-3.70417 0,-0.26458 -1.38907,-4.29948 -1.38907,-4.29948 l -0.46302,-3.30729 -0.92604,-1.98438 -2.11667,-1.12448 -1.521347,0.46302 -0.595313,1.5875 -1.058333,4.10105 c 0,0 -0.264584,1.65364 -0.264584,1.91823 0,0.26458 0.132292,1.4552 0.132292,1.4552 l 0.198438,0.66146 -2.248959,1.65365 z"
       id="path2165" /><path
       style="opacity:1;fill:#000000;stroke-width:1;stroke-linecap:round"
       d="m 130.54294,216.11354 1.02899,1.12253 1.02899,0.28064 0.46772,-0.46772 1.21607,4.0224 -0.74835,4.67722 -1.96443,-2.05798 -2.99342,-0.46772 -1.77734,0.37418 -1.49671,2.89987 c 0,0 -2.05798,3.64823 -2.05798,4.02241 0,0.37418 -0.93544,3.46114 -0.93544,3.46114 0,0 -0.46772,0.65481 0.18709,0.65481 0.65481,0 1.96443,0.37418 2.15152,-0.18709 0.18709,-0.56127 1.12253,-3.64823 1.12253,-3.64823 0,0 1.02899,-0.74835 1.30962,-0.28063 0.28063,0.46772 1.30962,2.05797 1.40316,2.43215 0.0936,0.37418 0.8419,1.59026 0.8419,1.96443 0,0.37418 -0.8419,2.33861 -1.30961,2.43216 -0.46773,0.0935 -3.3676,0.56126 -3.83532,0.8419 -0.46773,0.28063 -4.58368,2.05797 -4.58368,2.05797 0,0 -0.8419,0.18709 -1.02898,0.65481 -0.18709,0.46772 -3.08697,5.23848 -3.08697,5.23848 l -0.18708,1.6838 1.12253,0.28063 0.74835,0.74836 -1.49671,0.46772 -1.12253,-0.65481 -5.7062,6.64165 -5.98684,-6.17393 -2.05798,0.28064 c 0,0 -0.18709,-1.12254 0.28064,-1.30963 0.46772,-0.18708 1.87088,-0.37417 1.87088,-0.37417 l -3.086956,-5.8933 -0.935445,-1.59025 -5.706205,-1.59025 -9.167344,-4.2095 -1.964431,-7.01582 -2.80633,-4.39659 -1.683797,-1.68379 0.654809,-0.56127 1.777344,0.8419 1.403165,-0.56127 c 0,0 0.841899,-0.93544 0.841899,-0.18709 0,0.74836 0.374176,3.74178 0.374176,3.74178 l 1.216078,3.36759 c 0,0 0.46772,1.30962 0.46772,1.87089 0,0.56127 0.09355,1.40316 0.187089,1.87088 0.09354,0.46773 0.841899,1.87089 0.841899,1.87089 0,0 0.467723,1.02899 0.841899,1.12253 0.374176,0.0936 1.122532,0.37418 1.122532,0.37418 L 86.20293,230.8 85.922297,227.90013 v -1.59025 l 0.935442,-1.59026 2.15152,-0.56127 2.245064,2.33861 -0.09354,2.89988 c 0,0 -2.245064,0.37417 -2.432153,1.02899 -0.187087,0.65481 -0.841899,3.36759 -0.841899,3.36759 l 0.561266,1.40317 1.496708,0.93544 c 0,0 -0.467717,-0.28063 -0.467717,-1.30962 0,-1.02899 0.748355,-3.08697 0.748355,-3.08697 l 1.028986,-1.4967 c 0,0 0.748356,0.74835 1.028988,1.30962 0.280633,0.56126 1.870888,3.74177 1.870888,3.74177 l 1.496708,-0.93544 c 0,0 0.09355,-1.21608 -0.374176,-1.96443 -0.467723,-0.74836 -2.33861,-2.33861 -2.619243,-3.27406 -0.280633,-0.93544 -1.309619,-4.0224 -1.309619,-4.0224 l -1.309621,-1.49671 -1.964431,-0.65481 -1.683798,0.28063 c 0,0 -1.028988,0.0935 -1.403164,0.74836 -0.374179,0.65481 -0.748356,2.05797 -0.748356,2.05797 l -0.420951,-1.1693 -0.514491,-2.66602 0.187087,-3.27405 v -0.93544 c 0,0 0.748355,-0.0935 0.280633,-1.21608 -0.46772,-1.12253 -2.057974,-3.46114 -2.057974,-3.46114 l -1.403165,-1.87088 0.374176,-0.56127 3.461142,4.11595 1.496708,1.96443 1.122532,-0.46772 1.683798,1.12253 4.11595,6.5481 2.245064,6.08039 c 0,0 2.057977,3.36759 2.15152,3.74177 0.09354,0.37418 1.590255,3.64823 1.590255,3.64823 l 2.057971,4.20949 1.87089,4.11595 2.5257,4.95785 2.99342,2.05798 1.87088,-0.37418 4.58367,-7.48354 3.74178,-5.51912 c 0,0 2.43215,-4.58367 2.43215,-4.95785 0,-0.37418 1.77734,-5.23848 1.77734,-5.23848 l 0.8419,-4.2095 3.08697,-4.20949 3.46114,-3.08697 z"
       id="path2181" /><path
       style="opacity:1;fill:#000000;stroke-width:1;stroke-linecap:round"
       d="m 133.58131,216.74222 c 2.43861,-0.56337 1.59198,-4.09336 3.77933,-5.26335 1.02132,-1.83431 2.12026,2.73521 2.2036,-0.25934 -0.24868,-1.63607 1.60957,-4.07641 2.43156,-4.29367 -0.71229,2.21821 1.98923,2.832 3.19145,4.024 1.13632,1.39292 0.68056,4.36442 -0.4544,1.65933 -0.99964,1.42341 -4.64355,3.89964 -1.80005,5.24037 0.52456,1.72922 -2.01113,0.0147 -1.96028,-0.71567 -0.2676,1.45282 -1.0557,3.00681 -2.41339,1.4854 -1.8051,-0.009 -3.25867,3.83422 -0.53152,2.21179 2.6814,-0.54549 -0.22516,2.7833 -1.02608,3.57201 -0.74879,1.92974 -0.86358,4.14577 -2.52979,5.61207 -1.06597,1.61699 -0.29428,4.58884 -2.37435,5.32405 -2.50784,0.37956 -0.38031,-3.16958 0.26462,-4.25678 1.26857,-2.592 2.51856,-5.28198 3.01679,-8.12843 -0.22009,-2.07247 -1.63689,-3.80536 -1.74055,-5.92539 l -0.0573,-0.28631 z"
       id="path2187" /><path
       style="opacity:1;fill:#000000;stroke-width:1;stroke-linecap:round"
       d="m 143.12283,231.24159 c 0.40256,1.50618 1.28939,2.94364 1.19938,4.5416 -0.27149,0.83543 -0.58071,1.66032 -0.6298,2.55012 -0.2078,0.93108 0.17126,2.32475 -1.12646,2.48022 -1.00148,0.18048 -1.95313,-0.41765 -2.92784,-0.58979 -0.84625,-4.6e-4 -1.57937,-1.25497 -2.3747,-0.6503 -0.74821,0.75075 0.25191,-0.91627 0.36933,-1.25881 0.62653,-1.18541 1.43493,-2.26464 2.13217,-3.40439 0.674,-0.7032 1.72977,-0.5854 2.60538,-0.80682 0.94984,-0.13012 0.18161,-1.49361 -0.13742,-1.99539 -0.99818,0.20422 -2.09453,0.17036 -2.93062,0.8492 -0.76997,0.54948 -2.281,1.01727 -1.91511,2.22737 0.041,0.79164 0.68344,1.69439 0.10712,2.38369 -0.30651,0.44798 -0.61302,0.89596 -0.91953,1.34394 -0.48935,0.24584 -1.34779,0.56174 -0.93576,-0.33701 0.1948,-1.40877 0.51111,-2.79718 0.85502,-4.17603 0.51526,-0.81155 0.78285,-1.90066 1.81456,-2.22701 1.30694,-0.74368 2.81975,-1.21616 4.33216,-0.96385 0.16057,0.0129 0.32133,0.0252 0.48212,0.0333 z"
       id="path2193" /><path
       style="opacity:1;fill:#000000;stroke-width:1;stroke-linecap:round"
       d="m 85.39427,158.22707 c 0.939589,-1.0681 2.419897,-1.52652 3.812488,-1.389 1.70863,0.15668 3.337184,0.8862 4.700104,1.90953 1.065894,1.00794 1.48208,2.52644 2.589482,3.49709 0.25113,0.26598 1.197799,0.5357 1.031161,-0.0652 -0.232312,-1.48568 -1.399056,-2.56834 -2.500227,-3.48234 -0.673765,-0.5442 -1.312592,-1.14144 -2.090437,-1.53805 -1.8918,-1.06343 -4.170865,-1.68186 -6.320802,-1.12438 -0.75968,0.15193 -1.47103,0.85339 -1.433748,1.66043 0.01821,0.19294 0.09602,0.37754 0.211979,0.53193 z"
       id="path2217" /><path
       style="display:inline;fill:#000000;stroke-width:1;stroke-linecap:round"
       d="m 129.26114,158.22707 c -0.93959,-1.0681 -2.4199,-1.52652 -3.81249,-1.389 -1.70863,0.15668 -3.33719,0.8862 -4.70011,1.90953 -1.06589,1.00794 -1.48208,2.52644 -2.58948,3.49709 -0.25113,0.26598 -1.1978,0.5357 -1.03116,-0.0652 0.23231,-1.48568 1.39906,-2.56834 2.50023,-3.48234 0.67376,-0.5442 1.31259,-1.14144 2.09043,-1.53805 1.8918,-1.06343 4.17087,-1.68186 6.32081,-1.12438 0.75968,0.15193 1.47103,0.85339 1.43374,1.66043 -0.0182,0.19294 -0.096,0.37754 -0.21197,0.53193 z"
       id="path2217-1" /><path
       style="opacity:1;fill:#000000;stroke-width:1;stroke-linecap:round"
       d="m 153.78906,156.89791 c 0.10037,1.82049 -0.94052,4.96097 1.23091,4.91408 -1.3868,0.2623 -3.21537,0.85411 -0.1494,1.21849 1.37468,0.28992 2.73543,-2.58326 2.83998,0.12709 -0.22958,1.05393 -2.91625,0.56105 -0.60556,1.46923 1.92455,0.0694 1.91188,1.91359 -0.0956,1.27047 -0.28962,1.30434 4.31934,2.43022 1.80642,3.49333 1.9894,1.27057 0.22682,5.08855 3.19117,5.42849 2.69533,0.3502 5.67468,0.54908 7.86232,2.21599 -1.80818,0.43603 -5.56375,-3.02358 -5.6037,0.23789 -1.37775,1.04137 -4.09655,-3.24632 -2.86269,-0.14082 1.06828,1.80862 4.13587,1.85645 3.89708,-0.53598 1.6372,-0.25872 5.04336,2.24301 5.59637,0.40648 -2.45158,-2.35767 -6.07863,-2.03302 -9.12609,-2.91031 -2.12201,-1.15511 -0.40953,-3.92266 -1.38912,-5.76258 -0.79827,-2.63466 -1.895,-4.78807 -2.83737,-7.38137 -3.16918,1.98122 -4.01227,-2.7652 -2.66631,-5.15701 1.82924,-2.84881 -2.11104,-0.52506 -1.08842,1.10655 z"
       id="path2221" /><path
       style="display:inline;opacity:1;fill:#000000;stroke-width:0.1;stroke-linecap:round"
       d="m 125.79491,203.12267 c 1.31206,0.85446 2.27171,2.20813 3.2827,3.35241 0.0505,1.3205 -1.41044,2.07947 -1.75773,3.31734 -0.63693,1.28413 -1.15619,2.63764 -1.98305,3.81819 -0.70315,1.74743 -1.64017,-1.1158 -2.24007,-1.742 -0.49631,-1.32374 -1.9796,-1.58889 -2.6638,-2.70588 -0.50258,-1.25686 0.84588,-2.09652 1.50348,-2.95566 0.75733,-1.03646 2.02564,-1.97359 1.81548,-3.42652 -0.2226,-1.76137 1.4078,0.23892 2.04299,0.34212 z"
       id="path1747" /><path
       style="display:inline;opacity:1;fill:#000000;stroke-width:0.1;stroke-linecap:round"
       d="m 102.76154,192.03717 c 1.56713,1.68645 3.53088,3.53578 2.86477,6.05442 -0.49522,2.06951 1.83612,3.88756 1.56926,5.98498 -0.3305,2.40825 1.29341,4.51462 0.97847,6.921 -0.0999,1.25128 1.5809,1.38165 0.7445,-0.0912 0.0964,-2.61754 0.60532,-4.69307 0.61859,-7.1805 0.28692,-1.85864 1.61614,-3.60326 1.26612,-5.5142 -0.9629,-1.69256 0.72555,-2.98426 1.3369,-4.43645 1.56079,-1.21249 2.30385,-2.97618 2.09916,-5.01442 0.0237,-0.92257 0.0625,-1.68335 -0.49251,-0.45364 -0.9021,1.76249 -3.12612,2.08235 -4.15255,3.65427 -0.52595,2.04413 -3.61257,1.52747 -3.46772,-0.57276 -0.41129,-1.74239 -1.86382,-3.1679 -3.0671,-4.37248 -0.6218,1.43829 -1.43588,3.86933 -0.29789,5.02094 z"
       id="path1761"
       transform="translate(1.3096207,0.84189901)" /><path
       style="display:inline;opacity:1;fill:#000000;stroke-width:0.1;stroke-linecap:round"
       d="m 83.951776,183.31359 c 1.453458,0.27744 2.503936,-0.32365 6.449747,0.93197 3.503457,3.14992 2.523256,6.54971 3.161765,10.08379 0.331111,1.212 0.55161,2.48215 1.140084,3.59931 0.343728,1.02035 -0.365633,1.19169 -1.594775,1.91731 -0.796261,0.40477 -1.464484,0.84145 -1.455505,-0.22845 -0.268493,-0.71163 0.02085,-1.49319 -0.400725,-2.22249 -0.471259,-0.88728 -0.05968,-2.07614 -0.445314,-2.9695 -1.705925,-4.63842 -4.389666,-6.97319 -7.345829,-9.40378 -0.773761,-0.78126 -0.270631,-1.14177 0.490552,-1.70816 z"
       id="path1733"
       transform="translate(1.3096207,0.84189901)" /><path
       style="display:inline;opacity:1;fill:#000000;stroke-width:0.1;stroke-linecap:round"
       d="m 117.86247,190.41516 c 0.2777,-0.89749 0.91869,-1.57483 1.59022,-2.17784 0.68196,-0.49297 1.55806,-0.78715 2.38559,-0.85469 0.73558,0.17594 1.03266,0.69734 1.24021,1.47018 0.40294,0.72233 0.18836,1.48633 -0.0263,2.23348 -0.24119,1.29995 -0.29564,2.54124 -0.54578,3.83678 -0.19159,0.90456 -0.38181,1.81006 -0.73471,2.66848 0.13806,1.16715 -1.07371,0.91361 -1.70485,0.44391 -0.63759,-0.3701 -1.61876,-0.111 -2.03609,-0.81791 -0.14335,-0.93177 0.22813,-1.87724 0.14134,-2.8276 -0.12106,-1.2014 0.35966,-2.45903 -0.11907,-3.61452 -0.0554,-0.12514 -0.14262,-0.23185 -0.19057,-0.36027 z"
       id="path1735"
       transform="translate(1.3096207,0.84189901)" /><path
       style="display:inline;opacity:1;fill:#000000;stroke-width:0.1;stroke-linecap:round"
       d="m 122.97306,187.60671 c 0.74297,-1.26128 1.33473,-2.61731 2.16487,-3.82974 0.93322,-0.7621 2.06984,-0.94992 3.21245,-1.27898 1.66287,-0.53353 3.00527,1.24638 2.07467,2.66142 -0.855,0.91442 -1.95114,1.62742 -2.46635,2.82872 -0.47546,0.67683 -0.89706,2.17445 0.53704,1.65551 1.05375,0.55227 -0.73714,1.85253 -1.07272,2.56508 -0.90021,1.75675 -1.70433,3.59106 -2.48213,5.40109 -0.38753,1.13755 -0.62767,3.5711 -2.19264,2.50321 -1.49969,-0.94191 -0.5933,-2.49472 -0.32408,-3.82073 0.41963,-1.72381 1.21469,-3.37598 1.21178,-5.18504 0.0569,-1.073 0.78831,-3.22042 -0.66289,-3.50054 z"
       id="path1737"
       transform="translate(1.3096207,0.84189901)" /><path
       style="display:inline;opacity:1;fill:#000000;stroke-width:0.1;stroke-linecap:round"
       d="m 124.62783,173.18063 c 1.13363,-0.0666 1.72753,-0.2375 2.6639,0.55936 1.36437,0.99907 2.04595,2.7383 2.29061,4.06251 0.20625,0.75157 -0.0683,1.50968 -0.0687,2.27097 -0.11398,0.81931 0.3382,1.54459 -0.0501,2.31533 -0.75284,-0.63785 -4.43332,0.92052 -4.58908,1.00228 0.63537,-1.32594 0.28888,-2.82785 0.31663,-4.23804 -0.0484,-0.8798 0.16957,-1.7464 0.0623,-2.63049 0.02,-0.76873 0.16364,-1.5856 -0.23212,-2.29566 0.0241,-0.39834 -0.34737,-0.66589 -0.39344,-1.04626 z"
       id="path1739"
       transform="translate(1.3096207,0.84189901)" /><path
       style="display:inline;opacity:1;fill:#000000;stroke-width:0.1;stroke-linecap:round"
       d="m 124.55198,175.84675 c 0.39911,1.78926 0.069,3.0694 -0.78805,4.67002 -0.71366,0.46636 -1.23538,1.71952 -2.17847,0.74286 -1.36722,0.0127 -1.33342,1.8263 -0.87355,2.74643 0.30195,0.81605 0.0532,2.57575 1.38056,2.32675 0.74491,-0.36522 1.59682,-0.82393 0.90211,0.52081 -3.6324,0.0725 -5.66403,3.24656 -5.49827,2.56853 -0.0184,-2.05193 -0.2931,-4.1362 -0.01,-6.17271 0.48419,-1.74287 0.5948,-3.55875 0.69929,-5.34788 0.54856,-1.18214 2.00658,-1.44952 2.95147,-2.23369 1.22404,-0.57693 1.64692,-0.73289 2.60201,-1.6735 l 0.55172,1.19763 z"
       id="path1741"
       transform="translate(1.3096207,0.84189901)" /><path
       style="display:inline;opacity:1;fill:#000000;stroke-width:0.1;stroke-linecap:round"
       d="m 117.94279,189.29247 c 0.33103,-0.0928 -0.1021,-0.78531 -0.003,-1.08255 -0.21679,-1.15358 -0.0908,-2.33112 -0.12559,-3.49953 -0.0985,-0.83648 0.0589,-1.67956 0.37675,-2.45259 0.36391,-0.84923 0.24754,-1.77466 0.25914,-2.67279 -0.11632,-0.58398 0.2316,-1.40794 -0.17262,-1.83302 -0.64334,0.18694 -1.42271,0.56834 -1.70186,1.20474 -0.10683,0.7271 0.24446,1.52774 -0.42375,2.09794 -0.39038,0.61458 -0.11032,1.46993 -0.65857,2.02984 -0.77602,0.7069 -0.54157,1.85729 -0.47677,2.78573 0.1926,0.74343 -0.24493,1.98694 0.77542,2.19534 0.69497,0.24858 1.09956,0.99263 1.83451,1.22679 z"
       id="path5275" /><path
       style="display:inline;opacity:1;fill:#000000;stroke-width:0.1;stroke-linecap:round"
       d="m 116.79556,197.98211 c 0.71859,-0.41905 1.89063,0.0183 2.45873,0.56865 0.67986,0.47642 1.32991,0.95272 1.99051,1.4469 0.48916,0.40858 0.92423,1.11158 0.72415,1.77016 -0.53602,0.84683 -1.07992,1.74032 -1.59633,2.60799 -0.5357,0.97782 -1.81013,3.22871 -1.88606,1.89779 0.0887,-0.876 -0.0135,-1.74047 -0.0255,-2.61669 -0.20462,-0.84836 -0.0581,-1.75919 -0.26897,-2.60417 -0.19248,-0.83097 -0.93645,-1.58548 -1.8694,-1.55797 -3.05358,-0.33103 -0.0959,-1.20237 0.47287,-1.51266 z"
       id="path1745"
       transform="translate(1.3096207,0.84189901)" /><path
       style="display:inline;opacity:1;fill:#000000;stroke-width:0.1;stroke-linecap:round"
       d="m 91.931675,200.77706 c -1.903347,1.01744 -3.531644,4.4354 -2.985313,7.56716 1.072891,10.44001 4.302792,0.78067 7.085908,1.49713 1.395922,-1.79947 -0.221426,-3.83693 -1.635137,-5.2349 -0.782374,-1.55592 0.04621,-4.03195 -2.465458,-3.82939 z"
       id="path1749"
       transform="translate(1.3096207,0.84189901)" /><path
       style="display:inline;opacity:1;fill:#000000;stroke-width:0.1;stroke-linecap:round"
       d="m 96.431996,200.06262 c 1.049313,-0.4955 2.08707,-1.16277 3.284845,-1.18381 0.499429,0.83145 -0.719302,1.38213 -0.851949,2.16149 -0.615863,1.44236 -0.450859,3.03811 -0.423269,4.5592 0.116385,1.03689 -1.067339,0.93684 -1.105978,-0.001 -0.373278,-1.28331 -1.255825,-2.29969 -1.930589,-3.4239 -0.449069,-0.77322 0.369251,-1.7464 1.02694,-2.11183 z"
       id="path1751" /><path
       style="display:inline;opacity:1;fill:#000000;stroke-width:0.1;stroke-linecap:round"
       d="m 94.971637,198.30709 c -0.241141,-1.60422 -0.338339,-3.33622 -0.738496,-4.72985 -0.513833,-1.62001 -0.971919,-3.27549 -1.053793,-4.98068 0.852291,0.0909 1.611142,-0.433 2.425126,0.0968 3.105525,3.7192 4.963816,9.2189 -0.569639,9.9937 -0.04075,-0.12286 -0.04232,-0.25327 -0.06316,-0.37989 z"
       id="path1753"
       transform="translate(1.3096207,0.84189901)" /><path
       style="display:inline;opacity:1;fill:#000000;stroke-width:0.1;stroke-linecap:round"
       d="m 91.868344,174.05073 c 1.423565,0.44708 3.338257,0.23243 4.202793,1.73403 0.61005,1.30467 1.886467,2.16465 2.03714,3.60246 0.191637,1.82871 0.695446,3.39395 1.050116,5.23723 0.0553,1.40406 0.20951,2.80736 -0.0402,4.20104 -0.739443,2.25465 -4.747005,-1.47474 -3.790103,-2.70323 1.098224,-1.36332 1.336196,-3.63104 -0.134951,-4.83324 -1.197174,-1.28838 -3.161791,-1.73563 -3.224484,-3.8206 -0.262171,-1.20683 -0.13335,-3.41769 -0.100321,-3.41769 z"
       id="path1765"
       transform="translate(1.3096207,0.84189901)" /><path
       style="display:inline;opacity:1;fill:#000000;stroke-width:0.1;stroke-linecap:round"
       d="m 98.898253,191.02385 c 0.77257,-0.94502 1.461577,-0.69225 2.596867,-1.02257 0.75389,0.0782 0.6891,1.54929 0.97259,2.36089 -0.63309,0.27997 -1.5257,1.47377 -1.23349,2.78247 0.40925,0.403 0.59028,1.42211 1.08397,1.8324 0.45618,1.11157 2.18684,0.80231 2.69732,1.16894 0.29339,0.14946 0.55528,1.18954 0.65921,1.99763 0.42008,1.20754 0.52457,2.61486 0.992,3.85494 0.38455,1.28955 0.001,2.63995 0.21155,3.93952 0.38562,0.73688 0.57667,1.69375 0.82657,2.52884 0.2384,1.10803 0.24485,2.11732 0.26484,3.22124 -0.077,1.40316 0.19365,2.8554 -0.21681,4.2167 -0.0871,0.92883 0.0443,2.27651 -0.92988,2.76053 -1.00159,0.47339 -2.03699,0.96053 -2.79012,1.77802 -2.15382,1.44785 1.18914,-3.46855 1.33429,-4.59704 0.12027,-1.11557 0.41848,-2.17274 0.4189,-3.30904 0.0285,-1.05904 -0.0135,-2.02438 0.11506,-2.99395 0.29956,-2.42966 -0.7114,-4.79305 -1.14358,-6.8451 -0.35017,-1.2746 -0.63525,-2.53395 -1.24906,-3.68945 -0.36321,-1.02295 -1.54463,-2.54166 -2.07478,-2.93998 -0.44747,-0.38989 -1.724277,-0.31919 -2.271057,-1.04793 -0.620166,-0.88893 -0.20272,-2.03293 -0.35896,-3.09312 -0.152312,-1.02719 0.40527,-1.97891 0.0947,-2.90394 z"
       id="path1755"
       transform="translate(1.3096207,0.84189901)" /><path
       style="display:inline;opacity:1;fill:#000000;stroke-width:0.1;stroke-linecap:round"
       d="m 115.5711,189.60006 c 1.67439,-0.20283 1.41466,0.51885 1.66409,2.16267 -0.13988,1.98315 -0.56936,3.51285 -1.33685,5.37914 -2.6222,0.81219 -2.98071,2.63952 -3.34017,4.8898 -0.46674,2.56175 -0.81654,4.80325 -1.49537,7.32441 -1.14482,2.88982 -0.13084,6.44476 -0.12985,9.46693 0.25307,0.8137 1.85545,4.71297 -0.0558,3.05816 -1.29756,-1.3888 -2.74998,-1.92876 -1.89477,-4.3598 1.07277,-2.25061 1.2651,-4.90263 0.8834,-7.34541 -0.28287,-2.86637 1.75749,-4.70486 1.24748,-7.62436 -0.60324,-2.62775 1.33761,-4.47506 3.32973,-5.77941 2.25054,-1.84868 0.0528,-4.43128 1.00681,-6.82519 z"
       id="path1759"
       transform="translate(1.3096207,0.84189901)" /><path
       style="display:inline;opacity:1;fill:#000000;stroke-width:0.1;stroke-linecap:round"
       d="m 86.175355,183.51659 c 0.740073,-0.83909 1.375091,-1.6878 1.782085,-2.78338 0.649224,-1.19403 1.049974,-2.55231 0.872892,-3.91847 -0.02861,-0.98785 0.538435,-1.9193 1.208301,-2.60804 0.944355,-0.18947 1.649916,-0.55146 2.363253,0.37049 0.432386,2.22133 0.348053,4.50286 0.345553,6.68269 -0.363361,0.88753 -0.09686,1.82633 0.457828,2.5735 0.516415,1.07764 1.255624,1.33412 1.666429,2.43123 0.591119,0.9475 0.201141,0.64184 1.285378,2.03306 -0.418229,0.81295 -1.279865,0.70511 -1.64654,0.49914 -0.156777,-0.0881 -0.02197,-0.7308 -0.105688,-0.81202 -0.846027,-4.04054 -2.915218,-3.456 -6.533538,-3.93272 -0.925753,-0.10363 -1.519998,0.0145 -2.40002,-0.089 0.240202,-2e-5 0.463868,-0.44644 0.70407,-0.44651 z"
       id="path1763" /><path
       style="display:inline;opacity:1;fill:#000000;stroke-width:0.1;stroke-linecap:round"
       d="m 97.223016,176.61015 c 0.885013,-0.20967 1.342054,0.45739 1.790771,1.16865 0.368479,0.55214 0.579333,1.18735 0.941537,1.74392 0.734086,1.30445 1.331976,2.68352 1.795156,4.1058 0.50561,1.17645 1.24531,2.38217 1.04763,3.71584 -0.16901,0.6134 -0.69631,1.08793 -0.99401,1.65692 -0.36913,0.51685 -0.85298,0.87298 -1.54524,0.84047 -0.612632,-0.0137 -0.977964,-0.39539 -0.78903,-0.94454 0.74808,-3.19156 -0.23439,-9.89787 -2.246814,-12.28706 z"
       id="path1767"
       transform="translate(1.3096207,0.84189901)" /></g></svg>
