999
"DXF R12 Output" (www.mydxf.blogspot.com)
 0 
SECTION
 2 
HEADER
 9 
$ACADVER
 1 
AC1009
 9 
$EXTMIN
 10 
 0 
 20 
 0 
 9 
$EXTMAX
 10 
 8.5 
 20 
 11 
 0 
ENDSEC
 0 
SECTION
 2 
ENTITIES
0
LINE
8
Tête 1
10
89.019700
20
278.316000
11
69.334600
21
258.948400
0
LINE
8
Tête 1
10
69.334600
20
258.948400
11
61.555820
21
235.612100
0
LINE
8
Tête 1
10
61.555820
20
235.612100
11
58.063310
21
222.118300
0
LINE
8
Tête 1
10
58.063310
20
222.118300
11
58.698312
21
215.768280
0
LINE
8
Tête 1
10
58.698312
20
215.768280
11
61.555822
21
208.148250
0
LINE
8
Tête 1
10
61.555822
20
208.148250
11
73.144622
21
191.400050
0
LINE
8
Tête 1
10
73.144622
20
191.400050
11
74.432401
21
190.303713
0
LINE
8
Tête 1
10
74.432401
20
190.303713
11
75.495151
21
189.064176
0
LINE
8
Tête 1
10
75.495151
20
189.064176
11
76.335123
21
187.682871
0
LINE
8
Tête 1
10
76.335123
20
187.682871
11
76.954568
21
186.161230
0
LINE
8
Tête 1
10
76.954568
20
186.161230
11
77.355740
21
184.500686
0
LINE
8
Tête 1
10
77.355740
20
184.500686
11
77.540890
21
182.702669
0
LINE
8
Tête 1
10
77.540890
20
182.702669
11
77.512270
21
180.768614
0
LINE
8
Tête 1
10
77.512270
20
180.768614
11
77.272132
21
178.699950
0
LINE
8
Tête 1
10
77.272132
20
178.699950
11
80.764642
21
175.445560
0
LINE
8
Tête 1
10
80.764642
20
175.445560
11
84.892162
21
175.763060
0
LINE
8
Tête 1
10
84.892162
20
175.763060
11
88.702172
21
177.033070
0
LINE
8
Tête 1
10
88.702172
20
177.033070
11
90.902255
21
177.722269
0
LINE
8
Tête 1
10
90.902255
20
177.722269
11
92.944246
21
177.842331
0
LINE
8
Tête 1
10
92.944246
20
177.842331
11
94.859368
21
177.505662
0
LINE
8
Tête 1
10
94.859368
20
177.505662
11
96.678846
21
176.824668
0
LINE
8
Tête 1
10
96.678846
20
176.824668
11
98.433902
21
175.911753
0
LINE
8
Tête 1
10
98.433902
20
175.911753
11
100.155759
21
174.879325
0
LINE
8
Tête 1
10
100.155759
20
174.879325
11
103.624772
21
172.905550
0
LINE
8
Tête 1
10
103.624772
20
172.905550
11
105.775565
21
170.728562
0
LINE
8
Tête 1
10
105.775565
20
170.728562
11
107.580360
21
168.400198
0
LINE
8
Tête 1
10
107.580360
20
168.400198
11
109.080659
21
165.938617
0
LINE
8
Tête 1
10
109.080659
20
165.938617
11
110.317965
21
163.361976
0
LINE
8
Tête 1
10
110.317965
20
163.361976
11
111.333779
21
160.688432
0
LINE
8
Tête 1
10
111.333779
20
160.688432
11
112.169605
21
157.936141
0
LINE
8
Tête 1
10
112.169605
20
157.936141
11
113.467302
21
152.267950
0
LINE
8
Tête 1
10
113.467302
20
152.267950
11
119.778762
21
141.716650
0
LINE
8
Tête 1
10
119.778762
20
141.716650
11
119.994472
21
136.496320
0
LINE
8
Tête 1
10
119.994472
20
136.496320
11
124.897302
21
137.980380
0
LINE
8
Tête 1
10
124.897302
20
137.980380
11
127.998582
21
137.094450
0
LINE
8
Tête 1
10
127.998582
20
137.094450
11
128.159289
21
139.546552
0
LINE
8
Tête 1
10
128.159289
20
139.546552
11
128.805054
21
141.857180
0
LINE
8
Tête 1
10
128.805054
20
141.857180
11
129.780396
21
144.071680
0
LINE
8
Tête 1
10
129.780396
20
144.071680
11
130.929832
21
146.235400
0
LINE
8
Tête 1
10
130.929832
20
146.235400
11
132.049226
21
148.408373
0
LINE
8
Tête 1
10
132.049226
20
148.408373
11
133.535081
21
150.278618
0
LINE
8
Tête 1
10
133.535081
20
150.278618
11
135.343096
21
151.882728
0
LINE
8
Tête 1
10
135.343096
20
151.882728
11
137.428972
21
153.257300
0
LINE
8
Tête 1
10
137.428972
20
153.257300
11
137.037017
21
156.752402
0
LINE
8
Tête 1
10
137.037017
20
156.752402
11
137.130513
21
159.835689
0
LINE
8
Tête 1
10
137.130513
20
159.835689
11
137.646924
21
162.553291
0
LINE
8
Tête 1
10
137.646924
20
162.553291
11
138.523713
21
164.951335
0
LINE
8
Tête 1
10
138.523713
20
164.951335
11
139.698345
21
167.075950
0
LINE
8
Tête 1
10
139.698345
20
167.075950
11
141.108283
21
168.973263
0
LINE
8
Tête 1
10
141.108283
20
168.973263
11
142.690991
21
170.689404
0
LINE
8
Tête 1
10
142.690991
20
170.689404
11
144.383932
21
172.270500
0
LINE
8
Tête 1
10
144.383932
20
172.270500
11
154.742432
21
176.953630
0
LINE
8
Tête 1
10
154.742432
20
176.953630
11
168.275932
21
175.326440
0
LINE
8
Tête 1
10
168.275932
20
175.326440
11
169.030002
21
178.541140
0
LINE
8
Tête 1
10
169.030002
20
178.541140
11
169.347502
21
179.890520
0
LINE
8
Tête 1
10
169.347502
20
179.890520
11
174.745022
21
191.638120
0
LINE
8
Tête 1
10
174.745022
20
191.638120
11
179.031282
21
196.241880
0
LINE
8
Tête 1
10
179.031282
20
196.241880
11
187.762562
21
214.021980
0
LINE
8
Tête 1
10
187.762562
20
214.021980
11
188.397572
21
221.165760
0
LINE
8
Tête 1
10
188.397572
20
221.165760
11
191.325512
21
239.322760
0
LINE
8
Tête 1
10
191.325512
20
239.322760
11
168.395012
21
272.918460
0
LINE
8
Tête 1
10
168.395012
20
272.918460
11
161.801892
21
274.933230
0
LINE
8
Tête 1
10
161.801892
20
274.933230
11
162.548835
21
274.302680
0
LINE
8
Tête 1
10
162.548835
20
274.302680
11
163.432056
21
273.799924
0
LINE
8
Tête 1
10
163.432056
20
273.799924
11
164.457040
21
273.446792
0
LINE
8
Tête 1
10
164.457040
20
273.446792
11
165.629272
21
273.265110
0
LINE
8
Tête 1
10
165.629272
20
273.265110
11
166.539415
21
271.559748
0
LINE
8
Tête 1
10
166.539415
20
271.559748
11
167.011037
21
270.021012
0
LINE
8
Tête 1
10
167.011037
20
270.021012
11
167.099738
21
268.629547
0
LINE
8
Tête 1
10
167.099738
20
268.629547
11
166.861117
21
267.365996
0
LINE
8
Tête 1
10
166.861117
20
267.365996
11
166.350776
21
266.211005
0
LINE
8
Tête 1
10
166.350776
20
266.211005
11
165.624313
21
265.145218
0
LINE
8
Tête 1
10
165.624313
20
265.145218
11
163.745425
21
263.203831
0
LINE
8
Tête 1
10
163.745425
20
263.203831
11
161.669251
21
261.386992
0
LINE
8
Tête 1
10
161.669251
20
261.386992
11
159.840593
21
259.539855
0
LINE
8
Tête 1
10
159.840593
20
259.539855
11
159.158082
21
258.556537
0
LINE
8
Tête 1
10
159.158082
20
258.556537
11
158.704250
21
257.507576
0
LINE
8
Tête 1
10
158.704250
20
257.507576
11
158.534697
21
256.373619
0
LINE
8
Tête 1
10
158.534697
20
256.373619
11
158.705022
21
255.135310
0
LINE
8
Tête 1
10
158.705022
20
255.135310
11
157.723415
21
253.651598
0
LINE
8
Tête 1
10
157.723415
20
253.651598
11
156.851684
21
251.933758
0
LINE
8
Tête 1
10
156.851684
20
251.933758
11
155.326503
21
248.066750
0
LINE
8
Tête 1
10
155.326503
20
248.066750
11
153.906797
21
244.076397
0
LINE
8
Tête 1
10
153.906797
20
244.076397
11
152.369882
21
240.504810
0
LINE
8
Tête 1
10
152.369882
20
240.504810
11
152.370000
21
242.733000
0
LINE
8
Tête 1
10
152.370000
20
242.733000
11
151.177423
21
239.697915
0
LINE
8
Tête 1
10
151.177423
20
239.697915
11
150.627597
21
238.580933
0
LINE
8
Tête 1
10
150.627597
20
238.580933
11
150.104296
21
237.856677
0
LINE
8
Tête 1
10
150.104296
20
237.856677
11
149.604184
21
237.619411
0
LINE
8
Tête 1
10
149.604184
20
237.619411
11
149.123924
21
237.963397
0
LINE
8
Tête 1
10
149.123924
20
237.963397
11
148.660178
21
238.982898
0
LINE
8
Tête 1
10
148.660178
20
238.982898
11
148.209610
21
240.772180
0
LINE
8
Tête 1
10
148.209610
20
240.772180
11
146.859294
21
240.423717
0
LINE
8
Tête 1
10
146.859294
20
240.423717
11
145.449387
21
240.296192
0
LINE
8
Tête 1
10
145.449387
20
240.296192
11
143.996207
21
240.369424
0
LINE
8
Tête 1
10
143.996207
20
240.369424
11
142.516075
21
240.623231
0
LINE
8
Tête 1
10
142.516075
20
240.623231
11
139.540231
21
241.591845
0
LINE
8
Tête 1
10
139.540231
20
241.591845
11
136.652410
21
243.040580
0
LINE
8
Tête 1
10
136.652410
20
243.040580
11
135.077310
21
244.032771
0
LINE
8
Tête 1
10
135.077310
20
244.032771
11
132.983883
21
245.587464
0
LINE
8
Tête 1
10
132.983883
20
245.587464
11
131.169686
21
247.205512
0
LINE
8
Tête 1
10
131.169686
20
247.205512
11
129.710631
21
248.794155
0
LINE
8
Tête 1
10
129.710631
20
248.794155
11
128.682630
21
250.260631
0
LINE
8
Tête 1
10
128.682630
20
250.260631
11
129.205175
21
251.315800
0
LINE
8
Tête 1
10
129.205175
20
251.315800
11
129.384610
21
252.473841
0
LINE
8
Tête 1
10
129.384610
20
252.473841
11
129.302444
21
253.265525
0
LINE
8
Tête 1
10
129.302444
20
253.265525
11
129.066955
21
254.002901
0
LINE
8
Tête 1
10
129.066955
20
254.002901
11
128.200986
21
255.251558
0
LINE
8
Tête 1
10
128.200986
20
255.251558
11
126.916654
21
256.093472
0
LINE
8
Tête 1
10
126.916654
20
256.093472
11
126.158211
21
256.322419
0
LINE
8
Tête 1
10
126.158211
20
256.322419
11
125.343910
21
256.402301
0
LINE
8
Tête 1
10
125.343910
20
256.402301
11
125.180810
21
256.389281
0
LINE
8
Tête 1
10
125.180810
20
256.389281
11
124.300870
21
256.484781
0
LINE
8
Tête 1
10
124.300870
20
256.484781
11
122.836110
21
256.216549
0
LINE
8
Tête 1
10
122.836110
20
256.216549
11
121.615437
21
255.480214
0
LINE
8
Tête 1
10
121.615437
20
255.480214
11
120.739086
21
254.377840
0
LINE
8
Tête 1
10
120.739086
20
254.377840
11
120.307290
21
253.011491
0
LINE
8
Tête 1
10
120.307290
20
253.011491
11
120.280090
21
252.744220
0
LINE
8
Tête 1
10
120.280090
20
252.744220
11
120.260290
21
252.556323
0
LINE
8
Tête 1
10
120.260290
20
252.556323
11
120.271090
21
252.411215
0
LINE
8
Tête 1
10
120.271090
20
252.411215
11
120.450738
21
251.313681
0
LINE
8
Tête 1
10
120.450738
20
251.313681
11
120.939580
21
250.309015
0
LINE
8
Tête 1
10
120.939580
20
250.309015
11
119.660462
21
248.551432
0
LINE
8
Tête 1
10
119.660462
20
248.551432
11
117.799628
21
246.649370
0
LINE
8
Tête 1
10
117.799628
20
246.649370
11
115.482371
21
244.757324
0
LINE
8
Tête 1
10
115.482371
20
244.757324
11
112.833984
21
243.029790
0
LINE
8
Tête 1
10
112.833984
20
243.029790
11
109.979758
21
241.621263
0
LINE
8
Tête 1
10
109.979758
20
241.621263
11
107.044988
21
240.686238
0
LINE
8
Tête 1
10
107.044988
20
240.686238
11
105.586552
21
240.444568
0
LINE
8
Tête 1
10
105.586552
20
240.444568
11
104.154964
21
240.379210
0
LINE
8
Tête 1
10
104.154964
20
240.379210
11
102.765886
21
240.509475
0
LINE
8
Tête 1
10
102.765886
20
240.509475
11
101.434980
21
240.854675
0
LINE
8
Tête 1
10
101.434980
20
240.854675
11
101.025288
21
239.189808
0
LINE
8
Tête 1
10
101.025288
20
239.189808
11
100.605805
21
238.169092
0
LINE
8
Tête 1
10
100.605805
20
238.169092
11
100.173735
21
237.721839
0
LINE
8
Tête 1
10
100.173735
20
237.721839
11
99.726280
21
237.777362
0
LINE
8
Tête 1
10
99.726280
20
237.777362
11
99.260644
21
238.264970
0
LINE
8
Tête 1
10
99.260644
20
238.264970
11
98.774029
21
239.113975
0
LINE
8
Tête 1
10
98.774029
20
239.113975
11
97.726676
21
241.613423
0
LINE
8
Tête 1
10
97.726676
20
241.613423
11
96.561846
21
244.710196
0
LINE
8
Tête 1
10
96.561846
20
244.710196
11
95.257162
21
247.838785
0
LINE
8
Tête 1
10
95.257162
20
247.838785
11
94.545383
21
249.238289
0
LINE
8
Tête 1
10
94.545383
20
249.238289
11
93.790249
21
250.433681
0
LINE
8
Tête 1
10
93.790249
20
250.433681
11
92.988964
21
251.354273
0
LINE
8
Tête 1
10
92.988964
20
251.354273
11
92.138730
21
251.929375
0
LINE
8
Tête 1
10
92.138730
20
251.929375
11
88.855167
21
257.422358
0
LINE
8
Tête 1
10
88.855167
20
257.422358
11
87.255172
21
260.297978
0
LINE
8
Tête 1
10
87.255172
20
260.297978
11
85.929948
21
263.257421
0
LINE
8
Tête 1
10
85.929948
20
263.257421
11
85.064676
21
266.298990
0
LINE
8
Tête 1
10
85.064676
20
266.298990
11
84.862393
21
267.850040
0
LINE
8
Tête 1
10
84.862393
20
267.850040
11
84.844542
21
269.420986
0
LINE
8
Tête 1
10
84.844542
20
269.420986
11
85.034271
21
271.011615
0
LINE
8
Tête 1
10
85.034271
20
271.011615
11
85.454729
21
272.621714
0
LINE
8
Tête 1
10
85.454729
20
272.621714
11
86.129062
21
274.251071
0
LINE
8
Tête 1
10
86.129062
20
274.251071
11
87.080420
21
275.899475
0
LINE
8
Tête 1
10
87.080420
20
275.899475
11
87.770149
21
276.690747
0
LINE
8
Tête 1
10
87.770149
20
276.690747
11
88.348876
21
277.159526
0
LINE
8
Tête 1
10
88.348876
20
277.159526
11
88.831191
21
277.356430
0
LINE
8
Tête 1
10
88.831191
20
277.356430
11
89.231682
21
277.332076
0
LINE
8
Tête 1
10
89.231682
20
277.332076
11
89.845552
21
276.822062
0
LINE
8
Tête 1
10
89.845552
20
276.822062
11
90.307205
21
276.034421
0
LINE
8
Tête 1
10
90.307205
20
276.034421
11
90.733357
21
275.374089
0
LINE
8
Tête 1
10
90.733357
20
275.374089
11
90.969593
21
275.218207
0
LINE
8
Tête 1
10
90.969593
20
275.218207
11
91.240723
21
275.246003
0
LINE
8
Tête 1
10
91.240723
20
275.246003
11
91.946022
21
276.055100
0
LINE
8
Tête 1
10
91.946022
20
276.055100
11
92.965970
21
278.206315
0
LINE
8
Tête 1
10
92.965970
20
278.206315
11
89.019700
21
278.316000
0
LINE
8
Tête 1
10
74.342200
20
207.302000
11
72.176225
21
211.266625
0
LINE
8
Tête 1
10
72.176225
20
211.266625
11
71.114659
21
213.258734
0
LINE
8
Tête 1
10
71.114659
20
213.258734
11
70.171500
21
215.304000
0
LINE
8
Tête 1
10
70.171500
20
215.304000
11
68.586062
21
220.275125
0
LINE
8
Tête 1
10
68.586062
20
220.275125
11
66.588200
21
225.094000
0
LINE
8
Tête 1
10
66.588200
20
225.094000
11
66.065400
21
226.291000
0
LINE
8
Tête 1
10
66.065400
20
226.291000
11
65.891200
21
227.547250
0
LINE
8
Tête 1
10
65.891200
20
227.547250
11
66.024900
21
230.134000
0
LINE
8
Tête 1
10
66.024900
20
230.134000
11
66.742272
21
243.629600
0
LINE
8
Tête 1
10
66.742272
20
243.629600
11
68.625535
21
249.229589
0
LINE
8
Tête 1
10
68.625535
20
249.229589
11
69.684594
21
251.980325
0
LINE
8
Tête 1
10
69.684594
20
251.980325
11
71.023462
21
254.610900
0
LINE
8
Tête 1
10
71.023462
20
254.610900
11
71.669643
21
255.812705
0
LINE
8
Tête 1
10
71.669643
20
255.812705
11
72.545671
21
256.919155
0
LINE
8
Tête 1
10
72.545671
20
256.919155
11
73.627328
21
257.751270
0
LINE
8
Tête 1
10
73.627328
20
257.751270
11
74.890392
21
258.130070
0
LINE
8
Tête 1
10
74.890392
20
258.130070
11
78.902172
21
257.461442
0
LINE
8
Tête 1
10
78.902172
20
257.461442
11
81.787351
21
254.620028
0
LINE
8
Tête 1
10
81.787351
20
254.620028
11
83.164337
21
253.141950
0
LINE
8
Tête 1
10
83.164337
20
253.141950
11
84.360552
21
251.523472
0
LINE
8
Tête 1
10
84.360552
20
251.523472
11
85.779817
21
248.538274
0
LINE
8
Tête 1
10
85.779817
20
248.538274
11
86.812772
21
245.401622
0
LINE
8
Tête 1
10
86.812772
20
245.401622
11
87.347156
21
243.375408
0
LINE
8
Tête 1
10
87.347156
20
243.375408
11
87.735280
21
241.313022
0
LINE
8
Tête 1
10
87.735280
20
241.313022
11
88.115022
21
237.139252
0
LINE
8
Tête 1
10
88.115022
20
237.139252
11
87.063502
21
232.345707
0
LINE
8
Tête 1
10
87.063502
20
232.345707
11
86.304679
21
230.009775
0
LINE
8
Tête 1
10
86.304679
20
230.009775
11
85.326322
21
227.757272
0
LINE
8
Tête 1
10
85.326322
20
227.757272
11
83.315663
21
222.836802
0
LINE
8
Tête 1
10
83.315663
20
222.836802
11
81.057842
21
218.027932
0
LINE
8
Tête 1
10
81.057842
20
218.027932
11
80.700154
21
217.211640
0
LINE
8
Tête 1
10
80.700154
20
217.211640
11
80.216471
21
216.503488
0
LINE
8
Tête 1
10
80.216471
20
216.503488
11
79.007728
21
215.291613
0
LINE
8
Tête 1
10
79.007728
20
215.291613
11
77.704822
21
214.152325
0
LINE
8
Tête 1
10
77.704822
20
214.152325
11
76.580962
21
212.845642
0
LINE
8
Tête 1
10
76.580962
20
212.845642
11
75.660090
21
211.565582
0
LINE
8
Tête 1
10
75.660090
20
211.565582
11
74.925659
21
210.272888
0
LINE
8
Tête 1
10
74.925659
20
210.272888
11
74.459192
21
208.880634
0
LINE
8
Tête 1
10
74.459192
20
208.880634
11
74.342212
21
207.301892
0
LINE
8
Tête 1
10
74.342212
20
207.301892
11
74.342200
21
207.302000
0
LINE
8
Tête 1
10
175.902000
20
208.002000
11
178.067937
21
211.966919
0
LINE
8
Tête 1
10
178.067937
20
211.966919
11
179.129496
21
213.959211
0
LINE
8
Tête 1
10
179.129496
20
213.959211
11
180.072640
21
216.004640
0
LINE
8
Tête 1
10
180.072640
20
216.004640
11
181.658115
21
220.975041
0
LINE
8
Tête 1
10
181.658115
20
220.975041
11
183.655970
21
225.794190
0
LINE
8
Tête 1
10
183.655970
20
225.794190
11
184.178756
21
226.991237
0
LINE
8
Tête 1
10
184.178756
20
226.991237
11
184.352951
21
228.247386
0
LINE
8
Tête 1
10
184.352951
20
228.247386
11
184.219300
21
230.834030
0
LINE
8
Tête 1
10
184.219300
20
230.834030
11
183.501930
21
244.329630
0
LINE
8
Tête 1
10
183.501930
20
244.329630
11
181.618672
21
249.929619
0
LINE
8
Tête 1
10
181.618672
20
249.929619
11
180.559613
21
252.680355
0
LINE
8
Tête 1
10
180.559613
20
252.680355
11
179.220750
21
255.310930
0
LINE
8
Tête 1
10
179.220750
20
255.310930
11
178.574567
21
256.512735
0
LINE
8
Tête 1
10
178.574567
20
256.512735
11
177.698536
21
257.619185
0
LINE
8
Tête 1
10
177.698536
20
257.619185
11
176.616880
21
258.451300
0
LINE
8
Tête 1
10
176.616880
20
258.451300
11
175.353820
21
258.830100
0
LINE
8
Tête 1
10
175.353820
20
258.830100
11
171.342030
21
258.161472
0
LINE
8
Tête 1
10
171.342030
20
258.161472
11
168.456860
21
255.320058
0
LINE
8
Tête 1
10
168.456860
20
255.320058
11
167.079875
21
253.841980
0
LINE
8
Tête 1
10
167.079875
20
253.841980
11
165.883660
21
252.223502
0
LINE
8
Tête 1
10
165.883660
20
252.223502
11
164.464395
21
249.238304
0
LINE
8
Tête 1
10
164.464395
20
249.238304
11
163.431440
21
246.101652
0
LINE
8
Tête 1
10
163.431440
20
246.101652
11
162.897053
21
244.075438
0
LINE
8
Tête 1
10
162.897053
20
244.075438
11
162.508926
21
242.013052
0
LINE
8
Tête 1
10
162.508926
20
242.013052
11
162.129180
21
237.839282
0
LINE
8
Tête 1
10
162.129180
20
237.839282
11
163.180705
21
233.045737
0
LINE
8
Tête 1
10
163.180705
20
233.045737
11
163.939527
21
230.709805
0
LINE
8
Tête 1
10
163.939527
20
230.709805
11
164.917880
21
228.457302
0
LINE
8
Tête 1
10
164.917880
20
228.457302
11
166.928548
21
223.536832
0
LINE
8
Tête 1
10
166.928548
20
223.536832
11
169.186370
21
218.727962
0
LINE
8
Tête 1
10
169.186370
20
218.727962
11
169.544059
21
217.911670
0
LINE
8
Tête 1
10
169.544059
20
217.911670
11
170.027742
21
217.203518
0
LINE
8
Tête 1
10
170.027742
20
217.203518
11
171.236485
21
215.991643
0
LINE
8
Tête 1
10
171.236485
20
215.991643
11
172.539390
21
214.852355
0
LINE
8
Tête 1
10
172.539390
20
214.852355
11
173.663250
21
213.545672
0
LINE
8
Tête 1
10
173.663250
20
213.545672
11
174.584122
21
212.265612
0
LINE
8
Tête 1
10
174.584122
20
212.265612
11
175.318553
21
210.972918
0
LINE
8
Tête 1
10
175.318553
20
210.972918
11
175.785020
21
209.580664
0
LINE
8
Tête 1
10
175.785020
20
209.580664
11
175.902000
21
208.001922
0
LINE
8
Tête 1
10
175.902000
20
208.001922
11
175.902000
21
208.002000
0
LINE
8
Tête 1
10
81.897400
20
270.519000
11
82.290255
21
268.390379
0
LINE
8
Tête 1
10
82.290255
20
268.390379
11
82.588644
21
266.227230
0
LINE
8
Tête 1
10
82.588644
20
266.227230
11
83.019636
21
264.108758
0
LINE
8
Tête 1
10
83.019636
20
264.108758
11
83.810300
21
262.114170
0
LINE
8
Tête 1
10
83.810300
20
262.114170
11
84.667735
21
260.438520
0
LINE
8
Tête 1
10
84.667735
20
260.438520
11
85.651204
21
258.840094
0
LINE
8
Tête 1
10
85.651204
20
258.840094
11
87.699550
21
255.692160
0
LINE
8
Tête 1
10
87.699550
20
255.692160
11
91.885283
21
247.174551
0
LINE
8
Tête 1
10
91.885283
20
247.174551
11
96.219620
21
238.742360
0
LINE
8
Tête 1
10
96.219620
20
238.742360
11
96.465213
21
236.759026
0
LINE
8
Tête 1
10
96.465213
20
236.759026
11
96.445083
21
234.729004
0
LINE
8
Tête 1
10
96.445083
20
234.729004
11
96.269048
21
233.749570
0
LINE
8
Tête 1
10
96.269048
20
233.749570
11
95.946996
21
232.822167
0
LINE
8
Tête 1
10
95.946996
20
232.822167
11
95.452396
21
231.968029
0
LINE
8
Tête 1
10
95.452396
20
231.968029
11
94.758720
21
231.208390
0
LINE
8
Tête 1
10
94.758720
20
231.208390
11
93.592353
21
230.335949
0
LINE
8
Tête 1
10
93.592353
20
230.335949
11
92.075390
21
229.768799
0
LINE
8
Tête 1
10
92.075390
20
229.768799
11
91.422096
21
229.748877
0
LINE
8
Tête 1
10
91.422096
20
229.748877
11
90.965149
21
229.984280
0
LINE
8
Tête 1
10
90.965149
20
229.984280
11
90.799212
21
230.534676
0
LINE
8
Tête 1
10
90.799212
20
230.534676
11
91.018950
21
231.459733
0
LINE
8
Tête 1
10
91.018950
20
231.459733
11
91.170069
21
238.524274
0
LINE
8
Tête 1
10
91.170069
20
238.524274
11
90.982834
21
242.049359
0
LINE
8
Tête 1
10
90.982834
20
242.049359
11
90.494223
21
245.544333
0
LINE
8
Tête 1
10
90.494223
20
245.544333
11
88.483507
21
248.000440
0
LINE
8
Tête 1
10
88.483507
20
248.000440
11
87.617881
21
249.310794
0
LINE
8
Tête 1
10
87.617881
20
249.310794
11
87.046713
21
250.789113
0
LINE
8
Tête 1
10
87.046713
20
250.789113
11
85.314691
21
255.555135
0
LINE
8
Tête 1
10
85.314691
20
255.555135
11
84.324922
21
257.879898
0
LINE
8
Tête 1
10
84.324922
20
257.879898
11
83.053243
21
260.072923
0
LINE
8
Tête 1
10
83.053243
20
260.072923
11
81.595840
21
262.573420
0
LINE
8
Tête 1
10
81.595840
20
262.573420
11
81.127729
21
263.926048
0
LINE
8
Tête 1
10
81.127729
20
263.926048
11
81.044183
21
265.352363
0
LINE
8
Tête 1
10
81.044183
20
265.352363
11
81.897394
21
270.518993
0
LINE
8
Tête 1
10
81.897394
20
270.518993
11
81.897400
21
270.519000
0
LINE
8
Tête 1
10
167.759000
20
267.506000
11
167.366147
21
265.377379
0
LINE
8
Tête 1
10
167.366147
20
265.377379
11
167.067757
21
263.214230
0
LINE
8
Tête 1
10
167.067757
20
263.214230
11
166.636765
21
261.095758
0
LINE
8
Tête 1
10
166.636765
20
261.095758
11
165.846100
21
259.101170
0
LINE
8
Tête 1
10
165.846100
20
259.101170
11
164.988665
21
257.425520
0
LINE
8
Tête 1
10
164.988665
20
257.425520
11
164.005197
21
255.827094
0
LINE
8
Tête 1
10
164.005197
20
255.827094
11
161.956860
21
252.679160
0
LINE
8
Tête 1
10
161.956860
20
252.679160
11
157.771124
21
244.161551
0
LINE
8
Tête 1
10
157.771124
20
244.161551
11
153.436790
21
235.729360
0
LINE
8
Tête 1
10
153.436790
20
235.729360
11
153.191197
21
233.746026
0
LINE
8
Tête 1
10
153.191197
20
233.746026
11
153.211327
21
231.716004
0
LINE
8
Tête 1
10
153.211327
20
231.716004
11
153.387362
21
230.736570
0
LINE
8
Tête 1
10
153.387362
20
230.736570
11
153.709414
21
229.809167
0
LINE
8
Tête 1
10
153.709414
20
229.809167
11
154.204014
21
228.955029
0
LINE
8
Tête 1
10
154.204014
20
228.955029
11
154.897690
21
228.195390
0
LINE
8
Tête 1
10
154.897690
20
228.195390
11
156.064052
21
227.322949
0
LINE
8
Tête 1
10
156.064052
20
227.322949
11
157.581012
21
226.755799
0
LINE
8
Tête 1
10
157.581012
20
226.755799
11
158.234305
21
226.735877
0
LINE
8
Tête 1
10
158.234305
20
226.735877
11
158.691252
21
226.971281
0
LINE
8
Tête 1
10
158.691252
20
226.971281
11
158.857189
21
227.521677
0
LINE
8
Tête 1
10
158.857189
20
227.521677
11
158.637450
21
228.446734
0
LINE
8
Tête 1
10
158.637450
20
228.446734
11
158.486336
21
235.511275
0
LINE
8
Tête 1
10
158.486336
20
235.511275
11
158.673570
21
239.036360
0
LINE
8
Tête 1
10
158.673570
20
239.036360
11
159.162180
21
242.531334
0
LINE
8
Tête 1
10
159.162180
20
242.531334
11
161.172899
21
244.987433
0
LINE
8
Tête 1
10
161.172899
20
244.987433
11
162.038520
21
246.297785
0
LINE
8
Tête 1
10
162.038520
20
246.297785
11
162.609680
21
247.776104
0
LINE
8
Tête 1
10
162.609680
20
247.776104
11
164.341715
21
252.542126
0
LINE
8
Tête 1
10
164.341715
20
252.542126
11
165.331482
21
254.866889
0
LINE
8
Tête 1
10
165.331482
20
254.866889
11
166.603160
21
257.059914
0
LINE
8
Tête 1
10
166.603160
20
257.059914
11
168.060557
21
259.560411
0
LINE
8
Tête 1
10
168.060557
20
259.560411
11
168.528665
21
260.913039
0
LINE
8
Tête 1
10
168.528665
20
260.913039
11
168.612210
21
262.339354
0
LINE
8
Tête 1
10
168.612210
20
262.339354
11
167.759000
21
267.505984
0
LINE
8
Tête 1
10
167.759000
20
267.505984
11
167.759000
21
267.506000
0
LINE
8
Tête 1
10
80.194100
20
205.706000
11
81.361418
21
207.306993
0
LINE
8
Tête 1
10
81.361418
20
207.306993
11
82.197438
21
208.984125
0
LINE
8
Tête 1
10
82.197438
20
208.984125
11
83.733450
21
212.642980
0
LINE
8
Tête 1
10
83.733450
20
212.642980
11
84.508781
21
213.984434
0
LINE
8
Tête 1
10
84.508781
20
213.984434
11
85.399230
21
215.250342
0
LINE
8
Tête 1
10
85.399230
20
215.250342
11
86.501276
21
216.267480
0
LINE
8
Tête 1
10
86.501276
20
216.267480
11
87.161798
21
216.628626
0
LINE
8
Tête 1
10
87.161798
20
216.628626
11
87.911400
21
216.862620
0
LINE
8
Tête 1
10
87.911400
20
216.862620
11
91.188028
21
219.545186
0
LINE
8
Tête 1
10
91.188028
20
219.545186
11
95.262640
21
222.746220
0
LINE
8
Tête 1
10
95.262640
20
222.746220
11
97.255940
21
223.907840
0
LINE
8
Tête 1
10
97.255940
20
223.907840
11
97.642273
21
225.173286
0
LINE
8
Tête 1
10
97.642273
20
225.173286
11
97.837978
21
226.412207
0
LINE
8
Tête 1
10
97.837978
20
226.412207
11
97.762820
21
228.946710
0
LINE
8
Tête 1
10
97.762820
20
228.946710
11
97.546388
21
227.271249
0
LINE
8
Tête 1
10
97.546388
20
227.271249
11
96.889210
21
225.669160
0
LINE
8
Tête 1
10
96.889210
20
225.669160
11
96.459662
21
224.857194
0
LINE
8
Tête 1
10
96.459662
20
224.857194
11
95.904276
21
224.170388
0
LINE
8
Tête 1
10
95.904276
20
224.170388
11
94.552426
21
223.074622
0
LINE
8
Tête 1
10
94.552426
20
223.074622
11
93.106528
21
222.186596
0
LINE
8
Tête 1
10
93.106528
20
222.186596
11
91.839450
21
221.311040
0
LINE
8
Tête 1
10
91.839450
20
221.311040
11
89.140119
21
219.371445
0
LINE
8
Tête 1
10
89.140119
20
219.371445
11
86.449573
21
217.218440
0
LINE
8
Tête 1
10
86.449573
20
217.218440
11
84.095780
21
214.874170
0
LINE
8
Tête 1
10
84.095780
20
214.874170
11
83.147656
21
213.637231
0
LINE
8
Tête 1
10
83.147656
20
213.637231
11
82.406710
21
212.360780
0
LINE
8
Tête 1
10
82.406710
20
212.360780
11
81.241055
21
209.053940
0
LINE
8
Tête 1
10
81.241055
20
209.053940
11
80.194090
21
205.706000
0
LINE
8
Tête 1
10
80.194090
20
205.706000
11
80.194100
21
205.706000
0
LINE
8
Tête 1
10
167.998000
20
205.105000
11
166.830687
21
206.705992
0
LINE
8
Tête 1
10
166.830687
20
206.705992
11
165.994670
21
208.383124
0
LINE
8
Tête 1
10
165.994670
20
208.383124
11
164.458650
21
212.041970
0
LINE
8
Tête 1
10
164.458650
20
212.041970
11
163.683323
21
213.383424
0
LINE
8
Tête 1
10
163.683323
20
213.383424
11
162.792874
21
214.649333
0
LINE
8
Tête 1
10
162.792874
20
214.649333
11
161.690825
21
215.666470
0
LINE
8
Tête 1
10
161.690825
20
215.666470
11
161.030302
21
216.027616
0
LINE
8
Tête 1
10
161.030302
20
216.027616
11
160.280700
21
216.261610
0
LINE
8
Tête 1
10
160.280700
20
216.261610
11
157.004069
21
218.944176
0
LINE
8
Tête 1
10
157.004069
20
218.944176
11
152.929460
21
222.145210
0
LINE
8
Tête 1
10
152.929460
20
222.145210
11
150.936160
21
223.306830
0
LINE
8
Tête 1
10
150.936160
20
223.306830
11
150.549831
21
224.572276
0
LINE
8
Tête 1
10
150.549831
20
224.572276
11
150.354126
21
225.811197
0
LINE
8
Tête 1
10
150.354126
20
225.811197
11
150.429280
21
228.345700
0
LINE
8
Tête 1
10
150.429280
20
228.345700
11
150.645711
21
226.670243
0
LINE
8
Tête 1
10
150.645711
20
226.670243
11
151.302880
21
225.068150
0
LINE
8
Tête 1
10
151.302880
20
225.068150
11
151.732432
21
224.256184
0
LINE
8
Tête 1
10
151.732432
20
224.256184
11
152.287820
21
223.569378
0
LINE
8
Tête 1
10
152.287820
20
223.569378
11
153.639673
21
222.473613
0
LINE
8
Tête 1
10
153.639673
20
222.473613
11
155.085572
21
221.585586
0
LINE
8
Tête 1
10
155.085572
20
221.585586
11
156.352650
21
220.710030
0
LINE
8
Tête 1
10
156.352650
20
220.710030
11
159.051981
21
218.770435
0
LINE
8
Tête 1
10
159.051981
20
218.770435
11
161.742527
21
216.617430
0
LINE
8
Tête 1
10
161.742527
20
216.617430
11
164.096320
21
214.273160
0
LINE
8
Tête 1
10
164.096320
20
214.273160
11
165.044444
21
213.036221
0
LINE
8
Tête 1
10
165.044444
20
213.036221
11
165.785390
21
211.759770
0
LINE
8
Tête 1
10
165.785390
20
211.759770
11
166.951050
21
208.452926
0
LINE
8
Tête 1
10
166.951050
20
208.452926
11
167.998000
21
205.104990
0
LINE
8
Tête 1
10
167.998000
20
205.104990
11
167.998000
21
205.105000
0
LINE
8
Tête 1
10
90.910000
20
207.226000
11
89.680799
21
206.645489
0
LINE
8
Tête 1
10
89.680799
20
206.645489
11
89.085937
21
206.577570
0
LINE
8
Tête 1
10
89.085937
20
206.577570
11
88.833385
21
206.725899
0
LINE
8
Tête 1
10
88.833385
20
206.725899
11
88.625970
21
207.044023
0
LINE
8
Tête 1
10
88.625970
20
207.044023
11
88.498014
21
208.221344
0
LINE
8
Tête 1
10
88.498014
20
208.221344
11
88.537657
21
209.429368
0
LINE
8
Tête 1
10
88.537657
20
209.429368
11
88.857583
21
210.561282
0
LINE
8
Tête 1
10
88.857583
20
210.561282
11
89.570476
21
211.510273
0
LINE
8
Tête 1
10
89.570476
20
211.510273
11
94.571944
21
215.506009
0
LINE
8
Tête 1
10
94.571944
20
215.506009
11
97.361003
21
217.566085
0
LINE
8
Tête 1
10
97.361003
20
217.566085
11
98.535457
21
218.252581
0
LINE
8
Tête 1
10
98.535457
20
218.252581
11
99.451896
21
218.573253
0
LINE
8
Tête 1
10
99.451896
20
218.573253
11
100.631663
21
216.103623
0
LINE
8
Tête 1
10
100.631663
20
216.103623
11
101.988359
21
212.602403
0
LINE
8
Tête 1
10
101.988359
20
212.602403
11
102.526554
21
210.788163
0
LINE
8
Tête 1
10
102.526554
20
210.788163
11
102.861180
21
209.103883
0
LINE
8
Tête 1
10
102.861180
20
209.103883
11
102.909638
21
207.678851
0
LINE
8
Tête 1
10
102.909638
20
207.678851
11
102.589326
21
206.642353
0
LINE
8
Tête 1
10
102.589326
20
206.642353
11
101.961295
21
206.439944
0
LINE
8
Tête 1
10
101.961295
20
206.439944
11
101.403601
21
206.661842
0
LINE
8
Tête 1
10
101.403601
20
206.661842
11
100.946384
21
207.137783
0
LINE
8
Tête 1
10
100.946384
20
207.137783
11
100.619786
21
207.697503
0
LINE
8
Tête 1
10
100.619786
20
207.697503
11
99.792497
21
208.526439
0
LINE
8
Tête 1
10
99.792497
20
208.526439
11
98.699401
21
209.279217
0
LINE
8
Tête 1
10
98.699401
20
209.279217
11
97.507530
21
209.872970
0
LINE
8
Tête 1
10
97.507530
20
209.872970
11
96.383916
21
210.224833
0
LINE
8
Tête 1
10
96.383916
20
210.224833
11
96.621112
21
211.273985
0
LINE
8
Tête 1
10
96.621112
20
211.273985
11
96.688426
21
212.096393
0
LINE
8
Tête 1
10
96.688426
20
212.096393
11
96.420044
21
212.572004
0
LINE
8
Tête 1
10
96.420044
20
212.572004
11
96.026173
21
212.912900
0
LINE
8
Tête 1
10
96.026173
20
212.912900
11
95.015265
21
213.204209
0
LINE
8
Tête 1
10
95.015265
20
213.204209
11
93.962302
21
212.997639
0
LINE
8
Tête 1
10
93.962302
20
212.997639
11
93.515863
21
212.716186
0
LINE
8
Tête 1
10
93.515863
20
212.716186
11
93.173886
21
212.320509
0
LINE
8
Tête 1
10
93.173886
20
212.320509
11
93.070444
21
211.895790
0
LINE
8
Tête 1
10
93.070444
20
211.895790
11
93.158548
21
211.390195
0
LINE
8
Tête 1
10
93.158548
20
211.390195
11
93.495912
21
210.175219
0
LINE
8
Tête 1
10
93.495912
20
210.175219
11
92.855830
21
209.702032
0
LINE
8
Tête 1
10
92.855830
20
209.702032
11
92.301105
21
209.676219
0
LINE
8
Tête 1
10
92.301105
20
209.676219
11
91.458067
21
210.131700
0
LINE
8
Tête 1
10
91.458067
20
210.131700
11
91.174922
21
210.195486
0
LINE
8
Tête 1
10
91.174922
20
210.195486
11
90.987471
21
209.871631
0
LINE
8
Tête 1
10
90.987471
20
209.871631
11
90.909992
21
207.225979
0
LINE
8
Tête 1
10
90.909992
20
207.225979
11
90.910000
21
207.226000
0
LINE
8
Tête 1
10
157.344000
20
207.266000
11
158.573206
21
206.685489
0
LINE
8
Tête 1
10
158.573206
20
206.685489
11
159.168068
21
206.617570
0
LINE
8
Tête 1
10
159.168068
20
206.617570
11
159.420618
21
206.765899
0
LINE
8
Tête 1
10
159.420618
20
206.765899
11
159.628030
21
207.084023
0
LINE
8
Tête 1
10
159.628030
20
207.084023
11
159.755988
21
208.261344
0
LINE
8
Tête 1
10
159.755988
20
208.261344
11
159.716349
21
209.469368
0
LINE
8
Tête 1
10
159.716349
20
209.469368
11
159.396425
21
210.601282
0
LINE
8
Tête 1
10
159.396425
20
210.601282
11
158.683530
21
211.550273
0
LINE
8
Tête 1
10
158.683530
20
211.550273
11
153.682066
21
215.546013
0
LINE
8
Tête 1
10
153.682066
20
215.546013
11
150.893005
21
217.606089
0
LINE
8
Tête 1
10
150.893005
20
217.606089
11
149.718550
21
218.292584
0
LINE
8
Tête 1
10
149.718550
20
218.292584
11
148.802110
21
218.613253
0
LINE
8
Tête 1
10
148.802110
20
218.613253
11
147.622343
21
216.143618
0
LINE
8
Tête 1
10
147.622343
20
216.143618
11
146.265649
21
212.642399
0
LINE
8
Tête 1
10
146.265649
20
212.642399
11
145.727455
21
210.828160
0
LINE
8
Tête 1
10
145.727455
20
210.828160
11
145.392830
21
209.143882
0
LINE
8
Tête 1
10
145.392830
20
209.143882
11
145.344375
21
207.718851
0
LINE
8
Tête 1
10
145.344375
20
207.718851
11
145.664690
21
206.682353
0
LINE
8
Tête 1
10
145.664690
20
206.682353
11
146.292717
21
206.479943
0
LINE
8
Tête 1
10
146.292717
20
206.479943
11
146.850411
21
206.701841
0
LINE
8
Tête 1
10
146.850411
20
206.701841
11
147.307630
21
207.177783
0
LINE
8
Tête 1
10
147.307630
20
207.177783
11
147.634230
21
207.737503
0
LINE
8
Tête 1
10
147.634230
20
207.737503
11
148.461519
21
208.566439
0
LINE
8
Tête 1
10
148.461519
20
208.566439
11
149.554615
21
209.319217
0
LINE
8
Tête 1
10
149.554615
20
209.319217
11
150.746486
21
209.912970
0
LINE
8
Tête 1
10
150.746486
20
209.912970
11
151.870100
21
210.264833
0
LINE
8
Tête 1
10
151.870100
20
210.264833
11
151.632863
21
211.313985
0
LINE
8
Tête 1
10
151.632863
20
211.313985
11
151.565590
21
212.136393
0
LINE
8
Tête 1
10
151.565590
20
212.136393
11
151.833972
21
212.612004
0
LINE
8
Tête 1
10
151.833972
20
212.612004
11
152.227841
21
212.952900
0
LINE
8
Tête 1
10
152.227841
20
212.952900
11
153.238746
21
213.244209
0
LINE
8
Tête 1
10
153.238746
20
213.244209
11
154.291705
21
213.037639
0
LINE
8
Tête 1
10
154.291705
20
213.037639
11
154.738143
21
212.756186
0
LINE
8
Tête 1
10
154.738143
20
212.756186
11
155.080120
21
212.360509
0
LINE
8
Tête 1
10
155.080120
20
212.360509
11
155.183561
21
211.935790
0
LINE
8
Tête 1
10
155.183561
20
211.935790
11
155.095456
21
211.430195
0
LINE
8
Tête 1
10
155.095456
20
211.430195
11
154.758090
21
210.215219
0
LINE
8
Tête 1
10
154.758090
20
210.215219
11
155.398173
21
209.742032
0
LINE
8
Tête 1
10
155.398173
20
209.742032
11
155.952898
21
209.716219
0
LINE
8
Tête 1
10
155.952898
20
209.716219
11
156.795940
21
210.171700
0
LINE
8
Tête 1
10
156.795940
20
210.171700
11
157.079087
21
210.235486
0
LINE
8
Tête 1
10
157.079087
20
210.235486
11
157.266539
21
209.911631
0
LINE
8
Tête 1
10
157.266539
20
209.911631
11
157.344020
21
207.265979
0
LINE
8
Tête 1
10
157.344020
20
207.265979
11
157.344000
21
207.266000
0
LINE
8
Tête 1
10
96.914000
20
195.902000
11
98.661980
21
198.029990
0
LINE
8
Tête 1
10
98.661980
20
198.029990
11
100.713960
21
198.333980
0
LINE
8
Tête 1
10
100.713960
20
198.333980
11
102.765940
21
198.409980
0
LINE
8
Tête 1
10
102.765940
20
198.409980
11
103.753940
21
197.117990
0
LINE
8
Tête 1
10
103.753940
20
197.117990
11
103.972436
21
196.823495
0
LINE
8
Tête 1
10
103.972436
20
196.823495
11
103.978373
21
196.637061
0
LINE
8
Tête 1
10
103.978373
20
196.637061
11
103.677940
21
196.586000
0
LINE
8
Tête 1
10
103.677940
20
196.586000
11
100.637960
21
196.965990
0
LINE
8
Tête 1
10
100.637960
20
196.965990
11
96.914000
21
195.902000
0
LINE
8
Tête 1
10
100.334000
20
200.842000
11
101.017990
21
204.109970
0
LINE
8
Tête 1
10
101.017990
20
204.109970
11
102.689980
21
205.325960
0
LINE
8
Tête 1
10
102.689980
20
205.325960
11
104.665960
21
204.945970
0
LINE
8
Tête 1
10
104.665960
20
204.945970
11
107.097930
21
204.489970
0
LINE
8
Tête 1
10
107.097930
20
204.489970
11
107.173930
21
203.045980
0
LINE
8
Tête 1
10
107.173930
20
203.045980
11
106.793930
21
201.450000
0
LINE
8
Tête 1
10
106.793930
20
201.450000
11
106.869930
21
200.538005
0
LINE
8
Tête 1
10
106.869930
20
200.538005
11
106.858055
21
200.146133
0
LINE
8
Tête 1
10
106.858055
20
200.146133
11
106.717930
21
200.082010
0
LINE
8
Tête 1
10
106.717930
20
200.082010
11
104.665950
21
201.753990
0
LINE
8
Tête 1
10
104.665950
20
201.753990
11
102.917960
21
202.133990
0
LINE
8
Tête 1
10
102.917960
20
202.133990
11
101.397980
21
201.146000
0
LINE
8
Tête 1
10
101.397980
20
201.146000
11
100.334000
21
200.842000
0
LINE
8
Tête 1
10
102.538000
20
225.846000
11
103.417720
21
229.533880
0
LINE
8
Tête 1
10
103.417720
20
229.533880
11
104.294020
21
231.143700
0
LINE
8
Tête 1
10
104.294020
20
231.143700
11
105.215230
21
230.727613
0
LINE
8
Tête 1
10
105.215230
20
230.727613
11
105.321200
21
231.880083
0
LINE
8
Tête 1
10
105.321200
20
231.880083
11
106.641960
21
231.545954
0
LINE
8
Tête 1
10
106.641960
20
231.545954
11
107.116960
21
232.932944
0
LINE
8
Tête 1
10
107.116960
20
232.932944
11
108.617950
21
232.381947
0
LINE
8
Tête 1
10
108.617950
20
232.381947
11
108.940940
21
233.882937
0
LINE
8
Tête 1
10
108.940940
20
233.882937
11
110.137930
21
232.989947
0
LINE
8
Tête 1
10
110.137930
20
232.989947
11
110.840930
21
234.338937
0
LINE
8
Tête 1
10
110.840930
20
234.338937
11
112.189910
21
233.597944
0
LINE
8
Tête 1
10
112.189910
20
233.597944
11
112.740910
21
234.813934
0
LINE
8
Tête 1
10
112.740910
20
234.813934
11
113.861900
21
234.205938
0
LINE
8
Tête 1
10
113.861900
20
234.205938
11
114.507910
21
235.136931
0
LINE
8
Tête 1
10
114.507910
20
235.136931
11
115.457890
21
234.433936
0
LINE
8
Tête 1
10
115.457890
20
234.433936
11
116.236890
21
235.687926
0
LINE
8
Tête 1
10
116.236890
20
235.687926
11
117.129870
21
234.965932
0
LINE
8
Tête 1
10
117.129870
20
234.965932
11
117.851860
21
236.523922
0
LINE
8
Tête 1
10
117.851860
20
236.523922
11
118.877870
21
235.117932
0
LINE
8
Tête 1
10
118.877870
20
235.117932
11
119.713850
21
236.713922
0
LINE
8
Tête 1
10
119.713850
20
236.713922
11
120.378850
21
235.364932
0
LINE
8
Tête 1
10
120.378850
20
235.364932
11
120.891850
21
236.447922
0
LINE
8
Tête 1
10
120.891850
20
236.447922
11
121.841830
21
235.497930
0
LINE
8
Tête 1
10
121.841830
20
235.497930
11
122.183829
21
236.609420
0
LINE
8
Tête 1
10
122.183829
20
236.609420
11
122.402920
21
237.309444
0
LINE
8
Tête 1
10
122.402920
20
237.309444
11
122.468820
21
237.492910
0
LINE
8
Tête 1
10
122.468820
20
237.492910
11
122.647539
21
237.064821
0
LINE
8
Tête 1
10
122.647539
20
237.064821
11
123.114820
21
236.419422
0
LINE
8
Tête 1
10
123.114820
20
236.419422
11
123.817820
21
235.573930
0
LINE
8
Tête 1
10
123.817820
20
235.573930
11
124.121820
21
235.896925
0
LINE
8
Tête 1
10
124.121820
20
235.896925
11
124.501820
21
235.478930
0
LINE
8
Tête 1
10
124.501820
20
235.478930
11
125.622800
21
237.530910
0
LINE
8
Tête 1
10
125.622800
20
237.530910
11
125.889976
21
236.152296
0
LINE
8
Tête 1
10
125.889976
20
236.152296
11
126.117838
21
235.590934
0
LINE
8
Tête 1
10
126.117838
20
235.590934
11
126.334170
21
235.449228
0
LINE
8
Tête 1
10
126.334170
20
235.449228
11
126.648800
21
235.440930
0
LINE
8
Tête 1
10
126.648800
20
235.440930
11
127.313790
21
236.713920
0
LINE
8
Tête 1
10
127.313790
20
236.713920
11
128.263770
21
235.307930
0
LINE
8
Tête 1
10
128.263770
20
235.307930
11
128.985770
21
236.713920
0
LINE
8
Tête 1
10
128.985770
20
236.713920
11
129.821760
21
235.117940
0
LINE
8
Tête 1
10
129.821760
20
235.117940
11
130.961760
21
236.181930
0
LINE
8
Tête 1
10
130.961760
20
236.181930
11
131.227710
21
234.813940
0
LINE
8
Tête 1
10
131.227710
20
234.813940
11
132.481710
21
235.725931
0
LINE
8
Tête 1
10
132.481710
20
235.725931
11
132.975700
21
234.243941
0
LINE
8
Tête 1
10
132.975700
20
234.243941
11
133.773690
21
235.193931
0
LINE
8
Tête 1
10
133.773690
20
235.193931
11
134.153680
21
233.901941
0
LINE
8
Tête 1
10
134.153680
20
233.901941
11
135.293680
21
234.965931
0
LINE
8
Tête 1
10
135.293680
20
234.965931
11
135.749680
21
233.673941
0
LINE
8
Tête 1
10
135.749680
20
233.673941
11
136.661670
21
234.509934
0
LINE
8
Tête 1
10
136.661670
20
234.509934
11
137.041660
21
233.255944
0
LINE
8
Tête 1
10
137.041660
20
233.255944
11
138.181660
21
234.357934
0
LINE
8
Tête 1
10
138.181660
20
234.357934
11
139.017650
21
232.495954
0
LINE
8
Tête 1
10
139.017650
20
232.495954
11
140.157640
21
233.217949
0
LINE
8
Tête 1
10
140.157640
20
233.217949
11
140.689630
21
231.849959
0
LINE
8
Tête 1
10
140.689630
20
231.849959
11
141.829620
21
232.229953
0
LINE
8
Tête 1
10
141.829620
20
232.229953
11
142.209610
21
231.013963
0
LINE
8
Tête 1
10
142.209610
20
231.013963
11
143.501610
21
231.393961
0
LINE
8
Tête 1
10
143.501610
20
231.393961
11
144.641600
21
229.645971
0
LINE
8
Tête 1
10
144.641600
20
229.645971
11
145.553590
21
225.770001
0
LINE
8
Tête 1
10
145.553590
20
225.770001
11
144.489600
21
225.922002
0
LINE
8
Tête 1
10
144.489600
20
225.922002
11
143.144206
21
227.729763
0
LINE
8
Tête 1
10
143.144206
20
227.729763
11
141.383060
21
229.297541
0
LINE
8
Tête 1
10
141.383060
20
229.297541
11
139.264073
21
230.631218
0
LINE
8
Tête 1
10
139.264073
20
230.631218
11
136.845151
21
231.736677
0
LINE
8
Tête 1
10
136.845151
20
231.736677
11
134.184204
21
232.619797
0
LINE
8
Tête 1
10
134.184204
20
232.619797
11
131.339139
21
233.286461
0
LINE
8
Tête 1
10
131.339139
20
233.286461
11
128.367866
21
233.742551
0
LINE
8
Tête 1
10
128.367866
20
233.742551
11
125.328293
21
233.993948
0
LINE
8
Tête 1
10
125.328293
20
233.993948
11
122.278327
21
234.046534
0
LINE
8
Tête 1
10
122.278327
20
234.046534
11
119.275878
21
233.906190
0
LINE
8
Tête 1
10
119.275878
20
233.906190
11
116.378854
21
233.578798
0
LINE
8
Tête 1
10
116.378854
20
233.578798
11
113.645163
21
233.070239
0
LINE
8
Tête 1
10
113.645163
20
233.070239
11
111.132714
21
232.386396
0
LINE
8
Tête 1
10
111.132714
20
232.386396
11
108.899414
21
231.533149
0
LINE
8
Tête 1
10
108.899414
20
231.533149
11
107.003174
21
230.516381
0
LINE
8
Tête 1
10
107.003174
20
230.516381
11
105.501900
21
229.341972
0
LINE
8
Tête 1
10
105.501900
20
229.341972
11
102.820060
21
225.590742
0
LINE
8
Tête 1
10
102.820060
20
225.590742
11
102.538000
21
225.846000
0
LINE
8
Tête 1
10
106.034000
20
225.228000
11
107.068474
21
226.912581
0
LINE
8
Tête 1
10
107.068474
20
226.912581
11
108.080241
21
228.082020
0
LINE
8
Tête 1
10
108.080241
20
228.082020
11
109.933810
21
229.885550
0
LINE
8
Tête 1
10
109.933810
20
229.885550
11
113.416356
21
230.744635
0
LINE
8
Tête 1
10
113.416356
20
230.744635
11
117.061115
21
231.543420
0
LINE
8
Tête 1
10
117.061115
20
231.543420
11
120.746247
21
232.075137
0
LINE
8
Tête 1
10
120.746247
20
232.075137
11
122.565877
21
232.176231
0
LINE
8
Tête 1
10
122.565877
20
232.176231
11
124.349910
21
232.133020
0
LINE
8
Tête 1
10
124.349910
20
232.133020
11
127.365804
21
231.987932
0
LINE
8
Tête 1
10
127.365804
20
231.987932
11
130.151976
21
231.591823
0
LINE
8
Tête 1
10
130.151976
20
231.591823
11
132.897740
21
230.904444
0
LINE
8
Tête 1
10
132.897740
20
230.904444
11
135.792410
21
229.885550
0
LINE
8
Tête 1
10
135.792410
20
229.885550
11
137.998830
21
228.958820
0
LINE
8
Tête 1
10
137.998830
20
228.958820
11
139.664748
21
227.881126
0
LINE
8
Tête 1
10
139.664748
20
227.881126
11
140.806256
21
226.790970
0
LINE
8
Tête 1
10
140.806256
20
226.790970
11
141.439447
21
225.826855
0
LINE
8
Tête 1
10
141.439447
20
225.826855
11
141.580415
21
225.127284
0
LINE
8
Tête 1
10
141.580415
20
225.127284
11
141.471344
21
224.919984
0
LINE
8
Tête 1
10
141.471344
20
224.919984
11
141.245251
21
224.830759
0
LINE
8
Tête 1
10
141.245251
20
224.830759
11
140.450049
21
225.075784
0
LINE
8
Tête 1
10
140.450049
20
225.075784
11
139.210900
21
226.000860
0
LINE
8
Tête 1
10
139.210900
20
226.000860
11
137.748305
21
227.027821
0
LINE
8
Tête 1
10
137.748305
20
227.027821
11
135.851675
21
228.117782
0
LINE
8
Tête 1
10
135.851675
20
228.117782
11
131.791725
21
229.993972
0
LINE
8
Tête 1
10
131.791725
20
229.993972
11
130.146111
21
230.533839
0
LINE
8
Tête 1
10
130.146111
20
230.533839
11
129.101875
21
230.643977
0
LINE
8
Tête 1
10
129.101875
20
230.643977
11
128.886165
21
230.499403
0
LINE
8
Tête 1
10
128.886165
20
230.499403
11
128.917870
21
230.201205
0
LINE
8
Tête 1
10
128.917870
20
230.201205
11
129.852950
21
229.082340
0
LINE
8
Tête 1
10
129.852950
20
229.082340
11
130.421123
21
228.366927
0
LINE
8
Tête 1
10
130.421123
20
228.366927
11
130.578422
21
227.727964
0
LINE
8
Tête 1
10
130.578422
20
227.727964
11
130.404546
21
227.220421
0
LINE
8
Tête 1
10
130.404546
20
227.220421
11
129.979190
21
226.899269
0
LINE
8
Tête 1
10
129.979190
20
226.899269
11
129.382053
21
226.819477
0
LINE
8
Tête 1
10
129.382053
20
226.819477
11
128.692830
21
227.036016
0
LINE
8
Tête 1
10
128.692830
20
227.036016
11
127.991220
21
227.603856
0
LINE
8
Tête 1
10
127.991220
20
227.603856
11
127.356920
21
228.577968
0
LINE
8
Tête 1
10
127.356920
20
228.577968
11
127.137903
21
229.246950
0
LINE
8
Tête 1
10
127.137903
20
229.246950
11
127.316691
21
229.815270
0
LINE
8
Tête 1
10
127.316691
20
229.815270
11
127.523419
21
230.336747
0
LINE
8
Tête 1
10
127.523419
20
230.336747
11
127.388220
21
230.865198
0
LINE
8
Tête 1
10
127.388220
20
230.865198
11
126.893915
21
231.189193
0
LINE
8
Tête 1
10
126.893915
20
231.189193
11
126.174996
21
231.288950
0
LINE
8
Tête 1
10
126.174996
20
231.288950
11
124.349870
21
231.085716
0
LINE
8
Tête 1
10
124.349870
20
231.085716
11
122.405066
21
231.296217
0
LINE
8
Tête 1
10
122.405066
20
231.296217
11
121.430395
21
231.173837
0
LINE
8
Tête 1
10
121.430395
20
231.173837
11
120.694180
21
230.865198
0
LINE
8
Tête 1
10
120.694180
20
230.865198
11
120.426565
21
230.490489
0
LINE
8
Tête 1
10
120.426565
20
230.490489
11
120.414036
21
229.993666
0
LINE
8
Tête 1
10
120.414036
20
229.993666
11
120.858100
21
228.685448
0
LINE
8
Tête 1
10
120.858100
20
228.685448
11
120.463210
21
227.968965
0
LINE
8
Tête 1
10
120.463210
20
227.968965
11
119.805692
21
227.393626
0
LINE
8
Tête 1
10
119.805692
20
227.393626
11
119.026808
21
226.998300
0
LINE
8
Tête 1
10
119.026808
20
226.998300
11
118.267823
21
226.821858
0
LINE
8
Tête 1
10
118.267823
20
226.821858
11
117.669997
21
226.903171
0
LINE
8
Tête 1
10
117.669997
20
226.903171
11
117.374597
21
227.281109
0
LINE
8
Tête 1
10
117.374597
20
227.281109
11
117.522883
21
227.994542
0
LINE
8
Tête 1
10
117.522883
20
227.994542
11
118.256120
21
229.082341
0
LINE
8
Tête 1
10
118.256120
20
229.082341
11
119.441124
21
230.829067
0
LINE
8
Tête 1
10
119.441124
20
230.829067
11
119.505300
21
231.073742
0
LINE
8
Tête 1
10
119.505300
20
231.073742
11
119.378205
21
231.131018
0
LINE
8
Tête 1
10
119.378205
20
231.131018
11
118.353320
21
230.462181
0
LINE
8
Tête 1
10
118.353320
20
230.462181
11
117.336168
21
229.809525
0
LINE
8
Tête 1
10
117.336168
20
229.809525
11
116.212367
21
229.420766
0
LINE
8
Tête 1
10
116.212367
20
229.420766
11
113.837655
21
229.026683
0
LINE
8
Tête 1
10
113.837655
20
229.026683
11
112.683167
21
228.817231
0
LINE
8
Tête 1
10
112.683167
20
228.817231
11
111.614871
21
228.463421
0
LINE
8
Tête 1
10
111.614871
20
228.463421
11
110.680978
21
227.863189
0
LINE
8
Tête 1
10
110.680978
20
227.863189
11
109.929700
21
226.914471
0
LINE
8
Tête 1
10
109.929700
20
226.914471
11
109.336638
21
226.160316
0
LINE
8
Tête 1
10
109.336638
20
226.160316
11
108.643353
21
225.651295
0
LINE
8
Tête 1
10
108.643353
20
225.651295
11
107.619313
21
225.352241
0
LINE
8
Tête 1
10
107.619313
20
225.352241
11
106.033990
21
225.227991
0
LINE
8
Tête 1
10
106.033990
20
225.227991
11
106.034000
21
225.228000
0
LINE
8
Tête 1
10
102.386000
20
219.386000
11
102.337082
21
220.415812
0
LINE
8
Tête 1
10
102.337082
20
220.415812
11
102.607290
21
221.310413
0
LINE
8
Tête 1
10
102.607290
20
221.310413
11
103.137202
21
222.070763
0
LINE
8
Tête 1
10
103.137202
20
222.070763
11
103.867392
21
222.697821
0
LINE
8
Tête 1
10
103.867392
20
222.697821
11
104.738440
21
223.192548
0
LINE
8
Tête 1
10
104.738440
20
223.192548
11
105.690921
21
223.555904
0
LINE
8
Tête 1
10
105.690921
20
223.555904
11
107.602490
21
223.892340
0
LINE
8
Tête 1
10
107.602490
20
223.892340
11
109.490045
21
224.171893
0
LINE
8
Tête 1
10
109.490045
20
224.171893
11
111.274402
21
224.744172
0
LINE
8
Tête 1
10
111.274402
20
224.744172
11
112.958331
21
225.552349
0
LINE
8
Tête 1
10
112.958331
20
225.552349
11
114.544600
21
226.539600
0
LINE
8
Tête 1
10
114.544600
20
226.539600
11
115.214321
21
226.638146
0
LINE
8
Tête 1
10
115.214321
20
226.638146
11
115.621740
21
226.506999
0
LINE
8
Tête 1
10
115.621740
20
226.506999
11
115.799261
21
226.208923
0
LINE
8
Tête 1
10
115.799261
20
226.208923
11
115.779289
21
225.806686
0
LINE
8
Tête 1
10
115.779289
20
225.806686
11
115.276476
21
224.940791
0
LINE
8
Tête 1
10
115.276476
20
224.940791
11
114.858443
21
224.602664
0
LINE
8
Tête 1
10
114.858443
20
224.602664
11
114.372530
21
224.411440
0
LINE
8
Tête 1
10
114.372530
20
224.411440
11
113.858986
21
223.905395
0
LINE
8
Tête 1
10
113.858986
20
223.905395
11
113.544814
21
223.216192
0
LINE
8
Tête 1
10
113.544814
20
223.216192
11
113.182095
21
221.703012
0
LINE
8
Tête 1
10
113.182095
20
221.703012
11
112.967299
21
221.086383
0
LINE
8
Tête 1
10
112.967299
20
221.086383
11
112.619381
21
220.701291
0
LINE
8
Tête 1
10
112.619381
20
220.701291
11
112.055216
21
220.651412
0
LINE
8
Tête 1
10
112.055216
20
220.651412
11
111.191680
21
221.040420
0
LINE
8
Tête 1
10
111.191680
20
221.040420
11
110.393128
21
221.581275
0
LINE
8
Tête 1
10
110.393128
20
221.581275
11
109.577821
21
221.826599
0
LINE
8
Tête 1
10
109.577821
20
221.826599
11
108.751034
21
221.833616
0
LINE
8
Tête 1
10
108.751034
20
221.833616
11
107.918045
21
221.659551
0
LINE
8
Tête 1
10
107.918045
20
221.659551
11
106.254564
21
220.997077
0
LINE
8
Tête 1
10
106.254564
20
220.997077
11
104.629590
21
220.296978
0
LINE
8
Tête 1
10
104.629590
20
220.296978
11
102.386000
21
219.386004
0
LINE
8
Tête 1
10
102.386000
20
219.386004
11
102.386000
21
219.386000
0
LINE
8
Tête 1
10
145.217000
20
219.386000
11
145.265921
21
220.415812
0
LINE
8
Tête 1
10
145.265921
20
220.415812
11
144.995714
21
221.310413
0
LINE
8
Tête 1
10
144.995714
20
221.310413
11
144.465803
21
222.070763
0
LINE
8
Tête 1
10
144.465803
20
222.070763
11
143.735611
21
222.697821
0
LINE
8
Tête 1
10
143.735611
20
222.697821
11
142.864563
21
223.192548
0
LINE
8
Tête 1
10
142.864563
20
223.192548
11
141.912080
21
223.555904
0
LINE
8
Tête 1
10
141.912080
20
223.555904
11
140.000510
21
223.892340
0
LINE
8
Tête 1
10
140.000510
20
223.892340
11
138.112960
21
224.171893
0
LINE
8
Tête 1
10
138.112960
20
224.171893
11
136.328605
21
224.744172
0
LINE
8
Tête 1
10
136.328605
20
224.744172
11
134.644675
21
225.552349
0
LINE
8
Tête 1
10
134.644675
20
225.552349
11
133.058400
21
226.539600
0
LINE
8
Tête 1
10
133.058400
20
226.539600
11
132.388679
21
226.638146
0
LINE
8
Tête 1
10
132.388679
20
226.638146
11
131.981260
21
226.506999
0
LINE
8
Tête 1
10
131.981260
20
226.506999
11
131.803739
21
226.208923
0
LINE
8
Tête 1
10
131.803739
20
226.208923
11
131.823711
21
225.806686
0
LINE
8
Tête 1
10
131.823711
20
225.806686
11
132.326524
21
224.940791
0
LINE
8
Tête 1
10
132.326524
20
224.940791
11
132.744557
21
224.602664
0
LINE
8
Tête 1
10
132.744557
20
224.602664
11
133.230470
21
224.411440
0
LINE
8
Tête 1
10
133.230470
20
224.411440
11
133.744018
21
223.905395
0
LINE
8
Tête 1
10
133.744018
20
223.905395
11
134.058191
21
223.216192
0
LINE
8
Tête 1
10
134.058191
20
223.216192
11
134.420914
21
221.703012
0
LINE
8
Tête 1
10
134.420914
20
221.703012
11
134.635710
21
221.086383
0
LINE
8
Tête 1
10
134.635710
20
221.086383
11
134.983629
21
220.701291
0
LINE
8
Tête 1
10
134.983629
20
220.701291
11
135.547794
21
220.651412
0
LINE
8
Tête 1
10
135.547794
20
220.651412
11
136.411330
21
221.040420
0
LINE
8
Tête 1
10
136.411330
20
221.040420
11
137.209881
21
221.581275
0
LINE
8
Tête 1
10
137.209881
20
221.581275
11
138.025188
21
221.826599
0
LINE
8
Tête 1
10
138.025188
20
221.826599
11
138.851973
21
221.833616
0
LINE
8
Tête 1
10
138.851973
20
221.833616
11
139.684961
21
221.659551
0
LINE
8
Tête 1
10
139.684961
20
221.659551
11
141.348442
21
220.997077
0
LINE
8
Tête 1
10
141.348442
20
220.997077
11
142.973420
21
220.296978
0
LINE
8
Tête 1
10
142.973420
20
220.296978
11
145.217000
21
219.386004
0
LINE
8
Tête 1
10
145.217000
20
219.386004
11
145.217000
21
219.386000
0
LINE
8
Tête 1
10
101.170000
20
221.970000
11
102.385990
21
222.273998
0
LINE
8
Tête 1
10
102.385990
20
222.273998
11
102.233990
21
223.717988
0
LINE
8
Tête 1
10
102.233990
20
223.717988
11
101.701990
21
223.109991
0
LINE
8
Tête 1
10
101.701990
20
223.109991
11
101.170000
21
221.970000
0
LINE
8
Tête 1
10
126.554000
20
227.819000
11
126.887079
21
225.806740
0
LINE
8
Tête 1
10
126.887079
20
225.806740
11
127.004641
21
223.799794
0
LINE
8
Tête 1
10
127.004641
20
223.799794
11
126.669685
21
221.723029
0
LINE
8
Tête 1
10
126.669685
20
221.723029
11
126.258450
21
220.634984
0
LINE
8
Tête 1
10
126.258450
20
220.634984
11
125.645210
21
219.501310
0
LINE
8
Tête 1
10
125.645210
20
219.501310
11
126.372514
21
219.538550
0
LINE
8
Tête 1
10
126.372514
20
219.538550
11
127.001437
21
219.720666
0
LINE
8
Tête 1
10
127.001437
20
219.720666
11
127.533905
21
220.030404
0
LINE
8
Tête 1
10
127.533905
20
220.030404
11
127.971841
21
220.450507
0
LINE
8
Tête 1
10
127.971841
20
220.450507
11
128.571817
21
221.552783
0
LINE
8
Tête 1
10
128.571817
20
221.552783
11
128.816759
21
222.889446
0
LINE
8
Tête 1
10
128.816759
20
222.889446
11
128.722060
21
224.322447
0
LINE
8
Tête 1
10
128.722060
20
224.322447
11
128.303117
21
225.713739
0
LINE
8
Tête 1
10
128.303117
20
225.713739
11
127.575322
21
226.925273
0
LINE
8
Tête 1
10
127.575322
20
226.925273
11
126.554070
21
227.819000
0
LINE
8
Tête 1
10
126.554070
20
227.819000
11
126.554000
21
227.819000
0
LINE
8
Tête 1
10
121.674000
20
227.819000
11
121.340921
21
225.806740
0
LINE
8
Tête 1
10
121.340921
20
225.806740
11
121.223359
21
223.799794
0
LINE
8
Tête 1
10
121.223359
20
223.799794
11
121.558315
21
221.723029
0
LINE
8
Tête 1
10
121.558315
20
221.723029
11
121.969550
21
220.634984
0
LINE
8
Tête 1
10
121.969550
20
220.634984
11
122.582790
21
219.501310
0
LINE
8
Tête 1
10
122.582790
20
219.501310
11
121.855486
21
219.538550
0
LINE
8
Tête 1
10
121.855486
20
219.538550
11
121.226562
21
219.720666
0
LINE
8
Tête 1
10
121.226562
20
219.720666
11
120.694094
21
220.030404
0
LINE
8
Tête 1
10
120.694094
20
220.030404
11
120.256157
21
220.450507
0
LINE
8
Tête 1
10
120.256157
20
220.450507
11
119.656180
21
221.552783
0
LINE
8
Tête 1
10
119.656180
20
221.552783
11
119.411237
21
222.889446
0
LINE
8
Tête 1
10
119.411237
20
222.889446
11
119.505935
21
224.322447
0
LINE
8
Tête 1
10
119.505935
20
224.322447
11
119.924879
21
225.713739
0
LINE
8
Tête 1
10
119.924879
20
225.713739
11
120.652675
21
226.925273
0
LINE
8
Tête 1
10
120.652675
20
226.925273
11
121.673930
21
227.819000
0
LINE
8
Tête 1
10
121.673930
20
227.819000
11
121.674000
21
227.819000
0
LINE
8
Tête 1
10
145.934000
20
222.122000
11
146.162000
21
223.337990
0
LINE
8
Tête 1
10
146.162000
20
223.337990
11
146.845990
21
223.261990
0
LINE
8
Tête 1
10
146.845990
20
223.261990
11
146.617990
21
221.818000
0
LINE
8
Tête 1
10
146.617990
20
221.818000
11
145.934000
21
222.122000
0
LINE
8
Tête 1
10
105.274000
20
211.862000
11
104.186140
21
213.195903
0
LINE
8
Tête 1
10
104.186140
20
213.195903
11
103.275586
21
214.569566
0
LINE
8
Tête 1
10
103.275586
20
214.569566
11
102.604247
21
216.033434
0
LINE
8
Tête 1
10
102.604247
20
216.033434
11
102.234030
21
217.637950
0
LINE
8
Tête 1
10
102.234030
20
217.637950
11
103.342263
21
218.592676
0
LINE
8
Tête 1
10
103.342263
20
218.592676
11
104.666615
21
219.205318
0
LINE
8
Tête 1
10
104.666615
20
219.205318
11
107.308330
21
220.065720
0
LINE
8
Tête 1
10
107.308330
20
220.065720
11
107.478670
21
219.549698
0
LINE
8
Tête 1
10
107.478670
20
219.549698
11
107.848750
21
218.907680
0
LINE
8
Tête 1
10
107.848750
20
218.907680
11
108.138051
21
219.505046
0
LINE
8
Tête 1
10
108.138051
20
219.505046
11
108.588424
21
219.870321
0
LINE
8
Tête 1
10
108.588424
20
219.870321
11
109.174748
21
220.028885
0
LINE
8
Tête 1
10
109.174748
20
220.028885
11
109.871900
21
220.006113
0
LINE
8
Tête 1
10
109.871900
20
220.006113
11
111.498200
21
219.518071
0
LINE
8
Tête 1
10
111.498200
20
219.518071
11
113.266349
21
218.609214
0
LINE
8
Tête 1
10
113.266349
20
218.609214
11
114.975369
21
217.482558
0
LINE
8
Tête 1
10
114.975369
20
217.482558
11
116.424283
21
216.341120
0
LINE
8
Tête 1
10
116.424283
20
216.341120
11
117.412116
21
215.387919
0
LINE
8
Tête 1
10
117.412116
20
215.387919
11
117.737890
21
214.825970
0
LINE
8
Tête 1
10
117.737890
20
214.825970
11
117.833560
21
212.188558
0
LINE
8
Tête 1
10
117.833560
20
212.188558
11
117.781832
21
210.912784
0
LINE
8
Tête 1
10
117.781832
20
210.912784
11
117.585850
21
209.658020
0
LINE
8
Tête 1
10
117.585850
20
209.658020
11
117.218763
21
210.650198
0
LINE
8
Tête 1
10
117.218763
20
210.650198
11
116.746365
21
211.397040
0
LINE
8
Tête 1
10
116.746365
20
211.397040
11
116.182144
21
211.941902
0
LINE
8
Tête 1
10
116.182144
20
211.941902
11
115.539594
21
212.328141
0
LINE
8
Tête 1
10
115.539594
20
212.328141
11
114.073464
21
212.798175
0
LINE
8
Tête 1
10
114.073464
20
212.798175
11
112.455900
21
213.153990
0
LINE
8
Tête 1
10
112.455900
20
213.153990
11
111.961900
21
217.295950
0
LINE
8
Tête 1
10
111.961900
20
217.295950
11
111.368351
21
217.583625
0
LINE
8
Tête 1
10
111.368351
20
217.583625
11
111.052308
21
217.501856
0
LINE
8
Tête 1
10
111.052308
20
217.501856
11
110.745920
21
217.181950
0
LINE
8
Tête 1
10
110.745920
20
217.181950
11
110.745910
21
212.925990
0
LINE
8
Tête 1
10
110.745910
20
212.925990
11
105.274000
21
211.862000
0
LINE
8
Tête 1
10
105.274000
20
211.862000
11
105.274000
21
211.862000
0
LINE
8
Tête 1
10
143.017000
20
211.862000
11
144.104866
21
213.195903
0
LINE
8
Tête 1
10
144.104866
20
213.195903
11
145.015421
21
214.569566
0
LINE
8
Tête 1
10
145.015421
20
214.569566
11
145.686759
21
216.033434
0
LINE
8
Tête 1
10
145.686759
20
216.033434
11
146.056970
21
217.637950
0
LINE
8
Tête 1
10
146.056970
20
217.637950
11
144.948742
21
218.592676
0
LINE
8
Tête 1
10
144.948742
20
218.592676
11
143.624393
21
219.205318
0
LINE
8
Tête 1
10
143.624393
20
219.205318
11
140.982670
21
220.065720
0
LINE
8
Tête 1
10
140.982670
20
220.065720
11
140.812334
21
219.549698
0
LINE
8
Tête 1
10
140.812334
20
219.549698
11
140.442250
21
218.907680
0
LINE
8
Tête 1
10
140.442250
20
218.907680
11
140.152949
21
219.505046
0
LINE
8
Tête 1
10
140.152949
20
219.505046
11
139.702576
21
219.870321
0
LINE
8
Tête 1
10
139.702576
20
219.870321
11
139.116252
21
220.028885
0
LINE
8
Tête 1
10
139.116252
20
220.028885
11
138.419100
21
220.006113
0
LINE
8
Tête 1
10
138.419100
20
220.006113
11
136.792800
21
219.518071
0
LINE
8
Tête 1
10
136.792800
20
219.518071
11
135.024651
21
218.609214
0
LINE
8
Tête 1
10
135.024651
20
218.609214
11
133.315631
21
217.482558
0
LINE
8
Tête 1
10
133.315631
20
217.482558
11
131.866717
21
216.341120
0
LINE
8
Tête 1
10
131.866717
20
216.341120
11
130.878884
21
215.387919
0
LINE
8
Tête 1
10
130.878884
20
215.387919
11
130.553110
21
214.825970
0
LINE
8
Tête 1
10
130.553110
20
214.825970
11
130.457440
21
212.188558
0
LINE
8
Tête 1
10
130.457440
20
212.188558
11
130.509167
21
210.912784
0
LINE
8
Tête 1
10
130.509167
20
210.912784
11
130.705150
21
209.658020
0
LINE
8
Tête 1
10
130.705150
20
209.658020
11
131.072237
21
210.650198
0
LINE
8
Tête 1
10
131.072237
20
210.650198
11
131.544635
21
211.397040
0
LINE
8
Tête 1
10
131.544635
20
211.397040
11
132.108856
21
211.941902
0
LINE
8
Tête 1
10
132.108856
20
211.941902
11
132.751406
21
212.328141
0
LINE
8
Tête 1
10
132.751406
20
212.328141
11
134.217536
21
212.798175
0
LINE
8
Tête 1
10
134.217536
20
212.798175
11
135.835100
21
213.153990
0
LINE
8
Tête 1
10
135.835100
20
213.153990
11
136.329100
21
217.295950
0
LINE
8
Tête 1
10
136.329100
20
217.295950
11
136.922646
21
217.583625
0
LINE
8
Tête 1
10
136.922646
20
217.583625
11
137.238692
21
217.501856
0
LINE
8
Tête 1
10
137.238692
20
217.501856
11
137.545090
21
217.181950
0
LINE
8
Tête 1
10
137.545090
20
217.181950
11
137.546000
21
212.926000
0
LINE
8
Tête 1
10
137.546000
20
212.926000
11
143.017910
21
211.862010
0
LINE
8
Tête 1
10
143.017910
20
211.862010
11
143.017000
21
211.862000
0
LINE
8
Tête 1
10
106.376000
20
209.924000
11
109.491970
21
211.101990
0
LINE
8
Tête 1
10
109.491970
20
211.101990
11
112.379950
21
211.481988
0
LINE
8
Tête 1
10
112.379950
20
211.481988
11
114.925920
21
210.873992
0
LINE
8
Tête 1
10
114.925920
20
210.873992
11
115.647915
21
210.284997
0
LINE
8
Tête 1
10
115.647915
20
210.284997
11
116.369910
21
209.582002
0
LINE
8
Tête 1
10
116.369910
20
209.582002
11
116.787910
21
207.872012
0
LINE
8
Tête 1
10
116.787910
20
207.872012
11
116.825910
21
206.238032
0
LINE
8
Tête 1
10
116.825910
20
206.238032
11
116.479160
21
205.967283
0
LINE
8
Tête 1
10
116.479160
20
205.967283
11
115.875910
21
205.668035
0
LINE
8
Tête 1
10
115.875910
20
205.668035
11
114.241930
21
205.668035
0
LINE
8
Tête 1
10
114.241930
20
205.668035
11
114.393930
21
207.188025
0
LINE
8
Tête 1
10
114.393930
20
207.188025
11
114.241930
21
208.252015
0
LINE
8
Tête 1
10
114.241930
20
208.252015
11
113.339435
21
209.107005
0
LINE
8
Tête 1
10
113.339435
20
209.107005
11
112.724313
21
209.587940
0
LINE
8
Tête 1
10
112.724313
20
209.587940
11
112.379940
21
209.734005
0
LINE
8
Tête 1
10
112.379940
20
209.734005
11
110.517955
21
209.658006
0
LINE
8
Tête 1
10
110.517955
20
209.658006
11
108.769970
21
209.696005
0
LINE
8
Tête 1
10
108.769970
20
209.696005
11
108.399475
21
209.582006
0
LINE
8
Tête 1
10
108.399475
20
209.582006
11
107.971980
21
209.354009
0
LINE
8
Tête 1
10
107.971980
20
209.354009
11
108.209480
21
208.651015
0
LINE
8
Tête 1
10
108.209480
20
208.651015
11
108.503980
21
208.062019
0
LINE
8
Tête 1
10
108.503980
20
208.062019
11
108.912475
21
207.739022
0
LINE
8
Tête 1
10
108.912475
20
207.739022
11
109.491970
21
207.416026
0
LINE
8
Tête 1
10
109.491970
20
207.416026
11
111.163950
21
207.036027
0
LINE
8
Tête 1
10
111.163950
20
207.036027
11
113.215940
21
205.934037
0
LINE
8
Tête 1
10
113.215940
20
205.934037
11
114.051930
21
205.402038
0
LINE
8
Tête 1
10
114.051930
20
205.402038
11
114.389175
21
205.212043
0
LINE
8
Tête 1
10
114.389175
20
205.212043
11
114.925920
21
205.022048
0
LINE
8
Tête 1
10
114.925920
20
205.022048
11
116.065910
21
204.984048
0
LINE
8
Tête 1
10
116.065910
20
204.984048
11
115.609920
21
203.502058
0
LINE
8
Tête 1
10
115.609920
20
203.502058
11
113.823930
21
200.348088
0
LINE
8
Tête 1
10
113.823930
20
200.348088
11
113.776430
21
199.512092
0
LINE
8
Tête 1
10
113.776430
20
199.512092
11
113.738430
21
199.290030
0
LINE
8
Tête 1
10
113.738430
20
199.290030
11
113.557930
21
199.588088
0
LINE
8
Tête 1
10
113.557930
20
199.588088
11
112.484444
21
201.872823
0
LINE
8
Tête 1
10
112.484444
20
201.872823
11
111.581950
21
203.502058
0
LINE
8
Tête 1
10
111.581950
20
203.502058
11
110.365960
21
204.186048
0
LINE
8
Tête 1
10
110.365960
20
204.186048
11
109.985960
21
205.440038
0
LINE
8
Tête 1
10
109.985960
20
205.440038
11
110.028710
21
205.691787
0
LINE
8
Tête 1
10
110.028710
20
205.691787
11
109.985960
21
206.086034
0
LINE
8
Tête 1
10
109.985960
20
206.086034
11
108.655970
21
207.188024
0
LINE
8
Tête 1
10
108.655970
20
207.188024
11
107.363990
21
208.442014
0
LINE
8
Tête 1
10
107.363990
20
208.442014
11
106.299990
21
209.658004
0
LINE
8
Tête 1
10
106.299990
20
209.658004
11
106.376000
21
209.924000
0
LINE
8
Tête 1
10
142.153000
20
209.864000
11
139.037020
21
211.041990
0
LINE
8
Tête 1
10
139.037020
20
211.041990
11
136.149050
21
211.421988
0
LINE
8
Tête 1
10
136.149050
20
211.421988
11
133.603070
21
210.813993
0
LINE
8
Tête 1
10
133.603070
20
210.813993
11
132.881075
21
210.224998
0
LINE
8
Tête 1
10
132.881075
20
210.224998
11
132.159080
21
209.522003
0
LINE
8
Tête 1
10
132.159080
20
209.522003
11
131.741090
21
207.812013
0
LINE
8
Tête 1
10
131.741090
20
207.812013
11
131.703090
21
206.178033
0
LINE
8
Tête 1
10
131.703090
20
206.178033
11
132.049835
21
205.907286
0
LINE
8
Tête 1
10
132.049835
20
205.907286
11
132.653080
21
205.608039
0
LINE
8
Tête 1
10
132.653080
20
205.608039
11
134.287070
21
205.608039
0
LINE
8
Tête 1
10
134.287070
20
205.608039
11
134.135060
21
207.128029
0
LINE
8
Tête 1
10
134.135060
20
207.128029
11
134.287070
21
208.192019
0
LINE
8
Tête 1
10
134.287070
20
208.192019
11
135.189560
21
209.047009
0
LINE
8
Tête 1
10
135.189560
20
209.047009
11
135.804678
21
209.527943
0
LINE
8
Tête 1
10
135.804678
20
209.527943
11
136.149050
21
209.674009
0
LINE
8
Tête 1
10
136.149050
20
209.674009
11
138.011035
21
209.598010
0
LINE
8
Tête 1
10
138.011035
20
209.598010
11
139.759020
21
209.636009
0
LINE
8
Tête 1
10
139.759020
20
209.636009
11
140.129515
21
209.522009
0
LINE
8
Tête 1
10
140.129515
20
209.522009
11
140.557010
21
209.294012
0
LINE
8
Tête 1
10
140.557010
20
209.294012
11
140.319515
21
208.591018
0
LINE
8
Tête 1
10
140.319515
20
208.591018
11
140.025020
21
208.002022
0
LINE
8
Tête 1
10
140.025020
20
208.002022
11
139.616520
21
207.679025
0
LINE
8
Tête 1
10
139.616520
20
207.679025
11
139.037020
21
207.356028
0
LINE
8
Tête 1
10
139.037020
20
207.356028
11
137.365040
21
206.976030
0
LINE
8
Tête 1
10
137.365040
20
206.976030
11
135.313060
21
205.874040
0
LINE
8
Tête 1
10
135.313060
20
205.874040
11
134.477060
21
205.342044
0
LINE
8
Tête 1
10
134.477060
20
205.342044
11
134.139816
21
205.152044
0
LINE
8
Tête 1
10
134.139816
20
205.152044
11
133.603080
21
204.962044
0
LINE
8
Tête 1
10
133.603080
20
204.962044
11
132.463080
21
204.924044
0
LINE
8
Tête 1
10
132.463080
20
204.924044
11
132.919070
21
203.442054
0
LINE
8
Tête 1
10
132.919070
20
203.442054
11
134.705060
21
200.288084
0
LINE
8
Tête 1
10
134.705060
20
200.288084
11
134.752560
21
199.452096
0
LINE
8
Tête 1
10
134.752560
20
199.452096
11
134.790560
21
199.230036
0
LINE
8
Tête 1
10
134.790560
20
199.230036
11
134.971060
21
199.528094
0
LINE
8
Tête 1
10
134.971060
20
199.528094
11
136.044546
21
201.812820
0
LINE
8
Tête 1
10
136.044546
20
201.812820
11
136.947040
21
203.442054
0
LINE
8
Tête 1
10
136.947040
20
203.442054
11
138.163030
21
204.126054
0
LINE
8
Tête 1
10
138.163030
20
204.126054
11
138.543030
21
205.380044
0
LINE
8
Tête 1
10
138.543030
20
205.380044
11
138.500280
21
205.631792
0
LINE
8
Tête 1
10
138.500280
20
205.631792
11
138.543030
21
206.026037
0
LINE
8
Tête 1
10
138.543030
20
206.026037
11
139.873020
21
207.128027
0
LINE
8
Tête 1
10
139.873020
20
207.128027
11
141.165000
21
208.382017
0
LINE
8
Tête 1
10
141.165000
20
208.382017
11
142.229000
21
209.598007
0
LINE
8
Tête 1
10
142.229000
20
209.598007
11
142.153000
21
209.864000
0
LINE
8
Tête 1
10
126.449000
20
206.139000
11
127.594997
21
207.402030
0
LINE
8
Tête 1
10
127.594997
20
207.402030
11
128.371088
21
207.941331
0
LINE
8
Tête 1
10
128.371088
20
207.941331
11
129.076320
21
208.205630
0
LINE
8
Tête 1
10
129.076320
20
208.205630
11
129.094481
21
207.954519
0
LINE
8
Tête 1
10
129.094481
20
207.954519
11
128.975040
21
207.647272
0
LINE
8
Tête 1
10
128.975040
20
207.647272
11
128.602574
21
206.754792
0
LINE
8
Tête 1
10
128.602574
20
206.754792
11
128.371850
21
205.820672
0
LINE
8
Tête 1
10
128.371850
20
205.820672
11
128.340781
21
204.229461
0
LINE
8
Tête 1
10
128.340781
20
204.229461
11
128.111642
21
203.587101
0
LINE
8
Tête 1
10
128.111642
20
203.587101
11
127.526540
21
202.923872
0
LINE
8
Tête 1
10
127.526540
20
202.923872
11
126.506941
21
202.675829
0
LINE
8
Tête 1
10
126.506941
20
202.675829
11
126.064199
21
202.803199
0
LINE
8
Tête 1
10
126.064199
20
202.803199
11
125.774390
21
203.218452
0
LINE
8
Tête 1
10
125.774390
20
203.218452
11
125.708633
21
203.992525
0
LINE
8
Tête 1
10
125.708633
20
203.992525
11
125.848659
21
204.770002
0
LINE
8
Tête 1
10
125.848659
20
204.770002
11
126.449000
21
206.139002
0
LINE
8
Tête 1
10
126.449000
20
206.139002
11
126.449000
21
206.139000
0
LINE
8
Tête 1
10
121.878000
20
206.139000
11
120.731998
21
207.402030
0
LINE
8
Tête 1
10
120.731998
20
207.402030
11
119.955904
21
207.941331
0
LINE
8
Tête 1
10
119.955904
20
207.941331
11
119.250670
21
208.205630
0
LINE
8
Tête 1
10
119.250670
20
208.205630
11
119.232512
21
207.954519
0
LINE
8
Tête 1
10
119.232512
20
207.954519
11
119.351950
21
207.647272
0
LINE
8
Tête 1
10
119.351950
20
207.647272
11
119.724421
21
206.754792
0
LINE
8
Tête 1
10
119.724421
20
206.754792
11
119.955150
21
205.820672
0
LINE
8
Tête 1
10
119.955150
20
205.820672
11
119.986214
21
204.229461
0
LINE
8
Tête 1
10
119.986214
20
204.229461
11
120.215350
21
203.587101
0
LINE
8
Tête 1
10
120.215350
20
203.587101
11
120.800450
21
202.923872
0
LINE
8
Tête 1
10
120.800450
20
202.923872
11
121.820053
21
202.675829
0
LINE
8
Tête 1
10
121.820053
20
202.675829
11
122.262795
21
202.803199
0
LINE
8
Tête 1
10
122.262795
20
202.803199
11
122.552600
21
203.218452
0
LINE
8
Tête 1
10
122.552600
20
203.218452
11
122.618357
21
203.992525
0
LINE
8
Tête 1
10
122.618357
20
203.992525
11
122.478332
21
204.770002
0
LINE
8
Tête 1
10
122.478332
20
204.770002
11
121.878000
21
206.139002
0
LINE
8
Tête 1
10
121.878000
20
206.139002
11
121.878000
21
206.139000
0
LINE
8
Tête 1
10
116.788000
20
219.424000
11
118.729455
21
216.901097
0
LINE
8
Tête 1
10
118.729455
20
216.901097
11
119.752668
21
215.109472
0
LINE
8
Tête 1
10
119.752668
20
215.109472
11
120.253037
21
213.290132
0
LINE
8
Tête 1
10
120.253037
20
213.290132
11
120.625960
21
210.684080
0
LINE
8
Tête 1
10
120.625960
20
210.684080
11
121.157960
21
210.456082
0
LINE
8
Tête 1
10
121.157960
20
210.456082
11
121.233960
21
211.558072
0
LINE
8
Tête 1
10
121.233960
20
211.558072
11
120.973174
21
213.735369
0
LINE
8
Tête 1
10
120.973174
20
213.735369
11
120.303015
21
215.756654
0
LINE
8
Tête 1
10
120.303015
20
215.756654
11
119.319334
21
217.588134
0
LINE
8
Tête 1
10
119.319334
20
217.588134
11
118.117980
21
219.196012
0
LINE
8
Tête 1
10
118.117980
20
219.196012
11
116.788000
21
219.424000
0
LINE
8
Tête 1
10
131.012000
20
219.424000
11
129.070545
21
216.901097
0
LINE
8
Tête 1
10
129.070545
20
216.901097
11
128.047332
21
215.109472
0
LINE
8
Tête 1
10
128.047332
20
215.109472
11
127.546963
21
213.290132
0
LINE
8
Tête 1
10
127.546963
20
213.290132
11
127.174040
21
210.684080
0
LINE
8
Tête 1
10
127.174040
20
210.684080
11
126.642040
21
210.456082
0
LINE
8
Tête 1
10
126.642040
20
210.456082
11
126.566040
21
211.558072
0
LINE
8
Tête 1
10
126.566040
20
211.558072
11
126.826828
21
213.735369
0
LINE
8
Tête 1
10
126.826828
20
213.735369
11
127.496989
21
215.756654
0
LINE
8
Tête 1
10
127.496989
20
215.756654
11
128.480670
21
217.588134
0
LINE
8
Tête 1
10
128.480670
20
217.588134
11
129.682020
21
219.196012
0
LINE
8
Tête 1
10
129.682020
20
219.196012
11
131.012000
21
219.424000
0
LINE
8
Tête 1
10
148.642000
20
234.245000
11
148.115095
21
232.975137
0
LINE
8
Tête 1
10
148.115095
20
232.975137
11
147.853856
21
231.665349
0
LINE
8
Tête 1
10
147.853856
20
231.665349
11
147.802359
21
230.326314
0
LINE
8
Tête 1
10
147.802359
20
230.326314
11
147.904681
21
228.968707
0
LINE
8
Tête 1
10
147.904681
20
228.968707
11
148.347091
21
226.240487
0
LINE
8
Tête 1
10
148.347091
20
226.240487
11
148.733700
21
223.566100
0
LINE
8
Tête 1
10
148.733700
20
223.566100
11
149.626353
21
222.340214
0
LINE
8
Tête 1
10
149.626353
20
222.340214
11
150.684560
21
221.235529
0
LINE
8
Tête 1
10
150.684560
20
221.235529
11
153.137831
21
219.276263
0
LINE
8
Tête 1
10
153.137831
20
219.276263
11
155.773909
21
217.461307
0
LINE
8
Tête 1
10
155.773909
20
217.461307
11
158.273190
21
215.563670
0
LINE
8
Tête 1
10
158.273190
20
215.563670
11
160.268833
21
213.942188
0
LINE
8
Tête 1
10
160.268833
20
213.942188
11
162.022060
21
211.973034
0
LINE
8
Tête 1
10
162.022060
20
211.973034
11
162.728514
21
210.874437
0
LINE
8
Tête 1
10
162.728514
20
210.874437
11
163.279260
21
209.708550
0
LINE
8
Tête 1
10
163.279260
20
209.708550
11
163.642596
21
208.481917
0
LINE
8
Tête 1
10
163.642596
20
208.481917
11
163.786820
21
207.201080
0
LINE
8
Tête 1
10
163.786820
20
207.201080
11
163.895982
21
204.853429
0
LINE
8
Tête 1
10
163.895982
20
204.853429
11
163.726481
21
202.573397
0
LINE
8
Tête 1
10
163.726481
20
202.573397
11
163.318028
21
200.381812
0
LINE
8
Tête 1
10
163.318028
20
200.381812
11
162.710334
21
198.299499
0
LINE
8
Tête 1
10
162.710334
20
198.299499
11
161.943111
21
196.347285
0
LINE
8
Tête 1
10
161.943111
20
196.347285
11
161.056071
21
194.545997
0
LINE
8
Tête 1
10
161.056071
20
194.545997
11
159.081384
21
191.479505
0
LINE
8
Tête 1
10
159.081384
20
191.479505
11
157.103964
21
189.266635
0
LINE
8
Tête 1
10
157.103964
20
189.266635
11
156.213508
21
188.532374
0
LINE
8
Tête 1
10
156.213508
20
188.532374
11
155.441504
21
188.073999
0
LINE
8
Tête 1
10
155.441504
20
188.073999
11
154.827662
21
187.912335
0
LINE
8
Tête 1
10
154.827662
20
187.912335
11
154.411695
21
188.068210
0
LINE
8
Tête 1
10
154.411695
20
188.068210
11
154.233314
21
188.562449
0
LINE
8
Tête 1
10
154.233314
20
188.562449
11
154.332230
21
189.415880
0
LINE
8
Tête 1
10
154.332230
20
189.415880
11
154.330941
21
190.691128
0
LINE
8
Tête 1
10
154.330941
20
190.691128
11
154.181645
21
191.977171
0
LINE
8
Tête 1
10
154.181645
20
191.977171
11
153.580095
21
194.555045
0
LINE
8
Tête 1
10
153.580095
20
194.555045
11
152.809697
21
197.096311
0
LINE
8
Tête 1
10
152.809697
20
197.096311
11
152.152570
21
199.547780
0
LINE
8
Tête 1
10
152.152570
20
199.547780
11
153.524762
21
199.548093
0
LINE
8
Tête 1
10
153.524762
20
199.548093
11
154.624197
21
199.706292
0
LINE
8
Tête 1
10
154.624197
20
199.706292
11
155.854139
21
200.031692
0
LINE
8
Tête 1
10
155.854139
20
200.031692
11
157.105798
21
200.570673
0
LINE
8
Tête 1
10
157.105798
20
200.570673
11
158.270386
21
201.369613
0
LINE
8
Tête 1
10
158.270386
20
201.369613
11
159.239113
21
202.474893
0
LINE
8
Tête 1
10
159.239113
20
202.474893
11
159.903190
21
203.932890
0
LINE
8
Tête 1
10
159.903190
20
203.932890
11
160.099110
21
206.394295
0
LINE
8
Tête 1
10
160.099110
20
206.394295
11
160.163561
21
206.680646
0
LINE
8
Tête 1
10
160.163561
20
206.680646
11
160.254111
21
206.636102
0
LINE
8
Tête 1
10
160.254111
20
206.636102
11
160.553330
21
205.155740
0
LINE
8
Tête 1
10
160.553330
20
205.155740
11
160.439964
21
203.044776
0
LINE
8
Tête 1
10
160.439964
20
203.044776
11
160.170076
21
200.919812
0
LINE
8
Tête 1
10
160.170076
20
200.919812
11
159.842538
21
199.921646
0
LINE
8
Tête 1
10
159.842538
20
199.921646
11
159.315190
21
199.003458
0
LINE
8
Tête 1
10
159.315190
20
199.003458
11
158.534474
21
198.193074
0
LINE
8
Tête 1
10
158.534474
20
198.193074
11
157.446830
21
197.518320
0
LINE
8
Tête 1
10
157.446830
20
197.518320
11
155.786084
21
197.735642
0
LINE
8
Tête 1
10
155.786084
20
197.735642
11
154.056090
21
197.953767
0
LINE
8
Tête 1
10
154.056090
20
197.953767
11
153.454569
21
197.888103
0
LINE
8
Tête 1
10
153.454569
20
197.888103
11
153.183069
21
197.612606
0
LINE
8
Tête 1
10
153.183069
20
197.612606
11
153.357367
21
197.057266
0
LINE
8
Tête 1
10
153.357367
20
197.057266
11
154.093240
21
196.152070
0
LINE
8
Tête 1
10
154.093240
20
196.152070
11
155.031250
21
195.369801
0
LINE
8
Tête 1
10
155.031250
20
195.369801
11
156.098351
21
195.115842
0
LINE
8
Tête 1
10
156.098351
20
195.115842
11
157.236225
21
195.301136
0
LINE
8
Tête 1
10
157.236225
20
195.301136
11
158.386555
21
195.836624
0
LINE
8
Tête 1
10
158.386555
20
195.836624
11
159.491022
21
196.633246
0
LINE
8
Tête 1
10
159.491022
20
196.633246
11
160.491309
21
197.601943
0
LINE
8
Tête 1
10
160.491309
20
197.601943
11
161.329098
21
198.653658
0
LINE
8
Tête 1
10
161.329098
20
198.653658
11
161.946070
21
199.699330
0
LINE
8
Tête 1
10
161.946070
20
199.699330
11
162.558022
21
202.123845
0
LINE
8
Tête 1
10
162.558022
20
202.123845
11
162.679150
21
204.684451
0
LINE
8
Tête 1
10
162.679150
20
204.684451
11
162.374608
21
207.233794
0
LINE
8
Tête 1
10
162.374608
20
207.233794
11
161.709550
21
209.624520
0
LINE
8
Tête 1
10
161.709550
20
209.624520
11
160.540800
21
211.651202
0
LINE
8
Tête 1
10
160.540800
20
211.651202
11
159.176550
21
213.496932
0
LINE
8
Tête 1
10
159.176550
20
213.496932
11
158.378298
21
214.294007
0
LINE
8
Tête 1
10
158.378298
20
214.294007
11
157.479795
21
214.976322
0
LINE
8
Tête 1
10
157.479795
20
214.976322
11
156.463914
21
215.520704
0
LINE
8
Tête 1
10
156.463914
20
215.520704
11
155.313530
21
215.903980
0
LINE
8
Tête 1
10
155.313530
20
215.903980
11
153.186919
21
217.531500
0
LINE
8
Tête 1
10
153.186919
20
217.531500
11
150.923924
21
219.095344
0
LINE
8
Tête 1
10
150.923924
20
219.095344
11
149.878467
21
219.946813
0
LINE
8
Tête 1
10
149.878467
20
219.946813
11
148.963536
21
220.894476
0
LINE
8
Tête 1
10
148.963536
20
220.894476
11
148.234006
21
221.975701
0
LINE
8
Tête 1
10
148.234006
20
221.975701
11
147.744750
21
223.227860
0
LINE
8
Tête 1
10
147.744750
20
223.227860
11
147.451326
21
225.914303
0
LINE
8
Tête 1
10
147.451326
20
225.914303
11
147.042401
21
228.670439
0
LINE
8
Tête 1
10
147.042401
20
228.670439
11
146.951585
21
230.032319
0
LINE
8
Tête 1
10
146.951585
20
230.032319
11
147.020246
21
231.360835
0
LINE
8
Tête 1
10
147.020246
20
231.360835
11
147.311166
21
232.639059
0
LINE
8
Tête 1
10
147.311166
20
232.639059
11
147.887130
21
233.850060
0
LINE
8
Tête 1
10
147.887130
20
233.850060
11
148.228630
21
234.071540
0
LINE
8
Tête 1
10
148.228630
20
234.071540
11
148.642000
21
234.245000
0
LINE
8
Tête 1
10
99.320200
20
234.787000
11
99.847105
21
233.517137
0
LINE
8
Tête 1
10
99.847105
20
233.517137
11
100.108344
21
232.207349
0
LINE
8
Tête 1
10
100.108344
20
232.207349
11
100.159841
21
230.868314
0
LINE
8
Tête 1
10
100.159841
20
230.868314
11
100.057519
21
229.510708
0
LINE
8
Tête 1
10
100.057519
20
229.510708
11
99.615109
21
226.782487
0
LINE
8
Tête 1
10
99.615109
20
226.782487
11
99.228500
21
224.108100
0
LINE
8
Tête 1
10
99.228500
20
224.108100
11
98.335847
21
222.882214
0
LINE
8
Tête 1
10
98.335847
20
222.882214
11
97.277640
21
221.777529
0
LINE
8
Tête 1
10
97.277640
20
221.777529
11
94.824369
21
219.818263
0
LINE
8
Tête 1
10
94.824369
20
219.818263
11
92.188291
21
218.003307
0
LINE
8
Tête 1
10
92.188291
20
218.003307
11
89.689010
21
216.105670
0
LINE
8
Tête 1
10
89.689010
20
216.105670
11
87.693367
21
214.484188
0
LINE
8
Tête 1
10
87.693367
20
214.484188
11
85.940139
21
212.515034
0
LINE
8
Tête 1
10
85.940139
20
212.515034
11
85.233683
21
211.416437
0
LINE
8
Tête 1
10
85.233683
20
211.416437
11
84.682936
21
210.250550
0
LINE
8
Tête 1
10
84.682936
20
210.250550
11
84.319598
21
209.023917
0
LINE
8
Tête 1
10
84.319598
20
209.023917
11
84.175370
21
207.743080
0
LINE
8
Tête 1
10
84.175370
20
207.743080
11
84.066209
21
205.395429
0
LINE
8
Tête 1
10
84.066209
20
205.395429
11
84.235712
21
203.115397
0
LINE
8
Tête 1
10
84.235712
20
203.115397
11
84.644166
21
200.923812
0
LINE
8
Tête 1
10
84.644166
20
200.923812
11
85.251860
21
198.841499
0
LINE
8
Tête 1
10
85.251860
20
198.841499
11
86.019083
21
196.889285
0
LINE
8
Tête 1
10
86.019083
20
196.889285
11
86.906123
21
195.087997
0
LINE
8
Tête 1
10
86.906123
20
195.087997
11
88.880810
21
192.021505
0
LINE
8
Tête 1
10
88.880810
20
192.021505
11
90.858229
21
189.808635
0
LINE
8
Tête 1
10
90.858229
20
189.808635
11
91.748684
21
189.074374
0
LINE
8
Tête 1
10
91.748684
20
189.074374
11
92.520687
21
188.615999
0
LINE
8
Tête 1
10
92.520687
20
188.615999
11
93.134528
21
188.454335
0
LINE
8
Tête 1
10
93.134528
20
188.454335
11
93.550495
21
188.610210
0
LINE
8
Tête 1
10
93.550495
20
188.610210
11
93.728876
21
189.104449
0
LINE
8
Tête 1
10
93.728876
20
189.104449
11
93.629960
21
189.957880
0
LINE
8
Tête 1
10
93.629960
20
189.957880
11
93.631248
21
191.233132
0
LINE
8
Tête 1
10
93.631248
20
191.233132
11
93.780543
21
192.519175
0
LINE
8
Tête 1
10
93.780543
20
192.519175
11
94.382094
21
195.097040
0
LINE
8
Tête 1
10
94.382094
20
195.097040
11
95.152492
21
197.638275
0
LINE
8
Tête 1
10
95.152492
20
197.638275
11
95.809620
21
200.089680
0
LINE
8
Tête 1
10
95.809620
20
200.089680
11
94.437428
21
200.089997
0
LINE
8
Tête 1
10
94.437428
20
200.089997
11
93.337993
21
200.248197
0
LINE
8
Tête 1
10
93.337993
20
200.248197
11
92.108051
21
200.573596
0
LINE
8
Tête 1
10
92.108051
20
200.573596
11
90.856392
21
201.112576
0
LINE
8
Tête 1
10
90.856392
20
201.112576
11
89.691804
21
201.911515
0
LINE
8
Tête 1
10
89.691804
20
201.911515
11
88.723077
21
203.016793
0
LINE
8
Tête 1
10
88.723077
20
203.016793
11
88.059000
21
204.474790
0
LINE
8
Tête 1
10
88.059000
20
204.474790
11
87.863081
21
206.936200
0
LINE
8
Tête 1
10
87.863081
20
206.936200
11
87.798630
21
207.222553
0
LINE
8
Tête 1
10
87.798630
20
207.222553
11
87.708080
21
207.178010
0
LINE
8
Tête 1
10
87.708080
20
207.178010
11
87.408862
21
205.697650
0
LINE
8
Tête 1
10
87.408862
20
205.697650
11
87.522228
21
203.586684
0
LINE
8
Tête 1
10
87.522228
20
203.586684
11
87.792116
21
201.461719
0
LINE
8
Tête 1
10
87.792116
20
201.461719
11
88.119655
21
200.463552
0
LINE
8
Tête 1
10
88.119655
20
200.463552
11
88.647002
21
199.545364
0
LINE
8
Tête 1
10
88.647002
20
199.545364
11
89.427718
21
198.734981
0
LINE
8
Tête 1
10
89.427718
20
198.734981
11
90.515362
21
198.060230
0
LINE
8
Tête 1
10
90.515362
20
198.060230
11
92.176108
21
198.277552
0
LINE
8
Tête 1
10
92.176108
20
198.277552
11
93.906102
21
198.495676
0
LINE
8
Tête 1
10
93.906102
20
198.495676
11
94.507623
21
198.430011
0
LINE
8
Tête 1
10
94.507623
20
198.430011
11
94.779123
21
198.154512
0
LINE
8
Tête 1
10
94.779123
20
198.154512
11
94.604825
21
197.599169
0
LINE
8
Tête 1
10
94.604825
20
197.599169
11
93.868952
21
196.693970
0
LINE
8
Tête 1
10
93.868952
20
196.693970
11
92.930939
21
195.911701
0
LINE
8
Tête 1
10
92.930939
20
195.911701
11
91.863835
21
195.657744
0
LINE
8
Tête 1
10
91.863835
20
195.657744
11
90.725960
21
195.843039
0
LINE
8
Tête 1
10
90.725960
20
195.843039
11
89.575629
21
196.378527
0
LINE
8
Tête 1
10
89.575629
20
196.378527
11
88.471163
21
197.175150
0
LINE
8
Tête 1
10
88.471163
20
197.175150
11
87.470877
21
198.143847
0
LINE
8
Tête 1
10
87.470877
20
198.143847
11
86.633091
21
199.195561
0
LINE
8
Tête 1
10
86.633091
20
199.195561
11
86.016122
21
200.241230
0
LINE
8
Tête 1
10
86.016122
20
200.241230
11
85.404165
21
202.665750
0
LINE
8
Tête 1
10
85.404165
20
202.665750
11
85.283036
21
205.226356
0
LINE
8
Tête 1
10
85.283036
20
205.226356
11
85.587581
21
207.775700
0
LINE
8
Tête 1
10
85.587581
20
207.775700
11
86.252643
21
210.166430
0
LINE
8
Tête 1
10
86.252643
20
210.166430
11
87.421387
21
212.193112
0
LINE
8
Tête 1
10
87.421387
20
212.193112
11
88.785634
21
214.038842
0
LINE
8
Tête 1
10
88.785634
20
214.038842
11
89.583885
21
214.835917
0
LINE
8
Tête 1
10
89.583885
20
214.835917
11
90.482388
21
215.518232
0
LINE
8
Tête 1
10
90.482388
20
215.518232
11
91.498269
21
216.062614
0
LINE
8
Tête 1
10
91.498269
20
216.062614
11
92.648653
21
216.445890
0
LINE
8
Tête 1
10
92.648653
20
216.445890
11
94.775264
21
218.073410
0
LINE
8
Tête 1
10
94.775264
20
218.073410
11
97.038259
21
219.637254
0
LINE
8
Tête 1
10
97.038259
20
219.637254
11
98.083716
21
220.488723
0
LINE
8
Tête 1
10
98.083716
20
220.488723
11
98.998647
21
221.436386
0
LINE
8
Tête 1
10
98.998647
20
221.436386
11
99.728177
21
222.517611
0
LINE
8
Tête 1
10
99.728177
20
222.517611
11
100.217433
21
223.769770
0
LINE
8
Tête 1
10
100.217433
20
223.769770
11
100.510857
21
226.456213
0
LINE
8
Tête 1
10
100.510857
20
226.456213
11
100.919782
21
229.212349
0
LINE
8
Tête 1
10
100.919782
20
229.212349
11
101.010598
21
230.574229
0
LINE
8
Tête 1
10
101.010598
20
230.574229
11
100.941937
21
231.902745
0
LINE
8
Tête 1
10
100.941937
20
231.902745
11
100.651017
21
233.180969
0
LINE
8
Tête 1
10
100.651017
20
233.180969
11
100.075053
21
234.391970
0
LINE
8
Tête 1
10
100.075053
20
234.391970
11
99.733553
21
234.613450
0
LINE
8
Tête 1
10
99.733553
20
234.613450
11
99.320200
21
234.787000
0
LINE
8
Tête 1
10
149.502000
20
205.709000
11
149.648573
21
206.869584
0
LINE
8
Tête 1
10
149.648573
20
206.869584
11
150.017773
21
207.803769
0
LINE
8
Tête 1
10
150.017773
20
207.803769
11
150.709918
21
208.415999
0
LINE
8
Tête 1
10
150.709918
20
208.415999
11
151.825330
21
208.610720
0
LINE
8
Tête 1
10
151.825330
20
208.610720
11
152.618774
21
208.206478
0
LINE
8
Tête 1
10
152.618774
20
208.206478
11
152.894115
21
207.872727
0
LINE
8
Tête 1
10
152.894115
20
207.872727
11
152.955460
21
207.446820
0
LINE
8
Tête 1
10
152.955460
20
207.446820
11
152.546063
21
206.462648
0
LINE
8
Tête 1
10
152.546063
20
206.462648
11
151.885505
21
205.446764
0
LINE
8
Tête 1
10
151.885505
20
205.446764
11
151.168862
21
204.709007
0
LINE
8
Tête 1
10
151.168862
20
204.709007
11
150.850469
21
204.541252
0
LINE
8
Tête 1
10
150.850469
20
204.541252
11
150.591210
21
204.559220
0
LINE
8
Tête 1
10
150.591210
20
204.559220
11
149.911151
21
205.007166
0
LINE
8
Tête 1
10
149.911151
20
205.007166
11
149.502000
21
205.709010
0
LINE
8
Tête 1
10
149.502000
20
205.709010
11
149.502000
21
205.709000
0
LINE
8
Tête 1
10
97.481500
20
204.837000
11
96.320916
21
204.983572
0
LINE
8
Tête 1
10
96.320916
20
204.983572
11
95.386732
21
205.352769
0
LINE
8
Tête 1
10
95.386732
20
205.352769
11
94.774505
21
206.044914
0
LINE
8
Tête 1
10
94.774505
20
206.044914
11
94.579790
21
207.160330
0
LINE
8
Tête 1
10
94.579790
20
207.160330
11
94.984033
21
207.953772
0
LINE
8
Tête 1
10
94.984033
20
207.953772
11
95.317785
21
208.229114
0
LINE
8
Tête 1
10
95.317785
20
208.229114
11
95.743690
21
208.290460
0
LINE
8
Tête 1
10
95.743690
20
208.290460
11
96.727862
21
207.881063
0
LINE
8
Tête 1
10
96.727862
20
207.881063
11
97.743746
21
207.220505
0
LINE
8
Tête 1
10
97.743746
20
207.220505
11
98.481503
21
206.503861
0
LINE
8
Tête 1
10
98.481503
20
206.503861
11
98.649258
21
206.185469
0
LINE
8
Tête 1
10
98.649258
20
206.185469
11
98.631290
21
205.926210
0
LINE
8
Tête 1
10
98.631290
20
205.926210
11
98.183348
21
205.246151
0
LINE
8
Tête 1
10
98.183348
20
205.246151
11
97.481500
21
204.837000
0
LINE
8
Tête 1
10
97.481500
20
204.837000
11
97.481500
21
204.837000
0
LINE
8
Tête 1
10
151.920000
20
202.270000
11
153.418340
21
202.940908
0
LINE
8
Tête 1
10
153.418340
20
202.940908
11
154.217879
21
203.782958
0
LINE
8
Tête 1
10
154.217879
20
203.782958
11
155.198930
21
205.791020
0
LINE
8
Tête 1
10
155.198930
20
205.791020
11
155.845618
21
205.651279
0
LINE
8
Tête 1
10
155.845618
20
205.651279
11
156.373155
21
205.133171
0
LINE
8
Tête 1
10
156.373155
20
205.133171
11
156.730727
21
204.441477
0
LINE
8
Tête 1
10
156.730727
20
204.441477
11
156.867520
21
203.780980
0
LINE
8
Tête 1
10
156.867520
20
203.780980
11
156.537778
21
202.586904
0
LINE
8
Tête 1
10
156.537778
20
202.586904
11
155.961956
21
201.806621
0
LINE
8
Tête 1
10
155.961956
20
201.806621
11
155.221853
21
201.376835
0
LINE
8
Tête 1
10
155.221853
20
201.376835
11
154.399265
21
201.234250
0
LINE
8
Tête 1
10
154.399265
20
201.234250
11
153.575989
21
201.315570
0
LINE
8
Tête 1
10
153.575989
20
201.315570
11
152.833821
21
201.557499
0
LINE
8
Tête 1
10
152.833821
20
201.557499
11
152.254559
21
201.896741
0
LINE
8
Tête 1
10
152.254559
20
201.896741
11
151.920000
21
202.270000
0
LINE
8
Tête 1
10
151.920000
20
202.270000
11
151.920000
21
202.270000
0
LINE
8
Tête 1
10
92.149500
20
205.992000
11
92.820411
21
204.493655
0
LINE
8
Tête 1
10
92.820411
20
204.493655
11
93.662460
21
203.694118
0
LINE
8
Tête 1
10
93.662460
20
203.694118
11
95.670520
21
202.713070
0
LINE
8
Tête 1
10
95.670520
20
202.713070
11
95.530780
21
202.066378
0
LINE
8
Tête 1
10
95.530780
20
202.066378
11
95.012671
21
201.538841
0
LINE
8
Tête 1
10
95.012671
20
201.538841
11
94.320977
21
201.181271
0
LINE
8
Tête 1
10
94.320977
20
201.181271
11
93.660480
21
201.044480
0
LINE
8
Tête 1
10
93.660480
20
201.044480
11
92.466404
21
201.374222
0
LINE
8
Tête 1
10
92.466404
20
201.374222
11
91.686121
21
201.950044
0
LINE
8
Tête 1
10
91.686121
20
201.950044
11
91.256335
21
202.690147
0
LINE
8
Tête 1
10
91.256335
20
202.690147
11
91.113750
21
203.512735
0
LINE
8
Tête 1
10
91.113750
20
203.512735
11
91.195070
21
204.336011
0
LINE
8
Tête 1
10
91.195070
20
204.336011
11
91.436999
21
205.078179
0
LINE
8
Tête 1
10
91.436999
20
205.078179
11
91.776241
21
205.657441
0
LINE
8
Tête 1
10
91.776241
20
205.657441
11
92.149500
21
205.992000
0
LINE
8
Tête 1
10
92.149500
20
205.992000
11
92.149500
21
205.992000
0
LINE
8
Tête 1
10
141.441000
20
200.066000
11
141.091690
21
200.704161
0
LINE
8
Tête 1
10
141.091690
20
200.704161
11
140.742380
21
201.624450
0
LINE
8
Tête 1
10
140.742380
20
201.624450
11
140.628181
21
202.598482
0
LINE
8
Tête 1
10
140.628181
20
202.598482
11
140.634860
21
203.451600
0
LINE
8
Tête 1
10
140.634860
20
203.451600
11
141.709650
21
204.687610
0
LINE
8
Tête 1
10
141.709650
20
204.687610
11
143.106880
21
205.439970
0
LINE
8
Tête 1
10
143.106880
20
205.439970
11
144.719070
21
205.117530
0
LINE
8
Tête 1
10
144.719070
20
205.117530
11
145.793860
21
204.472650
0
LINE
8
Tête 1
10
145.793860
20
204.472650
11
146.707430
21
203.559080
0
LINE
8
Tête 1
10
146.707430
20
203.559080
11
147.036591
21
202.920922
0
LINE
8
Tête 1
10
147.036591
20
202.920922
11
147.406050
21
202.000630
0
LINE
8
Tête 1
10
147.406050
20
202.000630
11
147.533709
21
201.476670
0
LINE
8
Tête 1
10
147.533709
20
201.476670
11
147.459850
21
201.194540
0
LINE
8
Tête 1
10
147.459850
20
201.194540
11
145.740189
21
201.711797
0
LINE
8
Tête 1
10
145.740189
20
201.711797
11
144.181740
21
202.269330
0
LINE
8
Tête 1
10
144.181740
20
202.269330
11
143.053210
21
201.516970
0
LINE
8
Tête 1
10
143.053210
20
201.516970
11
142.200092
21
200.744466
0
LINE
8
Tête 1
10
142.200092
20
200.744466
11
141.709720
21
200.173480
0
LINE
8
Tête 1
10
141.709720
20
200.173480
11
141.441000
21
200.066000
0
LINE
8
Tête 1
10
144.128000
20
197.326000
11
144.564636
21
198.044767
0
LINE
8
Tête 1
10
144.564636
20
198.044767
11
145.202790
21
198.884450
0
LINE
8
Tête 1
10
145.202790
20
198.884450
11
145.686445
21
199.200173
0
LINE
8
Tête 1
10
145.686445
20
199.200173
11
146.034075
21
199.269867
0
LINE
8
Tête 1
10
146.034075
20
199.269867
11
146.492540
21
199.153150
0
LINE
8
Tête 1
10
146.492540
20
199.153150
11
148.964570
21
198.185830
0
LINE
8
Tête 1
10
148.964570
20
198.185830
11
149.528836
21
198.044752
0
LINE
8
Tête 1
10
149.528836
20
198.044752
11
149.735399
21
197.966660
0
LINE
8
Tête 1
10
149.735399
20
197.966660
11
149.931890
21
197.702180
0
LINE
8
Tête 1
10
149.931890
20
197.702180
11
150.428971
21
197.084171
0
LINE
8
Tête 1
10
150.428971
20
197.084171
11
150.845450
21
196.466170
0
LINE
8
Tête 1
10
150.845450
20
196.466170
11
151.275380
21
195.552590
0
LINE
8
Tête 1
10
151.275380
20
195.552590
11
151.423156
21
195.404809
0
LINE
8
Tête 1
10
151.423156
20
195.404809
11
151.411388
21
195.280535
0
LINE
8
Tête 1
10
151.411388
20
195.280535
11
151.167860
21
195.176410
0
LINE
8
Tête 1
10
151.167860
20
195.176410
11
149.273535
21
195.485419
0
LINE
8
Tête 1
10
149.273535
20
195.485419
11
147.782260
21
195.875030
0
LINE
8
Tête 1
10
147.782260
20
195.875030
11
147.379211
21
196.150447
0
LINE
8
Tête 1
10
147.379211
20
196.150447
11
146.653730
21
196.466170
0
LINE
8
Tête 1
10
146.653730
20
196.466170
11
145.041540
21
196.466170
0
LINE
8
Tête 1
10
145.041540
20
196.466170
11
144.128000
21
197.326000
0
LINE
8
Tête 1
10
138.378000
20
203.452000
11
138.121317
21
202.395593
0
LINE
8
Tête 1
10
138.121317
20
202.395593
11
138.196368
21
201.430496
0
LINE
8
Tête 1
10
138.196368
20
201.430496
11
138.520613
21
200.543537
0
LINE
8
Tête 1
10
138.520613
20
200.543537
11
139.011511
21
199.721545
0
LINE
8
Tête 1
10
139.011511
20
199.721545
11
140.163106
21
198.219774
0
LINE
8
Tête 1
10
140.163106
20
198.219774
11
140.658722
21
197.513652
0
LINE
8
Tête 1
10
140.658722
20
197.513652
11
140.990830
21
196.819810
0
LINE
8
Tête 1
10
140.990830
20
196.819810
11
140.297866
21
196.157813
0
LINE
8
Tête 1
10
140.297866
20
196.157813
11
140.209914
21
195.802796
0
LINE
8
Tête 1
10
140.209914
20
195.802796
11
140.265524
21
195.433088
0
LINE
8
Tête 1
10
140.265524
20
195.433088
11
140.721061
21
194.653576
0
LINE
8
Tête 1
10
140.721061
20
194.653576
11
141.491735
21
193.827215
0
LINE
8
Tête 1
10
141.491735
20
193.827215
11
143.287526
21
192.065709
0
LINE
8
Tête 1
10
143.287526
20
192.065709
11
143.967159
21
191.146444
0
LINE
8
Tête 1
10
143.967159
20
191.146444
11
144.270960
21
190.212090
0
LINE
8
Tête 1
10
144.270960
20
190.212090
11
144.530150
21
189.144404
0
LINE
8
Tête 1
10
144.530150
20
189.144404
11
144.552207
21
188.100960
0
LINE
8
Tête 1
10
144.552207
20
188.100960
11
144.376053
21
187.083284
0
LINE
8
Tête 1
10
144.376053
20
187.083284
11
144.040611
21
186.092901
0
LINE
8
Tête 1
10
144.040611
20
186.092901
11
143.047555
21
184.200120
0
LINE
8
Tête 1
10
143.047555
20
184.200120
11
141.884420
21
182.434820
0
LINE
8
Tête 1
10
141.884420
20
182.434820
11
141.454263
21
181.652877
0
LINE
8
Tête 1
10
141.454263
20
181.652877
11
141.306147
21
180.961578
0
LINE
8
Tête 1
10
141.306147
20
180.961578
11
141.397730
21
180.402239
0
LINE
8
Tête 1
10
141.397730
20
180.402239
11
141.686666
21
180.016180
0
LINE
8
Tête 1
10
141.686666
20
180.016180
11
142.130613
21
179.844718
0
LINE
8
Tête 1
10
142.130613
20
179.844718
11
142.687227
21
179.929172
0
LINE
8
Tête 1
10
142.687227
20
179.929172
11
143.314164
21
180.310860
0
LINE
8
Tête 1
10
143.314164
20
180.310860
11
143.969080
21
181.031100
0
LINE
8
Tête 1
10
143.969080
20
181.031100
11
144.850224
21
182.205739
0
LINE
8
Tête 1
10
144.850224
20
182.205739
11
145.412537
21
183.479042
0
LINE
8
Tête 1
10
145.412537
20
183.479042
11
145.744545
21
184.821802
0
LINE
8
Tête 1
10
145.744545
20
184.821802
11
145.934779
21
186.204816
0
LINE
8
Tête 1
10
145.934779
20
186.204816
11
146.244034
21
188.974783
0
LINE
8
Tête 1
10
146.244034
20
188.974783
11
146.540113
21
190.303325
0
LINE
8
Tête 1
10
146.540113
20
190.303325
11
147.048530
21
191.555300
0
LINE
8
Tête 1
10
147.048530
20
191.555300
11
148.210697
21
192.251989
0
LINE
8
Tête 1
10
148.210697
20
192.251989
11
149.525161
21
192.532734
0
LINE
8
Tête 1
10
149.525161
20
192.532734
11
150.825740
21
192.450572
0
LINE
8
Tête 1
10
150.825740
20
192.450572
11
151.946251
21
192.058539
0
LINE
8
Tête 1
10
151.946251
20
192.058539
11
152.720513
21
191.409669
0
LINE
8
Tête 1
10
152.720513
20
191.409669
11
152.925867
21
191.005494
0
LINE
8
Tête 1
10
152.925867
20
191.005494
11
152.982341
21
190.556999
0
LINE
8
Tête 1
10
152.982341
20
190.556999
11
152.869161
21
190.070812
0
LINE
8
Tête 1
10
152.869161
20
190.070812
11
152.565554
21
189.553564
0
LINE
8
Tête 1
10
152.565554
20
189.553564
11
151.303970
21
188.452400
0
LINE
8
Tête 1
10
151.303970
20
188.452400
11
150.642916
21
188.391939
0
LINE
8
Tête 1
10
150.642916
20
188.391939
11
150.049020
21
188.703961
0
LINE
8
Tête 1
10
150.049020
20
188.703961
11
149.071129
21
189.764309
0
LINE
8
Tête 1
10
149.071129
20
189.764309
11
148.691348
21
190.172060
0
LINE
8
Tête 1
10
148.691348
20
190.172060
11
148.387153
21
190.271147
0
LINE
8
Tête 1
10
148.387153
20
190.271147
11
148.160651
21
189.891282
0
LINE
8
Tête 1
10
148.160651
20
189.891282
11
148.013950
21
188.862180
0
LINE
8
Tête 1
10
148.013950
20
188.862180
11
147.630217
21
186.350051
0
LINE
8
Tête 1
10
147.630217
20
186.350051
11
147.062771
21
183.834298
0
LINE
8
Tête 1
10
147.062771
20
183.834298
11
146.111695
21
181.491205
0
LINE
8
Tête 1
10
146.111695
20
181.491205
11
145.429821
21
180.439496
0
LINE
8
Tête 1
10
145.429821
20
180.439496
11
144.577070
21
179.497060
0
LINE
8
Tête 1
10
144.577070
20
179.497060
11
143.399048
21
178.753923
0
LINE
8
Tête 1
10
143.399048
20
178.753923
11
142.331846
21
177.892319
0
LINE
8
Tête 1
10
142.331846
20
177.892319
11
140.442804
21
175.908483
0
LINE
8
Tête 1
10
140.442804
20
175.908483
11
137.036450
21
171.561730
0
LINE
8
Tête 1
10
137.036450
20
171.561730
11
134.088591
21
164.141229
0
LINE
8
Tête 1
10
134.088591
20
164.141229
11
131.328364
21
156.648315
0
LINE
8
Tête 1
10
131.328364
20
156.648315
11
128.810280
21
149.072384
0
LINE
8
Tête 1
10
128.810280
20
149.072384
11
126.588850
21
141.402830
0
LINE
8
Tête 1
10
126.588850
20
141.402830
11
126.601111
21
140.781396
0
LINE
8
Tête 1
10
126.601111
20
140.781396
11
126.480257
21
140.247018
0
LINE
8
Tête 1
10
126.480257
20
140.247018
11
126.061320
21
139.591224
0
LINE
8
Tête 1
10
126.061320
20
139.591224
11
125.874293
21
139.545705
0
LINE
8
Tête 1
10
125.874293
20
139.545705
11
125.776265
21
139.739038
0
LINE
8
Tête 1
10
125.776265
20
139.739038
11
126.069320
21
140.994050
0
LINE
8
Tête 1
10
126.069320
20
140.994050
11
127.394324
21
147.134673
0
LINE
8
Tête 1
10
127.394324
20
147.134673
11
128.182640
21
150.168374
0
LINE
8
Tête 1
10
128.182640
20
150.168374
11
129.331050
21
153.100350
0
LINE
8
Tête 1
10
129.331050
20
153.100350
11
130.277064
21
155.124101
0
LINE
8
Tête 1
10
130.277064
20
155.124101
11
131.028191
21
157.214365
0
LINE
8
Tête 1
10
131.028191
20
157.214365
11
132.200561
21
161.507283
0
LINE
8
Tête 1
10
132.200561
20
161.507283
11
133.357716
21
165.804809
0
LINE
8
Tête 1
10
133.357716
20
165.804809
11
134.089823
21
167.900834
0
LINE
8
Tête 1
10
134.089823
20
167.900834
11
135.009210
21
169.932650
0
LINE
8
Tête 1
10
135.009210
20
169.932650
11
136.712686
21
172.288291
0
LINE
8
Tête 1
10
136.712686
20
172.288291
11
138.275126
21
174.720480
0
LINE
8
Tête 1
10
138.275126
20
174.720480
11
139.510238
21
177.305354
0
LINE
8
Tête 1
10
139.510238
20
177.305354
11
139.946830
21
178.678841
0
LINE
8
Tête 1
10
139.946830
20
178.678841
11
140.231730
21
180.119050
0
LINE
8
Tête 1
10
140.231730
20
180.119050
11
140.608381
21
182.664710
0
LINE
8
Tête 1
10
140.608381
20
182.664710
11
140.764568
21
185.234350
0
LINE
8
Tête 1
10
140.764568
20
185.234350
11
140.870350
21
187.806240
0
LINE
8
Tête 1
10
140.870350
20
187.806240
11
141.095790
21
190.358650
0
LINE
8
Tête 1
10
141.095790
20
190.358650
11
140.627836
21
191.351663
0
LINE
8
Tête 1
10
140.627836
20
191.351663
11
140.021373
21
192.260474
0
LINE
8
Tête 1
10
140.021373
20
192.260474
11
138.596168
21
193.950834
0
LINE
8
Tête 1
10
138.596168
20
193.950834
11
137.226676
21
195.680425
0
LINE
8
Tête 1
10
137.226676
20
195.680425
11
136.689855
21
196.638273
0
LINE
8
Tête 1
10
136.689855
20
196.638273
11
136.319400
21
197.699940
0
LINE
8
Tête 1
10
136.319400
20
197.699940
11
136.570401
21
197.835948
0
LINE
8
Tête 1
10
136.570401
20
197.835948
11
137.045865
21
197.793526
0
LINE
8
Tête 1
10
137.045865
20
197.793526
11
138.247814
21
197.523150
0
LINE
8
Tête 1
10
138.247814
20
197.523150
11
138.763113
21
197.470076
0
LINE
8
Tête 1
10
138.763113
20
197.470076
11
139.080506
21
197.588332
0
LINE
8
Tête 1
10
139.080506
20
197.588332
11
139.094399
21
197.965356
0
LINE
8
Tête 1
10
139.094399
20
197.965356
11
138.699200
21
198.688590
0
LINE
8
Tête 1
10
138.699200
20
198.688590
11
138.138561
21
199.758400
0
LINE
8
Tête 1
10
138.138561
20
199.758400
11
137.927265
21
201.005784
0
LINE
8
Tête 1
10
137.927265
20
201.005784
11
138.021646
21
202.285416
0
LINE
8
Tête 1
10
138.021646
20
202.285416
11
138.378040
21
203.451970
0
LINE
8
Tête 1
10
138.378040
20
203.451970
11
138.378000
21
203.452000
0
LINE
8
Tête 1
10
141.333000
20
195.230000
11
141.924150
21
195.713660
0
LINE
8
Tête 1
10
141.924150
20
195.713660
11
142.354060
21
195.606190
0
LINE
8
Tête 1
10
142.354060
20
195.606190
11
142.676500
21
194.853830
0
LINE
8
Tête 1
10
142.676500
20
194.853830
11
141.924150
21
194.692610
0
LINE
8
Tête 1
10
141.924150
20
194.692610
11
141.333000
21
195.230000
0
LINE
8
Tête 1
10
143.913000
20
194.101000
11
144.504130
21
194.907100
0
LINE
8
Tête 1
10
144.504130
20
194.907100
11
145.686410
21
195.283280
0
LINE
8
Tête 1
10
145.686410
20
195.283280
11
145.981976
21
194.987710
0
LINE
8
Tête 1
10
145.981976
20
194.987710
11
146.139837
21
194.739162
0
LINE
8
Tête 1
10
146.139837
20
194.739162
11
146.116330
21
194.530920
0
LINE
8
Tête 1
10
146.116330
20
194.530920
11
145.149020
21
193.294910
0
LINE
8
Tête 1
10
145.149020
20
193.294910
11
144.342910
21
192.864990
0
LINE
8
Tête 1
10
144.342910
20
192.864990
11
143.913000
21
194.101000
0
LINE
8
Tête 1
10
137.625000
20
189.910000
11
138.025178
21
190.613757
0
LINE
8
Tête 1
10
138.025178
20
190.613757
11
138.466989
21
190.878345
0
LINE
8
Tête 1
10
138.466989
20
190.878345
11
138.971460
21
190.752805
0
LINE
8
Tête 1
10
138.971460
20
190.752805
11
139.559620
21
190.286180
0
LINE
8
Tête 1
10
139.559620
20
190.286180
11
139.303194
21
189.655540
0
LINE
8
Tête 1
10
139.303194
20
189.655540
11
138.646050
21
189.318870
0
LINE
8
Tête 1
10
138.646050
20
189.318870
11
138.104107
21
189.559381
0
LINE
8
Tête 1
10
138.104107
20
189.559381
11
137.625000
21
189.910000
0
LINE
8
Tête 1
10
137.625000
20
189.910000
11
137.625000
21
189.910000
0
LINE
8
Tête 1
10
134.240000
20
195.015000
11
134.858518
21
195.336400
0
LINE
8
Tête 1
10
134.858518
20
195.336400
11
135.153560
21
195.982310
0
LINE
8
Tête 1
10
135.153560
20
195.982310
11
135.543179
21
195.659870
0
LINE
8
Tête 1
10
135.543179
20
195.659870
11
135.788368
21
195.392849
0
LINE
8
Tête 1
10
135.788368
20
195.392849
11
135.852180
21
195.176210
0
LINE
8
Tête 1
10
135.852180
20
195.176210
11
135.436942
21
194.460255
0
LINE
8
Tête 1
10
135.436942
20
194.460255
11
134.616180
21
194.262640
0
LINE
8
Tête 1
10
134.616180
20
194.262640
11
134.240000
21
195.015000
0
LINE
8
Tête 1
10
113.335000
20
193.994000
11
112.839343
21
194.072378
0
LINE
8
Tête 1
10
112.839343
20
194.072378
11
112.508280
21
194.273170
0
LINE
8
Tête 1
10
112.508280
20
194.273170
11
112.045250
21
195.015060
0
LINE
8
Tête 1
10
112.045250
20
195.015060
11
112.572348
21
195.634159
0
LINE
8
Tête 1
10
112.572348
20
195.634159
11
113.281260
21
196.036110
0
LINE
8
Tête 1
10
113.281260
20
196.036110
11
113.756541
21
195.557661
0
LINE
8
Tête 1
10
113.756541
20
195.557661
11
113.842901
21
194.936406
0
LINE
8
Tête 1
10
113.842901
20
194.936406
11
113.661866
21
194.354475
0
LINE
8
Tête 1
10
113.661866
20
194.354475
11
113.334960
21
193.994000
0
LINE
8
Tête 1
10
113.334960
20
193.994000
11
113.335000
21
193.994000
0
LINE
8
Tête 1
10
110.326000
20
202.592000
11
110.144837
21
201.293414
0
LINE
8
Tête 1
10
110.144837
20
201.293414
11
109.777466
21
200.006767
0
LINE
8
Tête 1
10
109.777466
20
200.006767
11
108.814520
21
197.749180
0
LINE
8
Tête 1
10
108.814520
20
197.749180
11
110.298164
21
197.744549
0
LINE
8
Tête 1
10
110.298164
20
197.744549
11
111.521400
21
197.355803
0
LINE
8
Tête 1
10
111.521400
20
197.355803
11
111.834422
21
197.040734
0
LINE
8
Tête 1
10
111.834422
20
197.040734
11
111.841209
21
196.657654
0
LINE
8
Tête 1
10
111.841209
20
196.657654
11
111.461384
21
196.215903
0
LINE
8
Tête 1
10
111.461384
20
196.215903
11
110.614570
21
195.724820
0
LINE
8
Tête 1
10
110.614570
20
195.724820
11
109.684777
21
194.733145
0
LINE
8
Tête 1
10
109.684777
20
194.733145
11
108.859737
21
193.631939
0
LINE
8
Tête 1
10
108.859737
20
193.631939
11
107.242920
21
191.389050
0
LINE
8
Tête 1
10
107.242920
20
191.389050
11
106.866003
21
190.529543
0
LINE
8
Tête 1
10
106.866003
20
190.529543
11
106.689459
21
189.639837
0
LINE
8
Tête 1
10
106.689459
20
189.639837
11
106.789646
21
187.808821
0
LINE
8
Tête 1
10
106.789646
20
187.808821
11
107.247795
21
185.973982
0
LINE
8
Tête 1
10
107.247795
20
185.973982
11
107.768220
21
184.213300
0
LINE
8
Tête 1
10
107.768220
20
184.213300
11
109.136909
21
180.411444
0
LINE
8
Tête 1
10
109.136909
20
180.411444
11
109.654202
21
178.474702
0
LINE
8
Tête 1
10
109.654202
20
178.474702
11
109.867670
21
176.468310
0
LINE
8
Tête 1
10
109.867670
20
176.468310
11
109.875264
21
175.635883
0
LINE
8
Tête 1
10
109.875264
20
175.635883
11
109.647621
21
175.123491
0
LINE
8
Tête 1
10
109.647621
20
175.123491
11
109.250887
21
174.895050
0
LINE
8
Tête 1
10
109.250887
20
174.895050
11
108.751211
21
174.914478
0
LINE
8
Tête 1
10
108.751211
20
174.914478
11
108.214741
21
175.145691
0
LINE
8
Tête 1
10
108.214741
20
175.145691
11
107.707624
21
175.552608
0
LINE
8
Tête 1
10
107.707624
20
175.552608
11
107.296007
21
176.099145
0
LINE
8
Tête 1
10
107.296007
20
176.099145
11
107.046040
21
176.749220
0
LINE
8
Tête 1
10
107.046040
20
176.749220
11
105.834385
21
178.274682
0
LINE
8
Tête 1
10
105.834385
20
178.274682
11
104.472340
21
179.679966
0
LINE
8
Tête 1
10
104.472340
20
179.679966
11
103.174600
21
181.132435
0
LINE
8
Tête 1
10
103.174600
20
181.132435
11
102.155860
21
182.799450
0
LINE
8
Tête 1
10
102.155860
20
182.799450
11
101.160634
21
185.603293
0
LINE
8
Tête 1
10
101.160634
20
185.603293
11
100.584320
21
188.508580
0
LINE
8
Tête 1
10
100.584320
20
188.508580
11
100.428278
21
189.082006
0
LINE
8
Tête 1
10
100.428278
20
189.082006
11
100.156045
21
189.509921
0
LINE
8
Tête 1
10
100.156045
20
189.509921
11
99.810483
21
189.784620
0
LINE
8
Tête 1
10
99.810483
20
189.784620
11
99.434456
21
189.898398
0
LINE
8
Tête 1
10
99.434456
20
189.898398
11
99.070828
21
189.843548
0
LINE
8
Tête 1
10
99.070828
20
189.843548
11
98.762460
21
189.612365
0
LINE
8
Tête 1
10
98.762460
20
189.612365
11
98.552216
21
189.197145
0
LINE
8
Tête 1
10
98.552216
20
189.197145
11
98.482960
21
188.590180
0
LINE
8
Tête 1
10
98.482960
20
188.590180
11
97.815633
21
188.054925
0
LINE
8
Tête 1
10
97.815633
20
188.054925
11
97.215385
21
187.937750
0
LINE
8
Tête 1
10
97.215385
20
187.937750
11
96.694718
21
188.156818
0
LINE
8
Tête 1
10
96.694718
20
188.156818
11
96.266137
21
188.630290
0
LINE
8
Tête 1
10
96.266137
20
188.630290
11
95.735252
21
190.013100
0
LINE
8
Tête 1
10
95.735252
20
190.013100
11
95.722760
21
191.431480
0
LINE
8
Tête 1
10
95.722760
20
191.431480
11
95.890390
21
192.179508
0
LINE
8
Tête 1
10
95.890390
20
192.179508
11
96.249607
21
192.709794
0
LINE
8
Tête 1
10
96.249607
20
192.709794
11
96.756980
21
193.045341
0
LINE
8
Tête 1
10
96.756980
20
193.045341
11
97.369075
21
193.209151
0
LINE
8
Tête 1
10
97.369075
20
193.209151
11
98.733710
21
193.113573
0
LINE
8
Tête 1
10
98.733710
20
193.113573
11
99.996060
21
192.607080
0
LINE
8
Tête 1
10
99.996060
20
192.607080
11
100.623219
21
192.326377
0
LINE
8
Tête 1
10
100.623219
20
192.326377
11
101.140299
21
191.913291
0
LINE
8
Tête 1
10
101.140299
20
191.913291
11
101.897889
21
190.796543
0
LINE
8
Tête 1
10
101.897889
20
190.796543
11
102.376162
21
189.469978
0
LINE
8
Tête 1
10
102.376162
20
189.469978
11
102.682450
21
188.146740
0
LINE
8
Tête 1
10
102.682450
20
188.146740
11
102.416338
21
187.503582
0
LINE
8
Tête 1
10
102.416338
20
187.503582
11
102.372305
21
186.849952
0
LINE
8
Tête 1
10
102.372305
20
186.849952
11
102.752766
21
185.528765
0
LINE
8
Tête 1
10
102.752766
20
185.528765
11
103.428422
21
184.218153
0
LINE
8
Tête 1
10
103.428422
20
184.218153
11
104.003860
21
182.953090
0
LINE
8
Tête 1
10
104.003860
20
182.953090
11
105.912606
21
180.871258
0
LINE
8
Tête 1
10
105.912606
20
180.871258
11
106.365262
21
180.507955
0
LINE
8
Tête 1
10
106.365262
20
180.507955
11
106.712501
21
180.436243
0
LINE
8
Tête 1
10
106.712501
20
180.436243
11
106.906521
21
180.770483
0
LINE
8
Tête 1
10
106.906521
20
180.770483
11
106.899520
21
181.625040
0
LINE
8
Tête 1
10
106.899520
20
181.625040
11
106.821104
21
182.404203
0
LINE
8
Tête 1
10
106.821104
20
182.404203
11
106.523301
21
183.026459
0
LINE
8
Tête 1
10
106.523301
20
183.026459
11
105.595971
21
184.010000
0
LINE
8
Tête 1
10
105.595971
20
184.010000
11
104.770411
21
184.995169
0
LINE
8
Tête 1
10
104.770411
20
184.995169
11
104.599819
21
185.619459
0
LINE
8
Tête 1
10
104.599819
20
185.619459
11
104.699500
21
186.401470
0
LINE
8
Tête 1
10
104.699500
20
186.401470
11
104.288025
21
187.929701
0
LINE
8
Tête 1
10
104.288025
20
187.929701
11
104.109568
21
189.527911
0
LINE
8
Tête 1
10
104.109568
20
189.527911
11
104.238801
21
191.116321
0
LINE
8
Tête 1
10
104.238801
20
191.116321
11
104.750400
21
192.615150
0
LINE
8
Tête 1
10
104.750400
20
192.615150
11
105.201565
21
193.101045
0
LINE
8
Tête 1
10
105.201565
20
193.101045
11
105.791921
21
193.533626
0
LINE
8
Tête 1
10
105.791921
20
193.533626
11
107.088265
21
194.359289
0
LINE
8
Tête 1
10
107.088265
20
194.359289
11
107.643283
21
194.812591
0
LINE
8
Tête 1
10
107.643283
20
194.812591
11
108.035552
21
195.333022
0
LINE
8
Tête 1
10
108.035552
20
195.333022
11
108.189586
21
195.950691
0
LINE
8
Tête 1
10
108.189586
20
195.950691
11
108.029900
21
196.695710
0
LINE
8
Tête 1
10
108.029900
20
196.695710
11
107.428403
21
197.291118
0
LINE
8
Tête 1
10
107.428403
20
197.291118
11
107.304065
21
197.890089
0
LINE
8
Tête 1
10
107.304065
20
197.890089
11
107.525516
21
198.499943
0
LINE
8
Tête 1
10
107.525516
20
198.499943
11
107.961385
21
199.127999
0
LINE
8
Tête 1
10
107.961385
20
199.127999
11
108.950895
21
200.467997
0
LINE
8
Tête 1
10
108.950895
20
200.467997
11
109.241795
21
201.194578
0
LINE
8
Tête 1
10
109.241795
20
201.194578
11
109.221630
21
201.968640
0
LINE
8
Tête 1
10
109.221630
20
201.968640
11
109.317648
21
202.390941
0
LINE
8
Tête 1
10
109.317648
20
202.390941
11
109.566710
21
202.698409
0
LINE
8
Tête 1
10
109.566710
20
202.698409
11
109.919324
21
202.796827
0
LINE
8
Tête 1
10
109.919324
20
202.796827
11
110.326000
21
202.591980
0
LINE
8
Tête 1
10
110.326000
20
202.591980
11
110.326000
21
202.592000
0
LINE
8
Tête 1
10
101.985000
20
194.989000
11
103.044776
21
195.145282
0
LINE
8
Tête 1
10
103.044776
20
195.145282
11
103.726669
21
195.063470
0
LINE
8
Tête 1
10
103.726669
20
195.063470
11
104.115220
21
194.666223
0
LINE
8
Tête 1
10
104.115220
20
194.666223
11
104.294970
21
193.876200
0
LINE
8
Tête 1
10
104.294970
20
193.876200
11
104.235988
21
193.196391
0
LINE
8
Tête 1
10
104.235988
20
193.196391
11
104.136730
21
192.959930
0
LINE
8
Tête 1
10
104.136730
20
192.959930
11
102.302116
21
193.961933
0
LINE
8
Tête 1
10
102.302116
20
193.961933
11
101.702926
21
194.549901
0
LINE
8
Tête 1
10
101.702926
20
194.549901
11
101.702437
21
194.797755
0
LINE
8
Tête 1
10
101.702437
20
194.797755
11
101.985000
21
194.989000
0
LINE
8
Tête 1
10
101.985000
20
194.989000
11
101.985000
21
194.989000
0
LINE
8
Tête 1
10
108.614000
20
191.340000
11
108.838595
21
191.613873
0
LINE
8
Tête 1
10
108.838595
20
191.613873
11
109.038347
21
191.666135
0
LINE
8
Tête 1
10
109.038347
20
191.666135
11
109.224410
21
191.404100
0
LINE
8
Tête 1
10
109.224410
20
191.404100
11
109.465560
21
190.828861
0
LINE
8
Tête 1
10
109.465560
20
190.828861
11
109.966674
21
190.537774
0
LINE
8
Tête 1
10
109.966674
20
190.537774
11
110.412248
21
190.373292
0
LINE
8
Tête 1
10
110.412248
20
190.373292
11
110.486780
21
190.177870
0
LINE
8
Tête 1
10
110.486780
20
190.177870
11
110.052240
21
189.818461
0
LINE
8
Tête 1
10
110.052240
20
189.818461
11
109.599973
21
189.678734
0
LINE
8
Tête 1
10
109.599973
20
189.678734
11
108.789650
21
189.507760
0
LINE
8
Tête 1
10
108.789650
20
189.507760
11
108.244710
21
189.562939
0
LINE
8
Tête 1
10
108.244710
20
189.562939
11
107.996960
21
189.922777
0
LINE
8
Tête 1
10
107.996960
20
189.922777
11
108.101642
21
190.533172
0
LINE
8
Tête 1
10
108.101642
20
190.533172
11
108.614000
21
191.340020
0
LINE
8
Tête 1
10
108.614000
20
191.340020
11
108.614000
21
191.340000
0
LINE
8
Tête 1
10
118.032000
20
201.500000
11
118.312089
21
201.863639
0
LINE
8
Tête 1
10
118.312089
20
201.863639
11
118.672436
21
202.091016
0
LINE
8
Tête 1
10
118.672436
20
202.091016
11
119.515046
21
202.175116
0
LINE
8
Tête 1
10
119.515046
20
202.175116
11
120.322116
21
201.828560
0
LINE
8
Tête 1
10
120.322116
20
201.828560
11
120.855930
21
201.127610
0
LINE
8
Tête 1
10
120.855930
20
201.127610
11
121.257881
21
200.227736
0
LINE
8
Tête 1
10
121.257881
20
200.227736
11
121.534751
21
199.283476
0
LINE
8
Tête 1
10
121.534751
20
199.283476
11
121.812651
21
198.340238
0
LINE
8
Tête 1
10
121.812651
20
198.340238
11
122.217690
21
197.443430
0
LINE
8
Tête 1
10
122.217690
20
197.443430
11
122.663792
21
196.225897
0
LINE
8
Tête 1
10
122.663792
20
196.225897
11
122.962778
21
194.966726
0
LINE
8
Tête 1
10
122.962778
20
194.966726
11
123.179700
21
192.389890
0
LINE
8
Tête 1
10
123.179700
20
192.389890
11
123.243138
21
191.245153
0
LINE
8
Tête 1
10
123.243138
20
191.245153
11
123.154965
21
190.076979
0
LINE
8
Tête 1
10
123.154965
20
190.076979
11
122.826650
21
188.979130
0
LINE
8
Tête 1
10
122.826650
20
188.979130
11
122.169660
21
188.045370
0
LINE
8
Tête 1
10
122.169660
20
188.045370
11
121.724978
21
187.836717
0
LINE
8
Tête 1
10
121.724978
20
187.836717
11
121.306610
21
187.798624
0
LINE
8
Tête 1
10
121.306610
20
187.798624
11
120.550271
21
188.111921
0
LINE
8
Tête 1
10
120.550271
20
188.111921
11
119.903554
21
188.740858
0
LINE
8
Tête 1
10
119.903554
20
188.740858
11
119.369370
21
189.441030
0
LINE
8
Tête 1
10
119.369370
20
189.441030
11
118.832738
21
189.891584
0
LINE
8
Tête 1
10
118.832738
20
189.891584
11
118.319136
21
190.024768
0
LINE
8
Tête 1
10
118.319136
20
190.024768
11
117.853178
21
189.897426
0
LINE
8
Tête 1
10
117.853178
20
189.897426
11
117.459476
21
189.566405
0
LINE
8
Tête 1
10
117.459476
20
189.566405
11
116.987291
21
188.520710
0
LINE
8
Tête 1
10
116.987291
20
188.520710
11
116.958032
21
187.919727
0
LINE
8
Tête 1
10
116.958032
20
187.919727
11
117.099480
21
187.342450
0
LINE
8
Tête 1
10
117.099480
20
187.342450
11
117.534567
21
185.515630
0
LINE
8
Tête 1
10
117.534567
20
185.515630
11
118.260472
21
183.785965
0
LINE
8
Tête 1
10
118.260472
20
183.785965
11
119.854410
21
180.391480
0
LINE
8
Tête 1
10
119.854410
20
180.391480
11
120.305217
21
177.524744
0
LINE
8
Tête 1
10
120.305217
20
177.524744
11
120.879039
21
174.673336
0
LINE
8
Tête 1
10
120.879039
20
174.673336
11
121.341318
21
171.810426
0
LINE
8
Tête 1
10
121.341318
20
171.810426
11
121.457500
21
168.909180
0
LINE
8
Tête 1
10
121.457500
20
168.909180
11
121.586582
21
167.521298
0
LINE
8
Tête 1
10
121.586582
20
167.521298
11
121.633570
21
166.658610
0
LINE
8
Tête 1
10
121.633570
20
166.658610
11
121.072678
21
168.238130
0
LINE
8
Tête 1
10
121.072678
20
168.238130
11
120.340599
21
169.745901
0
LINE
8
Tête 1
10
120.340599
20
169.745901
11
118.852140
21
172.745450
0
LINE
8
Tête 1
10
118.852140
20
172.745450
11
118.384239
21
174.367050
0
LINE
8
Tête 1
10
118.384239
20
174.367050
11
117.736712
21
175.903687
0
LINE
8
Tête 1
10
117.736712
20
175.903687
11
116.057975
21
178.792644
0
LINE
8
Tête 1
10
116.057975
20
178.792644
11
114.126307
21
181.553453
0
LINE
8
Tête 1
10
114.126307
20
181.553453
11
112.252090
21
184.327250
0
LINE
8
Tête 1
10
112.252090
20
184.327250
11
110.930547
21
186.241096
0
LINE
8
Tête 1
10
110.930547
20
186.241096
11
110.302493
21
187.140117
0
LINE
8
Tête 1
10
110.302493
20
187.140117
11
110.048640
21
187.772270
0
LINE
8
Tête 1
10
110.048640
20
187.772270
11
111.933536
21
186.177224
0
LINE
8
Tête 1
10
111.933536
20
186.177224
11
113.533971
21
184.239753
0
LINE
8
Tête 1
10
113.533971
20
184.239753
11
114.914282
21
182.065618
0
LINE
8
Tête 1
10
114.914282
20
182.065618
11
116.138804
21
179.760577
0
LINE
8
Tête 1
10
116.138804
20
179.760577
11
118.377829
21
175.180823
0
LINE
8
Tête 1
10
118.377829
20
175.180823
11
119.521006
21
173.117629
0
LINE
8
Tête 1
10
119.521006
20
173.117629
11
120.765740
21
171.346570
0
LINE
8
Tête 1
10
120.765740
20
171.346570
11
120.593472
21
173.335754
0
LINE
8
Tête 1
10
120.593472
20
173.335754
11
120.278240
21
175.490230
0
LINE
8
Tête 1
10
120.278240
20
175.490230
11
119.924671
21
176.988401
0
LINE
8
Tête 1
10
119.924671
20
176.988401
11
119.436203
21
178.442848
0
LINE
8
Tête 1
10
119.436203
20
178.442848
11
118.235091
21
181.279250
0
LINE
8
Tête 1
10
118.235091
20
181.279250
11
117.035946
21
184.116792
0
LINE
8
Tête 1
10
117.035946
20
184.116792
11
116.549937
21
185.572664
0
LINE
8
Tête 1
10
116.549937
20
185.572664
11
116.199810
21
187.072830
0
LINE
8
Tête 1
10
116.199810
20
187.072830
11
116.130345
21
188.851451
0
LINE
8
Tête 1
10
116.130345
20
188.851451
11
116.373749
21
190.608769
0
LINE
8
Tête 1
10
116.373749
20
190.608769
11
116.908196
21
192.302357
0
LINE
8
Tête 1
10
116.908196
20
192.302357
11
117.711860
21
193.889790
0
LINE
8
Tête 1
10
117.711860
20
193.889790
11
117.924528
21
195.114816
0
LINE
8
Tête 1
10
117.924528
20
195.114816
11
117.950138
21
196.192335
0
LINE
8
Tête 1
10
117.950138
20
196.192335
11
117.715643
21
198.043436
0
LINE
8
Tête 1
10
117.715643
20
198.043436
11
117.559293
21
199.720270
0
LINE
8
Tête 1
10
117.559293
20
199.720270
11
117.682586
21
200.579953
0
LINE
8
Tête 1
10
117.682586
20
200.579953
11
118.032010
21
201.500010
0
LINE
8
Tête 1
10
118.032010
20
201.500010
11
118.032000
21
201.500000
0
LINE
8
Tête 1
10
130.563000
20
201.500000
11
130.282911
21
201.863636
0
LINE
8
Tête 1
10
130.282911
20
201.863636
11
129.922564
21
202.091011
0
LINE
8
Tête 1
10
129.922564
20
202.091011
11
129.079954
21
202.175109
0
LINE
8
Tête 1
10
129.079954
20
202.175109
11
128.272884
21
201.828555
0
LINE
8
Tête 1
10
128.272884
20
201.828555
11
127.739070
21
201.127610
0
LINE
8
Tête 1
10
127.739070
20
201.127610
11
127.337119
21
200.227730
0
LINE
8
Tête 1
10
127.337119
20
200.227730
11
127.060249
21
199.283469
0
LINE
8
Tête 1
10
127.060249
20
199.283469
11
126.782349
21
198.340233
0
LINE
8
Tête 1
10
126.782349
20
198.340233
11
126.377310
21
197.443430
0
LINE
8
Tête 1
10
126.377310
20
197.443430
11
125.931208
21
196.225891
0
LINE
8
Tête 1
10
125.931208
20
196.225891
11
125.632224
21
194.966718
0
LINE
8
Tête 1
10
125.632224
20
194.966718
11
125.415310
21
192.389880
0
LINE
8
Tête 1
10
125.415310
20
192.389880
11
125.351866
21
191.245147
0
LINE
8
Tête 1
10
125.351866
20
191.245147
11
125.440036
21
190.076973
0
LINE
8
Tête 1
10
125.440036
20
190.076973
11
125.768350
21
188.979122
0
LINE
8
Tête 1
10
125.768350
20
188.979122
11
126.425340
21
188.045360
0
LINE
8
Tête 1
10
126.425340
20
188.045360
11
126.870022
21
187.836707
0
LINE
8
Tête 1
10
126.870022
20
187.836707
11
127.288390
21
187.798614
0
LINE
8
Tête 1
10
127.288390
20
187.798614
11
128.044729
21
188.111911
0
LINE
8
Tête 1
10
128.044729
20
188.111911
11
128.691446
21
188.740848
0
LINE
8
Tête 1
10
128.691446
20
188.740848
11
129.225630
21
189.441020
0
LINE
8
Tête 1
10
129.225630
20
189.441020
11
129.762262
21
189.891574
0
LINE
8
Tête 1
10
129.762262
20
189.891574
11
130.275864
21
190.024758
0
LINE
8
Tête 1
10
130.275864
20
190.024758
11
130.741822
21
189.897416
0
LINE
8
Tête 1
10
130.741822
20
189.897416
11
131.135524
21
189.566395
0
LINE
8
Tête 1
10
131.135524
20
189.566395
11
131.607709
21
188.520700
0
LINE
8
Tête 1
10
131.607709
20
188.520700
11
131.636968
21
187.919717
0
LINE
8
Tête 1
10
131.636968
20
187.919717
11
131.495520
21
187.342440
0
LINE
8
Tête 1
10
131.495520
20
187.342440
11
131.060437
21
185.515620
0
LINE
8
Tête 1
10
131.060437
20
185.515620
11
130.334531
21
183.785955
0
LINE
8
Tête 1
10
130.334531
20
183.785955
11
128.740590
21
180.391470
0
LINE
8
Tête 1
10
128.740590
20
180.391470
11
128.289783
21
177.524734
0
LINE
8
Tête 1
10
128.289783
20
177.524734
11
127.715961
21
174.673326
0
LINE
8
Tête 1
10
127.715961
20
174.673326
11
127.253682
21
171.810416
0
LINE
8
Tête 1
10
127.253682
20
171.810416
11
127.137500
21
168.909170
0
LINE
8
Tête 1
10
127.137500
20
168.909170
11
127.008417
21
167.521287
0
LINE
8
Tête 1
10
127.008417
20
167.521287
11
126.961430
21
166.658600
0
LINE
8
Tête 1
10
126.961430
20
166.658600
11
127.522322
21
168.238120
0
LINE
8
Tête 1
10
127.522322
20
168.238120
11
128.254401
21
169.745891
0
LINE
8
Tête 1
10
128.254401
20
169.745891
11
129.742860
21
172.745440
0
LINE
8
Tête 1
10
129.742860
20
172.745440
11
130.210761
21
174.367040
0
LINE
8
Tête 1
10
130.210761
20
174.367040
11
130.858288
21
175.903677
0
LINE
8
Tête 1
10
130.858288
20
175.903677
11
132.537026
21
178.792634
0
LINE
8
Tête 1
10
132.537026
20
178.792634
11
134.468697
21
181.553443
0
LINE
8
Tête 1
10
134.468697
20
181.553443
11
136.342920
21
184.327240
0
LINE
8
Tête 1
10
136.342920
20
184.327240
11
137.664455
21
186.241086
0
LINE
8
Tête 1
10
137.664455
20
186.241086
11
138.292511
21
187.140107
0
LINE
8
Tête 1
10
138.292511
20
187.140107
11
138.546370
21
187.772260
0
LINE
8
Tête 1
10
138.546370
20
187.772260
11
136.661471
21
186.177214
0
LINE
8
Tête 1
10
136.661471
20
186.177214
11
135.061034
21
184.239743
0
LINE
8
Tête 1
10
135.061034
20
184.239743
11
133.680724
21
182.065608
0
LINE
8
Tête 1
10
133.680724
20
182.065608
11
132.456203
21
179.760567
0
LINE
8
Tête 1
10
132.456203
20
179.760567
11
130.217179
21
175.180813
0
LINE
8
Tête 1
10
130.217179
20
175.180813
11
129.074004
21
173.117619
0
LINE
8
Tête 1
10
129.074004
20
173.117619
11
127.829270
21
171.346560
0
LINE
8
Tête 1
10
127.829270
20
171.346560
11
128.001537
21
173.335744
0
LINE
8
Tête 1
10
128.001537
20
173.335744
11
128.316770
21
175.490220
0
LINE
8
Tête 1
10
128.316770
20
175.490220
11
128.670339
21
176.988391
0
LINE
8
Tête 1
10
128.670339
20
176.988391
11
129.158807
21
178.442838
0
LINE
8
Tête 1
10
129.158807
20
178.442838
11
130.359919
21
181.279240
0
LINE
8
Tête 1
10
130.359919
20
181.279240
11
131.559064
21
184.116782
0
LINE
8
Tête 1
10
131.559064
20
184.116782
11
132.045073
21
185.572654
0
LINE
8
Tête 1
10
132.045073
20
185.572654
11
132.395200
21
187.072820
0
LINE
8
Tête 1
10
132.395200
20
187.072820
11
132.464665
21
188.851441
0
LINE
8
Tête 1
10
132.464665
20
188.851441
11
132.221261
21
190.608759
0
LINE
8
Tête 1
10
132.221261
20
190.608759
11
131.686814
21
192.302347
0
LINE
8
Tête 1
10
131.686814
20
192.302347
11
130.883150
21
193.889780
0
LINE
8
Tête 1
10
130.883150
20
193.889780
11
130.670482
21
195.114809
0
LINE
8
Tête 1
10
130.670482
20
195.114809
11
130.644872
21
196.192330
0
LINE
8
Tête 1
10
130.644872
20
196.192330
11
130.879368
21
198.043435
0
LINE
8
Tête 1
10
130.879368
20
198.043435
11
131.035717
21
199.720270
0
LINE
8
Tête 1
10
131.035717
20
199.720270
11
130.912424
21
200.579953
0
LINE
8
Tête 1
10
130.912424
20
200.579953
11
130.563000
21
201.500010
0
LINE
8
Tête 1
10
130.563000
20
201.500010
11
130.563000
21
201.500000
0
LINE
8
Tête 1
10
109.735000
20
182.708000
11
113.926690
21
177.656480
0
LINE
8
Tête 1
10
113.926690
20
177.656480
11
118.225860
21
169.595530
0
LINE
8
Tête 1
10
118.225860
20
169.595530
11
120.160480
21
162.824340
0
LINE
8
Tête 1
10
120.160480
20
162.824340
11
121.772680
21
157.450380
0
LINE
8
Tête 1
10
121.772680
20
157.450380
11
121.880200
21
154.763390
0
LINE
8
Tête 1
10
121.880200
20
154.763390
11
121.020000
21
154.764000
0
LINE
8
Tête 1
10
121.020000
20
154.764000
11
119.515290
21
160.245440
0
LINE
8
Tête 1
10
119.515290
20
160.245440
11
118.010580
21
167.446560
0
LINE
8
Tête 1
10
118.010580
20
167.446560
11
116.398390
21
171.315820
0
LINE
8
Tête 1
10
116.398390
20
171.315820
11
113.818890
21
175.507510
0
LINE
8
Tête 1
10
113.818890
20
175.507510
11
111.454340
21
178.839370
0
LINE
8
Tête 1
10
111.454340
20
178.839370
11
110.164590
21
180.988950
0
LINE
8
Tête 1
10
110.164590
20
180.988950
11
109.519720
21
183.138540
0
LINE
8
Tête 1
10
109.519720
20
183.138540
11
109.735000
21
182.708000
0
LINE
8
Tête 1
10
122.740000
20
181.204000
11
119.945540
21
184.804570
0
LINE
8
Tête 1
10
119.945540
20
184.804570
11
119.938805
21
185.516620
0
LINE
8
Tête 1
10
119.938805
20
185.516620
11
120.053060
21
186.470500
0
LINE
8
Tête 1
10
120.053060
20
186.470500
11
120.912890
21
187.706500
0
LINE
8
Tête 1
10
120.912890
20
187.706500
11
121.551047
21
187.424366
0
LINE
8
Tête 1
10
121.551047
20
187.424366
11
122.310120
21
186.900410
0
LINE
8
Tête 1
10
122.310120
20
186.900410
11
123.223700
21
183.944730
0
LINE
8
Tête 1
10
123.223700
20
183.944730
11
124.029790
21
179.000690
0
LINE
8
Tête 1
10
124.029790
20
179.000690
11
123.922270
21
173.143060
0
LINE
8
Tête 1
10
123.922270
20
173.143060
11
124.782100
21
154.710360
0
LINE
8
Tête 1
10
124.782100
20
154.710360
11
123.761050
21
153.904260
0
LINE
8
Tête 1
10
123.761050
20
153.904260
11
123.250520
21
154.461813
0
LINE
8
Tête 1
10
123.250520
20
154.461813
11
122.944874
21
154.879137
0
LINE
8
Tête 1
10
122.944874
20
154.879137
11
122.901210
21
155.140280
0
LINE
8
Tête 1
10
122.901210
20
155.140280
11
123.384865
21
157.807107
0
LINE
8
Tête 1
10
123.384865
20
157.807107
11
123.707300
21
160.353020
0
LINE
8
Tête 1
10
123.707300
20
160.353020
11
123.169900
21
180.182920
0
LINE
8
Tête 1
10
123.169900
20
180.182920
11
123.116100
21
181.472680
0
LINE
8
Tête 1
10
123.116100
20
181.472680
11
123.008580
21
183.084860
0
LINE
8
Tête 1
10
123.008580
20
183.084860
11
122.148740
21
184.697050
0
LINE
8
Tête 1
10
122.148740
20
184.697050
11
122.041220
21
184.374610
0
LINE
8
Tête 1
10
122.041220
20
184.374610
11
122.740000
21
181.204000
0
LINE
8
Tête 1
10
126.067000
20
181.392000
11
128.861460
21
184.992570
0
LINE
8
Tête 1
10
128.861460
20
184.992570
11
128.868195
21
185.704620
0
LINE
8
Tête 1
10
128.868195
20
185.704620
11
128.753940
21
186.658500
0
LINE
8
Tête 1
10
128.753940
20
186.658500
11
127.894120
21
187.894500
0
LINE
8
Tête 1
10
127.894120
20
187.894500
11
127.255958
21
187.612366
0
LINE
8
Tête 1
10
127.255958
20
187.612366
11
126.496880
21
187.088410
0
LINE
8
Tête 1
10
126.496880
20
187.088410
11
125.583300
21
184.132730
0
LINE
8
Tête 1
10
125.583300
20
184.132730
11
124.777210
21
179.188690
0
LINE
8
Tête 1
10
124.777210
20
179.188690
11
124.884730
21
173.331060
0
LINE
8
Tête 1
10
124.884730
20
173.331060
11
124.024910
21
154.898360
0
LINE
8
Tête 1
10
124.024910
20
154.898360
11
125.045950
21
154.092260
0
LINE
8
Tête 1
10
125.045950
20
154.092260
11
125.556480
21
154.649812
0
LINE
8
Tête 1
10
125.556480
20
154.649812
11
125.862126
21
155.067137
0
LINE
8
Tête 1
10
125.862126
20
155.067137
11
125.905790
21
155.328280
0
LINE
8
Tête 1
10
125.905790
20
155.328280
11
125.422139
21
157.995107
0
LINE
8
Tête 1
10
125.422139
20
157.995107
11
125.099700
21
160.541020
0
LINE
8
Tête 1
10
125.099700
20
160.541020
11
125.637100
21
180.370920
0
LINE
8
Tête 1
10
125.637100
20
180.370920
11
125.690900
21
181.660670
0
LINE
8
Tête 1
10
125.690900
20
181.660670
11
125.798420
21
183.272850
0
LINE
8
Tête 1
10
125.798420
20
183.272850
11
126.658260
21
184.885040
0
LINE
8
Tête 1
10
126.658260
20
184.885040
11
126.765780
21
184.562600
0
LINE
8
Tête 1
10
126.765780
20
184.562600
11
126.067000
21
181.392000
0
LINE
8
Tête 1
10
168.203000
20
183.568000
11
167.696307
21
183.840945
0
LINE
8
Tête 1
10
167.696307
20
183.840945
11
167.189920
21
183.910156
0
LINE
8
Tête 1
10
167.189920
20
183.910156
11
166.711757
21
183.804526
0
LINE
8
Tête 1
10
166.711757
20
183.804526
11
166.289741
21
183.552945
0
LINE
8
Tête 1
10
166.289741
20
183.552945
11
165.725827
21
182.727501
0
LINE
8
Tête 1
10
165.725827
20
182.727501
11
165.639770
21
182.211422
0
LINE
8
Tête 1
10
165.639770
20
182.211422
11
165.721540
21
181.664960
0
LINE
8
Tête 1
10
165.721540
20
181.664960
11
166.244983
21
181.507244
0
LINE
8
Tête 1
10
166.244983
20
181.507244
11
166.759851
21
181.560372
0
LINE
8
Tête 1
10
166.759851
20
181.560372
11
167.735196
21
182.126595
0
LINE
8
Tête 1
10
167.735196
20
182.126595
11
168.590244
21
183.018498
0
LINE
8
Tête 1
10
168.590244
20
183.018498
11
169.267660
21
183.890950
0
LINE
8
Tête 1
10
169.267660
20
183.890950
11
169.733784
21
185.169208
0
LINE
8
Tête 1
10
169.733784
20
185.169208
11
169.862325
21
186.525828
0
LINE
8
Tête 1
10
169.862325
20
186.525828
11
170.010441
21
187.874628
0
LINE
8
Tête 1
10
170.010441
20
187.874628
11
170.203452
21
188.519165
0
LINE
8
Tête 1
10
170.203452
20
188.519165
11
170.535290
21
189.129430
0
LINE
8
Tête 1
10
170.535290
20
189.129430
11
171.531228
21
190.989066
0
LINE
8
Tête 1
10
171.531228
20
190.989066
11
172.620988
21
192.802729
0
LINE
8
Tête 1
10
172.620988
20
192.802729
11
173.635211
21
194.651024
0
LINE
8
Tête 1
10
173.635211
20
194.651024
11
174.404540
21
196.614560
0
LINE
8
Tête 1
10
174.404540
20
196.614560
11
174.712562
21
197.273658
0
LINE
8
Tête 1
10
174.712562
20
197.273658
11
174.567386
21
197.747509
0
LINE
8
Tête 1
10
174.567386
20
197.747509
11
174.134685
21
197.853423
0
LINE
8
Tête 1
10
174.134685
20
197.853423
11
173.580130
21
197.408710
0
LINE
8
Tête 1
10
173.580130
20
197.408710
11
172.561731
21
196.548460
0
LINE
8
Tête 1
10
172.561731
20
196.548460
11
171.713809
21
195.485575
0
LINE
8
Tête 1
10
171.713809
20
195.485575
11
171.169709
21
194.269983
0
LINE
8
Tête 1
10
171.169709
20
194.269983
11
171.062780
21
192.951610
0
LINE
8
Tête 1
10
171.062780
20
192.951610
11
170.710942
21
191.520072
0
LINE
8
Tête 1
10
170.710942
20
191.520072
11
170.011425
21
190.221629
0
LINE
8
Tête 1
10
170.011425
20
190.221629
11
169.233623
21
188.947348
0
LINE
8
Tête 1
10
169.233623
20
188.947348
11
168.646930
21
187.588300
0
LINE
8
Tête 1
10
168.646930
20
187.588300
11
168.341331
21
186.608415
0
LINE
8
Tête 1
10
168.341331
20
186.608415
11
168.186709
21
185.606249
0
LINE
8
Tête 1
10
168.186709
20
185.606249
11
168.203000
21
183.568000
0
LINE
8
Tête 1
10
168.203000
20
183.568000
11
168.203000
21
183.568000
0
LINE
8
Tête 1
10
121.880000
20
139.932000
11
121.787036
21
143.162675
0
LINE
8
Tête 1
10
121.787036
20
143.162675
11
121.374218
21
146.367571
0
LINE
8
Tête 1
10
121.374218
20
146.367571
11
120.525705
21
149.467732
0
LINE
8
Tête 1
10
120.525705
20
149.467732
11
119.901864
21
150.953862
0
LINE
8
Tête 1
10
119.901864
20
150.953862
11
119.125660
21
152.384200
0
LINE
8
Tête 1
10
119.125660
20
152.384200
11
117.619897
21
155.136891
0
LINE
8
Tête 1
10
117.619897
20
155.136891
11
116.287571
21
157.975427
0
LINE
8
Tête 1
10
116.287571
20
157.975427
11
115.134572
21
160.890775
0
LINE
8
Tête 1
10
115.134572
20
160.890775
11
114.166790
21
163.873900
0
LINE
8
Tête 1
10
114.166790
20
163.873900
11
113.074045
21
167.908360
0
LINE
8
Tête 1
10
113.074045
20
167.908360
11
112.163910
21
171.976780
0
LINE
8
Tête 1
10
112.163910
20
171.976780
11
111.200627
21
174.607177
0
LINE
8
Tête 1
10
111.200627
20
174.607177
11
111.084138
21
175.161749
0
LINE
8
Tête 1
10
111.084138
20
175.161749
11
111.128570
21
175.446516
0
LINE
8
Tête 1
10
111.128570
20
175.446516
11
111.389519
21
175.347182
0
LINE
8
Tête 1
10
111.389519
20
175.347182
11
111.922580
21
174.749450
0
LINE
8
Tête 1
10
111.922580
20
174.749450
11
112.860685
21
170.855031
0
LINE
8
Tête 1
10
112.860685
20
170.855031
11
114.105570
21
167.035830
0
LINE
8
Tête 1
10
114.105570
20
167.035830
11
115.650742
21
163.215889
0
LINE
8
Tête 1
10
115.650742
20
163.215889
11
117.378630
21
159.451560
0
LINE
8
Tête 1
10
117.378630
20
159.451560
11
119.648912
21
153.452973
0
LINE
8
Tête 1
10
119.648912
20
153.452973
11
122.079680
21
147.521360
0
LINE
8
Tête 1
10
122.079680
20
147.521360
11
122.802634
21
145.659396
0
LINE
8
Tête 1
10
122.802634
20
145.659396
11
123.023071
21
143.694059
0
LINE
8
Tête 1
10
123.023071
20
143.694059
11
122.721893
21
141.745032
0
LINE
8
Tête 1
10
122.721893
20
141.745032
11
121.880000
21
139.932000
0
LINE
8
Tête 1
10
121.880000
20
139.932000
11
121.880000
21
139.932000
0
LINE
8
Tête 1
10
127.576000
20
155.409000
11
127.857825
21
156.959145
0
LINE
8
Tête 1
10
127.857825
20
156.959145
11
128.301609
21
158.473727
0
LINE
8
Tête 1
10
128.301609
20
158.473727
11
128.754270
21
159.987803
0
LINE
8
Tête 1
10
128.754270
20
159.987803
11
129.062730
21
161.536430
0
LINE
8
Tête 1
10
129.062730
20
161.536430
11
131.040291
21
166.706723
0
LINE
8
Tête 1
10
131.040291
20
166.706723
11
132.721430
21
171.979930
0
LINE
8
Tête 1
10
132.721430
20
171.979930
11
133.767668
21
173.771648
0
LINE
8
Tête 1
10
133.767668
20
173.771648
11
134.978630
21
175.458309
0
LINE
8
Tête 1
10
134.978630
20
175.458309
11
136.216780
21
177.129023
0
LINE
8
Tête 1
10
136.216780
20
177.129023
11
137.344580
21
178.872900
0
LINE
8
Tête 1
10
137.344580
20
178.872900
11
137.925179
21
179.834326
0
LINE
8
Tête 1
10
137.925179
20
179.834326
11
138.486611
21
180.959047
0
LINE
8
Tête 1
10
138.486611
20
180.959047
11
138.584421
21
181.424478
0
LINE
8
Tête 1
10
138.584421
20
181.424478
11
138.466578
21
181.740933
0
LINE
8
Tête 1
10
138.466578
20
181.740933
11
138.062793
21
181.845146
0
LINE
8
Tête 1
10
138.062793
20
181.845146
11
137.302780
21
181.673850
0
LINE
8
Tête 1
10
137.302780
20
181.673850
11
136.395287
21
180.668680
0
LINE
8
Tête 1
10
136.395287
20
180.668680
11
135.792687
21
179.441784
0
LINE
8
Tête 1
10
135.792687
20
179.441784
11
135.306394
21
178.133024
0
LINE
8
Tête 1
10
135.306394
20
178.133024
11
134.747820
21
176.882260
0
LINE
8
Tête 1
10
134.747820
20
176.882260
11
134.091190
21
175.308417
0
LINE
8
Tête 1
10
134.091190
20
175.308417
11
133.220425
21
173.856909
0
LINE
8
Tête 1
10
133.220425
20
173.856909
11
131.240690
21
171.092520
0
LINE
8
Tête 1
10
131.240690
20
171.092520
11
130.212532
21
168.890263
0
LINE
8
Tête 1
10
130.212532
20
168.890263
11
129.537210
21
166.552855
0
LINE
8
Tête 1
10
129.537210
20
166.552855
11
128.944388
21
164.180273
0
LINE
8
Tête 1
10
128.944388
20
164.180273
11
128.163730
21
161.872490
0
LINE
8
Tête 1
10
128.163730
20
161.872490
11
127.687048
21
160.371564
0
LINE
8
Tête 1
10
127.687048
20
160.371564
11
127.381140
21
158.819542
0
LINE
8
Tête 1
10
127.381140
20
158.819542
11
127.322455
21
157.250740
0
LINE
8
Tête 1
10
127.322455
20
157.250740
11
127.587440
21
155.699470
0
LINE
8
Tête 1
10
127.587440
20
155.699470
11
127.575440
21
155.408980
0
LINE
8
Tête 1
10
127.575440
20
155.408980
11
127.576000
21
155.409000
0
LINE
8
Tête 1
10
95.547300
20
183.891000
11
94.508351
21
183.958714
0
LINE
8
Tête 1
10
94.508351
20
183.958714
11
93.828818
21
183.561438
0
LINE
8
Tête 1
10
93.828818
20
183.561438
11
93.485436
21
182.862869
0
LINE
8
Tête 1
10
93.485436
20
182.862869
11
93.454940
21
182.026707
0
LINE
8
Tête 1
10
93.454940
20
182.026707
11
93.714066
21
181.216653
0
LINE
8
Tête 1
10
93.714066
20
181.216653
11
94.239549
21
180.596404
0
LINE
8
Tête 1
10
94.239549
20
180.596404
11
95.008126
21
180.329660
0
LINE
8
Tête 1
10
95.008126
20
180.329660
11
95.996530
21
180.580120
0
LINE
8
Tête 1
10
95.996530
20
180.580120
11
96.990139
21
180.439450
0
LINE
8
Tête 1
10
96.990139
20
180.439450
11
97.934250
21
180.507988
0
LINE
8
Tête 1
10
97.934250
20
180.507988
11
98.783091
21
180.792936
0
LINE
8
Tête 1
10
98.783091
20
180.792936
11
99.490893
21
181.301499
0
LINE
8
Tête 1
10
99.490893
20
181.301499
11
100.011885
21
182.040879
0
LINE
8
Tête 1
10
100.011885
20
182.040879
11
100.300299
21
183.018280
0
LINE
8
Tête 1
10
100.300299
20
183.018280
11
100.310364
21
184.240906
0
LINE
8
Tête 1
10
100.310364
20
184.240906
11
99.996310
21
185.715960
0
LINE
8
Tête 1
10
99.996310
20
185.715960
11
99.308189
21
185.922230
0
LINE
8
Tête 1
10
99.308189
20
185.922230
11
98.479089
21
185.921947
0
LINE
8
Tête 1
10
98.479089
20
185.921947
11
96.554462
21
185.636092
0
LINE
8
Tête 1
10
96.554462
20
185.636092
11
95.537189
21
185.517706
0
LINE
8
Tête 1
10
95.537189
20
185.517706
11
94.535445
21
185.527137
0
LINE
8
Tête 1
10
94.535445
20
185.527137
11
93.588356
21
185.747978
0
LINE
8
Tête 1
10
93.588356
20
185.747978
11
92.735050
21
186.263820
0
LINE
8
Tête 1
10
92.735050
20
186.263820
11
90.945643
21
187.172749
0
LINE
8
Tête 1
10
90.945643
20
187.172749
11
89.219110
21
188.282901
0
LINE
8
Tête 1
10
89.219110
20
188.282901
11
87.571942
21
189.567844
0
LINE
8
Tête 1
10
87.571942
20
189.567844
11
86.020625
21
191.001146
0
LINE
8
Tête 1
10
86.020625
20
191.001146
11
84.581649
21
192.556377
0
LINE
8
Tête 1
10
84.581649
20
192.556377
11
83.271502
21
194.207103
0
LINE
8
Tête 1
10
83.271502
20
194.207103
11
82.106673
21
195.926895
0
LINE
8
Tête 1
10
82.106673
20
195.926895
11
81.103650
21
197.689320
0
LINE
8
Tête 1
10
81.103650
20
197.689320
11
80.110543
21
199.431792
0
LINE
8
Tête 1
10
80.110543
20
199.431792
11
79.184929
21
200.632738
0
LINE
8
Tête 1
10
79.184929
20
200.632738
11
77.640433
21
201.996415
0
LINE
8
Tête 1
10
77.640433
20
201.996415
11
77.073674
21
202.452326
0
LINE
8
Tête 1
10
77.073674
20
202.452326
11
76.678659
21
202.953074
0
LINE
8
Tête 1
10
76.678659
20
202.953074
11
76.481450
21
203.645248
0
LINE
8
Tête 1
10
76.481450
20
203.645248
11
76.508110
21
204.675440
0
LINE
8
Tête 1
10
76.508110
20
204.675440
11
77.175942
21
206.349420
0
LINE
8
Tête 1
10
77.175942
20
206.349420
11
78.055869
21
207.961734
0
LINE
8
Tête 1
10
78.055869
20
207.961734
11
78.945847
21
209.572471
0
LINE
8
Tête 1
10
78.945847
20
209.572471
11
79.643830
21
211.241720
0
LINE
8
Tête 1
10
79.643830
20
211.241720
11
80.577933
21
213.164350
0
LINE
8
Tête 1
10
80.577933
20
213.164350
11
81.768500
21
214.826149
0
LINE
8
Tête 1
10
81.768500
20
214.826149
11
83.224005
21
216.269988
0
LINE
8
Tête 1
10
83.224005
20
216.269988
11
84.952920
21
217.538740
0
LINE
8
Tête 1
10
84.952920
20
217.538740
11
86.656150
21
219.010798
0
LINE
8
Tête 1
10
86.656150
20
219.010798
11
88.271585
21
220.733985
0
LINE
8
Tête 1
10
88.271585
20
220.733985
11
89.544653
21
222.677335
0
LINE
8
Tête 1
10
89.544653
20
222.677335
11
89.973245
21
223.721894
0
LINE
8
Tête 1
10
89.973245
20
223.721894
11
90.220780
21
224.809880
0
LINE
8
Tête 1
10
90.220780
20
224.809880
11
91.261888
21
224.385674
0
LINE
8
Tête 1
10
91.261888
20
224.385674
11
92.210181
21
224.224903
0
LINE
8
Tête 1
10
92.210181
20
224.224903
11
93.075776
21
224.309531
0
LINE
8
Tête 1
10
93.075776
20
224.309531
11
93.868786
21
224.621518
0
LINE
8
Tête 1
10
93.868786
20
224.621518
11
94.599328
21
225.142824
0
LINE
8
Tête 1
10
94.599328
20
225.142824
11
95.277516
21
225.855413
0
LINE
8
Tête 1
10
95.277516
20
225.855413
11
96.517290
21
227.782280
0
LINE
8
Tête 1
10
96.517290
20
227.782280
11
96.041200
21
227.671978
0
LINE
8
Tête 1
10
96.041200
20
227.671978
11
95.584109
21
227.363488
0
LINE
8
Tête 1
10
95.584109
20
227.363488
11
94.695390
21
226.398678
0
LINE
8
Tête 1
10
94.695390
20
226.398678
11
93.788071
21
225.381311
0
LINE
8
Tête 1
10
93.788071
20
225.381311
11
93.307730
21
225.007126
0
LINE
8
Tête 1
10
93.307730
20
225.007126
11
92.799090
21
224.804850
0
LINE
8
Tête 1
10
92.799090
20
224.804850
11
92.121710
21
224.895993
0
LINE
8
Tête 1
10
92.121710
20
224.895993
11
91.464375
21
225.228621
0
LINE
8
Tête 1
10
91.464375
20
225.228621
11
90.827391
21
225.515741
0
LINE
8
Tête 1
10
90.827391
20
225.515741
11
90.211070
21
225.470358
0
LINE
8
Tête 1
10
90.211070
20
225.470358
11
87.859756
21
222.170428
0
LINE
8
Tête 1
10
87.859756
20
222.170428
11
86.662101
21
220.703980
0
LINE
8
Tête 1
10
86.662101
20
220.703980
11
85.187330
21
219.344558
0
LINE
8
Tête 1
10
85.187330
20
219.344558
11
82.298616
21
215.757027
0
LINE
8
Tête 1
10
82.298616
20
215.757027
11
79.239690
21
212.312648
0
LINE
8
Tête 1
10
79.239690
20
212.312648
11
78.094099
21
210.488197
0
LINE
8
Tête 1
10
78.094099
20
210.488197
11
77.053642
21
208.564972
0
LINE
8
Tête 1
10
77.053642
20
208.564972
11
75.878595
21
206.842947
0
LINE
8
Tête 1
10
75.878595
20
206.842947
11
75.165685
21
206.151127
0
LINE
8
Tête 1
10
75.165685
20
206.151127
11
74.329230
21
205.622098
0
LINE
8
Tête 1
10
74.329230
20
205.622098
11
72.734918
21
207.176713
0
LINE
8
Tête 1
10
72.734918
20
207.176713
11
71.299325
21
208.752923
0
LINE
8
Tête 1
10
71.299325
20
208.752923
11
69.958329
21
210.236688
0
LINE
8
Tête 1
10
69.958329
20
210.236688
11
68.647810
21
211.513968
0
LINE
8
Tête 1
10
68.647810
20
211.513968
11
67.696387
21
212.278969
0
LINE
8
Tête 1
10
67.696387
20
212.278969
11
66.884417
21
213.136489
0
LINE
8
Tête 1
10
66.884417
20
213.136489
11
65.617873
21
215.057169
0
LINE
8
Tête 1
10
65.617873
20
215.057169
11
64.726257
21
217.132172
0
LINE
8
Tête 1
10
64.726257
20
217.132172
11
64.087650
21
219.217658
0
LINE
8
Tête 1
10
64.087650
20
219.217658
11
63.577691
21
221.072641
0
LINE
8
Tête 1
10
63.577691
20
221.072641
11
63.308019
21
222.745209
0
LINE
8
Tête 1
10
63.308019
20
222.745209
11
63.186204
21
225.681664
0
LINE
8
Tête 1
10
63.186204
20
225.681664
11
63.115545
21
228.304141
0
LINE
8
Tête 1
10
63.115545
20
228.304141
11
62.909817
21
229.584237
0
LINE
8
Tête 1
10
62.909817
20
229.584237
11
62.489380
21
230.889758
0
LINE
8
Tête 1
10
62.489380
20
230.889758
11
62.043370
21
229.905460
0
LINE
8
Tête 1
10
62.043370
20
229.905460
11
61.759759
21
228.122103
0
LINE
8
Tête 1
10
61.759759
20
228.122103
11
61.683392
21
226.051068
0
LINE
8
Tête 1
10
61.683392
20
226.051068
11
61.859113
21
224.203738
0
LINE
8
Tête 1
10
61.859113
20
224.203738
11
62.426598
21
221.740202
0
LINE
8
Tête 1
10
62.426598
20
221.740202
11
62.845356
21
219.524654
0
LINE
8
Tête 1
10
62.845356
20
219.524654
11
63.399199
21
217.350838
0
LINE
8
Tête 1
10
63.399199
20
217.350838
11
64.371943
21
215.012498
0
LINE
8
Tête 1
10
64.371943
20
215.012498
11
66.057155
21
213.022683
0
LINE
8
Tête 1
10
66.057155
20
213.022683
11
68.080138
21
211.067172
0
LINE
8
Tête 1
10
68.080138
20
211.067172
11
70.020869
21
209.046439
0
LINE
8
Tête 1
10
70.020869
20
209.046439
11
70.829132
21
207.980512
0
LINE
8
Tête 1
10
70.829132
20
207.980512
11
71.459323
21
206.860958
0
LINE
8
Tête 1
10
71.459323
20
206.860958
11
73.627951
21
204.430218
0
LINE
8
Tête 1
10
73.627951
20
204.430218
11
76.011679
21
202.201619
0
LINE
8
Tête 1
10
76.011679
20
202.201619
11
78.299080
21
199.890237
0
LINE
8
Tête 1
10
78.299080
20
199.890237
11
79.309335
21
198.614464
0
LINE
8
Tête 1
10
79.309335
20
198.614464
11
80.178723
21
197.211148
0
LINE
8
Tête 1
10
80.178723
20
197.211148
11
81.681795
21
195.119947
0
LINE
8
Tête 1
10
81.681795
20
195.119947
11
83.244489
21
193.197860
0
LINE
8
Tête 1
10
83.244489
20
193.197860
11
86.435813
21
189.363418
0
LINE
8
Tête 1
10
86.435813
20
189.363418
11
86.751225
21
188.679898
0
LINE
8
Tête 1
10
86.751225
20
188.679898
11
86.748163
21
187.834502
0
LINE
8
Tête 1
10
86.748163
20
187.834502
11
86.283784
21
185.998139
0
LINE
8
Tête 1
10
86.283784
20
185.998139
11
86.071049
21
185.177199
0
LINE
8
Tête 1
10
86.071049
20
185.177199
11
86.037004
21
184.534438
0
LINE
8
Tête 1
10
86.037004
20
184.534438
11
86.305942
21
184.154870
0
LINE
8
Tête 1
10
86.305942
20
184.154870
11
87.002152
21
184.123508
0
LINE
8
Tête 1
10
87.002152
20
184.123508
11
87.238474
21
184.226152
0
LINE
8
Tête 1
10
87.238474
20
184.226152
11
87.407645
21
184.459122
0
LINE
8
Tête 1
10
87.407645
20
184.459122
11
87.624407
21
185.166858
0
LINE
8
Tête 1
10
87.624407
20
185.166858
11
87.812179
21
185.948356
0
LINE
8
Tête 1
10
87.812179
20
185.948356
11
88.130702
21
186.505258
0
LINE
8
Tête 1
10
88.130702
20
186.505258
11
88.747795
21
186.609907
0
LINE
8
Tête 1
10
88.747795
20
186.609907
11
89.476425
21
186.239838
0
LINE
8
Tête 1
10
89.476425
20
186.239838
11
90.023201
21
185.467004
0
LINE
8
Tête 1
10
90.023201
20
185.467004
11
90.136709
21
184.952035
0
LINE
8
Tête 1
10
90.136709
20
184.952035
11
90.094732
21
184.363358
0
LINE
8
Tête 1
10
90.094732
20
184.363358
11
90.673325
21
183.940951
0
LINE
8
Tête 1
10
90.673325
20
183.940951
11
91.337521
21
183.856165
0
LINE
8
Tête 1
10
91.337521
20
183.856165
11
92.810363
21
184.231845
0
LINE
8
Tête 1
10
92.810363
20
184.231845
11
93.562832
21
184.458510
0
LINE
8
Tête 1
10
93.562832
20
184.458510
11
94.288548
21
184.555187
0
LINE
8
Tête 1
10
94.288548
20
184.555187
11
94.959421
21
184.404977
0
LINE
8
Tête 1
10
94.959421
20
184.404977
11
95.547362
21
183.890978
0
LINE
8
Tête 1
10
95.547362
20
183.890978
11
95.547300
21
183.891000
0
LINE
8
Tête 1
10
153.286000
20
184.064000
11
154.324949
21
184.131714
0
LINE
8
Tête 1
10
154.324949
20
184.131714
11
155.004482
21
183.734438
0
LINE
8
Tête 1
10
155.004482
20
183.734438
11
155.347864
21
183.035869
0
LINE
8
Tête 1
10
155.347864
20
183.035869
11
155.378360
21
182.199707
0
LINE
8
Tête 1
10
155.378360
20
182.199707
11
155.119234
21
181.389653
0
LINE
8
Tête 1
10
155.119234
20
181.389653
11
154.593751
21
180.769404
0
LINE
8
Tête 1
10
154.593751
20
180.769404
11
153.825174
21
180.502660
0
LINE
8
Tête 1
10
153.825174
20
180.502660
11
152.836770
21
180.753120
0
LINE
8
Tête 1
10
152.836770
20
180.753120
11
151.843158
21
180.612450
0
LINE
8
Tête 1
10
151.843158
20
180.612450
11
150.899046
21
180.680988
0
LINE
8
Tête 1
10
150.899046
20
180.680988
11
150.050204
21
180.965936
0
LINE
8
Tête 1
10
150.050204
20
180.965936
11
149.342402
21
181.474499
0
LINE
8
Tête 1
10
149.342402
20
181.474499
11
148.821410
21
182.213879
0
LINE
8
Tête 1
10
148.821410
20
182.213879
11
148.532995
21
183.191280
0
LINE
8
Tête 1
10
148.532995
20
183.191280
11
148.522929
21
184.413906
0
LINE
8
Tête 1
10
148.522929
20
184.413906
11
148.836980
21
185.888960
0
LINE
8
Tête 1
10
148.836980
20
185.888960
11
149.525105
21
186.095230
0
LINE
8
Tête 1
10
149.525105
20
186.095230
11
150.354207
21
186.094947
0
LINE
8
Tête 1
10
150.354207
20
186.094947
11
152.278836
21
185.809092
0
LINE
8
Tête 1
10
152.278836
20
185.809092
11
153.296110
21
185.690706
0
LINE
8
Tête 1
10
153.296110
20
185.690706
11
154.297855
21
185.700137
0
LINE
8
Tête 1
10
154.297855
20
185.700137
11
155.244944
21
185.920978
0
LINE
8
Tête 1
10
155.244944
20
185.920978
11
156.098250
21
186.436820
0
LINE
8
Tête 1
10
156.098250
20
186.436820
11
157.887658
21
187.345750
0
LINE
8
Tête 1
10
157.887658
20
187.345750
11
159.614191
21
188.455904
0
LINE
8
Tête 1
10
159.614191
20
188.455904
11
161.261364
21
189.740852
0
LINE
8
Tête 1
10
161.261364
20
189.740852
11
162.812688
21
191.174163
0
LINE
8
Tête 1
10
162.812688
20
191.174163
11
164.251675
21
192.729405
0
LINE
8
Tête 1
10
164.251675
20
192.729405
11
165.561840
21
194.380150
0
LINE
8
Tête 1
10
165.561840
20
194.380150
11
166.726694
21
196.099965
0
LINE
8
Tête 1
10
166.726694
20
196.099965
11
167.729750
21
197.862420
0
LINE
8
Tête 1
10
167.729750
20
197.862420
11
168.722854
21
199.604892
0
LINE
8
Tête 1
10
168.722854
20
199.604892
11
169.648465
21
200.805838
0
LINE
8
Tête 1
10
169.648465
20
200.805838
11
171.192959
21
202.169514
0
LINE
8
Tête 1
10
171.192959
20
202.169514
11
171.759716
21
202.625424
0
LINE
8
Tête 1
10
171.759716
20
202.625424
11
172.154731
21
203.126170
0
LINE
8
Tête 1
10
172.154731
20
203.126170
11
172.351940
21
203.818342
0
LINE
8
Tête 1
10
172.351940
20
203.818342
11
172.325280
21
204.848530
0
LINE
8
Tête 1
10
172.325280
20
204.848530
11
171.657453
21
206.522510
0
LINE
8
Tête 1
10
171.657453
20
206.522510
11
170.777527
21
208.134824
0
LINE
8
Tête 1
10
170.777527
20
208.134824
11
169.887548
21
209.745561
0
LINE
8
Tête 1
10
169.887548
20
209.745561
11
169.189560
21
211.414810
0
LINE
8
Tête 1
10
169.189560
20
211.414810
11
168.255462
21
213.337440
0
LINE
8
Tête 1
10
168.255462
20
213.337440
11
167.064895
21
214.999239
0
LINE
8
Tête 1
10
167.064895
20
214.999239
11
165.609391
21
216.443078
0
LINE
8
Tête 1
10
165.609391
20
216.443078
11
163.880480
21
217.711830
0
LINE
8
Tête 1
10
163.880480
20
217.711830
11
162.177250
21
219.183888
0
LINE
8
Tête 1
10
162.177250
20
219.183888
11
160.561815
21
220.907075
0
LINE
8
Tête 1
10
160.561815
20
220.907075
11
159.288747
21
222.850425
0
LINE
8
Tête 1
10
159.288747
20
222.850425
11
158.860155
21
223.894984
0
LINE
8
Tête 1
10
158.860155
20
223.894984
11
158.612620
21
224.982970
0
LINE
8
Tête 1
10
158.612620
20
224.982970
11
157.571512
21
224.558761
0
LINE
8
Tête 1
10
157.571512
20
224.558761
11
156.623219
21
224.397989
0
LINE
8
Tête 1
10
156.623219
20
224.397989
11
155.757624
21
224.482617
0
LINE
8
Tête 1
10
155.757624
20
224.482617
11
154.964614
21
224.794604
0
LINE
8
Tête 1
10
154.964614
20
224.794604
11
154.234072
21
225.315912
0
LINE
8
Tête 1
10
154.234072
20
225.315912
11
153.555884
21
226.028501
0
LINE
8
Tête 1
10
153.555884
20
226.028501
11
152.316110
21
227.955370
0
LINE
8
Tête 1
10
152.316110
20
227.955370
11
152.792200
21
227.845068
0
LINE
8
Tête 1
10
152.792200
20
227.845068
11
153.249291
21
227.536578
0
LINE
8
Tête 1
10
153.249291
20
227.536578
11
154.138010
21
226.571768
0
LINE
8
Tête 1
10
154.138010
20
226.571768
11
155.045329
21
225.554401
0
LINE
8
Tête 1
10
155.045329
20
225.554401
11
155.525670
21
225.180216
0
LINE
8
Tête 1
10
155.525670
20
225.180216
11
156.034310
21
224.977940
0
LINE
8
Tête 1
10
156.034310
20
224.977940
11
156.711690
21
225.069083
0
LINE
8
Tête 1
10
156.711690
20
225.069083
11
157.369026
21
225.401711
0
LINE
8
Tête 1
10
157.369026
20
225.401711
11
158.006009
21
225.688831
0
LINE
8
Tête 1
10
158.006009
20
225.688831
11
158.622330
21
225.643448
0
LINE
8
Tête 1
10
158.622330
20
225.643448
11
160.973644
21
222.343518
0
LINE
8
Tête 1
10
160.973644
20
222.343518
11
162.171299
21
220.877070
0
LINE
8
Tête 1
10
162.171299
20
220.877070
11
163.646070
21
219.517648
0
LINE
8
Tête 1
10
163.646070
20
219.517648
11
166.534784
21
215.930115
0
LINE
8
Tête 1
10
166.534784
20
215.930115
11
169.593710
21
212.485728
0
LINE
8
Tête 1
10
169.593710
20
212.485728
11
170.739303
21
210.661283
0
LINE
8
Tête 1
10
170.739303
20
210.661283
11
171.779763
21
208.738059
0
LINE
8
Tête 1
10
171.779763
20
208.738059
11
172.954813
21
207.016033
0
LINE
8
Tête 1
10
172.954813
20
207.016033
11
173.667724
21
206.324211
0
LINE
8
Tête 1
10
173.667724
20
206.324211
11
174.504180
21
205.795178
0
LINE
8
Tête 1
10
174.504180
20
205.795178
11
176.098489
21
207.349793
0
LINE
8
Tête 1
10
176.098489
20
207.349793
11
177.534085
21
208.926004
0
LINE
8
Tête 1
10
177.534085
20
208.926004
11
178.875083
21
210.409772
0
LINE
8
Tête 1
10
178.875083
20
210.409772
11
180.185600
21
211.687058
0
LINE
8
Tête 1
10
180.185600
20
211.687058
11
181.137023
21
212.452059
0
LINE
8
Tête 1
10
181.137023
20
212.452059
11
181.948995
21
213.309579
0
LINE
8
Tête 1
10
181.948995
20
213.309579
11
183.215541
21
215.230259
0
LINE
8
Tête 1
10
183.215541
20
215.230259
11
184.107157
21
217.305262
0
LINE
8
Tête 1
10
184.107157
20
217.305262
11
184.745760
21
219.390748
0
LINE
8
Tête 1
10
184.745760
20
219.390748
11
185.255722
21
221.245731
0
LINE
8
Tête 1
10
185.255722
20
221.245731
11
185.525396
21
222.918299
0
LINE
8
Tête 1
10
185.525396
20
222.918299
11
185.647211
21
225.854754
0
LINE
8
Tête 1
10
185.647211
20
225.854754
11
185.717871
21
228.477231
0
LINE
8
Tête 1
10
185.717871
20
228.477231
11
185.923600
21
229.757327
0
LINE
8
Tête 1
10
185.923600
20
229.757327
11
186.344040
21
231.062848
0
LINE
8
Tête 1
10
186.344040
20
231.062848
11
186.790050
21
230.078550
0
LINE
8
Tête 1
10
186.790050
20
230.078550
11
187.073657
21
228.295193
0
LINE
8
Tête 1
10
187.073657
20
228.295193
11
187.150021
21
226.224158
0
LINE
8
Tête 1
10
187.150021
20
226.224158
11
186.974300
21
224.376828
0
LINE
8
Tête 1
10
186.974300
20
224.376828
11
186.406816
21
221.913288
0
LINE
8
Tête 1
10
186.406816
20
221.913288
11
185.988061
21
219.697740
0
LINE
8
Tête 1
10
185.988061
20
219.697740
11
185.434219
21
217.523927
0
LINE
8
Tête 1
10
185.434219
20
217.523927
11
184.461470
21
215.185588
0
LINE
8
Tête 1
10
184.461470
20
215.185588
11
182.776263
21
213.195769
0
LINE
8
Tête 1
10
182.776263
20
213.195769
11
180.753279
21
211.240258
0
LINE
8
Tête 1
10
180.753279
20
211.240258
11
178.812545
21
209.219527
0
LINE
8
Tête 1
10
178.812545
20
209.219527
11
178.004281
21
208.153602
0
LINE
8
Tête 1
10
178.004281
20
208.153602
11
177.374090
21
207.034048
0
LINE
8
Tête 1
10
177.374090
20
207.034048
11
175.205458
21
204.603307
0
LINE
8
Tête 1
10
175.205458
20
204.603307
11
172.821730
21
202.374705
0
LINE
8
Tête 1
10
172.821730
20
202.374705
11
170.534332
21
200.063323
0
LINE
8
Tête 1
10
170.534332
20
200.063323
11
169.524077
21
198.787551
0
LINE
8
Tête 1
10
169.524077
20
198.787551
11
168.654690
21
197.384238
0
LINE
8
Tête 1
10
168.654690
20
197.384238
11
167.151614
21
195.293033
0
LINE
8
Tête 1
10
167.151614
20
195.293033
11
165.588920
21
193.370945
0
LINE
8
Tête 1
10
165.588920
20
193.370945
11
162.397600
21
189.536498
0
LINE
8
Tête 1
10
162.397600
20
189.536498
11
162.082188
21
188.852978
0
LINE
8
Tête 1
10
162.082188
20
188.852978
11
162.085248
21
188.007582
0
LINE
8
Tête 1
10
162.085248
20
188.007582
11
162.549625
21
186.171219
0
LINE
8
Tête 1
10
162.549625
20
186.171219
11
162.762360
21
185.350279
0
LINE
8
Tête 1
10
162.762360
20
185.350279
11
162.796404
21
184.707518
0
LINE
8
Tête 1
10
162.796404
20
184.707518
11
162.527468
21
184.327950
0
LINE
8
Tête 1
10
162.527468
20
184.327950
11
161.831260
21
184.296588
0
LINE
8
Tête 1
10
161.831260
20
184.296588
11
161.594937
21
184.399232
0
LINE
8
Tête 1
10
161.594937
20
184.399232
11
161.425764
21
184.632202
0
LINE
8
Tête 1
10
161.425764
20
184.632202
11
161.209002
21
185.339938
0
LINE
8
Tête 1
10
161.209002
20
185.339938
11
161.021232
21
186.121436
0
LINE
8
Tête 1
10
161.021232
20
186.121436
11
160.702710
21
186.678338
0
LINE
8
Tête 1
10
160.702710
20
186.678338
11
160.085621
21
186.782983
0
LINE
8
Tête 1
10
160.085621
20
186.782983
11
159.356994
21
186.412914
0
LINE
8
Tête 1
10
159.356994
20
186.412914
11
158.810217
21
185.640083
0
LINE
8
Tête 1
10
158.810217
20
185.640083
11
158.696706
21
185.125115
0
LINE
8
Tête 1
10
158.696706
20
185.125115
11
158.738680
21
184.536438
0
LINE
8
Tête 1
10
158.738680
20
184.536438
11
158.160084
21
184.114029
0
LINE
8
Tête 1
10
158.160084
20
184.114029
11
157.495887
21
184.029241
0
LINE
8
Tête 1
10
157.495887
20
184.029241
11
156.023045
21
184.404922
0
LINE
8
Tête 1
10
156.023045
20
184.404922
11
155.270577
21
184.631587
0
LINE
8
Tête 1
10
155.270577
20
184.631587
11
154.544863
21
184.728266
0
LINE
8
Tête 1
10
154.544863
20
184.728266
11
153.873991
21
184.578057
0
LINE
8
Tête 1
10
153.873991
20
184.578057
11
153.286050
21
184.064058
0
LINE
8
Tête 1
10
153.286050
20
184.064058
11
153.286000
21
184.064000
0
LINE
8
Tête 1
10
64.055900
20
206.461000
11
66.648435
21
205.773544
0
LINE
8
Tête 1
10
66.648435
20
205.773544
11
69.159310
21
204.820170
0
LINE
8
Tête 1
10
69.159310
20
204.820170
11
73.104530
21
202.921590
0
LINE
8
Tête 1
10
73.104530
20
202.921590
11
74.778144
21
200.681991
0
LINE
8
Tête 1
10
74.778144
20
200.681991
11
76.654490
21
198.648410
0
LINE
8
Tête 1
10
76.654490
20
198.648410
11
77.242174
21
197.842634
0
LINE
8
Tête 1
10
77.242174
20
197.842634
11
77.898930
21
197.126700
0
LINE
8
Tête 1
10
77.898930
20
197.126700
11
78.439614
21
196.352049
0
LINE
8
Tête 1
10
78.439614
20
196.352049
11
78.679080
21
195.370120
0
LINE
8
Tête 1
10
78.679080
20
195.370120
11
78.101661
21
195.634888
0
LINE
8
Tête 1
10
78.101661
20
195.634888
11
77.415161
21
196.185791
0
LINE
8
Tête 1
10
77.415161
20
196.185791
11
75.878184
21
197.816770
0
LINE
8
Tête 1
10
75.878184
20
197.816770
11
73.291180
21
200.890780
0
LINE
8
Tête 1
10
73.291180
20
200.890780
11
72.737046
21
201.715138
0
LINE
8
Tête 1
10
72.737046
20
201.715138
11
72.171083
21
202.305763
0
LINE
8
Tête 1
10
72.171083
20
202.305763
11
71.042169
21
202.972394
0
LINE
8
Tête 1
10
71.042169
20
202.972394
11
69.981443
21
203.263820
0
LINE
8
Tête 1
10
69.981443
20
203.263820
11
69.065910
21
203.553190
0
LINE
8
Tête 1
10
69.065910
20
203.553190
11
68.742711
21
203.529210
0
LINE
8
Tête 1
10
68.742711
20
203.529210
11
68.443817
21
203.355216
0
LINE
8
Tête 1
10
68.443817
20
203.355216
11
67.943664
21
202.864669
0
LINE
8
Tête 1
10
67.943664
20
202.864669
11
67.614888
21
202.696507
0
LINE
8
Tête 1
10
67.614888
20
202.696507
11
67.506930
21
203.465690
0
LINE
8
Tête 1
10
67.506930
20
203.465690
11
67.460918
21
203.975594
0
LINE
8
Tête 1
10
67.460918
20
203.975594
11
67.101698
21
204.378624
0
LINE
8
Tête 1
10
67.101698
20
204.378624
11
65.791296
21
204.975730
0
LINE
8
Tête 1
10
65.791296
20
204.975730
11
64.271059
21
205.480346
0
LINE
8
Tête 1
10
64.271059
20
205.480346
11
63.649544
21
205.767763
0
LINE
8
Tête 1
10
63.649544
20
205.767763
11
63.236320
21
206.115810
0
LINE
8
Tête 1
10
63.236320
20
206.115810
11
63.116252
21
206.302322
0
LINE
8
Tête 1
10
63.116252
20
206.302322
11
63.148358
21
206.469249
0
LINE
8
Tête 1
10
63.148358
20
206.469249
11
63.464762
21
206.595347
0
LINE
8
Tête 1
10
63.464762
20
206.595347
11
64.055900
21
206.461000
0
LINE
8
Tête 1
10
72.535600
20
196.048000
11
72.782701
21
196.697605
0
LINE
8
Tête 1
10
72.782701
20
196.697605
11
73.153394
21
196.996781
0
LINE
8
Tête 1
10
73.153394
20
196.996781
11
73.607694
21
197.009355
0
LINE
8
Tête 1
10
73.607694
20
197.009355
11
74.105616
21
196.799151
0
LINE
8
Tête 1
10
74.105616
20
196.799151
11
75.072380
21
195.965710
0
LINE
8
Tête 1
10
75.072380
20
195.965710
11
75.733800
21
195.007060
0
LINE
8
Tête 1
10
75.733800
20
195.007060
11
76.327654
21
194.070057
0
LINE
8
Tête 1
10
76.327654
20
194.070057
11
76.777202
21
193.060965
0
LINE
8
Tête 1
10
76.777202
20
193.060965
11
77.238328
21
192.058660
0
LINE
8
Tête 1
10
77.238328
20
192.058660
11
77.866920
21
191.142020
0
LINE
8
Tête 1
10
77.866920
20
191.142020
11
79.384571
21
189.096549
0
LINE
8
Tête 1
10
79.384571
20
189.096549
11
79.937416
21
187.962735
0
LINE
8
Tête 1
10
79.937416
20
187.962735
11
80.219700
21
186.718250
0
LINE
8
Tête 1
10
80.219700
20
186.718250
11
80.386633
21
185.605961
0
LINE
8
Tête 1
10
80.386633
20
185.605961
11
80.766967
21
184.377995
0
LINE
8
Tête 1
10
80.766967
20
184.377995
11
81.061085
21
183.885189
0
LINE
8
Tête 1
10
81.061085
20
183.885189
11
81.437263
21
183.560932
0
LINE
8
Tête 1
10
81.437263
20
183.560932
11
81.905071
21
183.471045
0
LINE
8
Tête 1
10
81.905071
20
183.471045
11
82.474080
21
183.681350
0
LINE
8
Tête 1
10
82.474080
20
183.681350
11
82.455146
21
184.813243
0
LINE
8
Tête 1
10
82.455146
20
184.813243
11
82.813344
21
185.893100
0
LINE
8
Tête 1
10
82.813344
20
185.893100
11
83.804190
21
188.005490
0
LINE
8
Tête 1
10
83.804190
20
188.005490
11
83.342982
21
188.289177
0
LINE
8
Tête 1
10
83.342982
20
188.289177
11
83.211861
21
188.595417
0
LINE
8
Tête 1
10
83.211861
20
188.595417
11
83.327750
21
188.879113
0
LINE
8
Tête 1
10
83.327750
20
188.879113
11
83.607570
21
189.095165
0
LINE
8
Tête 1
10
83.607570
20
189.095165
11
83.968245
21
189.198475
0
LINE
8
Tête 1
10
83.968245
20
189.198475
11
84.326696
21
189.143945
0
LINE
8
Tête 1
10
84.326696
20
189.143945
11
84.599847
21
188.886476
0
LINE
8
Tête 1
10
84.599847
20
188.886476
11
84.704619
21
188.380970
0
LINE
8
Tête 1
10
84.704619
20
188.380970
11
84.294690
21
186.783581
0
LINE
8
Tête 1
10
84.294690
20
186.783581
11
83.665926
21
185.235575
0
LINE
8
Tête 1
10
83.665926
20
185.235575
11
83.116339
21
183.671917
0
LINE
8
Tête 1
10
83.116339
20
183.671917
11
82.943939
21
182.027570
0
LINE
8
Tête 1
10
82.943939
20
182.027570
11
82.988007
21
181.428542
0
LINE
8
Tête 1
10
82.988007
20
181.428542
11
82.819592
21
181.079918
0
LINE
8
Tête 1
10
82.819592
20
181.079918
11
82.500600
21
180.948148
0
LINE
8
Tête 1
10
82.500600
20
180.948148
11
82.092941
21
180.999684
0
LINE
8
Tête 1
10
82.092941
20
180.999684
11
81.259254
21
181.518472
0
LINE
8
Tête 1
10
81.259254
20
181.518472
11
80.957043
21
181.918627
0
LINE
8
Tête 1
10
80.957043
20
181.918627
11
80.813799
21
182.367890
0
LINE
8
Tête 1
10
80.813799
20
182.367890
11
79.956175
21
185.128865
0
LINE
8
Tête 1
10
79.956175
20
185.128865
11
79.548069
21
186.517306
0
LINE
8
Tête 1
10
79.548069
20
186.517306
11
78.983489
21
187.852430
0
LINE
8
Tête 1
10
78.983489
20
187.852430
11
77.941751
21
189.830435
0
LINE
8
Tête 1
10
77.941751
20
189.830435
11
77.026859
21
191.868500
0
LINE
8
Tête 1
10
77.026859
20
191.868500
11
75.458308
21
194.018266
0
LINE
8
Tête 1
10
75.458308
20
194.018266
11
73.898409
21
196.172660
0
LINE
8
Tête 1
10
73.898409
20
196.172660
11
73.568338
21
196.288750
0
LINE
8
Tête 1
10
73.568338
20
196.288750
11
73.227753
21
196.217130
0
LINE
8
Tête 1
10
73.227753
20
196.217130
11
72.535579
21
196.048000
0
LINE
8
Tête 1
10
72.535579
20
196.048000
11
72.535600
21
196.048000
0
LINE
8
Tête 1
10
81.781900
20
205.643000
11
81.459370
21
205.424748
0
LINE
8
Tête 1
10
81.459370
20
205.424748
11
81.245482
21
205.096296
0
LINE
8
Tête 1
10
81.245482
20
205.096296
11
81.048416
21
204.325020
0
LINE
8
Tête 1
10
81.048416
20
204.325020
11
81.006075
21
203.896558
0
LINE
8
Tête 1
10
81.006075
20
203.896558
11
81.139690
21
203.513438
0
LINE
8
Tête 1
10
81.139690
20
203.513438
11
81.420966
21
203.220366
0
LINE
8
Tête 1
10
81.420966
20
203.220366
11
81.821611
21
203.062050
0
LINE
8
Tête 1
10
81.821611
20
203.062050
11
82.549713
21
202.938204
0
LINE
8
Tête 1
10
82.549713
20
202.938204
11
83.008573
21
203.130133
0
LINE
8
Tête 1
10
83.008573
20
203.130133
11
83.228088
21
203.543729
0
LINE
8
Tête 1
10
83.228088
20
203.543729
11
83.238156
21
204.084888
0
LINE
8
Tête 1
10
83.238156
20
204.084888
11
83.068674
21
204.659500
0
LINE
8
Tête 1
10
83.068674
20
204.659500
11
82.749539
21
205.173461
0
LINE
8
Tête 1
10
82.749539
20
205.173461
11
82.310649
21
205.532663
0
LINE
8
Tête 1
10
82.310649
20
205.532663
11
81.781901
21
205.643000
0
LINE
8
Tête 1
10
81.781901
20
205.643000
11
81.781900
21
205.643000
0
LINE
8
Tête 1
10
165.600000
20
206.417000
11
165.277468
21
206.198746
0
LINE
8
Tête 1
10
165.277468
20
206.198746
11
165.063579
21
205.870294
0
LINE
8
Tête 1
10
165.063579
20
205.870294
11
164.866510
21
205.099020
0
LINE
8
Tête 1
10
164.866510
20
205.099020
11
164.824167
21
204.670558
0
LINE
8
Tête 1
10
164.824167
20
204.670558
11
164.957783
21
204.287436
0
LINE
8
Tête 1
10
164.957783
20
204.287436
11
165.239062
21
203.994361
0
LINE
8
Tête 1
10
165.239062
20
203.994361
11
165.639710
21
203.836040
0
LINE
8
Tête 1
10
165.639710
20
203.836040
11
166.367812
21
203.712197
0
LINE
8
Tête 1
10
166.367812
20
203.712197
11
166.826671
21
203.904128
0
LINE
8
Tête 1
10
166.826671
20
203.904128
11
167.046185
21
204.317727
0
LINE
8
Tête 1
10
167.046185
20
204.317727
11
167.056252
21
204.858886
0
LINE
8
Tête 1
10
167.056252
20
204.858886
11
166.886771
21
205.433500
0
LINE
8
Tête 1
10
166.886771
20
205.433500
11
166.567638
21
205.947461
0
LINE
8
Tête 1
10
166.567638
20
205.947461
11
166.128752
21
206.306663
0
LINE
8
Tête 1
10
166.128752
20
206.306663
11
165.600010
21
206.417000
0
LINE
8
Tête 1
10
165.600010
20
206.417000
11
165.600000
21
206.417000
 0 
ENDSEC
 0 
EOF