999
"DXF R12 Output" (www.mydxf.blogspot.com)
 0 
SECTION
 2 
HEADER
 9 
$ACADVER
 1 
AC1009
 9 
$EXTMIN
 10 
 0 
 20 
 0 
 9 
$EXTMAX
 10 
 8.5 
 20 
 11 
 0 
ENDSEC
 0 
SECTION
 2 
ENTITIES
0
LINE
8
Layer 1
10
25.847500
20
118.249000
11
9.443350
21
102.110000
0
LINE
8
Layer 1
10
9.443350
20
102.110000
11
2.961060
21
82.663000
0
LINE
8
Layer 1
10
2.961060
20
82.663000
11
0.050644
21
71.418200
0
LINE
8
Layer 1
10
0.050644
20
71.418200
11
0.579810
21
66.126530
0
LINE
8
Layer 1
10
0.579810
20
66.126530
11
2.961060
21
59.776530
0
LINE
8
Layer 1
10
2.961060
20
59.776530
11
12.618350
21
45.819730
0
LINE
8
Layer 1
10
12.618350
20
45.819730
11
13.691495
21
44.906121
0
LINE
8
Layer 1
10
13.691495
20
44.906121
11
14.577116
21
43.873179
0
LINE
8
Layer 1
10
14.577116
20
43.873179
11
15.277090
21
42.722099
0
LINE
8
Layer 1
10
15.277090
20
42.722099
11
15.793294
21
41.454075
0
LINE
8
Layer 1
10
15.793294
20
41.454075
11
16.127603
21
40.070302
0
LINE
8
Layer 1
10
16.127603
20
40.070302
11
16.281894
21
38.571974
0
LINE
8
Layer 1
10
16.281894
20
38.571974
11
16.258044
21
36.960285
0
LINE
8
Layer 1
10
16.258044
20
36.960285
11
16.057930
21
35.236430
0
LINE
8
Layer 1
10
16.057930
20
35.236430
11
18.968350
21
32.524450
0
LINE
8
Layer 1
10
18.968350
20
32.524450
11
22.407930
21
32.789030
0
LINE
8
Layer 1
10
22.407930
20
32.789030
11
25.582930
21
33.847370
0
LINE
8
Layer 1
10
25.582930
20
33.847370
11
27.416324
21
34.421699
0
LINE
8
Layer 1
10
27.416324
20
34.421699
11
29.117974
21
34.521750
0
LINE
8
Layer 1
10
29.117974
20
34.521750
11
30.713899
21
34.241193
0
LINE
8
Layer 1
10
30.713899
20
34.241193
11
32.230117
21
33.673700
0
LINE
8
Layer 1
10
32.230117
20
33.673700
11
35.127517
21
32.052587
0
LINE
8
Layer 1
10
35.127517
20
32.052587
11
38.018330
21
30.407780
0
LINE
8
Layer 1
10
38.018330
20
30.407780
11
39.810652
21
28.593631
0
LINE
8
Layer 1
10
39.810652
20
28.593631
11
41.314644
21
26.653339
0
LINE
8
Layer 1
10
41.314644
20
26.653339
11
42.564889
21
24.602034
0
LINE
8
Layer 1
10
42.564889
20
24.602034
11
43.595974
21
22.454846
0
LINE
8
Layer 1
10
43.595974
20
22.454846
11
44.442483
21
20.226907
0
LINE
8
Layer 1
10
44.442483
20
20.226907
11
45.139002
21
17.933345
0
LINE
8
Layer 1
10
45.139002
20
17.933345
11
46.220410
21
13.209880
0
LINE
8
Layer 1
10
46.220410
20
13.209880
11
51.479950
21
4.417180
0
LINE
8
Layer 1
10
51.479950
20
4.417180
11
51.659700
21
0.066920
0
LINE
8
Layer 1
10
51.659700
20
0.066920
11
55.745380
21
1.303630
0
LINE
8
Layer 1
10
55.745380
20
1.303630
11
58.329770
21
0.565360
0
LINE
8
Layer 1
10
58.329770
20
0.565360
11
58.463692
21
2.608771
0
LINE
8
Layer 1
10
58.463692
20
2.608771
11
59.001828
21
4.534286
0
LINE
8
Layer 1
10
59.001828
20
4.534286
11
59.814610
21
6.379696
0
LINE
8
Layer 1
10
59.814610
20
6.379696
11
60.772470
21
8.182790
0
LINE
8
Layer 1
10
60.772470
20
8.182790
11
61.705295
21
9.993593
0
LINE
8
Layer 1
10
61.705295
20
9.993593
11
62.943503
21
11.552124
0
LINE
8
Layer 1
10
62.943503
20
11.552124
11
64.450177
21
12.888877
0
LINE
8
Layer 1
10
64.450177
20
12.888877
11
66.188400
21
14.034350
0
LINE
8
Layer 1
10
66.188400
20
14.034350
11
65.861772
21
16.946922
0
LINE
8
Layer 1
10
65.861772
20
16.946922
11
65.939684
21
19.516317
0
LINE
8
Layer 1
10
65.939684
20
19.516317
11
66.370025
21
21.780975
0
LINE
8
Layer 1
10
66.370025
20
21.780975
11
67.100680
21
23.779338
0
LINE
8
Layer 1
10
67.100680
20
23.779338
11
68.079536
21
25.549845
0
LINE
8
Layer 1
10
68.079536
20
25.549845
11
69.254481
21
27.130939
0
LINE
8
Layer 1
10
69.254481
20
27.130939
11
70.573400
21
28.561060
0
LINE
8
Layer 1
10
70.573400
20
28.561060
11
71.984180
21
29.878650
0
LINE
8
Layer 1
10
71.984180
20
29.878650
11
80.616220
21
33.781250
0
LINE
8
Layer 1
10
80.616220
20
33.781250
11
91.894120
21
32.425260
0
LINE
8
Layer 1
10
91.894120
20
32.425260
11
92.522510
21
35.104170
0
LINE
8
Layer 1
10
92.522510
20
35.104170
11
92.787090
21
36.228650
0
LINE
8
Layer 1
10
92.787090
20
36.228650
11
97.285010
21
46.018250
0
LINE
8
Layer 1
10
97.285010
20
46.018250
11
100.856880
21
49.854710
0
LINE
8
Layer 1
10
100.856880
20
49.854710
11
108.132920
21
64.671410
0
LINE
8
Layer 1
10
108.132920
20
64.671410
11
108.662090
21
70.624530
0
LINE
8
Layer 1
10
108.662090
20
70.624530
11
111.102000
21
85.755200
0
LINE
8
Layer 1
10
111.102000
20
85.755200
11
91.993300
21
113.752000
0
LINE
8
Layer 1
10
91.993300
20
113.752000
11
86.499100
21
115.430000
0
LINE
8
Layer 1
10
86.499100
20
115.430000
11
87.121548
21
114.904542
0
LINE
8
Layer 1
10
87.121548
20
114.904542
11
87.857563
21
114.485578
0
LINE
8
Layer 1
10
87.857563
20
114.485578
11
88.711713
21
114.191300
0
LINE
8
Layer 1
10
88.711713
20
114.191300
11
89.688570
21
114.039900
0
LINE
8
Layer 1
10
89.688570
20
114.039900
11
90.447019
21
112.618771
0
LINE
8
Layer 1
10
90.447019
20
112.618771
11
90.840036
21
111.336496
0
LINE
8
Layer 1
10
90.840036
20
111.336496
11
90.913952
21
110.176946
0
LINE
8
Layer 1
10
90.913952
20
110.176946
11
90.715103
21
109.123992
0
LINE
8
Layer 1
10
90.715103
20
109.123992
11
90.289820
21
108.161503
0
LINE
8
Layer 1
10
90.289820
20
108.161503
11
89.684436
21
107.273351
0
LINE
8
Layer 1
10
89.684436
20
107.273351
11
88.118701
21
105.655536
0
LINE
8
Layer 1
10
88.118701
20
105.655536
11
86.388563
21
104.141511
0
LINE
8
Layer 1
10
86.388563
20
104.141511
11
84.864687
21
102.602237
0
LINE
8
Layer 1
10
84.864687
20
102.602237
11
84.295930
21
101.782809
0
LINE
8
Layer 1
10
84.295930
20
101.782809
11
83.917737
21
100.908679
0
LINE
8
Layer 1
10
83.917737
20
100.908679
11
83.776443
21
99.963720
0
LINE
8
Layer 1
10
83.776443
20
99.963720
11
83.918380
21
98.931800
0
LINE
8
Layer 1
10
83.918380
20
98.931800
11
83.100378
21
97.695376
0
LINE
8
Layer 1
10
83.100378
20
97.695376
11
82.373939
21
96.263845
0
LINE
8
Layer 1
10
82.373939
20
96.263845
11
81.102961
21
93.041345
0
LINE
8
Layer 1
10
81.102961
20
93.041345
11
79.919878
21
89.716073
0
LINE
8
Layer 1
10
79.919878
20
89.716073
11
78.639120
21
86.739800
0
LINE
8
Layer 1
10
78.639120
20
86.739800
11
78.639100
21
88.596500
0
LINE
8
Layer 1
10
78.639100
20
88.596500
11
77.645289
21
86.067273
0
LINE
8
Layer 1
10
77.645289
20
86.067273
11
77.187102
21
85.136458
0
LINE
8
Layer 1
10
77.187102
20
85.136458
11
76.751020
21
84.532914
0
LINE
8
Layer 1
10
76.751020
20
84.532914
11
76.334262
21
84.335192
0
LINE
8
Layer 1
10
76.334262
20
84.335192
11
75.934046
21
84.621845
0
LINE
8
Layer 1
10
75.934046
20
84.621845
11
75.547592
21
85.471427
0
LINE
8
Layer 1
10
75.547592
20
85.471427
11
75.172120
21
86.962490
0
LINE
8
Layer 1
10
75.172120
20
86.962490
11
74.046861
21
86.672104
0
LINE
8
Layer 1
10
74.046861
20
86.672104
11
72.871943
21
86.565833
0
LINE
8
Layer 1
10
72.871943
20
86.565833
11
71.660966
21
86.626859
0
LINE
8
Layer 1
10
71.660966
20
86.626859
11
70.427530
21
86.838364
0
LINE
8
Layer 1
10
70.427530
20
86.838364
11
67.947679
21
87.645538
0
LINE
8
Layer 1
10
67.947679
20
87.645538
11
65.541190
21
88.852810
0
LINE
8
Layer 1
10
65.541190
20
88.852810
11
64.228610
21
89.679633
0
LINE
8
Layer 1
10
64.228610
20
89.679633
11
62.484095
21
90.975207
0
LINE
8
Layer 1
10
62.484095
20
90.975207
11
60.972270
21
92.323576
0
LINE
8
Layer 1
10
60.972270
20
92.323576
11
59.756395
21
93.647438
0
LINE
8
Layer 1
10
59.756395
20
93.647438
11
58.899730
21
94.869493
0
LINE
8
Layer 1
10
58.899730
20
94.869493
11
59.335181
21
95.748797
0
LINE
8
Layer 1
10
59.335181
20
95.748797
11
59.484710
21
96.713823
0
LINE
8
Layer 1
10
59.484710
20
96.713823
11
59.219999
21
97.988032
0
LINE
8
Layer 1
10
59.219999
20
97.988032
11
58.498361
21
99.028576
0
LINE
8
Layer 1
10
58.498361
20
99.028576
11
57.428088
21
99.730167
0
LINE
8
Layer 1
10
57.428088
20
99.730167
11
56.117470
21
99.987523
0
LINE
8
Layer 1
10
56.117470
20
99.987523
11
55.981560
21
99.976673
0
LINE
8
Layer 1
10
55.981560
20
99.976673
11
55.248280
21
100.056253
0
LINE
8
Layer 1
10
55.248280
20
100.056253
11
54.027649
21
99.832727
0
LINE
8
Layer 1
10
54.027649
20
99.832727
11
53.010425
21
99.219115
0
LINE
8
Layer 1
10
53.010425
20
99.219115
11
52.280136
21
98.300473
0
LINE
8
Layer 1
10
52.280136
20
98.300473
11
51.920310
21
97.161853
0
LINE
8
Layer 1
10
51.920310
20
97.161853
11
51.897610
21
96.939128
0
LINE
8
Layer 1
10
51.897610
20
96.939128
11
51.881110
21
96.782548
0
LINE
8
Layer 1
10
51.881110
20
96.782548
11
51.890110
21
96.661625
0
LINE
8
Layer 1
10
51.890110
20
96.661625
11
52.039825
21
95.747016
0
LINE
8
Layer 1
10
52.039825
20
95.747016
11
52.447180
21
94.909795
0
LINE
8
Layer 1
10
52.447180
20
94.909795
11
51.381248
21
93.445148
0
LINE
8
Layer 1
10
51.381248
20
93.445148
11
49.830551
21
91.860100
0
LINE
8
Layer 1
10
49.830551
20
91.860100
11
47.899501
21
90.283398
0
LINE
8
Layer 1
10
47.899501
20
90.283398
11
45.692510
21
88.843789
0
LINE
8
Layer 1
10
45.692510
20
88.843789
11
43.313990
21
87.670018
0
LINE
8
Layer 1
10
43.313990
20
87.670018
11
40.868354
21
86.890833
0
LINE
8
Layer 1
10
40.868354
20
86.890833
11
38.460013
21
86.634980
0
LINE
8
Layer 1
10
38.460013
20
86.634980
11
37.302457
21
86.743536
0
LINE
8
Layer 1
10
37.302457
20
86.743536
11
36.193380
21
87.031205
0
LINE
8
Layer 1
10
36.193380
20
87.031205
11
35.851977
21
85.643822
0
LINE
8
Layer 1
10
35.851977
20
85.643822
11
35.502415
21
84.793231
0
LINE
8
Layer 1
10
35.502415
20
84.793231
11
35.142363
21
84.420523
0
LINE
8
Layer 1
10
35.142363
20
84.420523
11
34.769489
21
84.466792
0
LINE
8
Layer 1
10
34.769489
20
84.466792
11
34.381464
21
84.873131
0
LINE
8
Layer 1
10
34.381464
20
84.873131
11
33.975956
21
85.580633
0
LINE
8
Layer 1
10
33.975956
20
85.580633
11
33.103170
21
87.663499
0
LINE
8
Layer 1
10
33.103170
20
87.663499
11
32.132484
21
90.244133
0
LINE
8
Layer 1
10
32.132484
20
90.244133
11
31.045253
21
92.851281
0
LINE
8
Layer 1
10
31.045253
20
92.851281
11
29.822831
21
95.013687
0
LINE
8
Layer 1
10
29.822831
20
95.013687
11
29.155095
21
95.780844
0
LINE
8
Layer 1
10
29.155095
20
95.780844
11
28.446570
21
96.260095
0
LINE
8
Layer 1
10
28.446570
20
96.260095
11
25.710273
21
100.837566
0
LINE
8
Layer 1
10
25.710273
20
100.837566
11
24.376946
21
103.233908
0
LINE
8
Layer 1
10
24.376946
20
103.233908
11
23.272593
21
105.700102
0
LINE
8
Layer 1
10
23.272593
20
105.700102
11
22.551533
21
108.234733
0
LINE
8
Layer 1
10
22.551533
20
108.234733
11
22.382964
21
109.527270
0
LINE
8
Layer 1
10
22.382964
20
109.527270
11
22.368088
21
110.836385
0
LINE
8
Layer 1
10
22.368088
20
110.836385
11
22.526196
21
112.161902
0
LINE
8
Layer 1
10
22.526196
20
112.161902
11
22.876577
21
113.503644
0
LINE
8
Layer 1
10
22.876577
20
113.503644
11
23.438522
21
114.861434
0
LINE
8
Layer 1
10
23.438522
20
114.861434
11
24.231320
21
116.235095
0
LINE
8
Layer 1
10
24.231320
20
116.235095
11
25.288364
21
117.285135
0
LINE
8
Layer 1
10
25.288364
20
117.285135
11
25.690291
21
117.449222
0
LINE
8
Layer 1
10
25.690291
20
117.449222
11
26.024032
21
117.428928
0
LINE
8
Layer 1
10
26.024032
20
117.428928
11
26.535589
21
117.003918
0
LINE
8
Layer 1
10
26.535589
20
117.003918
11
26.920299
21
116.347553
0
LINE
8
Layer 1
10
26.920299
20
116.347553
11
27.275424
21
115.797277
0
LINE
8
Layer 1
10
27.275424
20
115.797277
11
27.472287
21
115.667376
0
LINE
8
Layer 1
10
27.472287
20
115.667376
11
27.698228
21
115.690539
0
LINE
8
Layer 1
10
27.698228
20
115.690539
11
28.285976
21
116.364783
0
LINE
8
Layer 1
10
28.285976
20
116.364783
11
29.135930
21
118.157455
0
LINE
8
Layer 1
10
29.135930
20
118.157455
11
25.847500
21
118.249000
0
LINE
8
Layer 1
10
13.616300
20
59.070900
11
11.811338
21
62.375013
0
LINE
8
Layer 1
10
11.811338
20
62.375013
11
10.140700
21
65.739800
0
LINE
8
Layer 1
10
10.140700
20
65.739800
11
8.819515
21
69.881750
0
LINE
8
Layer 1
10
8.819515
20
69.881750
11
7.154650
21
73.897700
0
LINE
8
Layer 1
10
7.154650
20
73.897700
11
6.718991
21
74.895244
0
LINE
8
Layer 1
10
6.718991
20
74.895244
11
6.573826
21
75.942025
0
LINE
8
Layer 1
10
6.573826
20
75.942025
11
6.685200
21
78.097500
0
LINE
8
Layer 1
10
6.685200
20
78.097500
11
7.283010
21
89.343900
0
LINE
8
Layer 1
10
7.283010
20
89.343900
11
8.852386
21
94.010546
0
LINE
8
Layer 1
10
8.852386
20
94.010546
11
9.734932
21
96.302825
0
LINE
8
Layer 1
10
9.734932
20
96.302825
11
10.850650
21
98.494980
0
LINE
8
Layer 1
10
10.850650
20
98.494980
11
11.389132
21
99.496480
0
LINE
8
Layer 1
10
11.389132
20
99.496480
11
12.119154
21
100.418517
0
LINE
8
Layer 1
10
12.119154
20
100.418517
11
13.020531
21
101.111944
0
LINE
8
Layer 1
10
13.020531
20
101.111944
11
14.073080
21
101.427610
0
LINE
8
Layer 1
10
14.073080
20
101.427610
11
17.416210
21
100.870422
0
LINE
8
Layer 1
10
17.416210
20
100.870422
11
19.820520
21
98.502586
0
LINE
8
Layer 1
10
19.820520
20
98.502586
11
20.968007
21
97.270859
0
LINE
8
Layer 1
10
20.968007
20
97.270859
11
21.964850
21
95.922132
0
LINE
8
Layer 1
10
21.964850
20
95.922132
11
23.147567
21
93.434477
0
LINE
8
Layer 1
10
23.147567
20
93.434477
11
24.008360
21
90.820612
0
LINE
8
Layer 1
10
24.008360
20
90.820612
11
24.777116
21
87.413458
0
LINE
8
Layer 1
10
24.777116
20
87.413458
11
25.093570
21
83.935332
0
LINE
8
Layer 1
10
25.093570
20
83.935332
11
24.217307
21
79.940728
0
LINE
8
Layer 1
10
24.217307
20
79.940728
11
23.584957
21
77.994124
0
LINE
8
Layer 1
10
23.584957
20
77.994124
11
22.769660
21
76.117042
0
LINE
8
Layer 1
10
22.769660
20
76.117042
11
21.094117
21
72.016666
0
LINE
8
Layer 1
10
21.094117
20
72.016666
11
19.212610
21
68.009282
0
LINE
8
Layer 1
10
19.212610
20
68.009282
11
18.511470
21
66.738917
0
LINE
8
Layer 1
10
18.511470
20
66.738917
11
17.504188
21
65.729023
0
LINE
8
Layer 1
10
17.504188
20
65.729023
11
16.418436
21
64.779619
0
LINE
8
Layer 1
10
16.418436
20
64.779619
11
15.481890
21
63.690722
0
LINE
8
Layer 1
10
15.481890
20
63.690722
11
14.714501
21
62.624008
0
LINE
8
Layer 1
10
14.714501
20
62.624008
11
14.102477
21
61.546766
0
LINE
8
Layer 1
10
14.102477
20
61.546766
11
13.713756
21
60.386556
0
LINE
8
Layer 1
10
13.713756
20
60.386556
11
13.616270
21
59.070942
0
LINE
8
Layer 1
10
13.616270
20
59.070942
11
13.616300
21
59.070900
0
LINE
8
Layer 1
10
98.249000
20
59.654700
11
100.053941
21
62.958782
0
LINE
8
Layer 1
10
100.053941
20
62.958782
11
101.724520
21
66.323540
0
LINE
8
Layer 1
10
101.724520
20
66.323540
11
103.045741
21
70.465524
0
LINE
8
Layer 1
10
103.045741
20
70.465524
11
104.710620
21
74.481470
0
LINE
8
Layer 1
10
104.710620
20
74.481470
11
105.146273
21
75.479005
0
LINE
8
Layer 1
10
105.146273
20
75.479005
11
105.291435
21
76.525790
0
LINE
8
Layer 1
10
105.291435
20
76.525790
11
105.180060
21
78.681320
0
LINE
8
Layer 1
10
105.180060
20
78.681320
11
104.582250
21
89.927620
0
LINE
8
Layer 1
10
104.582250
20
89.927620
11
103.012874
21
94.594266
0
LINE
8
Layer 1
10
103.012874
20
94.594266
11
102.130328
21
96.886545
0
LINE
8
Layer 1
10
102.130328
20
96.886545
11
101.014610
21
99.078700
0
LINE
8
Layer 1
10
101.014610
20
99.078700
11
100.476129
21
100.080200
0
LINE
8
Layer 1
10
100.476129
20
100.080200
11
99.746107
21
101.002237
0
LINE
8
Layer 1
10
99.746107
20
101.002237
11
98.844730
21
101.695664
0
LINE
8
Layer 1
10
98.844730
20
101.695664
11
97.792180
21
102.011330
0
LINE
8
Layer 1
10
97.792180
20
102.011330
11
94.449040
21
101.454142
0
LINE
8
Layer 1
10
94.449040
20
101.454142
11
92.044739
21
99.086306
0
LINE
8
Layer 1
10
92.044739
20
99.086306
11
90.897253
21
97.854579
0
LINE
8
Layer 1
10
90.897253
20
97.854579
11
89.900410
21
96.505852
0
LINE
8
Layer 1
10
89.900410
20
96.505852
11
88.717694
21
94.018197
0
LINE
8
Layer 1
10
88.717694
20
94.018197
11
87.856900
21
91.404332
0
LINE
8
Layer 1
10
87.856900
20
91.404332
11
87.088144
21
87.997178
0
LINE
8
Layer 1
10
87.088144
20
87.997178
11
86.771690
21
84.519052
0
LINE
8
Layer 1
10
86.771690
20
84.519052
11
87.647959
21
80.524448
0
LINE
8
Layer 1
10
87.647959
20
80.524448
11
88.280308
21
78.577844
0
LINE
8
Layer 1
10
88.280308
20
78.577844
11
89.095600
21
76.700762
0
LINE
8
Layer 1
10
89.095600
20
76.700762
11
90.771147
21
72.600386
0
LINE
8
Layer 1
10
90.771147
20
72.600386
11
92.652660
21
68.593002
0
LINE
8
Layer 1
10
92.652660
20
68.593002
11
93.353800
21
67.322637
0
LINE
8
Layer 1
10
93.353800
20
67.322637
11
94.361082
21
66.312743
0
LINE
8
Layer 1
10
94.361082
20
66.312743
11
95.446834
21
65.363339
0
LINE
8
Layer 1
10
95.446834
20
65.363339
11
96.383380
21
64.274442
0
LINE
8
Layer 1
10
96.383380
20
64.274442
11
97.150769
21
63.207728
0
LINE
8
Layer 1
10
97.150769
20
63.207728
11
97.762793
21
62.130486
0
LINE
8
Layer 1
10
97.762793
20
62.130486
11
98.151514
21
60.970276
0
LINE
8
Layer 1
10
98.151514
20
60.970276
11
98.249000
21
59.654662
0
LINE
8
Layer 1
10
98.249000
20
59.654662
11
98.249000
21
59.654700
0
LINE
8
Layer 1
10
19.912300
20
111.752000
11
20.488334
21
108.175540
0
LINE
8
Layer 1
10
20.488334
20
108.175540
11
20.847494
21
106.410154
0
LINE
8
Layer 1
10
20.847494
20
106.410154
11
21.506380
21
104.748000
0
LINE
8
Layer 1
10
21.506380
20
104.748000
11
23.040459
21
102.019615
0
LINE
8
Layer 1
10
23.040459
20
102.019615
11
24.747410
21
99.396350
0
LINE
8
Layer 1
10
24.747410
20
99.396350
11
28.235507
21
92.298359
0
LINE
8
Layer 1
10
28.235507
20
92.298359
11
31.847430
21
85.271550
0
LINE
8
Layer 1
10
31.847430
20
85.271550
11
32.052090
21
83.618779
0
LINE
8
Layer 1
10
32.052090
20
83.618779
11
32.035315
21
81.927101
0
LINE
8
Layer 1
10
32.035315
20
81.927101
11
31.620245
21
80.338078
0
LINE
8
Layer 1
10
31.620245
20
80.338078
11
31.208081
21
79.626299
0
LINE
8
Layer 1
10
31.208081
20
79.626299
11
30.630020
21
78.993270
0
LINE
8
Layer 1
10
30.630020
20
78.993270
11
29.658051
21
78.266240
0
LINE
8
Layer 1
10
29.658051
20
78.266240
11
28.393919
21
77.793616
0
LINE
8
Layer 1
10
28.393919
20
77.793616
11
27.849511
21
77.777014
0
LINE
8
Layer 1
10
27.849511
20
77.777014
11
27.468723
21
77.973182
0
LINE
8
Layer 1
10
27.468723
20
77.973182
11
27.330444
21
78.431844
0
LINE
8
Layer 1
10
27.330444
20
78.431844
11
27.513560
21
79.202722
0
LINE
8
Layer 1
10
27.513560
20
79.202722
11
27.639492
21
85.089812
0
LINE
8
Layer 1
10
27.639492
20
85.089812
11
27.483463
21
88.027365
0
LINE
8
Layer 1
10
27.483463
20
88.027365
11
27.076289
21
90.939822
0
LINE
8
Layer 1
10
27.076289
20
90.939822
11
25.400700
21
92.986567
0
LINE
8
Layer 1
10
25.400700
20
92.986567
11
24.679349
21
94.078524
0
LINE
8
Layer 1
10
24.679349
20
94.078524
11
24.203379
21
95.310452
0
LINE
8
Layer 1
10
24.203379
20
95.310452
11
22.760029
21
99.282124
0
LINE
8
Layer 1
10
22.760029
20
99.282124
11
21.935224
21
101.219419
0
LINE
8
Layer 1
10
21.935224
20
101.219419
11
20.875499
21
103.046932
0
LINE
8
Layer 1
10
20.875499
20
103.046932
11
19.661002
21
105.130671
0
LINE
8
Layer 1
10
19.661002
20
105.130671
11
19.270912
21
106.257858
0
LINE
8
Layer 1
10
19.270912
20
106.257858
11
19.201289
21
107.446452
0
LINE
8
Layer 1
10
19.201289
20
107.446452
11
19.912296
21
111.751962
0
LINE
8
Layer 1
10
19.912296
20
111.751962
11
19.912300
21
111.752000
0
LINE
8
Layer 1
10
91.463300
20
109.241000
11
90.887266
21
105.664536
0
LINE
8
Layer 1
10
90.887266
20
105.664536
11
90.528106
21
103.899150
0
LINE
8
Layer 1
10
90.528106
20
103.899150
11
89.869220
21
102.237000
0
LINE
8
Layer 1
10
89.869220
20
102.237000
11
88.335144
21
99.508615
0
LINE
8
Layer 1
10
88.335144
20
99.508615
11
86.628200
21
96.885350
0
LINE
8
Layer 1
10
86.628200
20
96.885350
11
83.140101
21
89.787359
0
LINE
8
Layer 1
10
83.140101
20
89.787359
11
79.528170
21
82.760550
0
LINE
8
Layer 1
10
79.528170
20
82.760550
11
79.323510
21
81.107779
0
LINE
8
Layer 1
10
79.323510
20
81.107779
11
79.340285
21
79.416101
0
LINE
8
Layer 1
10
79.340285
20
79.416101
11
79.755355
21
77.827078
0
LINE
8
Layer 1
10
79.755355
20
77.827078
11
80.167520
21
77.115299
0
LINE
8
Layer 1
10
80.167520
20
77.115299
11
80.745580
21
76.482270
0
LINE
8
Layer 1
10
80.745580
20
76.482270
11
81.717545
21
75.755240
0
LINE
8
Layer 1
10
81.717545
20
75.755240
11
82.981675
21
75.282616
0
LINE
8
Layer 1
10
82.981675
20
75.282616
11
83.526084
21
75.266014
0
LINE
8
Layer 1
10
83.526084
20
75.266014
11
83.906872
21
75.462182
0
LINE
8
Layer 1
10
83.906872
20
75.462182
11
84.045153
21
75.920844
0
LINE
8
Layer 1
10
84.045153
20
75.920844
11
83.862040
21
76.691722
0
LINE
8
Layer 1
10
83.862040
20
76.691722
11
83.736110
21
82.578812
0
LINE
8
Layer 1
10
83.736110
20
82.578812
11
83.892137
21
85.516365
0
LINE
8
Layer 1
10
83.892137
20
85.516365
11
84.299310
21
88.428822
0
LINE
8
Layer 1
10
84.299310
20
88.428822
11
85.974902
21
90.475567
0
LINE
8
Layer 1
10
85.974902
20
90.475567
11
86.696252
21
91.567524
0
LINE
8
Layer 1
10
86.696252
20
91.567524
11
87.172220
21
92.799452
0
LINE
8
Layer 1
10
87.172220
20
92.799452
11
88.615574
21
96.771124
0
LINE
8
Layer 1
10
88.615574
20
96.771124
11
89.440376
21
98.708419
0
LINE
8
Layer 1
10
89.440376
20
98.708419
11
90.500100
21
100.535932
0
LINE
8
Layer 1
10
90.500100
20
100.535932
11
91.714597
21
102.619675
0
LINE
8
Layer 1
10
91.714597
20
102.619675
11
92.104687
21
103.746859
0
LINE
8
Layer 1
10
92.104687
20
103.746859
11
92.174310
21
104.935452
0
LINE
8
Layer 1
10
92.174310
20
104.935452
11
91.463300
21
109.240962
0
LINE
8
Layer 1
10
91.463300
20
109.240962
11
91.463300
21
109.241000
0
LINE
8
Layer 1
10
18.492900
20
57.740900
11
19.465660
21
59.075057
0
LINE
8
Layer 1
10
19.465660
20
59.075057
11
20.162340
21
60.472663
0
LINE
8
Layer 1
10
20.162340
20
60.472663
11
21.442350
21
63.521690
0
LINE
8
Layer 1
10
21.442350
20
63.521690
11
22.088457
21
64.639564
0
LINE
8
Layer 1
10
22.088457
20
64.639564
11
22.830497
21
65.694484
0
LINE
8
Layer 1
10
22.830497
20
65.694484
11
23.748868
21
66.542094
0
LINE
8
Layer 1
10
23.748868
20
66.542094
11
24.923970
21
67.038040
0
LINE
8
Layer 1
10
24.923970
20
67.038040
11
27.654481
21
69.273504
0
LINE
8
Layer 1
10
27.654481
20
69.273504
11
31.049980
21
71.941020
0
LINE
8
Layer 1
10
31.049980
20
71.941020
11
32.711060
21
72.909035
0
LINE
8
Layer 1
10
32.711060
20
72.909035
11
33.033001
21
73.963566
0
LINE
8
Layer 1
10
33.033001
20
73.963566
11
33.196087
21
74.995996
0
LINE
8
Layer 1
10
33.196087
20
74.995996
11
33.133459
21
77.108075
0
LINE
8
Layer 1
10
33.133459
20
77.108075
11
32.953110
21
75.711862
0
LINE
8
Layer 1
10
32.953110
20
75.711862
11
32.405453
21
74.376795
0
LINE
8
Layer 1
10
32.405453
20
74.376795
11
32.047496
21
73.700159
0
LINE
8
Layer 1
10
32.047496
20
73.700159
11
31.584676
21
73.127823
0
LINE
8
Layer 1
10
31.584676
20
73.127823
11
30.458137
21
72.214690
0
LINE
8
Layer 1
10
30.458137
20
72.214690
11
29.253226
21
71.474672
0
LINE
8
Layer 1
10
29.253226
20
71.474672
11
28.197333
21
70.745045
0
LINE
8
Layer 1
10
28.197333
20
70.745045
11
25.947897
21
69.128723
0
LINE
8
Layer 1
10
25.947897
20
69.128723
11
23.705783
21
67.334558
0
LINE
8
Layer 1
10
23.705783
20
67.334558
11
21.744296
21
65.381006
0
LINE
8
Layer 1
10
21.744296
20
65.381006
11
20.954196
21
64.350228
0
LINE
8
Layer 1
10
20.954196
20
64.350228
11
20.336743
21
63.286525
0
LINE
8
Layer 1
10
20.336743
20
63.286525
11
19.365369
21
60.530836
0
LINE
8
Layer 1
10
19.365369
20
60.530836
11
18.492903
21
57.740895
0
LINE
8
Layer 1
10
18.492903
20
57.740895
11
18.492900
21
57.740900
0
LINE
8
Layer 1
10
91.662700
20
57.240500
11
90.689940
21
58.574657
0
LINE
8
Layer 1
10
90.689940
20
58.574657
11
89.993260
21
59.972262
0
LINE
8
Layer 1
10
89.993260
20
59.972262
11
88.713250
21
63.021290
0
LINE
8
Layer 1
10
88.713250
20
63.021290
11
88.067145
21
64.139164
0
LINE
8
Layer 1
10
88.067145
20
64.139164
11
87.325106
21
65.194084
0
LINE
8
Layer 1
10
87.325106
20
65.194084
11
86.406737
21
66.041694
0
LINE
8
Layer 1
10
86.406737
20
66.041694
11
85.231640
21
66.537640
0
LINE
8
Layer 1
10
85.231640
20
66.537640
11
82.501121
21
68.773104
0
LINE
8
Layer 1
10
82.501121
20
68.773104
11
79.105630
21
71.440620
0
LINE
8
Layer 1
10
79.105630
20
71.440620
11
77.444500
21
72.408700
0
LINE
8
Layer 1
10
77.444500
20
72.408700
11
77.122558
21
73.463231
0
LINE
8
Layer 1
10
77.122558
20
73.463231
11
76.959471
21
74.495661
0
LINE
8
Layer 1
10
76.959471
20
74.495661
11
77.022100
21
76.607740
0
LINE
8
Layer 1
10
77.022100
20
76.607740
11
77.202448
21
75.211527
0
LINE
8
Layer 1
10
77.202448
20
75.211527
11
77.750100
21
73.876460
0
LINE
8
Layer 1
10
77.750100
20
73.876460
11
78.108058
21
73.199824
0
LINE
8
Layer 1
10
78.108058
20
73.199824
11
78.570879
21
72.627488
0
LINE
8
Layer 1
10
78.570879
20
72.627488
11
79.697418
21
71.714355
0
LINE
8
Layer 1
10
79.697418
20
71.714355
11
80.902327
21
70.974337
0
LINE
8
Layer 1
10
80.902327
20
70.974337
11
81.958220
21
70.244710
0
LINE
8
Layer 1
10
81.958220
20
70.244710
11
84.207656
21
68.628388
0
LINE
8
Layer 1
10
84.207656
20
68.628388
11
86.449770
21
66.834223
0
LINE
8
Layer 1
10
86.449770
20
66.834223
11
88.411257
21
64.880671
0
LINE
8
Layer 1
10
88.411257
20
64.880671
11
89.201357
21
63.849893
0
LINE
8
Layer 1
10
89.201357
20
63.849893
11
89.818810
21
62.786190
0
LINE
8
Layer 1
10
89.818810
20
62.786190
11
90.790189
21
60.030501
0
LINE
8
Layer 1
10
90.790189
20
60.030501
11
91.662650
21
57.240560
0
LINE
8
Layer 1
10
91.662650
20
57.240560
11
91.662700
21
57.240500
0
LINE
8
Layer 1
10
27.422800
20
59.007600
11
26.398472
21
58.523844
0
LINE
8
Layer 1
10
26.398472
20
58.523844
11
25.902756
21
58.467244
0
LINE
8
Layer 1
10
25.902756
20
58.467244
11
25.519450
21
58.855953
0
LINE
8
Layer 1
10
25.519450
20
58.855953
11
25.412821
21
59.837050
0
LINE
8
Layer 1
10
25.412821
20
59.837050
11
25.445856
21
60.843734
0
LINE
8
Layer 1
10
25.445856
20
60.843734
11
25.712460
21
61.786993
0
LINE
8
Layer 1
10
25.712460
20
61.786993
11
26.306535
21
62.577813
0
LINE
8
Layer 1
10
26.306535
20
62.577813
11
30.474409
21
65.907584
0
LINE
8
Layer 1
10
30.474409
20
65.907584
11
32.798619
21
67.624306
0
LINE
8
Layer 1
10
32.798619
20
67.624306
11
33.777328
21
68.196381
0
LINE
8
Layer 1
10
33.777328
20
68.196381
11
34.541025
21
68.463603
0
LINE
8
Layer 1
10
34.541025
20
68.463603
11
35.524158
21
66.405581
0
LINE
8
Layer 1
10
35.524158
20
66.405581
11
36.654732
21
63.487906
0
LINE
8
Layer 1
10
36.654732
20
63.487906
11
37.103226
21
61.976041
0
LINE
8
Layer 1
10
37.103226
20
61.976041
11
37.382080
21
60.572476
0
LINE
8
Layer 1
10
37.382080
20
60.572476
11
37.422461
21
59.384948
0
LINE
8
Layer 1
10
37.422461
20
59.384948
11
37.155535
21
58.521193
0
LINE
8
Layer 1
10
37.155535
20
58.521193
11
36.632176
21
58.352519
0
LINE
8
Layer 1
10
36.632176
20
58.352519
11
36.167433
21
58.537433
0
LINE
8
Layer 1
10
36.167433
20
58.537433
11
35.786420
21
58.934049
0
LINE
8
Layer 1
10
35.786420
20
58.934049
11
35.514255
21
59.400479
0
LINE
8
Layer 1
10
35.514255
20
59.400479
11
34.824849
21
60.091256
0
LINE
8
Layer 1
10
34.824849
20
60.091256
11
33.913938
21
60.718569
0
LINE
8
Layer 1
10
33.913938
20
60.718569
11
32.920716
21
61.213362
0
LINE
8
Layer 1
10
32.920716
20
61.213362
11
31.984375
21
61.506579
0
LINE
8
Layer 1
10
31.984375
20
61.506579
11
32.182052
21
62.380871
0
LINE
8
Layer 1
10
32.182052
20
62.380871
11
32.238135
21
63.066209
0
LINE
8
Layer 1
10
32.238135
20
63.066209
11
32.014483
21
63.462549
0
LINE
8
Layer 1
10
32.014483
20
63.462549
11
31.686258
21
63.746627
0
LINE
8
Layer 1
10
31.686258
20
63.746627
11
30.843836
21
63.989382
0
LINE
8
Layer 1
10
30.843836
20
63.989382
11
29.966371
21
63.817241
0
LINE
8
Layer 1
10
29.966371
20
63.817241
11
29.309365
21
63.252972
0
LINE
8
Layer 1
10
29.309365
20
63.252972
11
29.223164
21
62.899039
0
LINE
8
Layer 1
10
29.223164
20
62.899039
11
29.296584
21
62.477710
0
LINE
8
Layer 1
10
29.296584
20
62.477710
11
29.577719
21
61.465232
0
LINE
8
Layer 1
10
29.577719
20
61.465232
11
29.044318
21
61.070913
0
LINE
8
Layer 1
10
29.044318
20
61.070913
11
28.582049
21
61.049403
0
LINE
8
Layer 1
10
28.582049
20
61.049403
11
27.879520
21
61.428970
0
LINE
8
Layer 1
10
27.879520
20
61.428970
11
27.643567
21
61.482124
0
LINE
8
Layer 1
10
27.643567
20
61.482124
11
27.487358
21
61.212245
0
LINE
8
Layer 1
10
27.487358
20
61.212245
11
27.422789
21
59.007542
0
LINE
8
Layer 1
10
27.422789
20
59.007542
11
27.422800
21
59.007600
0
LINE
8
Layer 1
10
82.784400
20
59.041100
11
83.808731
21
58.557344
0
LINE
8
Layer 1
10
83.808731
20
58.557344
11
84.304448
21
58.500744
0
LINE
8
Layer 1
10
84.304448
20
58.500744
11
84.687750
21
58.889453
0
LINE
8
Layer 1
10
84.687750
20
58.889453
11
84.794381
21
59.870550
0
LINE
8
Layer 1
10
84.794381
20
59.870550
11
84.761348
21
60.877234
0
LINE
8
Layer 1
10
84.761348
20
60.877234
11
84.494745
21
61.820493
0
LINE
8
Layer 1
10
84.494745
20
61.820493
11
83.900670
21
62.611313
0
LINE
8
Layer 1
10
83.900670
20
62.611313
11
79.732796
21
65.941084
0
LINE
8
Layer 1
10
79.732796
20
65.941084
11
77.408586
21
67.657806
0
LINE
8
Layer 1
10
77.408586
20
67.657806
11
76.429877
21
68.229881
0
LINE
8
Layer 1
10
76.429877
20
68.229881
11
75.666180
21
68.497103
0
LINE
8
Layer 1
10
75.666180
20
68.497103
11
74.683047
21
66.439081
0
LINE
8
Layer 1
10
74.683047
20
66.439081
11
73.552473
21
63.521406
0
LINE
8
Layer 1
10
73.552473
20
63.521406
11
73.103979
21
62.009541
0
LINE
8
Layer 1
10
73.103979
20
62.009541
11
72.825125
21
60.605976
0
LINE
8
Layer 1
10
72.825125
20
60.605976
11
72.784744
21
59.418448
0
LINE
8
Layer 1
10
72.784744
20
59.418448
11
73.051670
21
58.554693
0
LINE
8
Layer 1
10
73.051670
20
58.554693
11
73.575026
21
58.386019
0
LINE
8
Layer 1
10
73.575026
20
58.386019
11
74.039770
21
58.570933
0
LINE
8
Layer 1
10
74.039770
20
58.570933
11
74.420784
21
58.967549
0
LINE
8
Layer 1
10
74.420784
20
58.967549
11
74.692950
21
59.433979
0
LINE
8
Layer 1
10
74.692950
20
59.433979
11
75.382354
21
60.124756
0
LINE
8
Layer 1
10
75.382354
20
60.124756
11
76.293265
21
60.752069
0
LINE
8
Layer 1
10
76.293265
20
60.752069
11
77.286488
21
61.246862
0
LINE
8
Layer 1
10
77.286488
20
61.246862
11
78.222830
21
61.540079
0
LINE
8
Layer 1
10
78.222830
20
61.540079
11
78.025146
21
62.414371
0
LINE
8
Layer 1
10
78.025146
20
62.414371
11
77.969070
21
63.099709
0
LINE
8
Layer 1
10
77.969070
20
63.099709
11
78.192720
21
63.496049
0
LINE
8
Layer 1
10
78.192720
20
63.496049
11
78.520944
21
63.780127
0
LINE
8
Layer 1
10
78.520944
20
63.780127
11
79.363364
21
64.022882
0
LINE
8
Layer 1
10
79.363364
20
64.022882
11
80.240829
21
63.850741
0
LINE
8
Layer 1
10
80.240829
20
63.850741
11
80.897840
21
63.286472
0
LINE
8
Layer 1
10
80.897840
20
63.286472
11
80.984039
21
62.932539
0
LINE
8
Layer 1
10
80.984039
20
62.932539
11
80.910619
21
62.511210
0
LINE
8
Layer 1
10
80.910619
20
62.511210
11
80.629480
21
61.498732
0
LINE
8
Layer 1
10
80.629480
20
61.498732
11
81.162881
21
61.104413
0
LINE
8
Layer 1
10
81.162881
20
61.104413
11
81.625151
21
61.082903
0
LINE
8
Layer 1
10
81.625151
20
61.082903
11
82.327683
21
61.462470
0
LINE
8
Layer 1
10
82.327683
20
61.462470
11
82.563637
21
61.515624
0
LINE
8
Layer 1
10
82.563637
20
61.515624
11
82.719845
21
61.245745
0
LINE
8
Layer 1
10
82.719845
20
61.245745
11
82.784410
21
59.041042
0
LINE
8
Layer 1
10
82.784410
20
59.041042
11
82.784400
21
59.041100
0
LINE
8
Layer 1
10
32.426000
20
49.571000
11
33.882650
21
51.344310
0
LINE
8
Layer 1
10
33.882650
20
51.344310
11
35.592630
21
51.597640
0
LINE
8
Layer 1
10
35.592630
20
51.597640
11
37.302610
21
51.660970
0
LINE
8
Layer 1
10
37.302610
20
51.660970
11
38.125935
21
50.584320
0
LINE
8
Layer 1
10
38.125935
20
50.584320
11
38.308016
21
50.338906
0
LINE
8
Layer 1
10
38.308016
20
50.338906
11
38.312964
21
50.183544
0
LINE
8
Layer 1
10
38.312964
20
50.183544
11
38.062605
21
50.140993
0
LINE
8
Layer 1
10
38.062605
20
50.140993
11
35.529305
21
50.457654
0
LINE
8
Layer 1
10
35.529305
20
50.457654
11
32.426000
21
49.571000
0
LINE
8
Layer 1
10
35.276000
20
53.687600
11
35.845991
21
56.410900
0
LINE
8
Layer 1
10
35.845991
20
56.410900
11
37.239311
21
57.424220
0
LINE
8
Layer 1
10
37.239311
20
57.424220
11
38.885951
21
57.107559
0
LINE
8
Layer 1
10
38.885951
20
57.107559
11
40.912591
21
56.727565
0
LINE
8
Layer 1
10
40.912591
20
56.727565
11
40.975921
21
55.524245
0
LINE
8
Layer 1
10
40.975921
20
55.524245
11
40.659257
21
54.194265
0
LINE
8
Layer 1
10
40.659257
20
54.194265
11
40.722590
21
53.434276
0
LINE
8
Layer 1
10
40.722590
20
53.434276
11
40.712695
21
53.107716
0
LINE
8
Layer 1
10
40.712695
20
53.107716
11
40.595927
21
53.054275
0
LINE
8
Layer 1
10
40.595927
20
53.054275
11
38.885947
21
54.447595
0
LINE
8
Layer 1
10
38.885947
20
54.447595
11
37.429297
21
54.764259
0
LINE
8
Layer 1
10
37.429297
20
54.764259
11
36.162647
21
53.940934
0
LINE
8
Layer 1
10
36.162647
20
53.940934
11
35.276000
21
53.687600
0
LINE
8
Layer 1
10
37.112600
20
74.524000
11
37.845699
21
77.597220
0
LINE
8
Layer 1
10
37.845699
20
77.597220
11
38.575945
21
78.938730
0
LINE
8
Layer 1
10
38.575945
20
78.938730
11
39.343619
21
78.591992
0
LINE
8
Layer 1
10
39.343619
20
78.591992
11
39.431929
21
79.552380
0
LINE
8
Layer 1
10
39.431929
20
79.552380
11
40.532559
21
79.273941
0
LINE
8
Layer 1
10
40.532559
20
79.273941
11
40.928387
21
80.429761
0
LINE
8
Layer 1
10
40.928387
20
80.429761
11
42.179207
21
79.970599
0
LINE
8
Layer 1
10
42.179207
20
79.970599
11
42.448370
21
81.221419
0
LINE
8
Layer 1
10
42.448370
20
81.221419
11
43.445857
21
80.477263
0
LINE
8
Layer 1
10
43.445857
20
80.477263
11
44.031684
21
81.601413
0
LINE
8
Layer 1
10
44.031684
20
81.601413
11
45.155834
21
80.983921
0
LINE
8
Layer 1
10
45.155834
20
80.983921
11
45.614996
21
81.997241
0
LINE
8
Layer 1
10
45.614996
20
81.997241
11
46.549151
21
81.490580
0
LINE
8
Layer 1
10
46.549151
20
81.490580
11
47.087489
21
82.266404
0
LINE
8
Layer 1
10
47.087489
20
82.266404
11
47.879139
21
81.680577
0
LINE
8
Layer 1
10
47.879139
20
81.680577
11
48.528299
21
82.725567
0
LINE
8
Layer 1
10
48.528299
20
82.725567
11
49.272449
21
82.123908
0
LINE
8
Layer 1
10
49.272449
20
82.123908
11
49.874109
21
83.422228
0
LINE
8
Layer 1
10
49.874109
20
83.422228
11
50.729109
21
82.250578
0
LINE
8
Layer 1
10
50.729109
20
82.250578
11
51.425759
21
83.580558
0
LINE
8
Layer 1
10
51.425759
20
83.580558
11
51.979919
21
82.456408
0
LINE
8
Layer 1
10
51.979919
20
82.456408
11
52.407419
21
83.358896
0
LINE
8
Layer 1
10
52.407419
20
83.358896
11
53.199069
21
82.567239
0
LINE
8
Layer 1
10
53.199069
20
82.567239
11
53.484067
21
83.493478
0
LINE
8
Layer 1
10
53.484067
20
83.493478
11
53.666641
21
84.076830
0
LINE
8
Layer 1
10
53.666641
20
84.076830
11
53.721559
21
84.229719
0
LINE
8
Layer 1
10
53.721559
20
84.229719
11
54.259902
21
83.335151
0
LINE
8
Layer 1
10
54.259902
20
83.335151
11
54.845719
21
82.630579
0
LINE
8
Layer 1
10
54.845719
20
82.630579
11
55.099049
21
82.899741
0
LINE
8
Layer 1
10
55.099049
20
82.899741
11
55.415719
21
82.551413
0
LINE
8
Layer 1
10
55.415719
20
82.551413
11
56.349869
21
84.261393
0
LINE
8
Layer 1
10
56.349869
20
84.261393
11
56.572505
21
83.112551
0
LINE
8
Layer 1
10
56.572505
20
83.112551
11
56.762388
21
82.644752
0
LINE
8
Layer 1
10
56.762388
20
82.644752
11
57.204859
21
82.519753
0
LINE
8
Layer 1
10
57.204859
20
82.519753
11
57.759019
21
83.580573
0
LINE
8
Layer 1
10
57.759019
20
83.580573
11
58.550669
21
82.408923
0
LINE
8
Layer 1
10
58.550669
20
82.408923
11
59.152329
21
83.580573
0
LINE
8
Layer 1
10
59.152329
20
83.580573
11
59.848989
21
82.250593
0
LINE
8
Layer 1
10
59.848989
20
82.250593
11
60.798979
21
83.137247
0
LINE
8
Layer 1
10
60.798979
20
83.137247
11
61.020609
21
81.997257
0
LINE
8
Layer 1
10
61.020609
20
81.997257
11
62.065599
21
82.757247
0
LINE
8
Layer 1
10
62.065599
20
82.757247
11
62.477259
21
81.522267
0
LINE
8
Layer 1
10
62.477259
20
81.522267
11
63.142249
21
82.313923
0
LINE
8
Layer 1
10
63.142249
20
82.313923
11
63.458909
21
81.237273
0
LINE
8
Layer 1
10
63.458909
20
81.237273
11
64.408899
21
82.123929
0
LINE
8
Layer 1
10
64.408899
20
82.123929
11
64.788899
21
81.047279
0
LINE
8
Layer 1
10
64.788899
20
81.047279
11
65.548889
21
81.743937
0
LINE
8
Layer 1
10
65.548889
20
81.743937
11
65.865549
21
80.698947
0
LINE
8
Layer 1
10
65.865549
20
80.698947
11
66.815539
21
81.617269
0
LINE
8
Layer 1
10
66.815539
20
81.617269
11
67.512199
21
80.065619
0
LINE
8
Layer 1
10
67.512199
20
80.065619
11
68.462189
21
80.667279
0
LINE
8
Layer 1
10
68.462189
20
80.667279
11
68.905509
21
79.527289
0
LINE
8
Layer 1
10
68.905509
20
79.527289
11
69.855499
21
79.843950
0
LINE
8
Layer 1
10
69.855499
20
79.843950
11
70.172159
21
78.830630
0
LINE
8
Layer 1
10
70.172159
20
78.830630
11
71.248819
21
79.147294
0
LINE
8
Layer 1
10
71.248819
20
79.147294
11
72.198809
21
77.690644
0
LINE
8
Layer 1
10
72.198809
20
77.690644
11
72.958799
21
74.460684
0
LINE
8
Layer 1
10
72.958799
20
74.460684
11
72.072139
21
74.587351
0
LINE
8
Layer 1
10
72.072139
20
74.587351
11
70.950997
21
76.093826
0
LINE
8
Layer 1
10
70.950997
20
76.093826
11
69.483395
21
77.400313
0
LINE
8
Layer 1
10
69.483395
20
77.400313
11
67.717591
21
78.511715
0
LINE
8
Layer 1
10
67.717591
20
78.511715
11
65.701840
21
79.432931
0
LINE
8
Layer 1
10
65.701840
20
79.432931
11
63.484400
21
80.168864
0
LINE
8
Layer 1
10
63.484400
20
80.168864
11
61.113528
21
80.724416
0
LINE
8
Layer 1
10
61.113528
20
80.724416
11
58.637482
21
81.104488
0
LINE
8
Layer 1
10
58.637482
20
81.104488
11
56.104517
21
81.313981
0
LINE
8
Layer 1
10
56.104517
20
81.313981
11
53.562892
21
81.357798
0
LINE
8
Layer 1
10
53.562892
20
81.357798
11
51.060863
21
81.240840
0
LINE
8
Layer 1
10
51.060863
20
81.240840
11
48.646687
21
80.968008
0
LINE
8
Layer 1
10
48.646687
20
80.968008
11
46.368621
21
80.544204
0
LINE
8
Layer 1
10
46.368621
20
80.544204
11
44.274922
21
79.974330
0
LINE
8
Layer 1
10
44.274922
20
79.974330
11
42.413848
21
79.263286
0
LINE
8
Layer 1
10
42.413848
20
79.263286
11
40.833655
21
78.415976
0
LINE
8
Layer 1
10
40.833655
20
78.415976
11
39.582600
21
77.437300
0
LINE
8
Layer 1
10
39.582600
20
77.437300
11
37.347740
21
74.311290
0
LINE
8
Layer 1
10
37.347740
20
74.311290
11
37.112600
21
74.524000
0
LINE
8
Layer 1
10
40.025900
20
74.009200
11
40.887957
21
75.413016
0
LINE
8
Layer 1
10
40.887957
20
75.413016
11
41.731094
21
76.387544
0
LINE
8
Layer 1
10
41.731094
20
76.387544
11
43.275730
21
77.890480
0
LINE
8
Layer 1
10
43.275730
20
77.890480
11
49.215166
21
79.272073
0
LINE
8
Layer 1
10
49.215166
20
79.272073
11
52.286093
21
79.715165
0
LINE
8
Layer 1
10
52.286093
20
79.715165
11
55.289100
21
79.763400
0
LINE
8
Layer 1
10
55.289100
20
79.763400
11
57.802335
21
79.642493
0
LINE
8
Layer 1
10
57.802335
20
79.642493
11
60.124134
21
79.312404
0
LINE
8
Layer 1
10
60.124134
20
79.312404
11
62.412255
21
78.739592
0
LINE
8
Layer 1
10
62.412255
20
78.739592
11
64.824460
21
77.890520
0
LINE
8
Layer 1
10
64.824460
20
77.890520
11
66.663135
21
77.118248
0
LINE
8
Layer 1
10
66.663135
20
77.118248
11
68.051394
21
76.220172
0
LINE
8
Layer 1
10
68.051394
20
76.220172
11
69.002647
21
75.311711
0
LINE
8
Layer 1
10
69.002647
20
75.311711
11
69.530304
21
74.508284
0
LINE
8
Layer 1
10
69.530304
20
74.508284
11
69.647776
21
73.925309
0
LINE
8
Layer 1
10
69.647776
20
73.925309
11
69.368474
21
73.678206
0
LINE
8
Layer 1
10
69.368474
20
73.678206
11
68.705809
21
73.882394
0
LINE
8
Layer 1
10
68.705809
20
73.882394
11
67.673190
21
74.653290
0
LINE
8
Layer 1
10
67.673190
20
74.653290
11
66.454364
21
75.509090
0
LINE
8
Layer 1
10
66.454364
20
75.509090
11
64.873842
21
76.417387
0
LINE
8
Layer 1
10
64.873842
20
76.417387
11
61.490558
21
77.980873
0
LINE
8
Layer 1
10
61.490558
20
77.980873
11
60.119216
21
78.430759
0
LINE
8
Layer 1
10
60.119216
20
78.430759
11
59.249024
21
78.522539
0
LINE
8
Layer 1
10
59.249024
20
78.522539
11
59.069268
21
78.402061
0
LINE
8
Layer 1
10
59.069268
20
78.402061
11
59.095692
21
78.153563
0
LINE
8
Layer 1
10
59.095692
20
78.153563
11
59.874930
21
77.221180
0
LINE
8
Layer 1
10
59.874930
20
77.221180
11
60.348405
21
76.625004
0
LINE
8
Layer 1
10
60.348405
20
76.625004
11
60.479488
21
76.092536
0
LINE
8
Layer 1
10
60.479488
20
76.092536
11
60.334591
21
75.669586
0
LINE
8
Layer 1
10
60.334591
20
75.669586
11
59.980129
21
75.401960
0
LINE
8
Layer 1
10
59.980129
20
75.401960
11
59.482516
21
75.335468
0
LINE
8
Layer 1
10
59.482516
20
75.335468
11
58.908165
21
75.515917
0
LINE
8
Layer 1
10
58.908165
20
75.515917
11
58.323492
21
75.989115
0
LINE
8
Layer 1
10
58.323492
20
75.989115
11
57.794910
21
76.800871
0
LINE
8
Layer 1
10
57.794910
20
76.800871
11
57.612397
21
77.358355
0
LINE
8
Layer 1
10
57.612397
20
77.358355
11
57.761389
21
77.831955
0
LINE
8
Layer 1
10
57.761389
20
77.831955
11
57.933666
21
78.266518
0
LINE
8
Layer 1
10
57.933666
20
78.266518
11
57.821010
21
78.706891
0
LINE
8
Layer 1
10
57.821010
20
78.706891
11
57.409090
21
78.976886
0
LINE
8
Layer 1
10
57.409090
20
78.976886
11
56.809994
21
79.060016
0
LINE
8
Layer 1
10
56.809994
20
79.060016
11
55.289060
21
78.890655
0
LINE
8
Layer 1
10
55.289060
20
78.890655
11
53.668394
21
79.066072
0
LINE
8
Layer 1
10
53.668394
20
79.066072
11
52.856170
21
78.964089
0
LINE
8
Layer 1
10
52.856170
20
78.964089
11
52.242660
21
78.706891
0
LINE
8
Layer 1
10
52.242660
20
78.706891
11
52.019650
21
78.394635
0
LINE
8
Layer 1
10
52.019650
20
78.394635
11
52.009209
21
77.980617
0
LINE
8
Layer 1
10
52.009209
20
77.980617
11
52.379260
21
76.890431
0
LINE
8
Layer 1
10
52.379260
20
76.890431
11
52.050187
21
76.293364
0
LINE
8
Layer 1
10
52.050187
20
76.293364
11
51.502257
21
75.813917
0
LINE
8
Layer 1
10
51.502257
20
75.813917
11
50.853190
21
75.484480
0
LINE
8
Layer 1
10
50.853190
20
75.484480
11
50.220704
21
75.337446
0
LINE
8
Layer 1
10
50.220704
20
75.337446
11
49.722518
21
75.405207
0
LINE
8
Layer 1
10
49.722518
20
75.405207
11
49.476351
21
75.720154
0
LINE
8
Layer 1
10
49.476351
20
75.720154
11
49.599922
21
76.314679
0
LINE
8
Layer 1
10
49.599922
20
76.314679
11
50.210950
21
77.221174
0
LINE
8
Layer 1
10
50.210950
20
77.221174
11
51.198453
21
78.676774
0
LINE
8
Layer 1
10
51.198453
20
78.676774
11
51.251932
21
78.880670
0
LINE
8
Layer 1
10
51.251932
20
78.880670
11
51.146019
21
78.928401
0
LINE
8
Layer 1
10
51.146019
20
78.928401
11
50.291950
21
78.371044
0
LINE
8
Layer 1
10
50.291950
20
78.371044
11
49.444329
21
77.827166
0
LINE
8
Layer 1
10
49.444329
20
77.827166
11
48.507832
21
77.503202
0
LINE
8
Layer 1
10
48.507832
20
77.503202
11
46.528914
21
77.174799
0
LINE
8
Layer 1
10
46.528914
20
77.174799
11
45.566844
21
77.000256
0
LINE
8
Layer 1
10
45.566844
20
77.000256
11
44.676601
21
76.705414
0
LINE
8
Layer 1
10
44.676601
20
76.705414
11
43.898361
21
76.205221
0
LINE
8
Layer 1
10
43.898361
20
76.205221
11
43.272300
21
75.414624
0
LINE
8
Layer 1
10
43.272300
20
75.414624
11
42.778082
21
74.786165
0
LINE
8
Layer 1
10
42.778082
20
74.786165
11
42.200345
21
74.361982
0
LINE
8
Layer 1
10
42.200345
20
74.361982
11
41.346984
21
74.112772
0
LINE
8
Layer 1
10
41.346984
20
74.112772
11
40.025890
21
74.009234
0
LINE
8
Layer 1
10
40.025890
20
74.009234
11
40.025900
21
74.009200
0
LINE
8
Layer 1
10
36.986000
20
69.140800
11
36.945236
21
69.998974
0
LINE
8
Layer 1
10
36.945236
20
69.998974
11
37.170411
21
70.744472
0
LINE
8
Layer 1
10
37.170411
20
70.744472
11
37.612003
21
71.378095
0
LINE
8
Layer 1
10
37.612003
20
71.378095
11
38.220495
21
71.900641
0
LINE
8
Layer 1
10
38.220495
20
71.900641
11
39.740096
21
72.615707
0
LINE
8
Layer 1
10
39.740096
20
72.615707
11
41.333060
21
72.896070
0
LINE
8
Layer 1
10
41.333060
20
72.896070
11
42.906016
21
73.129031
0
LINE
8
Layer 1
10
42.906016
20
73.129031
11
44.392978
21
73.605930
0
LINE
8
Layer 1
10
44.392978
20
73.605930
11
45.796250
21
74.279408
0
LINE
8
Layer 1
10
45.796250
20
74.279408
11
47.118140
21
75.102110
0
LINE
8
Layer 1
10
47.118140
20
75.102110
11
47.676238
21
75.184231
0
LINE
8
Layer 1
10
47.676238
20
75.184231
11
48.015753
21
75.074942
0
LINE
8
Layer 1
10
48.015753
20
75.074942
11
48.163687
21
74.826546
0
LINE
8
Layer 1
10
48.163687
20
74.826546
11
48.147044
21
74.491349
0
LINE
8
Layer 1
10
48.147044
20
74.491349
11
47.728035
21
73.769772
0
LINE
8
Layer 1
10
47.728035
20
73.769772
11
46.974750
21
73.328650
0
LINE
8
Layer 1
10
46.974750
20
73.328650
11
46.546796
21
72.906947
0
LINE
8
Layer 1
10
46.546796
20
72.906947
11
46.284986
21
72.332615
0
LINE
8
Layer 1
10
46.284986
20
72.332615
11
45.982721
21
71.071638
0
LINE
8
Layer 1
10
45.982721
20
71.071638
11
45.803726
21
70.557782
0
LINE
8
Layer 1
10
45.803726
20
70.557782
11
45.513795
21
70.236875
0
LINE
8
Layer 1
10
45.513795
20
70.236875
11
45.043660
21
70.195309
0
LINE
8
Layer 1
10
45.043660
20
70.195309
11
44.324050
21
70.519480
0
LINE
8
Layer 1
10
44.324050
20
70.519480
11
43.658595
21
70.970190
0
LINE
8
Layer 1
10
43.658595
20
70.970190
11
42.979176
21
71.174626
0
LINE
8
Layer 1
10
42.979176
20
71.174626
11
42.290190
21
71.180473
0
LINE
8
Layer 1
10
42.290190
20
71.180473
11
41.596035
21
71.035420
0
LINE
8
Layer 1
10
41.596035
20
71.035420
11
40.209804
21
70.483361
0
LINE
8
Layer 1
10
40.209804
20
70.483361
11
38.855660
21
69.899947
0
LINE
8
Layer 1
10
38.855660
20
69.899947
11
36.986000
21
69.140805
0
LINE
8
Layer 1
10
36.986000
20
69.140805
11
36.986000
21
69.140800
0
LINE
8
Layer 1
10
72.678400
20
69.140800
11
72.719166
21
69.998974
0
LINE
8
Layer 1
10
72.719166
20
69.998974
11
72.493993
21
70.744472
0
LINE
8
Layer 1
10
72.493993
20
70.744472
11
72.052402
21
71.378095
0
LINE
8
Layer 1
10
72.052402
20
71.378095
11
71.443911
21
71.900641
0
LINE
8
Layer 1
10
71.443911
20
71.900641
11
69.924309
21
72.615707
0
LINE
8
Layer 1
10
69.924309
20
72.615707
11
68.331340
21
72.896070
0
LINE
8
Layer 1
10
68.331340
20
72.896070
11
66.758385
21
73.129031
0
LINE
8
Layer 1
10
66.758385
20
73.129031
11
65.271427
21
73.605930
0
LINE
8
Layer 1
10
65.271427
20
73.605930
11
63.868158
21
74.279408
0
LINE
8
Layer 1
10
63.868158
20
74.279408
11
62.546270
21
75.102110
0
LINE
8
Layer 1
10
62.546270
20
75.102110
11
61.988172
21
75.184231
0
LINE
8
Layer 1
10
61.988172
20
75.184231
11
61.648657
21
75.074942
0
LINE
8
Layer 1
10
61.648657
20
75.074942
11
61.500723
21
74.826546
0
LINE
8
Layer 1
10
61.500723
20
74.826546
11
61.517366
21
74.491349
0
LINE
8
Layer 1
10
61.517366
20
74.491349
11
61.936375
21
73.769772
0
LINE
8
Layer 1
10
61.936375
20
73.769772
11
62.689660
21
73.328650
0
LINE
8
Layer 1
10
62.689660
20
73.328650
11
63.117614
21
72.906947
0
LINE
8
Layer 1
10
63.117614
20
72.906947
11
63.379425
21
72.332615
0
LINE
8
Layer 1
10
63.379425
20
72.332615
11
63.681692
21
71.071638
0
LINE
8
Layer 1
10
63.681692
20
71.071638
11
63.860689
21
70.557782
0
LINE
8
Layer 1
10
63.860689
20
70.557782
11
64.150622
21
70.236875
0
LINE
8
Layer 1
10
64.150622
20
70.236875
11
64.620758
21
70.195309
0
LINE
8
Layer 1
10
64.620758
20
70.195309
11
65.340370
21
70.519480
0
LINE
8
Layer 1
10
65.340370
20
70.519480
11
66.005825
21
70.970190
0
LINE
8
Layer 1
10
66.005825
20
70.970190
11
66.685242
21
71.174626
0
LINE
8
Layer 1
10
66.685242
20
71.174626
11
67.374227
21
71.180473
0
LINE
8
Layer 1
10
67.374227
20
71.180473
11
68.068380
21
71.035420
0
LINE
8
Layer 1
10
68.068380
20
71.035420
11
69.454607
21
70.483361
0
LINE
8
Layer 1
10
69.454607
20
70.483361
11
70.808750
21
69.899947
0
LINE
8
Layer 1
10
70.808750
20
69.899947
11
72.678400
21
69.140805
0
LINE
8
Layer 1
10
72.678400
20
69.140805
11
72.678400
21
69.140800
0
LINE
8
Layer 1
10
35.972700
20
71.294100
11
36.986020
21
71.547431
0
LINE
8
Layer 1
10
36.986020
20
71.547431
11
36.859353
21
72.750751
0
LINE
8
Layer 1
10
36.859353
20
72.750751
11
36.416025
21
72.244089
0
LINE
8
Layer 1
10
36.416025
20
72.244089
11
35.972700
21
71.294100
0
LINE
8
Layer 1
10
57.125700
20
76.168900
11
57.403265
21
74.492025
0
LINE
8
Layer 1
10
57.403265
20
74.492025
11
57.501233
21
72.819576
0
LINE
8
Layer 1
10
57.501233
20
72.819576
11
57.222104
21
71.088944
0
LINE
8
Layer 1
10
57.222104
20
71.088944
11
56.368380
21
69.237520
0
LINE
8
Layer 1
10
56.368380
20
69.237520
11
57.498565
21
69.420316
0
LINE
8
Layer 1
10
57.498565
20
69.420316
11
58.307232
21
70.028515
0
LINE
8
Layer 1
10
58.307232
20
70.028515
11
58.807210
21
70.947076
0
LINE
8
Layer 1
10
58.807210
20
70.947076
11
59.011328
21
72.060958
0
LINE
8
Layer 1
10
59.011328
20
72.060958
11
58.932413
21
73.255123
0
LINE
8
Layer 1
10
58.932413
20
73.255123
11
58.583294
21
74.414530
0
LINE
8
Layer 1
10
58.583294
20
74.414530
11
57.976800
21
75.424139
0
LINE
8
Layer 1
10
57.976800
20
75.424139
11
57.125760
21
76.168910
0
LINE
8
Layer 1
10
57.125760
20
76.168910
11
57.125700
21
76.168900
0
LINE
8
Layer 1
10
53.059200
20
76.168900
11
52.781635
21
74.492025
0
LINE
8
Layer 1
10
52.781635
20
74.492025
11
52.683667
21
72.819576
0
LINE
8
Layer 1
10
52.683667
20
72.819576
11
52.962796
21
71.088944
0
LINE
8
Layer 1
10
52.962796
20
71.088944
11
53.816520
21
69.237520
0
LINE
8
Layer 1
10
53.816520
20
69.237520
11
52.686335
21
69.420316
0
LINE
8
Layer 1
10
52.686335
20
69.420316
11
51.877668
21
70.028515
0
LINE
8
Layer 1
10
51.877668
20
70.028515
11
51.377690
21
70.947076
0
LINE
8
Layer 1
10
51.377690
20
70.947076
11
51.173572
21
72.060958
0
LINE
8
Layer 1
10
51.173572
20
72.060958
11
51.252487
21
73.255123
0
LINE
8
Layer 1
10
51.252487
20
73.255123
11
51.601606
21
74.414530
0
LINE
8
Layer 1
10
51.601606
20
74.414530
11
52.208100
21
75.424139
0
LINE
8
Layer 1
10
52.208100
20
75.424139
11
53.059140
21
76.168910
0
LINE
8
Layer 1
10
53.059140
20
76.168910
11
53.059200
21
76.168900
0
LINE
8
Layer 1
10
73.275500
20
71.420800
11
73.465500
21
72.434120
0
LINE
8
Layer 1
10
73.465500
20
72.434120
11
74.035490
21
72.370790
0
LINE
8
Layer 1
10
74.035490
20
72.370790
11
73.845490
21
71.167470
0
LINE
8
Layer 1
10
73.845490
20
71.167470
11
73.275500
21
71.420800
0
LINE
8
Layer 1
10
39.392600
20
62.870900
11
38.486050
21
63.982480
0
LINE
8
Layer 1
10
38.486050
20
63.982480
11
37.727258
21
65.127194
0
LINE
8
Layer 1
10
37.727258
20
65.127194
11
37.167811
21
66.347078
0
LINE
8
Layer 1
10
37.167811
20
66.347078
11
36.859300
21
67.684170
0
LINE
8
Layer 1
10
36.859300
20
67.684170
11
37.782830
21
68.479773
0
LINE
8
Layer 1
10
37.782830
20
68.479773
11
38.886454
21
68.990305
0
LINE
8
Layer 1
10
38.886454
20
68.990305
11
41.087870
21
69.707300
0
LINE
8
Layer 1
10
41.087870
20
69.707300
11
41.229816
21
69.277284
0
LINE
8
Layer 1
10
41.229816
20
69.277284
11
41.538220
21
68.742274
0
LINE
8
Layer 1
10
41.538220
20
68.742274
11
41.779302
21
69.240077
0
LINE
8
Layer 1
10
41.779302
20
69.240077
11
42.154611
21
69.544473
0
LINE
8
Layer 1
10
42.154611
20
69.544473
11
42.643211
21
69.676609
0
LINE
8
Layer 1
10
42.643211
20
69.676609
11
43.224168
21
69.657632
0
LINE
8
Layer 1
10
43.224168
20
69.657632
11
44.579412
21
69.250933
0
LINE
8
Layer 1
10
44.579412
20
69.250933
11
46.052864
21
68.493554
0
LINE
8
Layer 1
10
46.052864
20
68.493554
11
48.684467
21
66.603483
0
LINE
8
Layer 1
10
48.684467
20
66.603483
11
49.507660
21
65.809152
0
LINE
8
Layer 1
10
49.507660
20
65.809152
11
49.779140
21
65.340864
0
LINE
8
Layer 1
10
49.779140
20
65.340864
11
49.858864
21
63.143028
0
LINE
8
Layer 1
10
49.858864
20
63.143028
11
49.652440
21
61.034254
0
LINE
8
Layer 1
10
49.652440
20
61.034254
11
49.346535
21
61.861065
0
LINE
8
Layer 1
10
49.346535
20
61.861065
11
48.952871
21
62.483431
0
LINE
8
Layer 1
10
48.952871
20
62.483431
11
48.482689
21
62.937482
0
LINE
8
Layer 1
10
48.482689
20
62.937482
11
47.947232
21
63.259346
0
LINE
8
Layer 1
10
47.947232
20
63.259346
11
46.725463
21
63.651041
0
LINE
8
Layer 1
10
46.725463
20
63.651041
11
45.377500
21
63.947554
0
LINE
8
Layer 1
10
45.377500
20
63.947554
11
44.965837
21
67.399174
0
LINE
8
Layer 1
10
44.965837
20
67.399174
11
44.471214
21
67.638902
0
LINE
8
Layer 1
10
44.471214
20
67.638902
11
44.207843
21
67.570762
0
LINE
8
Layer 1
10
44.207843
20
67.570762
11
43.952517
21
67.304174
0
LINE
8
Layer 1
10
43.952517
20
67.304174
11
43.952516
21
63.757554
0
LINE
8
Layer 1
10
43.952516
20
63.757554
11
39.392606
21
62.870898
0
LINE
8
Layer 1
10
39.392606
20
62.870898
11
39.392600
21
62.870900
0
LINE
8
Layer 1
10
70.845400
20
62.870900
11
71.751950
21
63.982480
0
LINE
8
Layer 1
10
71.751950
20
63.982480
11
72.510742
21
65.127194
0
LINE
8
Layer 1
10
72.510742
20
65.127194
11
73.070189
21
66.347078
0
LINE
8
Layer 1
10
73.070189
20
66.347078
11
73.378700
21
67.684170
0
LINE
8
Layer 1
10
73.378700
20
67.684170
11
72.455176
21
68.479773
0
LINE
8
Layer 1
10
72.455176
20
68.479773
11
71.351554
21
68.990305
0
LINE
8
Layer 1
10
71.351554
20
68.990305
11
69.150130
21
69.707300
0
LINE
8
Layer 1
10
69.150130
20
69.707300
11
69.008175
21
69.277284
0
LINE
8
Layer 1
10
69.008175
20
69.277284
11
68.699780
21
68.742274
0
LINE
8
Layer 1
10
68.699780
20
68.742274
11
68.458697
21
69.240077
0
LINE
8
Layer 1
10
68.458697
20
69.240077
11
68.083388
21
69.544473
0
LINE
8
Layer 1
10
68.083388
20
69.544473
11
67.594787
21
69.676609
0
LINE
8
Layer 1
10
67.594787
20
69.676609
11
67.013830
21
69.657632
0
LINE
8
Layer 1
10
67.013830
20
69.657632
11
65.658586
21
69.250933
0
LINE
8
Layer 1
10
65.658586
20
69.250933
11
64.185135
21
68.493554
0
LINE
8
Layer 1
10
64.185135
20
68.493554
11
61.553532
21
66.603483
0
LINE
8
Layer 1
10
61.553532
20
66.603483
11
60.730340
21
65.809152
0
LINE
8
Layer 1
10
60.730340
20
65.809152
11
60.458860
21
65.340864
0
LINE
8
Layer 1
10
60.458860
20
65.340864
11
60.379136
21
63.143028
0
LINE
8
Layer 1
10
60.379136
20
63.143028
11
60.585560
21
61.034254
0
LINE
8
Layer 1
10
60.585560
20
61.034254
11
60.891465
21
61.861065
0
LINE
8
Layer 1
10
60.891465
20
61.861065
11
61.285129
21
62.483431
0
LINE
8
Layer 1
10
61.285129
20
62.483431
11
61.755311
21
62.937482
0
LINE
8
Layer 1
10
61.755311
20
62.937482
11
62.290767
21
63.259346
0
LINE
8
Layer 1
10
62.290767
20
63.259346
11
63.512537
21
63.651041
0
LINE
8
Layer 1
10
63.512537
20
63.651041
11
64.860500
21
63.947554
0
LINE
8
Layer 1
10
64.860500
20
63.947554
11
65.272170
21
67.399174
0
LINE
8
Layer 1
10
65.272170
20
67.399174
11
65.766789
21
67.638902
0
LINE
8
Layer 1
10
65.766789
20
67.638902
11
66.030160
21
67.570762
0
LINE
8
Layer 1
10
66.030160
20
67.570762
11
66.285490
21
67.304174
0
LINE
8
Layer 1
10
66.285490
20
67.304174
11
66.285500
21
63.757500
0
LINE
8
Layer 1
10
66.285500
20
63.757500
11
70.845410
21
62.870844
0
LINE
8
Layer 1
10
70.845410
20
62.870844
11
70.845400
21
62.870900
0
LINE
8
Layer 1
10
40.310900
20
61.255900
11
42.907530
21
62.237555
0
LINE
8
Layer 1
10
42.907530
20
62.237555
11
45.314170
21
62.554219
0
LINE
8
Layer 1
10
45.314170
20
62.554219
11
47.435810
21
62.047558
0
LINE
8
Layer 1
10
47.435810
20
62.047558
11
48.639130
21
60.970908
0
LINE
8
Layer 1
10
48.639130
20
60.970908
11
48.987460
21
59.545928
0
LINE
8
Layer 1
10
48.987460
20
59.545928
11
49.019160
21
58.184278
0
LINE
8
Layer 1
10
49.019160
20
58.184278
11
48.730205
21
57.958656
0
LINE
8
Layer 1
10
48.730205
20
57.958656
11
48.227500
21
57.709285
0
LINE
8
Layer 1
10
48.227500
20
57.709285
11
46.865850
21
57.709285
0
LINE
8
Layer 1
10
46.865850
20
57.709285
11
46.992520
21
58.975935
0
LINE
8
Layer 1
10
46.992520
20
58.975935
11
46.865850
21
59.862591
0
LINE
8
Layer 1
10
46.865850
20
59.862591
11
46.113789
21
60.575081
0
LINE
8
Layer 1
10
46.113789
20
60.575081
11
45.314200
21
61.097571
0
LINE
8
Layer 1
10
45.314200
20
61.097571
11
43.762551
21
61.034237
0
LINE
8
Layer 1
10
43.762551
20
61.034237
11
42.305900
21
61.065901
0
LINE
8
Layer 1
10
42.305900
20
61.065901
11
41.640909
21
60.780905
0
LINE
8
Layer 1
10
41.640909
20
60.780905
11
41.838824
21
60.195081
0
LINE
8
Layer 1
10
41.838824
20
60.195081
11
42.084237
21
59.704255
0
LINE
8
Layer 1
10
42.084237
20
59.704255
11
42.424649
21
59.435092
0
LINE
8
Layer 1
10
42.424649
20
59.435092
11
42.907560
21
59.165929
0
LINE
8
Layer 1
10
42.907560
20
59.165929
11
44.300880
21
58.849265
0
LINE
8
Layer 1
10
44.300880
20
58.849265
11
46.010860
21
57.930944
0
LINE
8
Layer 1
10
46.010860
20
57.930944
11
46.707518
21
57.487616
0
LINE
8
Layer 1
10
46.707518
20
57.487616
11
47.435839
21
57.170952
0
LINE
8
Layer 1
10
47.435839
20
57.170952
11
48.385829
21
57.139282
0
LINE
8
Layer 1
10
48.385829
20
57.139282
11
48.005839
21
55.904292
0
LINE
8
Layer 1
10
48.005839
20
55.904292
11
46.517519
21
53.275992
0
LINE
8
Layer 1
10
46.517519
20
53.275992
11
46.477936
21
52.579334
0
LINE
8
Layer 1
10
46.477936
20
52.579334
11
46.446270
21
52.394284
0
LINE
8
Layer 1
10
46.446270
20
52.394284
11
46.295854
21
52.642667
0
LINE
8
Layer 1
10
46.295854
20
52.642667
11
45.401284
21
54.546599
0
LINE
8
Layer 1
10
45.401284
20
54.546599
11
44.649214
21
55.904287
0
LINE
8
Layer 1
10
44.649214
20
55.904287
11
43.635894
21
56.474282
0
LINE
8
Layer 1
10
43.635894
20
56.474282
11
43.319300
21
57.519200
0
LINE
8
Layer 1
10
43.319300
20
57.519200
11
43.319300
21
58.057527
0
LINE
8
Layer 1
10
43.319300
20
58.057527
11
42.210980
21
58.975850
0
LINE
8
Layer 1
10
42.210980
20
58.975850
11
41.134330
21
60.020830
0
LINE
8
Layer 1
10
41.134330
20
60.020830
11
40.247674
21
61.034150
0
LINE
8
Layer 1
10
40.247674
20
61.034150
11
40.310900
21
61.255900
0
LINE
8
Layer 1
10
70.124800
20
61.206000
11
67.528160
21
62.187655
0
LINE
8
Layer 1
10
67.528160
20
62.187655
11
65.121530
21
62.504319
0
LINE
8
Layer 1
10
65.121530
20
62.504319
11
62.999890
21
61.997658
0
LINE
8
Layer 1
10
62.999890
20
61.997658
11
61.796570
21
60.921008
0
LINE
8
Layer 1
10
61.796570
20
60.921008
11
61.448240
21
59.496028
0
LINE
8
Layer 1
10
61.448240
20
59.496028
11
61.416540
21
58.134378
0
LINE
8
Layer 1
10
61.416540
20
58.134378
11
61.705495
21
57.908756
0
LINE
8
Layer 1
10
61.705495
20
57.908756
11
62.208200
21
57.659385
0
LINE
8
Layer 1
10
62.208200
20
57.659385
11
63.569850
21
57.659385
0
LINE
8
Layer 1
10
63.569850
20
57.659385
11
63.443180
21
58.926035
0
LINE
8
Layer 1
10
63.443180
20
58.926035
11
63.569850
21
59.812691
0
LINE
8
Layer 1
10
63.569850
20
59.812691
11
64.321911
21
60.525181
0
LINE
8
Layer 1
10
64.321911
20
60.525181
11
65.121500
21
61.047671
0
LINE
8
Layer 1
10
65.121500
20
61.047671
11
66.673143
21
60.984337
0
LINE
8
Layer 1
10
66.673143
20
60.984337
11
68.129790
21
61.016001
0
LINE
8
Layer 1
10
68.129790
20
61.016001
11
68.794780
21
60.731005
0
LINE
8
Layer 1
10
68.794780
20
60.731005
11
68.596858
21
60.145181
0
LINE
8
Layer 1
10
68.596858
20
60.145181
11
68.351460
21
59.654355
0
LINE
8
Layer 1
10
68.351460
20
59.654355
11
68.011045
21
59.385192
0
LINE
8
Layer 1
10
68.011045
20
59.385192
11
67.528130
21
59.116029
0
LINE
8
Layer 1
10
67.528130
20
59.116029
11
66.134820
21
58.799365
0
LINE
8
Layer 1
10
66.134820
20
58.799365
11
64.424840
21
57.881044
0
LINE
8
Layer 1
10
64.424840
20
57.881044
11
63.728180
21
57.437716
0
LINE
8
Layer 1
10
63.728180
20
57.437716
11
62.999860
21
57.121052
0
LINE
8
Layer 1
10
62.999860
20
57.121052
11
62.049870
21
57.089382
0
LINE
8
Layer 1
10
62.049870
20
57.089382
11
62.429860
21
55.854392
0
LINE
8
Layer 1
10
62.429860
20
55.854392
11
63.918180
21
53.226092
0
LINE
8
Layer 1
10
63.918180
20
53.226092
11
63.957760
21
52.529434
0
LINE
8
Layer 1
10
63.957760
20
52.529434
11
63.989426
21
52.344384
0
LINE
8
Layer 1
10
63.989426
20
52.344384
11
64.139840
21
52.592767
0
LINE
8
Layer 1
10
64.139840
20
52.592767
11
65.034411
21
54.496699
0
LINE
8
Layer 1
10
65.034411
20
54.496699
11
65.786490
21
55.854387
0
LINE
8
Layer 1
10
65.786490
20
55.854387
11
66.799810
21
56.424382
0
LINE
8
Layer 1
10
66.799810
20
56.424382
11
67.116470
21
57.469362
0
LINE
8
Layer 1
10
67.116470
20
57.469362
11
67.116470
21
58.007689
0
LINE
8
Layer 1
10
67.116470
20
58.007689
11
68.224790
21
58.926012
0
LINE
8
Layer 1
10
68.224790
20
58.926012
11
69.301440
21
59.970992
0
LINE
8
Layer 1
10
69.301440
20
59.970992
11
70.188100
21
60.984312
0
LINE
8
Layer 1
10
70.188100
20
60.984312
11
70.124800
21
61.206000
0
LINE
8
Layer 1
10
57.038700
20
58.101700
11
57.993697
21
59.154220
0
LINE
8
Layer 1
10
57.993697
20
59.154220
11
58.640438
21
59.603634
0
LINE
8
Layer 1
10
58.640438
20
59.603634
11
59.228130
21
59.823880
0
LINE
8
Layer 1
10
59.228130
20
59.823880
11
59.243256
21
59.614623
0
LINE
8
Layer 1
10
59.243256
20
59.614623
11
59.143730
21
59.358584
0
LINE
8
Layer 1
10
59.143730
20
59.358584
11
58.833341
21
58.614852
0
LINE
8
Layer 1
10
58.833341
20
58.614852
11
58.641070
21
57.836424
0
LINE
8
Layer 1
10
58.641070
20
57.836424
11
58.615181
21
56.510423
0
LINE
8
Layer 1
10
58.615181
20
56.510423
11
58.424233
21
55.975124
0
LINE
8
Layer 1
10
58.424233
20
55.975124
11
57.936650
21
55.422434
0
LINE
8
Layer 1
10
57.936650
20
55.422434
11
57.086987
21
55.215730
0
LINE
8
Layer 1
10
57.086987
20
55.215730
11
56.718036
21
55.321872
0
LINE
8
Layer 1
10
56.718036
20
55.321872
11
56.476530
21
55.667918
0
LINE
8
Layer 1
10
56.476530
20
55.667918
11
56.421733
21
56.312973
0
LINE
8
Layer 1
10
56.421733
20
56.312973
11
56.538420
21
56.960867
0
LINE
8
Layer 1
10
56.538420
20
56.960867
11
57.038700
21
58.101698
0
LINE
8
Layer 1
10
57.038700
20
58.101698
11
57.038700
21
58.101700
0
LINE
8
Layer 1
10
53.229200
20
58.101700
11
52.274203
21
59.154220
0
LINE
8
Layer 1
10
52.274203
20
59.154220
11
51.627462
21
59.603634
0
LINE
8
Layer 1
10
51.627462
20
59.603634
11
51.039770
21
59.823880
0
LINE
8
Layer 1
10
51.039770
20
59.823880
11
51.024644
21
59.614623
0
LINE
8
Layer 1
10
51.024644
20
59.614623
11
51.124170
21
59.358584
0
LINE
8
Layer 1
10
51.124170
20
59.358584
11
51.434559
21
58.614852
0
LINE
8
Layer 1
10
51.434559
20
58.614852
11
51.626830
21
57.836424
0
LINE
8
Layer 1
10
51.626830
20
57.836424
11
51.652719
21
56.510423
0
LINE
8
Layer 1
10
51.652719
20
56.510423
11
51.843667
21
55.975124
0
LINE
8
Layer 1
10
51.843667
20
55.975124
11
52.331250
21
55.422434
0
LINE
8
Layer 1
10
52.331250
20
55.422434
11
53.180912
21
55.215730
0
LINE
8
Layer 1
10
53.180912
20
55.215730
11
53.549864
21
55.321872
0
LINE
8
Layer 1
10
53.549864
20
55.321872
11
53.791370
21
55.667918
0
LINE
8
Layer 1
10
53.791370
20
55.667918
11
53.846167
21
56.312973
0
LINE
8
Layer 1
10
53.846167
20
56.312973
11
53.729480
21
56.960867
0
LINE
8
Layer 1
10
53.729480
20
56.960867
11
53.229200
21
58.101698
0
LINE
8
Layer 1
10
53.229200
20
58.101698
11
53.229200
21
58.101700
0
LINE
8
Layer 1
10
48.987500
20
69.172400
11
50.605373
21
67.069992
0
LINE
8
Layer 1
10
50.605373
20
67.069992
11
51.458047
21
65.576976
0
LINE
8
Layer 1
10
51.458047
20
65.576976
11
51.875021
21
64.060863
0
LINE
8
Layer 1
10
51.875021
20
64.060863
11
52.185790
21
61.889160
0
LINE
8
Layer 1
10
52.185790
20
61.889160
11
52.629120
21
61.699162
0
LINE
8
Layer 1
10
52.629120
20
61.699162
11
52.692420
21
62.617483
0
LINE
8
Layer 1
10
52.692420
20
62.617483
11
52.475113
21
64.431892
0
LINE
8
Layer 1
10
52.475113
20
64.431892
11
51.916647
21
66.116289
0
LINE
8
Layer 1
10
51.916647
20
66.116289
11
51.096908
21
67.642513
0
LINE
8
Layer 1
10
51.096908
20
67.642513
11
50.095780
21
68.982403
0
LINE
8
Layer 1
10
50.095780
20
68.982403
11
48.987500
21
69.172400
0
LINE
8
Layer 1
10
60.841100
20
69.172400
11
59.223227
21
67.069992
0
LINE
8
Layer 1
10
59.223227
20
67.069992
11
58.370553
21
65.576976
0
LINE
8
Layer 1
10
58.370553
20
65.576976
11
57.953579
21
64.060863
0
LINE
8
Layer 1
10
57.953579
20
64.060863
11
57.642810
21
61.889160
0
LINE
8
Layer 1
10
57.642810
20
61.889160
11
57.199480
21
61.699162
0
LINE
8
Layer 1
10
57.199480
20
61.699162
11
57.136180
21
62.617483
0
LINE
8
Layer 1
10
57.136180
20
62.617483
11
57.353487
21
64.431892
0
LINE
8
Layer 1
10
57.353487
20
64.431892
11
57.911952
21
66.116289
0
LINE
8
Layer 1
10
57.911952
20
66.116289
11
58.731692
21
67.642513
0
LINE
8
Layer 1
10
58.731692
20
67.642513
11
59.732820
21
68.982403
0
LINE
8
Layer 1
10
59.732820
20
68.982403
11
60.841100
21
69.172400
0
LINE
8
Layer 1
10
75.532600
20
81.523200
11
75.093512
21
80.464984
0
LINE
8
Layer 1
10
75.093512
20
80.464984
11
74.875812
21
79.373499
0
LINE
8
Layer 1
10
74.875812
20
79.373499
11
74.918165
21
77.126305
0
LINE
8
Layer 1
10
74.918165
20
77.126305
11
75.286835
21
74.852794
0
LINE
8
Layer 1
10
75.286835
20
74.852794
11
75.609000
21
72.624140
0
LINE
8
Layer 1
10
75.609000
20
72.624140
11
76.352873
21
71.602571
0
LINE
8
Layer 1
10
76.352873
20
71.602571
11
77.234707
21
70.682002
0
LINE
8
Layer 1
10
77.234707
20
70.682002
11
79.279090
21
69.049285
0
LINE
8
Layer 1
10
79.279090
20
69.049285
11
81.475813
21
67.536831
0
LINE
8
Layer 1
10
81.475813
20
67.536831
11
83.558540
21
65.955480
0
LINE
8
Layer 1
10
83.558540
20
65.955480
11
85.221571
21
64.604251
0
LINE
8
Layer 1
10
85.221571
20
64.604251
11
86.682590
21
62.963294
0
LINE
8
Layer 1
10
86.682590
20
62.963294
11
87.730254
21
61.076230
0
LINE
8
Layer 1
10
87.730254
20
61.076230
11
88.033033
21
60.054039
0
LINE
8
Layer 1
10
88.033033
20
60.054039
11
88.153220
21
58.986680
0
LINE
8
Layer 1
10
88.153220
20
58.986680
11
88.244187
21
57.030324
0
LINE
8
Layer 1
10
88.244187
20
57.030324
11
88.102936
21
55.130315
0
LINE
8
Layer 1
10
88.102936
20
55.130315
11
87.762559
21
53.304007
0
LINE
8
Layer 1
10
87.762559
20
53.304007
11
87.256149
21
51.568757
0
LINE
8
Layer 1
10
87.256149
20
51.568757
11
85.877601
21
48.440851
0
LINE
8
Layer 1
10
85.877601
20
48.440851
11
84.232034
21
45.885442
0
LINE
8
Layer 1
10
84.232034
20
45.885442
11
82.584190
21
44.041376
0
LINE
8
Layer 1
10
82.584190
20
44.041376
11
81.198812
21
43.047497
0
LINE
8
Layer 1
10
81.198812
20
43.047497
11
80.687279
21
42.912767
0
LINE
8
Layer 1
10
80.687279
20
42.912767
11
80.340641
21
43.042650
0
LINE
8
Layer 1
10
80.340641
20
43.042650
11
80.191990
21
43.454503
0
LINE
8
Layer 1
10
80.191990
20
43.454503
11
80.274420
21
44.165680
0
LINE
8
Layer 1
10
80.274420
20
44.165680
11
80.148935
21
46.300084
0
LINE
8
Layer 1
10
80.148935
20
46.300084
11
79.647645
21
48.448301
0
LINE
8
Layer 1
10
79.647645
20
48.448301
11
78.458040
21
52.608860
0
LINE
8
Layer 1
10
78.458040
20
52.608860
11
79.601530
21
52.609117
0
LINE
8
Layer 1
10
79.601530
20
52.609117
11
81.542671
21
53.012108
0
LINE
8
Layer 1
10
81.542671
20
53.012108
11
82.585717
21
53.461254
0
LINE
8
Layer 1
10
82.585717
20
53.461254
11
83.556204
21
54.127035
0
LINE
8
Layer 1
10
83.556204
20
54.127035
11
84.363474
21
55.048100
0
LINE
8
Layer 1
10
84.363474
20
55.048100
11
84.916870
21
56.263100
0
LINE
8
Layer 1
10
84.916870
20
56.263100
11
85.080135
21
58.314262
0
LINE
8
Layer 1
10
85.080135
20
58.314262
11
85.133844
21
58.552887
0
LINE
8
Layer 1
10
85.133844
20
58.552887
11
85.209303
21
58.515766
0
LINE
8
Layer 1
10
85.209303
20
58.515766
11
85.458650
21
57.282130
0
LINE
8
Layer 1
10
85.458650
20
57.282130
11
85.364178
21
55.523006
0
LINE
8
Layer 1
10
85.364178
20
55.523006
11
85.139273
21
53.752211
0
LINE
8
Layer 1
10
85.139273
20
53.752211
11
84.866325
21
52.920408
0
LINE
8
Layer 1
10
84.866325
20
52.920408
11
84.426870
21
52.155253
0
LINE
8
Layer 1
10
84.426870
20
52.155253
11
83.776276
21
51.479934
0
LINE
8
Layer 1
10
83.776276
20
51.479934
11
82.869910
21
50.917640
0
LINE
8
Layer 1
10
82.869910
20
50.917640
11
80.044304
21
51.280504
0
LINE
8
Layer 1
10
80.044304
20
51.280504
11
79.543037
21
51.225786
0
LINE
8
Layer 1
10
79.543037
20
51.225786
11
79.316787
21
50.996209
0
LINE
8
Layer 1
10
79.316787
20
50.996209
11
79.462035
21
50.533428
0
LINE
8
Layer 1
10
79.462035
20
50.533428
11
80.075260
21
49.779100
0
LINE
8
Layer 1
10
80.075260
20
49.779100
11
80.856933
21
49.127211
0
LINE
8
Layer 1
10
80.856933
20
49.127211
11
81.746182
21
48.915580
0
LINE
8
Layer 1
10
81.746182
20
48.915580
11
82.694408
21
49.069992
0
LINE
8
Layer 1
10
82.694408
20
49.069992
11
83.653013
21
49.516230
0
LINE
8
Layer 1
10
83.653013
20
49.516230
11
84.573398
21
50.180079
0
LINE
8
Layer 1
10
84.573398
20
50.180079
11
85.406967
21
50.987324
0
LINE
8
Layer 1
10
85.406967
20
50.987324
11
86.619260
21
52.735140
0
LINE
8
Layer 1
10
86.619260
20
52.735140
11
87.129221
21
54.755563
0
LINE
8
Layer 1
10
87.129221
20
54.755563
11
87.230161
21
56.889392
0
LINE
8
Layer 1
10
87.230161
20
56.889392
11
86.976376
21
59.013835
0
LINE
8
Layer 1
10
86.976376
20
59.013835
11
86.422160
21
61.006100
0
LINE
8
Layer 1
10
86.422160
20
61.006100
11
85.448209
21
62.694992
0
LINE
8
Layer 1
10
85.448209
20
62.694992
11
84.311340
21
64.233094
0
LINE
8
Layer 1
10
84.311340
20
64.233094
11
82.897383
21
65.465914
0
LINE
8
Layer 1
10
82.897383
20
65.465914
11
82.050819
21
65.919564
0
LINE
8
Layer 1
10
82.050819
20
65.919564
11
81.092170
21
66.238960
0
LINE
8
Layer 1
10
81.092170
20
66.238960
11
79.319998
21
67.595221
0
LINE
8
Layer 1
10
79.319998
20
67.595221
11
77.434175
21
68.898420
0
LINE
8
Layer 1
10
77.434175
20
68.898420
11
76.562964
21
69.607976
0
LINE
8
Layer 1
10
76.562964
20
69.607976
11
75.800524
21
70.397691
0
LINE
8
Layer 1
10
75.800524
20
70.397691
11
75.192584
21
71.298709
0
LINE
8
Layer 1
10
75.192584
20
71.298709
11
74.784870
21
72.342170
0
LINE
8
Layer 1
10
74.784870
20
72.342170
11
74.540366
21
74.580865
0
LINE
8
Layer 1
10
74.540366
20
74.580865
11
74.199596
21
76.877636
0
LINE
8
Layer 1
10
74.199596
20
76.877636
11
74.123913
21
78.012531
0
LINE
8
Layer 1
10
74.123913
20
78.012531
11
74.181126
21
79.119621
0
LINE
8
Layer 1
10
74.181126
20
79.119621
11
74.423555
21
80.184800
0
LINE
8
Layer 1
10
74.423555
20
80.184800
11
74.903520
21
81.193960
0
LINE
8
Layer 1
10
74.903520
20
81.193960
11
75.188110
21
81.378526
0
LINE
8
Layer 1
10
75.188110
20
81.378526
11
75.532600
21
81.523200
0
LINE
8
Layer 1
10
34.431200
20
81.974900
11
34.870288
21
80.916684
0
LINE
8
Layer 1
10
34.870288
20
80.916684
11
35.087988
21
79.825199
0
LINE
8
Layer 1
10
35.087988
20
79.825199
11
35.045635
21
77.578005
0
LINE
8
Layer 1
10
35.045635
20
77.578005
11
34.676965
21
75.304494
0
LINE
8
Layer 1
10
34.676965
20
75.304494
11
34.354800
21
73.075840
0
LINE
8
Layer 1
10
34.354800
20
73.075840
11
33.610927
21
72.054271
0
LINE
8
Layer 1
10
33.610927
20
72.054271
11
32.729093
21
71.133702
0
LINE
8
Layer 1
10
32.729093
20
71.133702
11
30.684710
21
69.500985
0
LINE
8
Layer 1
10
30.684710
20
69.500985
11
28.487987
21
67.988531
0
LINE
8
Layer 1
10
28.487987
20
67.988531
11
26.405260
21
66.407180
0
LINE
8
Layer 1
10
26.405260
20
66.407180
11
24.742229
21
65.055952
0
LINE
8
Layer 1
10
24.742229
20
65.055952
11
23.281210
21
63.414997
0
LINE
8
Layer 1
10
23.281210
20
63.414997
11
22.233546
21
61.527934
0
LINE
8
Layer 1
10
22.233546
20
61.527934
11
21.930767
21
60.505742
0
LINE
8
Layer 1
10
21.930767
20
60.505742
11
21.810580
21
59.438380
0
LINE
8
Layer 1
10
21.810580
20
59.438380
11
21.719613
21
57.482024
0
LINE
8
Layer 1
10
21.719613
20
57.482024
11
21.860864
21
55.582015
0
LINE
8
Layer 1
10
21.860864
20
55.582015
11
22.201241
21
53.755707
0
LINE
8
Layer 1
10
22.201241
20
53.755707
11
22.707651
21
52.020457
0
LINE
8
Layer 1
10
22.707651
20
52.020457
11
24.086199
21
48.892551
0
LINE
8
Layer 1
10
24.086199
20
48.892551
11
25.731766
21
46.337142
0
LINE
8
Layer 1
10
25.731766
20
46.337142
11
27.379610
21
44.493076
0
LINE
8
Layer 1
10
27.379610
20
44.493076
11
28.764988
21
43.499197
0
LINE
8
Layer 1
10
28.764988
20
43.499197
11
29.276521
21
43.364467
0
LINE
8
Layer 1
10
29.276521
20
43.364467
11
29.623159
21
43.494350
0
LINE
8
Layer 1
10
29.623159
20
43.494350
11
29.771810
21
43.906203
0
LINE
8
Layer 1
10
29.771810
20
43.906203
11
29.689380
21
44.617380
0
LINE
8
Layer 1
10
29.689380
20
44.617380
11
29.814865
21
46.751784
0
LINE
8
Layer 1
10
29.814865
20
46.751784
11
30.316155
21
48.900001
0
LINE
8
Layer 1
10
30.316155
20
48.900001
11
31.505760
21
53.060560
0
LINE
8
Layer 1
10
31.505760
20
53.060560
11
30.362270
21
53.060823
0
LINE
8
Layer 1
10
30.362270
20
53.060823
11
28.421129
21
53.463820
0
LINE
8
Layer 1
10
28.421129
20
53.463820
11
27.378083
21
53.912968
0
LINE
8
Layer 1
10
27.378083
20
53.912968
11
26.407596
21
54.578747
0
LINE
8
Layer 1
10
26.407596
20
54.578747
11
25.600326
21
55.499808
0
LINE
8
Layer 1
10
25.600326
20
55.499808
11
25.046930
21
56.714800
0
LINE
8
Layer 1
10
25.046930
20
56.714800
11
24.883665
21
58.765964
0
LINE
8
Layer 1
10
24.883665
20
58.765964
11
24.829956
21
59.004590
0
LINE
8
Layer 1
10
24.829956
20
59.004590
11
24.754497
21
58.967470
0
LINE
8
Layer 1
10
24.754497
20
58.967470
11
24.505150
21
57.733840
0
LINE
8
Layer 1
10
24.505150
20
57.733840
11
24.599622
21
55.974710
0
LINE
8
Layer 1
10
24.599622
20
55.974710
11
24.824528
21
54.203914
0
LINE
8
Layer 1
10
24.824528
20
54.203914
11
25.097475
21
53.372111
0
LINE
8
Layer 1
10
25.097475
20
53.372111
11
25.536930
21
52.606958
0
LINE
8
Layer 1
10
25.536930
20
52.606958
11
26.187524
21
51.931641
0
LINE
8
Layer 1
10
26.187524
20
51.931641
11
27.093890
21
51.369350
0
LINE
8
Layer 1
10
27.093890
20
51.369350
11
29.919496
21
51.732229
0
LINE
8
Layer 1
10
29.919496
20
51.732229
11
30.420763
21
51.677507
0
LINE
8
Layer 1
10
30.420763
20
51.677507
11
30.647013
21
51.447924
0
LINE
8
Layer 1
10
30.647013
20
51.447924
11
30.501765
21
50.985139
0
LINE
8
Layer 1
10
30.501765
20
50.985139
11
29.888540
21
50.230810
0
LINE
8
Layer 1
10
29.888540
20
50.230810
11
29.106867
21
49.578921
0
LINE
8
Layer 1
10
29.106867
20
49.578921
11
28.217618
21
49.367291
0
LINE
8
Layer 1
10
28.217618
20
49.367291
11
27.269392
21
49.521703
0
LINE
8
Layer 1
10
27.269392
20
49.521703
11
26.310788
21
49.967941
0
LINE
8
Layer 1
10
26.310788
20
49.967941
11
25.390402
21
50.631791
0
LINE
8
Layer 1
10
25.390402
20
50.631791
11
24.556833
21
51.439036
0
LINE
8
Layer 1
10
24.556833
20
51.439036
11
23.344540
21
53.186850
0
LINE
8
Layer 1
10
23.344540
20
53.186850
11
22.834579
21
55.207273
0
LINE
8
Layer 1
10
22.834579
20
55.207273
11
22.733639
21
57.341102
0
LINE
8
Layer 1
10
22.733639
20
57.341102
11
22.987424
21
59.465545
0
LINE
8
Layer 1
10
22.987424
20
59.465545
11
23.541640
21
61.457810
0
LINE
8
Layer 1
10
23.541640
20
61.457810
11
24.515591
21
63.146702
0
LINE
8
Layer 1
10
24.515591
20
63.146702
11
25.652460
21
64.684804
0
LINE
8
Layer 1
10
25.652460
20
64.684804
11
27.066417
21
65.917624
0
LINE
8
Layer 1
10
27.066417
20
65.917624
11
27.912981
21
66.371274
0
LINE
8
Layer 1
10
27.912981
20
66.371274
11
28.871630
21
66.690670
0
LINE
8
Layer 1
10
28.871630
20
66.690670
11
30.643802
21
68.046931
0
LINE
8
Layer 1
10
30.643802
20
68.046931
11
32.529625
21
69.350130
0
LINE
8
Layer 1
10
32.529625
20
69.350130
11
33.400836
21
70.059686
0
LINE
8
Layer 1
10
33.400836
20
70.059686
11
34.163276
21
70.849401
0
LINE
8
Layer 1
10
34.163276
20
70.849401
11
34.771216
21
71.750419
0
LINE
8
Layer 1
10
34.771216
20
71.750419
11
35.178930
21
72.793880
0
LINE
8
Layer 1
10
35.178930
20
72.793880
11
35.423434
21
75.032575
0
LINE
8
Layer 1
10
35.423434
20
75.032575
11
35.764204
21
77.329346
0
LINE
8
Layer 1
10
35.764204
20
77.329346
11
35.839887
21
78.464241
0
LINE
8
Layer 1
10
35.839887
20
78.464241
11
35.782674
21
79.571331
0
LINE
8
Layer 1
10
35.782674
20
79.571331
11
35.540245
21
80.636510
0
LINE
8
Layer 1
10
35.540245
20
80.636510
11
35.060280
21
81.645670
0
LINE
8
Layer 1
10
35.060280
20
81.645670
11
34.775690
21
81.830236
0
LINE
8
Layer 1
10
34.775690
20
81.830236
11
34.431200
21
81.974900
0
LINE
8
Layer 1
10
76.249200
20
57.743900
11
76.371329
21
58.711049
0
LINE
8
Layer 1
10
76.371329
20
58.711049
11
76.678994
21
59.489532
0
LINE
8
Layer 1
10
76.678994
20
59.489532
11
77.255787
21
59.999722
0
LINE
8
Layer 1
10
77.255787
20
59.999722
11
78.185300
21
60.161990
0
LINE
8
Layer 1
10
78.185300
20
60.161990
11
78.846497
21
59.825123
0
LINE
8
Layer 1
10
78.846497
20
59.825123
11
79.075948
21
59.546997
0
LINE
8
Layer 1
10
79.075948
20
59.546997
11
79.127070
21
59.192075
0
LINE
8
Layer 1
10
79.127070
20
59.192075
11
78.785907
21
58.371933
0
LINE
8
Layer 1
10
78.785907
20
58.371933
11
78.235443
21
57.525365
0
LINE
8
Layer 1
10
78.235443
20
57.525365
11
77.638242
21
56.910569
0
LINE
8
Layer 1
10
77.638242
20
56.910569
11
77.156870
21
56.785745
0
LINE
8
Layer 1
10
77.156870
20
56.785745
11
76.590156
21
57.159031
0
LINE
8
Layer 1
10
76.590156
20
57.159031
11
76.249200
21
57.743902
0
LINE
8
Layer 1
10
76.249200
20
57.743902
11
76.249200
21
57.743900
0
LINE
8
Layer 1
10
32.898900
20
57.016900
11
31.931751
21
57.139029
0
LINE
8
Layer 1
10
31.931751
20
57.139029
11
31.153267
21
57.446694
0
LINE
8
Layer 1
10
31.153267
20
57.446694
11
30.643078
21
58.023487
0
LINE
8
Layer 1
10
30.643078
20
58.023487
11
30.480810
21
58.953000
0
LINE
8
Layer 1
10
30.480810
20
58.953000
11
30.817677
21
59.614198
0
LINE
8
Layer 1
10
30.817677
20
59.614198
11
31.095803
21
59.843648
0
LINE
8
Layer 1
10
31.095803
20
59.843648
11
31.450725
21
59.894770
0
LINE
8
Layer 1
10
31.450725
20
59.894770
11
32.270867
21
59.553607
0
LINE
8
Layer 1
10
32.270867
20
59.553607
11
33.117435
21
59.003143
0
LINE
8
Layer 1
10
33.117435
20
59.003143
11
33.732231
21
58.405942
0
LINE
8
Layer 1
10
33.732231
20
58.405942
11
33.857055
21
57.924570
0
LINE
8
Layer 1
10
33.857055
20
57.924570
11
33.483768
21
57.357856
0
LINE
8
Layer 1
10
33.483768
20
57.357856
11
32.898898
21
57.016900
0
LINE
8
Layer 1
10
32.898898
20
57.016900
11
32.898900
21
57.016900
0
LINE
8
Layer 1
10
78.264400
20
54.877400
11
79.513014
21
55.436491
0
LINE
8
Layer 1
10
79.513014
20
55.436491
11
80.179292
21
56.138196
0
LINE
8
Layer 1
10
80.179292
20
56.138196
11
80.996830
21
57.811570
0
LINE
8
Layer 1
10
80.996830
20
57.811570
11
81.535737
21
57.695118
0
LINE
8
Layer 1
10
81.535737
20
57.695118
11
81.975350
21
57.263360
0
LINE
8
Layer 1
10
81.975350
20
57.263360
11
82.273325
21
56.686950
0
LINE
8
Layer 1
10
82.273325
20
56.686950
11
82.387320
21
56.136540
0
LINE
8
Layer 1
10
82.387320
20
56.136540
11
82.112535
21
55.141482
0
LINE
8
Layer 1
10
82.112535
20
55.141482
11
81.632685
21
54.491249
0
LINE
8
Layer 1
10
81.632685
20
54.491249
11
81.015934
21
54.133096
0
LINE
8
Layer 1
10
81.015934
20
54.133096
11
80.330446
21
54.014275
0
LINE
8
Layer 1
10
80.330446
20
54.014275
11
79.644385
21
54.082041
0
LINE
8
Layer 1
10
79.644385
20
54.082041
11
79.025914
21
54.283648
0
LINE
8
Layer 1
10
79.025914
20
54.283648
11
78.264400
21
54.877400
0
LINE
8
Layer 1
10
78.264400
20
54.877400
11
78.264400
21
54.877400
0
LINE
8
Layer 1
10
28.455600
20
57.979100
11
29.014691
21
56.730486
0
LINE
8
Layer 1
10
29.014691
20
56.730486
11
29.716396
21
56.064208
0
LINE
8
Layer 1
10
29.716396
20
56.064208
11
31.389770
21
55.246670
0
LINE
8
Layer 1
10
31.389770
20
55.246670
11
31.273318
21
54.707763
0
LINE
8
Layer 1
10
31.273318
20
54.707763
11
30.841560
21
54.268150
0
LINE
8
Layer 1
10
30.841560
20
54.268150
11
30.265150
21
53.970175
0
LINE
8
Layer 1
10
30.265150
20
53.970175
11
29.714740
21
53.856180
0
LINE
8
Layer 1
10
29.714740
20
53.856180
11
28.719682
21
54.130965
0
LINE
8
Layer 1
10
28.719682
20
54.130965
11
28.069449
21
54.610815
0
LINE
8
Layer 1
10
28.069449
20
54.610815
11
27.711295
21
55.227566
0
LINE
8
Layer 1
10
27.711295
20
55.227566
11
27.592474
21
55.913054
0
LINE
8
Layer 1
10
27.592474
20
55.913054
11
27.660239
21
56.599115
0
LINE
8
Layer 1
10
27.660239
20
56.599115
11
27.861844
21
57.217586
0
LINE
8
Layer 1
10
27.861844
20
57.217586
11
28.455590
21
57.979100
0
LINE
8
Layer 1
10
28.455590
20
57.979100
11
28.455600
21
57.979100
0
LINE
8
Layer 1
10
69.531700
20
53.041300
11
69.240610
21
53.573096
0
LINE
8
Layer 1
10
69.240610
20
53.573096
11
68.949520
21
54.340000
0
LINE
8
Layer 1
10
68.949520
20
54.340000
11
68.854354
21
55.151692
0
LINE
8
Layer 1
10
68.854354
20
55.151692
11
68.859920
21
55.862620
0
LINE
8
Layer 1
10
68.859920
20
55.862620
11
69.755580
21
56.892620
0
LINE
8
Layer 1
10
69.755580
20
56.892620
11
70.919930
21
57.519582
0
LINE
8
Layer 1
10
70.919930
20
57.519582
11
72.263420
21
57.250885
0
LINE
8
Layer 1
10
72.263420
20
57.250885
11
73.159070
21
56.713489
0
LINE
8
Layer 1
10
73.159070
20
56.713489
11
73.920380
21
55.952180
0
LINE
8
Layer 1
10
73.920380
20
55.952180
11
74.502560
21
54.653480
0
LINE
8
Layer 1
10
74.502560
20
54.653480
11
74.608926
21
54.216847
0
LINE
8
Layer 1
10
74.608926
20
54.216847
11
74.547360
21
53.981737
0
LINE
8
Layer 1
10
74.547360
20
53.981737
11
71.815610
21
54.877394
0
LINE
8
Layer 1
10
71.815610
20
54.877394
11
70.875170
21
54.250435
0
LINE
8
Layer 1
10
70.875170
20
54.250435
11
70.164241
21
53.606682
0
LINE
8
Layer 1
10
70.164241
20
53.606682
11
69.755600
21
53.130865
0
LINE
8
Layer 1
10
69.755600
20
53.130865
11
69.531700
21
53.041300
0
LINE
8
Layer 1
10
71.770900
20
50.757400
11
72.134764
21
51.356372
0
LINE
8
Layer 1
10
72.134764
20
51.356372
11
72.666560
21
52.056100
0
LINE
8
Layer 1
10
72.666560
20
52.056100
11
73.069604
21
52.319199
0
LINE
8
Layer 1
10
73.069604
20
52.319199
11
73.359294
21
52.377278
0
LINE
8
Layer 1
10
73.359294
20
52.377278
11
73.741350
21
52.280015
0
LINE
8
Layer 1
10
73.741350
20
52.280015
11
75.801360
21
51.473922
0
LINE
8
Layer 1
10
75.801360
20
51.473922
11
76.271584
21
51.356366
0
LINE
8
Layer 1
10
76.271584
20
51.356366
11
76.607460
21
51.070877
0
LINE
8
Layer 1
10
76.607460
20
51.070877
11
77.021695
21
50.555874
0
LINE
8
Layer 1
10
77.021695
20
50.555874
11
77.368760
21
50.040867
0
LINE
8
Layer 1
10
77.368760
20
50.040867
11
77.727030
21
49.279558
0
LINE
8
Layer 1
10
77.727030
20
49.279558
11
77.850178
21
49.156405
0
LINE
8
Layer 1
10
77.850178
20
49.156405
11
77.840371
21
49.052844
0
LINE
8
Layer 1
10
77.840371
20
49.052844
11
77.637430
21
48.966077
0
LINE
8
Layer 1
10
77.637430
20
48.966077
11
76.058834
21
49.223581
0
LINE
8
Layer 1
10
76.058834
20
49.223581
11
74.816110
21
49.548255
0
LINE
8
Layer 1
10
74.816110
20
49.548255
11
74.480238
21
49.777767
0
LINE
8
Layer 1
10
74.480238
20
49.777767
11
73.875670
21
50.040867
0
LINE
8
Layer 1
10
73.875670
20
50.040867
11
72.532180
21
50.040867
0
LINE
8
Layer 1
10
72.532180
20
50.040867
11
71.770900
21
50.757400
0
LINE
8
Layer 1
10
66.979100
20
55.862700
11
66.765197
21
54.982366
0
LINE
8
Layer 1
10
66.765197
20
54.982366
11
66.827739
21
54.178122
0
LINE
8
Layer 1
10
66.827739
20
54.178122
11
67.097942
21
53.438994
0
LINE
8
Layer 1
10
67.097942
20
53.438994
11
67.507022
21
52.754004
0
LINE
8
Layer 1
10
67.507022
20
52.754004
11
68.466682
21
51.502533
0
LINE
8
Layer 1
10
68.466682
20
51.502533
11
69.156450
21
50.335900
0
LINE
8
Layer 1
10
69.156450
20
50.335900
11
68.578983
21
49.784235
0
LINE
8
Layer 1
10
68.578983
20
49.784235
11
68.552030
21
49.180298
0
LINE
8
Layer 1
10
68.552030
20
49.180298
11
68.931642
21
48.530706
0
LINE
8
Layer 1
10
68.931642
20
48.530706
11
69.573868
21
47.842075
0
LINE
8
Layer 1
10
69.573868
20
47.842075
11
71.070353
21
46.374162
0
LINE
8
Layer 1
10
71.070353
20
46.374162
11
71.636712
21
45.608113
0
LINE
8
Layer 1
10
71.636712
20
45.608113
11
71.889880
21
44.829490
0
LINE
8
Layer 1
10
71.889880
20
44.829490
11
72.105871
21
43.939752
0
LINE
8
Layer 1
10
72.105871
20
43.939752
11
72.124252
21
43.070217
0
LINE
8
Layer 1
10
72.124252
20
43.070217
11
71.697923
21
41.396839
0
LINE
8
Layer 1
10
71.697923
20
41.396839
11
70.870377
21
39.819526
0
LINE
8
Layer 1
10
70.870377
20
39.819526
11
69.901100
21
38.348450
0
LINE
8
Layer 1
10
69.901100
20
38.348450
11
69.542639
21
37.696834
0
LINE
8
Layer 1
10
69.542639
20
37.696834
11
69.419211
21
37.120754
0
LINE
8
Layer 1
10
69.419211
20
37.120754
11
69.495530
21
36.654641
0
LINE
8
Layer 1
10
69.495530
20
36.654641
11
69.736310
21
36.332926
0
LINE
8
Layer 1
10
69.736310
20
36.332926
11
70.106264
21
36.190042
0
LINE
8
Layer 1
10
70.106264
20
36.190042
11
70.570107
21
36.260420
0
LINE
8
Layer 1
10
70.570107
20
36.260420
11
71.092551
21
36.578492
0
LINE
8
Layer 1
10
71.092551
20
36.578492
11
71.638310
21
37.178690
0
LINE
8
Layer 1
10
71.638310
20
37.178690
11
72.372596
21
38.157552
0
LINE
8
Layer 1
10
72.372596
20
38.157552
11
72.841189
21
39.218633
0
LINE
8
Layer 1
10
72.841189
20
39.218633
11
73.276389
21
41.490104
0
LINE
8
Layer 1
10
73.276389
20
41.490104
11
73.534100
21
43.798405
0
LINE
8
Layer 1
10
73.534100
20
43.798405
11
73.780830
21
44.905524
0
LINE
8
Layer 1
10
73.780830
20
44.905524
11
74.204510
21
45.948840
0
LINE
8
Layer 1
10
74.204510
20
45.948840
11
75.172980
21
46.529410
0
LINE
8
Layer 1
10
75.172980
20
46.529410
11
76.268363
21
46.763361
0
LINE
8
Layer 1
10
76.268363
20
46.763361
11
77.352176
21
46.694890
0
LINE
8
Layer 1
10
77.352176
20
46.694890
11
78.285933
21
46.368195
0
LINE
8
Layer 1
10
78.285933
20
46.368195
11
78.931148
21
45.827472
0
LINE
8
Layer 1
10
78.931148
20
45.827472
11
79.149338
21
45.116919
0
LINE
8
Layer 1
10
79.149338
20
45.116919
11
78.802017
21
44.280733
0
LINE
8
Layer 1
10
78.802017
20
44.280733
11
77.750700
21
43.363110
0
LINE
8
Layer 1
10
77.750700
20
43.363110
11
77.199824
21
43.312724
0
LINE
8
Layer 1
10
77.199824
20
43.312724
11
76.704913
21
43.572741
0
LINE
8
Layer 1
10
76.704913
20
43.572741
11
75.890006
21
44.456361
0
LINE
8
Layer 1
10
75.890006
20
44.456361
11
75.573524
21
44.796153
0
LINE
8
Layer 1
10
75.573524
20
44.796153
11
75.320029
21
44.878725
0
LINE
8
Layer 1
10
75.320029
20
44.878725
11
75.131279
21
44.562173
0
LINE
8
Layer 1
10
75.131279
20
44.562173
11
75.009030
21
43.704590
0
LINE
8
Layer 1
10
75.009030
20
43.704590
11
74.689253
21
41.611157
0
LINE
8
Layer 1
10
74.689253
20
41.611157
11
74.216382
21
39.514702
0
LINE
8
Layer 1
10
74.216382
20
39.514702
11
73.423821
21
37.562132
0
LINE
8
Layer 1
10
73.423821
20
37.562132
11
72.855594
21
36.685711
0
LINE
8
Layer 1
10
72.855594
20
36.685711
11
72.144970
21
35.900350
0
LINE
8
Layer 1
10
72.144970
20
35.900350
11
70.273958
21
34.563070
0
LINE
8
Layer 1
10
70.273958
20
34.563070
11
68.699762
21
32.909879
0
LINE
8
Layer 1
10
68.699762
20
32.909879
11
65.861140
21
29.287600
0
LINE
8
Layer 1
10
65.861140
20
29.287600
11
63.404603
21
23.103870
0
LINE
8
Layer 1
10
63.404603
20
23.103870
11
61.104419
21
16.859799
0
LINE
8
Layer 1
10
61.104419
20
16.859799
11
59.006013
21
10.546553
0
LINE
8
Layer 1
10
59.006013
20
10.546553
11
57.154810
21
4.155300
0
LINE
8
Layer 1
10
57.154810
20
4.155300
11
57.064316
21
3.192126
0
LINE
8
Layer 1
10
57.064316
20
3.192126
11
56.715204
21
2.645632
0
LINE
8
Layer 1
10
56.715204
20
2.645632
11
56.559349
21
2.607701
0
LINE
8
Layer 1
10
56.559349
20
2.607701
11
56.477660
21
2.768811
0
LINE
8
Layer 1
10
56.477660
20
2.768811
11
56.721870
21
3.814650
0
LINE
8
Layer 1
10
56.721870
20
3.814650
11
57.826036
21
8.931811
0
LINE
8
Layer 1
10
57.826036
20
8.931811
11
58.482963
21
11.459873
0
LINE
8
Layer 1
10
58.482963
20
11.459873
11
59.439970
21
13.903150
0
LINE
8
Layer 1
10
59.439970
20
13.903150
11
60.228310
21
15.589600
0
LINE
8
Layer 1
10
60.228310
20
15.589600
11
60.854246
21
17.331478
0
LINE
8
Layer 1
10
60.854246
20
17.331478
11
61.831218
21
20.908897
0
LINE
8
Layer 1
10
61.831218
20
20.908897
11
62.795510
21
24.490168
0
LINE
8
Layer 1
10
62.795510
20
24.490168
11
63.405598
21
26.236860
0
LINE
8
Layer 1
10
63.405598
20
26.236860
11
64.171750
21
27.930050
0
LINE
8
Layer 1
10
64.171750
20
27.930050
11
65.591308
21
29.893077
0
LINE
8
Layer 1
10
65.591308
20
29.893077
11
66.893336
21
31.919897
0
LINE
8
Layer 1
10
66.893336
20
31.919897
11
67.922591
21
34.073959
0
LINE
8
Layer 1
10
67.922591
20
34.073959
11
68.523830
21
36.418710
0
LINE
8
Layer 1
10
68.523830
20
36.418710
11
68.837707
21
38.540085
0
LINE
8
Layer 1
10
68.837707
20
38.540085
11
68.967863
21
40.681441
0
LINE
8
Layer 1
10
68.967863
20
40.681441
11
69.243880
21
44.951650
0
LINE
8
Layer 1
10
69.243880
20
44.951650
11
68.853922
21
45.779155
0
LINE
8
Layer 1
10
68.853922
20
45.779155
11
68.348538
21
46.536493
0
LINE
8
Layer 1
10
68.348538
20
46.536493
11
67.160871
21
47.945121
0
LINE
8
Layer 1
10
67.160871
20
47.945121
11
66.019631
21
49.386444
0
LINE
8
Layer 1
10
66.019631
20
49.386444
11
65.572281
21
50.184649
0
LINE
8
Layer 1
10
65.572281
20
50.184649
11
65.263570
21
51.069370
0
LINE
8
Layer 1
10
65.263570
20
51.069370
11
65.472737
21
51.182709
0
LINE
8
Layer 1
10
65.472737
20
51.182709
11
65.868957
21
51.147356
0
LINE
8
Layer 1
10
65.868957
20
51.147356
11
66.870577
21
50.922042
0
LINE
8
Layer 1
10
66.870577
20
50.922042
11
67.299992
21
50.877813
0
LINE
8
Layer 1
10
67.299992
20
50.877813
11
67.564485
21
50.976358
0
LINE
8
Layer 1
10
67.564485
20
50.976358
11
67.576062
21
51.290544
0
LINE
8
Layer 1
10
67.576062
20
51.290544
11
67.246730
21
51.893237
0
LINE
8
Layer 1
10
67.246730
20
51.893237
11
66.779533
21
52.784744
0
LINE
8
Layer 1
10
66.779533
20
52.784744
11
66.603455
21
53.824227
0
LINE
8
Layer 1
10
66.603455
20
53.824227
11
66.682107
21
54.890583
0
LINE
8
Layer 1
10
66.682107
20
54.890583
11
66.979100
21
55.862707
0
LINE
8
Layer 1
10
66.979100
20
55.862707
11
66.979100
21
55.862700
0
LINE
8
Layer 1
10
69.442200
20
49.010900
11
69.934820
21
49.413945
0
LINE
8
Layer 1
10
69.934820
20
49.413945
11
70.293080
21
49.324385
0
LINE
8
Layer 1
10
70.293080
20
49.324385
11
70.561780
21
48.697423
0
LINE
8
Layer 1
10
70.561780
20
48.697423
11
69.934820
21
48.563076
0
LINE
8
Layer 1
10
69.934820
20
48.563076
11
69.442200
21
49.010900
0
LINE
8
Layer 1
10
71.591700
20
48.070400
11
72.084310
21
48.742143
0
LINE
8
Layer 1
10
72.084310
20
48.742143
11
73.069540
21
49.055624
0
LINE
8
Layer 1
10
73.069540
20
49.055624
11
73.315844
21
48.809318
0
LINE
8
Layer 1
10
73.315844
20
48.809318
11
73.447392
21
48.602197
0
LINE
8
Layer 1
10
73.447392
20
48.602197
11
73.427800
21
48.428662
0
LINE
8
Layer 1
10
73.427800
20
48.428662
11
72.621710
21
47.398652
0
LINE
8
Layer 1
10
72.621710
20
47.398652
11
71.950000
21
47.040400
0
LINE
8
Layer 1
10
71.950000
20
47.040400
11
71.591700
21
48.070400
0
LINE
8
Layer 1
10
66.352100
20
44.577400
11
66.685581
21
45.163864
0
LINE
8
Layer 1
10
66.685581
20
45.163864
11
67.053756
21
45.384352
0
LINE
8
Layer 1
10
67.053756
20
45.384352
11
67.474148
21
45.279734
0
LINE
8
Layer 1
10
67.474148
20
45.279734
11
67.964280
21
44.890879
0
LINE
8
Layer 1
10
67.964280
20
44.890879
11
67.750597
21
44.365350
0
LINE
8
Layer 1
10
67.750597
20
44.365350
11
67.202970
21
44.084791
0
LINE
8
Layer 1
10
67.202970
20
44.084791
11
66.352100
21
44.577400
0
LINE
8
Layer 1
10
66.352100
20
44.577400
11
66.352100
21
44.577400
0
LINE
8
Layer 1
10
63.530800
20
48.831700
11
64.046229
21
49.099536
0
LINE
8
Layer 1
10
64.046229
20
49.099536
11
64.292100
21
49.637791
0
LINE
8
Layer 1
10
64.292100
20
49.637791
11
64.616779
21
49.369094
0
LINE
8
Layer 1
10
64.616779
20
49.369094
11
64.874280
21
48.966048
0
LINE
8
Layer 1
10
64.874280
20
48.966048
11
64.528247
21
48.369417
0
LINE
8
Layer 1
10
64.528247
20
48.369417
11
63.844280
21
48.204735
0
LINE
8
Layer 1
10
63.844280
20
48.204735
11
63.530800
21
48.831700
0
LINE
8
Layer 1
10
46.110300
20
47.980900
11
45.421368
21
48.213546
0
LINE
8
Layer 1
10
45.421368
20
48.213546
11
45.035510
21
48.831776
0
LINE
8
Layer 1
10
45.035510
20
48.831776
11
45.474752
21
49.347690
0
LINE
8
Layer 1
10
45.474752
20
49.347690
11
46.065510
21
49.682650
0
LINE
8
Layer 1
10
46.065510
20
49.682650
11
46.461576
21
49.283945
0
LINE
8
Layer 1
10
46.461576
20
49.283945
11
46.533545
21
48.766235
0
LINE
8
Layer 1
10
46.533545
20
48.766235
11
46.382691
21
48.281295
0
LINE
8
Layer 1
10
46.382691
20
48.281295
11
46.110290
21
47.980900
0
LINE
8
Layer 1
10
46.110290
20
47.980900
11
46.110300
21
47.980900
0
LINE
8
Layer 1
10
43.602400
20
55.146100
11
43.451443
21
54.063953
0
LINE
8
Layer 1
10
43.451443
20
54.063953
11
43.145299
21
52.991755
0
LINE
8
Layer 1
10
43.145299
20
52.991755
11
42.342830
21
51.110440
0
LINE
8
Layer 1
10
42.342830
20
51.110440
11
43.579194
21
51.106581
0
LINE
8
Layer 1
10
43.579194
20
51.106581
11
44.598554
21
50.782626
0
LINE
8
Layer 1
10
44.598554
20
50.782626
11
44.859405
21
50.520069
0
LINE
8
Layer 1
10
44.859405
20
50.520069
11
44.865062
21
50.200838
0
LINE
8
Layer 1
10
44.865062
20
50.200838
11
44.548544
21
49.832714
0
LINE
8
Layer 1
10
44.548544
20
49.832714
11
43.842870
21
49.423480
0
LINE
8
Layer 1
10
43.842870
20
49.423480
11
43.068043
21
48.597088
0
LINE
8
Layer 1
10
43.068043
20
48.597088
11
42.380514
21
47.679420
0
LINE
8
Layer 1
10
42.380514
20
47.679420
11
41.033170
21
45.810350
0
LINE
8
Layer 1
10
41.033170
20
45.810350
11
40.719073
21
45.094098
0
LINE
8
Layer 1
10
40.719073
20
45.094098
11
40.571956
21
44.352681
0
LINE
8
Layer 1
10
40.571956
20
44.352681
11
40.655454
21
42.826840
0
LINE
8
Layer 1
10
40.655454
20
42.826840
11
41.470920
21
39.830580
0
LINE
8
Layer 1
10
41.470920
20
39.830580
11
42.611489
21
36.662379
0
LINE
8
Layer 1
10
42.611489
20
36.662379
11
43.042567
21
35.048434
0
LINE
8
Layer 1
10
43.042567
20
35.048434
11
43.220460
21
33.376450
0
LINE
8
Layer 1
10
43.220460
20
33.376450
11
43.226788
21
32.682764
0
LINE
8
Layer 1
10
43.226788
20
32.682764
11
43.037086
21
32.255771
0
LINE
8
Layer 1
10
43.037086
20
32.255771
11
42.706477
21
32.065404
0
LINE
8
Layer 1
10
42.706477
20
32.065404
11
42.290083
21
32.081594
0
LINE
8
Layer 1
10
42.290083
20
32.081594
11
41.420430
21
32.613367
0
LINE
8
Layer 1
10
41.420430
20
32.613367
11
41.077417
21
33.068813
0
LINE
8
Layer 1
10
41.077417
20
33.068813
11
40.869110
21
33.610540
0
LINE
8
Layer 1
10
40.869110
20
33.610540
11
39.859401
21
34.881753
0
LINE
8
Layer 1
10
39.859401
20
34.881753
11
38.724365
21
36.052819
0
LINE
8
Layer 1
10
38.724365
20
36.052819
11
37.642917
21
37.263205
0
LINE
8
Layer 1
10
37.642917
20
37.263205
11
36.793970
21
38.652380
0
LINE
8
Layer 1
10
36.793970
20
38.652380
11
35.964619
21
40.988909
0
LINE
8
Layer 1
10
35.964619
20
40.988909
11
35.484360
21
43.409970
0
LINE
8
Layer 1
10
35.484360
20
43.409970
11
35.127468
21
44.244420
0
LINE
8
Layer 1
10
35.127468
20
44.244420
11
34.526148
21
44.568149
0
LINE
8
Layer 1
10
34.526148
20
44.568149
11
34.223124
21
44.522440
0
LINE
8
Layer 1
10
34.223124
20
44.522440
11
33.966151
21
44.329788
0
LINE
8
Layer 1
10
33.966151
20
44.329788
11
33.790947
21
43.983772
0
LINE
8
Layer 1
10
33.790947
20
43.983772
11
33.733230
21
43.477970
0
LINE
8
Layer 1
10
33.733230
20
43.477970
11
33.177127
21
43.031927
0
LINE
8
Layer 1
10
33.177127
20
43.031927
11
32.676922
21
42.934282
0
LINE
8
Layer 1
10
32.676922
20
42.934282
11
32.243036
21
43.116837
0
LINE
8
Layer 1
10
32.243036
20
43.116837
11
31.885888
21
43.511396
0
LINE
8
Layer 1
10
31.885888
20
43.511396
11
31.443487
21
44.663733
0
LINE
8
Layer 1
10
31.443487
20
44.663733
11
31.433080
21
45.845710
0
LINE
8
Layer 1
10
31.433080
20
45.845710
11
31.572772
21
46.469061
0
LINE
8
Layer 1
10
31.572772
20
46.469061
11
31.872118
21
46.910963
0
LINE
8
Layer 1
10
31.872118
20
46.910963
11
32.294926
21
47.190584
0
LINE
8
Layer 1
10
32.294926
20
47.190584
11
32.805003
21
47.327092
0
LINE
8
Layer 1
10
32.805003
20
47.327092
11
33.942194
21
47.247446
0
LINE
8
Layer 1
10
33.942194
20
47.247446
11
34.994150
21
46.825369
0
LINE
8
Layer 1
10
34.994150
20
46.825369
11
35.516781
21
46.591451
0
LINE
8
Layer 1
10
35.516781
20
46.591451
11
35.947680
21
46.247215
0
LINE
8
Layer 1
10
35.947680
20
46.247215
11
36.579004
21
45.316597
0
LINE
8
Layer 1
10
36.579004
20
45.316597
11
36.977563
21
44.211133
0
LINE
8
Layer 1
10
36.977563
20
44.211133
11
37.232800
21
43.108439
0
LINE
8
Layer 1
10
37.232800
20
43.108439
11
37.011041
21
42.572476
0
LINE
8
Layer 1
10
37.011041
20
42.572476
11
36.974346
21
42.027786
0
LINE
8
Layer 1
10
36.974346
20
42.027786
11
37.291396
21
40.926799
0
LINE
8
Layer 1
10
37.291396
20
40.926799
11
37.854440
21
39.834624
0
LINE
8
Layer 1
10
37.854440
20
39.834624
11
38.333970
21
38.780409
0
LINE
8
Layer 1
10
38.333970
20
38.780409
11
39.924590
21
37.045558
0
LINE
8
Layer 1
10
39.924590
20
37.045558
11
40.301802
21
36.742808
0
LINE
8
Layer 1
10
40.301802
20
36.742808
11
40.591165
21
36.683048
0
LINE
8
Layer 1
10
40.591165
20
36.683048
11
40.752847
21
36.961581
0
LINE
8
Layer 1
10
40.752847
20
36.961581
11
40.747010
21
37.673709
0
LINE
8
Layer 1
10
40.747010
20
37.673709
11
40.681663
21
38.323009
0
LINE
8
Layer 1
10
40.681663
20
38.323009
11
40.433495
21
38.841553
0
LINE
8
Layer 1
10
40.433495
20
38.841553
11
39.660723
21
39.661168
0
LINE
8
Layer 1
10
39.660723
20
39.661168
11
38.972759
21
40.482138
0
LINE
8
Layer 1
10
38.972759
20
40.482138
11
38.830601
21
41.002377
0
LINE
8
Layer 1
10
38.830601
20
41.002377
11
38.913670
21
41.654049
0
LINE
8
Layer 1
10
38.913670
20
41.654049
11
38.570774
21
42.927569
0
LINE
8
Layer 1
10
38.570774
20
42.927569
11
38.422060
21
44.259405
0
LINE
8
Layer 1
10
38.422060
20
44.259405
11
38.529756
21
45.583076
0
LINE
8
Layer 1
10
38.529756
20
45.583076
11
38.956090
21
46.832099
0
LINE
8
Layer 1
10
38.956090
20
46.832099
11
39.824021
21
47.597497
0
LINE
8
Layer 1
10
39.824021
20
47.597497
11
40.904303
21
48.285549
0
LINE
8
Layer 1
10
40.904303
20
48.285549
11
41.366817
21
48.663300
0
LINE
8
Layer 1
10
41.366817
20
48.663300
11
41.693706
21
49.096991
0
LINE
8
Layer 1
10
41.693706
20
49.096991
11
41.822069
21
49.611713
0
LINE
8
Layer 1
10
41.822069
20
49.611713
11
41.689000
21
50.232559
0
LINE
8
Layer 1
10
41.689000
20
50.232559
11
41.187752
21
50.728728
0
LINE
8
Layer 1
10
41.187752
20
50.728728
11
41.084136
21
51.227868
0
LINE
8
Layer 1
10
41.084136
20
51.227868
11
41.268677
21
51.736078
0
LINE
8
Layer 1
10
41.268677
20
51.736078
11
41.631900
21
52.259456
0
LINE
8
Layer 1
10
41.631900
20
52.259456
11
42.456489
21
53.376121
0
LINE
8
Layer 1
10
42.456489
20
53.376121
11
42.698905
21
53.981606
0
LINE
8
Layer 1
10
42.698905
20
53.981606
11
42.682101
21
54.626659
0
LINE
8
Layer 1
10
42.682101
20
54.626659
11
42.762229
21
54.978575
0
LINE
8
Layer 1
10
42.762229
20
54.978575
11
42.969768
21
55.234796
0
LINE
8
Layer 1
10
42.969768
20
55.234796
11
43.263550
21
55.316811
0
LINE
8
Layer 1
10
43.263550
20
55.316811
11
43.602407
21
55.146108
0
LINE
8
Layer 1
10
43.602407
20
55.146108
11
43.602400
21
55.146100
0
LINE
8
Layer 1
10
36.651600
20
48.810000
11
37.534744
21
48.940235
0
LINE
8
Layer 1
10
37.534744
20
48.940235
11
38.102986
21
48.872061
0
LINE
8
Layer 1
10
38.102986
20
48.872061
11
38.426775
21
48.541026
0
LINE
8
Layer 1
10
38.426775
20
48.541026
11
38.576560
21
47.882676
0
LINE
8
Layer 1
10
38.576560
20
47.882676
11
38.527422
21
47.316167
0
LINE
8
Layer 1
10
38.527422
20
47.316167
11
38.444698
21
47.119117
0
LINE
8
Layer 1
10
38.444698
20
47.119117
11
36.915859
21
47.954114
0
LINE
8
Layer 1
10
36.915859
20
47.954114
11
36.416536
21
48.444085
0
LINE
8
Layer 1
10
36.416536
20
48.444085
11
36.416129
21
48.650628
0
LINE
8
Layer 1
10
36.416129
20
48.650628
11
36.651598
21
48.809997
0
LINE
8
Layer 1
10
36.651598
20
48.809997
11
36.651600
21
48.810000
0
LINE
8
Layer 1
10
39.975000
20
48.563000
11
39.846250
21
48.764523
0
LINE
8
Layer 1
10
39.846250
20
48.764523
11
39.751086
21
49.100395
0
LINE
8
Layer 1
10
39.751086
20
49.100395
11
40.243698
21
49.772138
0
LINE
8
Layer 1
10
40.243698
20
49.772138
11
40.406036
21
49.604202
0
LINE
8
Layer 1
10
40.406036
20
49.604202
11
40.601962
21
49.234743
0
LINE
8
Layer 1
10
40.601962
20
49.234743
11
40.657939
21
48.854088
0
LINE
8
Layer 1
10
40.657939
20
48.854088
11
40.512392
21
48.607783
0
LINE
8
Layer 1
10
40.512392
20
48.607783
11
39.974997
21
48.563003
0
LINE
8
Layer 1
10
39.974997
20
48.563003
11
39.975000
21
48.563000
0
LINE
8
Layer 1
10
42.176100
20
45.769700
11
42.363265
21
45.997923
0
LINE
8
Layer 1
10
42.363265
20
45.997923
11
42.529727
21
46.041470
0
LINE
8
Layer 1
10
42.529727
20
46.041470
11
42.684780
21
45.823100
0
LINE
8
Layer 1
10
42.684780
20
45.823100
11
42.885835
21
45.343734
0
LINE
8
Layer 1
10
42.885835
20
45.343734
11
43.303416
21
45.101162
0
LINE
8
Layer 1
10
43.303416
20
45.101162
11
43.674672
21
44.964093
0
LINE
8
Layer 1
10
43.674672
20
44.964093
11
43.736750
21
44.801240
0
LINE
8
Layer 1
10
43.736750
20
44.801240
11
43.374633
21
44.501734
0
LINE
8
Layer 1
10
43.374633
20
44.501734
11
42.997744
21
44.385294
0
LINE
8
Layer 1
10
42.997744
20
44.385294
11
42.322480
21
44.242816
0
LINE
8
Layer 1
10
42.322480
20
44.242816
11
41.868363
21
44.288800
0
LINE
8
Layer 1
10
41.868363
20
44.288800
11
41.661904
21
44.588664
0
LINE
8
Layer 1
10
41.661904
20
44.588664
11
41.749138
21
45.097325
0
LINE
8
Layer 1
10
41.749138
20
45.097325
11
42.176100
21
45.769696
0
LINE
8
Layer 1
10
42.176100
20
45.769696
11
42.176100
21
45.769700
0
LINE
8
Layer 1
10
50.024700
20
54.235900
11
50.558394
21
54.728409
0
LINE
8
Layer 1
10
50.558394
20
54.728409
11
51.260566
21
54.798492
0
LINE
8
Layer 1
10
51.260566
20
54.798492
11
51.933123
21
54.509698
0
LINE
8
Layer 1
10
51.933123
20
54.509698
11
52.377970
21
53.925577
0
LINE
8
Layer 1
10
52.377970
20
53.925577
11
52.943648
21
52.388798
0
LINE
8
Layer 1
10
52.943648
20
52.388798
11
53.175229
21
51.602770
0
LINE
8
Layer 1
10
53.175229
20
51.602770
11
53.512760
21
50.855437
0
LINE
8
Layer 1
10
53.512760
20
50.855437
11
54.133664
21
48.791525
0
LINE
8
Layer 1
10
54.133664
20
48.791525
11
54.314430
21
46.644167
0
LINE
8
Layer 1
10
54.314430
20
46.644167
11
54.367298
21
45.690222
0
LINE
8
Layer 1
10
54.367298
20
45.690222
11
54.293823
21
44.716747
0
LINE
8
Layer 1
10
54.293823
20
44.716747
11
54.020228
21
43.801877
0
LINE
8
Layer 1
10
54.020228
20
43.801877
11
53.472740
21
43.023747
0
LINE
8
Layer 1
10
53.472740
20
43.023747
11
52.753532
21
42.818123
0
LINE
8
Layer 1
10
52.753532
20
42.818123
11
52.123251
21
43.079202
0
LINE
8
Layer 1
10
52.123251
20
43.079202
11
51.584322
21
43.603313
0
LINE
8
Layer 1
10
51.584322
20
43.603313
11
51.139170
21
44.186787
0
LINE
8
Layer 1
10
51.139170
20
44.186787
11
50.691978
21
44.562248
0
LINE
8
Layer 1
10
50.691978
20
44.562248
11
50.263978
21
44.673234
0
LINE
8
Layer 1
10
50.263978
20
44.673234
11
49.875681
21
44.567116
0
LINE
8
Layer 1
10
49.875681
20
44.567116
11
49.547598
21
44.291267
0
LINE
8
Layer 1
10
49.547598
20
44.291267
11
49.154110
21
43.419858
0
LINE
8
Layer 1
10
49.154110
20
43.419858
11
49.129728
21
42.919041
0
LINE
8
Layer 1
10
49.129728
20
42.919041
11
49.247600
21
42.437977
0
LINE
8
Layer 1
10
49.247600
20
42.437977
11
49.610171
21
40.915633
0
LINE
8
Layer 1
10
49.610171
20
40.915633
11
50.215091
21
39.474252
0
LINE
8
Layer 1
10
50.215091
20
39.474252
11
51.543370
21
36.645527
0
LINE
8
Layer 1
10
51.543370
20
36.645527
11
51.919040
21
34.256586
0
LINE
8
Layer 1
10
51.919040
20
34.256586
11
52.397223
21
31.880417
0
LINE
8
Layer 1
10
52.397223
20
31.880417
11
52.782453
21
29.494656
0
LINE
8
Layer 1
10
52.782453
20
29.494656
11
52.879270
21
27.076937
0
LINE
8
Layer 1
10
52.879270
20
27.076937
11
52.986828
21
25.920375
0
LINE
8
Layer 1
10
52.986828
20
25.920375
11
53.026000
21
25.201467
0
LINE
8
Layer 1
10
53.026000
20
25.201467
11
52.558589
21
26.517730
0
LINE
8
Layer 1
10
52.558589
20
26.517730
11
51.948525
21
27.774201
0
LINE
8
Layer 1
10
51.948525
20
27.774201
11
50.708150
21
30.273817
0
LINE
8
Layer 1
10
50.708150
20
30.273817
11
50.318232
21
31.625145
0
LINE
8
Layer 1
10
50.318232
20
31.625145
11
49.778628
21
32.905671
0
LINE
8
Layer 1
10
49.778628
20
32.905671
11
48.379684
21
35.313130
0
LINE
8
Layer 1
10
48.379684
20
35.313130
11
45.208120
21
39.925317
0
LINE
8
Layer 1
10
45.208120
20
39.925317
11
44.106838
21
41.520179
0
LINE
8
Layer 1
10
44.106838
20
41.520179
11
43.583462
21
42.269361
0
LINE
8
Layer 1
10
43.583462
20
42.269361
11
43.371920
21
42.796157
0
LINE
8
Layer 1
10
43.371920
20
42.796157
11
44.942662
21
41.466955
0
LINE
8
Layer 1
10
44.942662
20
41.466955
11
46.276354
21
39.852401
0
LINE
8
Layer 1
10
46.276354
20
39.852401
11
47.426608
21
38.040628
0
LINE
8
Layer 1
10
47.426608
20
38.040628
11
48.447039
21
36.119771
0
LINE
8
Layer 1
10
48.447039
20
36.119771
11
50.312885
21
32.303334
0
LINE
8
Layer 1
10
50.312885
20
32.303334
11
51.265527
21
30.584021
0
LINE
8
Layer 1
10
51.265527
20
30.584021
11
52.302800
21
29.108157
0
LINE
8
Layer 1
10
52.302800
20
29.108157
11
52.159251
21
30.765808
0
LINE
8
Layer 1
10
52.159251
20
30.765808
11
51.896550
21
32.561197
0
LINE
8
Layer 1
10
51.896550
20
32.561197
11
51.194855
21
35.021701
0
LINE
8
Layer 1
10
51.194855
20
35.021701
11
50.193933
21
37.385359
0
LINE
8
Layer 1
10
50.193933
20
37.385359
11
49.194649
21
39.749967
0
LINE
8
Layer 1
10
49.194649
20
39.749967
11
48.497870
21
42.213317
0
LINE
8
Layer 1
10
48.497870
20
42.213317
11
48.439984
21
43.695496
0
LINE
8
Layer 1
10
48.439984
20
43.695496
11
48.642820
21
45.159922
0
LINE
8
Layer 1
10
48.642820
20
45.159922
11
49.088191
21
46.571241
0
LINE
8
Layer 1
10
49.088191
20
46.571241
11
49.757910
21
47.894097
0
LINE
8
Layer 1
10
49.757910
20
47.894097
11
49.935134
21
48.914948
0
LINE
8
Layer 1
10
49.935134
20
48.914948
11
49.956476
21
49.812877
0
LINE
8
Layer 1
10
49.956476
20
49.812877
11
49.761064
21
51.355457
0
LINE
8
Layer 1
10
49.761064
20
51.355457
11
49.630772
21
52.752814
0
LINE
8
Layer 1
10
49.630772
20
52.752814
11
49.733515
21
53.469215
0
LINE
8
Layer 1
10
49.733515
20
53.469215
11
50.024700
21
54.235927
0
LINE
8
Layer 1
10
50.024700
20
54.235927
11
50.024700
21
54.235900
0
LINE
8
Layer 1
10
60.467100
20
54.235900
11
59.933406
21
54.728409
0
LINE
8
Layer 1
10
59.933406
20
54.728409
11
59.231234
21
54.798492
0
LINE
8
Layer 1
10
59.231234
20
54.798492
11
58.558677
21
54.509698
0
LINE
8
Layer 1
10
58.558677
20
54.509698
11
58.113830
21
53.925577
0
LINE
8
Layer 1
10
58.113830
20
53.925577
11
57.548153
21
52.388798
0
LINE
8
Layer 1
10
57.548153
20
52.388798
11
57.316571
21
51.602770
0
LINE
8
Layer 1
10
57.316571
20
51.602770
11
56.979040
21
50.855437
0
LINE
8
Layer 1
10
56.979040
20
50.855437
11
56.358136
21
48.791525
0
LINE
8
Layer 1
10
56.358136
20
48.791525
11
56.177370
21
46.644167
0
LINE
8
Layer 1
10
56.177370
20
46.644167
11
56.124502
21
45.690222
0
LINE
8
Layer 1
10
56.124502
20
45.690222
11
56.197978
21
44.716747
0
LINE
8
Layer 1
10
56.197978
20
44.716747
11
56.471572
21
43.801877
0
LINE
8
Layer 1
10
56.471572
20
43.801877
11
57.019060
21
43.023747
0
LINE
8
Layer 1
10
57.019060
20
43.023747
11
57.738268
21
42.818123
0
LINE
8
Layer 1
10
57.738268
20
42.818123
11
58.368549
21
43.079202
0
LINE
8
Layer 1
10
58.368549
20
43.079202
11
58.907478
21
43.603313
0
LINE
8
Layer 1
10
58.907478
20
43.603313
11
59.352630
21
44.186787
0
LINE
8
Layer 1
10
59.352630
20
44.186787
11
59.799822
21
44.562248
0
LINE
8
Layer 1
10
59.799822
20
44.562248
11
60.227822
21
44.673234
0
LINE
8
Layer 1
10
60.227822
20
44.673234
11
60.616119
21
44.567116
0
LINE
8
Layer 1
10
60.616119
20
44.567116
11
60.944202
21
44.291267
0
LINE
8
Layer 1
10
60.944202
20
44.291267
11
61.337690
21
43.419858
0
LINE
8
Layer 1
10
61.337690
20
43.419858
11
61.362072
21
42.919041
0
LINE
8
Layer 1
10
61.362072
20
42.919041
11
61.244200
21
42.437977
0
LINE
8
Layer 1
10
61.244200
20
42.437977
11
60.881629
21
40.915633
0
LINE
8
Layer 1
10
60.881629
20
40.915633
11
60.276709
21
39.474252
0
LINE
8
Layer 1
10
60.276709
20
39.474252
11
58.948430
21
36.645527
0
LINE
8
Layer 1
10
58.948430
20
36.645527
11
58.572760
21
34.256586
0
LINE
8
Layer 1
10
58.572760
20
34.256586
11
58.094577
21
31.880417
0
LINE
8
Layer 1
10
58.094577
20
31.880417
11
57.709347
21
29.494656
0
LINE
8
Layer 1
10
57.709347
20
29.494656
11
57.612530
21
27.076937
0
LINE
8
Layer 1
10
57.612530
20
27.076937
11
57.504972
21
25.920375
0
LINE
8
Layer 1
10
57.504972
20
25.920375
11
57.465800
21
25.201467
0
LINE
8
Layer 1
10
57.465800
20
25.201467
11
57.933211
21
26.517730
0
LINE
8
Layer 1
10
57.933211
20
26.517730
11
58.543275
21
27.774201
0
LINE
8
Layer 1
10
58.543275
20
27.774201
11
59.783650
21
30.273817
0
LINE
8
Layer 1
10
59.783650
20
30.273817
11
60.173568
21
31.625145
0
LINE
8
Layer 1
10
60.173568
20
31.625145
11
60.713172
21
32.905671
0
LINE
8
Layer 1
10
60.713172
20
32.905671
11
62.112116
21
35.313130
0
LINE
8
Layer 1
10
62.112116
20
35.313130
11
65.283680
21
39.925317
0
LINE
8
Layer 1
10
65.283680
20
39.925317
11
66.384956
21
41.520179
0
LINE
8
Layer 1
10
66.384956
20
41.520179
11
66.908333
21
42.269361
0
LINE
8
Layer 1
10
66.908333
20
42.269361
11
67.119880
21
42.796157
0
LINE
8
Layer 1
10
67.119880
20
42.796157
11
65.549138
21
41.466955
0
LINE
8
Layer 1
10
65.549138
20
41.466955
11
64.215446
21
39.852401
0
LINE
8
Layer 1
10
64.215446
20
39.852401
11
63.065192
21
38.040628
0
LINE
8
Layer 1
10
63.065192
20
38.040628
11
62.044761
21
36.119771
0
LINE
8
Layer 1
10
62.044761
20
36.119771
11
60.178915
21
32.303334
0
LINE
8
Layer 1
10
60.178915
20
32.303334
11
59.226273
21
30.584021
0
LINE
8
Layer 1
10
59.226273
20
30.584021
11
58.189000
21
29.108157
0
LINE
8
Layer 1
10
58.189000
20
29.108157
11
58.332549
21
30.765808
0
LINE
8
Layer 1
10
58.332549
20
30.765808
11
58.595250
21
32.561197
0
LINE
8
Layer 1
10
58.595250
20
32.561197
11
59.296945
21
35.021701
0
LINE
8
Layer 1
10
59.296945
20
35.021701
11
60.297868
21
37.385359
0
LINE
8
Layer 1
10
60.297868
20
37.385359
11
61.297151
21
39.749967
0
LINE
8
Layer 1
10
61.297151
20
39.749967
11
61.993930
21
42.213317
0
LINE
8
Layer 1
10
61.993930
20
42.213317
11
62.051816
21
43.695496
0
LINE
8
Layer 1
10
62.051816
20
43.695496
11
61.848980
21
45.159922
0
LINE
8
Layer 1
10
61.848980
20
45.159922
11
61.403609
21
46.571241
0
LINE
8
Layer 1
10
61.403609
20
46.571241
11
60.733890
21
47.894097
0
LINE
8
Layer 1
10
60.733890
20
47.894097
11
60.556666
21
48.914948
0
LINE
8
Layer 1
10
60.556666
20
48.914948
11
60.535324
21
49.812877
0
LINE
8
Layer 1
10
60.535324
20
49.812877
11
60.730736
21
51.355457
0
LINE
8
Layer 1
10
60.730736
20
51.355457
11
60.861028
21
52.752814
0
LINE
8
Layer 1
10
60.861028
20
52.752814
11
60.758285
21
53.469215
0
LINE
8
Layer 1
10
60.758285
20
53.469215
11
60.467100
21
54.235927
0
LINE
8
Layer 1
10
60.467100
20
54.235927
11
60.467100
21
54.235900
0
LINE
8
Layer 1
10
43.109800
20
38.576500
11
46.602860
21
34.366910
0
LINE
8
Layer 1
10
46.602860
20
34.366910
11
50.185490
21
27.649480
0
LINE
8
Layer 1
10
50.185490
20
27.649480
11
51.797670
21
22.006840
0
LINE
8
Layer 1
10
51.797670
20
22.006840
11
53.141160
21
17.528560
0
LINE
8
Layer 1
10
53.141160
20
17.528560
11
53.230760
21
15.289410
0
LINE
8
Layer 1
10
53.230760
20
15.289410
11
52.514300
21
15.289400
0
LINE
8
Layer 1
10
52.514300
20
15.289400
11
51.260380
21
19.857250
0
LINE
8
Layer 1
10
51.260380
20
19.857250
11
50.006460
21
25.858160
0
LINE
8
Layer 1
10
50.006460
20
25.858160
11
48.662970
21
29.082530
0
LINE
8
Layer 1
10
48.662970
20
29.082530
11
46.513400
21
32.575590
0
LINE
8
Layer 1
10
46.513400
20
32.575590
11
44.542950
21
35.352130
0
LINE
8
Layer 1
10
44.542950
20
35.352130
11
43.468160
21
37.143440
0
LINE
8
Layer 1
10
43.468160
20
37.143440
11
42.930765
21
38.934760
0
LINE
8
Layer 1
10
42.930765
20
38.934760
11
43.109800
21
38.576500
0
LINE
8
Layer 1
10
53.947300
20
37.322500
11
51.618590
21
40.322960
0
LINE
8
Layer 1
10
51.618590
20
40.322960
11
51.612990
21
40.916332
0
LINE
8
Layer 1
10
51.612990
20
40.916332
11
51.708190
21
41.711230
0
LINE
8
Layer 1
10
51.708190
20
41.711230
11
52.424710
21
42.741230
0
LINE
8
Layer 1
10
52.424710
20
42.741230
11
52.956509
21
42.506119
0
LINE
8
Layer 1
10
52.956509
20
42.506119
11
53.589070
21
42.069490
0
LINE
8
Layer 1
10
53.589070
20
42.069490
11
54.350380
21
39.606430
0
LINE
8
Layer 1
10
54.350380
20
39.606430
11
55.022120
21
35.486410
0
LINE
8
Layer 1
10
55.022120
20
35.486410
11
54.932520
21
30.605070
0
LINE
8
Layer 1
10
54.932520
20
30.605070
11
55.649040
21
15.244570
0
LINE
8
Layer 1
10
55.649040
20
15.244570
11
54.798170
21
14.572820
0
LINE
8
Layer 1
10
54.798170
20
14.572820
11
54.372731
21
15.037444
0
LINE
8
Layer 1
10
54.372731
20
15.037444
11
54.118027
21
15.385212
0
LINE
8
Layer 1
10
54.118027
20
15.385212
11
54.081640
21
15.602830
0
LINE
8
Layer 1
10
54.081640
20
15.602830
11
54.484684
21
17.825181
0
LINE
8
Layer 1
10
54.484684
20
17.825181
11
54.753380
21
19.946770
0
LINE
8
Layer 1
10
54.753380
20
19.946770
11
54.305550
21
36.471670
0
LINE
8
Layer 1
10
54.305550
20
36.471670
11
54.260750
21
37.546460
0
LINE
8
Layer 1
10
54.260750
20
37.546460
11
54.171150
21
38.889940
0
LINE
8
Layer 1
10
54.171150
20
38.889940
11
53.454620
21
40.233430
0
LINE
8
Layer 1
10
53.454620
20
40.233430
11
53.365020
21
39.964730
0
LINE
8
Layer 1
10
53.365020
20
39.964730
11
53.947300
21
37.322500
0
LINE
8
Layer 1
10
56.720200
20
37.479300
11
59.048910
21
40.479760
0
LINE
8
Layer 1
10
59.048910
20
40.479760
11
59.054510
21
41.073132
0
LINE
8
Layer 1
10
59.054510
20
41.073132
11
58.959310
21
41.868030
0
LINE
8
Layer 1
10
58.959310
20
41.868030
11
58.293243
21
42.746672
0
LINE
8
Layer 1
10
58.293243
20
42.746672
11
57.736219
21
42.587240
0
LINE
8
Layer 1
10
57.736219
20
42.587240
11
57.078433
21
42.226290
0
LINE
8
Layer 1
10
57.078433
20
42.226290
11
56.317123
21
39.763230
0
LINE
8
Layer 1
10
56.317123
20
39.763230
11
55.645383
21
35.643210
0
LINE
8
Layer 1
10
55.645383
20
35.643210
11
55.734983
21
30.761870
0
LINE
8
Layer 1
10
55.734983
20
30.761870
11
55.018463
21
15.401370
0
LINE
8
Layer 1
10
55.018463
20
15.401370
11
55.869333
21
14.729620
0
LINE
8
Layer 1
10
55.869333
20
14.729620
11
56.294772
21
15.194244
0
LINE
8
Layer 1
10
56.294772
20
15.194244
11
56.549476
21
15.542012
0
LINE
8
Layer 1
10
56.549476
20
15.542012
11
56.585863
21
15.759630
0
LINE
8
Layer 1
10
56.585863
20
15.759630
11
56.182819
21
17.981981
0
LINE
8
Layer 1
10
56.182819
20
17.981981
11
55.914123
21
20.103570
0
LINE
8
Layer 1
10
55.914123
20
20.103570
11
56.361953
21
36.628470
0
LINE
8
Layer 1
10
56.361953
20
36.628470
11
56.406753
21
37.703260
0
LINE
8
Layer 1
10
56.406753
20
37.703260
11
56.496353
21
39.046740
0
LINE
8
Layer 1
10
56.496353
20
39.046740
11
57.212883
21
40.390230
0
LINE
8
Layer 1
10
57.212883
20
40.390230
11
57.302483
21
40.121530
0
LINE
8
Layer 1
10
57.302483
20
40.121530
11
56.720200
21
37.479300
0
LINE
8
Layer 1
10
91.833600
20
39.293000
11
91.411357
21
39.520452
0
LINE
8
Layer 1
10
91.411357
20
39.520452
11
90.989368
21
39.578128
0
LINE
8
Layer 1
10
90.989368
20
39.578128
11
90.239223
21
39.280452
0
LINE
8
Layer 1
10
90.239223
20
39.280452
11
89.769295
21
38.592586
0
LINE
8
Layer 1
10
89.769295
20
38.592586
11
89.765720
21
37.707140
0
LINE
8
Layer 1
10
89.765720
20
37.707140
11
90.201921
21
37.575709
0
LINE
8
Layer 1
10
90.201921
20
37.575709
11
90.630976
21
37.619982
0
LINE
8
Layer 1
10
90.630976
20
37.619982
11
91.443762
21
38.091833
0
LINE
8
Layer 1
10
91.443762
20
38.091833
11
92.156300
21
38.835082
0
LINE
8
Layer 1
10
92.156300
20
38.835082
11
92.720810
21
39.562120
0
LINE
8
Layer 1
10
92.720810
20
39.562120
11
93.109246
21
40.627332
0
LINE
8
Layer 1
10
93.109246
20
40.627332
11
93.216365
21
41.757846
0
LINE
8
Layer 1
10
93.216365
20
41.757846
11
93.339796
21
42.881845
0
LINE
8
Layer 1
10
93.339796
20
42.881845
11
93.777170
21
43.927510
0
LINE
8
Layer 1
10
93.777170
20
43.927510
11
95.515241
21
46.988580
0
LINE
8
Layer 1
10
95.515241
20
46.988580
11
96.360425
21
48.528819
0
LINE
8
Layer 1
10
96.360425
20
48.528819
11
97.001530
21
50.165090
0
LINE
8
Layer 1
10
97.001530
20
50.165090
11
97.258214
21
50.714336
0
LINE
8
Layer 1
10
97.258214
20
50.714336
11
97.137234
21
51.109211
0
LINE
8
Layer 1
10
97.137234
20
51.109211
11
96.776650
21
51.197473
0
LINE
8
Layer 1
10
96.776650
20
51.197473
11
96.314520
21
50.826879
0
LINE
8
Layer 1
10
96.314520
20
50.826879
11
95.465858
21
50.110008
0
LINE
8
Layer 1
10
95.465858
20
50.110008
11
94.759260
21
49.224274
0
LINE
8
Layer 1
10
94.759260
20
49.224274
11
94.305847
21
48.211283
0
LINE
8
Layer 1
10
94.305847
20
48.211283
11
94.216740
21
47.112639
0
LINE
8
Layer 1
10
94.216740
20
47.112639
11
93.923543
21
45.919693
0
LINE
8
Layer 1
10
93.923543
20
45.919693
11
93.340614
21
44.837659
0
LINE
8
Layer 1
10
93.340614
20
44.837659
11
92.692448
21
43.775762
0
LINE
8
Layer 1
10
92.692448
20
43.775762
11
92.203540
21
42.643229
0
LINE
8
Layer 1
10
92.203540
20
42.643229
11
91.820026
21
40.991524
0
LINE
8
Layer 1
10
91.820026
20
40.991524
11
91.833600
21
39.292989
0
LINE
8
Layer 1
10
91.833600
20
39.292989
11
91.833600
21
39.293000
0
LINE
8
Layer 1
10
53.230800
20
2.929300
11
53.153330
21
5.621517
0
LINE
8
Layer 1
10
53.153330
20
5.621517
11
52.809314
21
8.292255
0
LINE
8
Layer 1
10
52.809314
20
8.292255
11
52.102221
21
10.875715
0
LINE
8
Layer 1
10
52.102221
20
10.875715
11
50.935520
21
13.306100
0
LINE
8
Layer 1
10
50.935520
20
13.306100
11
49.680726
21
15.600003
0
LINE
8
Layer 1
10
49.680726
20
15.600003
11
48.570460
21
17.965441
0
LINE
8
Layer 1
10
48.570460
20
17.965441
11
47.609632
21
20.394887
0
LINE
8
Layer 1
10
47.609632
20
20.394887
11
46.803150
21
22.880810
0
LINE
8
Layer 1
10
46.803150
20
22.880810
11
45.892529
21
26.242846
0
LINE
8
Layer 1
10
45.892529
20
26.242846
11
45.134090
21
29.633180
0
LINE
8
Layer 1
10
45.134090
20
29.633180
11
44.331358
21
31.825172
0
LINE
8
Layer 1
10
44.331358
20
31.825172
11
44.271310
21
32.524618
0
LINE
8
Layer 1
10
44.271310
20
32.524618
11
44.488767
21
32.441839
0
LINE
8
Layer 1
10
44.488767
20
32.441839
11
44.932983
21
31.943730
0
LINE
8
Layer 1
10
44.932983
20
31.943730
11
45.714730
21
28.698396
0
LINE
8
Layer 1
10
45.714730
20
28.698396
11
46.752133
21
25.515740
0
LINE
8
Layer 1
10
46.752133
20
25.515740
11
48.039771
21
22.332469
0
LINE
8
Layer 1
10
48.039771
20
22.332469
11
49.479673
21
19.195540
0
LINE
8
Layer 1
10
49.479673
20
19.195540
11
51.371568
21
14.196736
0
LINE
8
Layer 1
10
51.371568
20
14.196736
11
53.397203
21
9.253740
0
LINE
8
Layer 1
10
53.397203
20
9.253740
11
53.999662
21
7.702111
0
LINE
8
Layer 1
10
53.999662
20
7.702111
11
54.183358
21
6.064336
0
LINE
8
Layer 1
10
54.183358
20
6.064336
11
53.932377
21
4.440153
0
LINE
8
Layer 1
10
53.932377
20
4.440153
11
53.230803
21
2.929300
0
LINE
8
Layer 1
10
53.230803
20
2.929300
11
53.230800
21
2.929300
0
LINE
8
Layer 1
10
57.977800
20
15.826800
11
58.212655
21
17.118583
0
LINE
8
Layer 1
10
58.212655
20
17.118583
11
58.582473
21
18.380729
0
LINE
8
Layer 1
10
58.582473
20
18.380729
11
58.959689
21
19.642453
0
LINE
8
Layer 1
10
58.959689
20
19.642453
11
59.216740
21
20.932970
0
LINE
8
Layer 1
10
59.216740
20
20.932970
11
60.864696
21
25.241535
0
LINE
8
Layer 1
10
60.864696
20
25.241535
11
62.265640
21
29.635870
0
LINE
8
Layer 1
10
62.265640
20
29.635870
11
63.137502
21
31.128964
0
LINE
8
Layer 1
10
63.137502
20
31.128964
11
64.146634
21
32.534510
0
LINE
8
Layer 1
10
64.146634
20
32.534510
11
65.178421
21
33.926766
0
LINE
8
Layer 1
10
65.178421
20
33.926766
11
66.118250
21
35.379990
0
LINE
8
Layer 1
10
66.118250
20
35.379990
11
67.069944
21
37.118441
0
LINE
8
Layer 1
10
67.069944
20
37.118441
11
67.151456
21
37.506299
0
LINE
8
Layer 1
10
67.151456
20
37.506299
11
67.053259
21
37.770012
0
LINE
8
Layer 1
10
67.053259
20
37.770012
11
66.716781
21
37.856856
0
LINE
8
Layer 1
10
66.716781
20
37.856856
11
66.083450
21
37.714110
0
LINE
8
Layer 1
10
66.083450
20
37.714110
11
65.327211
21
36.876471
0
LINE
8
Layer 1
10
65.327211
20
36.876471
11
64.825049
21
35.854060
0
LINE
8
Layer 1
10
64.825049
20
35.854060
11
63.954330
21
33.721130
0
LINE
8
Layer 1
10
63.954330
20
33.721130
11
63.407139
21
32.409599
0
LINE
8
Layer 1
10
63.407139
20
32.409599
11
62.681505
21
31.200015
0
LINE
8
Layer 1
10
62.681505
20
31.200015
11
61.031730
21
28.896370
0
LINE
8
Layer 1
10
61.031730
20
28.896370
11
60.174934
21
27.061158
0
LINE
8
Layer 1
10
60.174934
20
27.061158
11
59.612169
21
25.113325
0
LINE
8
Layer 1
10
59.612169
20
25.113325
11
59.118154
21
23.136182
0
LINE
8
Layer 1
10
59.118154
20
23.136182
11
58.467610
21
21.213040
0
LINE
8
Layer 1
10
58.467610
20
21.213040
11
58.070374
21
19.962270
0
LINE
8
Layer 1
10
58.070374
20
19.962270
11
57.815451
21
18.668922
0
LINE
8
Layer 1
10
57.815451
20
18.668922
11
57.766548
21
17.361591
0
LINE
8
Layer 1
10
57.766548
20
17.361591
11
57.987370
21
16.068870
0
LINE
8
Layer 1
10
57.987370
20
16.068870
11
57.977370
21
15.826800
0
LINE
8
Layer 1
10
57.977370
20
15.826800
11
57.977800
21
15.826800
0
LINE
8
Layer 1
10
31.287200
20
39.561700
11
30.421412
21
39.618129
0
LINE
8
Layer 1
10
30.421412
20
39.618129
11
29.855136
21
39.287066
0
LINE
8
Layer 1
10
29.855136
20
39.287066
11
29.568985
21
38.704928
0
LINE
8
Layer 1
10
29.568985
20
38.704928
11
29.543572
21
38.008129
0
LINE
8
Layer 1
10
29.543572
20
38.008129
11
29.759509
21
37.333085
0
LINE
8
Layer 1
10
29.759509
20
37.333085
11
30.197410
21
36.816212
0
LINE
8
Layer 1
10
30.197410
20
36.816212
11
30.837887
21
36.593925
0
LINE
8
Layer 1
10
30.837887
20
36.593925
11
31.661553
21
36.802640
0
LINE
8
Layer 1
10
31.661553
20
36.802640
11
32.489558
21
36.685417
0
LINE
8
Layer 1
10
32.489558
20
36.685417
11
33.276315
21
36.742533
0
LINE
8
Layer 1
10
33.276315
20
36.742533
11
33.983680
21
36.979989
0
LINE
8
Layer 1
10
33.983680
20
36.979989
11
34.573513
21
37.403790
0
LINE
8
Layer 1
10
34.573513
20
37.403790
11
35.007672
21
38.019938
0
LINE
8
Layer 1
10
35.007672
20
38.019938
11
35.248016
21
38.834435
0
LINE
8
Layer 1
10
35.248016
20
38.834435
11
35.256404
21
39.853285
0
LINE
8
Layer 1
10
35.256404
20
39.853285
11
34.994693
21
41.082490
0
LINE
8
Layer 1
10
34.994693
20
41.082490
11
34.421263
21
41.254382
0
LINE
8
Layer 1
10
34.421263
20
41.254382
11
33.730350
21
41.254146
0
LINE
8
Layer 1
10
33.730350
20
41.254146
11
32.126498
21
41.015936
0
LINE
8
Layer 1
10
32.126498
20
41.015936
11
30.443986
21
40.925140
0
LINE
8
Layer 1
10
30.443986
20
40.925140
11
29.654748
21
41.109173
0
LINE
8
Layer 1
10
29.654748
20
41.109173
11
28.943663
21
41.539040
0
LINE
8
Layer 1
10
28.943663
20
41.539040
11
27.452493
21
42.296479
0
LINE
8
Layer 1
10
27.452493
20
42.296479
11
26.013720
21
43.221604
0
LINE
8
Layer 1
10
26.013720
20
43.221604
11
23.348319
21
45.486805
0
LINE
8
Layer 1
10
23.348319
20
45.486805
11
21.057381
21
48.158439
0
LINE
8
Layer 1
10
21.057381
20
48.158439
11
19.250823
21
51.060300
0
LINE
8
Layer 1
10
19.250823
20
51.060300
11
18.423238
21
52.512356
0
LINE
8
Layer 1
10
18.423238
20
52.512356
11
17.651895
21
53.513142
0
LINE
8
Layer 1
10
17.651895
20
53.513142
11
16.364818
21
54.649534
0
LINE
8
Layer 1
10
16.364818
20
54.649534
11
15.892521
21
55.029457
0
LINE
8
Layer 1
10
15.892521
20
55.029457
11
15.563343
21
55.446744
0
LINE
8
Layer 1
10
15.563343
20
55.446744
11
15.399004
21
56.023552
0
LINE
8
Layer 1
10
15.399004
20
56.023552
11
15.421223
21
56.882040
0
LINE
8
Layer 1
10
15.421223
20
56.882040
11
15.977747
21
58.277016
0
LINE
8
Layer 1
10
15.977747
20
58.277016
11
16.711017
21
59.620605
0
LINE
8
Layer 1
10
16.711017
20
59.620605
11
17.452662
21
60.962882
0
LINE
8
Layer 1
10
17.452662
20
60.962882
11
18.034313
21
62.353920
0
LINE
8
Layer 1
10
18.034313
20
62.353920
11
18.812729
21
63.956105
0
LINE
8
Layer 1
10
18.812729
20
63.956105
11
19.804866
21
65.340932
0
LINE
8
Layer 1
10
19.804866
20
65.340932
11
21.017781
21
66.544129
0
LINE
8
Layer 1
10
21.017781
20
66.544129
11
22.458533
21
67.601420
0
LINE
8
Layer 1
10
22.458533
20
67.601420
11
23.877887
21
68.828131
0
LINE
8
Layer 1
10
23.877887
20
68.828131
11
25.224079
21
70.264116
0
LINE
8
Layer 1
10
25.224079
20
70.264116
11
26.284966
21
71.883568
0
LINE
8
Layer 1
10
26.284966
20
71.883568
11
26.642125
21
72.754029
0
LINE
8
Layer 1
10
26.642125
20
72.754029
11
26.848403
21
73.660680
0
LINE
8
Layer 1
10
26.848403
20
73.660680
11
27.715988
21
73.307175
0
LINE
8
Layer 1
10
27.715988
20
73.307175
11
28.506229
21
73.173199
0
LINE
8
Layer 1
10
28.506229
20
73.173199
11
29.227555
21
73.243722
0
LINE
8
Layer 1
10
29.227555
20
73.243722
11
29.888394
21
73.503710
0
LINE
8
Layer 1
10
29.888394
20
73.503710
11
30.497177
21
73.938131
0
LINE
8
Layer 1
10
30.497177
20
73.938131
11
31.062331
21
74.531953
0
LINE
8
Layer 1
10
31.062331
20
74.531953
11
32.095473
21
76.137670
0
LINE
8
Layer 1
10
32.095473
20
76.137670
11
31.698733
21
76.045751
0
LINE
8
Layer 1
10
31.698733
20
76.045751
11
31.317826
21
75.788677
0
LINE
8
Layer 1
10
31.317826
20
75.788677
11
30.577229
21
74.984672
0
LINE
8
Layer 1
10
30.577229
20
74.984672
11
29.821132
21
74.136872
0
LINE
8
Layer 1
10
29.821132
20
74.136872
11
29.420849
21
73.825052
0
LINE
8
Layer 1
10
29.420849
20
73.825052
11
28.996983
21
73.656490
0
LINE
8
Layer 1
10
28.996983
20
73.656490
11
28.432502
21
73.732443
0
LINE
8
Layer 1
10
28.432502
20
73.732443
11
27.884725
21
74.009633
0
LINE
8
Layer 1
10
27.884725
20
74.009633
11
27.353909
21
74.248899
0
LINE
8
Layer 1
10
27.353909
20
74.248899
11
26.840313
21
74.211078
0
LINE
8
Layer 1
10
26.840313
20
74.211078
11
24.880893
21
71.461149
0
LINE
8
Layer 1
10
24.880893
20
71.461149
11
23.882848
21
70.239115
0
LINE
8
Layer 1
10
23.882848
20
70.239115
11
22.653873
21
69.106268
0
LINE
8
Layer 1
10
22.653873
20
69.106268
11
20.246622
21
66.116673
0
LINE
8
Layer 1
10
20.246622
20
66.116673
11
17.697523
21
63.246358
0
LINE
8
Layer 1
10
17.697523
20
63.246358
11
16.742866
21
61.725990
0
LINE
8
Layer 1
10
16.742866
20
61.725990
11
15.875820
21
60.123309
0
LINE
8
Layer 1
10
15.875820
20
60.123309
11
14.896616
21
58.688293
0
LINE
8
Layer 1
10
14.896616
20
58.688293
11
14.302526
21
58.111776
0
LINE
8
Layer 1
10
14.302526
20
58.111776
11
13.605483
21
57.670918
0
LINE
8
Layer 1
10
13.605483
20
57.670918
11
11.080572
21
60.279934
0
LINE
8
Layer 1
10
11.080572
20
60.279934
11
8.870983
21
62.580798
0
LINE
8
Layer 1
10
8.870983
20
62.580798
11
7.401474
21
63.932909
0
LINE
8
Layer 1
10
7.401474
20
63.932909
11
6.346013
21
65.533475
0
LINE
8
Layer 1
10
6.346013
20
65.533475
11
5.602998
21
67.262628
0
LINE
8
Layer 1
10
5.602998
20
67.262628
11
5.070830
21
69.000500
0
LINE
8
Layer 1
10
5.070830
20
69.000500
11
4.645864
21
70.546312
0
LINE
8
Layer 1
10
4.645864
20
70.546312
11
4.421137
21
71.940117
0
LINE
8
Layer 1
10
4.421137
20
71.940117
11
4.319625
21
74.387162
0
LINE
8
Layer 1
10
4.319625
20
74.387162
11
4.260743
21
76.572552
0
LINE
8
Layer 1
10
4.260743
20
76.572552
11
4.089303
21
77.639286
0
LINE
8
Layer 1
10
4.089303
20
77.639286
11
3.738940
21
78.727200
0
LINE
8
Layer 1
10
3.738940
20
78.727200
11
3.367266
21
77.906966
0
LINE
8
Layer 1
10
3.367266
20
77.906966
11
3.130925
21
76.420825
0
LINE
8
Layer 1
10
3.130925
20
76.420825
11
3.067287
21
74.694947
0
LINE
8
Layer 1
10
3.067287
20
74.694947
11
3.213720
21
73.155500
0
LINE
8
Layer 1
10
3.213720
20
73.155500
11
4.035587
21
69.256275
0
LINE
8
Layer 1
10
4.035587
20
69.256275
11
4.497122
21
67.444769
0
LINE
8
Layer 1
10
4.497122
20
67.444769
11
5.307740
21
65.496160
0
LINE
8
Layer 1
10
5.307740
20
65.496160
11
6.712074
21
63.837986
0
LINE
8
Layer 1
10
6.712074
20
63.837986
11
8.397886
21
62.208400
0
LINE
8
Layer 1
10
8.397886
20
62.208400
11
10.015158
21
60.524462
0
LINE
8
Layer 1
10
10.015158
20
60.524462
11
10.688710
21
59.636191
0
LINE
8
Layer 1
10
10.688710
20
59.636191
11
11.213870
21
58.703230
0
LINE
8
Layer 1
10
11.213870
20
58.703230
11
13.021052
21
56.677620
0
LINE
8
Layer 1
10
13.021052
20
56.677620
11
15.007485
21
54.820460
0
LINE
8
Layer 1
10
15.007485
20
54.820460
11
16.913646
21
52.894315
0
LINE
8
Layer 1
10
16.913646
20
52.894315
11
17.755523
21
51.831175
0
LINE
8
Layer 1
10
17.755523
20
51.831175
11
18.480010
21
50.661750
0
LINE
8
Layer 1
10
18.480010
20
50.661750
11
19.732564
21
48.919087
0
LINE
8
Layer 1
10
19.732564
20
48.919087
11
21.034804
21
47.317355
0
LINE
8
Layer 1
10
21.034804
20
47.317355
11
23.694230
21
44.122000
0
LINE
8
Layer 1
10
23.694230
20
44.122000
11
23.957073
21
43.552400
0
LINE
8
Layer 1
10
23.957073
20
43.552400
11
23.954521
21
42.847906
0
LINE
8
Layer 1
10
23.954521
20
42.847906
11
23.567539
21
41.317609
0
LINE
8
Layer 1
10
23.567539
20
41.317609
11
23.390259
21
40.633495
0
LINE
8
Layer 1
10
23.390259
20
40.633495
11
23.361889
21
40.097862
0
LINE
8
Layer 1
10
23.361889
20
40.097862
11
23.586003
21
39.781556
0
LINE
8
Layer 1
10
23.586003
20
39.781556
11
24.166178
21
39.755420
0
LINE
8
Layer 1
10
24.166178
20
39.755420
11
24.504087
21
40.035112
0
LINE
8
Layer 1
10
24.504087
20
40.035112
11
24.684721
21
40.624890
0
LINE
8
Layer 1
10
24.684721
20
40.624890
11
24.841196
21
41.276130
0
LINE
8
Layer 1
10
24.841196
20
41.276130
11
25.106629
21
41.740210
0
LINE
8
Layer 1
10
25.106629
20
41.740210
11
25.620871
21
41.827414
0
LINE
8
Layer 1
10
25.620871
20
41.827414
11
26.228060
21
41.519024
0
LINE
8
Layer 1
10
26.228060
20
41.519024
11
26.683706
21
40.874999
0
LINE
8
Layer 1
10
26.683706
20
40.874999
11
26.743319
21
39.955300
0
LINE
8
Layer 1
10
26.743319
20
39.955300
11
27.225479
21
39.603294
0
LINE
8
Layer 1
10
27.225479
20
39.603294
11
27.778973
21
39.532638
0
LINE
8
Layer 1
10
27.778973
20
39.532638
11
29.006337
21
39.845704
0
LINE
8
Layer 1
10
29.006337
20
39.845704
11
30.238151
21
40.115155
0
LINE
8
Layer 1
10
30.238151
20
40.115155
11
30.797210
21
39.989981
0
LINE
8
Layer 1
10
30.797210
20
39.989981
11
31.287159
21
39.561650
0
LINE
8
Layer 1
10
31.287159
20
39.561650
11
31.287200
21
39.561700
0
LINE
8
Layer 1
10
79.402200
20
39.705900
11
80.267988
21
39.762329
0
LINE
8
Layer 1
10
80.267988
20
39.762329
11
80.834264
21
39.431266
0
LINE
8
Layer 1
10
80.834264
20
39.431266
11
81.120415
21
38.849128
0
LINE
8
Layer 1
10
81.120415
20
38.849128
11
81.145827
21
38.152329
0
LINE
8
Layer 1
10
81.145827
20
38.152329
11
80.929889
21
37.477285
0
LINE
8
Layer 1
10
80.929889
20
37.477285
11
80.491987
21
36.960412
0
LINE
8
Layer 1
10
80.491987
20
36.960412
11
79.851509
21
36.738125
0
LINE
8
Layer 1
10
79.851509
20
36.738125
11
79.027840
21
36.946840
0
LINE
8
Layer 1
10
79.027840
20
36.946840
11
78.199835
21
36.829617
0
LINE
8
Layer 1
10
78.199835
20
36.829617
11
77.413080
21
36.886733
0
LINE
8
Layer 1
10
77.413080
20
36.886733
11
76.705716
21
37.124189
0
LINE
8
Layer 1
10
76.705716
20
37.124189
11
76.115884
21
37.547990
0
LINE
8
Layer 1
10
76.115884
20
37.547990
11
75.681725
21
38.164138
0
LINE
8
Layer 1
10
75.681725
20
38.164138
11
75.441381
21
38.978635
0
LINE
8
Layer 1
10
75.441381
20
38.978635
11
75.432992
21
39.997485
0
LINE
8
Layer 1
10
75.432992
20
39.997485
11
75.694700
21
41.226690
0
LINE
8
Layer 1
10
75.694700
20
41.226690
11
76.268133
21
41.398582
0
LINE
8
Layer 1
10
76.268133
20
41.398582
11
76.959048
21
41.398346
0
LINE
8
Layer 1
10
76.959048
20
41.398346
11
78.562899
21
41.160136
0
LINE
8
Layer 1
10
78.562899
20
41.160136
11
80.245408
21
41.069340
0
LINE
8
Layer 1
10
80.245408
20
41.069340
11
81.034645
21
41.253373
0
LINE
8
Layer 1
10
81.034645
20
41.253373
11
81.745730
21
41.683240
0
LINE
8
Layer 1
10
81.745730
20
41.683240
11
83.236900
21
42.440679
0
LINE
8
Layer 1
10
83.236900
20
42.440679
11
84.675673
21
43.365804
0
LINE
8
Layer 1
10
84.675673
20
43.365804
11
87.341074
21
45.631005
0
LINE
8
Layer 1
10
87.341074
20
45.631005
11
89.632012
21
48.302639
0
LINE
8
Layer 1
10
89.632012
20
48.302639
11
91.438570
21
51.204500
0
LINE
8
Layer 1
10
91.438570
20
51.204500
11
92.266155
21
52.656556
0
LINE
8
Layer 1
10
92.266155
20
52.656556
11
93.037496
21
53.657342
0
LINE
8
Layer 1
10
93.037496
20
53.657342
11
94.324571
21
54.793734
0
LINE
8
Layer 1
10
94.324571
20
54.793734
11
94.796868
21
55.173657
0
LINE
8
Layer 1
10
94.796868
20
55.173657
11
95.126046
21
55.590944
0
LINE
8
Layer 1
10
95.126046
20
55.590944
11
95.290386
21
56.167752
0
LINE
8
Layer 1
10
95.290386
20
56.167752
11
95.268170
21
57.026240
0
LINE
8
Layer 1
10
95.268170
20
57.026240
11
94.711646
21
58.421216
0
LINE
8
Layer 1
10
94.711646
20
58.421216
11
93.978376
21
59.764805
0
LINE
8
Layer 1
10
93.978376
20
59.764805
11
93.236731
21
61.107082
0
LINE
8
Layer 1
10
93.236731
20
61.107082
11
92.655080
21
62.498120
0
LINE
8
Layer 1
10
92.655080
20
62.498120
11
91.876666
21
64.100305
0
LINE
8
Layer 1
10
91.876666
20
64.100305
11
90.884529
21
65.485133
0
LINE
8
Layer 1
10
90.884529
20
65.485133
11
89.671612
21
66.688329
0
LINE
8
Layer 1
10
89.671612
20
66.688329
11
88.230860
21
67.745620
0
LINE
8
Layer 1
10
88.230860
20
67.745620
11
86.811506
21
68.972331
0
LINE
8
Layer 1
10
86.811506
20
68.972331
11
85.465314
21
70.408316
0
LINE
8
Layer 1
10
85.465314
20
70.408316
11
84.404427
21
72.027768
0
LINE
8
Layer 1
10
84.404427
20
72.027768
11
84.047268
21
72.898229
0
LINE
8
Layer 1
10
84.047268
20
72.898229
11
83.840990
21
73.804880
0
LINE
8
Layer 1
10
83.840990
20
73.804880
11
82.973405
21
73.451375
0
LINE
8
Layer 1
10
82.973405
20
73.451375
11
82.183164
21
73.317399
0
LINE
8
Layer 1
10
82.183164
20
73.317399
11
81.461838
21
73.387922
0
LINE
8
Layer 1
10
81.461838
20
73.387922
11
80.800999
21
73.647910
0
LINE
8
Layer 1
10
80.800999
20
73.647910
11
80.192216
21
74.082331
0
LINE
8
Layer 1
10
80.192216
20
74.082331
11
79.627062
21
74.676153
0
LINE
8
Layer 1
10
79.627062
20
74.676153
11
78.593920
21
76.281870
0
LINE
8
Layer 1
10
78.593920
20
76.281870
11
78.990660
21
76.189951
0
LINE
8
Layer 1
10
78.990660
20
76.189951
11
79.371567
21
75.932877
0
LINE
8
Layer 1
10
79.371567
20
75.932877
11
80.112164
21
75.128872
0
LINE
8
Layer 1
10
80.112164
20
75.128872
11
80.868261
21
74.281072
0
LINE
8
Layer 1
10
80.868261
20
74.281072
11
81.268544
21
73.969252
0
LINE
8
Layer 1
10
81.268544
20
73.969252
11
81.692410
21
73.800690
0
LINE
8
Layer 1
10
81.692410
20
73.800690
11
82.256890
21
73.876643
0
LINE
8
Layer 1
10
82.256890
20
73.876643
11
82.804667
21
74.153833
0
LINE
8
Layer 1
10
82.804667
20
74.153833
11
83.335484
21
74.393099
0
LINE
8
Layer 1
10
83.335484
20
74.393099
11
83.849080
21
74.355278
0
LINE
8
Layer 1
10
83.849080
20
74.355278
11
85.808504
21
71.605349
0
LINE
8
Layer 1
10
85.808504
20
71.605349
11
86.806546
21
70.383315
0
LINE
8
Layer 1
10
86.806546
20
70.383315
11
88.035520
21
69.250468
0
LINE
8
Layer 1
10
88.035520
20
69.250468
11
90.442771
21
66.260873
0
LINE
8
Layer 1
10
90.442771
20
66.260873
11
92.991870
21
63.390558
0
LINE
8
Layer 1
10
92.991870
20
63.390558
11
93.946527
21
61.870190
0
LINE
8
Layer 1
10
93.946527
20
61.870190
11
94.813572
21
60.267509
0
LINE
8
Layer 1
10
94.813572
20
60.267509
11
95.792777
21
58.832493
0
LINE
8
Layer 1
10
95.792777
20
58.832493
11
96.386867
21
58.255976
0
LINE
8
Layer 1
10
96.386867
20
58.255976
11
97.083910
21
57.815118
0
LINE
8
Layer 1
10
97.083910
20
57.815118
11
99.608821
21
60.424131
0
LINE
8
Layer 1
10
99.608821
20
60.424131
11
101.818410
21
62.724998
0
LINE
8
Layer 1
10
101.818410
20
62.724998
11
103.287900
21
64.077095
0
LINE
8
Layer 1
10
103.287900
20
64.077095
11
104.343351
21
65.677656
0
LINE
8
Layer 1
10
104.343351
20
65.677656
11
105.086362
21
67.406815
0
LINE
8
Layer 1
10
105.086362
20
67.406815
11
105.618530
21
69.144708
0
LINE
8
Layer 1
10
105.618530
20
69.144708
11
106.043496
21
70.690522
0
LINE
8
Layer 1
10
106.043496
20
70.690522
11
106.268223
21
72.084324
0
LINE
8
Layer 1
10
106.268223
20
72.084324
11
106.369735
21
74.531359
0
LINE
8
Layer 1
10
106.369735
20
74.531359
11
106.428617
21
76.716744
0
LINE
8
Layer 1
10
106.428617
20
76.716744
11
106.600057
21
77.783483
0
LINE
8
Layer 1
10
106.600057
20
77.783483
11
106.950420
21
78.871408
0
LINE
8
Layer 1
10
106.950420
20
78.871408
11
107.322094
21
78.051163
0
LINE
8
Layer 1
10
107.322094
20
78.051163
11
107.558435
21
76.565038
0
LINE
8
Layer 1
10
107.558435
20
76.565038
11
107.622073
21
74.839183
0
LINE
8
Layer 1
10
107.622073
20
74.839183
11
107.475640
21
73.299748
0
LINE
8
Layer 1
10
107.475640
20
73.299748
11
106.653776
21
69.400523
0
LINE
8
Layer 1
10
106.653776
20
69.400523
11
106.192241
21
67.589017
0
LINE
8
Layer 1
10
106.192241
20
67.589017
11
105.381620
21
65.640408
0
LINE
8
Layer 1
10
105.381620
20
65.640408
11
103.977284
21
63.982234
0
LINE
8
Layer 1
10
103.977284
20
63.982234
11
102.291470
21
62.352649
0
LINE
8
Layer 1
10
102.291470
20
62.352649
11
100.674198
21
60.668714
0
LINE
8
Layer 1
10
100.674198
20
60.668714
11
100.000647
21
59.780446
0
LINE
8
Layer 1
10
100.000647
20
59.780446
11
99.475490
21
58.847488
0
LINE
8
Layer 1
10
99.475490
20
58.847488
11
97.668304
21
56.821878
0
LINE
8
Layer 1
10
97.668304
20
56.821878
11
95.681871
21
54.964718
0
LINE
8
Layer 1
10
95.681871
20
54.964718
11
93.775713
21
53.038573
0
LINE
8
Layer 1
10
93.775713
20
53.038573
11
92.933837
21
51.975433
0
LINE
8
Layer 1
10
92.933837
20
51.975433
11
92.209350
21
50.806008
0
LINE
8
Layer 1
10
92.209350
20
50.806008
11
90.956792
21
49.063345
0
LINE
8
Layer 1
10
90.956792
20
49.063345
11
89.654552
21
47.461613
0
LINE
8
Layer 1
10
89.654552
20
47.461613
11
86.995130
21
44.266258
0
LINE
8
Layer 1
10
86.995130
20
44.266258
11
86.732287
21
43.696658
0
LINE
8
Layer 1
10
86.732287
20
43.696658
11
86.734837
21
42.992164
0
LINE
8
Layer 1
10
86.734837
20
42.992164
11
87.121818
21
41.461867
0
LINE
8
Layer 1
10
87.121818
20
41.461867
11
87.299096
21
40.777753
0
LINE
8
Layer 1
10
87.299096
20
40.777753
11
87.327466
21
40.242120
0
LINE
8
Layer 1
10
87.327466
20
40.242120
11
87.103353
21
39.925814
0
LINE
8
Layer 1
10
87.103353
20
39.925814
11
86.523180
21
39.899678
0
LINE
8
Layer 1
10
86.523180
20
39.899678
11
86.185270
21
40.179370
0
LINE
8
Layer 1
10
86.185270
20
40.179370
11
86.004636
21
40.769148
0
LINE
8
Layer 1
10
86.004636
20
40.769148
11
85.848162
21
41.420388
0
LINE
8
Layer 1
10
85.848162
20
41.420388
11
85.582730
21
41.884468
0
LINE
8
Layer 1
10
85.582730
20
41.884468
11
85.068488
21
41.971672
0
LINE
8
Layer 1
10
85.068488
20
41.971672
11
84.461299
21
41.663282
0
LINE
8
Layer 1
10
84.461299
20
41.663282
11
84.005653
21
41.019257
0
LINE
8
Layer 1
10
84.005653
20
41.019257
11
83.946040
21
40.099558
0
LINE
8
Layer 1
10
83.946040
20
40.099558
11
83.463880
21
39.747552
0
LINE
8
Layer 1
10
83.463880
20
39.747552
11
82.910386
21
39.676896
0
LINE
8
Layer 1
10
82.910386
20
39.676896
11
81.683022
21
39.989962
0
LINE
8
Layer 1
10
81.683022
20
39.989962
11
80.451208
21
40.259413
0
LINE
8
Layer 1
10
80.451208
20
40.259413
11
79.892149
21
40.134239
0
LINE
8
Layer 1
10
79.892149
20
40.134239
11
79.402200
21
39.705908
0
LINE
8
Layer 1
10
79.402200
20
39.705908
11
79.402200
21
39.705900
0
LINE
8
Layer 1
10
5.044400
20
58.370500
11
7.204838
21
57.797621
0
LINE
8
Layer 1
10
7.204838
20
57.797621
11
9.297220
21
57.003150
0
LINE
8
Layer 1
10
9.297220
20
57.003150
11
12.584890
21
55.421010
0
LINE
8
Layer 1
10
12.584890
20
55.421010
11
13.979561
21
53.554680
0
LINE
8
Layer 1
10
13.979561
20
53.554680
11
15.543180
21
51.860040
0
LINE
8
Layer 1
10
15.543180
20
51.860040
11
16.032914
21
51.188562
0
LINE
8
Layer 1
10
16.032914
20
51.188562
11
16.580208
21
50.591955
0
LINE
8
Layer 1
10
16.580208
20
50.591955
11
17.030775
21
49.946418
0
LINE
8
Layer 1
10
17.030775
20
49.946418
11
17.230330
21
49.128150
0
LINE
8
Layer 1
10
17.230330
20
49.128150
11
16.749145
21
49.348780
0
LINE
8
Layer 1
10
16.749145
20
49.348780
11
16.177063
21
49.807857
0
LINE
8
Layer 1
10
16.177063
20
49.807857
11
14.896254
21
51.166994
0
LINE
8
Layer 1
10
14.896254
20
51.166994
11
12.740400
21
53.728700
0
LINE
8
Layer 1
10
12.740400
20
53.728700
11
11.807012
21
54.907814
0
LINE
8
Layer 1
10
11.807012
20
54.907814
11
10.866272
21
55.463313
0
LINE
8
Layer 1
10
10.866272
20
55.463313
11
9.219380
21
55.947300
0
LINE
8
Layer 1
10
9.219380
20
55.947300
11
8.700973
21
55.782361
0
LINE
8
Layer 1
10
8.700973
20
55.782361
11
8.284180
21
55.373587
0
LINE
8
Layer 1
10
8.284180
20
55.373587
11
8.010202
21
55.233445
0
LINE
8
Layer 1
10
8.010202
20
55.233445
11
7.920240
21
55.874400
0
LINE
8
Layer 1
10
7.920240
20
55.874400
11
7.881896
21
56.299337
0
LINE
8
Layer 1
10
7.881896
20
56.299337
11
7.582547
21
56.635206
0
LINE
8
Layer 1
10
7.582547
20
56.635206
11
6.490550
21
57.132800
0
LINE
8
Layer 1
10
6.490550
20
57.132800
11
5.223691
21
57.553294
0
LINE
8
Layer 1
10
5.223691
20
57.553294
11
4.705763
21
57.792788
0
LINE
8
Layer 1
10
4.705763
20
57.792788
11
4.361410
21
58.082800
0
LINE
8
Layer 1
10
4.361410
20
58.082800
11
4.288111
21
58.377375
0
LINE
8
Layer 1
10
4.288111
20
58.377375
11
4.551780
21
58.482500
0
LINE
8
Layer 1
10
4.551780
20
58.482500
11
5.044400
21
58.370500
0
LINE
8
Layer 1
10
12.110800
20
49.692600
11
12.316717
21
50.233935
0
LINE
8
Layer 1
10
12.316717
20
50.233935
11
12.625627
21
50.483248
0
LINE
8
Layer 1
10
12.625627
20
50.483248
11
13.004209
21
50.493727
0
LINE
8
Layer 1
10
13.004209
20
50.493727
11
13.419143
21
50.318558
0
LINE
8
Layer 1
10
13.419143
20
50.318558
11
14.224777
21
49.624026
0
LINE
8
Layer 1
10
14.224777
20
49.624026
11
14.775960
21
48.825152
0
LINE
8
Layer 1
10
14.775960
20
48.825152
11
15.270837
21
48.044319
0
LINE
8
Layer 1
10
15.270837
20
48.044319
11
15.645459
21
47.203411
0
LINE
8
Layer 1
10
15.645459
20
47.203411
11
16.029731
21
46.368161
0
LINE
8
Layer 1
10
16.029731
20
46.368161
11
16.553560
21
45.604302
0
LINE
8
Layer 1
10
16.553560
20
45.604302
11
17.818264
21
43.899747
0
LINE
8
Layer 1
10
17.818264
20
43.899747
11
18.278966
21
42.954907
0
LINE
8
Layer 1
10
18.278966
20
42.954907
11
18.514200
21
41.917842
0
LINE
8
Layer 1
10
18.514200
20
41.917842
11
18.653310
21
40.990937
0
LINE
8
Layer 1
10
18.653310
20
40.990937
11
18.970255
21
39.967636
0
LINE
8
Layer 1
10
18.970255
20
39.967636
11
19.215353
21
39.556966
0
LINE
8
Layer 1
10
19.215353
20
39.556966
11
19.528835
21
39.286752
0
LINE
8
Layer 1
10
19.528835
20
39.286752
11
19.918676
21
39.211847
0
LINE
8
Layer 1
10
19.918676
20
39.211847
11
20.392850
21
39.387102
0
LINE
8
Layer 1
10
20.392850
20
39.387102
11
20.377072
21
40.330340
0
LINE
8
Layer 1
10
20.377072
20
40.330340
11
20.675569
21
41.230217
0
LINE
8
Layer 1
10
20.675569
20
41.230217
11
21.501270
21
42.990532
0
LINE
8
Layer 1
10
21.501270
20
42.990532
11
21.116930
21
43.226938
0
LINE
8
Layer 1
10
21.116930
20
43.226938
11
21.007662
21
43.482138
0
LINE
8
Layer 1
10
21.007662
20
43.482138
11
21.104235
21
43.718551
0
LINE
8
Layer 1
10
21.104235
20
43.718551
11
21.337418
21
43.898595
0
LINE
8
Layer 1
10
21.337418
20
43.898595
11
21.936689
21
43.939245
0
LINE
8
Layer 1
10
21.936689
20
43.939245
11
22.164315
21
43.724687
0
LINE
8
Layer 1
10
22.164315
20
43.724687
11
22.251625
21
43.303432
0
LINE
8
Layer 1
10
22.251625
20
43.303432
11
21.910019
21
41.972281
0
LINE
8
Layer 1
10
21.910019
20
41.972281
11
21.386052
21
40.682281
0
LINE
8
Layer 1
10
21.386052
20
40.682281
11
20.928064
21
39.379237
0
LINE
8
Layer 1
10
20.928064
20
39.379237
11
20.784395
21
38.008952
0
LINE
8
Layer 1
10
20.784395
20
38.008952
11
20.821118
21
37.509765
0
LINE
8
Layer 1
10
20.821118
20
37.509765
11
20.680772
21
37.219247
0
LINE
8
Layer 1
10
20.680772
20
37.219247
11
20.414946
21
37.109440
0
LINE
8
Layer 1
10
20.414946
20
37.109440
11
20.075231
21
37.152386
0
LINE
8
Layer 1
10
20.075231
20
37.152386
11
19.380495
21
37.584707
0
LINE
8
Layer 1
10
19.380495
20
37.584707
11
19.009285
21
38.292552
0
LINE
8
Layer 1
10
19.009285
20
38.292552
11
18.294602
21
40.593356
0
LINE
8
Layer 1
10
18.294602
20
40.593356
11
17.954516
21
41.750384
0
LINE
8
Layer 1
10
17.954516
20
41.750384
11
17.484035
21
42.862982
0
LINE
8
Layer 1
10
17.484035
20
42.862982
11
16.615927
21
44.511318
0
LINE
8
Layer 1
10
16.615927
20
44.511318
11
15.853525
21
46.209702
0
LINE
8
Layer 1
10
15.853525
20
46.209702
11
14.546406
21
48.001169
0
LINE
8
Layer 1
10
14.546406
20
48.001169
11
13.246495
21
49.796492
0
LINE
8
Layer 1
10
13.246495
20
49.796492
11
12.971437
21
49.893232
0
LINE
8
Layer 1
10
12.971437
20
49.893232
11
12.687616
21
49.833547
0
LINE
8
Layer 1
10
12.687616
20
49.833547
11
12.110805
21
49.692606
0
LINE
8
Layer 1
10
12.110805
20
49.692606
11
12.110800
21
49.692600
0
LINE
8
Layer 1
10
19.816000
20
57.688300
11
19.368986
21
57.232713
0
LINE
8
Layer 1
10
19.368986
20
57.232713
11
19.204765
21
56.589990
0
LINE
8
Layer 1
10
19.204765
20
56.589990
11
19.169481
21
56.232939
0
LINE
8
Layer 1
10
19.169481
20
56.232939
11
19.280826
21
55.913671
0
LINE
8
Layer 1
10
19.280826
20
55.913671
11
19.515223
21
55.669443
0
LINE
8
Layer 1
10
19.515223
20
55.669443
11
19.849092
21
55.537510
0
LINE
8
Layer 1
10
19.849092
20
55.537510
11
20.455841
21
55.434306
0
LINE
8
Layer 1
10
20.455841
20
55.434306
11
20.838222
21
55.594247
0
LINE
8
Layer 1
10
20.838222
20
55.594247
11
21.021150
21
55.938910
0
LINE
8
Layer 1
10
21.021150
20
55.938910
11
21.029539
21
56.389874
0
LINE
8
Layer 1
10
21.029539
20
56.389874
11
20.622361
21
57.297017
0
LINE
8
Layer 1
10
20.622361
20
57.297017
11
20.256622
21
57.596352
0
LINE
8
Layer 1
10
20.256622
20
57.596352
11
19.816002
21
57.688300
0
LINE
8
Layer 1
10
19.816002
20
57.688300
11
19.816000
21
57.688300
0
LINE
8
Layer 1
10
89.663800
20
58.333200
11
89.216782
21
57.877613
0
LINE
8
Layer 1
10
89.216782
20
57.877613
11
89.052560
21
57.234890
0
LINE
8
Layer 1
10
89.052560
20
57.234890
11
89.017275
21
56.877839
0
LINE
8
Layer 1
10
89.017275
20
56.877839
11
89.128620
21
56.558571
0
LINE
8
Layer 1
10
89.128620
20
56.558571
11
89.363018
21
56.314343
0
LINE
8
Layer 1
10
89.363018
20
56.314343
11
89.696890
21
56.182410
0
LINE
8
Layer 1
10
89.696890
20
56.182410
11
90.303639
21
56.079206
0
LINE
8
Layer 1
10
90.303639
20
56.079206
11
90.686020
21
56.239147
0
LINE
8
Layer 1
10
90.686020
20
56.239147
11
90.868948
21
56.583810
0
LINE
8
Layer 1
10
90.868948
20
56.583810
11
90.877336
21
57.034774
0
LINE
8
Layer 1
10
90.877336
20
57.034774
11
90.470155
21
57.941917
0
LINE
8
Layer 1
10
90.470155
20
57.941917
11
90.104413
21
58.241252
0
LINE
8
Layer 1
10
90.104413
20
58.241252
11
89.663790
21
58.333200
0
LINE
8
Layer 1
10
89.663790
20
58.333200
11
89.663800
21
58.333200
 0 
ENDSEC
 0 
EOF