<?xml version="1.0" encoding="UTF-8" standalone="no"?>
<!-- Created with Inkscape (http://www.inkscape.org/) -->

<svg
   width="47.655922mm"
   height="49.591431mm"
   viewBox="0 0 47.655922 49.591431"
   version="1.1"
   id="svg5"
   xml:space="preserve"
   xmlns="http://www.w3.org/2000/svg"
   xmlns:svg="http://www.w3.org/2000/svg"><defs
     id="defs2" /><g
     id="layer2"
     style="display:none"
     transform="translate(-84.383952,-173.95835)"><path
       style="display:inline;opacity:0.565141;fill:#b5835a;stroke-width:0.1;stroke-linecap:round"
       d="m 122.33129,200.01707 c 0.85307,0.75582 1.64905,1.62264 2.71527,2.07661 0.79687,0.44784 1.41458,1.10368 1.8972,1.86668 0.61847,0.59339 0.94896,1.3935 0.9483,2.24838 0.17203,0.80017 -0.1466,1.53828 -0.71915,2.08712 -0.47468,0.5058 -0.9154,1.01827 -1.26624,1.62123 -0.89144,0.74466 -1.14646,1.97461 -1.87946,2.85162 -0.0917,0.49385 -0.58787,1.29109 -0.83469,0.43824 -0.66043,-1.05288 -1.32928,-2.10654 -2.07196,-3.10308 -0.37069,-0.86323 -1.49768,-0.77647 -1.91092,-1.53195 -0.217,-0.68465 -0.29921,-1.66499 0.42689,-2.06852 0.79584,-0.77775 1.30875,-1.80476 2.19297,-2.49542 0.67301,-0.85821 0.18609,-2.05252 0.43166,-3.04855 0.0279,-0.54879 0.0451,-1.01892 0.45008,-1.38545"
       id="path1747"
       transform="translate(1.3096207,0.84189901)" /><path
       style="display:inline;opacity:0.565141;fill:#b5835a;stroke-width:0.1;stroke-linecap:round"
       d="m 102.76154,192.03717 c 1.56713,1.68645 3.53088,3.53578 2.86477,6.05442 -0.49522,2.06951 1.83612,3.88756 1.56926,5.98498 -0.3305,2.40825 1.09497,4.51462 0.78003,6.921 -0.0999,1.25128 1.87856,1.51394 1.04216,0.0411 0.0964,-2.61754 0.5061,-4.82536 0.51937,-7.31279 0.28692,-1.85864 1.61614,-3.60326 1.26612,-5.5142 -0.9629,-1.69256 0.72555,-2.98426 1.3369,-4.43645 1.56079,-1.21249 2.30385,-2.97618 2.09916,-5.01442 0.0237,-0.92257 0.0625,-1.68335 -0.49251,-0.45364 -0.9021,1.76249 -3.12612,2.08235 -4.15255,3.65427 -0.52595,2.04413 -3.61257,1.52747 -3.46772,-0.57276 -0.41129,-1.74239 -1.86382,-3.1679 -3.0671,-4.37248 -0.6218,1.43829 -1.43588,3.86933 -0.29789,5.02094 z"
       id="path1761"
       transform="translate(1.3096207,0.84189901)" /><path
       id="path1662"
       style="display:inline;opacity:0.565141;fill:#000000;stroke-width:0.1;stroke-linecap:round"
       d="m 104.95456,191.9952 c 0.48804,1.87877 2.45747,3.15477 2.51819,5.12992 -0.0284,0.44058 0.19137,0.83656 0.47646,1.08469 v 0.002 c 3.6e-4,-3.1e-4 6.7e-4,-7.1e-4 0.001,-0.001 0.28509,-0.24813 0.50492,-0.6441 0.47646,-1.08469 0.0607,-1.97515 2.03015,-3.25115 2.51819,-5.12992 l -0.27854,0.11421 -0.24391,0.15916 c -0.57089,0.89888 -1.52921,1.55383 -2.4722,1.58647 v -0.001 c -0.94332,-0.0322 -1.90213,-0.68725 -2.47323,-1.58646 l -0.24392,-0.15917 z"
       transform="translate(1.3096207,0.84189901)" /><path
       style="display:inline;opacity:0.565141;fill:#b5835a;stroke-width:0.1;stroke-linecap:round"
       d="m 83.951776,183.31359 c 1.453458,0.27744 2.503936,-0.32365 6.449747,0.93197 3.503457,3.14992 2.523256,6.54971 3.161765,10.08379 0.331111,1.212 0.55161,2.48215 1.140084,3.59931 0.343728,1.02035 -0.365633,1.19169 -1.594775,1.91731 -0.796261,0.40477 -1.464484,0.84145 -1.455505,-0.22845 -0.268493,-0.71163 0.02085,-1.49319 -0.400725,-2.22249 -0.471259,-0.88728 -0.05968,-2.07614 -0.445314,-2.9695 -0.364074,-0.8672 -1.058275,-1.76913 -1.217672,-2.6978 0.04385,-0.8741 -2.195551,-2.15847 -0.645225,-2.36501 -0.375661,-0.83954 -1.559855,-1.50768 -2.332406,-2.16359 -0.989511,-0.81087 -2.170662,-1.34563 -3.150526,-2.17738 -0.773761,-0.78126 -0.270631,-1.14177 0.490552,-1.70816 z"
       id="path1733"
       transform="translate(1.3096207,0.84189901)" /><path
       style="display:inline;opacity:0.565141;fill:#b5835a;stroke-width:0.1;stroke-linecap:round"
       d="m 117.86247,190.41516 c 0.2777,-0.89749 0.91869,-1.57483 1.59022,-2.17784 0.68196,-0.49297 1.55806,-0.78715 2.38559,-0.85469 0.73558,0.17594 1.477,0.69734 1.68455,1.47018 0.40294,0.72233 0.18836,1.48633 -0.0263,2.23348 -0.24119,1.29995 -0.73998,2.54124 -0.99012,3.83678 -0.19159,0.90456 -0.38181,1.81006 -0.73471,2.66848 0.13806,1.16715 -1.07371,0.91361 -1.70485,0.44391 -0.63759,-0.3701 -1.61876,-0.111 -2.03609,-0.81791 -0.14335,-0.93177 0.22813,-1.87724 0.14134,-2.8276 -0.12106,-1.2014 0.35966,-2.45903 -0.11907,-3.61452 -0.0554,-0.12514 -0.14262,-0.23185 -0.19057,-0.36027 z"
       id="path1735"
       transform="translate(1.3096207,0.84189901)" /><path
       style="display:inline;opacity:0.565141;fill:#b5835a;stroke-width:0.1;stroke-linecap:round"
       d="m 122.97306,187.60671 c 0.74297,-1.26128 1.33473,-2.61731 2.16487,-3.82974 0.93322,-0.7621 2.06984,-0.94992 3.21245,-1.27898 1.66287,-0.53353 3.00527,1.24638 2.07467,2.66142 -0.855,0.91442 -1.95114,1.62742 -2.46635,2.82872 -0.47546,0.67683 -0.89706,2.17445 0.53704,1.65551 1.05375,0.55227 -0.73714,1.85253 -1.07272,2.56508 -0.90021,1.75675 -1.70433,3.59106 -2.48213,5.40109 -0.38753,1.13755 -0.62767,3.5711 -2.19264,2.50321 -1.49969,-0.94191 -0.5933,-2.49472 -0.32408,-3.82073 0.41963,-1.72381 1.21469,-3.37598 1.21178,-5.18504 0.0569,-1.073 0.78831,-3.22042 -0.66289,-3.50054 z"
       id="path1737"
       transform="translate(1.3096207,0.84189901)" /><path
       style="display:inline;opacity:0.565141;fill:#b5835a;stroke-width:0.1;stroke-linecap:round"
       d="m 124.62783,173.18063 c 1.13363,-0.0666 1.72753,-0.2375 2.6639,0.55936 1.36437,0.99907 2.04595,2.7383 2.29061,4.06251 0.20625,0.75157 -0.0683,1.50968 -0.0687,2.27097 -0.11398,0.81931 0.3382,1.54459 -0.0501,2.31533 -0.75284,-0.63785 -4.43332,0.92052 -4.58908,1.00228 0.63537,-1.32594 0.28888,-2.82785 0.31663,-4.23804 -0.0484,-0.8798 0.16957,-1.7464 0.0623,-2.63049 0.02,-0.76873 0.16364,-1.5856 -0.23212,-2.29566 0.0241,-0.39834 -0.34737,-0.66589 -0.39344,-1.04626 z"
       id="path1739"
       transform="translate(1.3096207,0.84189901)" /><path
       style="display:inline;opacity:0.565141;fill:#b5835a;stroke-width:0.1;stroke-linecap:round"
       d="m 124.55198,175.84675 c 0.39911,1.78926 0.069,3.0694 -0.78805,4.67002 -0.71366,0.46636 -1.23538,1.71952 -2.17847,0.74286 -1.36722,0.0127 -1.33342,1.8263 -0.87355,2.74643 0.30195,0.81605 0.0532,2.57575 1.38056,2.32675 0.74491,-0.36522 1.93592,-0.8824 1.24121,0.46234 -3.6324,0.0725 -6.00313,3.30503 -5.83737,2.627 -0.0184,-2.05193 -0.2931,-4.1362 -0.01,-6.17271 0.48419,-1.74287 0.5948,-3.55875 0.69929,-5.34788 0.54856,-1.18214 2.00658,-1.44952 2.95147,-2.23369 1.22404,-0.57693 1.64692,-0.73289 2.60201,-1.6735 l 0.55172,1.19763 z"
       id="path1741"
       transform="translate(1.3096207,0.84189901)" /><path
       style="display:inline;opacity:0.565141;fill:#b5835a;stroke-width:0.1;stroke-linecap:round"
       d="m 116.94521,189.17808 c -0.73495,-0.23416 -1.13954,-0.97821 -1.83451,-1.22679 -1.02035,-0.2084 -0.58282,-1.45191 -0.77542,-2.19534 -0.0648,-0.92844 -0.29925,-2.07883 0.47677,-2.78573 0.54825,-0.55991 0.26819,-1.41526 0.65857,-2.02984 0.66821,-0.5702 0.31692,-1.37084 0.42375,-2.09794 0.27915,-0.6364 1.05852,-1.0178 1.70186,-1.20474 0.40422,0.42508 0.0563,1.24904 0.17262,1.83302 -0.0116,0.89813 0.10477,1.82356 -0.25914,2.67279 -0.31782,0.77303 -0.47528,1.61611 -0.37675,2.45259 0.0348,1.16841 -0.0912,2.34595 0.12559,3.49953 -0.0991,0.29724 0.33403,0.98978 0.003,1.08255"
       id="path1743"
       transform="translate(1.3096207,0.84189901)" /><path
       style="display:inline;opacity:0.565141;fill:#b5835a;stroke-width:0.1;stroke-linecap:round"
       d="m 116.79556,197.98211 c 0.71859,-0.41905 1.89063,0.0183 2.45873,0.56865 0.67986,0.47642 1.32991,0.95272 1.99051,1.4469 0.48916,0.40858 0.92423,1.11158 0.72415,1.77016 -0.53602,0.84683 -0.70574,1.88064 -1.22215,2.74831 -0.35251,0.5702 -0.6091,1.21425 -1.11177,1.63001 -0.42477,0.3205 -1.11675,1.17395 -1.14847,0.12746 0.0887,-0.876 -0.0135,-1.74047 -0.0255,-2.61669 -0.20462,-0.84836 -0.0581,-1.75919 -0.26897,-2.60417 -0.19248,-0.83097 -0.93645,-1.58548 -1.8694,-1.55797 -3.05358,-0.33103 -0.0959,-1.20237 0.47287,-1.51266 z"
       id="path1745"
       transform="translate(1.3096207,0.84189901)" /><path
       style="display:inline;opacity:0.565141;fill:#b5835a;stroke-width:0.1;stroke-linecap:round"
       d="m 91.931675,200.77706 c -1.903347,1.01744 -3.531644,4.4354 -2.985313,7.56716 1.072891,10.44001 4.302792,0.78067 7.085908,1.49713 1.395922,-1.79947 0.33984,-4.11756 -1.073871,-5.51553 -0.782374,-1.55592 -0.51506,-3.75132 -3.026724,-3.54876 z"
       id="path1749"
       transform="translate(1.3096207,0.84189901)" /><path
       style="display:inline;opacity:0.565141;fill:#b5835a;stroke-width:0.1;stroke-linecap:round"
       d="m 95.122375,199.22072 c 0.961273,-0.46883 1.917911,-1.00945 2.769289,-1.1369 1.982244,-0.38934 -0.765339,1.84906 -0.55881,2.97372 -0.512799,1.4731 -0.03127,2.76112 -0.293995,4.33852 -0.968683,0.85914 -1.223022,-0.75498 -1.768717,-1.37638 -0.504495,-0.91556 -0.91154,-2.23767 -1.410448,-3.07176 0.230122,-0.58189 0.434888,-1.28811 1.262681,-1.7272 z"
       id="path1751"
       transform="translate(1.3096207,0.84189901)" /><path
       style="display:inline;opacity:0.565141;fill:#b5835a;stroke-width:0.1;stroke-linecap:round"
       d="m 94.971637,198.30709 c 0.04708,-0.78557 -0.05826,-1.56506 -0.352668,-2.29785 -0.371712,-0.7737 -0.13993,-1.6367 -0.385828,-2.432 -0.513833,-1.62001 -0.971919,-3.27549 -1.053793,-4.98068 0.852291,0.0909 1.611142,-0.433 2.425126,0.0968 2.693664,1.53571 4.052866,9.63483 2.345645,9.19632 -0.982664,0.22038 -1.87052,0.88899 -2.915284,0.79738 -0.04075,-0.12286 -0.04232,-0.25327 -0.06316,-0.37989 z"
       id="path1753"
       transform="translate(1.3096207,0.84189901)" /><path
       style="display:inline;opacity:0.565141;fill:#b5835a;stroke-width:0.1;stroke-linecap:round"
       d="m 91.868344,174.05073 c 1.423565,0.44708 3.338257,0.23243 4.202793,1.73403 0.61005,1.30467 1.886467,2.16465 2.03714,3.60246 0.191637,1.82871 0.695446,3.39395 1.050116,5.23723 0.0553,1.40406 0.20951,2.80736 -0.0402,4.20104 0.19354,1.93934 -1.557664,1.46198 -2.399598,0.41041 -1.023928,-0.65328 -2.477255,-1.83372 -1.390505,-3.11364 1.098224,-1.36332 1.336196,-3.63104 -0.134951,-4.83324 -1.197174,-1.28838 -3.161791,-1.73563 -3.224484,-3.8206 -0.262171,-1.20683 -0.13335,-3.41769 -0.100321,-3.41769 z"
       id="path1765"
       transform="translate(1.3096207,0.84189901)" /><path
       style="display:inline;opacity:0.565141;fill:#b5835a;stroke-width:0.1;stroke-linecap:round"
       d="m 98.898253,191.02385 c 0.77257,-0.94502 1.461577,-0.69225 2.596867,-1.02257 0.75389,0.0782 0.6891,1.54929 0.97259,2.36089 -0.63309,0.27997 -1.5257,1.47377 -1.23349,2.78247 0.40925,0.403 0.59028,1.42211 1.08397,1.8324 0.45618,1.11157 2.18684,0.80231 2.69732,1.16894 0.29339,0.14946 0.55528,1.18954 0.65921,1.99763 0.42008,1.20754 0.52457,2.61486 0.992,3.85494 0.38455,1.28955 0.001,2.63995 0.21155,3.93952 0.38562,0.73688 0.57667,1.69375 0.82657,2.52884 0.2384,1.10803 0.24485,2.11732 0.26484,3.22124 -0.077,1.40316 0.19365,2.8554 -0.21681,4.2167 -0.0871,0.92883 0.0443,2.27651 -0.92988,2.76053 -1.00159,0.47339 -2.03699,0.96053 -2.79012,1.77802 -2.15382,1.44785 1.18914,-3.46855 1.33429,-4.59704 0.12027,-1.11557 0.41848,-2.17274 0.4189,-3.30904 0.0285,-1.05904 -0.0135,-2.02438 0.11506,-2.99395 0.29956,-2.42966 -0.7114,-4.79305 -1.14358,-6.8451 -0.35017,-1.2746 -0.63525,-2.53395 -1.24906,-3.68945 -0.36321,-1.02295 -1.54463,-2.54166 -2.07478,-2.93998 -0.44747,-0.38989 -1.724277,-0.31919 -2.271057,-1.04793 -0.620166,-0.88893 -0.20272,-2.03293 -0.35896,-3.09312 -0.152312,-1.02719 0.40527,-1.97891 0.0947,-2.90394 z"
       id="path1755"
       transform="translate(1.3096207,0.84189901)" /><path
       style="display:inline;opacity:0.565141;fill:#b5835a;stroke-width:0.1;stroke-linecap:round"
       d="m 114.65467,189.57282 c -0.95405,2.39391 2.03886,5.35069 -0.21168,7.19937 -1.99212,1.30435 -3.93297,3.15166 -3.32973,5.77941 0.51001,2.9195 -2.13839,4.71122 -1.85552,7.57759 0.3817,2.44278 0.18937,5.04803 -0.8834,7.29864 -0.85521,2.43104 1.20525,3.06454 2.50281,4.45334 1.91125,1.65481 0.30887,-2.24446 0.0558,-3.05816 -9.9e-4,-3.02217 -1.01497,-6.57711 0.12985,-9.46693 0.67883,-2.52116 1.40281,-4.71589 1.86955,-7.27764 0.35946,-2.25028 1.65341,-3.72682 4.27561,-4.53901 0.76749,-1.86629 0.49539,-4.02741 0.63527,-6.01056 -0.24943,-1.64382 -1.46182,-3.74889 -3.25199,-2.27276"
       id="path1759"
       transform="translate(1.3096207,0.84189901)" /><path
       style="display:inline;opacity:0.565141;fill:#b5835a;stroke-width:0.1;stroke-linecap:round"
       d="m 86.175355,183.51659 c 0.740073,-0.83909 1.375091,-1.6878 1.782085,-2.78338 0.649224,-1.19403 1.049974,-2.55231 0.872892,-3.91847 -0.02861,-0.98785 0.538435,-1.9193 1.208301,-2.60804 0.944355,-0.18947 2.278301,-0.58453 2.991638,0.33742 0.533507,0.99919 0.206503,2.23493 0.298825,3.33558 -0.03928,1.15587 0.285201,2.43764 -0.58166,3.38018 -0.363361,0.88753 -0.09686,1.82633 0.457828,2.5735 0.516415,1.07764 0.75953,2.22709 1.170335,3.3242 0.591119,0.9475 1.127182,0.31111 2.211419,1.70233 -0.418229,0.81295 -1.379083,0.96969 -1.745758,0.76372 -0.156777,-0.0881 -0.12119,-0.53236 -0.204907,-0.61358 -0.846027,-4.04054 -3.146728,-4.48126 -6.765048,-4.95798 -0.925753,-0.10363 -1.519998,0.0145 -2.40002,-0.089 0.240202,-2e-5 0.463868,-0.44644 0.70407,-0.44651 z"
       id="path1763" /><path
       style="display:inline;opacity:0.565141;fill:#000000;stroke-width:0.1;stroke-linecap:round"
       d="m 96.491618,180.06732 c -0.711889,-0.21949 -1.21588,-0.82202 -1.590969,-1.43627 -0.139817,-0.21953 -0.238906,-0.46565 -0.423773,-0.65426 -0.169953,-0.17729 -0.290818,-0.39171 -0.375635,-0.62082 -0.149063,-0.3754 -0.262573,-0.76453 -0.401077,-1.1432 -0.0458,-0.31162 0.289861,-0.5536 0.579383,-0.51319 0.293986,0.0111 0.583908,0.1229 0.807037,0.31505 0.375091,0.12498 0.535981,0.54181 0.567409,0.90481 0.05555,0.31318 0.05569,0.6862 0.320407,0.90776 0.447426,0.42718 0.671299,1.08974 0.527553,1.69728 -0.02783,0.1798 -0.0075,0.362 -0.01033,0.54284 z"
       id="path1656"
       transform="translate(1.3096207,0.84189901)" /><path
       style="display:inline;opacity:0.565141;fill:#b5835a;stroke-width:0.1;stroke-linecap:round"
       d="m 96.871616,176.64736 c 0.885013,-0.20967 1.693454,0.42018 2.142171,1.13144 0.368479,0.55214 0.579333,1.18735 0.941537,1.74392 0.734086,1.30445 1.331976,2.68352 1.795156,4.1058 0.50561,1.17645 1.24531,2.38217 1.04763,3.71584 -0.16901,0.6134 -0.69631,1.08793 -0.99401,1.65692 -0.36913,0.51685 -0.88605,1.13756 -1.57831,1.10505 -0.612635,-0.0137 -0.944894,-0.65997 -0.75596,-1.20912 0.13438,-0.73878 0.497607,-1.46976 0.302894,-2.23401 -0.200697,-1.2208 -0.721513,-2.38504 -0.735254,-3.63592 -0.388374,-1.12938 -0.777102,-2.33477 -0.53577,-3.53998 -0.03976,-1.11638 -1.097651,-1.76969 -1.534517,-2.71476 -0.03186,-0.0417 -0.06371,-0.0834 -0.09557,-0.12518 z"
       id="path1767"
       transform="translate(1.3096207,0.84189901)" /></g></svg>
