<?xml version="1.0" encoding="UTF-8" standalone="no"?>
<!-- Created with Inkscape (http://www.inkscape.org/) -->

<svg
   width="203.80954mm"
   height="183.7702mm"
   viewBox="0 0 203.80954 183.7702"
   version="1.1"
   id="svg5"
   xml:space="preserve"
   xmlns="http://www.w3.org/2000/svg"
   xmlns:svg="http://www.w3.org/2000/svg"><defs
     id="defs2" /><g
     id="layer1"
     style="display:none;opacity:0.74"
     transform="translate(-5.039766,-19.146117)"><path
       id="path1092"
       style="opacity:0.565141;fill:#e01b24;stroke-width:0.1;stroke-linecap:round"
       d="m 78.036064,19.146118 c -3.624903,7.194324 -10.593575,1.610453 -15.364954,5.202783 -5.554265,4.758725 -17.109124,8.270801 -17.67644,14.900383 -1.910443,5.678263 -14.001524,10.502851 -10.854635,17.438729 4.539658,-0.08374 7.287441,-5.951169 4.959904,2.023132 -4.375428,4.8411 -6.438976,-5.861988 -9.554972,1.56838 -1.880287,3.73295 3.37954,9.697513 -3.212724,9.671244 10.137161,2.194354 -2.16584,8.035854 -7.008358,5.598108 3.399087,3.595181 16.903482,-1.324832 9.700183,7.278625 -1.906207,0.868865 -6.238483,-1.693719 -5.4684,4.051433 -2.376355,-4.285869 -2.715382,-5.928498 -1.23765,-0.09302 0.08296,8.160167 -4.435693,-13.550305 -2.935222,-1.60507 4.899412,4.38629 1.436328,8.357052 -2.4691,3.468006 -2.706847,-7.807456 -1.250837,2.90531 2.891813,4.249869 -3.44572,5.739766 -7.154015,-7.522248 -6.171199,1.741496 -0.583888,5.755574 9.29874,10.562414 6.368603,13.513394 8.562244,0.45043 3.543787,3.26492 -1.461926,3.53776 -4.391029,0.95856 -8.7823251,1.91724 -13.173356,2.8758 -1.1921134,3.98812 0.993225,8.49341 4.5056682,3.0179 2.8210628,1.22927 13.9489558,8.75938 4.1950928,8.85166 -9.5532932,6.22333 -2.574735,16.6994 6.346899,18.44177 7.098938,0.33033 5.798114,7.23669 -1.180806,7.60728 -6.814496,0.64766 -4.253096,15.08167 -1.769401,4.34392 4.648588,-4.51245 12.825915,-3.03838 8.460982,-11.53314 -1.016762,-10.94096 12.057959,-11.52426 16.166972,-3.3321 -2.745564,8.22586 -7.208617,2.81824 -5.012614,-2.60036 -5.440534,5.35309 -0.183377,16.15649 -10.039181,16.9292 -9.75999,-1.96597 4.36173,4.60355 1.598353,9.67641 0.08443,10.209 -13.760731,4.97666 -15.598532,4.01836 1.839563,2.7856 6.154122,15.15152 6.87555,12.04216 -2.350965,-3.5987 6.225164,-11.64517 8.097697,-6.8864 3.291929,2.55904 5.054893,14.44037 -1.234033,9.00359 -4.240278,7.93593 6.963569,-0.19191 10.401432,3.8902 2.937212,4.51426 -2.898687,5.92912 1.664498,10.09706 -3.639942,6.43036 2.740694,-4.97439 1.34763,1.59139 -0.188571,2.00438 9.911844,5.44133 8.232147,1.08286 -0.560198,-5.25515 7.340126,-1.32442 3.253548,-7.25744 -0.281734,-4.66034 -0.415445,-16.53359 -3.380156,-6.54327 -2.094354,3.46678 -2.580334,17.37793 -7.029961,10.81995 1.302262,-4.50425 -2.819135,-9.15097 -4.188992,-14.48691 -4.232752,-5.64248 7.301136,-11.78322 0.940511,-14.28595 1.993463,5.34034 -2.472566,2.72401 -3.328996,2.60553 0.05448,6.53622 -6.647802,-0.83944 -3.265433,-4.25142 3.511217,-2.09788 7.073936,-4.6977 8.025349,-9.263 1.638125,-4.87061 6.479145,-7.24487 11.443746,-7.04918 5.486085,-2.09011 5.889904,1.86143 4.545459,5.76967 1.431882,3.32324 8.012491,8.87612 7.815027,2.22984 -1.221769,-2.95261 -3.351653,-5.59345 -2.441194,-9.20099 6.309417,1.75144 13.690358,2.55271 20.604427,3.1688 3.882908,1.02704 7.911067,1.40587 11.785327,2.13062 6.845743,1.13542 7.360263,8.22917 14.220323,9.26713 4.10484,-0.54281 5.89285,-3.16148 7.80159,-5.98103 6.70062,-5.23712 15.12214,-2.27238 22.79447,-3.31969 4.54054,-2.79267 11.17838,-6.43886 16.14475,-2.90267 9.96137,-2.12094 -4.72643,11.8138 3.67368,7.85534 7.50906,-6.05688 -4.09645,-16.60409 -8.85217,-14.29525 1.86561,-2.78332 5.0635,0.0619 5.80378,-4.04834 -2.34705,-2.62393 3.54348,-1.19833 5.75727,-0.1049 4.19633,-0.79967 13.56784,1.54906 13.02866,4.87412 -2.26261,0.0478 -8.37486,-1.54947 -8.12302,-0.0879 8.3526,2.45741 12.97697,11.6071 16.95969,18.10949 7.10872,4.58367 2.17802,10.10207 -1.30328,8.60619 -2.2421,4.40231 1.99546,10.15164 -1.9513,15.3138 3.26524,-4.87536 17.0095,3.71592 11.87369,-4.53719 -8.1073,5.55593 -5.00781,-9.25515 0.39016,-9.97045 7.09181,-0.5315 3.98306,10.12565 4.86379,9.34413 3.7927,-4.30036 7.84716,-11.10767 7.85275,-16.60209 -4.04253,7.85397 -18.23635,7.59667 -15.90497,-3.76359 1.60931,-4.05856 10.53573,-9.26787 0.73018,-6.76341 -8.06505,0.0206 -10.38822,-6.92865 -13.39608,-12.22458 -2.32637,-6.41323 8.22564,-8.85583 10.75283,-6.82956 8.01968,3.09384 1.7345,15.74236 12.47159,17.01085 1.5026,2.43043 7.85756,9.16531 3.53105,3.79098 -0.91587,-2.74371 9.35864,-10.04242 5.75624,-10.78435 -1.98381,12.84014 -22.99119,0.62186 -8.80101,-4.01991 4.43372,-1.15391 6.06055,-6.73917 7.7742,-4.12636 2.52702,-8.11096 -4.80717,-13.91023 -11.53159,-16.65894 -3.80763,-5.02317 -18.94585,3.65255 -14.92312,-3.98683 8.34594,-2.03041 10.88471,-11.29654 18.61798,-14.57586 4.46441,-0.85713 6.87646,-18.182478 2.53008,-10.714591 -3.2111,5.231676 -9.24404,7.994751 -11.68404,13.731981 -4.44897,3.82181 -5.0026,0.93061 -2.26291,-2.47685 -0.18269,-5.689848 -1.32806,5.84757 -4.72426,1.34359 -4.79554,-0.32653 -10.35495,9.15542 -6.14485,0.73277 5.26459,-4.31823 13.25967,-13.944093 19.79311,-11.847344 4.76949,2.472183 -4.0713,-3.826073 1.1281,-0.507462 -2.15297,-2.387367 6.70667,-5.061541 3.75015,-8.568469 1.49872,6.275058 -10.45075,7.319636 -3.95221,2.248441 2.58211,-2.788852 -0.41,-12.168407 0.4222,-2.875793 -3.66808,6.951685 -0.96592,0.630596 -1.38545,-2.576587 -0.82167,4.100647 -4.46585,11.273298 -3.1073,2.515092 4.99977,-1.835011 -1.87242,-12.414646 0.40824,-3.253032 -0.1552,2.312518 -7.26569,6.931034 -2.23914,1.707906 -4.08228,4.029965 -2.77531,-1.181487 -6.95616,-2.610693 -3.74454,-2.847929 4.54498,-0.668521 0.19895,-3.943945 7.23986,-1.344268 3.2373,-0.377172 0.82114,-4.627108 6.25278,-2.688049 0.7192,-2.137641 -1.50637,-3.74034 0.40132,-2.966068 5.46761,-5.061414 2.40709,-8.089429 -2.37457,-1.458393 -6.40269,3.338089 -7.62692,0.367936 -1.12604,-3.074929 -0.92997,-6.313166 -1.09864,-9.527067 1.21543,5.115804 8.88203,7.107676 5.10769,0.206706 -1.388,-4.738385 -4.9459,-8.022584 -8.64805,-10.094474 1.46251,-5.463214 -2.66951,-2.40351 -4.12636,-3.404444 -4.71462,-3.678507 -7.2781,-9.690156 -13.02556,-11.9941 -3.46302,-3.268674 -7.80638,-1.812757 -11.50576,-4.302063 -7.72948,-6.566673 -10.90572,8.344397 -2.83807,8.917802 5.10192,7.97832 -7.36484,9.343959 -5.77019,15.108122 -2.32404,2.986794 -3.42398,8.657088 -5.27926,12.192021 V 55.84672 c -1.40133,3.756252 -2.47789,6.535315 -3.46698,1.634009 -2.9224,1.034798 -6.51953,-0.07369 -9.63093,-1.890324 l -1.31258,-0.826823 c -2.45303,-1.657882 -4.45425,-3.662676 -5.32888,-5.189864 0.38118,-0.543664 0.58503,-1.186374 0.58498,-1.844332 -2e-4,-1.807935 -1.50765,-3.273511 -3.36724,-3.273702 -0.0455,0.0021 -0.0906,0.0069 -0.13591,0.01085 -0.24077,-0.05221 -0.48656,-0.07961 -0.73328,-0.07958 -1.72599,1.77e-4 -3.1323,1.267389 -3.32797,2.894397 -0.0104,0.07356 -0.0175,0.147691 -0.0227,0.222725 -0.003,0.053 -0.0165,0.102949 -0.0165,0.15658 0,0.04064 0.008,0.08042 0.009,0.120923 0.0102,0.623794 0.20335,1.231219 0.55707,1.751831 -2.10333,3.630755 -10.491185,9.919074 -16.253785,7.878589 -1.803201,8.935545 -3.855091,-7.545354 -7.746814,-9.228895 -3.298784,-5.908229 -9.09341,-12.606757 -4.215246,-19.975008 3.367749,-4.352344 2.172435,4.858574 4.982641,-2.103747 0.89852,-3.660208 -0.503379,-6.93942 -4.441072,-6.958232 z M 197.85201,94.046456 c 0.27591,0.305955 0.72315,0.60717 1.40921,0.904854 -0.64088,-0.418572 -0.97903,-0.630279 -1.40921,-0.904854 z" /><path
       style="opacity:1;fill:#000000;stroke-width:0.1;stroke-linecap:round"
       d="m 50.974257,76.715402 c 0.343253,-0.552831 2.516663,-4.977819 3.180116,-9.312777 0.209926,-1.371639 -0.518628,-2.958134 -1.178898,-4.184295 -3.516142,-3.742924 -6.017308,2.090416 -8.24588,4.84395 -2.435475,2.86111 -5.793508,8.785458 -5.651865,9.500326 -1.962919,2.647031 -2.376732,8.542532 -0.948439,9.874149 0.818411,-3.828762 7.625143,-1.836208 6.775558,1.484324 -5.600166,-0.685794 -5.857131,5.471717 -3.214716,8.535978 -0.602309,4.064603 2.372974,7.074973 4.157947,10.287443 2.548686,6.14409 9.829106,5.75734 13.509995,1.86802 2.292344,-0.54086 1.34e-4,-0.75517 0.179712,-2.6974 7.045606,6.80043 2.923112,7.71812 6.400723,8.8235 1.672867,-2.26569 4.029102,-9.55698 2.851174,-12.636 -0.925961,-2.69186 -3.727141,-4.48799 -5.531582,-7.503241 -1.799071,-3.006278 -3.138571,-5.431336 -5.076197,-6.967168 -1.676429,-1.271723 -3.289464,-2.017489 -5.407428,-2.501127 0.02857,-6.044817 -7.0595,-8.715274 -8.643749,-2.513843 -2.013857,1.331167 -3.636319,-0.396584 -2.90787,-4.309139 0.911987,1.052173 2.13036,1.601105 2.938583,1.320707 0.769727,-0.267041 0.938253,-1.71392 1.516337,-2.595733 0.450657,-0.687435 2.729776,-0.688992 2.163456,-1.24989 -1.192227,-1.180813 -0.967302,-3.073797 -1.801735,-3.835839 0.165005,-3.212309 0.09273,-1.509306 2.156685,-1.184177 1.194939,0.188236 2.255906,-0.526113 2.776136,0.33899 0.656756,1.226321 -0.32537,3.248073 0.0019,4.613242 z"
       id="path1152" /><path
       style="opacity:1;fill:#000000;stroke-width:0.1;stroke-linecap:round"
       d="m 57.366857,36.005428 c 3.378017,-2.889939 7.044661,-5.423313 10.812252,-7.775372 3.582917,-1.124923 6.872003,-3.207374 10.653533,-3.662883 3.871555,0.38268 -1.746697,0.717232 -2.521114,1.328324 -0.996415,0.675091 -1.892414,1.510027 -2.977061,2.043255 -2.183647,1.751323 -4.058286,3.846704 -6.200353,5.645411 -0.674752,1.520001 -2.912795,1.307058 -3.49429,2.884383 -0.503703,1.960527 -0.658956,4.241557 -2.224961,5.708378 -0.406727,0.254999 -1.327853,1.070405 -1.613585,0.766557 0.649433,-1.098458 1.832902,-1.858123 2.161606,-3.138275 0.495174,-1.212789 1.499108,-2.425762 1.162497,-3.810054 -0.832626,-0.03353 -1.541343,1.406181 -2.384704,1.872459 -3.163443,0.550316 -3.355636,-1.911047 -3.37382,-1.862183 z"
       id="path1154" /><path
       style="opacity:1;fill:#000000;stroke-width:0.1;stroke-linecap:round"
       d="m 38.155006,69.592581 c -0.450236,-1.138854 4.305186,-4.733806 4.585062,-7.714109 0.255826,-2.719384 -0.311477,-5.588962 1.037422,-8.124636 2.272339,-4.404743 4.968618,-8.731995 8.51799,-12.201546 1.886186,-0.531112 4.105286,-4.682699 5.549002,-2.017991 0.90077,2.963512 -1.792909,5.365646 -2.68555,7.987132 -0.99055,1.526655 -1.856712,4.844986 -2.630662,5.581748 0.670603,-3.402862 -3.732067,-1.913032 -3.720383,-0.536469 -1.339321,-1.805121 -0.594464,4.089954 -1.78749,1.989874 -0.347392,-1.873052 0.19288,2.090768 -1.603469,1.127767 -1.299408,0.951719 -0.557636,1.579559 0.119927,2.038771 -1.788771,0.688053 -2.987783,5.207012 -1.118964,5.024966 0.785882,-0.786514 3.674488,-4.158828 1.725709,-1.650676 -1.79934,2.55442 -3.54112,5.219787 -6.168863,7.002984 -0.606578,0.497393 -1.213159,0.994794 -1.819731,1.492185 z"
       id="path1156" /><path
       style="opacity:1;fill:#000000;stroke-width:0.1;stroke-linecap:round"
       d="m 29.601477,88.44617 c 0.343336,-0.731454 0.686671,-1.462908 1.030007,-2.194362 0.937479,-0.873913 1.98808,-1.607774 3.066126,-2.295496 0.650209,-0.357451 0.793994,-1.16832 1.201375,-1.744366 0.350714,-0.592644 0.722977,-1.360859 1.073641,-1.836864 0.120421,0.40255 0.313399,0.794747 0.387369,1.203925 -0.05541,0.798363 -0.02307,1.613507 -0.166612,2.399342 -0.370536,1.081463 -0.850234,2.129541 -1.19512,3.215745 -0.180356,0.796318 -0.122043,1.744451 -0.707847,2.376086 -0.457066,0.374768 -0.81996,1.133237 -1.500958,0.877222 -0.629759,-0.06997 -1.259517,-0.139946 -1.889276,-0.209919 -0.396507,-0.530166 -0.932676,-0.984397 -1.241711,-1.563346 -0.019,-0.07599 -0.03799,-0.151986 -0.05699,-0.227967 z"
       id="path1158" /><path
       style="opacity:1;fill:#000000;stroke-width:0.1;stroke-linecap:round"
       d="m 31.303227,96.014475 c -0.354529,-0.738236 0.168478,-1.46761 0.471943,-2.120792 0.158352,-0.51134 0.509373,-1.011503 1.097339,-1.035898 0.755681,-0.05536 1.517369,0.01408 2.273588,0.05096 0.841138,0.07172 1.725652,0.312768 2.319771,0.948838 0.642162,0.156712 0.895362,0.879223 0.834141,1.476574 -0.0673,1.086967 0.0097,2.204615 -0.371583,3.246866 -0.196171,0.38946 -0.369301,1.224955 -0.801567,1.217612 -1.418481,-0.704079 -2.914848,-1.317444 -4.115687,-2.378318 -0.58807,-0.445021 -1.169595,-0.900927 -1.707945,-1.405845 z"
       id="path1160" /><path
       style="opacity:1;fill:#000000;stroke-width:0.1;stroke-linecap:round"
       d="m 16.032268,94.312726 c 1.120691,1.259442 3.03609,0.942253 4.297806,0.0867 1.449881,-0.940741 3.466373,-1.684792 4.953831,-0.404814 3.0544,1.944838 4.769365,5.579625 8.293989,6.853268 2.570291,1.30439 5.879739,2.06618 7.219022,4.90647 0.327189,1.0528 2.208306,4.26817 0.802337,4.52588 -1.408995,-2.38796 -5.021839,-4.01902 -7.672549,-3.82365 -1.704794,-0.24084 1.405868,2.92559 -0.708964,3.00798 -2.693632,0.0239 -6.708364,-1.57914 -7.586912,-4.31927 -0.796966,-2.12103 -1.045357,-4.83744 -3.262576,-6.028599 -2.20206,-1.411281 -5.459621,-1.983627 -6.335984,-4.803965 z"
       id="path1162" /><path
       style="opacity:1;fill:#000000;stroke-width:0.1;stroke-linecap:round"
       d="m 18.09228,115.00241 c 1.099799,-1.62813 3.353815,-0.84733 4.959869,-1.4448 1.59385,0.0595 3.153168,0.52635 4.719131,0.81577 2.05051,0.61908 3.761156,1.98352 5.780833,2.71229 1.761974,1.081 3.672229,2.00228 5.264495,3.31696 0.631026,1.67545 -2.753833,1.86688 -4.04975,1.77498 -1.684144,-0.33613 -3.603094,0.13298 -5.081704,-1.01115 -1.905062,-0.72973 -3.760914,-1.55471 -5.468678,-2.68008 -2.123849,-0.84459 -3.890171,-2.29448 -5.871611,-3.37913 z"
       id="path1164" /><path
       style="opacity:1;fill:#000000;stroke-width:0.1;stroke-linecap:round"
       d="m 37.528044,126.10856 0.716526,-1.70175 1.074791,-0.62696 h 0.895657 l 1.074788,0.98523 -0.268695,1.07479 -1.074791,0.0896 -1.791314,-0.0896 z"
       id="path1166" /><path
       style="opacity:1;fill:#000000;stroke-width:0.1;stroke-linecap:round"
       d="m 23.466224,123.95899 c 0.05165,-0.98641 1.186521,-1.10448 1.947054,-1.08818 1.983765,-0.95845 5.191922,-0.28742 7.14785,1.40252 0.902616,0.76954 1.733575,1.78678 2.420169,2.73274 0.523343,0.92327 -1.046328,2.15308 -1.949521,2.4708 -0.814848,0.80024 -1.795499,1.07072 -2.23112,0.0115 -0.366421,-0.79214 -1.113233,-1.9876 -1.989606,-1.29565 0.172497,0.71878 0.390758,2.23654 -0.680564,2.28307 -0.799971,-0.50976 0.02791,-0.27587 -0.888078,-0.63873 -0.288168,-0.16209 -1.965398,-2.04398 -2.253566,-2.20607 -0.08957,-0.5971 -0.972882,-1.12806 -1.062448,-1.72516 -0.383405,-0.63213 -0.415963,-1.23379 -0.46017,-1.94688 z"
       id="path1168" /><path
       style="opacity:1;fill:#000000;stroke-width:0.1;stroke-linecap:round"
       d="m 27.854947,134.52774 c -0.980534,-2.85483 -3.28906,-4.94511 -5.531183,-6.83968 -0.600262,-0.59574 -1.542765,-0.44605 -2.204598,-0.0453 -1.010442,0.52572 -1.888249,1.38813 -3.051899,1.56132 -1.244859,0.80276 -1.621388,2.38285 -1.57663,3.77753 0.04207,1.15009 0.173929,2.30842 0.470321,3.42114 0.662937,1.97421 2.521967,3.16497 4.242098,4.14354 0.748084,0.29637 1.39152,1.03903 2.214571,1.0168 0.887396,-0.0354 1.290761,-1.0998 0.898395,-1.82265 -0.258161,-0.63623 -0.909955,-1.10574 -1.605522,-1.08283 -0.315485,-0.67266 0.141592,-1.41353 0.808772,-1.63112 1.058345,-0.4603 2.269502,-0.52085 3.248135,-1.16922 0.740932,-0.36582 1.453358,-0.79753 2.08754,-1.32952 z"
       id="path1170" /><path
       style="opacity:1;fill:#000000;stroke-width:0.1;stroke-linecap:round"
       d="m 33.318455,132.64686 c 0.164707,-0.48937 0.200785,-0.66304 0.529195,-1.14072 0.34492,-0.23704 1.156134,-0.0246 1.572441,-0.12783 0.673466,0.11913 1.307701,-0.27684 1.916675,-0.0274 0.336819,0.26985 0.325689,0.74518 0.390215,1.13528 0.04194,0.48959 0.09783,0.98693 0.04454,1.4764 -0.03243,0.20795 -0.01489,0.49178 -0.289893,0.3293 -0.38054,0.30749 -3.679798,0.24987 -4.163173,-1.64504 z"
       id="path1174" /><path
       style="display:inline;opacity:1;fill:#000000;stroke-width:0.1;stroke-linecap:round"
       d="m 37.528044,130.13902 c 2.477298,2.40542 4.823621,4.9691 7.385067,7.27323 1.49767,0.97859 3.00572,2.00666 4.551776,2.86577 -1.497911,1.41712 -3.339965,2.56067 -4.735467,4.09257 -0.728785,0.87443 -1.044727,2.32451 -2.391142,2.32836 3.169142,-0.42035 6.308526,-1.17583 9.520285,-1.15467 1.474141,1.12216 -1.258161,2.22129 -1.034931,2.76765 3.633483,-0.0978 7.271083,-0.13871 10.883065,-0.5924 0.644115,-0.59721 2.390632,-2.06537 1.068347,-2.89251 -0.736519,-0.87401 -1.583493,-1.69048 -2.25083,-2.60053 -0.141867,-0.59584 -0.283735,-1.19169 -0.425603,-1.78753 -1.373341,0.50754 -2.746682,1.01508 -4.120023,1.52262 -0.838969,0.0408 -3.478654,0.34505 -1.736404,-0.70654 1.385644,-1.0345 1.78103,-2.70203 2.153583,-4.29654 0.266361,-1.324 1.535316,-2.89839 -0.403542,-3.37227 -1.437874,-0.96601 -2.983693,-1.74942 -4.685213,-2.11414 -2.060275,-0.55149 -4.064126,-1.40955 -6.170272,-1.72971 -1.859172,-0.15092 -3.730269,-0.34842 -5.567196,0.0925 -0.680495,0.10138 -1.361037,0.20272 -2.0415,0.30413 z"
       id="path1176" /><path
       id="path1178"
       style="display:inline;opacity:1;fill:#000000;stroke-width:0.108576;stroke-linecap:round"
       d="m 81.478748,110.0677 c -3.134454,0.0403 -5.480614,2.84553 -4.173906,6.58409 -0.678499,6.33097 2.554265,12.19662 9.019605,14.75776 2.812678,1.37838 7.316828,2.46338 9.963733,1.1622 -0.09491,0.0702 -0.141617,0.13026 -0.09302,0.17312 1.838759,-0.76723 4.16347,0.41011 4.90616,2.04639 0.8591,1.35293 1.28928,2.4281 2.07068,3.8809 0.75931,1.21056 0.98956,4.25633 1.29604,6.06061 0.52852,-0.53552 0.0469,-3.52602 -0.16846,-4.83795 -1.42144,-2.51679 -2.56424,-5.31799 -4.405938,-7.4874 -0.964082,-0.71649 -1.505616,0.0268 -1.592667,-0.32298 -0.256842,-1.03216 -0.250821,-1.10473 -0.622185,-0.66817 0.635188,-0.89117 0.910992,-2.17305 0.643889,-3.95325 -1.234028,-6.98166 -5.763031,-14.25979 -13.268958,-16.26722 -1.204368,-0.79547 -2.441237,-1.14266 -3.574975,-1.1281 z" /><path
       id="path1180"
       style="display:inline;opacity:1;fill:#000000;stroke-width:0.104463;stroke-linecap:round"
       d="m 134.84552,110.8723 c -1.96257,-0.007 -3.99696,0.76647 -5.49373,1.96061 -6.14205,1.73027 -10.72488,8.15973 -10.19059,14.67249 0.14133,1.17833 0.49721,2.39938 1.18391,3.37292 -0.49468,-0.4903 -1.07712,-0.0524 -2.019,1.29707 -0.20634,0.29561 -0.6291,-0.39351 -1.59318,0.32298 -1.84171,2.16941 -2.9845,4.97061 -4.40594,7.4874 -0.21537,1.31193 -0.69646,4.30243 -0.16794,4.83795 0.30648,-1.80428 0.53621,-4.85004 1.29552,-6.06061 0.7814,-1.4528 1.21158,-2.52745 2.07068,-3.88039 0.7427,-1.63628 3.97949,-3.46887 5.81825,-2.70164 0.15205,-0.0882 0.1606,-0.15877 0.0966,-0.22324 4.03836,2.01913 8.94228,0.56744 12.46746,-1.93063 3.17703,-1.82458 4.39788,-5.56452 4.91184,-9.02478 0.21404,-2.80244 2.05257,-5.95168 0.18811,-8.52919 -1.15256,-1.11808 -2.63558,-1.59552 -4.16202,-1.60094 z" /><path
       style="opacity:1;fill:#000000;stroke-width:0.1;stroke-linecap:round"
       d="m 141.06604,24.361882 8.41918,3.403498 4.74699,3.224366 6.2696,3.672197 2.77653,1.522616 -4.20959,0.447829 -0.53739,1.522618 c 0,0 -0.0896,1.253919 -0.17913,0.716526 -0.0896,-0.537395 -1.52262,-4.030458 -1.52262,-4.030458 l -2.41827,-0.447829 1.79131,2.418273 1.43305,3.134802 c 0,0 1.34349,1.970448 0.98523,1.970448 -0.35827,0 -1.34349,-0.537396 -1.61219,-1.253922 -0.26869,-0.716526 -2.32871,-4.120023 -2.32871,-4.120023 l -1.34348,-3.58263 -5.10525,-3.493063 c 0,0 -2.68697,-2.149579 -3.04524,-2.328709 -0.35826,-0.179134 -4.12002,-2.776539 -4.12002,-2.776539 z"
       id="path1190" /><path
       style="opacity:1;fill:#000000;stroke-width:0.1;stroke-linecap:round"
       d="m 162.11399,38.961097 5.64264,7.344391 2.95567,2.597407 1.88088,3.313932 1.43306,1.253921 0.0896,2.418274 0.17913,4.120025 0.0896,3.313933 -0.71653,-0.08957 -0.2687,-2.686973 c 0,0 0.17914,-2.060012 -0.35826,-2.060012 -0.53739,0 -1.70175,0.268698 -1.70175,0.268698 l -1.70175,-3.224366 -0.26869,-2.776538 c 1.7107,-3.579599 -3.41516,-0.818275 -3.40346,-1.79132 0.0896,-0.447828 -4.20959,-9.046138 -4.20959,-9.046138 l -0.71653,-2.149579 z"
       id="path1192" /><path
       style="opacity:1;fill:#000000;stroke-width:0.1;stroke-linecap:round"
       d="m 180.3854,79.982207 1.97045,0.268698 1.16435,2.418273 1.61219,2.686973 1.88088,1.522616 c 0,0 0.35826,1.074791 0.17913,1.433053 -0.17913,0.358264 -0.2687,1.701749 -0.89566,1.701749 -0.62696,0 -2.77654,-0.537395 -2.77654,-0.537395 0,0 -0.98522,-0.08956 -0.98522,-1.074788 0,-0.985223 -0.35826,-3.851328 -0.35826,-3.851328 l -0.44783,-1.970444 z"
       id="path1194" /><path
       style="opacity:1;fill:#000000;stroke-width:0.1;stroke-linecap:round"
       d="m 165.69662,75.593484 c -0.93488,-3.875215 -5.21676,-10.508672 0.59541,-12.423441 5.25166,1.352314 7.04234,8.016407 10.11094,12.036777 2.86595,4.363217 4.5366,10.701471 -2.46157,11.247721 -2.24661,3.127914 6.01207,4.843609 3.18876,9.415051 -1.5906,5.737548 -5.05251,10.793428 -7.67746,16.124958 -3.94294,6.19652 -8.6427,-5.19998 -13.33661,-0.7993 -5.52356,0.25946 4.75086,-5.85676 -0.77441,-8.25828 -2.64397,-6.574111 1.98383,-13.703634 8.24083,-15.991456 3.86587,-2.045458 5.36246,-9.166507 9.96619,-3.327813 4.11794,1.313786 3.5856,-7.267914 -1.18139,-3.857897 -4.62462,-0.357987 1.4564,-11.883888 -5.62071,-8.930755 -2.29042,1.213417 -0.99748,2.845185 -1.04998,4.764435 z"
       id="path1196" /><path
       style="opacity:1;fill:#000000;stroke-width:0.1;stroke-linecap:round"
       d="m 181.54976,127.63118 c 1.10218,-4.61928 9.17241,-6.53036 11.37484,-3.67219 0.40139,1.9039 -1.29191,4.68274 -3.53784,6.22482 -0.31625,0.1898 -0.62884,0.39179 -1.11957,-1e-5 -0.91606,-0.93895 -0.2951,-1.87632 -1.43305,-2.44067 -1.47225,0.90629 -0.91946,0.54931 -1.63458,2.30632 -0.8544,0.30805 -1.7507,0.19715 -2.66458,-0.0896 z"
       id="path1198" /><path
       style="opacity:1;fill:#000000;stroke-width:0.1;stroke-linecap:round"
       d="m 189.16284,134.52774 c 0,0 0.40368,-1.36136 0.58281,-1.98832 0.17913,-0.62696 1.11894,-1.863 1.7459,-2.31083 0.62696,-0.44783 1.52262,-1.25392 1.52262,-1.25392 l 0.89566,-1.61219 0.53739,-1.25392 2.41828,0.89566 3.0522,2.36178 1.86157,2.82196 c 0,0 0.20667,0.98256 0.20667,2.23645 0,1.25392 -0.36402,2.48703 -0.91085,3.3277 -1.19956,1.84414 -2.27911,2.64407 -3.4035,3.1348 -0.58396,0.25486 -2.08181,0.8518 -2.41828,0.98522 -0.52088,0.20655 -2.06878,-0.76453 -1.97044,-0.89565 l 0.0275,-1.43306 0.24797,-0.49055 c 1.16899,0.015 2.20443,-0.68611 0.88885,-1.30076 -0.40572,-0.18956 -2.68697,-1.52262 -2.68697,-1.52262 -0.87732,-0.51542 -1.87651,-0.48244 -2.59741,-1.70175 z"
       id="path1200" /><path
       style="opacity:1;fill:#000000;stroke-width:0.1;stroke-linecap:round"
       d="m 182.71411,133.45295 c 0.28928,-2.02823 -1.57777,-2.86739 -2.95567,-4.12002 -7.73744,-2.33823 -15.01991,1.97612 -21.40621,4.29916 5.22766,10.12765 17.4769,3.21348 24.36188,-0.17914 z"
       id="path1202" /><path
       style="display:inline;opacity:0.565141;fill:#000000;stroke-width:0.1;stroke-linecap:round"
       d="m 68.019151,120.0785 0.633325,-1.89997 c 0,0 0.633326,-0.76 1.393317,-0.76 0.75999,0 1.139984,-0.12666 1.773309,0.12667 0.633326,0.25333 1.646648,1.01332 1.646648,1.01332 l 0.506661,0.63333 0.379995,0.63332 c 0,0 0.126664,0.50666 -0.886656,0.75999 -1.013322,0.25333 -1.139986,0.50666 -1.899976,0.63333 -0.759991,0.12666 -0.379997,0.25333 -1.266653,0.25333 -0.886655,0 -1.773309,-0.38 -1.773309,-0.38 z"
       id="path1314" /><path
       style="display:inline;opacity:0.565141;fill:#000000;stroke-width:0.1;stroke-linecap:round"
       d="m 80.698733,135.51297 c -0.526025,0.0275 -0.949949,-0.37887 -1.40911,-0.57201 -0.370272,-0.33477 -0.67008,-0.79572 -0.756956,-1.28933 -0.01318,-0.62942 -0.05108,-1.25411 -0.107191,-1.88058 -0.04648,-0.55338 0.601385,-0.48366 0.915874,-0.27056 0.69541,0.12536 1.235611,0.64241 1.606509,1.21733 0.140291,0.439 0.504138,0.76687 0.67542,1.18776 0.226024,0.3694 0.887845,0.6813 0.704232,1.18138 -0.296829,0.17474 -0.72007,0.19861 -0.98448,0.45147 -0.215279,0.0213 -0.429321,-0.0246 -0.644298,-0.0255 z"
       id="path2711" /><path
       style="display:inline;opacity:0.565141;fill:#000000;stroke-width:0.1;stroke-linecap:round"
       d="m 74.681671,128.29185 c 0.195966,-0.14917 0.06918,-0.55351 -0.01974,-0.71714 0.0073,-0.66578 -0.626943,-1.84462 0.22157,-2.02686 4.791765,-0.39491 -2.226507,7.82344 -2.972609,2.81616 -0.01756,-0.31771 1.290309,-0.28728 2.184957,-0.0563 z"
       id="path2713" /><path
       style="display:inline;opacity:0.565141;fill:#000000;stroke-width:0.1;stroke-linecap:round"
       d="m 140.25995,125.7503 c 0.18675,0.75555 -0.0605,1.65651 0.59425,2.24392 0.31443,0.59784 0.98981,0.73782 1.49053,1.11389 0.50165,0.41258 1.15619,0.46399 1.76122,0.61076 0.61199,0.0642 0.77519,-0.99149 0.20719,-1.17907 -0.42073,-0.21403 -1.0095,-0.21322 -1.49166,-0.32366 -0.44674,-0.25214 -0.78016,-0.68388 -1.21508,-0.92407 -0.33051,-0.41737 0.24324,-1.17771 -0.39187,-1.39997 -0.30464,-0.0923 -0.63723,-0.14551 -0.95458,-0.1418 z"
       id="path2725" /><path
       style="display:inline;opacity:0.565141;fill:#000000;stroke-width:0.1;stroke-linecap:round"
       d="m 134.25905,134.88601 c 0.90501,-0.3498 1.36271,-1.30467 2.19798,-1.77212 0.66658,-0.65037 1.40495,-1.24815 1.97887,-1.9813 0.60559,-0.97646 0.40692,-2.2975 1.27375,-3.14648 0.8046,0.044 0.87689,1.78571 1.5534,2.41147 0.63649,1.01836 2.29751,1.26171 2.43509,2.58267 0.0944,1.43603 -1.30874,0.64584 -2.07748,0.46907 -1.15348,-0.0841 -0.96742,-1.39507 -1.4144,-2.10155 -1.13037,-0.27639 -0.87177,1.43084 -1.30455,2.08632 -0.65526,0.92416 -1.08241,2.14319 -1.9645,2.81294 -1.09188,0.47442 -2.52649,-0.0906 -2.67816,-1.36102 z"
       id="path2723" /><path
       style="display:inline;opacity:1;fill:#000000;stroke-width:0.1;stroke-linecap:round"
       d="m 146.61912,126.37726 c 3.63228,-0.0959 0.42842,-4.06957 -1.81005,-3.4693 -3.42089,-0.34572 -2.29842,3.02032 0.40899,2.99029 2.31975,0.92024 2.82478,3.6031 4.19069,5.45671 1.11792,1.09537 -0.68951,5.78638 1.62568,3.95406 0.58018,-2.36304 -1.22865,-4.60758 -1.06696,-7.02182 0.95952,-1.80614 2.6287,-3.40691 0.23752,-4.97574 0.30209,-1.26406 2.5233,1.6204 1.35892,-0.81484 1.46666,1.21288 2.46791,3.26956 4.92759,2.25832 1.70486,-0.0866 4.03635,-4.35287 4.16457,-0.70906 0.11727,3.63106 3.07316,-0.573 4.3203,-1.44063 2.47816,-1.92101 1.29853,-3.22367 -2.36257,-3.59357 -2.46132,-0.46938 -6.87675,-3.48987 -11.45034,-0.27521 3.7017,-2.34853 10.43161,2.2684 7.42347,1.85719 -2.25731,-1.36587 -5.10551,-2.2536 -7.51138,-0.80423 1.39561,0.83705 4.50713,-0.4991 6.04412,1.16561 -0.47126,2.36963 -4.54456,0.13563 -6.40775,1.03653 -1.0375,0.22088 -2.08834,0.84601 -1.81169,1.18438 0.89668,1.09673 1.72354,3.62588 -0.14476,4.56341 -1.09206,0.46092 -1.60122,-0.85853 -2.13635,-1.3621 z"
       id="path2721" /><path
       style="display:inline;opacity:0.565141;fill:#000000;stroke-width:0.1;stroke-linecap:round"
       d="m 144.37997,117.15199 c -0.28728,0.30894 -0.48898,0.5524 -0.80609,0.80609 -0.20462,0.1637 -0.59236,0.19949 -0.71652,0.44783 -0.14923,0.29845 -0.304,0.87933 -0.17914,1.25392 0.0513,0.15378 0.26457,0.3229 0.35827,0.44783 0.0401,0.0534 0.0424,0.13192 0.0896,0.17913 0.20422,0.20422 0.64021,0.33835 0.89566,0.44783 0.22124,0.0948 0.40348,0.26887 0.62696,0.35826 0.0554,0.0222 0.12573,-0.0267 0.17913,0 0.0755,0.0378 0.11942,0.11942 0.17913,0.17913 0.11943,0.0597 0.23325,0.13225 0.35827,0.17913 0.17989,0.0675 1.39619,0.18213 1.61218,0.0896 0.13721,-0.0588 0.23406,-0.18589 0.35826,-0.2687 0.0597,-0.0298 0.11943,-0.0597 0.17914,-0.0896 0.0299,0 0.0629,0.0134 0.0896,0 0.37275,-0.18638 -0.0958,0.006 0.0896,-0.17913 0.11189,-0.1119 0.22494,0.13127 0.35826,-0.2687 0.19288,-0.57864 -0.2328,-1.21794 -0.44783,-1.70175 -0.14628,-0.32914 -0.11671,-0.51623 -0.35826,-0.80609 -0.193,-0.2316 -0.47657,-0.44699 -0.71653,-0.62696 -0.61246,-0.45935 -1.43058,-0.34512 -2.14958,-0.44783 z"
       id="path2727" /><path
       style="display:inline;opacity:0.565141;fill:#000000;stroke-width:0.1;stroke-linecap:round"
       d="m 176.0114,123.76466 c -0.77321,1.64581 0.90474,2.62139 2.10995,2.63589 0.43821,0.0292 1.0155,-0.11272 1.14481,-0.59248 -0.0312,-1.42868 -2.10502,-2.45538 -3.25476,-2.04341 z"
       id="path2729" /><path
       style="display:inline;opacity:1;fill:#000000;stroke-width:0.1;stroke-linecap:round"
       d="m 179.84801,96.014475 c 0.11942,-0.238842 0.23884,-0.477684 0.35826,-0.716526 0,-0.08957 -0.0314,-0.184835 0,-0.268697 0.0232,-0.0618 0.45629,-0.904116 0.53739,-0.985224 0.33626,-0.336254 0.8937,-0.745725 1.34349,-0.895657 0.14442,-0.04814 0.31167,-0.02148 0.44783,-0.08957 0.0597,-0.02985 0.0362,-0.139075 0.0896,-0.179131 0.0755,-0.05665 0.18425,-0.04734 0.26869,-0.08957 0.0378,-0.01889 0.0495,-0.07621 0.0896,-0.08956 0.18173,-0.06058 1.52844,-0.05258 1.79131,0 0.75412,0.150823 0.003,0.0013 0.35827,0.17913 0.1101,0.05505 0.24816,0.03451 0.35826,0.08957 0.11329,0.05665 0.16331,0.198435 0.2687,0.268695 0.13898,0.09266 0.0583,-0.152146 0.17913,0.08957 0.19268,0.385371 0.11182,0.760492 0.17913,1.164354 0.0611,0.366607 0.0896,0.695931 0.0896,1.074788 0,0.05971 -0.0422,0.136911 0,0.179134 0.0597,0.05971 0.14927,-0.08957 0.0896,0.08956 -0.0807,0.242083 -0.29645,0.34817 -0.44783,0.537395 -0.56246,0.703083 -1.17792,0.947224 -1.97044,1.343485 -0.25079,0.125394 -0.55531,0.143307 -0.8061,0.268698 -0.0378,0.01889 -0.0597,0.05971 -0.0896,0.08957 -0.0896,0.05971 -0.16875,0.139152 -0.2687,0.179131 -0.0554,0.02217 -0.12572,-0.02671 -0.17913,0 -0.17437,0.08718 -0.27424,0.27147 -0.44783,0.358264 -0.0534,0.0267 -0.12572,-0.0267 -0.17913,0 -0.15707,0.07853 -0.28624,0.277466 -0.44783,0.358262 -0.0844,0.04222 -0.18774,0.04099 -0.2687,0.08957 -0.20074,0.120449 -0.35656,0.387551 -0.53739,0.447829 -0.41583,0.13861 -0.45214,0.541705 -0.71653,0.806095 -0.0812,0.0812 -0.0901,10e-4 -0.17913,0.17913 -0.0481,0.0962 -0.43592,0.19104 -0.35826,0.2687 0.0422,0.0422 0.11942,0 0.17913,0 0.35292,0 0.39,-0.51695 0.44783,-0.806097 0.0601,-0.300717 0.0326,-0.740812 -0.0896,-0.985223 -0.0534,-0.106813 0.0234,-0.24116 0,-0.358262 -0.0262,-0.130927 -0.14675,-0.228735 -0.17913,-0.358264 -0.0489,-0.195546 -0.0547,-1.268945 0,-1.433053 0.0134,-0.04005 0.0793,-0.0486 0.0896,-0.08956 0.0579,-0.231711 0,-0.477684 0,-0.716526 z"
       id="path2733" /><path
       style="display:inline;opacity:0.565141;fill:#000000;stroke-width:0.1;stroke-linecap:round"
       d="m 89.38661,150.64958 c 1.970564,-0.5836 3.945701,0.35485 5.567515,1.40781 2.580148,1.33159 4.992663,3.01307 7.702545,4.07677 1.7521,0.90144 3.50584,1.17778 5.70395,-0.36108 0.60598,-0.24711 2.75323,1.92039 4.32673,0.97787 1.76743,-0.58963 3.25302,-1.30309 4.84118,-2.23638 1.39933,-0.87574 2.82788,-1.59017 4.26048,-2.39843 1.6276,-0.85194 4.05217,-1.80578 6.19047,-1.44945 0.34653,0.86541 -2.88832,0.90128 -3.60402,1.30102 -2.08044,0.76028 -4.07864,1.74903 -6.00909,2.82747 -1.63455,0.97073 -3.13829,2.42822 -5.11279,2.58821 -1.93989,0.0147 -3.67101,0.12013 -5.01989,-0.3229 -2.22653,0.39 -3.9725,0.37247 -5.20399,0.10505 -3.468719,-0.78897 -8.32285,-4.84091 -10.84607,-5.0848 -0.979175,-0.37262 -1.973399,-0.76679 -2.79702,-1.43116 z"
       id="path2739" /><path
       style="display:inline;opacity:0.565141;fill:#000000;stroke-width:0.1;stroke-linecap:round"
       d="m 21.674909,120.55549 c 0.287122,-0.84643 0.131724,-1.75064 0.21825,-2.62326 -0.223404,-0.46517 -0.79708,-0.59007 -1.208822,-0.83323 -0.509619,0.0252 -1.012707,-0.18021 -1.49897,-0.1326 -0.450752,0.29097 -0.607286,0.87052 -0.77617,1.35258 -0.147087,0.80673 -0.477804,1.67256 -0.105362,2.46843 0.552357,0.42704 1.245915,0.87255 1.971106,0.65762 0.454956,-0.34223 1.104051,-0.36628 1.399968,-0.88954 z"
       id="path2749" /><path
       style="opacity:0.565141;fill:#000000;stroke-width:0.1;stroke-linecap:round"
       d="m 72.189987,133.18426 c 0.846622,-0.8213 -0.05115,-1.9106 -0.428282,-2.72343 -0.26753,-0.90973 -1.565479,-2.10088 -2.30876,-0.96029 -0.628839,1.0715 0.09677,2.28914 -0.104068,3.43576 -0.198366,1.25698 0.178974,2.84452 -0.936643,3.75897 -1.161853,0.47766 -2.509039,0.15287 -3.742382,0.24514 -1.073928,-0.37096 -2.191292,-0.75396 -3.299552,-0.22711 0.132828,0.65092 1.727441,0.9187 2.54946,0.77028 1.5155,0.0405 3.069942,0.606 4.545061,-0.0259 1.505085,-0.30858 1.266892,-1.96222 1.604761,-3.07392 0.428964,-1.20724 0.355029,-2.4992 0.0208,-3.71258 0.283831,-1.628 2.027941,-0.15402 1.513765,0.95125 -0.05579,0.60424 0.601935,0.97028 0.585843,1.56185 z"
       id="path2757" /><path
       style="opacity:0.565141;fill:#000000;stroke-width:0.1;stroke-linecap:round"
       d="m 76.489144,134.70687 c 0.354472,-1.19285 0.840497,-2.35537 1.635219,-3.31983 0.261612,-0.94189 0.270363,-2.06044 -0.118413,-2.96312 -1.307097,-1.26692 -2.048892,1.09636 -2.707883,1.92465 -0.928886,0.58425 -1.998663,1.36905 -1.864111,2.61647 0.471804,1.41458 -1.033976,1.596 -1.841854,2.30297 -1.245203,0.65799 -1.591644,1.93268 -1.450688,3.25829 -0.521425,0.80967 -0.665972,1.73983 -0.890881,2.60223 -0.536245,-0.6493 -1.332029,-1.67697 -2.112203,-2.34352 -1.187924,-0.19426 -1.772133,2.36562 -0.889443,2.12925 0.668461,0.0339 0.677366,-0.74387 1.235287,-1.2819 1.276822,0.34024 0.965816,1.84782 0.82811,2.83746 1.169985,0.68077 2.341267,-0.59142 2.50021,-1.70324 -0.11298,-1.38977 1.091406,-2.07612 1.670152,-3.16022 0.585558,-1.5325 1.977829,-2.56105 2.495586,-4.12776 0.480695,-1.10966 0.219357,-3.04515 1.753549,-3.32525 1.454693,0.69111 -0.452431,1.82875 -0.476416,2.78744 -0.02206,0.48035 -0.518548,1.69577 0.233779,1.76608 z"
       id="path2759" /><path
       style="opacity:0.565141;fill:#000000;stroke-width:0.1;stroke-linecap:round"
       d="m 77.342267,137.03015 c 1.073455,0.23899 4.806117,0.5752 6.284364,-0.95293 2.210925,0.0958 4.202568,1.3757 6.747225,2.01325 2.088668,1.55834 4.704218,2.26046 6.491543,4.16703 1.566855,1.45398 3.573161,2.74347 3.831441,5.08976 -0.979618,-1.84563 -3.651765,-4.60301 -5.404714,-5.55881 -3.561211,-2.94082 -9.716287,-5.61406 -9.655904,-2.95152 -0.952209,1.02578 -1.766294,-0.36167 -0.659766,-1.11749 -0.235901,-1.31011 -1.582811,0.35178 -0.786008,1.18876 -0.683813,0.57182 -1.782762,-1.60378 -2.914896,-0.43546 -1.511845,-0.0485 -3.177518,1.42026 -4.301652,0.58563 -0.146047,-0.75967 0.09881,-1.35476 0.368367,-2.02822 z"
       id="path2761" /><path
       style="opacity:0.565141;fill:#000000;stroke-width:0.1;stroke-linecap:round"
       d="m 79.708077,140.36628 c 0.02625,-0.63002 2.009448,-1.65467 3.100059,-1.33062 0.608429,0.23615 1.058704,1.10263 1.668541,1.34859 1.796003,0.83966 4.23028,1.52798 5.306929,2.9875 -0.862705,1.36021 -2.971746,0.95296 -3.901143,1.94625 -0.568447,0.63901 0.194022,1.31813 0.929365,1.34306 0.967079,0.1242 1.454683,-0.19728 2.22645,0.59587 0.167145,0.38487 0.738832,0.89616 1.376097,0.96924 0.871281,0.0999 2.193143,0.80196 2.643052,1.59716 0.276674,0.43289 0.968199,1.05898 0.197287,1.08078 -0.749059,-0.20181 -0.958917,-0.79248 -1.518108,-1.27996 -0.468049,-0.62546 -1.771865,-0.6931 -2.456461,-0.46646 -0.871309,0.4242 -3.13067,0.34979 -1.200145,-0.59165 0.191424,-0.0925 0.126632,-0.64525 -0.06412,-0.55691 -0.43483,0.20139 -1.242354,-0.0524 -1.378167,-0.38889 -0.657376,-0.68138 -1.802141,-1.64695 -1.632696,-2.71283 0.02777,-1.45526 3.968554,-1.06416 2.363987,-2.13834 -0.576379,-0.50402 -1.169858,-1.27905 -1.951455,-1.43093 -0.973848,0.43256 -1.292448,-0.11031 -2.084256,-0.24719 -0.600586,-0.62635 -0.716574,-1.56585 -1.860436,-1.19209 -0.592939,0.19374 -1.495909,0.97983 -1.780609,0.84746 z"
       id="path2763" /><path
       style="opacity:1;fill:#000000;stroke-width:0.1;stroke-linecap:round"
       d="m 105.69141,154.96724 c -1.36358,-1.1804 -3.5501,-1.74631 -4.68743,-2.03163 -0.47672,-0.22917 -0.54979,0.003 -0.87845,-0.18811 0.69157,-1.0002 7.11608,2.09475 5.56588,2.21974 z"
       id="path2765" /><path
       style="display:inline;opacity:1;fill:#000000;stroke-width:0.1;stroke-linecap:round"
       d="m 110.98757,155.17064 c 1.36358,-1.1804 3.5501,-1.74631 4.68743,-2.03163 0.47672,-0.22917 0.54979,0.003 0.87845,-0.18811 -0.69157,-1.0002 -7.11609,2.09475 -5.56588,2.21974 z"
       id="path2765-7" /><path
       style="opacity:0.565141;fill:#000000;stroke-width:0.1;stroke-linecap:round"
       d="m 145.18606,133.45295 c -0.26089,-1.22029 -0.55603,-3.04823 0.67786,-3.80386 1.41676,-0.31494 2.04909,1.50764 2.04152,2.62263 -0.003,1.28421 -1.71523,2.24592 -0.82126,3.55478 0.64195,1.15002 2.09871,1.1759 3.22701,1.50049 1.06107,0.21681 2.17714,0.22675 3.21821,-0.0867 1.62998,0.41834 -0.24577,1.30838 -1.05504,1.23801 -1.41515,0.32032 -2.72478,-0.50583 -4.12003,-0.61114 -1.49691,-0.28817 -2.09703,-1.93985 -1.84233,-3.29936 -0.25569,-1.16887 0.71977,-2.26705 0.26999,-3.41305 -0.57649,-1.63371 -1.62412,0.16477 -1.53256,1.0983 -0.0926,0.3902 -0.16413,0.80326 -0.0634,1.19988 z"
       id="path2769" /><path
       style="opacity:0.74;fill:#000000;stroke-width:0.1;stroke-linecap:round"
       d="m 59.025929,123.37179 c -0.656201,0.71584 -0.89039,1.82305 -1.757786,2.3204 -1.181587,-0.92118 1.223748,-2.09029 0.03609,-2.81152 -1.234196,0.13415 -2.39173,-0.38683 -3.663382,-0.44022 -1.390746,0.61017 -3.314543,-1.21679 -1.933397,-2.38022 1.129653,-1.32776 2.82439,0.14077 3.709587,-0.37494 2.285717,0.92652 4.258592,2.45303 6.822745,2.44077 1.280569,0.15766 2.530683,0.0495 3.775249,-0.13094 1.178617,0.0421 2.495498,1.25355 1.26624,2.28033 -0.502815,0.78442 -0.01667,3.41747 -1.424774,1.78871 -1.083023,-1.07579 0.881285,-2.55783 -0.169237,-3.40458 -1.041234,-0.15067 -2.073448,0.24327 -3.157822,0.10183 -1.236541,0.0136 -2.407338,-0.51288 -3.59952,-0.80193 -0.996992,-0.15077 -2.008146,-0.40368 -3.000936,-0.68798 -1.244277,0.0675 -2.702191,-0.73006 -3.764692,-0.36496 0.654093,1.51988 3.048617,0.56552 4.387524,1.27958 0.611972,0.55961 2.652131,0.0506 2.474111,1.18567 z"
       id="path1625" /><path
       style="opacity:0.74;fill:#000000;stroke-width:0.1;stroke-linecap:round"
       d="m 59.785921,123.56179 c -0.169225,0.44164 -0.424681,0.85602 -0.411068,1.34057 -0.02578,0.42753 0.658344,0.6916 0.736033,0.16868 0.244956,-0.22161 0.07568,-0.96343 0.539284,-0.77025 0.295973,0.26694 0.489123,0.70103 0.926671,0.78959 0.408481,-0.0519 0.629618,0.40505 1.020997,0.39572 0.487301,-0.14946 0.473354,-0.85163 0.06965,-1.09551 -0.356258,-0.25829 -0.723387,-0.52339 -1.151868,-0.63502 -0.370029,-0.19104 -0.729514,-0.41787 -1.169682,-0.36069 -0.201205,0.002 -0.38644,0.071 -0.560013,0.16691 z"
       id="path1627" /><path
       style="opacity:0.74;fill:#000000;stroke-width:0.1;stroke-linecap:round"
       d="m 62.952547,125.7151 c -0.391918,0.0798 -0.776695,0.15558 -1.251725,0.31201 -0.559055,0.17876 -1.073444,0.47703 -1.551427,0.80702 -0.328876,0.37245 -0.523479,0.83102 -0.677612,1.29985 -0.155039,0.34426 -0.01829,0.55535 0.233409,0.5427 0.865537,0.12347 1.757202,0.18204 2.615846,-0.0125 0.504779,-0.0502 0.393503,0.41922 0.0045,0.51974 -0.431993,0.44399 -1.006675,0.79752 -1.203537,1.40466 -0.166184,0.49201 -0.352145,0.98958 -0.562665,1.47727 -0.03499,0.31332 -0.380246,0.77199 0.195257,0.62251 0.394358,-0.18303 0.621029,-0.60052 0.909016,-0.90638 0.361266,-0.26667 0.382162,-0.79294 0.931738,-0.60523 0.599668,0.0966 0.882506,-0.54674 0.937704,-1.03766 0.143478,-0.32802 0.36638,-0.90396 0.730283,-0.42716 0.411789,0.19298 0.922794,0.15359 1.385123,0.16291 0.537735,-0.0564 0.88237,-0.59512 0.654564,-1.10177 -0.216057,-0.34438 -0.570756,-0.58645 -0.923333,-0.77708 -0.390426,-0.35573 -0.914854,-0.30516 -1.403863,-0.21124 -0.518911,0.12066 -1.195455,-0.0246 -1.246376,-0.63557 -0.150307,-0.41477 -0.244637,-0.94426 0.07748,-1.30256 l 0.06895,-0.0668 0.07666,-0.0648 z"
       id="path1629" /><path
       style="opacity:0.74;fill:#000000;stroke-width:0.1;stroke-linecap:round"
       d="m 69.095804,125.3351 c 0.756401,-0.78241 1.937352,-1.36132 3.03007,-1.17707 1.233892,0.73522 0.16725,2.26326 -0.842168,2.60726 -1.428489,0.56464 -3.03532,0.86362 -4.135005,2.03724 -1.019109,0.72663 -1.218482,1.94967 -1.223204,3.10994 -0.218934,1.31099 -0.469144,2.83997 0.432559,3.95598 1.86869,0.81489 1.117323,-2.07998 1.118863,-3.10332 0.100433,-1.20508 -0.102186,-2.61773 0.800586,-3.58282 1.212682,-1.91822 4.227744,-1.36744 5.259437,-3.49642 0.982313,-1.47747 -0.717509,-3.39266 -2.292732,-2.55184 -0.68203,0.54444 -3.255104,1.04049 -2.148405,2.20077 z"
       id="path1631" /><path
       style="opacity:0.74;fill:#000000;stroke-width:0.1;stroke-linecap:round"
       d="m 63.77587,134.45499 c -0.197294,-0.0119 -0.360171,-0.1746 -0.411127,-0.3595 -0.114218,-0.18118 -0.139193,-0.42241 -0.04881,-0.61789 0.07527,-0.13628 0.230951,-0.21597 0.384622,-0.21293 0.123657,-0.0428 0.32731,-0.045 0.310731,0.13964 -0.006,0.13665 0.05737,0.25385 0.09693,0.37901 0.06665,0.25832 0.04485,0.52715 0.04494,0.79093 -0.04086,0.10746 -0.172172,0.0391 -0.227096,-0.019 -0.04833,-0.0355 -0.09841,-0.0722 -0.15019,-0.1003 z"
       id="path1633" /><path
       style="opacity:0.74;fill:#000000;stroke-width:0.1;stroke-linecap:round"
       d="m 61.305902,137.87494 c 0.546019,-0.0905 1.223622,0.26112 1.125296,0.89187 0.110897,0.44829 0.07992,0.9252 -0.237006,1.28601 -0.213377,0.40464 -0.841555,0.34995 -1.121432,0.0655 0.0053,-0.48335 0.818186,-0.56193 0.815981,-1.11079 0.107585,-0.44057 -0.117911,-0.87999 -0.51787,-1.08662 -0.02155,-0.0155 -0.04331,-0.0307 -0.06497,-0.046 z"
       id="path1635" /><path
       style="opacity:0.74;fill:#000000;stroke-width:0.1;stroke-linecap:round"
       d="m 64.852523,138.63494 c -0.493684,0.3681 -0.912674,0.85165 -1.180982,1.4022 -0.01864,0.5119 0.711864,0.37124 0.60693,0.95189 0.183548,0.28718 0.692418,0.79036 0.101166,0.99565 -0.452311,-0.0503 -0.640098,-0.61646 -0.859095,-0.96613 -0.31409,-0.67739 -0.411282,-1.52503 0.05048,-2.16358 0.171877,-0.57438 1.033601,-0.8323 1.281828,-0.17812 0.04085,0.12856 0.04266,0.27311 -3.24e-4,0.40145"
       id="path1637" /><path
       style="opacity:0.74;fill:#000000;stroke-width:0.1;stroke-linecap:round"
       d="m 65.295851,142.24489 c -0.244017,0.18465 -0.71623,0.4442 -0.371876,0.77997 0.264799,0.33755 0.908116,0.16807 0.933655,-0.27467 0.08034,-0.3026 -0.23814,-0.79911 -0.561779,-0.5053 z"
       id="path1639" /><path
       style="opacity:0.74;fill:#000000;stroke-width:0.1;stroke-linecap:round"
       d="m 68.145815,143.25821 c 0.81376,-0.0852 1.700207,0.18782 2.450692,-0.24088 0.353329,-0.16959 0.405214,-0.54575 0.527742,-0.86974 0.366247,-0.73651 1.281317,-1.03606 1.554001,-1.83574 0.658619,-0.90326 1.040403,-1.97932 1.741593,-2.85436 0.34109,-0.61211 0.690718,-1.37146 1.433502,-1.55908 0.552856,-0.049 0.802017,0.64548 0.824622,1.10684 0.02638,0.51638 0.03408,1.03497 0.03739,1.55129 -0.05547,0.65577 -0.30704,1.27689 -0.36342,1.93274 -0.09323,0.40569 -0.526335,0.84494 -0.967716,0.67918 -0.371414,-0.23608 -0.312289,-0.7686 -0.209031,-1.13619 0.187489,-0.56851 0.533619,-1.08072 0.618977,-1.68291 0.112308,-0.46525 0.374026,-0.97373 0.168935,-1.44776 -0.226508,-0.42118 -0.528346,-0.11245 -0.615848,0.21961 -0.227974,0.45331 -0.311694,0.96155 -0.497228,1.42822 -0.698155,1.30214 -1.159912,2.6241 -1.786861,3.81757 -0.253243,0.32524 -0.220572,0.90794 -0.757818,0.95602 -0.408745,0.075 -0.833478,0.10042 -1.242215,0.13542 -0.968573,-0.1089 -2.027275,0.37011 -2.917313,-0.20023 z"
       id="path1641" /><path
       style="opacity:0.74;fill:#000000;stroke-width:0.1;stroke-linecap:round"
       d="m 89.805546,133.56833 c 3.429975,1.34366 6.167293,2.62115 8.59813,5.45405 1.38062,1.60485 2.368204,2.88442 3.338774,7.07003 0.36706,-3.2577 -1.960728,-6.77456 -3.456526,-8.57592 -1.829669,-1.13663 -5.102236,-4.57172 -8.282694,-4.23882 -0.462839,0.0321 -0.465137,0.13935 -0.197684,0.29066 z"
       id="path1643" /><path
       style="display:inline;opacity:0.74;fill:#000000;stroke-width:0.1;stroke-linecap:round"
       d="m 126.67286,133.66952 c -3.42998,1.34366 -6.1673,2.62115 -8.59813,5.45405 -1.38062,1.60485 -2.36821,2.88442 -3.33878,7.07003 -0.36706,-3.2577 1.96073,-6.77456 3.45653,-8.57592 1.82967,-1.13663 5.10224,-4.57172 8.28269,-4.23882 0.46284,0.0321 0.46514,0.13935 0.19769,0.29066 z"
       id="path1643-4" /><path
       style="opacity:0.74;fill:#000000;stroke-width:0.1;stroke-linecap:round"
       d="m 115.58189,146.48817 c 1.63733,-1.7056 2.5378,-3.59048 4.62738,-5.26292 2.62082,-2.09956 2.30044,-1.43829 8.77441,-4.51656 2.75912,-0.75304 3.39393,-0.72323 6.47698,0.17832 2.73018,1.04069 5.46102,-0.66977 7.77463,-2.18446 3.13277,-0.44452 3.25899,3.55204 3.56433,5.70328 0.61098,1.14572 0.1261,2.34961 -0.59799,0.63781 -0.95344,-1.78517 -0.90357,-6.77601 -3.99108,-5.14017 -3.36447,1.62486 2.17384,5.54561 -0.52098,5.23257 -2.0653,-0.2795 -0.43462,-4.96788 -2.6701,-2.78278 -1.32911,0.59099 -4.39175,-0.87025 -4.49918,0.18439 1.29072,0.51109 4.36502,2.52543 1.96831,3.51018 -1.30999,-0.19356 0.51987,-2.8071 -1.71451,-1.68889 -2.1299,0.54351 -4.48556,0.55531 -6.04353,2.5485 -0.931,1.02888 -1.88646,1.85591 -1.79235,0.13825 1.91579,-1.54154 4.31864,-2.1139 6.26418,-3.68713 1.43791,-1.06569 -2.07618,-4.20152 -0.36618,-1.77233 0.83557,2.71763 -2.49374,1.54308 -2.38539,-0.36 -2.0197,0.0257 -3.89896,0.93934 -5.65345,1.70137 -2.16259,1.14326 -4.66896,2.27317 -6.05537,4.44389 -0.93073,0.69832 -2.19989,2.74223 -2.75919,3.37865 -0.12014,0.13671 -0.26786,-0.16451 -0.40092,-0.2619 z"
       id="path1657" /><path
       style="opacity:0.74;fill:#000000;stroke-width:0.1;stroke-linecap:round"
       d="m 127.42508,144.52486 c 0.4033,-0.32656 0.88912,-0.63691 1.43031,-0.60312 0.43411,0.0516 0.79788,0.37316 1.0888,0.56157 0.12027,0.15119 0.36821,0.2135 0.33792,0.44485 0.0431,0.30581 -0.34546,0.24401 -0.52248,0.1637 -0.39483,-0.3452 -0.77658,-0.46642 -1.25105,-0.5735 -0.35879,-0.0427 -0.72335,0.007 -1.0835,0.006 z"
       id="path1710" /><path
       style="opacity:0.74;fill:#000000;stroke-width:0.1;stroke-linecap:round"
       d="m 123.62512,150.16146 c 0.44669,-0.41846 0.68011,-1.09805 1.30835,-1.29517 0.50233,-0.30427 1.09574,-0.16077 1.64117,-0.11947 0.62569,0.10919 0.83411,-0.47941 1.18047,-0.83166 0.45367,-0.2116 0.65644,-0.74858 1.16551,-0.85661 0.59818,-0.22985 0.67313,0.49853 0.34993,0.82836 0.0188,0.34256 0.28035,1.10352 -0.35339,0.97842 -0.36938,-0.23327 0.22799,-0.9815 -0.16268,-1.10385 -0.4134,0.43156 -0.39052,1.14074 -0.86181,1.52108 -0.43415,0.17501 -0.77464,-0.3385 -1.21513,-0.24129 -0.72119,0.0907 -1.54197,-0.14998 -2.16155,0.33954 -0.21878,0.3431 -0.52642,0.60342 -0.89087,0.78065 z"
       id="path1712" /><path
       style="opacity:0.74;fill:#000000;stroke-width:0.1;stroke-linecap:round"
       d="m 150.85812,128.75506 c 0.61015,-0.19666 1.19407,-0.48357 1.84159,-0.53725 0.63421,-0.0134 1.25967,-0.18592 1.89137,-0.0796 0.66091,0.13587 1.57324,-0.18977 1.88598,0.63563 -0.69281,0.23454 -1.47859,-0.19726 -2.13037,0.24535 -0.57208,0.12776 -1.17317,-0.05 -1.731,0.17657 -0.44584,-0.031 -0.74469,0.78996 -0.13791,0.34195 0.39917,-0.40137 1.01505,-0.47478 1.55127,-0.38806 0.56482,0.19487 1.13047,0.48736 1.50614,0.97023 0.31639,0.45843 0.75437,0.92823 0.75832,1.51646 -0.20728,0.5368 -1.00748,0.87686 -1.44988,0.40791 -0.46537,-0.50671 -1.2116,-0.49784 -1.70392,-0.97318 -0.59826,-0.51812 -1.47868,-0.36679 -2.09249,-0.86247 -0.63085,-0.13625 -0.66905,-0.82173 -0.24784,-1.2303 0.0295,-0.0712 0.0508,-0.14632 0.0587,-0.2232 z"
       id="path1714" /><path
       style="opacity:1;fill:#000000;stroke-width:0.1;stroke-linecap:round"
       d="m 151.83501,24.583428 c 2.52806,1.863719 5.67347,2.77383 8.57851,3.769353 1.82034,1.48602 2.52397,3.945108 4.75223,5.102314 2.06993,1.280332 3.23323,3.521978 5.28701,4.788847 1.93297,2.117053 -1.51927,-0.345529 -2.05043,-1.309378 -2.03963,-1.891448 -4.0586,-3.733108 -6.33749,-5.331021 -1.24508,-1.730321 -2.7374,-3.335801 -4.95899,-3.722012 -1.88515,-0.720683 -5.38709,-2.691326 -5.4721,-2.96297 0.0452,-0.04875 0.0896,-0.106163 0.13131,-0.170579 0.0257,-0.05696 0.0472,-0.10054 0.07,-0.164554 z"
       id="path1722" /><path
       style="opacity:1;fill:#000000;stroke-width:0.1;stroke-linecap:round"
       d="m 162.5113,37.87286 c 5.42621,0.05645 7.53176,6.615115 11.51383,9.413696 2.07293,2.837676 2.82491,-3.229508 5.61308,-0.342471 2.14257,1.076344 6.20789,9.921528 1.94235,5.41946 -1.4087,-3.827159 -4.5847,-3.233981 -7.53738,-2.845435 -3.94147,-2.937918 -6.62732,-7.28897 -10.04972,-10.790575 l -0.69414,-0.484085 z"
       id="path1724" /><ellipse
       style="opacity:0.74;fill:#000000;stroke-width:0.1;stroke-linecap:round"
       id="path692"
       cx="177.5417"
       cy="116.05481"
       rx="0.71652597"
       ry="0.62696022" /><path
       style="opacity:0.74;fill:#000000;stroke-width:0.1;stroke-linecap:round"
       d="m 179.44497,112.18109 c 0.69507,0.0172 1.71279,0.6464 0.96283,-0.29106 0.0422,-0.3255 0.0986,-0.29109 0.40307,-0.29109 0.80115,0.30779 0.79853,0.82972 0.2687,1.3211 -0.65315,-0.051 -1.05427,-0.25199 -1.50022,0.15681 -0.14803,0.015 -0.26776,0.19968 -0.47022,-0.11196 -0.0541,-0.32662 -0.0344,-0.45143 0.33584,-0.78376 z"
       id="path748" /><path
       style="opacity:0.74;fill:#000000;stroke-width:0.1;stroke-linecap:round"
       d="m 181.63774,113.71358 c 0.49367,0.49533 0.75986,0.76746 1.42498,0.72829 0.30253,-0.33146 0.27943,-0.68032 0.31663,-1.10832 -0.68091,-0.10185 -1.13844,0.11192 -1.74161,0.38003 z"
       id="path750" /><path
       id="path650"
       style="opacity:1;fill:#000000;stroke-width:1;stroke-linecap:round"
       d="m 108.55823,143.769 v 0.009 c -3.00357,0.25597 -5.24217,1.08282 -7.48378,2.75952 l -0.23358,0.79478 0.23358,1.07591 0.60823,1.26297 0.98237,0.65474 2.85306,0.98237 c 0.52351,0.9747 1.3254,1.71744 2.10478,2.47892 0.29829,0.0399 0.56512,0.13601 0.93534,0.0465 v -0.009 c 0.37022,0.0895 0.63706,-0.007 0.93535,-0.0465 0.77937,-0.76148 1.58127,-1.50422 2.10478,-2.47892 l 2.85305,-0.98237 0.98237,-0.65474 0.60772,-1.26297 0.23409,-1.0759 -0.23409,-0.79479 c -2.24161,-1.67669 -4.4797,-2.50355 -7.48327,-2.75952 z" /><path
       id="path832"
       style="opacity:0.5;fill:#000000;stroke-width:1;stroke-linecap:round"
       d="m 81.458594,143.40417 a 3.4065104,3.3072915 0 0 0 -3.374988,2.87011 l -2.214335,0.56947 -6.680729,2.3151 -3.241146,1.78594 0.992187,0.39688 1.455209,-0.92605 3.241145,-1.19062 3.571875,-1.12448 2.882512,-0.89659 a 3.4065104,3.3072915 0 0 0 3.36827,2.81482 3.4065104,3.3072915 0 0 0 3.40651,-3.30729 3.4065104,3.3072915 0 0 0 -3.40651,-3.30729 z" /><path
       id="path832-2"
       style="display:inline;opacity:0.5;fill:#000000;stroke-width:1;stroke-linecap:round"
       d="m 134.14375,143.40417 a 3.4065104,3.3072915 0 0 0 -3.40651,3.30729 3.4065104,3.3072915 0 0 0 3.40651,3.30729 3.4065104,3.3072915 0 0 0 3.39773,-3.06906 c 5.07433,0.70634 8.58749,2.08183 11.15435,3.86281 0.19113,-0.0625 0.42302,-0.38607 1.45521,-0.26458 -2.10565,-1.78788 -5.24922,-2.85693 -12.66641,-4.4819 a 3.4065104,3.3072915 0 0 0 -3.34088,-2.66185 z" /><path
       style="opacity:0.5;fill:#000000;stroke-width:1;stroke-linecap:round"
       d="m 61.829817,149.7707 c 0.115755,-0.0661 4.878255,-2.29857 4.878255,-2.29857 -1.415243,1.01424 -2.710831,2.02847 -2.910417,3.04271 z"
       id="path858" /><path
       style="opacity:0.5;fill:#000000;stroke-width:1;stroke-linecap:round"
       d="m 124.28802,155.11198 0.52917,-0.29766 c 8.39002,-1.57831 8.49679,0.16583 12.17651,-2.57768 l -0.42961,-1.69073 1.11043,1.51167 c 0.41736,0.1261 0.61874,-0.0754 0.75902,-0.28797 l -0.91635,-1.02326 c 0.63019,0.33173 1.23536,0.72599 1.98437,0.76068 0.34392,0.0621 0.71692,-0.0795 1.09141,-0.23151 0.0635,-0.18709 0.11489,-0.37266 -0.0662,-0.52917 -0.57326,-0.50455 -1.14653,-0.53912 -1.71979,-0.79375 l -0.0331,-0.26458 c 0.86706,0.45273 1.54343,0.39696 2.3151,0.59531 l 0.7276,0.8599 0.46303,-0.0661 0.0625,-0.99385 c 0.78759,0.0326 1.12804,0.57625 1.49195,1.09307 l 0.39688,-0.0992 -0.0661,-1.02526 c 0.57555,0.0867 1.19876,0.14157 1.32292,0.52917 0.27471,0.28544 0.54947,0.57186 0.79375,0.0661 l 0.20211,-0.41625 c 0.62347,-0.003 0.91666,0.36479 1.21235,0.54104 l -3.59727,0.63589 -5.6224,2.54662 c -4.72943,0.67158 -9.45887,0.91678 -14.1883,1.15752 z"
       id="path860" /></g></svg>
