<?xml version="1.0" encoding="UTF-8" standalone="no"?>
<!-- Created with Inkscape (http://www.inkscape.org/) -->

<svg
   width="159.29381mm"
   height="204.70532mm"
   viewBox="0 0 159.29381 204.70532"
   version="1.1"
   id="svg5"
   xml:space="preserve"
   xmlns="http://www.w3.org/2000/svg"
   xmlns:svg="http://www.w3.org/2000/svg"><defs
     id="defs2" /><g
     id="layer3"
     style="display:inline;opacity:0.7"
     transform="translate(-28.007981,-53.347023)"><path
       style="display:inline;opacity:0.565141;fill:#57e389;stroke-width:0.1;stroke-linecap:round"
       d="m 60.462142,150.49008 c -5.241221,0 -2.92977,7.31356 -1.842445,10.84735 0.514802,1.6731 0.07701,3.63379 -0.540343,5.24166 -0.199177,0.51876 -0.546621,0.49618 -0.825639,0.93277 -0.461298,0.72182 -1.324864,0.96298 -1.257906,1.34964 0.138461,0.79956 -0.477039,2.9633 -1.396356,4.19582 -0.945119,1.26711 -2.198038,1.60057 -2.293697,2.21481 -0.860029,5.52237 -1.983833,5.37031 -3.440106,11.05224 -0.92022,3.59042 -2.040697,10.82864 -4.121149,14.27151 -1.891207,3.1297 -3.240432,4.91787 -6.428443,6.95934 -1.978309,1.26682 -6.457609,1.8642 -8.291273,2.72365 -1.264906,0.59287 -3.367498,1.55841 -0.803013,3.0313 1.321116,0.75877 16.407758,-8.23875 12.282051,-3.42535 -3.505076,4.08932 -4.589646,7.40307 -3.193685,11.29102 0.02456,0.0684 1.237723,-0.46786 1.656515,-0.5274 3.335142,-0.47422 2.809853,1.37826 2.763249,1.60999 -0.226411,1.12578 -1.129235,2.28206 -1.727145,2.89606 -0.757425,0.7778 0.754655,0.85242 1.69941,1.40069 0.168159,0.0976 1.887042,-0.75534 2.015545,-0.61378 0.905687,0.99767 1.673255,2.28468 2.288586,3.38228 2.922278,5.21266 6.167167,10.29605 12.778797,10.27261 3.583457,-0.0127 11.400755,1.70236 11.995168,4.13714 0.459426,1.88186 -2.403555,4.62848 -2.117672,6.35605 0.511641,3.09179 1.187558,2.48237 3.796562,1.8634 3.51899,-0.83485 11.451515,-2.17248 12.042107,-6.86342 5.324108,0.5878 16.4354,7.80459 19.11926,9.91051 4.55158,3.57145 1.96555,1.66654 3.8343,3.05237 0.54538,-0.19431 1.63963,-1.27267 2.10087,-1.54869 2.73329,-1.63566 4.77338,-5.11837 8.51396,-7.44158 1.34794,-0.83719 2.73683,-1.511 4.82879,-2.19138 1.57314,-0.51164 6.53213,-2.62286 7.7708,-2.31872 0.78451,0.19263 0.86706,2.33963 2.88963,3.49282 2.33919,1.33372 9.81874,5.34298 12.89323,3.88944 1.14518,-1.46769 -0.1888,-2.60124 -1.88826,-8.2761 -0.98025,-3.27326 15.92613,-2.61668 19.85212,-7.75967 3.02457,-3.96214 3.97343,-7.34967 6.54963,-9.73924 0.25569,-0.23717 3.30202,-0.55328 3.22837,-1.08993 -0.17677,-1.28811 3.11873,-4.71886 3.59319,-7.41491 0.0759,-0.43136 -1.1695,-2.56917 -1.17769,-2.8303 -0.003,-0.0895 -1.49287,-0.17303 -1.82373,0.65775 -0.12555,0.31524 0.39584,0.13457 0.57045,0.63651 0.17386,0.49978 0.34654,1.68269 0.17138,2.29209 -0.21135,0.73527 -1.07079,-0.2835 -2.08722,-1.14003 -0.65268,-0.54999 -0.70106,-1.71614 -0.68979,-1.77164 1.0934,-2.8065 1.20601,-2.6937 1.53041,-3.81405 0.13092,-0.45216 0.18678,-1.44605 0.11591,-2.3092 -0.0383,-0.46683 -0.27918,-0.96158 -0.18901,-1.16121 0.15361,-0.34011 0.40099,-0.004 0.83936,0.28925 0.4341,0.29026 1.05776,0.53369 1.50444,0.95352 4.50993,1.83833 13.16142,5.22843 8.32334,0.44203 -2.85177,-2.82132 -15.17557,-6.3473 -10.06177,-10.08795 0.34503,-0.25238 0.72712,-1.69246 0.66307,-2.26055 -0.079,-0.70097 0.71418,-2.34231 1.02768,-1.70225 0.46422,0.94778 1.81778,2.88152 2.83377,2.59522 0.7353,-0.20721 -0.14208,-2.76076 0.32633,-3.14252 1.5851,-1.2919 -0.46333,-3.88425 -3.14474,-2.46456 -0.68436,0.36234 -2.57581,-2.06023 -3.50538,-2.21178 -5.95699,-0.97122 -7.97951,-10.94378 -8.84856,-13.57973 -0.41191,-1.24938 7.22402,2.22792 6.6877,0.98885 -0.85961,-1.98599 -3.73028,-2.89198 -6.33942,-3.66077 -2.67617,-0.78853 -5.18547,-0.69409 -4.5646,-2.53704 1.00923,-2.99575 -3.24812,-16.6743 -8.45749,-21.34594 L 138.75302,69.106513 108.84481,53.347023 78.76433,69.106513 60.657144,150.49008 Z"
       id="path1867" /><path
       style="display:inline;opacity:1;fill:#000000;stroke-width:0.1;stroke-linecap:round"
       d="m 108.23531,233.76041 c -0.0808,1.37635 -0.43824,4.12857 0.42241,4.67592 0.70917,-1.48558 0.43795,-3.4094 0.0352,-4.94145 -0.21615,-0.51263 -0.46485,-0.0128 -0.4576,0.26553 z"
       id="path2400" /><path
       style="display:inline;opacity:1;fill:#000000;stroke-width:0.1;stroke-linecap:round"
       d="m 106.71533,222.74055 c -0.79403,1.02709 -0.31587,3.01649 -1.48657,3.57107 -0.0915,-0.84125 0.53588,-1.46145 -0.0608,-2.10517 -0.55537,0.72477 0.11835,1.53133 -0.8541,2.13987 -0.73952,0.71144 -0.65073,1.91126 -0.49871,2.85303 0.30668,0.96578 0.71918,1.8978 1.26031,2.75756 0.2072,0.94201 1.28113,2.00057 0.18129,2.84149 -0.66745,0.99616 -1.31042,2.07075 -1.04157,3.3716 0.53856,0.74047 1.47465,1.24642 1.81345,2.107 0.81638,1.04767 0.12599,2.40362 0.67734,3.46976 1.16723,0.61861 1.02024,-1.43323 0.50238,-2.01848 -0.30155,-0.99635 -0.617,-2.02738 -1.3274,-2.81829 -0.65052,-0.79648 -1.00839,-1.78075 -0.86858,-2.81862 0.30034,-0.83675 1.67351,-1.03595 1.34579,-2.25093 0.066,-0.92547 0.034,-1.87957 -0.36786,-2.73615 0.10703,-0.86731 -1.51083,-2.25787 -0.58608,-2.70649 1.58959,-0.13652 1.81276,1.37867 1.85783,2.59188 1.08644,0.81597 0.54157,-1.18846 0.49546,-1.78342 0.18572,-1.17039 0.47675,-2.35446 0.35082,-3.57077 -0.002,-1.15503 0.004,-2.31007 9.5e-4,-3.4651 -0.96267,0.29151 -0.56048,1.73115 -0.69957,2.64528 -0.39119,1.0309 0.29555,2.80935 -0.82849,3.28725 -0.71392,-0.41086 -2.71192,-0.0659 -1.90782,-1.39366 0.43874,-0.7663 2.04561,0.0872 1.62274,-1.31223 -0.0454,-0.91347 0.48064,-1.79764 0.41928,-2.65648 z"
       id="path2402" /><path
       style="display:inline;opacity:1;fill:#000000;stroke-width:0.1;stroke-linecap:round"
       d="m 108.93197,222.36056 c 0.16291,2.21188 0.11488,4.45169 -0.14875,6.64913 -0.0553,0.74666 -0.51408,2.38305 0.71804,2.27343 0.55579,-0.80208 0.0898,-1.90338 0.28922,-2.81791 0.16084,-1.59454 0.13423,-3.20709 0.0365,-4.79921 0.17987,-0.75545 -0.31947,-1.02363 -0.89506,-1.30544 z"
       id="path2404" /><path
       style="display:inline;opacity:1;fill:#000000;stroke-width:0.1;stroke-linecap:round"
       d="m 111.33861,227.87049 c -0.14573,0.90603 -0.34237,1.80172 -0.40185,2.72018 -0.0567,0.83406 -0.53091,1.57434 -0.47081,2.42788 0.29752,0.88345 0.51823,1.83151 0.99473,2.65697 0.38619,0.77715 -0.14973,1.74171 -0.50866,2.30145 -0.62552,0.47024 -0.70421,1.26343 -0.75755,1.97945 -0.24418,0.92539 -0.18547,1.8808 -0.40769,2.8051 -0.12547,0.44869 -0.55048,1.9306 0.11536,1.79136 0.36914,-0.70831 0.85875,-1.40768 1.03603,-2.21248 0.21634,-0.81116 -0.0643,-1.66787 0.2315,-2.46834 0.20327,-1.00168 1.07637,-1.77874 1.1232,-2.83563 0.1535,-0.85216 0.0562,-1.68841 -0.34812,-2.45418 -0.28828,-0.63848 0.0443,-1.35089 0.12412,-2.00309 0.13519,-0.81694 0.2493,-1.62083 0.30332,-2.44809 0.006,-0.77973 -0.0329,-2.28716 -0.87999,-2.36418 l -0.15347,0.1036 z"
       id="path2406" /><path
       style="display:inline;opacity:1;fill:#000000;stroke-width:0.1;stroke-linecap:round"
       d="m 114.64465,220.57778 c -0.39193,3.42588 0.90381,6.23635 -0.51044,7.80884 -0.48278,1.57087 2.31508,2.67602 0.18795,3.6639 -0.10443,2.18628 1.62742,4.40212 0.19167,6.62545 -0.88367,1.73345 -1.09321,3.32948 -2.12808,4.63559 -0.91085,1.69363 -1.78878,3.58786 -3.22523,4.86872 -2.04259,1.34017 -3.22869,-1.56317 -3.49005,-3.18674 -0.94693,-2.04529 -3.04349,-3.44231 -3.41644,-5.77543 -1.07568,-1.81548 -1.2873,-4.44518 -0.0844,-6.0754 -0.74246,-0.5203 -2.919606,-0.95187 -1.40091,-2.11775 2.18393,-1.01695 1.53552,-3.31035 0.23654,-4.65027 1.92273,-1.35663 1.56521,-3.50071 0.50454,-5.3546 -0.36688,-1.10022 -1.06237,-3.69095 0.10141,-3.98432 1.40679,2.00813 2.90476,4.32603 2.4378,6.90164 0.054,1.54141 -2.74113,2.48501 -0.96824,3.91012 0.75907,1.61439 -1.73124,2.90398 0.088,3.92675 1.33104,1.68792 -0.80448,3.25202 -0.28651,4.97191 0.85906,1.5199 2.0678,2.75119 2.62971,4.42413 0.6455,1.96771 1.15269,4.3952 3.19044,5.39043 1.69004,-0.0356 2.46543,-2.17383 2.87224,-3.59524 0.65148,-1.7029 1.67989,-3.27333 1.87838,-5.11222 1.15376,-1.73035 0.63132,-3.39021 -0.45063,-4.96976 0.56252,-1.96896 0.29253,-3.63448 0.45833,-5.64322 1.68888,-3.31771 -1.88566,-9.21605 -0.22859,-10.38952 0.24923,-0.26746 0.87466,-0.66444 1.00751,-0.65934 1.22879,0.77548 0.39173,3.06014 0.40501,4.38633 z"
       id="path2398" /><path
       style="opacity:1;fill:#000000;stroke-width:1;stroke-linecap:round"
       d="m 60.324999,188.58177 1.785938,-2.71198 1.190625,0.7276 0.529166,-2.57968 5.291667,1.19062 -1.719792,4.69636 2.447396,-0.0661 0.79375,1.71979 0.595313,1.65365 -3.439584,0.66146 -0.396875,-0.46303 1.521354,-1.98437 -2.38125,-0.79375 0.529167,-1.25677 0.529167,-2.51354 0.132291,-0.66146 -3.174999,-1.12448 -0.859896,2.11667 h -0.463021 l -1.190625,3.37343 -1.190625,1.5875 0.132292,-0.79375 1.124479,-2.64583 -0.06615,-0.99219 -0.79375,1.12448 -0.529167,1.05834 -0.529166,-0.59532 z"
       id="path2083" /><path
       style="opacity:1;fill:#000000;stroke-width:1;stroke-linecap:round"
       d="m 69.717707,188.31719 0.926042,-3.96875 0.529167,-0.26459 0.859896,1.45521 0.727604,1.85208 -0.463021,2.24896 1.984375,-2.64583 2.645833,-2.24896 1.5875,-1.45521 0.992188,-1.52135 -0.198438,-1.91823 v -1.85208 l 1.455208,-0.33073 1.5875,-0.52917 0.198438,1.05833 -2.645833,0.72761 0.198437,1.45521 0.132292,1.32291 c 0,0 -0.859896,2.18281 -1.124479,2.38125 -0.264584,0.19844 -1.719792,1.65365 -1.719792,1.65365 l 0.79375,1.19062 -0.264583,1.98438 -0.661459,1.45521 -1.124479,1.12448 -1.521354,0.79375 v -0.72761 l 1.719792,-2.3151 0.463021,-1.45521 0.06615,-1.32292 c 0,0 -0.595312,-0.26458 -0.79375,0.26459 -0.198437,0.52916 -1.322916,2.24895 -1.322916,2.24895 L 72.826562,190.5 c 0,0 -0.264584,1.05833 -0.198438,1.38906 0.06615,0.33073 0.198438,1.38906 0.198438,1.38906 l -0.727605,0.33073 -0.859895,-3.10885 0.264583,-0.92604 0.264583,-1.38907 -0.198437,-1.25677 -0.79375,1.05834 -0.330729,1.12448 z"
       id="path2085" /><path
       style="opacity:1;fill:#000000;stroke-width:1;stroke-linecap:round"
       d="m 78.978124,188.64791 0.463021,-3.0427 0.595312,-1.32292 1.058334,0.26458 1.389062,0.59532 0.463021,0.79375 c 0,0 -1.124479,1.52135 -1.389063,1.85208 -0.264583,0.33073 -1.124479,1.38906 -1.124479,1.38906 l 0.132292,-1.05833 0.926042,-1.5875 0.132291,-0.99219 -0.727604,-0.0661 -0.529167,1.5875 -0.46302,1.38907 -0.264584,0.7276 z"
       id="path2087" /><path
       style="opacity:1;fill:#000000;stroke-width:1;stroke-linecap:round"
       d="m 86.783332,198.63593 c -0.198437,-0.26458 -2.447396,-5.02708 -2.447396,-5.02708 l -1.719791,-2.11666 -1.785938,-0.52917 -2.116666,-0.26458 -1.322917,2.77812 -0.529167,2.18281 -1.190625,0.8599 -0.132291,-1.45521 1.058333,-1.98437 0.595313,-0.99219 -1.852084,0.39687 c 0,0 -1.058333,1.32292 -1.322916,1.52136 -0.264584,0.19843 -1.190625,0.33073 -1.256771,0.66146 -0.06615,0.33072 -0.529167,1.78593 -0.529167,1.78593 l -0.330729,1.32292 h -0.396875 l -0.06615,-3.30729 -2.38125,0.59531 c 0,0 -2.910417,0.19844 -3.108854,0.52917 -0.198437,0.33073 -1.719792,2.77812 -1.852083,3.10885 -0.132292,0.33073 -0.79375,2.4474 -0.727604,2.71198 0.06614,0.26458 0.330729,1.45521 0.79375,1.45521 0.46302,0 2.116666,-0.52917 2.116666,-0.52917 l 1.256771,-0.66146 0.264583,1.71979 2.116667,-0.52916 c 0,0 1.719792,0.26458 2.050521,0.33073 0.330729,0.0661 2.050521,0.33073 2.513541,0.66146 0.463021,0.33072 1.852084,1.25677 2.248959,1.4552 0.396875,0.19844 1.455208,0.72761 1.653646,1.12448 0.198437,0.39688 5.688541,6.74688 5.688541,6.74688 l 1.521354,-0.59531 c 0,0 -2.711979,-2.84428 -3.108854,-3.43959 -0.396875,-0.59531 -1.984375,-2.64583 -2.38125,-3.175 -0.396875,-0.52916 -2.182812,-2.44739 -2.182812,-2.44739 l -0.463021,-0.46302 -1.190625,-0.72761 -1.058333,-1.19062 -0.595313,-1.12448 -0.859896,-1.45521 -0.330729,-1.05833 -0.06615,-1.91823 0.727604,-1.05834 0.727605,-0.66145 1.124479,-0.59532 -0.859896,2.4474 0.06615,2.77812 c 0,0 0.463021,1.38907 0.463021,1.71979 0,0.33073 1.058333,1.65365 1.058333,1.65365 0,0 1.124479,0.92604 1.521354,1.05833 0.396875,0.1323 1.521354,0.46302 1.852083,0.46302 0.330729,0 1.058334,-0.26458 1.058334,-0.26458 l 0.396875,-0.7276 -0.264584,-1.45521 -0.51263,-0.19844 0.04961,0.46302 -0.396875,0.79375 -0.859895,0.13229 -2.050521,-1.91823 -0.992188,-1.05833 -0.396875,-1.71979 c 0,0 0.06615,-0.52917 0.33073,-0.46302 0.264583,0.0661 1.984375,1.85208 1.984375,1.85208 l 1.918229,1.52136 1.190625,0.39687 1.719791,0.79375 c 0,0 0.926042,0.39688 1.455209,0.72761 0.529166,0.33072 3.373437,1.52135 3.373437,1.52135 l 1.389063,0.92604 c 0,0 -1.256771,3.04271 -1.256771,3.37344 0,0.33073 -0.330729,2.57969 -0.264584,3.24114 0.06615,0.66146 3.241146,3.77032 3.241146,3.77032 0,0 0.661459,0.99218 0.926042,1.25677 0.264583,0.26458 1.389062,1.52135 1.389062,1.52135 l 2.182813,3.50573 2.579687,4.69636 0.926042,2.38125 0.595312,0.39687 0.132292,-1.5875 c 0,0 -0.727604,-0.99219 -0.727604,-1.32292 0,-0.33073 0.8599,-1.71979 0.99219,-1.98437 0.13229,-0.26458 0.46302,-1.19063 0.39688,-1.5875 -0.0661,-0.39688 -0.59532,-3.57188 -0.59532,-3.57188 l -1.389063,-3.24114 -0.926041,0.19844 -2.315104,0.66145 -1.058334,0.33073 -1.852083,-1.05833 -1.5875,-2.18281 -1.455208,-2.18282 -0.198438,-2.84427 0.396875,-1.32291 0.595313,-1.91823 -0.661459,-1.78594 c 0,0 -2.116666,-1.45521 -2.38125,-1.65365 -0.264583,-0.19843 -5.754687,-2.24895 -5.754687,-2.24895 l -3.439583,-2.64584 -0.529167,-0.79375 1.124479,-1.65364 0.79375,-1.98438 c 0,0 1.058333,-0.59531 1.322917,-0.33073 0.264583,0.26459 2.248958,2.4474 2.248958,2.4474 l 2.645833,4.03489 z"
       id="path2089" /><path
       style="display:inline;opacity:1;fill:#000000;stroke-width:1;stroke-linecap:round"
       d="m 134.54062,237.79427 -0.59531,0.7276 c 0,0 1.12448,3.04271 1.32292,3.37344 0.19843,0.33073 0.7276,3.10885 0.7276,3.10885 0,0 0.33073,1.25677 0.0661,1.25677 -0.26459,0 -0.52917,0 -0.52917,0 l -0.79375,-2.84427 -0.79375,-2.24895 -0.39687,-2.38125 -0.1323,-1.05834 z"
       id="path2167" /><path
       style="display:inline;opacity:1;fill:#000000;stroke-width:1;stroke-linecap:round"
       d="m 74.69515,231.75609 -0.327404,2.0112 0.187087,0.8419 1.169305,-0.56127 c 0,0 0.888672,0.14032 1.075759,0.18709 0.187089,0.0468 0.795128,0.65481 0.888672,0.88867 0.09355,0.23386 0.467722,0.37418 0.748355,1.02899 0.280633,0.65481 1.028988,1.59026 1.028988,1.77734 0,0.18709 0.280633,1.02899 0.280633,1.02899 l -0.888671,0.93544 c 0,0 -2.011204,-0.0468 -2.291837,0.0935 -0.280633,0.14032 -1.590254,0.51449 -1.590254,0.51449 l -0.748353,-1.30962 -0.467723,-2.05797 -0.140316,-2.05798 0.140316,-2.05797 0.327406,-1.26285 z"
       id="path2169" /><path
       style="display:inline;opacity:1;fill:#000000;stroke-width:1;stroke-linecap:round"
       d="m 74.601606,235.45109 c 0,0 0.841899,-0.60804 1.028989,-0.60804 0.187086,0 1.122531,0.56127 1.122531,0.56127 0,0 0.935443,1.07575 1.075759,1.30962 0.140317,0.23386 0.608039,1.44993 0.608039,1.44993 0,0 0.42095,0.8419 0.18709,1.02899 -0.233863,0.18709 -2.33861,0.23386 -2.33861,0.23386 0,0 -0.654809,0.74836 -0.888672,0.23386 -0.23386,-0.51449 -0.701582,-1.87088 -0.701582,-1.87088 z"
       id="path2171" /><path
       style="display:inline;opacity:1;fill:#000000;stroke-width:1;stroke-linecap:round"
       d="m 83.608332,237.86041 -2.182812,8.13594 h 0.79375 c 0,0 0.463021,-1.85208 0.595312,-2.3151 0.132292,-0.46302 1.322917,-4.7625 1.322917,-4.7625 z"
       id="path2173" /><path
       style="display:inline;opacity:1;fill:#000000;stroke-width:1;stroke-linecap:round"
       d="m 95.38229,241.89531 1.322917,-0.52917 c 0,0 1.190625,-0.0661 1.455208,0.0661 0.264584,0.13229 0.926042,0.33073 1.12448,0.59531 0.198437,0.26458 0.992185,0.92604 0.992185,0.92604 l -0.661456,0.26459 -1.389063,-0.92605 -1.5875,-0.39687 -1.058333,0.59531 c 0,0 -0.330729,0.46302 -0.330729,0.8599 0,0.39687 0.198437,1.78594 0.661458,1.52135 0.463021,-0.26458 1.256771,-0.19844 1.5875,-0.0661 0.330729,0.13229 0.661458,0.39687 1.190625,0.66145 0.529167,0.26459 0.926042,0.46303 1.256771,0.46303 0.330727,0 1.190627,0 1.190627,0 l 0.52916,0.33072 c 0,0 -0.79375,0.59532 -1.05833,0.52917 -0.26458,-0.0661 -1.190624,-0.46302 -1.587499,-0.52917 -0.396875,-0.0661 -1.785937,-0.19843 -2.182812,-0.39687 -0.396875,-0.19844 -1.455209,-0.79375 -1.455209,-0.79375 l -0.529166,-0.66146 z"
       id="path2175" /><ellipse
       style="display:inline;opacity:1;fill:#000000;stroke-width:1;stroke-linecap:round"
       id="path2177"
       cx="96.539841"
       cy="243.01979"
       rx="0.69453126"
       ry="0.52916664" /><ellipse
       style="display:inline;opacity:1;fill:#000000;stroke-width:1;stroke-linecap:round"
       id="path2179"
       cx="99.185677"
       cy="244.24348"
       rx="0.7606771"
       ry="0.49609375" /><path
       style="opacity:1;fill:#000000;stroke-width:0.1;stroke-linecap:round"
       d="m 69.427216,212.10268 c -2.065677,0.96859 -5.501654,-4.90523 -2.738013,-6.77933 0.99204,-0.4758 1.947098,-1.14573 3.112764,-0.99145 1.360141,-0.11286 2.820753,0.19668 3.872776,1.09762 0.767788,0.9598 0.354114,2.42167 -0.639107,3.05411 -1.996989,1.57097 -2.871718,2.97315 -3.60842,3.61905 z"
       id="path2228" /><path
       style="opacity:1;fill:#000000;stroke-width:0.1;stroke-linecap:round"
       d="m 71.456213,213.83061 c 0.602553,-1.46936 1.199041,-2.72658 2.239283,-3.83138 0.940025,-1.2768 3.500186,-0.73084 3.910806,0.88088 1.162089,0.88605 0.119316,2.06688 1.362556,2.77103 1.189398,0.47632 1.278616,1.20853 1.966245,2.22402 1.458274,0.49703 1.368817,3.43623 0.369512,5.01071 -0.666064,0.76981 -1.991215,0.46416 -1.698079,-0.6759 -1.659337,-1.96149 -1.700957,-2.88728 -2.3115,-4.43689 -0.02856,-0.86996 -1.325903,-2.35945 -1.429203,-0.63752 0.608014,1.02842 1.503373,3.77445 -0.808804,0.9572 -0.988316,-0.59194 -2.600981,-1.29389 -3.600816,-2.26215 z"
       id="path2230" /><path
       style="opacity:1;fill:#000000;stroke-width:0.1;stroke-linecap:round"
       d="m 57.322074,214.55473 c 0.601424,-1.34465 1.518898,-3.95789 2.446721,-4.47339 0.915116,0.83574 2.305848,1.03897 2.75752,-0.37554 l 0.233874,-0.73243 0.511225,0.0256 0.34827,0.6529 c 0.104407,0.19573 0.339754,0.3661 0.476837,0.74836 6.810529,6.13483 7.157829,3.25467 2.016309,8.00285 -0.967299,1.21155 -1.531799,2.031 -3.425335,0.83083 -1.75103,-1.10985 -4.003086,-2.30079 -5.365421,-4.67917 z"
       id="path2232" /><path
       style="opacity:1;fill:#000000;stroke-width:0.1;stroke-linecap:round"
       d="m 50.89665,205.86152 c 0.169129,-0.79813 1.008864,-0.1593 1.39393,0.0923 0.557794,0.37911 1.234231,0.69281 1.580759,1.27933 0.180346,0.76678 1.769814,2.78761 0.02435,2.56786 -2.315934,-1.63401 -2.516617,-1.0268 -2.99904,-3.93949 z"
       id="path2234" /><path
       style="opacity:1;fill:#000000;stroke-width:0.1;stroke-linecap:round"
       d="m 54.59032,204.88163 c 0.288782,-2.04077 2.802399,-8.33978 4.303294,-9.28638 3.023627,-3.39645 4.996229,-2.11049 5.551033,-1.32947 0.484415,1.33772 -2.537302,6.1243 -2.555722,7.52124 -0.02963,1.65212 -1.312706,3.3974 -2.328357,4.56323 -0.61247,0.77369 -1.548112,1.55044 -2.753331,1.44929 -1.240385,-0.12974 -1.53168,-1.5422 -1.937894,-2.49267 -0.07655,-0.15158 -0.167598,-0.29666 -0.279026,-0.42524 z"
       id="path2236" /><path
       style="opacity:1;fill:#000000;stroke-width:0.1;stroke-linecap:round"
       d="m 49.59537,204.5138 c -0.723819,-1.62487 -0.945045,-3.45262 -0.727422,-5.21169 0.426925,-1.53953 3.280988,-1.4581 4.11208,-0.2524 0.485042,1.04209 1.373819,2.00813 1.262422,3.23524 0.121716,1.03339 -0.282845,2.32085 -1.389739,2.62853 -0.706829,0.1507 -1.47228,0.20539 -2.180442,0.0501 -0.370564,-0.12156 -0.70505,-0.33165 -1.076899,-0.44977 z"
       id="path2238" /><path
       style="opacity:1;fill:#000000;stroke-width:0.1;stroke-linecap:round"
       d="m 54.76997,193.59896 c -1.854035,-0.69145 -2.703925,-3.06472 -1.957285,-4.84369 1.323568,-1.50825 3.698354,-0.74232 4.974987,0.44363 1.022123,0.75438 3.223072,2.42757 2.056015,3.69923 -1.48973,-0.157 -3.001839,-0.46371 -4.473579,0.11391 -0.23737,0.0888 -0.730908,0.24125 -0.600138,0.58692 z"
       id="path2240" /><path
       style="opacity:1;fill:#000000;stroke-width:0.1;stroke-linecap:round"
       d="m 58.593243,185.71314 c -0.638147,-1.34525 -2.821664,-3.33579 -0.989493,-4.60459 1.626419,-0.60955 4.383942,-0.49765 4.92724,1.52599 0.682234,1.77643 -1.172901,2.52823 -2.547583,2.79782 -0.455139,0.12917 -0.919094,0.23176 -1.390164,0.28078 z"
       id="path2242" /><path
       style="opacity:1;fill:#000000;stroke-width:0.1;stroke-linecap:round"
       d="m 51.022882,186.36827 c 1.581937,-2.00819 2.122333,-4.60914 3.416652,-6.78493 1.248782,-1.92998 3.074434,-3.55119 3.611396,-5.87829 -0.2363,-1.49158 2.700043,-2.49738 1.595515,-0.57174 -1.310098,1.82532 -2.40468,3.76768 -3.549067,5.69676 -1.632161,1.66052 -0.953675,4.20109 -2.425964,5.82281 -0.791615,0.67952 -1.642986,1.3869 -2.648532,1.71539 z"
       id="path2244" /><path
       style="opacity:1;fill:#000000;stroke-width:0.1;stroke-linecap:round"
       d="m 65.651689,176.57886 c -0.777827,1.74748 -2.135296,4.65556 0.467929,5.54642 1.868313,1.16883 3.605173,-0.20536 4.562396,-1.6753 2.222366,0.33075 -0.136502,3.48672 -1.729927,3.24304 -1.909379,0.25654 -4.47111,0.22287 -5.373653,-1.86482 -0.680681,-1.59038 -0.0098,-3.4198 0.752236,-4.84956 0.292566,-0.41592 0.84454,-0.59771 1.321019,-0.39978 z"
       id="path2246" /><path
       style="opacity:1;fill:#000000;stroke-width:0.1;stroke-linecap:round"
       d="m 70.085193,177.2506 c 0.541235,-0.82946 1.199917,-1.58453 1.76579,-2.38232 0.49891,-0.91154 -0.42432,-1.56711 -1.154217,-1.89516 -0.471222,-0.28751 -1.957226,-1.07163 -1.152914,-1.5758 0.642027,0.3975 1.597946,0.4786 1.946091,-0.37597 0.331263,-0.71774 0.919243,-1.27534 1.257671,-1.97361 0.04866,-0.98945 0.542128,-1.72423 1.298488,-2.29535 0.0097,-0.77629 -1.152318,0.11747 -1.524576,0.36593 -0.72364,0.70574 -0.900637,1.78376 -1.595329,2.51426 -0.391823,0.76795 -1.185164,1.14122 -1.965427,1.38427 -0.93535,0.30199 -1.15676,1.54193 -0.376003,2.13887 0.477834,0.67109 1.412367,0.61947 1.885839,1.24142 0.182005,0.86146 -1.226621,1.19848 -0.985119,2.16281 0.03765,0.2904 0.221417,0.7951 0.599706,0.69065 z"
       id="path2250" /><path
       style="opacity:1;fill:#000000;stroke-width:0.1;stroke-linecap:round"
       d="m 66.905607,173.13058 c -0.322994,0.14822 -0.573389,-0.19757 -0.814924,-0.35388 -0.24627,-0.12138 -0.664374,-0.51213 -0.241874,-0.6879 0.36105,-0.15859 0.809994,-0.20382 1.148144,0.0355 0.314138,0.12399 0.529094,0.5183 0.286658,0.80972 -0.09351,0.11655 -0.251078,0.13384 -0.378004,0.19652 z"
       id="path2252" /><path
       style="opacity:1;fill:#000000;stroke-width:0.1;stroke-linecap:round"
       d="m 71.718738,164.51502 c -0.156945,1.15668 -0.768901,2.22759 -1.588251,3.04227 -0.919199,0.76591 -2.130614,1.02015 -3.266893,1.28746 -0.512367,0.38237 -1.649466,-0.0877 -1.577403,0.91051 -0.07964,0.73187 -0.824308,1.10826 -1.199885,0.38795 -0.409242,0.42127 -1.69356,0.0389 -1.13655,-0.60317 0.77733,-0.4372 1.429872,-1.10287 2.32006,-1.32306 1.105732,-0.35135 2.30601,-0.38865 3.370111,-0.87203 0.820567,-0.50853 1.449991,-1.29429 1.858123,-2.16193 0.214258,-0.39465 0.661002,-0.53488 1.041527,-0.71339"
       id="path2256" /><path
       style="opacity:1;fill:#000000;stroke-width:0.1;stroke-linecap:round"
       d="m 60.904704,170.75709 c -0.41117,0.0982 -0.885782,0.35119 -0.789015,0.85227 -0.143725,0.45869 0.350288,1.00209 0.723519,0.51589 0.248532,-0.32745 0.572132,-0.70366 0.506614,-1.14493 -0.02687,-0.20281 -0.260705,-0.34846 -0.441118,-0.22323 z"
       id="path2258" /><path
       style="opacity:1;fill:#000000;stroke-width:0.1;stroke-linecap:round"
       d="m 67.622133,164.7114 c 0.414343,-0.2811 0.475038,-1.03635 0.03476,-1.31527 -0.505162,-0.23101 -0.946128,0.4699 -0.628171,0.88064 0.126321,0.41383 0.522438,0.47045 0.866488,0.52286 l 0.04034,0.0463"
       id="path2260" /><path
       style="opacity:1;fill:#000000;stroke-width:0.1;stroke-linecap:round"
       d="m 70.712152,161.97964 c 1.434645,0.39748 1.264466,-1.91905 2.534243,-1.78851 1.267548,0.18343 2.415828,-0.20885 3.236358,-1.13814 1.604558,-0.63386 1.341956,1.84052 0.03807,1.92707 -1.034747,0.4345 -2.266274,0.22304 -3.194162,0.8547 -0.337461,1.09289 -1.509407,1.39818 -2.25172,0.42431 -0.117938,-0.0968 -0.236337,-0.19495 -0.362792,-0.27943 z"
       id="path2262" /><path
       style="opacity:1;fill:#000000;stroke-width:0.1;stroke-linecap:round"
       d="m 67.039957,155.79961 c 0.238248,0.51895 0.602607,1.03303 1.058456,1.3653 0.431574,0.25084 0.660081,0.73324 0.529881,1.21413 -0.009,0.6169 0.687168,0.31083 1.005931,0.57786 0.314642,0.28409 0.395464,0.77785 0.81235,0.97007 0.471174,0.33229 0.616209,-0.35453 0.547856,-0.69728 -0.273719,-0.59919 0.430949,-0.66499 0.811058,-0.83848 0.475596,-0.08 0.737438,-0.67584 0.150466,-0.83173 -0.385592,-0.0577 -0.697188,0.31251 -1.103992,0.26184 -0.412904,0.0441 -0.739528,0.42921 -1.18225,0.33627 -0.56542,0.12442 -0.713954,-0.5892 -0.195552,-0.7939 0.449744,-0.19927 0.778655,-0.61129 0.833408,-1.10319 0.03028,-0.57804 -0.801851,-0.47475 -0.876631,0.0191 -0.04428,0.43231 -0.441971,0.77787 -0.784893,0.37222 -0.49196,-0.0346 -0.603999,-0.53492 -0.903879,-0.76823 -0.22449,-0.0844 -0.469145,-0.0507 -0.702209,-0.084 z"
       id="path2264" /><path
       style="opacity:1;fill:#000000;stroke-width:0.1;stroke-linecap:round"
       d="m 74.966525,158.30745 c 0.467581,-0.22625 0.980723,-0.70608 1.52809,-0.43173 0.515783,0.51119 -0.452792,1.22967 -0.936863,0.80906 -0.200911,-0.11964 -0.365209,-0.3014 -0.591227,-0.37733 z"
       id="path2266" /><path
       style="opacity:1;fill:#000000;stroke-width:0.1;stroke-linecap:round"
       d="m 100.80624,160.72572 c 0.24006,0.85393 -0.52829,1.72465 -0.0301,2.50865 0.3848,0.98291 1.13666,1.72824 1.84565,2.47675 0.85901,0.69832 1.35598,1.7694 1.75308,2.79988 0.31396,0.83296 0.69466,1.63416 0.99979,2.47148 0.24432,0.96028 0.58351,1.89969 1.18764,2.69629 0.5636,0.77317 0.93747,1.64771 1.58349,2.35541 0.16822,0.44181 0.77599,1.4035 0.62942,0.41394 -0.0388,-0.702 -0.55637,-1.53188 -0.77748,-1.99607 -0.55264,-1.37599 -0.82011,-2.91386 -1.75722,-4.09611 -0.7524,-1.3442 -1.30233,-2.78797 -2.07867,-4.11958 -0.45305,-0.89327 -1.01806,-1.73763 -1.45383,-2.64062 -0.2641,-0.51936 -0.80081,-1.37903 -1.23011,-1.98144 -0.24496,-0.2765 -0.56529,-0.51783 -0.67164,-0.88858 z"
       id="path2268" /><path
       style="opacity:1;fill:#000000;stroke-width:0.1;stroke-linecap:round"
       d="m 103.89626,162.8753 c -0.0748,0.69786 0.5718,1.84979 0.66189,2.06933 0.55306,0.81257 1.11595,1.67266 2.03016,2.11923 1.19368,0.53661 1.57539,1.88459 1.96547,3.0216 0.29021,0.772 1.19031,1.55036 1.84274,0.59375 0.43695,-0.68825 0.84187,-1.40442 1.14392,-2.16532 0.55761,-0.95066 1.02185,-1.96225 1.74504,-2.80566 0.36137,-0.85945 0.90646,-1.61406 1.25111,-2.48013 0.35783,-1.12897 1.32782,-1.96831 1.49611,-3.17407 0.0203,-0.62033 -0.89504,0.51053 -1.13951,0.71534 -0.57741,0.52512 -0.63751,1.32332 -0.93474,2.00184 -0.66808,2.01277 -1.40604,4.10199 -2.88475,5.67391 -0.58666,0.45424 -0.95044,1.14121 -1.56074,1.55565 -0.76943,-0.0723 -0.89787,-1.44836 -0.45829,-2.05105 0.49185,-0.73146 1.01397,-1.44526 1.6364,-2.07367 0.59755,-0.82433 1.10591,-1.70264 1.47695,-2.65312 0.1808,-0.40264 0.68992,-1.39183 0.19336,-0.51868 -0.47318,0.67023 -0.96071,1.32515 -1.40916,2.00782 -0.50167,0.50749 -0.69203,1.32711 -1.29034,1.77285 -0.72137,0.27195 -1.57384,0.33695 -2.32311,0.11083 -1.0986,-0.40417 -0.85482,-2.05129 -1.9418,-2.56755 -0.45908,-0.42929 -1.2757,-0.57486 -1.50067,-1.1529 z"
       id="path2270" /><path
       style="opacity:1;fill:#000000;stroke-width:0.1;stroke-linecap:round"
       d="m 138.78006,157.86578 c -0.0876,0.11142 -0.12874,0.27078 -0.0622,0.4027 0.0493,0.10134 0.0895,0.20653 0.12245,0.31353 0.0328,0.0749 0.14895,0.0627 0.12296,0.16436 0.0584,0.0801 0.19453,0.002 0.28065,-0.009 0.12285,-0.0413 0.25237,-0.0582 0.38147,-0.0448 0.14484,0.006 0.31929,0.0234 0.42712,-0.0947 0.10386,-0.11389 0.14897,-0.27999 0.12505,-0.43117 -0.0245,-0.13266 -0.17297,-0.16972 -0.28646,-0.18946 -0.12872,-0.0183 -0.265,-0.0435 -0.36145,-0.13848 -0.0957,-0.0774 -0.2209,-0.13605 -0.34582,-0.10134 -0.089,0.0332 -0.15471,-0.0289 -0.22456,-0.0508"
       id="path2272" /><path
       style="opacity:1;fill:#000000;stroke-width:0.1;stroke-linecap:round"
       d="m 138.6416,159.25817 c -0.0171,0.44518 0.20153,0.88384 0.41799,1.25564 0.45387,0.37187 1.08449,0.22132 1.62379,0.28172 0.43686,0.0341 0.91745,-0.007 1.27731,-0.28052 0.27008,-0.28659 0.79364,-0.20971 0.81229,0.23992 0.29469,0.34102 0.48341,0.84082 0.96527,0.97555 0.35009,0.17632 0.73208,0.24008 1.10669,0.34154 0.31761,0.013 0.72507,0.18009 0.93276,-0.16457 0.30489,-0.29799 0.16503,-0.74026 -0.28114,-0.7284 -0.40502,-0.0902 -0.9077,0.19539 -1.2372,-0.17456 -0.36339,-0.12653 -0.65696,-0.63886 -0.12457,-0.78791 0.36613,0.003 0.48581,-0.65257 0.0326,-0.463 -0.37638,-0.0848 -0.69966,0.0301 -0.98685,0.27173 -0.19999,0.15503 -0.78608,-0.0389 -0.72932,-0.0892 0.46597,0.0673 -0.36837,-0.0997 -0.52132,-0.1341 -0.45535,-0.10877 -0.9264,-0.12034 -1.37634,-0.24746 -0.48861,0.032 -0.87855,-0.26925 -1.35576,-0.3272 -0.18525,-0.0223 -0.37494,-0.0143 -0.55624,0.0308 z"
       id="path2274" /><path
       style="opacity:1;fill:#000000;stroke-width:0.1;stroke-linecap:round"
       d="m 143.61867,158.84484 c -0.16154,-0.27704 -0.34533,-0.68631 -0.14692,-0.96955 0.0915,-0.31204 0.51346,-0.2954 0.79701,-0.37723 0.53968,-0.0705 0.90769,0.54706 1.43715,0.53617 0.46617,0.16472 0.49631,-0.23315 0.41415,-0.57751 -0.0669,-0.36122 -0.22415,-0.7074 -0.24148,-1.07529 0.17267,-0.46802 0.69069,-0.37003 0.99743,-0.0981 0.29935,0.33399 0.75106,0.46187 1.19245,0.46023 0.51301,-0.0323 0.77361,-0.7268 0.42918,-1.09683 -0.12067,-0.27673 -0.69259,-0.67549 -0.28294,-0.9286 0.41074,-0.18706 0.86923,0.0181 1.22401,0.23294 0.24596,0.26463 0.51791,0.53678 0.58764,0.91214 0.0146,0.41746 -0.49243,0.58956 -0.61918,0.9529 -0.46087,0.17515 -0.92712,0.306 -1.34296,0.57537 -0.39458,0.002 -0.86519,0.0534 -1.21699,-0.0782 0.17289,0.34361 0.2601,0.72035 0.21298,1.10453 0.0811,0.43711 -0.2809,0.86317 -0.72417,0.86508 -0.53756,0.47376 -0.7635,-0.33458 -1.03807,-0.64361 -0.2822,-0.14368 -0.63999,-0.29576 -0.95445,-0.19558 -0.24144,0.13425 -0.50136,0.23996 -0.72484,0.40117 z"
       id="path2278" /><path
       style="opacity:1;fill:#000000;stroke-width:0.1;stroke-linecap:round"
       d="m 148.54066,162.90077 c -1.1e-4,0.28445 -0.0122,0.57252 0.059,0.8508 0.0402,0.12498 0.0212,0.25676 0.0438,0.38171 0.0247,0.11098 0.12542,0.15145 0.22425,0.17509 0.0304,0.10058 0.14068,0.12991 0.24419,0.13847 0.17711,0.0238 0.35731,0.0314 0.53542,0.0368 0.1292,-0.0222 0.0932,-0.18138 0.10501,-0.27756 -0.002,-0.11542 -0.004,-0.2316 0.0119,-0.34581 -0.0324,-0.10602 -0.11578,-0.1903 -0.14418,-0.30043 -0.0812,-0.20497 -0.18653,-0.42148 -0.39164,-0.52753 -0.13668,-0.0856 -0.28199,-0.16429 -0.39091,-0.28596 -0.0183,-0.12704 -0.15746,-0.15107 -0.26292,-0.12843 -0.056,0.005 -0.11193,0.0128 -0.16826,0.0141"
       id="path2280" /><path
       style="opacity:1;fill:#000000;stroke-width:0.1;stroke-linecap:round"
       d="m 145.31835,164.78371 c -0.0432,0.58066 0.33564,1.07561 0.55118,1.58714 0.28483,0.43614 0.61345,0.85258 1.09947,1.073 0.5153,0.32515 1.07466,0.56969 1.57378,0.92266 0.50616,0.20222 1.01287,0.36946 1.5296,0.50738 0.59165,0.23029 0.62414,0.8484 0.75039,1.34252 0.70406,-0.0749 1.24481,-0.66549 1.9775,-0.69913 0.84571,-0.0967 0.92154,1.02209 1.22927,1.57202 0.23046,0.6714 1.08404,0.2274 1.32977,-0.17484 0.21485,-0.60159 -0.34763,-0.9736 -0.76255,-1.28155 -0.47676,-0.28067 -0.86678,-0.66676 -1.08217,-1.19184 -0.2504,-0.85755 -1.26281,-0.057 -1.27667,0.52752 -0.24879,0.35958 -1.02655,0.4526 -0.91805,-0.13115 -0.24423,-0.58674 -0.73584,-0.73294 -1.31571,-0.63205 -0.74848,-0.14369 -1.41806,-0.54879 -2.07065,-0.90232 -0.46045,-0.56681 -1.21808,-0.82775 -1.57883,-1.44869 -0.3401,-0.33741 -0.55759,-0.94368 -1.03633,-1.07067 z"
       id="path2282" /><path
       style="opacity:1;fill:#000000;stroke-width:0.1;stroke-linecap:round"
       d="m 156.74907,180.80981 c 0.34235,-0.19199 0.6419,-0.4644 1.03424,-0.55192 0.33634,-0.0904 0.69546,-0.17979 1.03487,-0.055 0.36867,0.14323 0.77851,0.20654 1.08719,0.46515 0.29844,0.31595 0.77496,0.47167 0.95331,0.89114 0.26046,0.25603 0.2896,0.66321 0.44743,0.97521 0.0978,0.52493 0.13121,1.08385 -0.0259,1.59915 -0.20604,0.27264 -0.28781,0.60818 -0.47194,0.88324 -0.27481,0.2228 -0.32596,0.60837 -0.63012,0.79485 -0.54103,0.36133 -1.21935,0.27181 -1.8352,0.28322 -0.36128,0.002 -0.7188,-0.12848 -0.9721,-0.39069 -0.73651,-0.60296 -1.59083,-1.0858 -2.17717,-1.85318 -0.16149,-0.33376 -0.38396,-0.6718 -0.38401,-1.0537 0.12839,-0.33716 0.15632,-0.7469 0.45343,-0.98462 0.3671,-0.1758 0.40633,-0.61351 0.72554,-0.81497 0.24318,-0.10005 0.49006,-0.22763 0.76044,-0.1879 z"
       id="path2284" /><path
       style="opacity:1;fill:#000000;stroke-width:0.1;stroke-linecap:round"
       d="m 164.09963,182.76301 c 0.26775,1.0041 -0.40616,2.34687 0.57901,3.05573 0.99094,0.49639 1.48174,1.52052 2.10263,2.38183 0.16805,0.35158 1.00933,1.34968 0.36022,0.474 -0.65599,-1.7062 -0.94748,-3.56618 -1.94946,-5.12529 -0.6489,-1.12601 -0.93169,-2.52814 -1.99015,-3.36431 -0.93729,-0.68377 -1.88545,-1.41567 -2.42278,-2.47776 -1.02496,-1.38914 -1.55753,-3.05559 -2.12565,-4.655 -0.27036,-1.03454 -1.76654,-1.91176 -1.87923,-0.32287 -1.06884,0.59602 -0.94409,2.55942 0.57846,2.132 1.26786,-0.1705 1.40452,1.2887 1.9012,2.0712 0.67564,1.63926 1.92655,2.92365 3.12332,4.19166 0.5405,0.54353 0.9577,1.42197 1.72243,1.63881 z"
       id="path2286" /><path
       style="opacity:1;fill:#000000;stroke-width:0.1;stroke-linecap:round"
       d="m 157.74046,176.49135 c -0.0733,0.3596 -0.0988,0.7557 0.0742,1.09186 0.0779,0.092 0.19471,0.15212 0.30199,0.20487 0.13922,0.034 0.23332,-0.11299 0.24821,-0.23316 0.019,-0.3025 0.0193,-0.60666 0.014,-0.90982 0.002,-0.0946 -0.004,-0.20169 -0.10348,-0.24642 -0.0547,-0.0739 -0.0997,-0.17467 -0.21689,-0.1435 -0.0848,0.0125 -0.20022,-0.0346 -0.25603,0.0539 -0.0253,0.059 -0.0456,0.12039 -0.062,0.18228 z"
       id="path2288" /><path
       style="opacity:1;fill:#000000;stroke-width:0.1;stroke-linecap:round"
       d="m 151.38129,171.41158 c -0.12101,0.0289 -0.20688,0.12381 -0.28685,0.2125 -0.0862,0.0956 -0.21906,0.11146 -0.32673,0.17199 -0.1719,0.088 -0.34769,0.17847 -0.48883,0.31249 -0.0721,0.0635 -0.064,0.16463 -0.0589,0.25125 -0.0137,0.16455 -0.0813,0.33833 -0.01,0.49868 0.0367,0.0785 0.10566,0.14932 0.19715,0.15354 0.0608,0.0395 0.11821,0.0825 0.19938,0.0806 0.24268,0.0321 0.49205,0.0465 0.73387,3.1e-4 0.0824,-0.0215 0.19312,-0.0459 0.22599,-0.1343 -0.0309,-0.0903 0.0544,-0.15763 0.0692,-0.24215 0.0745,-0.26838 0.0474,-0.55098 0.0135,-0.82352 0.004,-0.0717 0.0326,-0.15271 -0.0259,-0.21181 -0.0682,-0.10045 -0.16342,-0.17814 -0.24196,-0.26954 z"
       id="path2290" /><path
       style="opacity:1;fill:#000000;stroke-width:0.1;stroke-linecap:round"
       d="m 148.13557,176.81306 c -0.55055,0.40727 -0.56489,1.14718 -0.86298,1.71119 -0.25055,0.45629 -0.43421,0.97722 -0.16762,1.47449 0.10349,0.38854 0.10634,0.8837 0.50139,1.11222 0.45152,0.41513 1.07845,0.5925 1.68284,0.58106 0.37367,0.0536 0.74133,0.12186 1.1226,0.0986 0.67887,-1.5e-4 1.39356,-0.008 2.0068,-0.33393 0.49541,-0.41577 0.4826,-1.12647 0.6351,-1.70545 0.14668,-0.43883 0.0779,-0.91087 -0.1811,-1.29275 -0.24525,-0.3589 -0.36604,-0.78341 -0.67021,-1.10921 -0.31473,-0.43938 -0.35581,-1.02486 -0.69838,-1.43932 -0.0914,-0.18936 -0.17247,-0.54776 0.0198,-0.15704 0.31888,0.50708 0.70486,0.97259 1.1262,1.39681 0.42869,0.27544 0.81966,0.61878 1.0559,1.08305 0.16728,0.47083 0.3073,0.98447 0.29604,1.49122 0.19869,0.42852 0.0447,0.92742 0.16837,1.37693 -0.0485,0.43015 -0.26836,0.78181 -0.55244,1.09728 -0.23629,0.40684 -0.61552,0.67057 -1.0199,0.89193 -0.43886,0.27332 -0.94386,0.43451 -1.46018,0.44473 -0.99139,0.24339 -2.06755,0.31638 -3.03226,-0.0762 -0.53856,-0.0871 -0.7645,-0.57642 -1.01409,-0.9943 -0.29936,-0.35601 -0.62629,-0.6939 -0.98467,-1.00436 -0.27417,-0.31684 -0.3651,-0.7441 -0.54042,-1.11686 -0.15508,-0.5659 -0.39578,-1.12498 -0.4301,-1.72267 -0.0216,-0.37832 0.20035,-0.83474 0.58062,-0.95647 0.36473,-0.40419 0.87721,-0.61985 1.30888,-0.92754 0.33506,-0.0817 0.84357,-0.22774 1.11032,-0.006 l -5.4e-4,0.0828 z"
       id="path2292" /><path
       style="opacity:1;fill:#000000;stroke-width:0.1;stroke-linecap:round"
       d="m 163.45131,199.21968 c 0.0974,-1.09235 0.94783,-2.03171 2.04228,-2.18545 0.83631,-0.0445 1.96321,-0.73514 2.59329,0.0813 0.474,0.8292 0.51376,1.82965 0.68028,2.75325 0.0317,1.33583 -0.46295,2.71801 -1.39437,3.68718 -0.88443,0.2017 -1.98945,0.43812 -2.74194,-0.21409 -0.6835,-0.66391 -0.69482,-1.68143 -1.06739,-2.51122 -0.1226,-0.51133 -0.24764,-1.10431 -0.11215,-1.61098 z"
       id="path2294" /><path
       style="opacity:1;fill:#000000;stroke-width:0.1;stroke-linecap:round"
       d="m 163.29354,206.65981 c 0.49154,-1.00566 2.075,-2.21684 3.05374,-1.21219 0.57622,1.2707 -0.86209,2.1585 -1.6286,2.92387 -0.54304,0.53182 -2.28221,1.683 -2.18464,0.18056 0.076,-0.69885 0.54547,-1.25643 0.7595,-1.89224 z"
       id="path2296" /><path
       style="opacity:1;fill:#000000;stroke-width:0.1;stroke-linecap:round"
       d="m 148.92851,213.66633 c 1.57126,-1.81653 2.56389,-2.24645 4.36294,-3.82546 0.80258,-1.28598 1.96612,0.2817 2.91289,0.36479 1.34878,-0.35971 2.5301,0.44174 2.79065,1.80037 0.44188,1.1837 1.45731,2.65776 0.13366,3.69046 -1.15479,1.0307 -2.81045,1.25071 -3.96039,2.30863 -1.04272,0.8667 -2.59041,0.46112 -2.994,-0.84574 -0.81721,-1.0323 -2.20904,-1.28943 -3.07189,-2.26925 -0.29613,-0.2435 -0.30352,-0.75388 -0.17386,-1.2238 z"
       id="path2300" /><path
       style="opacity:1;fill:#000000;stroke-width:0.1;stroke-linecap:round"
       d="m 140.08984,224.91397 c 0.66796,-1.05518 1.70688,-1.76001 2.63367,-2.55185 0.17867,-1.20765 0.63949,-2.45082 2.10313,-2.34121 1.05523,-0.14168 2.30607,-0.63962 3.2207,0.16851 1.04074,0.76357 1.82229,1.84146 2.89047,2.57525 0.6509,0.98361 -0.68893,1.74387 -1.4868,2.00979 -1.20263,0.65814 -2.34074,1.44228 -3.62544,1.94066 -1.36582,0.64291 -2.36996,1.96621 -2.79567,3.39266 0.0282,1.49341 -1.90113,0.0543 -2.81873,0.60305 -1.09995,0.36972 -2.0483,1.12693 -2.91136,1.8599 -0.59582,0.70339 -0.9913,1.64138 -1.68714,2.21325 -0.0979,-1.27971 0.67015,-2.48572 1.4867,-3.41696 0.99109,-0.65859 2.12163,-1.11432 2.9456,-2.01542 0.63598,-0.74089 1.3201,-1.43578 1.88804,-2.23052 0.41391,-1.24115 1.97793,-1.67543 1.98128,-3.08299 0.25493,-0.80705 -0.66073,-1.22516 -0.84871,-0.2967 -0.62212,0.98767 -1.82237,1.48448 -2.97574,1.17258 z"
       id="path2304" /><path
       style="opacity:1;fill:#000000;stroke-width:0.0860962;stroke-linecap:round"
       d="m 123.14579,234.86163 c 0.82421,-0.13125 1.76018,-0.28792 2.30746,-0.9825 0.26411,-0.44022 0.34065,-0.96743 0.6157,-1.40101 0.20102,-0.45043 0.32843,-1.19523 0.71642,-1.398 0.42949,0.31622 0.52563,0.90152 0.96526,1.21242 0.29678,0.36057 0.5274,0.78069 0.70702,1.21485 0.14261,0.49419 0.1987,1.01654 0.27051,1.52659 -0.058,0.50248 -0.26391,1.00702 -0.59358,1.39259 -0.3852,0.46383 -0.94244,0.71728 -1.51928,0.84315 -0.64722,0.26335 -1.33255,0.387 -2.02008,0.49421 -0.5324,-0.002 -0.97256,0.20225 -1.51668,0.14732 -0.71491,0.0129 -1.47217,0.12333 -2.15694,0.036 -0.1856,0.13283 -0.4411,0.35761 -0.21291,8.6e-4 0.26951,-0.5353 0.77404,-0.88305 1.07818,-1.38927 0.23756,-0.34992 0.61182,-0.58412 0.79349,-0.97562 0.17576,-0.24974 0.39628,-0.46452 0.56543,-0.72173 z"
       id="path2306" /><path
       style="opacity:1;fill:#000000;stroke-width:0.0922059;stroke-linecap:round"
       d="m 126.27076,228.5407 c 0.4279,-0.70985 0.64627,-1.52873 1.10871,-2.21734 0.1783,-0.62165 0.71367,-1.08118 1.36955,-1.08706 0.70568,-0.0495 1.46976,0.17835 1.98086,0.67011 0.38931,0.62068 0.37636,1.39171 0.46797,2.09596 0.0695,1.15354 0.033,2.31899 -0.15531,3.45903 -0.29335,0.44428 -0.16013,1.36371 -0.67969,1.51478 -0.35437,-0.76418 -0.0939,-1.72053 -0.68738,-2.39453 -0.44825,-0.67963 -1.05739,-1.2485 -1.753,-1.66932 -0.69465,-0.14089 -0.80951,0.51805 -1.36962,0.0248"
       id="path2308" /><path
       style="opacity:1;fill:#000000;stroke-width:0.1;stroke-linecap:round"
       d="m 160.0092,228.84047 c 0.003,1.52456 -0.24719,3.03642 -0.25523,4.56058 -0.53468,1.03588 0.97353,2.02354 1.60995,0.94922 0.56467,-0.74347 1.04565,-1.55496 1.51312,-2.36225 0.41436,-1.00446 -0.77346,-1.71098 -1.35821,-2.34223 -0.44498,-0.35383 -0.91978,-0.75084 -1.50963,-0.80532 z"
       id="path2310" /><path
       style="opacity:1;fill:#000000;stroke-width:0.1;stroke-linecap:round"
       d="m 158.57614,227.58655 c 0.24779,2.27483 0.15793,4.6913 -0.33684,6.89924 -0.82674,1.91788 -2.9208,2.70579 -4.69014,3.49764 -2.27034,0.75353 -4.8398,-0.45206 -6.98592,0.47747 -0.92813,-1.62871 -0.29878,-3.93013 0.0816,-5.76433 1.17183,-2.39706 2.63587,-4.89706 5.09919,-6.17348 2.58646,-0.56609 2.59773,-2.94298 2.75598,-4.99654 2.03083,-1.43248 4.43647,-2.4965 6.56059,-3.88593 1.79568,-1.04198 3.07772,-2.65074 3.75656,-4.59743 1.08594,-2.64858 3.1656,-4.62838 4.74306,-6.95235 0.7981,-1.00151 1.62631,-5.36331 2.55026,-2.41964 0.59581,1.5451 1.00658,2.84377 -0.0545,4.14742 0.72175,1.83822 1.39961,4.30636 -0.66424,5.5814 -1.01747,1.36721 -3.07275,2.6138 -1.18592,4.04058 -0.0144,2.59349 -1.10285,5.04943 -2.45088,7.23422 -0.67428,1.72526 -2.12734,3.10295 -4.04398,3.20303 -1.94532,0.42705 -3.68609,-0.71596 -4.84973,-2.17308 -2.30264,-1.43392 -2.36483,1.39239 -0.28515,1.88178 z"
       id="path2312" /><path
       style="opacity:1;fill:#000000;stroke-width:0.1;stroke-linecap:round"
       d="m 45.726095,202.28414 c 1.836102,3.28603 -3.119212,6.31351 -0.661765,9.59077 2.527105,2.92334 1.350942,6.63363 2.395938,9.88369 2.153717,2.58906 4.888284,7.92239 8.766558,4.71502 4.127761,0.21141 0.47428,6.28718 3.133278,8.41854 2.084949,3.36845 6.142854,2.72476 9.486263,2.7551 4.354277,-0.58121 1.457426,-5.4297 -0.264666,-7.34654 -0.1634,-4.12657 -4.930505,-4.26933 -7.114424,-6.95682 -0.639447,-3.73597 -4.654022,-4.46185 -7.172034,-6.60394 -3.178736,-3.05633 -4.145007,-7.62624 -6.724878,-11.13641 -0.645334,-1.089 -1.277927,-2.18678 -1.84427,-3.31941 z"
       id="path2314" /><path
       style="opacity:1;fill:#000000;stroke-width:0.1;stroke-linecap:round"
       d="m 53.452667,231.03712 c 0.168886,0 0.506658,0.16888 0.506658,0 0,-0.16889 -0.638537,0.1055 -0.506658,0 0.594508,-0.47561 1.531032,-0.54662 2.153306,-1.01333 0.01368,-0.0103 0.476552,-0.31978 0.506659,-0.37999 0.03777,-0.0755 -0.05971,-0.19362 0,-0.25333 0.06676,-0.0668 0.200961,-0.0481 0.25333,-0.12667 0.04684,-0.0703 -0.03776,-0.1778 0,-0.25333 0.03776,-0.0755 0.19362,-0.0597 0.253331,0 0.10051,0.10051 0,0.8324 0,1.01332 0,0.71705 0.141282,1.57357 0,2.27998 -0.0755,0.37751 -0.42385,0.82577 -0.633325,1.13998 -0.09408,0.14112 -0.178256,0.22985 -0.253331,0.38 -0.0114,0.0228 0.272852,0.38975 0,0.25333 -0.213627,-0.10682 -0.30793,-0.37418 -0.506659,-0.50666 -0.111093,-0.0741 -0.273182,-0.0466 -0.379997,-0.12667 -0.07553,-0.0566 -0.06769,-0.17961 -0.126664,-0.25333 -0.149204,-0.1865 -0.399846,-0.29303 -0.506661,-0.50666 -0.3443,-0.6886 -0.327771,-0.92628 -0.759989,-1.64664 z"
       id="path2316" /><path
       style="opacity:1;fill:#000000;stroke-width:0.1;stroke-linecap:round"
       d="m 137.93828,246.26859 c -0.80652,-0.8631 -1.1171,-2.14544 -0.96158,-3.29333 0.62054,-1.33475 2.25846,-0.62461 3.34396,-0.49208 1.1455,0.0638 2.50359,0.92371 2.2332,2.22628 -0.17405,0.91684 -0.66126,2.07422 0.14232,2.83737 0.91427,0.62338 1.13542,-0.57106 0.68577,-1.16114 0.32109,-1.20865 1.55451,-0.01 0.98865,0.82203 0.13096,1.36408 -1.75445,1.60071 -2.42611,0.65779 -0.63871,-0.77089 -1.81542,-0.5816 -2.44949,-1.32254 -0.44954,-0.32139 -1.02814,-0.34333 -1.55672,-0.27438 z"
       id="path2318" /><path
       style="opacity:1;fill:#000000;stroke-width:0.1;stroke-linecap:round"
       d="m 74.294782,231.03483 c -0.225889,-0.75555 -0.645073,-1.4275 -0.995556,-2.12747 -0.338874,-0.51588 -1.072922,-0.40642 -1.532166,-0.78713 -0.933905,-0.21895 -0.574383,-1.23718 0.07252,-1.57906 0.41473,-0.22593 1.078234,-0.79137 0.994212,-0.80982 0.606792,-0.88627 0.987614,0.28522 1.280504,0.78211 0.326673,0.51242 0.498957,1.13878 1.054244,1.46806 0.721827,0.63638 1.432293,1.30589 2.313018,1.71826 0.565992,0.48307 1.169321,0.92367 1.74816,1.3905 0.482686,0.45977 1.157414,0.68177 1.510297,1.27047 0.559061,0.58809 0.484764,1.4401 0.391184,2.17936 0.09414,0.362 -0.242468,1.45073 -0.290983,0.54623 -0.155457,-0.83682 -0.688515,-1.5391 -1.11341,-2.25695 -0.408797,-0.50096 -0.720686,-1.10559 -1.376839,-1.34198 -0.583624,-0.33532 -1.562625,-0.83719 -2.005673,-0.82815 -0.537648,-0.0782 -1.107731,-0.35775 -1.556896,0.19658 -0.151772,0.089 -0.321521,0.14237 -0.492612,0.17899 z"
       id="path2320" /><path
       style="opacity:1;fill:#000000;stroke-width:0.1;stroke-linecap:round"
       d="m 87.018915,233.57042 c -0.306664,-1.1658 -0.989817,-2.17263 -1.489297,-3.1752 -0.268439,-1.48812 0.126789,-2.98672 0.644839,-4.37257 0.324392,-0.82842 1.400665,-1.87932 2.230747,-0.99019 0.619822,0.86794 1.285726,1.73088 1.578823,2.764 0.729302,0.836 0.291942,1.8557 -0.812145,1.85443 -0.961405,0.32561 -0.848419,1.48782 -1.50514,2.10197 -0.451522,0.49723 -0.652536,1.15259 -0.647827,1.81756 z"
       id="path2322" /><path
       style="opacity:1;fill:#000000;stroke-width:0.1;stroke-linecap:round"
       d="m 59.736235,176.16062 c -0.392553,-0.13594 -0.778528,0.26132 -0.689171,0.65114 0.04284,0.35952 0.445673,0.69532 0.802332,0.65433 0.244682,-0.24899 -0.0161,-0.62232 -0.07087,-0.91028 -0.03777,-0.12735 -0.06741,-0.26234 -0.04229,-0.39519 z"
       id="path2324" /><path
       style="opacity:1;fill:#000000;stroke-width:0.1;stroke-linecap:round"
       d="m 68.607357,178.37017 c -0.292136,0.21241 -0.88362,0.68195 -0.519136,1.03887 0.355014,0.36017 0.888033,0.0551 0.752897,-0.43041 -0.0012,-0.20286 -0.02128,-0.40561 -0.01,-0.6085"
       id="path2326" /><path
       style="display:inline;opacity:1;fill:#000000;stroke-width:1;stroke-linecap:round"
       d="m 82.121025,170.65294 2.513542,-3.24115 2.248958,-1.65365 1.190625,0.66146 -0.264583,1.05834 -2.182813,0.92604 -1.5875,0.92604 -0.992187,1.25677 4.630208,-0.92604 0.396875,1.71979 4.696349,2.18281 -0.26458,0.59531 -4.564061,-1.91822 -0.859896,-1.5875 -2.38125,0.52916 z"
       id="path1974" /><path
       style="display:inline;opacity:1;fill:#000000;stroke-width:1;stroke-linecap:round"
       d="m 79.242707,179.3875 0.79375,-1.78594 1.653646,-0.59531 0.859896,0.52917 -0.661458,0.52916 -1.653646,0.66146 z"
       id="path1976" /><path
       style="display:inline;opacity:1;fill:#000000;stroke-width:1;stroke-linecap:round"
       d="m 129.11666,169.0026 0.39688,-1.78594 c 0,0 0.39687,-0.99218 0.92604,-0.85989 0.52917,0.13229 1.52135,0.52916 1.65364,0.92604 0.1323,0.39687 0.8599,1.52135 0.8599,1.52135 l -0.39687,-2.24895 2.11666,3.63802 0.66146,1.05833 -2.91042,-1.85208 -1.5875,-1.7198 z"
       id="path1980" /><path
       style="display:inline;opacity:1;fill:#000000;stroke-width:1;stroke-linecap:round"
       d="m 126.40468,172.83906 2.24896,-1.38906 0.79375,-0.99219 0.26458,-0.79375 1.19063,0.8599 1.52135,0.33073 1.45521,0.52917 -2.91042,-0.1323 -1.12447,-0.26458 -1.05834,1.32292 L 127,172.70677 Z"
       id="path1982" /><path
       style="display:inline;opacity:1;fill:#000000;stroke-width:1;stroke-linecap:round"
       d="m 131.36563,172.37604 c -0.33073,0.26458 -0.8599,1.05833 -0.8599,1.05833 l 0.33073,1.12448 1.5875,0.99219 1.12448,0.59531 c 0,0 0.79375,0.33073 0.59531,-0.0661 -0.19844,-0.39688 -1.05833,-1.7198 -1.05833,-1.7198 l -0.72761,-1.05833 z"
       id="path1984" /><path
       style="display:inline;opacity:1;fill:#000000;stroke-width:1;stroke-linecap:round"
       d="m 132.35781,172.37604 2.31511,-0.46302 -0.66146,0.99219 -0.19844,0.99219 z"
       id="path1986" /><path
       style="display:inline;opacity:1;fill:#000000;stroke-width:1;stroke-linecap:round"
       d="m 130.83645,175.68333 1.25677,0.85989 0.72761,0.99219 0.39687,0.92604 -0.66146,1.45521 -0.66145,-1.71979 -1.19063,-1.52136 z"
       id="path1988" /><path
       style="display:inline;opacity:1;fill:#000000;stroke-width:1;stroke-linecap:round"
       d="m 134.73906,176.27865 c 0.0661,-0.26459 1.25677,-4.10104 1.25677,-4.10104 l 1.45521,2.64583 -1.17527,1.04229 z"
       id="path1990" /><path
       style="display:inline;opacity:1;fill:#000000;stroke-width:1;stroke-linecap:round"
       d="m 137.31875,171.84688 0.92604,-0.8599 h 1.78594 l 0.13229,0.99219 v 0.66146 l -0.7276,-0.92604 h -0.92604 l 0.85989,1.19062 c 0,0 1.19063,0.72761 1.12448,0.99219 -0.0661,0.26458 0.26459,1.12448 0.26459,1.12448 l -0.59532,0.19844 -1.32291,-1.98438 z"
       id="path1992" /><path
       style="display:inline;opacity:1;fill:#000000;stroke-width:1;stroke-linecap:round"
       d="m 135.59896,170.32552 -1.78594,-2.77812 -0.7276,-1.65365 c 0,0 1.12448,-0.99219 1.45521,-0.99219 0.33073,0 1.98437,0.13229 1.98437,0.13229 l 0.72761,0.26459 c 0,0 -0.79375,1.32291 -0.92605,1.65364 -0.13229,0.33073 -0.7276,3.37344 -0.7276,3.37344 z"
       id="path1994" /><path
       style="display:inline;opacity:1;fill:#000000;stroke-width:1;stroke-linecap:round"
       d="m 74.393199,169.2851 2.52569,-4.86431 1.87089,5.98684 z"
       id="path1684" /><path
       style="opacity:1;fill:#000000;stroke-width:1;stroke-linecap:round"
       d="m 79.308853,164.50468 -0.132292,1.85209 1.852084,3.37343 1.25677,-2.64583 0.132292,-2.11667 z"
       id="path1804" /><path
       style="opacity:1;fill:#000000;stroke-width:1;stroke-linecap:round"
       d="m 78.448958,175.22031 2.248958,-3.57188 0.992187,4.69636 z"
       id="path1806" /><path
       style="opacity:1;fill:#000000;stroke-width:1;stroke-linecap:round"
       d="m 73.554166,170.4578 5.820833,0.99219 -1.984375,2.84427 0.661458,3.24115 v 4.10104 l -2.910416,3.9026 -1.521354,0.92604 -0.661459,-2.3151 1.785938,-0.26458 1.455208,-1.32292 0.926042,-2.51354 0.06615,-0.72761 -0.33073,-0.46302 -1.5875,0.66146 -3.373437,-1.19062 -1.256771,-0.72761 3.042708,-1.38906 1.389063,2.51354 0.859896,-0.26458 -1.322917,-2.38125 0.992188,-0.26458 1.124479,2.24895 0.859896,-0.39687 -1.5875,-2.64583 0.79375,-1.45521 1.322916,-0.8599 -1.058333,-0.52917 -1.719792,1.7198 0.06615,-1.98438 -1.521354,-0.59531 z"
       id="path1808" /><path
       style="opacity:1;fill:#000000;stroke-width:1;stroke-linecap:round"
       d="m 82.946874,176.74167 c 0.264583,-0.0661 3.241146,-3.77032 3.241146,-3.77032 l 1.785937,1.05834 -1.256771,0.46302 -2.38125,1.78594 z"
       id="path1810" /><path
       style="display:inline;opacity:1;fill:#000000;stroke-width:1;stroke-linecap:round"
       d="m 97.132401,166.00708 3.439589,2.24895 1.19062,2.0836 c 0,0 1.68672,4.20026 1.68672,4.39869 0,0.19844 0.13229,4.16719 0.13229,4.16719 l -6.316928,-10.55026 -0.429947,-1.32291 z"
       id="path1970" /><path
       style="display:inline;opacity:1;fill:#000000;stroke-width:1;stroke-linecap:round"
       d="m 114.7272,177.21879 2.57969,-8.36745 4.13411,-2.24895 -0.62839,1.65364 -3.93567,7.63985 -2.21589,4.03489 z"
       id="path1972" /><path
       style="opacity:1;fill:#000000;stroke-width:1;stroke-linecap:round"
       d="m 83.80677,177.6677 2.645833,-1.98437 -0.992187,1.78594 0.198437,3.175 z"
       id="path1812" /><path
       style="opacity:1;fill:#000000;stroke-width:0.956687;stroke-linecap:round"
       d="m 82.995262,159.3654 -1.075775,0.56953 -1.771863,1.07578 -0.885932,1.9617 c -0.305668,0.19276 -0.481248,0.58066 -0.71191,0.88593 l -0.268943,-0.36386 c 0.823816,-0.71585 0.910539,-1.63124 1.313078,-2.64198 1.282269,-1.73293 2.210863,-1.31901 2.815997,-1.67694 l -0.237303,-1.07578 2.214829,0.63281 2.91092,1.3289 5.821837,3.16404 3.860132,2.21483 3.733571,2.21483 1.70858,2.53123 c 0,0 2.40468,6.51793 2.34139,6.83433 -0.0632,0.31641 -0.63281,3.10077 -0.63281,3.10077 l 4.80935,10.37805 5.25231,-10.06164 c 0,0 -0.3164,-5.25232 -0.0633,-5.44216 0.25313,-0.18984 2.78436,-7.08746 2.78436,-7.08746 -3.12446,2.44643 -4.56197,5.17401 -6.32808,7.84683 l -0.25313,-0.75937 3.92341,-6.58121 c 10.23763,-6.82046 13.75304,-6.91871 20.62956,-10.37806 2.0993,1.81185 3.4031,3.80516 4.60766,5.79596 -0.0694,0.47073 -0.31678,0.33635 -0.52731,0.32726 -0.89494,-1.49205 -1.37069,-2.86932 -3.38426,-4.41463 l -1.39218,-0.25312 -1.20234,0.50624 c 1.73872,0.89224 3.06024,2.46713 4.49294,3.86013 0.27511,0.0971 -0.57224,0.58369 -0.86674,0.24896 -0.67355,-1.71789 -4.5002,-3.78935 -4.44885,-3.66613 -0.62216,-0.10984 -1.20932,0.11299 -1.77186,0.56954 -0.0228,0.98343 -0.34461,2.07761 0.37969,2.78435 0.49328,0.62129 0.96099,1.27278 1.77186,1.51874 0.0583,0.30702 0.38724,0.72429 -0.30592,0.72516 -0.81486,-0.69964 -0.98886,-1.10886 -2.0988,-1.67437 l -1.89843,0.56953 c -0.15146,-0.63497 -0.58377,-1.13455 -1.23556,-1.56349 0.29547,-0.42193 -0.16041,-0.5892 -0.34646,-0.84118 l -0.94921,0.75937 2.02499,2.84763 1.45545,2.65779 c 0,0 -0.63281,1.39218 -0.63281,1.70859 0,0.3164 -1.58201,1.58202 -1.58201,1.58202 l 0.75937,-2.78436 -0.6961,-1.9617 -1.51874,-3.2906 -0.44296,3.03748 1.9617,2.53123 -0.50624,1.70858 -1.9617,2.84764 -0.6961,-2.15155 c -6.03853,2.83162 -9.51832,6.21125 -10.07569,16.43053 0,0 -0.77192,0.93839 -0.87507,0.69874 -2.04309,-4.74662 8.30137,-19.77337 9.74843,-17.06599 0.17898,0.33486 0.25312,-1.51874 0.25312,-1.51874 l 1.83514,0.12656 0.37969,1.20234 0.69609,-0.94922 -0.0632,-1.9617 -0.82265,-1.07578 -0.25312,1.45547 -0.82266,-0.25313 1.07578,-5.69527 -1.45546,0.50624 -4.6195,8.98588 -3.22733,5.37888 -1.01249,2.27811 c 0,0 -4.63804,10.47522 -4.82788,10.79162 -0.18985,0.31641 -1.62677,0.28252 -1.62677,0.28252 l -5.69527,-12.71944 -5.632,-9.80854 -0.885931,-2.02498 -1.961707,-2.27811 -0.506247,-0.56954 -0.506246,1.39218 0.748369,3.52722 c -0.400537,0.02 -0.415027,-0.87886 -0.683853,-1.31451 -0.520968,-0.84426 -0.767519,-1.28464 -0.634658,1.08683 l -0.840675,1.72575 c 0.641703,-8.87748 -0.173704,-5.40752 -1.344661,-1.55172 l 1.354334,2.96799 -1.335768,-1.64046 c -0.40205,-0.72246 -0.787152,-1.4917 -0.72841,-2.21415 l -0.05936,2.83439 -0.999029,-1.75978 0.22815,-1.97228 1.511203,-1.56272 c 0.608971,-0.24593 1.035423,-0.59834 1.139055,-1.13905 l 0.506248,-0.82265 c 0.275613,-0.72351 -0.346985,-0.77335 -0.885933,-0.88593 -0.440524,0.88715 -0.670252,1.8797 -2.404672,2.11991 -0.366406,-0.24342 -0.987588,-0.50695 0.181937,-0.6291 l 1.71248,-1.63147 -1.641293,-0.682 c 0,0 -1.624775,2.59238 -2.024988,2.59452 -0.876587,0.005 -1.32911,1.23387 -1.392178,1.39218 0.121537,-0.40509 -0.363171,-0.6574 -0.205663,-0.85429 0.253123,-0.3164 1.328898,-1.04413 1.328898,-1.04413 0.334259,-0.54001 0.865625,-1.06592 0.648628,-1.6453 0.228501,-0.58086 -0.07293,-1.10283 -0.189842,-1.64531 0,0 -1.392179,-0.82265 -1.582021,-0.44297 -1.708652,1.00892 -2.989943,2.31162 -4.239817,3.41717 l -0.601168,-0.0317 c 0.343568,-0.76304 0.955252,-1.37711 1.676942,-1.93007 l 1.45546,-0.94922 0.253124,-0.63281 z"
       id="path1816" /><path
       style="opacity:1;fill:#000000;stroke-width:1;stroke-linecap:round"
       d="m 129.50766,190.12553 4.02241,-3.46114 2.5257,3.08697 z"
       id="path2024" /><path
       style="opacity:1;fill:#000000;stroke-width:1;stroke-linecap:round"
       d="m 82.412559,172.33205 2.08136,0.11693 -1.286235,1.0056 z"
       id="path2026" /><path
       style="opacity:1;fill:#000000;stroke-width:1;stroke-linecap:round"
       d="m 129.97656,191.95521 c 0.26458,0 1.71979,-0.1323 1.71979,-0.1323 l 1.45521,1.25678 c 0,0 -1.05833,1.5875 -1.05833,1.91822 0,0.33073 -1.85209,4.43177 -1.85209,4.43177 l 3.43959,-5.02708 0.79375,-1.25677 1.85208,-0.66146 1.32292,-0.0661 1.19062,1.98437 0.52917,2.11667 -3.30729,2.97656 c 0,0 -1.65365,0.8599 -1.98438,1.12448 -0.33073,0.26458 -5.09323,2.3151 -5.09323,2.3151 l -1.05833,0.92605 0.33073,0.39687 6.87917,-3.43958 0.59531,2.57968 3.10885,-1.52135 2.05052,-1.52135 2.05052,-4.7625 0.26459,-3.63802 -1.25677,-3.90261 -2.64584,-2.71198 -0.59531,1.52136 1.45521,1.78593 1.25677,3.3073 c 0,0 -0.26458,2.38125 -0.26458,3.0427 0,0.66146 -0.0662,2.64584 -0.1323,2.91042 -0.0661,0.26458 -0.92604,2.05052 -1.19062,2.18281 -0.26458,0.13229 -2.4474,1.91823 -2.4474,1.91823 l -1.52135,-1.19062 3.43958,-2.31511 1.05834,-1.5875 -0.52917,-3.63802 -1.12448,-1.78593 -1.45521,-0.46303 c 0,0 -2.44739,0.59532 -2.71198,0.72761 -0.26458,0.13229 -0.79375,1.12448 -0.79375,1.12448 0,0 -0.52916,1.19062 -0.52916,0.92604 0,-0.26458 -0.46302,-1.78594 -0.46302,-1.78594 l -1.5875,-0.7276 z"
       id="path2028" /><path
       style="opacity:1;fill:#000000;stroke-width:1;stroke-linecap:round"
       d="m 135.26823,185.14219 -0.33073,1.78593 1.38906,1.25677 1.85208,1.38907 0.92605,0.46302 -1.25678,-2.38125 -0.33072,-1.45521 0.0661,-1.32292 -0.13229,-0.66146 z"
       id="path2030" /><path
       style="opacity:1;fill:#000000;stroke-width:1;stroke-linecap:round"
       d="m 137.38489,169.33333 1.85209,-5.02708 2.57968,4.36562 0.79375,-0.39687 -0.19843,-2.57969 1.71979,-0.26458 0.79375,1.32291 0.59531,2.84427 2.18281,1.32292 c 0,0 0.8599,0.13229 0.79375,0.39688 -0.0661,0.26458 -1.4552,2.38125 -1.4552,2.38125 0,0 0.59531,0.7276 0.59531,1.05833 0,0.33073 -0.33073,0.7276 -0.33073,0.7276 0,0 -2.18281,-1.25677 -2.11667,-0.92604 0.0661,0.33073 0.59531,1.91823 0.59531,1.91823 0,0 1.12448,-0.26458 0.92605,0.0661 -0.19844,0.33073 -1.85209,0.92604 -1.85209,0.92604 l -0.79375,-1.12448 0.0661,-2.11667 1.45521,-0.92604 1.38906,-0.99219 0.19844,-0.85989 c 0,0 -1.52136,-0.26459 -1.78594,-0.19844 -0.26458,0.0661 -0.8599,-0.0662 -0.8599,-0.0662 l -0.26458,-2.3151 -0.46302,-1.85208 -0.33073,-0.26459 -0.19844,1.5875 -0.52916,1.38907 -1.91823,-0.19844 -1.38907,-2.84427 -1.46162,2.69479 c -0.22495,0.21305 -0.42618,0.23633 -0.58885,-0.0489 z"
       id="path2032" /><path
       style="opacity:1;fill:#000000;stroke-width:1;stroke-linecap:round"
       d="m 149.24998,189.52082 -1.35639,-4.58367 5.70621,-0.93545 0.56126,3.55469 1.21608,-1.96443 2.33861,2.24506 -0.0936,3.3676 1.30962,-4.02241 4.2095,-1.02899 c 0,0 3.55468,4.02241 3.55468,4.67722 0,0.65481 -0.8419,2.24506 -1.21607,2.5257 -0.37418,0.28063 -2.99342,0.46772 -2.99342,0.46772 l -1.87089,-1.02899 -1.59025,0.74836 2.99341,5.79975 0.8419,2.89987 0.0935,1.77734 -1.21608,2.43216 0.28063,2.89987 0.37418,1.40316 0.46772,0.8419 -0.28063,0.65481 -1.12253,-1.02898 -1.12253,-0.28064 0.93544,-0.37418 0.0935,-0.65481 -0.46773,-2.24506 -2.05797,-0.37418 -2.33861,-1.49671 -1.21608,-2.3386 -0.74835,-0.46773 0.93544,-1.40316 0.28064,-2.24506 -0.93545,-2.05798 -2.10475,-2.33861 -0.56126,-1.73057 1.1693,-0.8419 2.33861,-0.88867 2.15152,1.30962 c 0,0 1.30962,0.18709 1.40317,-0.18709 0.0935,-0.37417 3.92886,0 3.92886,0 l 0.93544,-0.18708 1.12253,-1.30963 -1.21607,-1.96443 -1.6838,-0.65481 -2.43215,1.59026 -0.93545,1.87088 -1.59025,0.37418 -1.02899,-2.15152 -1.49671,-2.33861 0.74836,3.18051 -1.21608,-0.46772 -0.56126,-2.24507 -0.93545,-2.33861 c -1.12248,-0.59266 -2.19834,-1.21586 -3.695,-0.18708 l 0.84189,4.49012 z"
       id="path2036" /><path
       style="opacity:1;fill:#000000;stroke-width:1;stroke-linecap:round"
       d="m 153.27239,193.87063 0.60804,-0.93544 0.98221,-0.42095 1.21608,0.37418 0.79513,0.56126 0.0468,0.60804 -1.49671,1.96443 -0.70158,0.37418 z"
       id="path2038" /><path
       style="opacity:1;fill:#000000;stroke-width:1;stroke-linecap:round"
       d="m 155.84486,197.05114 1.82411,-1.82412 1.21608,1.12254 c 0,0 1.26285,2.24506 1.40317,2.52569 0.14031,0.28064 0.98221,0.98222 0.65481,0.98222 -0.32741,0 -2.47893,0.74835 -2.47893,0.74835 v 0.8419 l 2.29184,-0.56126 0.70158,1.54348 0.56126,2.15152 -0.60803,1.35639 c 0,0 -0.8419,0.74836 -1.07576,0.60804 -0.23386,-0.14032 -2.15152,-1.87089 -2.15152,-1.87089 l -1.6838,-1.26285 -0.3274,-1.07576 0.60803,-0.88867 0.0468,-1.02899 -0.28064,-0.79512 -0.0468,-0.8419 -0.46772,-0.65481 z"
       id="path2040" /><path
       style="opacity:1;fill:#000000;stroke-width:1;stroke-linecap:round"
       d="m 147.76979,194.66719 2.64583,-0.0661 c 0,0 3.30729,3.30729 3.30729,3.9026 0,0.59532 0.1323,2.11667 0.1323,2.4474 0,0.33073 -0.92605,1.5875 -0.92605,1.5875 l -1.98437,0.26458 -0.13229,-1.98437 1.5875,0.39687 c 0,0 0.7276,0.39688 0.66146,0.13229 -0.0662,-0.26458 -0.1323,-2.91041 -0.1323,-2.91041 l -2.11666,-2.24896 -0.92604,-0.79375 -0.8599,0.46302 -0.0661,1.19063 -0.52916,-0.46303 z"
       id="path2042" /><path
       style="opacity:1;fill:#000000;stroke-width:1;stroke-linecap:round"
       d="m 143.73489,191.42604 1.25677,2.64583 c 0,0 -0.66145,1.65365 -0.79375,2.11667 -0.13229,0.46302 -1.65364,4.10104 -1.65364,4.10104 l -2.71198,3.24115 -1.91823,1.78593 c 0,0 -2.18281,2.71198 -2.24896,2.97657 -0.0661,0.26458 -1.19062,2.11666 -1.32291,2.38125 -0.1323,0.26458 -1.52136,1.71979 -1.52136,1.71979 l -0.19844,0.59531 1.65365,-0.8599 -1.19063,2.38125 1.45521,-1.12447 1.45521,-1.98438 c 0,0 0.79375,-0.7276 0.99219,-1.5875 0.19844,-0.8599 1.05833,-3.57187 1.05833,-3.57187 l 1.38906,-0.46303 c 0,0 1.12448,0.26459 1.12448,-0.0661 0,-0.33073 1.65365,-1.19063 1.65365,-1.19063 l 1.78594,-1.32291 3.04271,-0.39688 2.18281,0.39688 0.85989,0.33073 -1.4552,-2.64584 -2.64584,0.79375 -2.57969,0.59532 -1.5875,1.25677 1.85209,-3.96875 c 0,0 0.66146,-0.79375 1.05833,-0.59532 0.39688,0.19844 2.64583,1.38907 2.64583,1.38907 l 0.26459,-1.19063 -0.99219,-2.77812 -0.33073,-2.38125 -0.92604,-1.85209 z"
       id="path2044" /><path
       style="opacity:1;fill:#000000;stroke-width:1;stroke-linecap:round"
       d="m 145.71927,195.19635 -0.8599,2.18281 1.52136,1.85209 c 0,0 0.39687,0.0661 0.39687,-0.19844 0,-0.26458 -0.19844,-1.98437 -0.19844,-1.98437 z"
       id="path2046" /><path
       style="opacity:1;fill:#000000;stroke-width:1;stroke-linecap:round"
       d="m 141.94896,206.30885 2.71198,-1.78594 2.44739,-0.26458 1.85208,-0.0661 1.05834,1.38907 1.19062,2.3151 c 0,0 -0.13229,1.78594 -0.33073,2.05052 -0.19843,0.26459 -1.25677,1.32292 -1.5875,1.52136 -0.33073,0.19843 -2.44739,1.32291 -2.44739,1.32291 l -0.99219,-1.5875 v -1.25677 l -1.25677,-1.32291 -0.92604,-0.59532 -1.19063,-1.12448 z"
       id="path2048" /><path
       style="opacity:1;fill:#000000;stroke-width:1;stroke-linecap:round"
       d="m 143.33802,206.375 2.11667,-1.05834 1.71979,-0.66145 1.19062,0.46302 1.05834,0.85989 0.66145,2.05052 v 1.65365 l -2.11666,1.32292 -0.72761,0.26458 -0.92604,-1.71979 -0.85989,-1.5875 -0.92605,-0.59532 z"
       id="path2050" /><path
       style="opacity:1;fill:#000000;stroke-width:1;stroke-linecap:round"
       d="m 143.27187,215.63541 0.13229,1.12448 c 0,0 0.99219,0.26459 1.32292,0.39688 0.33073,0.13229 2.24896,0.46302 2.24896,0.46302 l 1.05833,-0.8599 -0.26458,-1.52135 c 0,0 0.8599,-0.72761 0.8599,-0.33073 0,0.39687 0,1.78594 0,1.78594 l 0.7276,-0.59532 -0.33073,1.19063 1.05833,0.26458 v 1.45521 c 0,0 0.1323,-0.66146 0.46302,-0.7276 0.33073,-0.0661 0.79375,-0.13229 0.79375,-0.13229 l 0.19844,0.92604 -1.05833,0.52916 c 0,0 1.25677,0.39688 1.5875,0 0.33073,-0.39687 4.29948,-1.12448 4.69635,-1.4552 0.39688,-0.33073 2.11667,-1.5875 2.11667,-1.5875 0,0 1.19062,-1.38907 1.19062,-1.65365 0,-0.26458 0.46303,-1.32292 0.46303,-1.32292 l -1.12448,-0.7276 -0.72761,-1.98438 -0.59531,-1.65364 -1.12448,-0.26459 -1.05833,0.59532 -1.12448,-1.45521 c 0,0 -2.24896,-0.52917 -2.24896,-0.26458 0,0.26458 -0.33073,1.85208 -0.33073,1.85208 l -1.12448,1.71979 c 0,0 -1.32292,0.79375 -1.71979,0.99219 -0.39688,0.19844 -2.24896,1.5875 -2.24896,1.5875 l -0.85989,1.5875 -0.19844,0.99219 -1.19063,-0.26459 z"
       id="path2052" /><path
       style="opacity:1;fill:#000000;stroke-width:1;stroke-linecap:round"
       d="m 123.09739,242.22604 2.38125,-2.18281 1.19063,-0.8599 3.70417,-1.19062 1.05833,0.26458 0.26458,0.59531 -2.18281,2.71198 -2.05052,1.12448 -1.5875,0.7276 -2.05052,0.8599 -1.12448,-0.19844 z"
       id="path2054" /><path
       style="opacity:1;fill:#000000;stroke-width:1;stroke-linecap:round"
       d="m 123.89114,242.42448 1.38907,-1.25677 0.39687,-0.26459 0.79375,0.99219 c 0,0 -0.26458,0.46302 -0.66146,0.7276 -0.39687,0.26459 -0.99218,0.66146 -0.99218,0.66146 h -1.05834 z"
       id="path2056" /><path
       style="opacity:1;fill:#000000;stroke-width:1;stroke-linecap:round"
       d="m 126.20625,240.77083 1.45521,-0.79375 1.45521,-0.7276 h 0.79375 l 0.52916,-0.0661 -0.79375,0.99219 c 0,0 -1.12448,0.99219 -1.38906,1.19062 -0.26458,0.19844 -1.05833,0.46302 -1.05833,0.46302 z"
       id="path2058" /><path
       style="opacity:1;fill:#000000;stroke-width:1;stroke-linecap:round"
       d="m 74.414062,245.07031 0.859895,-2.18281 c 0,0 0.264584,-0.66146 0.661459,-0.72761 0.396875,-0.0661 2.513541,-0.46302 2.513541,-0.46302 l 1.852084,0.33073 0.396875,1.71979 -0.79375,2.4474 -2.116667,0.13229 h -0.727604 l -0.132292,1.65365 c 0,0 -1.785937,0 -2.182812,0.19843 -0.396875,0.19844 -1.785938,0.33073 -1.785938,0.33073 l -0.06615,-1.85208 0.992188,0.13229 0.727604,0.72761 z"
       id="path2060" /><path
       style="opacity:1;fill:#000000;stroke-width:1;stroke-linecap:round"
       d="m 75.141666,244.54114 0.595312,-1.25677 c 0,0 0.926042,-0.33073 1.190625,-0.33073 0.264584,0 0.595313,-0.19843 0.926042,-0.19843 0.330729,0 1.256771,0.0661 1.256771,0.0661 l 0.661458,0.72761 0.198437,1.12447 -0.793749,0.52917 c 0,0 -0.463021,0 -0.727605,0.0662 -0.264583,0.0661 -0.859895,-0.0662 -1.124479,0.0661 -0.264583,0.13229 -1.256771,0.52917 -1.256771,0.52917 l -1.058333,1.12448 z"
       id="path2062" /><path
       style="opacity:1;fill:#000000;stroke-width:1;stroke-linecap:round"
       d="m 83.740624,208.55781 0.132292,-0.7276 0.46302,-0.1323 0.661459,0.26459 0.132291,0.46302 -0.595312,0.79375 z"
       id="path2064" /><path
       style="opacity:1;fill:#000000;stroke-width:1;stroke-linecap:round"
       d="m 131.69635,183.22396 0.8599,-1.85209 0.59531,-0.99218 0.8599,-0.19844 1.4552,0.46302 0.33073,0.26458 0.39688,-0.59531 0.7276,-2.84427 -1.32291,1.19062 -0.8599,-0.26458 1.38906,-2.18281 1.78594,0.13229 2.38125,-0.13229 -0.0661,1.52135 0.52917,1.38906 -0.19844,0.72761 -0.7276,-1.45521 -0.59531,-1.05833 -0.8599,0.0661 -0.39687,-0.13229 c 0,0 0.0661,1.38906 0.0661,1.71979 0,0.33073 -0.79375,2.05052 -0.85989,2.31511 -0.0662,0.26458 -0.1323,0.85989 -0.1323,1.25677 0,0.39687 0.0661,1.25677 -0.19843,1.19062 -0.26459,-0.0661 -1.38907,-1.25677 -1.38907,-1.25677 l -0.33072,-0.85989 -0.26459,1.5875 -0.79375,0.59531 c 0,0 -0.46302,-0.26458 -0.46302,-0.52917 0,-0.26458 0.26458,-2.11666 0.26458,-2.11666 l -1.52135,2.3151 z"
       id="path2066" /><path
       style="opacity:1;fill:#000000;stroke-width:1;stroke-linecap:round"
       d="m 141.68437,179.05677 v -1.19063 l 0.52917,-0.46302 0.79375,0.26459 0.8599,0.99218 -0.59532,0.66146 -1.12448,0.0661 z"
       id="path2068" /><path
       style="opacity:1;fill:#000000;stroke-width:1;stroke-linecap:round"
       d="m 148.82812,177.8 -0.39687,0.92604 0.52916,0.46302 0.99219,-0.46302 z"
       id="path2070" /><path
       style="opacity:1;fill:#000000;stroke-width:1;stroke-linecap:round"
       d="m 144.39635,183.48854 -0.85989,0.66146 0.59531,0.59531 0.7276,-0.19844 v -0.7276 z"
       id="path2072" /><path
       style="opacity:1;fill:#000000;stroke-width:1;stroke-linecap:round"
       d="m 138.37708,179.12291 0.0661,1.78594 c 0,0 0.66146,1.71979 0.66146,1.98438 0,0.26458 0.33072,1.45521 0.59531,1.5875 0.26458,0.13229 1.38906,1.32291 1.38906,1.32291 l 1.91823,1.91823 1.25677,0.92604 0.46302,0.52917 c 0,0 0.66146,1.05833 0.66146,1.38906 0,0.33073 0.39687,1.45521 0.39687,1.45521 0,0 0.59532,0.39688 0.8599,0.46302 0.26458,0.0661 1.25677,0.26459 1.25677,0.26459 0,0 0.52917,0.85989 0.79375,0.85989 0.26458,0 1.05833,0.39688 1.05833,0.0662 0,-0.33073 0,-1.05834 -0.33072,-1.05834 -0.33073,0 -0.39688,0.1323 -0.66146,-0.0661 -0.26459,-0.19844 -0.72761,-1.25677 -0.72761,-1.25677 l 0.92604,-0.33073 -0.7276,-0.79375 -1.38906,0.33073 -0.26459,0.66146 -0.46302,-0.1323 -0.19843,-1.78593 -0.33073,-1.32292 c 0,0 0.0661,-1.05833 0.46302,-0.46302 0.39687,0.59531 0.79375,1.38906 0.79375,1.38906 l 0.46302,0.39688 0.26458,-0.99219 -0.85989,-2.51354 -0.52917,-0.99219 -0.33073,0.33073 -0.66146,1.52135 -0.39687,0.99219 -0.26459,0.59531 -0.99218,-1.71979 -1.91823,-1.52135 -1.52136,-2.31511 -0.52916,-0.99218 -0.59532,-1.91823 z"
       id="path2074" /><path
       style="opacity:1;fill:#000000;stroke-width:1;stroke-linecap:round"
       d="m 140.95677,181.63646 2.38125,-1.45521 0.99219,-0.66146 0.7276,-0.26458 0.13229,0.52916 -1.05833,1.12448 -0.59531,1.52136 -0.66146,0.92604 -0.52917,0.66146 z"
       id="path2076" /><path
       style="opacity:1;fill:#000000;stroke-width:1;stroke-linecap:round"
       d="m 81.42552,190.16927 c 0.264583,-0.26458 1.349627,-1.42047 1.349627,-1.42047 l 0.634748,-1.09307 c 0,0 0.06615,-0.8599 0.264583,-0.52917 0.198438,0.33073 3.770313,2.18281 3.704167,2.64583 -0.06615,0.46302 1.455208,3.70417 1.455208,3.70417 l 2.513542,5.4901 0.992187,2.31511 -0.198437,0.92604 c 0,0 -0.396875,0.19844 -0.529167,-0.0661 -0.132292,-0.26458 -2.182812,-5.82083 -2.182812,-5.82083 l -1.256771,-2.38125 -0.595313,-1.38906 -1.5875,-0.0661 -1.124479,1.05834 -0.264583,-0.79375 0.330729,-1.05834 1.322917,-0.13229 0.411547,-0.44028"
       id="path2091" /><path
       style="opacity:1;fill:#000000;stroke-width:1;stroke-linecap:round"
       d="m 85.791145,238.32343 h 2.315104 l 2.050521,1.25678 2.315104,1.19062 1.785937,1.38906 0.330729,2.11667 -0.198437,0.8599 -2.38125,-2.18282 -2.513542,-0.66146 -2.645833,-1.78593 z"
       id="path2093" /><path
       style="opacity:1;fill:#000000;stroke-width:1;stroke-linecap:round"
       d="m 86.783332,238.58802 2.248959,0.99219 1.5875,0.85989 0.330729,0.92604 -1.190625,0.39688 -1.389063,-1.25677 -1.389062,-0.66146 z"
       id="path2095" /><path
       style="opacity:1;fill:#000000;stroke-width:1;stroke-linecap:round"
       d="m 91.082811,241.3 1.389063,-0.0662 0.79375,0.72761 0.727604,1.19062 -0.06615,0.79375 -0.859896,-0.7276 -0.727604,-0.99219 -1.124479,-0.26458 z"
       id="path2097" /><path
       style="opacity:1;fill:#000000;stroke-width:1;stroke-linecap:round"
       d="m 116.01979,244.67343 1.5875,-1.71979 1.19063,-0.85989 1.65364,-0.46302 h 1.85208 l 0.46303,0.92604 -1.12448,2.24896 c 0,0 -1.91823,0.66145 -2.51355,0.85989 -0.59531,0.19844 -2.3151,0.46302 -2.3151,0.46302 z"
       id="path2099" /><ellipse
       style="opacity:1;fill:#000000;stroke-width:1;stroke-linecap:round"
       id="path2153"
       cx="118.50026"
       cy="244.27657"
       rx="0.69453126"
       ry="0.66145831" /><ellipse
       style="opacity:1;fill:#000000;stroke-width:1;stroke-linecap:round"
       id="path2155"
       cx="120.65"
       cy="242.7552"
       rx="0.92604166"
       ry="0.79374999" /><path
       style="opacity:1;fill:#000000;stroke-width:1;stroke-linecap:round"
       d="m 120.71614,216.03229 -1.5875,0.26458 -1.32291,0.33073 -0.99219,2.11667 -0.52917,2.71198 0.59532,1.91823 c 0,0 0.99218,1.19062 1.05833,1.52135 0.0662,0.33073 0.52917,1.45521 0.52917,1.45521 l -1.38907,2.44739 h 0.8599 l 1.71979,-2.57968 c 0,0 0.66146,-2.84427 0.8599,-3.175 0.19843,-0.33073 2.3151,-2.91042 2.3151,-2.91042 l 0.52917,-2.38125 3.50573,-3.10885 0.99218,-1.7198 0.92605,-1.25677 0.59531,-1.85208 -0.59531,-0.7276 -0.8599,0.99218 0.26458,1.32292 -1.25677,2.18281 -2.3151,1.5875 -0.13229,0.52917 -2.51354,-2.91042 -2.11667,-1.38906 -0.52917,-0.59531 -0.19844,-0.52917 0.92605,-0.85989 -0.59532,-1.7198 0.0661,-1.71979 -0.52917,-2.05052 -0.66146,-1.45521 -0.7276,-1.25677 -0.92604,-0.39687 -0.46302,-0.0661 -0.99219,0.59531 -0.66146,1.05834 0.66146,0.52916 0.59531,-1.38906 0.72761,-0.13229 c 0,0 1.05833,1.25677 1.05833,1.5875 0,0.33073 0.92604,1.91823 0.92604,1.91823 l 0.33073,0.92604 0.13229,1.85208 c 0,0 -0.19843,1.19063 -0.39687,1.45521 -0.19844,0.26459 -0.46302,1.32292 -0.46302,1.32292 l -0.13229,0.52917 1.91822,1.5875 1.65365,1.5875 1.45521,1.65364 0.46302,0.52917 -0.26458,0.66146 z"
       id="path2157" /><path
       style="opacity:1;fill:#000000;stroke-width:1;stroke-linecap:round"
       d="m 116.94583,220.6625 1.65365,-3.10886 1.38906,-0.79375 1.32292,0.59532 0.7276,0.39687 c 0,0 -1.32292,1.98438 -1.38906,2.24896 -0.0662,0.26458 -0.92604,2.24896 -0.92604,2.24896 l -1.19063,1.32291 -0.85989,-0.85989 z"
       id="path2159" /><path
       style="opacity:1;fill:#000000;stroke-width:1;stroke-linecap:round"
       d="m 94.720832,218.01666 1.984375,-0.66145 c 0,0 1.190625,0.19843 1.455208,0.39687 0.264584,0.19844 0.992188,1.05833 0.992188,1.05833 l 0.330729,1.52136 -0.06615,1.65364 -0.396875,1.98438 c 0,0 -0.264583,0.99219 -0.463021,0.46302 -0.198437,-0.52917 -1.984375,-4.36563 -1.984375,-4.36563 z"
       id="path2161" /><ellipse
       style="opacity:1;fill:#000000;stroke-width:1;stroke-linecap:round"
       id="path2163"
       cx="132.62239"
       cy="208.98776"
       rx="0.79374999"
       ry="1.0252604" /><path
       style="opacity:1;fill:#000000;stroke-width:1;stroke-linecap:round"
       d="m 93.876986,215.17641 0.727604,0.39687 1.719792,-2.05052 1.785937,-1.98437 0.926042,-0.99219 -0.595313,-1.05833 0.463021,-2.51355 0.658134,-3.26384 0.4002,-1.5648 0.727597,-0.66146 2.51355,1.32292 0.99218,3.0427 c 0,0 0.99219,3.50573 1.05834,3.90261 0.0661,0.39687 0.52916,2.77812 0.52916,3.10885 0,0.33073 0.19844,3.30729 0.19844,3.30729 l -0.26458,2.57969 -0.26459,1.32292 0.8599,-0.72761 0.33073,-1.78593 c 0,0 -0.13229,-2.05052 -0.13229,-2.51354 0,-0.46303 -0.13229,-3.43959 -0.13229,-3.70417 0,-0.26458 -1.38907,-4.29948 -1.38907,-4.29948 l -0.46302,-3.30729 -0.92604,-1.98438 -2.11667,-1.12448 -1.521347,0.46302 -0.595313,1.5875 -1.058333,4.10105 c 0,0 -0.264584,1.65364 -0.264584,1.91823 0,0.26458 0.132292,1.4552 0.132292,1.4552 l 0.198438,0.66146 -2.248959,1.65365 z"
       id="path2165" /><path
       style="opacity:1;fill:#000000;stroke-width:1;stroke-linecap:round"
       d="m 130.4008,215.90032 1.02899,1.12253 1.02899,0.28064 0.46772,-0.46772 1.21607,4.0224 -0.74835,4.67722 -1.96443,-2.05798 -2.99342,-0.46772 -1.77734,0.37418 -1.49671,2.89987 c 0,0 -2.05798,3.64823 -2.05798,4.02241 0,0.37418 -0.93544,3.46114 -0.93544,3.46114 0,0 -0.46772,0.65481 0.18709,0.65481 0.65481,0 1.96443,0.37418 2.15152,-0.18709 0.18709,-0.56127 1.12253,-3.64823 1.12253,-3.64823 0,0 1.02899,-0.74835 1.30962,-0.28063 0.28063,0.46772 1.30962,2.05797 1.40316,2.43215 0.0936,0.37418 0.8419,1.59026 0.8419,1.96443 0,0.37418 -0.8419,2.33861 -1.30961,2.43216 -0.46773,0.0935 -3.3676,0.56126 -3.83532,0.8419 -0.46773,0.28063 -4.58368,2.05797 -4.58368,2.05797 0,0 -0.8419,0.18709 -1.02898,0.65481 -0.18709,0.46772 -3.08697,5.23848 -3.08697,5.23848 l -0.18708,1.6838 1.12253,0.28063 0.74835,0.74836 -1.49671,0.46772 -1.12253,-0.65481 -5.7062,6.64165 -5.98684,-6.17393 -2.05798,0.28064 c 0,0 -0.18709,-1.12254 0.28064,-1.30963 0.46772,-0.18708 1.87088,-0.37417 1.87088,-0.37417 l -3.086959,-5.8933 -0.935445,-1.59025 -5.706205,-1.59025 -9.167344,-4.2095 -1.964431,-7.01582 -2.80633,-4.39659 -1.683797,-1.68379 0.654809,-0.56127 1.777344,0.8419 1.403165,-0.56127 c 0,0 0.841899,-0.93544 0.841899,-0.18709 0,0.74836 0.374176,3.74178 0.374176,3.74178 l 1.216078,3.36759 c 0,0 0.46772,1.30962 0.46772,1.87089 0,0.56127 0.09355,1.40316 0.187089,1.87088 0.09354,0.46773 0.841899,1.87089 0.841899,1.87089 0,0 0.467723,1.02899 0.841899,1.12253 0.374176,0.0936 1.122532,0.37418 1.122532,0.37418 l -1.122532,-4.30304 -0.280633,-2.89987 v -1.59025 l 0.935442,-1.59026 2.15152,-0.56127 2.245064,2.33861 -0.09354,2.89988 c 0,0 -2.245064,0.37417 -2.432153,1.02899 -0.187087,0.65481 -0.841899,3.36759 -0.841899,3.36759 l 0.561266,1.40317 1.122531,1.21607 c 0,0 -0.09354,-0.56126 -0.09354,-1.59025 0,-1.02899 0.748355,-3.08697 0.748355,-3.08697 l 1.028986,-1.4967 c 0,0 0.748356,0.74835 1.028988,1.30962 0.280633,0.56126 1.870888,3.74177 1.870888,3.74177 l 1.496708,-0.93544 c 0,0 0.09355,-1.21608 -0.374176,-1.96443 -0.467723,-0.74836 -2.33861,-2.33861 -2.619243,-3.27406 -0.280633,-0.93544 -1.309619,-4.0224 -1.309619,-4.0224 l -1.309621,-1.49671 -1.964431,-0.65481 -1.683798,0.28063 c 0,0 -1.028988,0.0935 -1.403164,0.74836 -0.374179,0.65481 -0.748356,2.05797 -0.748356,2.05797 l -1.216078,-0.28063 0.280636,-3.55469 0.187087,-3.27405 v -0.93544 c 0,0 0.748355,-0.0935 0.280633,-1.21608 -0.46772,-1.12253 -2.057974,-3.46114 -2.057974,-3.46114 l -1.403165,-1.87088 0.374176,-0.56127 3.461142,4.11595 1.496708,1.96443 1.122532,-0.46772 1.683798,1.12253 4.11595,6.5481 2.245064,6.08039 c 0,0 2.057977,3.36759 2.15152,3.74177 0.09354,0.37418 1.590255,3.64823 1.590255,3.64823 l 2.057974,4.20949 1.87089,4.11595 2.5257,4.95785 2.99342,2.05798 1.87088,-0.37418 4.58367,-7.48354 3.74178,-5.51912 c 0,0 2.43215,-4.58367 2.43215,-4.95785 0,-0.37418 1.77734,-5.23848 1.77734,-5.23848 l 0.8419,-4.2095 3.08697,-4.20949 3.46114,-3.08697 z"
       id="path2181" /><path
       style="opacity:1;fill:#000000;stroke-width:1;stroke-linecap:round"
       d="m 133.58131,216.74222 c 0.46772,0 1.49671,-0.65481 1.49671,-0.65481 l 0.28063,-2.05797 2.61924,-3.27406 1.40317,1.87089 0.37418,-3.18051 1.40316,-1.87088 0.8419,-1.12253 -0.0936,1.87088 1.12254,1.21608 2.05797,1.12253 0.46772,1.30962 0.46772,0.93544 -0.37417,1.30962 -0.8419,-1.87088 -1.6838,2.15152 -0.93544,1.02898 -0.65481,1.21608 1.30962,1.02899 0.46772,0.74835 -1.40317,0.0935 -0.93544,-1.77734 -0.18709,1.02898 -0.56126,1.30962 -0.46772,0.28064 -1.21608,-1.02899 -1.40317,1.02899 -1.02899,1.59025 c 0,0 0.28064,0.46772 0.65482,0.28063 0.37417,-0.18708 2.43215,-0.93544 2.43215,-0.93544 l -0.18709,1.6838 c 0,0 -2.33861,2.52569 -2.33861,2.89987 0,0.37418 -0.74835,3.27406 -0.74835,3.27406 0,0 -1.40317,1.4967 -1.59026,1.96443 -0.18709,0.46772 -0.74835,2.99342 -0.74835,2.99342 l -0.65481,1.87088 -1.87089,0.56127 -0.18709,-1.59026 2.61924,-5.23848 1.49671,-3.92886 0.46772,-2.71279 -1.30962,-2.61924 z"
       id="path2187" /><path
       style="opacity:1;fill:#000000;stroke-width:1;stroke-linecap:round"
       d="m 137.41663,212.81336 v 1.40316 l 1.02898,-0.18708 z"
       id="path2189" /><path
       style="opacity:1;fill:#000000;stroke-width:1;stroke-linecap:round"
       d="m 138.91334,217.39703 c 0.28063,-0.56126 1.77734,-2.24506 1.77734,-2.24506 l 1.02899,-2.05798 -0.37418,-1.96443 0.18709,-1.40316 2.24506,1.21607 0.18709,1.21608 -1.40317,2.24506 z"
       id="path2191" /><path
       style="opacity:1;fill:#000000;stroke-width:1;stroke-linecap:round"
       d="m 143.12283,231.24159 c 0,0.37418 1.6838,3.92887 1.12253,4.86431 -0.56126,0.93544 -0.74835,4.20949 -0.74835,4.20949 0,0 -0.8419,0.65481 -1.40317,0.56127 -0.56126,-0.0935 -3.08696,-0.8419 -3.08696,-0.8419 l -1.30962,-0.74835 -0.8419,0.65481 0.93544,-1.96443 1.6838,-2.61925 c 0,0 0.56127,-0.93544 1.02899,-0.93544 0.46772,0 2.43215,-0.46772 2.43215,-0.46772 l -0.56126,-1.87089 -2.24507,0.37418 -1.40316,0.8419 c 0,0 -1.40317,0.8419 -1.40317,1.21607 0,0.37418 0.18709,1.30963 0.18709,1.30963 l 0.28063,1.30962 -1.21607,1.77734 -1.02899,0.37418 0.18709,-1.40317 0.37417,-1.87089 0.37418,-1.59025 1.00561,-1.80073 1.70718,-0.91206 c 0,0 1.49671,-0.56126 2.15152,-0.56126 0.65481,0 1.77734,0.0935 1.77734,0.0935 z"
       id="path2193" /><path
       style="opacity:1;fill:#000000;stroke-width:1;stroke-linecap:round"
       d="m 138.3053,238.37435 c 0.0702,-0.23386 0.93544,-1.61364 0.93544,-1.61364 l 0.98222,-0.91206 c 0,0 0.35079,-0.67819 0.44433,-0.70158 0.0935,-0.0234 1.66041,-0.18709 1.66041,-0.18709 0,0 0.46772,0.0468 0.63143,0.1637 0.1637,0.11693 0.44433,0.5145 0.44433,0.5145 0,0 -0.28063,1.12253 -0.30402,1.49671 -0.0234,0.37417 -0.0234,1.19269 -0.0234,1.40316 0,0.21047 0.0935,0.39756 -0.0234,0.56127 -0.11693,0.1637 -1.3564,0.44433 -1.3564,0.44433 0,0 -0.63142,-0.18709 -0.81851,-0.1637 -0.18709,0.0234 -0.95883,-0.0234 -0.95883,-0.0234 l 0.37418,-0.88867 c 0,0 0.0702,-0.60804 0.32741,-0.53788 0.25724,0.0702 1.61363,0.28063 1.61363,0.28063 0,0 0.42095,-0.23386 0.46773,-0.35079 0.0468,-0.11693 0.0234,-0.8419 0.0234,-0.8419 l -0.0935,-0.98221 -0.18709,-0.65481 -0.72497,-0.14032 -0.25724,0.37418 c 0,0 -0.0468,0.35079 0.14031,0.35079 0.18709,0 0.46772,-0.0702 0.49111,0.23386 0.0234,0.30402 0.0468,0.53788 0.0234,0.65481 -0.0234,0.11693 0,0.37418 -0.14032,0.42095 -0.14031,0.0468 0.0468,0.11693 -0.42095,0.11693 -0.46772,0 -0.46772,0.0468 -0.44433,-0.11693 0.0234,-0.1637 -0.14032,-1.09914 -0.14032,-1.09914 l -0.0702,-0.3508 c 0,0 -0.21047,-0.0468 -0.30402,0.18709 -0.0935,0.23386 -0.42095,0.91206 -0.42095,0.91206 0,0 -0.28063,0.74835 -0.35079,0.88867 -0.0702,0.14032 -0.4911,0.91206 -0.4911,0.91206 l -0.14032,0.30401 z"
       id="path2195" /><path
       style="opacity:0.7;fill:#000000;stroke-width:1;stroke-linecap:round"
       d="m 85.39427,157.82396 1.653646,-2.51355 1.984375,-0.19843 1.653645,1.05833 3.638021,2.38125 2.38125,3.43958 1.058333,2.31511 0.595313,-0.13229 -0.198438,-2.11667 c 0,0 -1.785937,-2.4474 -2.116666,-2.71198 -0.330729,-0.26458 -2.447396,-2.77812 -2.447396,-2.77812 l -2.447396,-1.32292 -3.638021,-0.66146 -2.315104,0.7276 z"
       id="path2217" /><path
       style="opacity:0.7;fill:#000000;stroke-width:1;stroke-linecap:round"
       d="m 118.86406,163.04948 1.91823,-4.10104 c 0,0 1.52135,-1.85209 1.98438,-2.11667 0.46302,-0.26458 2.91041,-1.05833 2.91041,-1.05833 l 2.91042,-0.0661 c 0,0 1.78594,0.13229 2.05052,0.19844 0.26458,0.0661 1.85208,1.12448 1.85208,1.12448 l -0.13229,1.19062 -1.12448,-0.52917 -1.38906,-1.32291 -3.63802,0.46302 -1.91823,0.92604 c 0,0 -1.78594,0.8599 -1.78594,1.12448 0,0.26458 -1.12448,1.5875 -1.12448,1.5875 l -1.12448,1.5875 z"
       id="path2219" /><path
       style="opacity:0.7;fill:#000000;stroke-width:1;stroke-linecap:round"
       d="m 153.78906,156.89791 0.26458,2.57969 0.1323,1.52136 1.19062,0.33073 1.19063,-0.0661 -1.91823,0.7276 -1.78594,0.33073 1.65364,0.59532 0.92605,0.39687 1.38906,-1.32292 0.66146,-0.59531 0.59531,1.5875 c 0,0 -0.0661,0.66146 -0.39688,0.66146 -0.33072,0 -1.52135,-0.13229 -1.52135,-0.13229 l -0.19844,0.79375 1.52136,0.46302 c 0,0 0.92604,-0.0661 0.92604,0.19844 0,0.26458 0.33073,1.19062 0.33073,1.19062 l -2.11667,-0.46302 0.79375,1.05833 1.42214,1.05834 1.22369,0.99219 -1.52135,0.59531 1.42213,0.92604 -0.13228,0.95911 c -0.24557,0.72955 0.71882,3.72856 1.98437,3.57188 0.44035,-0.0545 3.04271,0.33073 3.04271,0.33073 0,0 2.18281,0.29765 2.38125,0.56224 0.19844,0.26458 2.21588,0.85989 2.21588,0.85989 0,0 1.25677,0.52917 0.46302,0.52917 -0.79375,0 -5.82083,-1.78594 -5.68853,-1.52135 0.13229,0.26458 0.33073,1.91822 0.33073,1.91822 l -2.01746,-0.29766 -1.32291,-1.78593 c 0,0 -0.23152,0.72761 -0.16537,1.05834 0.0661,0.33073 1.35599,1.71978 1.62057,1.78593 0.26459,0.0661 1.45521,0.0992 1.45521,0.0992 0,0 1.42214,0.26458 1.15756,0 -0.26458,-0.26458 -0.56224,-2.24896 -0.29766,-2.05052 0.26458,0.19844 3.60836,1.01598 3.86953,1.05833 l 2.4474,0.39688 -0.8599,-1.32292 c 0,0 -3.50573,-1.65364 -4.03489,-1.5875 -0.52917,0.0662 -3.90261,-0.59531 -4.16719,-0.66146 -1.27892,0.56182 -2.19004,-2.92327 -1.35599,-3.43958 l -0.52917,-2.38125 c 0,0 -0.76068,-2.77813 -0.89297,-3.37344 -0.13229,-0.59531 -0.90951,-3.32383 -0.90951,-3.32383 l -0.46302,-1.32291 c -0.8401,0.25441 -1.64375,0.53069 -2.91041,0.52916 -0.40163,0.10041 -0.74459,-2.36047 -0.66146,-2.71197 0.0761,-0.32185 0.13229,-1.25678 0.13229,-1.25678 0,0 -0.45637,-0.86321 -0.12565,-1.06165 2.92046,-0.94396 -1.28573,-2.05626 0.64493,-1.43867 l -1.38906,0.79375 c 0,0 -0.0728,1.98769 -0.007,1.65696 z"
       id="path2221" /><path
       style="display:inline;opacity:0.565141;fill:#1c71d8;stroke-width:0.1;stroke-linecap:round"
       d="m 123.64359,200.89987 c 0.85307,0.75582 1.64905,1.62264 2.71527,2.07661 0.79687,0.44784 1.41458,1.10368 1.8972,1.86668 0.61847,0.59339 0.94896,1.3935 0.9483,2.24838 0.17203,0.80017 -0.1466,1.53828 -0.71915,2.08712 -0.47468,0.5058 -0.9154,1.01827 -1.26624,1.62123 -0.89144,0.74466 -1.14646,1.97461 -1.87946,2.85162 -0.0917,0.49385 -0.58787,1.29109 -0.83469,0.43824 -0.66043,-1.05288 -1.32928,-2.10654 -2.07196,-3.10308 -0.37069,-0.86323 -1.49768,-0.77647 -1.91092,-1.53195 -0.217,-0.68465 -0.29921,-1.66499 0.42689,-2.06852 0.79584,-0.77775 1.30875,-1.80476 2.19297,-2.49542 0.67301,-0.85821 0.18609,-2.05252 0.43166,-3.04855 0.0279,-0.54879 0.0451,-1.01892 0.45008,-1.38545"
       id="path1747-8" /><path
       style="display:inline;opacity:0.565141;fill:#1c71d8;stroke-width:0.1;stroke-linecap:round"
       d="m 104.07384,192.91997 c 1.56713,1.68645 3.53088,3.53578 2.86477,6.05442 -0.49522,2.06951 1.83612,3.88756 1.56926,5.98498 -0.3305,2.40825 1.09497,4.51462 0.78003,6.921 -0.0999,1.25128 1.87856,1.51394 1.04216,0.0411 0.0964,-2.61754 0.5061,-4.82536 0.51937,-7.31279 0.28692,-1.85864 1.61614,-3.60326 1.26612,-5.5142 -0.9629,-1.69256 0.72555,-2.98426 1.3369,-4.43645 1.56079,-1.21249 2.30385,-2.97618 2.09916,-5.01442 0.0237,-0.92257 0.0625,-1.68335 -0.49251,-0.45364 -0.9021,1.76249 -3.12612,2.08235 -4.15255,3.65427 -0.52595,2.04413 -3.61257,1.52747 -3.46772,-0.57276 -0.41129,-1.74239 -1.86382,-3.1679 -3.0671,-4.37248 -0.6218,1.43829 -1.43588,3.86933 -0.29789,5.02094 z"
       id="path1761-4" /><path
       id="path1662-3"
       style="display:inline;opacity:0.565141;fill:#1c71d8;stroke-width:0.1;stroke-linecap:round"
       d="m 106.26686,192.878 c 0.48804,1.87877 2.45747,3.15477 2.51819,5.12992 -0.0284,0.44058 0.19137,0.83656 0.47646,1.08469 v 0.002 c 3.6e-4,-3.1e-4 6.7e-4,-7.1e-4 0.001,-10e-4 0.28509,-0.24813 0.50492,-0.6441 0.47646,-1.08469 0.0607,-1.97515 2.03015,-3.25115 2.51819,-5.12992 l -0.27854,0.11421 -0.24391,0.15916 c -0.57089,0.89888 -1.52921,1.55383 -2.4722,1.58647 v -0.001 c -0.94332,-0.0322 -1.90213,-0.68725 -2.47323,-1.58646 l -0.24392,-0.15917 z" /><path
       style="display:inline;opacity:0.565141;fill:#1c71d8;stroke-width:0.1;stroke-linecap:round"
       d="m 85.264061,184.19639 c 1.45346,0.27744 2.50394,-0.32365 6.44975,0.93197 3.503455,3.14992 2.523261,6.54971 3.161771,10.08379 0.331104,1.212 0.551608,2.48215 1.140076,3.59931 0.343736,1.02035 -0.365624,1.19169 -1.594764,1.91731 -0.796272,0.40477 -1.464492,0.84145 -1.455512,-0.22845 -0.268494,-0.71163 0.0208,-1.49319 -0.400726,-2.22249 -0.471256,-0.88728 -0.0597,-2.07614 -0.445316,-2.9695 -0.364069,-0.8672 -1.058269,-1.76913 -1.217669,-2.6978 0.0438,-0.8741 -2.19555,-2.15847 -0.64522,-2.36501 -0.37567,-0.83954 -1.55986,-1.50768 -2.33241,-2.16359 -0.98951,-0.81087 -2.17066,-1.34563 -3.15053,-2.17738 -0.77376,-0.78126 -0.27063,-1.14177 0.49055,-1.70816 z"
       id="path1733-5" /><path
       style="display:inline;opacity:0.565141;fill:#1c71d8;stroke-width:0.1;stroke-linecap:round"
       d="m 119.17477,191.29796 c 0.2777,-0.89749 0.91869,-1.57483 1.59022,-2.17784 0.68196,-0.49297 1.55806,-0.78715 2.38559,-0.85469 0.73558,0.17594 1.477,0.69734 1.68455,1.47018 0.40294,0.72233 0.18836,1.48633 -0.0263,2.23348 -0.24119,1.29995 -0.73998,2.54124 -0.99012,3.83678 -0.19159,0.90456 -0.38181,1.81006 -0.73471,2.66848 0.13806,1.16715 -1.07371,0.91361 -1.70485,0.44391 -0.63759,-0.3701 -1.61876,-0.111 -2.03609,-0.81791 -0.14335,-0.93177 0.22813,-1.87724 0.14134,-2.8276 -0.12106,-1.2014 0.35966,-2.45903 -0.11907,-3.61452 -0.0554,-0.12514 -0.14262,-0.23185 -0.19057,-0.36027 z"
       id="path1735-4" /><path
       style="display:inline;opacity:0.565141;fill:#1c71d8;stroke-width:0.1;stroke-linecap:round"
       d="m 124.28536,188.48951 c 0.74297,-1.26128 1.33473,-2.61731 2.16487,-3.82974 0.93322,-0.7621 2.06984,-0.94992 3.21245,-1.27898 1.66287,-0.53353 3.00527,1.24638 2.07467,2.66142 -0.855,0.91442 -1.95114,1.62742 -2.46635,2.82872 -0.47546,0.67683 -0.89706,2.17445 0.53704,1.65551 1.05375,0.55227 -0.73714,1.85253 -1.07272,2.56508 -0.90021,1.75675 -1.70433,3.59106 -2.48213,5.40109 -0.38753,1.13755 -0.62767,3.5711 -2.19264,2.50321 -1.49969,-0.94191 -0.5933,-2.49472 -0.32408,-3.82073 0.41963,-1.72381 1.21469,-3.37598 1.21178,-5.18504 0.0569,-1.073 0.78831,-3.22042 -0.66289,-3.50054 z"
       id="path1737-2" /><path
       style="display:inline;opacity:0.565141;fill:#1c71d8;stroke-width:0.1;stroke-linecap:round"
       d="m 125.94013,174.06343 c 1.13363,-0.0666 1.72753,-0.2375 2.6639,0.55936 1.36437,0.99907 2.04595,2.7383 2.29061,4.06251 0.20625,0.75157 -0.0683,1.50968 -0.0687,2.27097 -0.11398,0.81931 0.3382,1.54459 -0.0501,2.31533 -0.75284,-0.63785 -4.43332,0.92052 -4.58908,1.00228 0.63537,-1.32594 0.28888,-2.82785 0.31663,-4.23804 -0.0484,-0.8798 0.16957,-1.7464 0.0623,-2.63049 0.02,-0.76873 0.16364,-1.5856 -0.23212,-2.29566 0.0241,-0.39834 -0.34737,-0.66589 -0.39344,-1.04626 z"
       id="path1739-1" /><path
       style="display:inline;opacity:0.565141;fill:#1c71d8;stroke-width:0.1;stroke-linecap:round"
       d="m 125.86428,176.72955 c 0.39911,1.78926 0.069,3.0694 -0.78805,4.67002 -0.71366,0.46636 -1.23538,1.71952 -2.17847,0.74286 -1.36722,0.0127 -1.33342,1.8263 -0.87355,2.74643 0.30195,0.81605 0.0532,2.57575 1.38056,2.32675 0.74491,-0.36522 1.93592,-0.8824 1.24121,0.46234 -3.6324,0.0725 -6.00313,3.30503 -5.83737,2.627 -0.0184,-2.05193 -0.2931,-4.1362 -0.01,-6.17271 0.48419,-1.74287 0.5948,-3.55875 0.69929,-5.34788 0.54856,-1.18214 2.00658,-1.44952 2.95147,-2.23369 1.22404,-0.57693 1.64692,-0.73289 2.60201,-1.6735 l 0.55172,1.19763 z"
       id="path1741-5" /><path
       style="display:inline;opacity:0.565141;fill:#1c71d8;stroke-width:0.1;stroke-linecap:round"
       d="m 118.25751,190.06088 c -0.73495,-0.23416 -1.13954,-0.97821 -1.83451,-1.22679 -1.02035,-0.2084 -0.58282,-1.45191 -0.77542,-2.19534 -0.0648,-0.92844 -0.29925,-2.07883 0.47677,-2.78573 0.54825,-0.55991 0.26819,-1.41526 0.65857,-2.02984 0.66821,-0.5702 0.31692,-1.37084 0.42375,-2.09794 0.27915,-0.6364 1.05852,-1.0178 1.70186,-1.20474 0.40422,0.42508 0.0563,1.24904 0.17262,1.83302 -0.0116,0.89813 0.10477,1.82356 -0.25914,2.67279 -0.31782,0.77303 -0.47528,1.61611 -0.37675,2.45259 0.0348,1.16841 -0.0912,2.34595 0.12559,3.49953 -0.0991,0.29724 0.33403,0.98978 0.003,1.08255"
       id="path1743-3" /><path
       style="display:inline;opacity:0.565141;fill:#1c71d8;stroke-width:0.1;stroke-linecap:round"
       d="m 118.10786,198.86491 c 0.71859,-0.41905 1.89063,0.0183 2.45873,0.56865 0.67986,0.47642 1.32991,0.95272 1.99051,1.4469 0.48916,0.40858 0.92423,1.11158 0.72415,1.77016 -0.53602,0.84683 -0.70574,1.88064 -1.22215,2.74831 -0.35251,0.5702 -0.6091,1.21425 -1.11177,1.63001 -0.42477,0.3205 -1.11675,1.17395 -1.14847,0.12746 0.0887,-0.876 -0.0135,-1.74047 -0.0255,-2.61669 -0.20462,-0.84836 -0.0581,-1.75919 -0.26897,-2.60417 -0.19248,-0.83097 -0.93645,-1.58548 -1.8694,-1.55797 -3.05358,-0.33103 -0.0959,-1.20237 0.47287,-1.51266 z"
       id="path1745-4" /><path
       style="display:inline;opacity:0.565141;fill:#1c71d8;stroke-width:0.1;stroke-linecap:round"
       d="m 93.243956,201.65986 c -1.903335,1.01744 -3.531635,4.4354 -2.985305,7.56716 1.07289,10.44001 4.302785,0.78067 7.085907,1.49713 1.395922,-1.79947 0.339846,-4.11756 -1.073866,-5.51553 -0.782382,-1.55592 -0.515058,-3.75132 -3.026736,-3.54876 z"
       id="path1749-6" /><path
       style="display:inline;opacity:0.565141;fill:#1c71d8;stroke-width:0.1;stroke-linecap:round"
       d="m 96.434656,200.10352 c 0.961284,-0.46883 1.917918,-1.00945 2.76929,-1.1369 1.982264,-0.38934 -0.76534,1.84906 -0.558808,2.97372 -0.512798,1.4731 -0.0313,2.76112 -0.293984,4.33852 -0.968684,0.85914 -1.223028,-0.75498 -1.768726,-1.37638 -0.504488,-0.91556 -0.911534,-2.23767 -1.410452,-3.07176 0.230124,-0.58189 0.434896,-1.28811 1.26268,-1.7272 z"
       id="path1751-9" /><path
       style="display:inline;opacity:0.565141;fill:#1c71d8;stroke-width:0.1;stroke-linecap:round"
       d="m 96.283932,199.18989 c 0.0471,-0.78557 -0.0583,-1.56506 -0.352674,-2.29785 -0.371706,-0.7737 -0.139932,-1.6367 -0.385826,-2.432 -0.513828,-1.62001 -0.971926,-3.27549 -1.053796,-4.98068 0.852292,0.0909 1.611144,-0.433 2.425126,0.0968 2.693672,1.53571 4.052878,9.63483 2.345646,9.19632 -0.982666,0.22038 -1.870518,0.88899 -2.915284,0.79738 -0.0408,-0.12286 -0.0423,-0.25327 -0.0632,-0.37989 z"
       id="path1753-0" /><path
       style="display:inline;opacity:0.565141;fill:#1c71d8;stroke-width:0.1;stroke-linecap:round"
       d="m 93.180626,174.93353 c 1.423572,0.44708 3.33826,0.23243 4.202804,1.73403 0.610048,1.30467 1.886458,2.16465 2.03714,3.60246 0.191634,1.82871 0.69545,3.39395 1.05012,5.23723 0.0553,1.40406 0.20951,2.80736 -0.0402,4.20104 0.19354,1.93934 -1.557668,1.46198 -2.39961,0.41041 -1.023916,-0.65328 -2.477248,-1.83372 -1.390502,-3.11364 1.098226,-1.36332 1.33619,-3.63104 -0.134952,-4.83324 -1.197178,-1.28838 -3.161788,-1.73563 -3.224488,-3.8206 -0.262164,-1.20683 -0.133352,-3.41769 -0.100322,-3.41769 z"
       id="path1765-4" /><path
       style="display:inline;opacity:0.565141;fill:#1c71d8;stroke-width:0.1;stroke-linecap:round"
       d="m 100.21055,191.90665 c 0.77257,-0.94502 1.46158,-0.69225 2.59687,-1.02257 0.75389,0.0782 0.6891,1.54929 0.97259,2.36089 -0.63309,0.27997 -1.5257,1.47377 -1.23349,2.78247 0.40925,0.403 0.59028,1.42211 1.08397,1.8324 0.45618,1.11157 2.18684,0.80231 2.69732,1.16894 0.29339,0.14946 0.55528,1.18954 0.65921,1.99763 0.42008,1.20754 0.52457,2.61486 0.992,3.85494 0.38455,1.28955 10e-4,2.63995 0.21155,3.93952 0.38562,0.73688 0.57667,1.69375 0.82657,2.52884 0.2384,1.10803 0.24485,2.11732 0.26484,3.22124 -0.077,1.40316 0.19365,2.8554 -0.21681,4.2167 -0.0871,0.92883 0.0443,2.27651 -0.92988,2.76053 -1.00159,0.47339 -2.03699,0.96053 -2.79012,1.77802 -2.15382,1.44785 1.18914,-3.46855 1.33429,-4.59704 0.12027,-1.11557 0.41848,-2.17274 0.4189,-3.30904 0.0285,-1.05904 -0.0135,-2.02438 0.11506,-2.99395 0.29956,-2.42966 -0.7114,-4.79305 -1.14358,-6.8451 -0.35017,-1.2746 -0.63525,-2.53395 -1.24906,-3.68945 -0.36321,-1.02295 -1.54463,-2.54166 -2.07478,-2.93998 -0.44747,-0.38989 -1.72428,-0.31919 -2.27106,-1.04793 -0.620168,-0.88893 -0.20272,-2.03293 -0.35896,-3.09312 -0.152312,-1.02719 0.40527,-1.97891 0.0947,-2.90394 z"
       id="path1755-5" /><path
       style="display:inline;opacity:0.565141;fill:#1c71d8;stroke-width:0.1;stroke-linecap:round"
       d="m 115.96697,190.45562 c -0.95405,2.39391 2.03886,5.35069 -0.21168,7.19937 -1.99212,1.30435 -3.93297,3.15166 -3.32973,5.77941 0.51001,2.9195 -2.13839,4.71122 -1.85552,7.57759 0.3817,2.44278 0.18937,5.04803 -0.8834,7.29864 -0.85521,2.43104 1.20525,3.06454 2.50281,4.45334 1.91125,1.65481 0.30887,-2.24446 0.0558,-3.05816 -9.9e-4,-3.02217 -1.01497,-6.57711 0.12985,-9.46693 0.67883,-2.52116 1.40281,-4.71589 1.86955,-7.27764 0.35946,-2.25028 1.65341,-3.72682 4.27561,-4.53901 0.76749,-1.86629 0.49539,-4.02741 0.63527,-6.01056 -0.24943,-1.64382 -1.46182,-3.74889 -3.25199,-2.27276"
       id="path1759-6" /><path
       style="display:inline;opacity:0.565141;fill:#1c71d8;stroke-width:0.1;stroke-linecap:round"
       d="m 85.897391,183.23009 c 0.74007,-0.83909 1.37509,-1.6878 1.78208,-2.78338 0.64923,-1.19403 1.04998,-2.55231 0.8729,-3.91847 -0.0286,-0.98785 0.53843,-1.9193 1.2083,-2.60804 0.94435,-0.18947 2.2783,-0.58453 2.991639,0.33742 0.533498,0.99919 0.206502,2.23493 0.298824,3.33558 -0.0393,1.15587 0.285194,2.43764 -0.581668,3.38018 -0.363356,0.88753 -0.0969,1.82633 0.457836,2.5735 0.516408,1.07764 0.759532,2.22709 1.170328,3.3242 0.591118,0.9475 1.127186,0.31111 2.211424,1.70233 -0.418238,0.81295 -1.379082,0.96969 -1.745768,0.76372 -0.156762,-0.0881 -0.121182,-0.53236 -0.204892,-0.61358 -0.846034,-4.04054 -3.146733,-4.48126 -6.765053,-4.95798 -0.92575,-0.10363 -1.52,0.0145 -2.40002,-0.089 0.2402,-2e-5 0.46387,-0.44644 0.70407,-0.44651 z"
       id="path1763-2" /><path
       style="display:inline;opacity:0.565141;fill:#1c71d8;stroke-width:0.1;stroke-linecap:round"
       d="m 97.803906,180.95012 c -0.71189,-0.21949 -1.215878,-0.82202 -1.590964,-1.43627 -0.139822,-0.21953 -0.238914,-0.46565 -0.423786,-0.65426 -0.169944,-0.17729 -0.290806,-0.39171 -0.375626,-0.62082 -0.149062,-0.3754 -0.262574,-0.76453 -0.401076,-1.1432 -0.0458,-0.31162 0.289854,-0.5536 0.579388,-0.51319 0.293974,0.0111 0.5839,0.1229 0.807032,0.31505 0.375086,0.12498 0.535978,0.54181 0.56741,0.90481 0.0555,0.31318 0.0557,0.6862 0.320404,0.90776 0.447426,0.42718 0.6713,1.08974 0.527548,1.69728 -0.0278,0.1798 -0.008,0.362 -0.0103,0.54284 z"
       id="path1656-2" /><path
       style="display:inline;opacity:0.565141;fill:#1c71d8;stroke-width:0.1;stroke-linecap:round"
       d="m 98.183902,177.53016 c 0.885022,-0.20967 1.693462,0.42018 2.142188,1.13144 0.36847,0.55214 0.57933,1.18735 0.94153,1.74392 0.73409,1.30445 1.33198,2.68352 1.79516,4.1058 0.50561,1.17645 1.24531,2.38217 1.04763,3.71584 -0.16901,0.6134 -0.69631,1.08793 -0.99401,1.65692 -0.36913,0.51685 -0.88605,1.13756 -1.57831,1.10505 -0.61264,-0.0137 -0.9449,-0.65997 -0.75596,-1.20912 0.13438,-0.73878 0.49761,-1.46976 0.30289,-2.23401 -0.20069,-1.2208 -0.72151,-2.38504 -0.73525,-3.63592 -0.388382,-1.12938 -0.777108,-2.33477 -0.535778,-3.53998 -0.0398,-1.11638 -1.097652,-1.76969 -1.53452,-2.71476 -0.0319,-0.0417 -0.0637,-0.0834 -0.0956,-0.12518 z"
       id="path1767-2" /></g></svg>
