<?xml version="1.0" encoding="UTF-8" standalone="no"?>
<!-- Created with Inkscape (http://www.inkscape.org/) -->

<svg
   width="210mm"
   height="297mm"
   viewBox="0 0 210 297"
   version="1.1"
   id="svg5"
   xml:space="preserve"
   inkscape:version="1.2.2 (732a01da63, 2022-12-09)"
   sodipodi:docname="Creature_corps_Interieur_Bas_Bloc2.svg"
   xmlns:inkscape="http://www.inkscape.org/namespaces/inkscape"
   xmlns:sodipodi="http://sodipodi.sourceforge.net/DTD/sodipodi-0.dtd"
   xmlns="http://www.w3.org/2000/svg"
   xmlns:svg="http://www.w3.org/2000/svg"><sodipodi:namedview
     id="namedview7"
     pagecolor="#ffffff"
     bordercolor="#000000"
     borderopacity="0.25"
     inkscape:showpageshadow="2"
     inkscape:pageopacity="0.0"
     inkscape:pagecheckerboard="0"
     inkscape:deskcolor="#d1d1d1"
     inkscape:document-units="mm"
     showgrid="true"
     inkscape:zoom="0.70710678"
     inkscape:cx="427.0925"
     inkscape:cy="489.31789"
     inkscape:window-width="1920"
     inkscape:window-height="1009"
     inkscape:window-x="-8"
     inkscape:window-y="-8"
     inkscape:window-maximized="1"
     inkscape:current-layer="layer11"><inkscape:grid
       type="xygrid"
       id="grid4808" /></sodipodi:namedview><defs
     id="defs2"><inkscape:path-effect
       effect="mirror_symmetry"
       start_point="108.55816,143.77764"
       end_point="108.55816,153.87059"
       center_point="108.55816,148.82411"
       id="path-effect753"
       is_visible="true"
       lpeversion="1.2"
       lpesatellites=""
       mode="free"
       discard_orig_path="false"
       fuse_paths="true"
       oposite_fuse="false"
       split_items="false"
       split_open="false"
       link_styles="true" /><inkscape:path-effect
       center_point="108.9495,53.08641"
       end_point="108.9495,61.716891"
       start_point="108.9495,44.455929"
       effect="mirror_symmetry"
       id="path-effect897"
       is_visible="true"
       lpeversion="1.2"
       lpesatellites=""
       mode="free"
       discard_orig_path="false"
       fuse_paths="false"
       oposite_fuse="false"
       split_items="false"
       split_open="false"
       link_styles="false" /></defs><g
     inkscape:groupmode="layer"
     id="layer11"
     inkscape:label="corps_int_bas_bloc_3"
     style="display:inline"><path
       style="display:inline;opacity:0.565141;fill:#63452c;stroke-width:0.1;stroke-linecap:round"
       d="m 88.307059,202.60543 c 0.525374,4.13298 -2.593519,10.754 3.388721,12.30609 1.18981,1.92713 2.345267,3.31161 3.238001,0.15894 2.589346,-2.40427 5.431289,-5.6119 4.489861,-9.2236 -0.871883,-2.32645 1.559168,-8.83764 3.803078,-3.98145 3.46043,4.98172 -1.37128,11.18507 1.1637,16.42142 -1.276,4.24442 -2.58128,-5.3814 -3.88114,-0.0125 -0.706606,2.60371 1.64969,5.43975 -0.34635,7.77147 3.09534,1.90008 0.14908,3.69589 -0.708242,5.43478 3.340982,1.73983 -0.667611,5.61128 2.428302,8.35221 1.57538,2.52619 4.51513,12.3243 8.43811,7.91557 2.92462,-3.77124 4.65957,-8.84353 5.86367,-13.35816 0.276,-4.25222 -1.44533,-8.18 -1.42355,-12.94791 0.96567,-2.94236 0.51554,-7.47978 -2.06258,-4.28532 -0.32906,-4.68472 3.42824,-19.52211 5.56033,-15.19028 1.43262,1.94335 0.34577,3.28193 0.70564,5.4661 0.10669,0.64752 0.36159,1.55268 0.33543,2.34296 -0.0214,0.64606 0.24042,1.81358 0.93179,2.24155 3.42482,3.06627 4.75706,5.07855 5.84365,3.15251 0.72827,-1.2909 3.27795,-3.55861 3.2425,-5.75622 3.4338,-4.3347 -2.91938,-5.07831 0.24946,-7.57723 3.69703,-0.74774 7.46894,-1.56299 5.83073,3.30435 -2.55696,5.41004 -5.17291,7.4359 -6.91595,9.74756 -0.77932,1.03355 -1.11744,2.27393 -1.97863,3.5062 -0.56227,0.98212 -1.24723,1.84068 -1.95216,2.6593 -0.25882,0.30057 -0.71877,0.49653 -0.97789,0.79047 -0.26669,0.30253 -0.33241,0.70295 -0.58849,1.00735 -1.42539,1.69437 -2.60052,3.4877 -2.5694,6.15825 -0.49928,1.08428 -1.0757,2.02997 -1.66569,2.92596 -0.25854,0.39264 -0.8778,0.53907 -1.07226,1.04799 -0.15125,0.39581 0.0934,1.63008 -0.0326,2.0715 -0.5819,2.03862 -1.0728,3.68844 -1.81875,5.41354 -1.85407,2.14533 -3.60699,7.21197 -6.55074,10.8988 -2.30705,-0.18849 -4.90185,-4.19431 -7.36087,-7.65898 -2.310921,-2.96152 -2.956835,-6.18621 -4.137639,-9.81154 -1.863381,-3.95756 0.08239,-7.77725 -6.493762,-12.3618 1.389333,-4.85123 -5.005289,-7.37176 -3.891881,-13.87652 0.08896,-1.22333 0.446151,-1.82775 0.0779,-2.75692 -0.617791,-1.5588 -1.943424,-2.65814 -3.386103,-3.58705 -0.903777,-0.58192 -1.74531,-1.27304 -2.594697,-1.29601 -1.204863,-0.0326 -2.473812,0.20684 -2.805359,0.40446 -0.924568,-1.55757 -1.745338,-2.88891 -1.181481,-2.92398 1.358088,-0.0845 6.931112,3.87027 10.805341,5.10614 z"
       id="path2537"
       sodipodi:nodetypes="cccccccccccccccsscscccscssscsssccccccssscsc"
       inkscape:label="bloc_3" /><path
       style="display:inline;opacity:0.565141;fill:#000000;stroke-width:0.1;stroke-linecap:round"
       d="m 94.635794,218.06865 c 0.670871,-1.4123 3.572015,-2.27967 4.068411,-0.34647 0.549354,1.70859 1.19542,3.80131 0.04976,5.40485 -1.803848,0.59825 -2.007704,-2.13093 -2.524886,-3.28368 -0.205978,-0.91467 -1.602247,-0.84128 -1.593288,-1.7747 z"
       id="path2394"
       inkscape:label="bloc_3_cut_2" /><path
       style="display:inline;opacity:0.565141;fill:#000000;stroke-width:0.1;stroke-linecap:round"
       d="m 121.73957,216.94417 c -0.67087,-1.4123 -3.57201,-2.27967 -4.06841,-0.34647 -0.54935,1.70859 -1.19542,3.80131 -0.0498,5.40485 1.80385,0.59825 2.0077,-2.13093 2.52489,-3.28368 0.20597,-0.91467 1.60224,-0.84128 1.59328,-1.7747 z"
       id="path2394-4"
       inkscape:label="bloc_3_cut_3_cut" /></g></svg>
