<?xml version="1.0" encoding="UTF-8" standalone="no"?>
<!-- Created with Inkscape (http://www.inkscape.org/) -->

<svg
   width="210mm"
   height="297mm"
   viewBox="0 0 210 297"
   version="1.1"
   id="svg5"
   xml:space="preserve"
   inkscape:version="1.2.2 (732a01da63, 2022-12-09)"
   sodipodi:docname="Creature_corps_Interieur_Milieu_Basse.svg"
   xmlns:inkscape="http://www.inkscape.org/namespaces/inkscape"
   xmlns:sodipodi="http://sodipodi.sourceforge.net/DTD/sodipodi-0.dtd"
   xmlns="http://www.w3.org/2000/svg"
   xmlns:svg="http://www.w3.org/2000/svg"><sodipodi:namedview
     id="namedview7"
     pagecolor="#ffffff"
     bordercolor="#000000"
     borderopacity="0.25"
     inkscape:showpageshadow="2"
     inkscape:pageopacity="0.0"
     inkscape:pagecheckerboard="0"
     inkscape:deskcolor="#d1d1d1"
     inkscape:document-units="mm"
     showgrid="true"
     inkscape:zoom="0.70710678"
     inkscape:cx="427.0925"
     inkscape:cy="489.31789"
     inkscape:window-width="1920"
     inkscape:window-height="1009"
     inkscape:window-x="-8"
     inkscape:window-y="-8"
     inkscape:window-maximized="1"
     inkscape:current-layer="layer7"><inkscape:grid
       type="xygrid"
       id="grid4808" /></sodipodi:namedview><defs
     id="defs2"><inkscape:path-effect
       effect="mirror_symmetry"
       start_point="108.55816,143.77764"
       end_point="108.55816,153.87059"
       center_point="108.55816,148.82411"
       id="path-effect753"
       is_visible="true"
       lpeversion="1.2"
       lpesatellites=""
       mode="free"
       discard_orig_path="false"
       fuse_paths="true"
       oposite_fuse="false"
       split_items="false"
       split_open="false"
       link_styles="true" /><inkscape:path-effect
       center_point="108.9495,53.08641"
       end_point="108.9495,61.716891"
       start_point="108.9495,44.455929"
       effect="mirror_symmetry"
       id="path-effect897"
       is_visible="true"
       lpeversion="1.2"
       lpesatellites=""
       mode="free"
       discard_orig_path="false"
       fuse_paths="false"
       oposite_fuse="false"
       split_items="false"
       split_open="false"
       link_styles="false" /></defs><g
     inkscape:groupmode="layer"
     id="layer7"
     inkscape:label="corps_int_milieu_couche_basse"
     style="display:inline"><path
       style="display:inline;opacity:0.565141;fill:#dc8add;stroke-width:0.1;stroke-linecap:round"
       d="m 129.53957,189.41905 c -1.73796,3.15336 -4.67855,6.7212 -4.61473,10.38265 1.11919,2.64053 4.70076,5.02299 2.77199,8.24063 -1.76973,2.0045 -1.89703,7.0275 -5.62856,5.66049 -2.27161,-2.98901 -4.95893,-6.91306 -4.02998,-10.92397 0.48901,-5.22081 -4.78331,-3.27594 -4.74998,0.56763 -2.76354,5.28825 -3.25571,11.69161 -1.41763,17.35763 0.91845,1.42667 0.0582,8.69285 -1.25478,4.6984 0.66185,-4.24772 -4.83335,-6.03713 -6.66867,-2.22855 -2.17263,0.69803 -0.18646,-3.65798 0.96099,-4.46661 0.89344,-3.28012 0.24903,-6.75503 0.47236,-10.1117 -0.43359,-3.35153 -1.87318,-6.49245 -3.14357,-9.58228 -3.983284,-4.14932 -5.272028,3.60636 -4.859804,6.42987 0.929782,4.13414 -3.463527,6.54332 -6.350292,8.45342 -3.209001,-1.47958 -3.643163,-7.00962 -2.297122,-10.33112 2.038815,-3.46025 2.608089,-7.55739 0.689687,-11.26716 -0.836101,-3.21043 -3.195509,-2.8571 -6.654777,-4.12213 -1.915546,-3.33848 3.127864,-9.69045 3.846767,-13.3061 0.999288,-3.14907 6.014692,-2.99418 8.283444,-1.24762 1.992996,2.15601 5.467117,3.3465 6.129877,6.44107 1.84718,3.45895 2.09007,7.25474 5.32375,9.78252 2.84455,1.67821 4.5024,-2.00179 5.94807,-4.21337 2.00089,-2.69053 2.38129,-4.7521 3.56969,-7.5567 3.19771,-2.08949 3.0169,-9.69094 7.01058,-9.929 3.30976,1.49998 8.02559,9.45136 8.00759,12.91464 3.17147,3.28825 -2.70999,6.64634 -1.3449,8.35736 z"
       id="path1522"
       inkscape:label="détourage"
       sodipodi:nodetypes="cccccccccccccccccccccccccc"
       transform="translate(1.3096207,0.84189901)" /><path
       style="display:inline;opacity:0.565141;fill:#000000;stroke-width:0.1;stroke-linecap:round"
       d="m 91.26433,181.61998 c 0.888752,1.03884 0.938591,2.47409 1.451976,3.69136 0.101927,0.61681 0.541439,1.30171 1.257218,1.14754 1.000104,-0.10241 1.639845,-1.03354 1.925068,-1.9173 0.221296,-0.62852 0.203168,-1.32662 0.03325,-1.96381 -0.337913,-0.47517 -0.62047,-1.05306 -1.14651,-1.35639 -0.58638,-0.33365 -1.232195,-0.66885 -1.641232,-1.22948 -0.290717,-0.5189 -1.140243,-1.01637 -1.511988,-0.29616 -0.324249,0.57371 -0.408834,1.27445 -0.367784,1.92424 z"
       id="path1650"
       sodipodi:nodetypes="cccccccccc"
       transform="translate(1.3096207,0.84189901)"
       inkscape:label="cut_4" /><path
       style="display:inline;opacity:0.565141;fill:#000000;stroke-width:0.1;stroke-linecap:round"
       d="m 120.49747,183.26701 c 0.14066,-0.65534 0.45021,-1.00512 0.92302,-1.47836 0.49902,-0.33363 1.0853,0.63808 1.41719,0.17298 0.25822,-0.49199 0.56282,-1.18151 1.32524,-0.95792 0.47884,-0.0728 0.76287,0.12012 0.72403,0.60109 0.19891,0.55055 0.23706,1.0647 -0.30795,1.41802 -0.29761,0.42203 -0.55395,0.62178 -0.69488,1.1391 -0.41964,0.48963 -0.26752,0.8639 -0.65132,1.39762 -0.30873,0.39329 -1.04332,0.79351 -1.47982,0.41404 -0.66214,-0.80694 0.0271,-1.59177 -0.668,-2.38668 -0.14787,-0.19333 -0.39882,-0.1949 -0.58751,-0.31989 z"
       id="path1652"
       sodipodi:nodetypes="ccccccccccc"
       transform="translate(1.3096207,0.84189901)"
       inkscape:label="cut_3" /><path
       style="display:inline;opacity:0.565141;fill:#000000;stroke-width:0.1;stroke-linecap:round"
       d="m 111.56412,195.96093 c 0.5378,-0.24277 0.32095,-0.93509 0.57933,-1.3583 0.37863,-0.65863 0.91791,-1.2144 1.46433,-1.73588 0.37326,-0.40124 1.02315,-0.0932 1.12591,0.39243 0.4332,0.56896 0.10496,1.25824 -0.0238,1.85395 -0.0954,0.68146 -0.9782,0.56334 -1.19494,1.04829 0.0272,0.38234 0.14966,0.88438 -0.32027,1.0565 -0.62069,0.3835 -0.91218,1.27661 -1.71372,1.35206 -0.47532,-0.0217 -0.55729,-0.55576 -0.55902,-0.93199 -0.0472,-0.57247 0.14827,-1.15279 0.55581,-1.56052 l 0.0433,-0.0582 0.0431,-0.0583 z"
       id="path1664"
       transform="translate(1.3096207,0.84189901)"
       inkscape:label="cut_2" /><path
       style="display:inline;opacity:0.565141;fill:#000000;stroke-width:0.1;stroke-linecap:round"
       d="m 104.34485,194.00048 c -0.26205,-0.6827 -0.93187,-1.00826 -1.60733,-1.10209 -0.68838,-0.29978 -1.32854,0.29259 -1.24278,0.99642 -0.0106,0.55069 -0.01,1.12308 0.14704,1.65372 0.32333,0.33969 0.549,0.71814 0.77389,1.13828 0.4546,0.20731 0.63639,0.76831 1.12238,0.92575 0.64425,0.16495 1.43326,0.0686 1.94856,-0.35113 0.2062,-0.54714 -0.25302,-1.08821 -0.22666,-1.65278 -0.1819,-0.58846 -0.52132,-1.13806 -0.9151,-1.60817 z"
       id="path1658"
       sodipodi:nodetypes="ccccccccccccc"
       transform="translate(1.3096207,0.84189901)"
       inkscape:label="cut" /></g></svg>
