<?xml version="1.0" encoding="UTF-8" standalone="no"?>
<!-- Created with Inkscape (http://www.inkscape.org/) -->

<svg
   width="210mm"
   height="297mm"
   viewBox="0 0 210 297"
   version="1.1"
   id="svg5"
   xml:space="preserve"
   inkscape:version="1.2.2 (732a01da63, 2022-12-09)"
   sodipodi:docname="Creature_corps_Interieur_Bas_Bloc.svg"
   xmlns:inkscape="http://www.inkscape.org/namespaces/inkscape"
   xmlns:sodipodi="http://sodipodi.sourceforge.net/DTD/sodipodi-0.dtd"
   xmlns="http://www.w3.org/2000/svg"
   xmlns:svg="http://www.w3.org/2000/svg"><sodipodi:namedview
     id="namedview7"
     pagecolor="#ffffff"
     bordercolor="#000000"
     borderopacity="0.25"
     inkscape:showpageshadow="2"
     inkscape:pageopacity="0.0"
     inkscape:pagecheckerboard="0"
     inkscape:deskcolor="#d1d1d1"
     inkscape:document-units="mm"
     showgrid="true"
     inkscape:zoom="0.70710678"
     inkscape:cx="427.0925"
     inkscape:cy="489.31789"
     inkscape:window-width="1920"
     inkscape:window-height="1009"
     inkscape:window-x="-8"
     inkscape:window-y="-8"
     inkscape:window-maximized="1"
     inkscape:current-layer="layer5"><inkscape:grid
       type="xygrid"
       id="grid4808" /></sodipodi:namedview><defs
     id="defs2"><inkscape:path-effect
       effect="mirror_symmetry"
       start_point="108.55816,143.77764"
       end_point="108.55816,153.87059"
       center_point="108.55816,148.82411"
       id="path-effect753"
       is_visible="true"
       lpeversion="1.2"
       lpesatellites=""
       mode="free"
       discard_orig_path="false"
       fuse_paths="true"
       oposite_fuse="false"
       split_items="false"
       split_open="false"
       link_styles="true" /><inkscape:path-effect
       center_point="108.9495,53.08641"
       end_point="108.9495,61.716891"
       start_point="108.9495,44.455929"
       effect="mirror_symmetry"
       id="path-effect897"
       is_visible="true"
       lpeversion="1.2"
       lpesatellites=""
       mode="free"
       discard_orig_path="false"
       fuse_paths="false"
       oposite_fuse="false"
       split_items="false"
       split_open="false"
       link_styles="false" /></defs><g
     inkscape:groupmode="layer"
     id="layer5"
     inkscape:label="corps_int_bas"
     style="display:inline"><path
       style="opacity:0.565141;fill:#63452c;stroke-width:0.1;stroke-linecap:round"
       d="m 131.76757,192.88783 c 0.1521,1.53725 -0.95312,4.23673 -0.4603,4.47135 1.33041,-2.20119 1.81056,-4.89086 4.03867,-6.37925 2.58702,-0.45909 1.81907,1.71609 2.51543,4.4056 -4.71981,0.24652 -5.16993,3.47682 -5.83507,5.58998 -2.33799,-0.34675 -3.81234,3.02786 -4.96849,-0.56325 -0.60542,-4.52518 4.45554,-10.57353 4.70976,-7.52443 z"
       id="path2529"
       sodipodi:nodetypes="ccccccc"
       inkscape:label="bloc_4" /><path
       style="opacity:0.565141;fill:#63452c;stroke-width:0.1;stroke-linecap:round"
       d="m 79.281648,191.79556 c 0.734258,-0.49682 0.857671,-0.38759 1.595456,-0.22021 1.383896,0.38523 2.137869,1.27273 2.881981,2.40092 1.043385,2.32687 2.292461,4.91782 2.962387,7.13707 -0.41995,0.65906 -9.506034,-4.41749 -9.542341,-4.4768 -0.305905,-2.00466 0.857641,-3.63561 2.102517,-4.84098 z"
       id="path2539"
       sodipodi:nodetypes="cccccc"
       inkscape:label="bloc_2" /><path
       style="opacity:0.565141;fill:#63452c;stroke-width:0.1;stroke-linecap:round"
       d="m 83.773402,192.91194 c 0.510423,-0.43843 1.824102,0.26739 4.403915,-1.43645 1.01974,0.14163 2.196457,1.40659 2.790227,3.18302 0.419726,1.25573 0.646775,2.41517 0.461422,3.68014 -0.215597,1.47137 -0.313155,2.88413 -1.295296,4.11009 -5.10485,-1.5638 -4.254477,-6.88171 -6.360268,-9.5368 z"
       id="path2541"
       sodipodi:nodetypes="ccsscc"
       inkscape:label="bloc_1" /></g></svg>
