<?xml version="1.0" encoding="UTF-8" standalone="no"?>
<!-- Created with Inkscape (http://www.inkscape.org/) -->

<svg
   width="210mm"
   height="297mm"
   viewBox="0 0 210 297"
   version="1.1"
   id="svg5"
   xml:space="preserve"
   inkscape:version="1.2.2 (732a01da63, 2022-12-09)"
   sodipodi:docname="Creature_tete_haute.svg"
   xmlns:inkscape="http://www.inkscape.org/namespaces/inkscape"
   xmlns:sodipodi="http://sodipodi.sourceforge.net/DTD/sodipodi-0.dtd"
   xmlns="http://www.w3.org/2000/svg"
   xmlns:svg="http://www.w3.org/2000/svg"><sodipodi:namedview
     id="namedview7"
     pagecolor="#ffffff"
     bordercolor="#000000"
     borderopacity="0.25"
     inkscape:showpageshadow="2"
     inkscape:pageopacity="0.0"
     inkscape:pagecheckerboard="0"
     inkscape:deskcolor="#d1d1d1"
     inkscape:document-units="mm"
     showgrid="true"
     inkscape:zoom="0.70710678"
     inkscape:cx="427.0925"
     inkscape:cy="489.31789"
     inkscape:window-width="1920"
     inkscape:window-height="1009"
     inkscape:window-x="-8"
     inkscape:window-y="-8"
     inkscape:window-maximized="1"
     inkscape:current-layer="layer10"><inkscape:grid
       type="xygrid"
       id="grid4808" /></sodipodi:namedview><defs
     id="defs2"><inkscape:path-effect
       effect="mirror_symmetry"
       start_point="108.55816,143.77764"
       end_point="108.55816,153.87059"
       center_point="108.55816,148.82411"
       id="path-effect753"
       is_visible="true"
       lpeversion="1.2"
       lpesatellites=""
       mode="free"
       discard_orig_path="false"
       fuse_paths="true"
       oposite_fuse="false"
       split_items="false"
       split_open="false"
       link_styles="true" /><inkscape:path-effect
       center_point="108.9495,53.08641"
       end_point="108.9495,61.716891"
       start_point="108.9495,44.455929"
       effect="mirror_symmetry"
       id="path-effect897"
       is_visible="true"
       lpeversion="1.2"
       lpesatellites=""
       mode="free"
       discard_orig_path="false"
       fuse_paths="false"
       oposite_fuse="false"
       split_items="false"
       split_open="false"
       link_styles="false" /></defs><g
     inkscape:groupmode="layer"
     id="layer10"
     inkscape:label="Tête 1"
     style="display:inline"><path
       id="path1092-0"
       style="display:inline;opacity:0.565141;fill:#1a5fb4;stroke-width:0.1;stroke-linecap:round"
       inkscape:label="détourage"
       d="M 79.110419,26.19375 62.706252,42.333333 56.22396,61.780209 53.313544,73.025 l 0.529166,5.291666 2.38125,6.350001 9.657293,13.956791 c 3.11342,2.276122 4.206567,5.837862 3.439582,10.583332 l 2.910417,2.71198 3.439583,-0.26458 3.175,-1.05834 c 5.087837,-2.24718 8.492858,1.56377 12.435417,3.43959 5.194712,4.65609 6.944981,10.81912 8.202081,17.19791 l 5.259537,8.7927 0.17975,4.35026 4.08568,-1.23671 2.58439,0.73827 c -0.1485,-2.81994 1.12642,-5.22472 2.4427,-7.61743 1.02377,-2.59614 2.96034,-4.43823 5.41593,-5.85156 -1.45672,-8.2586 1.95754,-12.44664 5.79578,-15.84428 l 8.63204,-3.9026 11.27786,1.35599 0.62839,-2.67891 0.26458,-1.12448 4.49792,-9.7896 3.57187,-3.836458 7.27604,-14.816667 0.52917,-5.953125 2.43994,-15.130776 -19.10869,-27.996307 -5.49424,-1.678968 c 0.75625,0.763521 1.80316,1.291565 3.18947,1.390096 5.10192,7.978312 -7.36484,9.343965 -5.77019,15.108122 -2.32404,2.986791 -3.42399,8.657091 -5.27926,12.192021 V 55.84672 c -1.40133,3.756249 -2.47789,6.53531 -3.46698,1.634009 -2.92239,1.034797 -6.51954,-0.07369 -9.63093,-1.890324 l -1.31258,-0.826823 c -2.45303,-1.65788 -4.45425,-3.662677 -5.32888,-5.189864 0.38118,-0.543663 0.58503,-1.186374 0.58498,-1.844332 -2e-4,-1.807933 -1.50765,-3.273511 -3.36724,-3.273702 -0.0455,0.0021 -0.0906,0.0069 -0.13591,0.01085 -0.24077,-0.05221 -0.48656,-0.07961 -0.73328,-0.07958 -1.72599,1.77e-4 -3.1323,1.26739 -3.32797,2.894397 -0.0104,0.07356 -0.0175,0.147691 -0.0227,0.222725 -0.003,0.053 -0.0165,0.102949 -0.0165,0.15658 0,0.04064 0.008,0.08042 0.009,0.120923 0.0102,0.623793 0.20335,1.231219 0.55707,1.751831 -2.10332,3.630751 -10.491157,9.919071 -16.253752,7.878589 -1.803199,8.935536 -3.855095,-7.545355 -7.746814,-9.228895 -3.29878,-5.908223 -9.093405,-12.606764 -4.215246,-19.975008 3.333736,-4.308387 2.202004,4.64929 4.90461,-1.922363 z"
       sodipodi:nodetypes="cccccccccccccccccccccccccccccccccccccccccccccsccccccc" /><path
       style="display:inline;opacity:1;fill:#000000;stroke-width:0.1;stroke-linecap:round"
       d="m 66.879165,85.372267 c -1.132375,-2.234255 -2.522298,-4.353691 -3.475525,-6.668845 -0.763855,-2.800938 -1.764031,-5.525042 -2.986094,-8.15793 -0.826733,-1.28768 -0.565635,-2.763894 -0.469443,-4.199847 0.225821,-3.74728 0.445058,-7.495239 0.597807,-11.246333 1.127202,-3.074815 1.868593,-6.31921 3.567644,-9.15108 0.581313,-1.322018 1.727222,-2.829874 3.222431,-2.932631 1.114378,0.185729 2.228756,0.371459 3.343134,0.557188 1.537267,1.621188 3.358006,3.043612 4.548636,4.94829 0.906682,1.611908 1.56606,3.321326 2.043506,5.10152 0.678928,2.225734 1.00935,4.564917 1.085207,6.885283 -0.465005,2.672412 -1.097062,5.37377 -2.32391,7.818291 -1.127592,2.728854 -2.154838,5.502899 -3.557052,8.107757 -0.629569,1.956354 -2.682652,2.684818 -3.730722,4.318559 -1.096572,1.447462 -1.959995,2.729826 -1.865619,4.619778 z"
       id="path1150"
       inkscape:label="cut_61" /><path
       style="display:inline;opacity:1;fill:#000000;stroke-width:0.1;stroke-linecap:round"
       d="m 151.51186,84.78848 c 1.13237,-2.234255 2.5223,-4.353691 3.47552,-6.668845 0.76386,-2.800938 1.76403,-5.525042 2.9861,-8.15793 0.82673,-1.28768 0.56563,-2.763894 0.46944,-4.199847 -0.22582,-3.74728 -0.44506,-7.495239 -0.59781,-11.246333 -1.1272,-3.074815 -1.86859,-6.31921 -3.56764,-9.15108 -0.58131,-1.322018 -1.72722,-2.829874 -3.22243,-2.932631 -1.11438,0.185729 -2.22876,0.371459 -3.34314,0.557188 -1.53726,1.621188 -3.358,3.043612 -4.54863,4.94829 -0.90668,1.611908 -1.56606,3.321326 -2.04351,5.10152 -0.67893,2.225734 -1.00935,4.564917 -1.08521,6.885283 0.46501,2.672412 1.09707,5.37377 2.32391,7.818291 1.1276,2.728854 2.15484,5.502899 3.55706,8.107757 0.62957,1.956354 2.68265,2.684818 3.73072,4.318559 1.09657,1.447462 1.95999,2.729826 1.86562,4.619778 z"
       id="path1150-1"
       inkscape:label="cut_60" /><path
       style="display:inline;opacity:1;fill:#000000;stroke-width:0.1;stroke-linecap:round"
       d="m 73.175211,32.691496 c 0.573084,2.316611 0.431648,4.885955 1.594079,7.003996 0.855213,1.921652 2.155323,3.570162 3.241027,5.351653 2.241937,4.766222 4.692978,9.453488 7.100025,14.124774 0.3419,2.114844 0.564931,4.710929 -1.217408,6.278285 -0.820695,0.962185 -4.103415,2.306709 -3.116464,-0.209452 0.173467,-3.908954 0.308108,-7.877595 -0.437271,-11.737119 -1.052814,-1.397782 -2.457789,-2.603328 -2.87291,-4.37063 -1.036732,-2.61351 -1.702906,-5.398787 -3.327876,-7.73648 -0.826998,-1.317855 -1.853593,-2.772277 -1.674209,-4.399517 0.237003,-1.43517 0.474005,-2.87034 0.711007,-4.30551 z"
       id="path1184"
       inkscape:label="cut_59" /><path
       style="display:inline;opacity:1;fill:#000000;stroke-width:0.1;stroke-linecap:round"
       d="m 144.7262,35.202203 c -0.57308,2.316611 -0.43165,4.885955 -1.59408,7.003996 -0.85521,1.921652 -2.15532,3.570162 -3.24102,5.351653 -2.24194,4.766222 -4.69298,9.453488 -7.10003,14.124774 -0.3419,2.114844 -0.56493,4.710929 1.21741,6.278285 0.82069,0.962185 4.10341,2.306709 3.11646,-0.209452 -0.17346,-3.908954 -0.30811,-7.877595 0.43727,-11.737119 1.05282,-1.397782 2.45779,-2.603328 2.87291,-4.37063 1.03674,-2.61351 1.70291,-5.398787 3.32788,-7.73648 0.827,-1.317855 1.85359,-2.772277 1.67421,-4.399517 -0.237,-1.43517 -0.47401,-2.87034 -0.71101,-4.30551 z"
       id="path1184-9"
       inkscape:label="cut_58" /><path
       style="display:inline;opacity:1;fill:#000000;stroke-width:0.1;stroke-linecap:round"
       d="m 71.755772,86.702251 c 1.560499,-1.743629 1.908192,-3.614138 2.949451,-5.78079 0.833255,-1.468311 1.707929,-3.153691 3.481615,-3.516355 1.128645,-1.035252 4.110722,-3.291656 6.126008,-4.902983 l 1.661081,-0.968015 c 0.544908,-1.433391 0.607699,-2.732162 0.422399,-4.199041 0.0267,0.940308 -0.264961,1.872497 -0.728006,2.731279 -0.789467,1.961511 -3.000665,2.593523 -4.208118,3.631755 -2.882658,2.028333 -6.474613,4.580126 -7.860592,7.458521 -0.746316,1.802593 -1.229404,3.697373 -1.84384,5.545629 z"
       id="path1204"
       sodipodi:nodetypes="cccccccccsc"
       inkscape:label="cut_57" /><path
       style="display:inline;opacity:0.74;fill:#000000;stroke-width:0.1;stroke-linecap:round"
       d="m 144.92557,87.202627 c -1.5605,-1.743629 -1.90819,-3.614138 -2.94945,-5.78079 -0.83325,-1.468311 -1.70793,-3.153691 -3.48161,-3.516355 -1.12865,-1.035252 -4.11073,-3.291656 -6.12601,-4.902983 l -1.66108,-0.968015 c -0.54491,-1.433391 -0.6077,-2.732162 -0.4224,-4.199041 -0.0267,0.940308 0.26496,1.872497 0.728,2.731279 0.78947,1.961511 3.00067,2.593523 4.20812,3.631755 2.88266,2.028333 6.47461,4.580126 7.86059,7.458521 0.74632,1.802593 1.22941,3.697373 1.84384,5.545629 z"
       id="path1204-4"
       sodipodi:nodetypes="cccccccccsc"
       inkscape:label="cut_56" /><path
       style="display:inline;opacity:1;fill:#000000;stroke-width:0.1;stroke-linecap:round"
       d="m 80.68566,85.4356 c -0.596061,0.165408 -1.501034,1.074065 -1.903354,0.151647 -0.193548,-1.251509 -0.265064,-2.808616 0.787085,-3.721863 1.823024,-1.261788 6.546477,-5.655666 8.234486,-5.885795 0.967809,1.787856 3.797241,8.166526 2.614515,9.942412 -0.725726,0.523685 -1.36212,-0.273897 -1.641278,-0.879286 -0.709675,-0.932654 -2.381211,-1.880217 -3.529881,-2.106104 0.05428,-0.631419 0.388271,-1.180147 0.25376,-1.559629 -0.428584,-1.209119 -2.313285,-1.190425 -2.92877,-0.186763 -0.259635,0.423382 0.136101,1.048066 0.268354,1.787737 -1.51533,1.703231 -2.294892,-2.425756 -2.154927,2.457693 z"
       id="path1208"
       sodipodi:nodetypes="sccccccssccs"
       inkscape:label="cut_55" /><path
       style="display:inline;opacity:0.74;fill:#000000;stroke-width:0.1;stroke-linecap:round"
       d="m 136.04727,85.402087 c 0.59606,0.165408 1.50104,1.074065 1.90335,0.151647 0.19355,-1.251509 0.26507,-2.808616 -0.78708,-3.721863 -1.82302,-1.261788 -6.54648,-5.655666 -8.23449,-5.885795 -0.96781,1.787856 -3.79724,8.166526 -2.61451,9.942412 0.72572,0.523685 1.36212,-0.273897 1.64128,-0.879286 0.70967,-0.932654 2.38121,-1.880217 3.52988,-2.106104 -0.0543,-0.631419 -0.38827,-1.180147 -0.25376,-1.559629 0.42858,-1.209119 2.31328,-1.190425 2.92877,-0.186763 0.25963,0.423382 -0.1361,1.048066 -0.26836,1.787737 1.51533,1.703231 2.2949,-2.425756 2.15493,2.457693 z"
       id="path1208-0"
       sodipodi:nodetypes="sccccccssccs"
       inkscape:label="cut_54" /><path
       style="display:inline;opacity:0.565141;fill:#000000;stroke-width:0.1;stroke-linecap:round"
       d="m 85.688931,94.87215 1.456648,-1.773312 1.709978,-0.25333 1.709978,-0.06333 0.823325,1.076653 c 0,0 0.506659,0.506661 -0.06333,0.443327 -0.569992,-0.06333 -2.533301,-0.316661 -2.533301,-0.316661 z"
       id="path1216"
       inkscape:label="cut_53" /><path
       style="display:inline;opacity:0.565141;fill:#000000;stroke-width:0.1;stroke-linecap:round"
       d="m 88.538896,90.755535 0.569991,-2.723301 1.393317,-1.013319 1.646645,0.316661 2.026643,0.379994 c 0,0 0.06333,0.886656 0.06333,1.20332 0,0.316661 -0.316664,1.01332 -0.316664,1.329984 0,0.316661 0.189997,1.329983 -0.06333,1.139986 -0.253331,-0.19 -1.709979,-1.393317 -1.709979,-1.393317 l -1.456647,-0.316664 -1.266651,0.823325 z"
       id="path1218"
       inkscape:label="cut_52" /><path
       style="display:inline;opacity:1;fill:#000000;stroke-width:0.1;stroke-linecap:round"
       d="m 90.375538,69.919127 0.733099,-3.073219 0.730246,-1.34151 0.767674,0.346738 0.08831,-0.960388 1.100635,0.278439 0.395828,-1.155821 1.250817,0.459162 0.269163,-1.250817 0.997487,0.744156 0.585827,-1.124151 1.124151,0.617492 0.459162,-1.013322 0.934155,0.506661 0.538338,-0.775824 0.79165,0.585827 0.64916,-1.044987 0.74415,0.601659 0.60166,-1.298318 0.855,1.171654 0.69665,-1.329984 0.55416,1.124151 0.4275,-0.902488 0.79165,0.791657 c 0,0 0.58583,-1.915808 0.52249,-1.662478 -0.0633,0.253328 1.12416,1.599145 1.12416,1.599145 l 0.25333,-0.269162 0.31667,0.348328 0.93415,-1.709977 c 0.2788,0.588952 0.0299,1.894076 0.85499,1.741643 l 0.55416,-1.060819 0.79165,1.171652 0.60166,-1.171652 0.69666,1.329982 0.94999,-0.886654 0.22163,1.139985 1.04499,-0.75999 0.41166,1.234984 0.66499,-0.791656 0.31666,1.076653 0.94999,-0.886656 0.38,1.076653 0.75999,-0.696658 0.31666,1.044988 0.94999,-0.918322 0.69666,1.551647 0.94999,-0.60166 0.44332,1.139986 0.94999,-0.316661 0.31666,1.01332 1.07666,-0.316664 0.94999,1.45665 0.75999,3.229959 -0.88666,-0.126667 C 120.36525,61.279294 98.554284,61.444675 92.845478,67.005832 l -2.23486,3.126014 z"
       id="path1220"
       sodipodi:nodetypes="ccccccccccccccccccccccccccccccccccccccccccccccccccccccccc"
       inkscape:label="cut_51" /><path
       style="display:inline;opacity:1;fill:#000000;stroke-width:0.1;stroke-linecap:round"
       d="m 93.288835,70.433937 c 0.635144,-1.040206 0.580397,-1.40954 3.249827,-3.881281 3.734238,-0.911454 8.099708,-2.148392 12.013388,-1.872884 3.54872,0.03666 6.16625,0.541703 9.53536,1.872884 5.51561,1.78906 6.08373,6.151156 2.84873,3.237226 -2.5762,-2.120885 -11.31138,-5.896702 -7.79826,-2.56789 1.77816,1.63403 -0.80429,3.077123 -2.08002,0.420309 -0.60134,-0.819166 0.50325,-1.295049 0.0261,-1.906021 -0.39791,-0.509567 -1.45415,-0.370845 -2.53195,-0.183764 -0.87879,-0.256804 -2.42752,-0.272229 -3.0464,0.183764 -0.46648,0.343708 -0.20159,0.987537 0.1366,1.816455 -0.48108,1.720206 -4.5523,2.531333 -2.16831,-0.330743 0.70632,-0.90213 1.90002,-2.596178 0.081,-1.149865 -2.10611,1.819162 -5.588767,0.385353 -7.019653,2.956417 -0.688659,0.987152 -1.087747,1.351426 -3.246412,1.405393 z"
       id="path1222"
       sodipodi:nodetypes="cccccccscsccccsc"
       inkscape:label="cut_50" /><path
       style="display:inline;opacity:1;fill:#000000;stroke-width:0.1;stroke-linecap:round"
       d="m 90.248874,75.302392 c -0.507304,-2.439408 2.350265,-3.668414 4.34706,-3.755273 2.155634,-0.126942 4.075786,-1.030666 5.785076,-2.20604 1.80371,-0.520698 0.98783,1.558237 -0.14339,1.773464 -1.424309,0.844239 -0.337534,4.238073 -2.650703,2.809174 -1.752023,-1.572654 -3.699895,-0.0097 -5.468387,0.619533 -0.623709,0.251835 -1.248064,0.502105 -1.869656,0.759142 z"
       id="path1224"
       inkscape:label="cut_49" /><path
       style="display:inline;opacity:0.74;fill:#000000;stroke-width:0.1;stroke-linecap:round"
       d="m 125.94134,75.302392 c 0.50731,-2.439408 -2.35026,-3.668414 -4.34706,-3.755273 -2.15563,-0.126942 -4.07578,-1.030666 -5.78507,-2.20604 -1.80371,-0.520698 -0.98783,1.558237 0.14339,1.773464 1.42431,0.844239 0.33754,4.238073 2.65071,2.809174 1.75202,-1.572654 3.69988,-0.0097 5.46838,0.619533 0.62371,0.251835 1.24806,0.502105 1.86965,0.759142 z"
       id="path1224-4"
       inkscape:label="cut_48" /><path
       style="display:inline;opacity:0.565141;fill:#000000;stroke-width:0.1;stroke-linecap:round"
       d="M 89.235551,73.149086 90.248874,72.895755 90.122207,71.692438 89.678879,72.1991 Z"
       id="path1226"
       inkscape:label="cut_47" /><path
       style="display:inline;opacity:1;fill:#000000;stroke-width:0.1;stroke-linecap:round"
       d="m 110.38862,68.274297 c 0.40204,2.266614 0.85182,4.354458 -0.75732,6.931381 3.45392,0.182004 3.34148,-5.400706 0.75738,-6.931385 z"
       id="path1230"
       sodipodi:nodetypes="cccc"
       inkscape:label="cut_46" /><path
       style="display:inline;opacity:0.74;fill:#000000;stroke-width:0.1;stroke-linecap:round"
       d="m 106.32215,68.274297 c -0.40204,2.266614 -0.85182,4.354458 0.75732,6.931381 -3.45392,0.182004 -3.34148,-5.400706 -0.75738,-6.931385 z"
       id="path1230-9"
       sodipodi:nodetypes="cccc"
       inkscape:label="cut_45" /><path
       style="display:inline;opacity:0.565141;fill:#000000;stroke-width:0.1;stroke-linecap:round"
       d="m 126.53842,73.022422 0.19,-1.01332 0.56999,0.06333 -0.19,1.20332 z"
       id="path1234"
       inkscape:label="cut_44" /><path
       style="display:inline;opacity:1;fill:#000000;stroke-width:0.1;stroke-linecap:round"
       d="m 92.655511,81.572316 c -1.28431,-1.478703 -2.31217,-2.933663 -2.533304,-4.813274 1.050626,-1.31209 2.945587,-1.496559 4.228575,-2.023131 0.08058,0.172456 0.147827,0.652579 0.45035,0.965026 0.890616,-3.208296 8.401458,2.73775 8.240918,3.401409 0.062,1.503373 0.19283,2.921987 -0.1267,4.306612 -0.68874,-2.509543 -2.4335,-2.452938 -4.274943,-2.913297 l -0.411663,-3.451622 c -0.296724,-0.253822 -0.684498,-0.417119 -1.01332,0.095 l -10e-7,3.546623 c -1.505975,0.367898 -3.034012,0.61962 -4.559912,0.886656 z"
       id="path1238"
       sodipodi:nodetypes="cccccccccccc"
       inkscape:label="cut_43" /><path
       style="display:inline;opacity:0.74;fill:#000000;stroke-width:0.1;stroke-linecap:round"
       d="m 124.10833,81.572316 c 1.28431,-1.478703 2.31217,-2.933663 2.5333,-4.813274 -1.05062,-1.31209 -2.94558,-1.496559 -4.22857,-2.023131 -0.0806,0.172456 -0.14783,0.652579 -0.45035,0.965026 -0.89062,-3.208296 -8.40146,2.73775 -8.24092,3.401409 -0.062,1.503373 -0.19283,2.921987 0.1267,4.306612 0.68874,-2.509543 2.4335,-2.452938 4.27494,-2.913297 l 0.41167,-3.451622 c 0.29672,-0.253822 0.68449,-0.417119 1.01332,0.095 v 3.546623 c 1.50597,0.367898 3.03401,0.61962 4.55991,0.886656 z"
       id="path1238-1"
       sodipodi:nodetypes="cccccccccccc"
       inkscape:label="cut_42" /><path
       style="display:inline;opacity:0.565141;fill:#000000;stroke-width:0.1;stroke-linecap:round"
       d="m 93.573832,83.187296 2.596634,-0.981655 2.406636,-0.316664 2.121638,0.506661 c 0,0 1.20332,0.949989 1.20332,1.076653 0,0.126664 0.34833,1.298316 0.34833,1.424983 0,0.126664 0.0317,1.361649 0.0317,1.361649 0,0 -0.50666,0.443328 -0.79166,0.474993 -0.285,0.03167 -1.36165,0 -1.36165,0 l 0.12667,-1.26665 c 0,0 -0.0633,-0.75999 -0.12667,-0.886656 -0.0633,-0.126664 -1.424981,-1.361649 -1.551648,-1.234983 -0.126664,0.126664 -3.008296,0.03167 -3.008296,0.03167 0,0 -0.601657,0.158332 -0.664991,0.284996 -0.06333,0.126664 0.443328,1.076653 0.443328,1.076653 0,0 0.633325,0.538326 0.823323,0.538326 0.189997,0 1.393317,0.316664 1.393317,0.316664 l 1.709978,0.918321 0.696658,0.443328 c 0,0 0.506661,0.316664 0.728321,0.316664 0.22167,0 0.94999,0.03167 0.94999,0.03167 0,0 -0.285,1.044987 -0.37999,1.234985 -0.095,0.189997 -1.361654,2.343303 -1.488318,2.628299 -0.126667,0.284996 0.095,1.361649 -0.221665,0.633325 -0.316661,-0.728324 -1.519981,-3.261624 -1.646645,-3.261624 -0.126667,0 -1.013322,-0.569995 -1.013322,-0.569995 l -0.316662,-1.044985 c 0,0 0.095,-0.379997 0,-0.538327 -0.095,-0.158332 -1.108321,-0.918323 -1.108321,-0.918323 l -1.076653,-1.044985 -0.886656,-1.013323 z"
       id="path1244"
       inkscape:label="cut_41" /><path
       style="display:inline;opacity:0.565141;fill:#000000;stroke-width:0.1;stroke-linecap:round"
       d="m 123.38766,83.237223 -2.59664,-0.981655 -2.40663,-0.316664 -2.12164,0.506661 c 0,0 -1.20332,0.949989 -1.20332,1.076653 0,0.126664 -0.34833,1.298316 -0.34833,1.424983 0,0.126664 -0.0317,1.361649 -0.0317,1.361649 0,0 0.50666,0.443328 0.79166,0.474993 0.285,0.03167 1.36165,0 1.36165,0 l -0.12667,-1.26665 c 0,0 0.0633,-0.75999 0.12667,-0.886656 0.0633,-0.126664 1.42498,-1.361649 1.55165,-1.234983 0.12666,0.126664 3.00829,0.03167 3.00829,0.03167 0,0 0.60166,0.158332 0.66499,0.284996 0.0633,0.126664 -0.44332,1.076653 -0.44332,1.076653 0,0 -0.63333,0.538326 -0.82333,0.538326 -0.18999,0 -1.39331,0.316664 -1.39331,0.316664 l -1.70998,0.918321 -0.69666,0.443328 c 0,0 -0.50666,0.316664 -0.72832,0.316664 -0.22167,0 -0.94999,0.03167 -0.94999,0.03167 0,0 0.285,1.044987 0.37999,1.234985 0.095,0.189997 1.36165,2.343303 1.48832,2.628299 0.12666,0.284996 -0.095,1.361649 0.22166,0.633325 0.31666,-0.728324 1.51998,-3.261624 1.64665,-3.261624 0.12666,0 1.01332,-0.569995 1.01332,-0.569995 l 0.31666,-1.044985 c 0,0 -0.095,-0.379997 0,-0.538327 0.095,-0.158332 1.10832,-0.918323 1.10832,-0.918323 l 1.07665,-1.044985 0.88666,-1.013323 z"
       id="path1244-6"
       inkscape:label="cut_40" /><path
       style="display:inline;opacity:0.565141;fill:#000000;stroke-width:0.1;stroke-linecap:round"
       d="m 110.3016,86.341467 c 0.31435,-0.59205 1.5025,-1.64061 2.18943,-1.722181 0.11757,0.07203 -0.0491,0.330889 -0.0844,0.465296 -0.20167,0.493908 -0.45848,0.981991 -0.50266,1.522161 -0.037,1.100042 0.20277,1.631299 -0.70442,2.413988 -0.52592,0.223776 -1.25314,0.409262 -1.46012,-0.245484 -0.21489,-0.840015 0.19254,-1.796587 0.56217,-2.43378 z"
       id="path1248"
       sodipodi:nodetypes="ccccccc"
       inkscape:label="cut_39" /><path
       style="display:inline;opacity:0.565141;fill:#000000;stroke-width:0.1;stroke-linecap:round"
       d="m 106.49209,86.341467 c -0.31435,-0.59205 -1.5025,-1.64061 -2.18943,-1.722181 -0.11757,0.07203 0.0491,0.330889 0.0844,0.465296 0.20167,0.493908 0.45848,0.981991 0.50266,1.522161 0.037,1.100042 -0.20277,1.631299 0.70442,2.413988 0.52592,0.223776 1.25314,0.409262 1.46012,-0.245484 0.21489,-0.840015 -0.19254,-1.796587 -0.56217,-2.43378 z"
       id="path1248-2"
       sodipodi:nodetypes="ccccccc"
       inkscape:label="cut_38" /><path
       style="display:inline;opacity:1;fill:#000000;stroke-width:0.1;stroke-linecap:round"
       d="m 102.25039,75.270727 c 2.81374,3.490583 2.70829,3.669468 3.19829,7.283243 l 0.44333,0.189998 c 0,0 0.095,-0.728324 0.0633,-0.918321 -0.0268,-2.493367 -1.17638,-4.715139 -2.59664,-6.364923 z"
       id="path1250"
       sodipodi:nodetypes="cccccc"
       inkscape:label="cut_37" /><path
       style="display:inline;opacity:1;fill:#000000;stroke-width:0.1;stroke-linecap:round"
       d="m 114.10396,75.270727 c -2.81374,3.490583 -2.70829,3.669468 -3.19829,7.283243 l -0.44333,0.189998 c 0,0 -0.095,-0.728324 -0.0633,-0.918321 0.0268,-2.493367 1.17638,-4.715139 2.59664,-6.364923 z"
       id="path1250-0"
       sodipodi:nodetypes="cccccc"
       inkscape:label="cut_36" /><path
       style="display:inline;opacity:1;fill:#000000;stroke-width:0.1;stroke-linecap:round"
       d="m 128.79553,62.919932 c -1.50751,2.769643 -0.15645,5.989057 0.0764,8.899057 1.77012,2.879867 5.36694,4.430187 7.94954,6.668664 2.25812,1.589102 4.54112,4.067125 4.59468,6.968801 1.16324,10.553335 -8.99347,19.442996 -7.8788,14.820966 0.18771,-2.816959 -1.25365,-5.78897 -1.81638,-8.44318 0.67055,0.130722 5.40219,0.01203 6.45883,-3.654244 0.15508,-1.214199 0.0997,-3.915885 0.54178,-1.019033 -0.1977,2.255275 0.20894,5.036353 -2.58874,6.364485 -1.46375,-0.03356 -5.13965,-1.313587 -2.79465,1.138542 1.89783,2.39135 5.46151,-0.705016 6.544,-2.956039 0.97676,-2.563722 0.71801,-5.757303 -0.1971,-8.270964 -1.24073,-2.283725 -2.61146,-4.577312 -5.32999,-5.232861 -2.12454,-1.954451 -5.52768,-3.103039 -6.3073,-6.103213 -0.0758,-2.896051 -1.52448,-6.247928 0.11865,-8.851789 l 0.28459,-0.184566 z"
       id="path1258"
       sodipodi:nodetypes="ccccccccccccccccc"
       inkscape:label="cut_35" /><path
       style="display:inline;opacity:0.74;fill:#000000;stroke-width:0.1;stroke-linecap:round"
       d="m 87.694081,62.468288 c 1.50751,2.769643 0.15645,5.989057 -0.0764,8.899057 -1.77012,2.879867 -5.36694,4.430187 -7.94954,6.668664 -2.25812,1.589102 -4.54112,4.067125 -4.59468,6.968796 -1.16324,10.55334 8.99347,19.442995 7.8788,14.820968 -0.18771,-2.816958 1.25365,-5.788968 1.81638,-8.443178 -0.67055,0.13072 -5.40219,0.012 -6.45883,-3.65424 -0.15508,-1.2142 -0.0997,-3.915888 -0.54178,-1.01904 0.1977,2.25528 -0.20894,5.03636 2.58874,6.36449 1.46375,-0.0336 5.13965,-1.31359 2.79465,1.13854 -1.89783,2.39135 -5.46151,-0.70502 -6.544,-2.95604 -0.97676,-2.56372 -0.71801,-5.7573 0.1971,-8.270962 1.24073,-2.283725 2.61146,-4.577312 5.32999,-5.232861 2.12454,-1.954451 5.52768,-3.103039 6.3073,-6.103213 0.0758,-2.896051 1.52448,-6.247928 -0.11865,-8.851789 l -0.28459,-0.184566 z"
       id="path1258-4"
       sodipodi:nodetypes="ccccccccccccccccc"
       inkscape:label="cut_34" /><path
       style="display:inline;opacity:1;fill:#000000;stroke-width:0.1;stroke-linecap:round"
       d="m 129.51206,86.699241 c 0.0763,-1.379918 0.42445,-2.469071 1.9361,-2.418086 0.41981,0.130743 1.02946,0.444265 0.94177,0.969915 -0.2431,0.96115 -1.47784,2.681299 -1.9702,2.406328 -0.44691,-0.178871 -0.76177,-0.497174 -0.90767,-0.958157 z"
       id="path1260"
       sodipodi:nodetypes="ccccc"
       inkscape:label="cut_33" /><path
       style="display:inline;opacity:0.74;fill:#000000;stroke-width:0.1;stroke-linecap:round"
       d="m 86.16185,87.426302 c -1.379918,-0.0763 -2.469071,-0.42445 -2.418086,-1.9361 0.130743,-0.41981 0.444265,-1.02946 0.969915,-0.94177 0.96115,0.2431 2.681299,1.47784 2.406328,1.9702 -0.178871,0.44691 -0.497174,0.76177 -0.958157,0.90767 z"
       id="path1260-8"
       sodipodi:nodetypes="ccccc"
       inkscape:label="cut_32" /><path
       style="display:inline;opacity:1;fill:#000000;stroke-width:0.1;stroke-linecap:round"
       d="m 131.52729,89.565741 c 2.18993,-0.632837 2.00564,-1.751227 2.73243,-2.934174 0.76592,-0.13078 1.37997,1.034327 1.39049,1.67503 -0.39875,3.160144 -3.71194,2.079516 -4.12292,1.259145 z"
       id="path1262"
       sodipodi:nodetypes="ccccc"
       inkscape:label="cut_31" /><path
       style="display:inline;opacity:0.74;fill:#000000;stroke-width:0.1;stroke-linecap:round"
       d="m 81.718525,86.46406 c 0.632837,2.18993 1.751227,2.00564 2.934174,2.73243 0.13078,0.76592 -1.034327,1.37997 -1.67503,1.39049 -3.160144,-0.39875 -2.079516,-3.71194 -1.259145,-4.12292 z"
       id="path1262-6"
       sodipodi:nodetypes="ccccc"
       inkscape:label="cut_30" /><path
       style="display:inline;opacity:0.565141;fill:#000000;stroke-width:0.1;stroke-linecap:round"
       d="m 122.79463,91.401838 c 0,0 -0.58218,-0.985224 -0.58218,-1.298702 0,-0.313481 -0.22391,-1.343488 -0.0896,-1.522619 0.13435,-0.179131 0.89566,-1.030004 0.89566,-1.030004 l 1.16435,-0.626962 1.34349,0.268697 0.89565,0.537396 0.76131,0.761309 c 0,0 0.5374,0.985221 0.58218,1.298702 0.0448,0.313481 0.22391,0.626959 0.0448,0.671743 -0.17913,0.04478 -2.73175,-0.895657 -2.73175,-0.895657 0,0 -0.5374,0.403045 -0.94044,0.626959 -0.40305,0.223914 -1.11957,1.119574 -1.11957,1.119574 z"
       id="path1264"
       inkscape:label="cut_29" /><path
       style="display:inline;opacity:0.565141;fill:#000000;stroke-width:0.1;stroke-linecap:round"
       d="m 125.03377,93.685764 c 0,0 0.67175,-1.164355 0.89566,-1.298702 0.22391,-0.134348 0.49261,-0.492612 1.07479,-0.223915 0.58218,0.268698 1.65697,0.582176 2.06001,0.806093 0.40305,0.223914 0.58218,-0.04478 0.8061,0.403045 0.22391,0.447829 0.62695,0.582176 0.7613,1.030005 0.13435,0.447831 0.35827,0.761309 0.35827,0.761309 0,0 0.35826,0.223914 -0.0896,0.313481 -0.44783,0.08956 -2.82132,-0.582178 -2.82132,-0.582178 0,0 -0.58218,-0.447829 -0.94044,-0.492612 -0.35826,-0.04478 -1.34349,0 -1.34349,0 z"
       id="path1266"
       inkscape:label="cut_28" /><path
       style="display:inline;opacity:1;fill:#000000;stroke-width:0.1;stroke-linecap:round"
       d="m 120.24201,88.580517 c -1.00014,2.458771 1.68215,3.988824 2.17735,5.526801 -2.40189,1.395525 2.60386,3.419202 2.73343,5.506413 0.86829,2.398439 -0.71725,4.594949 -1.98878,6.481039 -1.30064,1.80775 0.28213,3.17706 1.73721,1.16976 2.37793,-2.47904 1.13488,-6.09468 2.5662,-8.770154 2.29027,-2.049634 7.41146,0.06944 3.54619,2.585734 -1.54206,0.67437 -2.5059,-3.475879 -2.74167,-0.34148 -0.39835,2.72394 -0.76069,5.84768 -2.86406,7.80424 -2.75708,1.50223 -4.33553,4.26811 -6.28383,6.61275 -3.35943,8.20867 -6.42305,16.55471 -8.70633,25.13232 0.21628,1.44958 -1.24425,2.46265 -0.43294,0.34065 0.8731,-3.37413 1.16531,-6.9088 2.7181,-10.08854 2.36596,-4.40716 2.43344,-9.5992 4.73178,-14.02687 1.9021,-2.60304 3.90477,-5.207 4.35208,-8.48866 0.60397,-2.80713 0.3401,-5.71584 0.72005,-8.532943 -0.84835,-2.323454 -3.37957,-3.619901 -3.98031,-6.11772 0.23016,-0.565263 3.39414,1.232756 1.98316,-0.823867 -0.83318,-1.036199 -0.79301,-2.789955 -0.26763,-3.969473 z"
       id="path1268"
       inkscape:label="cut_27" /><path
       style="display:inline;opacity:0.565141;fill:#000000;stroke-width:0.1;stroke-linecap:round"
       d="m 122.70506,95.432297 0.49262,-0.403045 0.35826,0.08956 0.2687,0.626962 -0.62696,0.134347 z"
       id="path1270"
       inkscape:label="cut_26" /><path
       style="display:inline;opacity:0.565141;fill:#000000;stroke-width:0.1;stroke-linecap:round"
       d="m 124.85464,96.372737 0.49261,-0.671743 0.98523,-0.313481 c 0,0 0.53739,0.447829 0.35826,0.626962 -0.17913,0.179131 -0.80609,1.030005 -0.80609,1.030005 l -0.67175,0.358264 z"
       id="path1272"
       inkscape:label="cut_25" /><path
       style="display:inline;opacity:0.565141;fill:#000000;stroke-width:0.1;stroke-linecap:round"
       d="m 119.61505,99.865801 c 0.4293,-1.044098 0.90439,-1.003279 1.61218,-0.313479 -0.0589,0.553478 -0.25715,0.579238 -0.76131,0.806088 -0.33973,-0.0876 -0.58095,-0.28267 -0.85087,-0.492609 z"
       id="path1274"
       sodipodi:nodetypes="cccc"
       inkscape:label="cut_24" /><path
       style="display:inline;opacity:0.565141;fill:#000000;stroke-width:0.1;stroke-linecap:round"
       d="m 116.79373,95.611428 c 0.54139,-0.12864 0.57932,-0.316892 0.7613,-0.806091 0,0 0.67175,0.492612 0.58218,0.671743 -0.23226,0.692392 -0.34716,0.644854 -1.03,0.761313 z"
       id="path1276"
       sodipodi:nodetypes="ccccc"
       inkscape:label="cut_23" /><path
       style="display:inline;opacity:0.565141;fill:#000000;stroke-width:0.1;stroke-linecap:round"
       d="m 99.373189,96.462304 c -0.669456,-0.0166 -0.809432,-0.320165 -1.074788,-0.850876 0.251509,-0.468041 0.576469,-0.624106 1.030004,-0.850874 0.789165,0.384814 0.444001,1.491709 0.04478,1.70175 z"
       id="path1278"
       sodipodi:nodetypes="cccc"
       inkscape:label="cut_22" /><path
       style="display:inline;opacity:1;fill:#000000;stroke-width:0.1;stroke-linecap:round"
       d="m 96.865349,89.297043 c -0.06722,1.423583 -0.731859,2.976124 -1.259567,4.035665 1.555001,-0.235925 3.960251,0.547776 1.500038,1.686962 -1.117317,1.014326 -1.845733,2.432124 -2.809701,3.613126 -1.087605,1.869234 -0.06555,4.093544 0.43775,5.979774 0.723736,2.12375 1.734601,4.17341 1.749535,6.45413 0.327247,2.23215 -2.024473,1.29883 -2.351345,-0.23409 -1.183215,-1.8237 -3.177731,-3.00843 -4.075143,-5.04184 -0.698956,-1.50853 -1.076114,-3.13635 -1.309614,-4.75759 -0.185903,-1.430246 -1.785619,-1.635557 -1.751127,-0.068 -1.548207,1.7146 -2.61132,-1.014486 -2.300152,-2.367744 0.127467,-1.921245 2.343973,-1.702557 3.561065,-0.979659 1.525927,0.456955 1.954126,2.327463 2.238651,3.716933 -0.874723,1.41436 0.663922,2.96067 1.101172,4.32803 0.749937,0.58882 2.687366,3.66855 2.413044,1.1067 0.129957,-1.94465 -2.415609,-2.02846 -1.833343,-3.98034 -0.558992,-1.6296 -0.766107,-3.592001 0.04242,-5.178046 0.792015,-1.16131 3.49225,-1.581068 2.732907,-3.400457 -1.96415,-1.324583 1.480847,-2.615784 0.993101,-4.394095 0.0036,-0.498123 0.456743,-0.950427 0.920306,-0.519449 z"
       id="path1282"
       inkscape:label="cut_21" /><path
       style="display:inline;opacity:0.565141;fill:#000000;stroke-width:0.1;stroke-linecap:round"
       d="m 89.914535,95.633161 c 1.418772,-0.277275 1.809937,-0.19733 1.924964,0.927324 0.04478,0.492612 -0.131862,0.763559 -0.131862,0.763559 -0.697213,-0.319873 -2.781991,-1.343161 -1.793102,-1.690883 z"
       id="path1284"
       sodipodi:nodetypes="cccc"
       inkscape:label="cut_20" /><path
       style="display:inline;opacity:0.565141;fill:#000000;stroke-width:0.1;stroke-linecap:round"
       d="m 93.237935,95.880125 c 0,0 -0.268695,-0.358262 -0.223914,-0.537395 0.04478,-0.179131 0.492612,-0.671743 0.492612,-0.671743 0,0 0.313481,0.268698 0.358264,0.537395 0.04478,0.268698 0.134348,0.537396 -0.08957,0.62696 -0.223914,0.08957 -0.537395,0.04478 -0.537395,0.04478 z"
       id="path1286"
       inkscape:label="cut_19" /><path
       style="display:inline;opacity:0.565141;fill:#000000;stroke-width:0.1;stroke-linecap:round"
       d="m 95.439047,98.67343 c 0,0 0.329546,-0.590795 0.50868,-0.0534 0.0069,0.855368 1.292141,0.729181 1.051969,1.021856 -0.459328,0.572364 -1.039931,0.350683 -1.414269,0.558424 -0.750136,0.12798 -0.962607,-0.541282 -0.14638,-1.52688 z"
       id="path1288"
       sodipodi:nodetypes="ccccc"
       inkscape:label="cut_18" /><path
       style="display:inline;opacity:1;fill:#000000;stroke-width:0.1;stroke-linecap:round"
       d="m 103.28758,90.207301 c 0.51123,-0.96654 1.99999,-0.637146 2.35327,0.310323 0.5628,0.958387 0.56741,2.116307 1.13479,3.070139 0.58298,1.32353 0.80554,2.776485 0.80167,4.211271 0.12193,1.224177 0.10368,2.708796 -0.84169,3.620416 -1.01715,0.67582 -1.80363,-0.43602 -2.33357,-1.16304 -1.19987,-1.395971 -2.4138,0.53442 -1.89157,1.74881 0.25424,2.10475 1.56048,3.8677 2.29577,5.79245 0.34568,3.20371 1.48596,6.31372 1.3359,9.56859 -0.0102,0.49337 0.24811,1.96564 0.14673,1.87547 -0.48281,-1.81333 -1.61784,-3.35651 -2.31785,-5.07235 -0.81146,-3.71101 -3.56444,-6.50999 -5.500025,-9.6515 -0.464764,-0.91591 -1.859915,-2.38011 -1.836202,-2.87084 4.552367,3.08573 6.004317,10.15533 8.930877,13.68803 0.0151,-0.92401 -0.26248,-2.34538 -0.40625,-3.45304 -0.60239,-3.3887 -2.80503,-6.25836 -3.39868,-9.65212 -0.25908,-1.97236 0.2256,-3.991661 1.26004,-5.68078 0.73145,-2.911835 -0.81197,-4.204522 0.26679,-6.341829 z"
       id="path1316"
       sodipodi:nodetypes="cccccccccccccccccc"
       inkscape:label="cut_17" /><path
       style="display:inline;opacity:0.74;fill:#000000;stroke-width:0.1;stroke-linecap:round"
       d="m 113.73,90.207299 c -0.51123,-0.96654 -1.99999,-0.637146 -2.35327,0.310323 -0.5628,0.958387 -0.56741,2.116307 -1.13479,3.070138 -0.58298,1.323531 -0.80554,2.776485 -0.80167,4.211271 -0.12193,1.224177 -0.10368,2.708799 0.84169,3.620419 1.01715,0.67582 1.80363,-0.43602 2.33357,-1.16304 1.19987,-1.395973 2.4138,0.53442 1.89157,1.74881 -0.25424,2.10475 -1.56048,3.8677 -2.29577,5.79245 -0.34568,3.20371 -1.48596,6.31372 -1.3359,9.56859 0.0102,0.49337 -0.24811,1.96564 -0.14673,1.87547 0.48281,-1.81333 1.61784,-3.35651 2.31785,-5.07235 0.81146,-3.71101 3.56444,-6.50999 5.50003,-9.6515 0.46476,-0.91591 1.85991,-2.38011 1.8362,-2.87084 -4.55237,3.08573 -6.00432,10.15533 -8.93088,13.68803 -0.0151,-0.92401 0.26248,-2.34538 0.40625,-3.45304 0.60239,-3.3887 2.80503,-6.25836 3.39868,-9.65212 0.25908,-1.97236 -0.2256,-3.991663 -1.26004,-5.680782 -0.73145,-2.911835 0.81197,-4.204522 -0.26679,-6.341829 z"
       id="path1316-9"
       sodipodi:nodetypes="cccccccccccccccccc"
       inkscape:label="cut_16" /><path
       style="display:inline;opacity:1;fill:#000000;stroke-width:0.1;stroke-linecap:round"
       d="m 96.372737,105.86671 3.493064,4.20959 3.582629,6.71743 1.61218,5.64264 1.34349,4.47828 0.0896,2.23915 h -0.71653 l -1.25392,-4.56785 -1.25392,-6.00091 -1.34349,-3.22437 -2.149574,-3.49306 -1.970447,-2.77654 -1.074788,-1.79131 -0.537395,-1.79132 z"
       id="path1342"
       inkscape:label="cut_15" /><path
       style="display:inline;opacity:1;fill:#000000;stroke-width:0.1;stroke-linecap:round"
       d="m 107.21019,107.12063 -2.32871,-3.00046 c 0,0 -0.0448,-1.11957 0.0896,-1.38827 0.13435,-0.26869 0.71652,-1.03 0.71652,-1.03 0,0 1.03001,0.40305 1.16436,0.67174 0.13435,0.2687 0.76131,2.46306 0.76131,2.46306 l 0.67174,4.12002 -0.0896,4.88134 0.71652,15.36052 -0.85087,0.67175 c 0,0 -0.89566,-0.89566 -0.71653,-1.03001 0.17913,-0.13435 0.67174,-4.34394 0.67174,-4.34394 l -0.44783,-16.52488 -0.0448,-1.07479 -0.0896,-1.34348 -0.71653,-1.34349 -0.0896,0.2687 z"
       id="path1344"
       inkscape:label="cut_14" /><path
       style="display:inline;opacity:1;fill:#000000;stroke-width:0.1;stroke-linecap:round"
       d="m 109.98314,106.96388 2.32871,-3.00046 c 0,0 0.0448,-1.11957 -0.0896,-1.38827 -0.13435,-0.26869 -0.71652,-1.03 -0.71652,-1.03 0,0 -1.03001,0.40305 -1.16436,0.67174 -0.13435,0.2687 -0.76131,2.46306 -0.76131,2.46306 l -0.67174,4.12002 0.0896,4.88134 -0.71652,15.36053 0.85087,0.67175 c 0,0 0.89566,-0.89566 0.71653,-1.03001 -0.17913,-0.13435 -0.67174,-4.34394 -0.67174,-4.34394 l 0.44783,-16.52489 0.0448,-1.07479 0.0896,-1.34348 0.71653,-1.34349 0.0896,0.2687 z"
       id="path1344-1"
       inkscape:label="cut_13" /><path
       style="display:inline;opacity:0.565141;fill:#000000;stroke-width:0.1;stroke-linecap:round"
       d="m 145.0965,105.15018 c -1.10564,-0.85431 -2.45674,0.35915 -2.06788,1.58586 1.16742,0.61671 2.32233,-1.02423 2.95509,-1.85498 0.83774,-1.34483 0.13162,-3.05531 1.05636,-4.36539 0.99174,-2.12165 2.56833,-3.96201 3.22436,-6.237583 0.65538,-0.76758 -0.0645,-1.52948 -0.68701,-0.661789 -1.17687,0.824763 -2.27123,2.210772 -2.09778,3.714236 -0.098,1.704875 -1.56727,2.871926 -2.0132,4.469406 -0.43522,1.07333 -0.46417,2.21447 -0.36994,3.35024 z"
       id="path2717"
       inkscape:label="cut_12" /><path
       style="display:inline;opacity:1;fill:#000000;stroke-width:0.1;stroke-linecap:round"
       d="m 106.49367,141.51387 c 0.0315,-3.5747 -0.39037,-7.26758 -2.29528,-10.3768 -1.76723,-3.0075 -3.16214,-6.22584 -4.13237,-9.57471 -0.61577,-2.23973 -1.256201,-4.47491 -1.669063,-6.75237 -0.344372,-0.79785 -1.729208,-4.27728 -0.201107,-2.31055 0.509901,2.16456 0.968375,4.347 1.81915,6.42799 0.73268,2.15309 1.79184,4.2289 2.72754,6.3202 1.24483,3.38512 2.49438,6.63109 3.91753,9.9418 1.07538,1.96708 1.0765,4.42985 -0.1664,6.32444 z"
       id="path2735"
       sodipodi:nodetypes="ccccccccc"
       inkscape:label="cut_11" /><path
       style="display:inline;opacity:1;fill:#000000;stroke-width:0.1;stroke-linecap:round"
       d="m 111.24065,128.6164 c 0.16647,-1.75512 1.03301,-3.3533 1.23894,-5.10617 1.11999,-2.86066 2.25826,-5.72788 3.0489,-8.7029 1.02003,-2.08216 2.71175,-3.73284 3.85261,-5.74412 0.4475,-0.79007 2.10195,-3.06776 -0.0348,-2.33412 -1.24755,0.94187 -1.39848,2.68727 -2.12912,3.99298 -0.5732,1.83782 -1.8468,3.2769 -2.9226,4.82476 -1.43854,2.33484 -1.49225,5.19217 -2.56412,7.68333 -0.59621,1.6266 -0.9828,3.44299 -0.48024,5.14417 -0.003,0.0805 -0.007,0.16236 -0.01,0.24207 z"
       id="path2737"
       inkscape:label="cut_10" /><path
       style="display:inline;opacity:1;fill:#000000;stroke-width:0.1;stroke-linecap:round"
       d="m 84.550058,104.88148 c -2.725354,-0.78839 -2.04911,4.01156 0.374353,2.75906 2.22911,0.53971 4.425065,-0.71616 3.333139,-4.27985 -1.343525,-0.7498 -4.287987,1.07946 -6.051026,-0.45655 -4.034096,-1.77668 -7.655867,-5.57694 -9.692837,-9.521257 -2.26258,-4.582428 -4.156896,-3.048283 -3.8296,-5.821742 0.54937,-1.916482 2.01905,-3.562402 2.613089,-5.47188 0.898544,-2.297033 2.348186,-3.919168 4.424222,-5.247495 1.846962,-1.48463 4.064538,-3.59614 4.389868,-6.059263 2.424184,1.24875 3.93344,-0.0045 5.247067,-2.476991 -1.084916,-0.02078 -1.930902,2.268385 -3.098486,2.481185 -0.763662,0.139182 -1.483468,-0.896034 -2.156674,-0.554588 -1.508695,1.981994 -2.320947,3.649554 -4.186437,5.104812 -1.616619,1.974315 -3.150603,4.044643 -4.956351,5.859907 -1.420068,1.861184 -2.073787,4.608475 -4.092038,5.575444 -1.883373,-1.673115 -3.271558,-3.647632 -4.7345,-4.90988 -2.280498,-1.58388 -3.185966,-4.149968 -3.800121,-6.419716 -1.456393,-4.35051 -0.102848,-6.771656 -1.331888,-9.726702 -0.569178,0.46034 -0.877121,3.832761 -0.525221,5.571661 0.81828,2.951418 0.675358,4.893397 2.094021,7.659342 1.529232,2.26682 4.742455,4.236233 5.906132,6.792926 2.174733,2.918642 5.519526,4.754917 7.266136,8.041479 1.626495,2.463577 3.448223,4.27489 5.214223,6.539748 1.146839,1.2761 -1.641997,4.74675 0.471948,4.36658 0.614559,-0.0557 0.454739,-1.60129 0.940451,-1.98479 0.51503,-0.40665 1.929891,0.40151 1.636687,1.78491 1.169839,1.40041 3.350263,-1.23937 4.543843,0.39365 z"
       id="path2751"
       sodipodi:nodetypes="ccccccccccscccccccccccccscc"
       inkscape:label="cut_9" /><path
       style="display:inline;opacity:0.74;fill:#000000;stroke-width:0.1;stroke-linecap:round"
       d="m 132.66507,104.73729 c 2.72535,-0.78839 2.04911,4.01156 -0.37436,2.75906 -2.22911,0.53971 -4.42506,-0.71616 -3.33314,-4.27985 1.34353,-0.7498 4.28799,1.07946 6.05103,-0.45655 4.0341,-1.77668 7.65587,-5.576944 9.69284,-9.521264 2.26258,-4.58243 4.15689,-3.04828 3.8296,-5.82174 -0.54937,-1.91648 -2.01905,-3.5624 -2.61309,-5.47188 -0.89854,-2.297033 -2.34819,-3.919168 -4.42422,-5.247495 -1.84696,-1.48463 -4.06454,-3.59614 -4.38987,-6.059263 -2.42418,1.24875 -3.93344,-0.0045 -5.24707,-2.476991 1.08492,-0.02078 1.9309,2.268385 3.09849,2.481185 0.76366,0.139182 1.48347,-0.896034 2.15667,-0.554588 1.5087,1.981994 2.32095,3.649554 4.18644,5.104812 1.61662,1.974315 3.1506,4.044643 4.95635,5.85991 1.42007,1.86118 2.07379,4.60847 4.09204,5.57544 1.88337,-1.67311 3.27156,-3.64763 4.7345,-4.90988 2.2805,-1.583879 3.18597,-4.149967 3.80012,-6.419715 1.4564,-4.35051 0.10285,-6.771656 1.33189,-9.726702 0.56918,0.46034 0.87712,3.832761 0.52522,5.571661 -0.81828,2.951418 -0.67535,4.893397 -2.09402,7.659342 -1.52923,2.266824 -4.74246,4.236234 -5.90613,6.792924 -2.17474,2.91864 -5.51953,4.75492 -7.26614,8.04148 -1.6265,2.46358 -3.44822,4.27489 -5.21422,6.539754 -1.14684,1.2761 1.64199,4.74675 -0.47195,4.36658 -0.61456,-0.0557 -0.45474,-1.60129 -0.94045,-1.98479 -0.51503,-0.40665 -1.92989,0.40151 -1.63669,1.78491 -1.16984,1.40041 -3.35026,-1.23937 -4.54384,0.39365 z"
       id="path2751-9"
       sodipodi:nodetypes="ccccccccccscccccccccccccscc"
       inkscape:label="cut_8" /><path
       style="display:inline;opacity:0.565141;fill:#000000;stroke-width:0.1;stroke-linecap:round"
       d="m 58.307297,86.072677 c 1.451266,0.329833 2.892292,0.742062 4.252824,1.367353 1.141437,0.464723 1.964072,0.924433 3.287667,1.582145 0.866127,1.294407 1.866897,2.495475 2.958288,3.560972 0.546034,1.000236 1.656993,1.470692 1.687151,2.731894 -1.131709,-0.209476 -3.595846,-3.693996 -4.489898,-4.600528 -1.211132,-2.126154 -2.612976,-1.760087 -3.521048,-2.218674 -0.740645,-0.170329 -1.320177,1.676074 -1.299142,0.07291 0.310144,-1.272539 -2.936369,-1.346938 -3.558825,-2.208417 -0.236869,-0.20432 -0.02206,-0.447893 0.190367,-0.399613 z"
       id="path2753"
       sodipodi:nodetypes="sccccccccss"
       inkscape:label="cut_7" /><path
       style="display:inline;opacity:0.565141;fill:#000000;stroke-width:0.1;stroke-linecap:round"
       d="m 65.373716,94.750621 c 0.152336,-1.228065 1.234593,-1.720615 3.407212,2.065225 0.339067,1.890618 2.498071,3.117914 2.829703,5.011464 0.364556,1.29637 0.397745,4.24615 2.218447,3.27796 -0.970217,-0.78718 1.199461,-3.54809 0.907911,-3.71276 -1.220592,-0.56635 -0.326102,-1.17548 0.754018,-0.82224 0.156704,1.93369 -1.449372,3.62894 -1.471442,5.65849 0.385982,2.53846 -1.742517,0.66958 -2.075849,-0.92286 -0.422831,-1.85603 -1.029507,-3.85292 -2.130864,-5.29821 -0.402371,-2.180859 -2.204731,-3.4381 -3.256585,-5.331615 -0.217415,-0.390365 -0.822954,0.179054 -1.182551,0.07455 z"
       id="path2755"
       sodipodi:nodetypes="cccccccccccc"
       inkscape:label="cut_6" /><path
       style="display:inline;opacity:1;fill:#000000;stroke:#000000;stroke-width:0.1;stroke-linecap:round"
       d="m 73.078894,86.754832 c -0.427537,0.161262 -0.560754,0.687534 -0.611235,1.098311 -0.155277,0.484698 0.143332,0.967992 0.644327,1.052476 1.939303,0.695779 1.219594,-2.251818 -0.03309,-2.150787 z"
       id="path1726"
       sodipodi:nodetypes="cccc"
       inkscape:label="cut_5" /><path
       style="display:inline;opacity:0.74;fill:#000000;stroke:#000000;stroke-width:0.1;stroke-linecap:round"
       d="m 142.92669,86.11002 c -0.42754,0.161262 -0.56076,0.687534 -0.61124,1.098311 -0.15528,0.484698 0.14333,0.967992 0.64433,1.052476 1.9393,0.695779 1.21959,-2.251818 -0.0331,-2.150787 z"
       id="path1726-0"
       sodipodi:nodetypes="cccc"
       inkscape:label="cut_4" /><ellipse
       style="display:inline;opacity:0.74;fill:#000000;stroke:#000000;stroke-width:0.984296"
       id="path710"
       cx="108.89824"
       cy="47.237465"
       rx="0.90482926"
       ry="0.90330696"
       inkscape:label="cut_3" /><ellipse
       style="display:inline;opacity:0.74;fill:#000000;stroke:#000000;stroke-width:0.854001"
       id="path794"
       cx="91.743607"
       cy="60.45303"
       rx="1.7539562"
       ry="1.660412"
       inkscape:label="cut_2" /><ellipse
       style="display:inline;opacity:0.74;fill:#000000;stroke:#000000;stroke-width:0.854001"
       id="path794-4"
       cx="126.00421"
       cy="60.38287"
       rx="1.7539562"
       ry="1.660412"
       inkscape:label="cut_1" /></g></svg>
