<?xml version="1.0" encoding="UTF-8" standalone="no"?>
<!-- Created with Inkscape (http://www.inkscape.org/) -->

<svg
   width="210mm"
   height="297mm"
   viewBox="0 0 210 297"
   version="1.1"
   id="svg5"
   xml:space="preserve"
   inkscape:version="1.2.2 (732a01da63, 2022-12-09)"
   sodipodi:docname="Creature_Corps_Interieur_Haut.svg"
   xmlns:inkscape="http://www.inkscape.org/namespaces/inkscape"
   xmlns:sodipodi="http://sodipodi.sourceforge.net/DTD/sodipodi-0.dtd"
   xmlns="http://www.w3.org/2000/svg"
   xmlns:svg="http://www.w3.org/2000/svg"><sodipodi:namedview
     id="namedview7"
     pagecolor="#ffffff"
     bordercolor="#000000"
     borderopacity="0.25"
     inkscape:showpageshadow="2"
     inkscape:pageopacity="0.0"
     inkscape:pagecheckerboard="0"
     inkscape:deskcolor="#d1d1d1"
     inkscape:document-units="mm"
     showgrid="true"
     inkscape:zoom="0.70710678"
     inkscape:cx="427.0925"
     inkscape:cy="489.31789"
     inkscape:window-width="1920"
     inkscape:window-height="1009"
     inkscape:window-x="-8"
     inkscape:window-y="-8"
     inkscape:window-maximized="1"
     inkscape:current-layer="layer6"><inkscape:grid
       type="xygrid"
       id="grid4808" /></sodipodi:namedview><defs
     id="defs2"><inkscape:path-effect
       effect="mirror_symmetry"
       start_point="108.55816,143.77764"
       end_point="108.55816,153.87059"
       center_point="108.55816,148.82411"
       id="path-effect753"
       is_visible="true"
       lpeversion="1.2"
       lpesatellites=""
       mode="free"
       discard_orig_path="false"
       fuse_paths="true"
       oposite_fuse="false"
       split_items="false"
       split_open="false"
       link_styles="true" /><inkscape:path-effect
       center_point="108.9495,53.08641"
       end_point="108.9495,61.716891"
       start_point="108.9495,44.455929"
       effect="mirror_symmetry"
       id="path-effect897"
       is_visible="true"
       lpeversion="1.2"
       lpesatellites=""
       mode="free"
       discard_orig_path="false"
       fuse_paths="false"
       oposite_fuse="false"
       split_items="false"
       split_open="false"
       link_styles="false" /></defs><g
     inkscape:groupmode="layer"
     id="layer6"
     inkscape:label="corps_int_haut"
     style="display:inline"><path
       id="path2661"
       style="display:inline;opacity:0.565141;fill:#1c71d8;stroke-width:0.1;stroke-linecap:round"
       inkscape:label="détourage"
       d="m 134.5768,158.70866 -4.51239,0.46405 0.99116,3.21273 c 0.0845,0.27402 0.66149,0.3354 0.95963,0.51883 0.45651,0.2148 -0.0985,1.03121 -0.46509,0.76223 l -1.13326,-0.64131 -1.21182,-3.42356 c -1.234,0.45116 -2.16435,1.05411 -3.14606,1.63142 l 1.12707,2.5306 c 0.23024,0.51699 0.89618,2.30047 1.59421,3.16776 0.21715,0.2698 0.088,1.00183 0.0935,1.11828 0.0259,0.54508 -0.41654,1.65675 -1.10484,1.38751 -0.16481,-0.0771 -0.35581,-0.12112 -0.3514,-0.40979 l 0.6661,-0.83044 -0.11937,-0.77721 -0.83767,-2.10995 c -0.1154,-0.32863 -1.10721,-2.36622 -1.40974,-2.36988 -0.14852,0.88052 -0.10326,4.11837 -0.86144,4.81365 l -0.46251,0.0424 c 0.0129,-0.1659 -0.1692,-0.27837 -0.18706,-0.42995 -0.0177,-0.15043 0.12891,-0.34025 0.15347,-0.49609 0.17823,-1.13072 0.58792,-2.23644 0.38913,-3.64991 -0.0435,-0.30901 0.85187,-1.49997 0.36328,-1.37924 -0.9716,0.24008 -2.05809,0.40469 -2.8484,0.89245 -1.35509,0.83632 -2.22321,2.0493 -3.07423,2.74557 -1.26331,1.03359 -2.73287,2.82878 -3.35794,5.27409 -0.0382,0.14952 0.052,2.57904 0.0134,2.72852 -0.0345,0.13352 -0.60701,1.05043 -0.64182,1.18391 -0.73479,2.81755 -1.29848,4.74881 -2.25723,7.50135 -0.073,0.20949 -0.34599,0.50054 -0.42168,0.709 -0.0791,0.21779 -0.39893,0.84257 -0.42891,1.07229 -0.22408,1.71663 -0.72427,2.46828 -1.4764,3.87573 -1.35452,2.53468 -1.73711,2.16958 -2.71094,-0.601 -0.95461,-1.98049 -1.81262,-3.27197 -2.74609,-4.90203 -0.24763,-0.43243 -0.19215,-0.75401 -0.48266,-1.26865 -0.21765,-0.38557 -0.56805,-0.8852 -0.60875,-1.52859 -0.0624,-0.98614 0.0864,-2.25117 -0.31316,-2.84376 -1.4914,-2.21185 -2.90905,-3.72049 -4.21886,-6.29625 -0.382645,-0.75249 -1.584861,-4.35153 -2.434993,-4.85604 -1.567893,-0.93045 -0.694496,-1.05591 -2.182296,-1.06195 -0.188672,-7.7e-4 -0.615174,-0.0929 -0.767395,-0.20464 -0.162965,-0.1196 -0.82203,-1.19625 -0.964282,-1.34048 -1.458064,-1.47831 -2.298201,-1.99055 -4.340304,-2.67477 -0.743317,-0.24905 -1.544425,-0.2884 -2.328023,-0.28112 H 86.5203 c -6.552596,0.0345 -7.237825,2.00228 -8.495605,3.78168 -0.192756,0.27269 -0.02853,0.65051 0.146761,0.96066 0.064,0.11325 0.390179,0.31831 0.47594,0.43408 0.133131,0.17972 0.240405,0.46394 0.289388,0.78135 0.004,0.57428 -0.02274,1.13758 -0.07235,1.43092 -0.07656,0.45269 -0.968273,0.14567 -1.163753,-0.12247 -0.213135,-0.29235 -0.144351,-1.06673 -0.670244,-1.64073 -0.471343,0.86766 -0.495111,1.55781 -0.74259,2.33681 -2.234958,4.47884 -1.349661,7.17958 -0.559656,9.01857 0.184338,0.42911 1.013956,1.08406 1.105359,1.71514 0.03569,0.24644 -0.830236,0.95403 -0.949813,1.4671 -1.562746,5.29758 -7.532432,2.81211 -10.625708,6.50968 -1.121604,1.06758 -2.394887,3.26065 -2.306836,4.34288 0.02633,0.32363 1.046145,0.12777 1.982308,1.26763 0.312779,0.67067 -0.908977,2.16283 -0.977201,2.74453 -0.04513,0.38482 -0.429537,0.94565 -0.365352,1.28003 0.172674,0.89957 0.721078,1.2977 1.133264,1.87792 0.05662,-0.98393 0.471858,-1.712 0.822172,-2.48615 0.503807,-1.10819 1.352364,-1.80575 2.326989,-2.10737 0.359719,-0.11133 0.77061,0.0487 1.133265,-0.046 0.363433,-0.0949 0.576094,-0.15657 1.133781,-0.17725 0.717228,-0.0266 0.7483,-0.23524 0.859895,0.16175 0.249056,0.886 0.608083,1.26797 0.03566,4.03386 0.895617,-0.17526 1.33578,-0.14364 2.172994,-0.13074 0.179889,0.003 0.19092,0.29918 0.324528,0.56172 0.160904,0.31617 0.447284,0.62036 0.732255,0.79582 0.251766,0.15501 0.241331,1.14417 0.398425,1.58853 0.189152,0.53503 0.296849,1.11973 0.848527,1.06195 1.389075,-0.14549 3.447327,0.079 2.898532,-1.13843 -2.987706,-2.71635 -1.109337,-8.93355 2.431376,-9.32501 2.309027,2.78351 5.900183,1.38735 8.009847,-0.39119 -1.175797,-0.61575 -2.777582,-0.81509 -4.731494,-1.52963 -1.915543,-3.33847 3.127892,-9.69 3.846793,-13.30564 0.380063,-1.1977 1.341623,-1.91647 2.511475,-2.25258 0.157905,-0.0528 0.325045,-0.0932 0.502811,-0.11886 1.818405,-0.34319 3.983929,0.13421 5.268929,1.12345 1.992993,2.156 5.467098,3.34691 6.129858,6.44147 1.84718,3.45894 2.09003,7.25457 5.32371,9.78235 2.84454,1.6782 4.50229,-2.00213 5.94795,-4.2137 2.00088,-2.69053 2.38141,-4.75205 3.56981,-7.55664 3.19771,-2.08949 3.01727,-9.69054 7.01094,-9.9286 v 5.2e-4 c 3.30975,1.49998 8.02527,9.45118 8.00727,12.91446 3.17146,3.28823 -2.70971,6.64609 -1.34462,8.35711 -0.26345,0.478 -0.55842,0.96858 -0.86248,1.46451 -0.0658,-0.0129 -0.13298,-0.0278 -0.20258,-0.0455 0.2589,-4.63867 3.19716,-11.36825 -1.01699,-16.19797 l -3.5295,-5.1046 c -0.35992,-0.52047 -0.61942,-0.89799 -1.0976,-1.05213 l -0.0315,0.002 c 0.46812,0.15733 0.7267,0.53123 1.08262,1.04593 l 3.5295,5.1046 c 4.21415,4.82973 1.2759,11.55929 1.017,16.19797 2.83083,-1.03532 3.43169,-6.2354 4.5992,-0.36173 4.05535,-4.60728 6.57406,5.45203 2.27635,7.30343 -3.83832,3.71631 4.52649,4.23459 4.15891,-0.062 -0.0341,-3.78042 4.87967,-9.28104 -0.91053,-10.72803 -0.89261,-0.80453 -2.07486,-1.20419 -2.98225,-1.70429 -0.34935,-0.19254 -0.97288,-0.87922 -1.01028,-1.34307 -0.0294,-0.36428 0.0505,-0.65681 0.3514,-0.77928 0.32606,-0.13271 0.84452,-0.1428 1.45573,-0.18139 0.18282,-0.0115 -0.0122,-0.24743 0.18448,-0.2682 0.25341,-0.0267 0.90208,0.15774 1.16841,0.10026 1.18208,-0.24496 1.89807,-0.23547 1.80299,-0.67128 -0.0543,-0.24883 -0.76489,-0.2537 -0.84233,-0.66973 -0.26037,-1.39885 -1.17375,-2.6139 -1.18442,-3.28352 -0.002,-0.13489 -0.14618,-0.47869 -0.0419,-0.66972 0.074,-0.13548 0.36599,-0.13574 0.50746,-0.19017 0.33549,0.71837 0.86647,2.1315 1.25884,3.15743 0.18803,0.49166 0.64632,0.89135 1.14515,1.21543 0.18906,0.12283 0.6131,-0.223 0.71779,-0.47388 0.0868,-0.20804 -0.10142,-0.51738 -0.19844,-0.73794 -0.19099,-0.43416 -0.22759,-0.69872 -0.17983,-0.87591 1.11536,-0.83571 1.62381,-2.29346 2.47736,-2.19987 l 0.17002,0.0186 0.008,-0.2279 c 0.46114,-0.79819 0.77149,-1.71678 1.01286,-2.69079 0.004,-0.0149 -0.65133,-0.20511 -0.63407,-0.49713 0.045,-0.76112 0.34069,-1.41149 0.85008,-2.21433 0.0415,-0.0654 0.45208,-0.20357 0.4625,-0.28164 0.0861,-0.64469 0.14171,-1.34023 0.15141,-2.08514 -0.1078,-5.50169 -1.63428,0.17385 -6.74687,-5.43636 l -1.92702,-2.1146 c 0.73922,-1.49501 -2.97359,-3.76164 -3.30832,-4.01836 z m -42.601019,14.63166 c 0.183722,0.0212 0.375503,0.0534 0.576709,0.0982 1.884853,0.41962 5.163228,2.48845 6.525183,3.63182 1.947327,1.63478 2.735497,4.61987 3.655077,7.02851 l 5.91488,8.96121 c 0.065,0.0985 0.15521,0.14327 0.26355,0.14469 -0.0876,-0.0124 -0.16155,-0.0565 -0.21704,-0.14056 l -5.91488,-8.96121 c -0.91958,-2.40863 -1.70775,-5.39373 -3.655078,-7.02851 -1.361954,-1.14337 -4.640332,-3.2122 -6.525183,-3.63182 -0.218369,-0.0486 -0.425396,-0.0815 -0.623218,-0.10232 z m -3.966166,14.74897 c -1.095547,-0.0262 -2.443374,0.31754 -3.234945,0.27699 0.848738,0.0627 2.394824,-0.36062 3.551722,-0.25683 -0.10282,-0.0106 -0.2082,-0.0176 -0.316777,-0.0202 z"
       sodipodi:nodetypes="cccccccccscccccccccssssssssssscscssssssssssssssscssccssccscssccssssccsssscccccccccccccccccccccccccccccssssccsscscsssscscccssccsccccscccccssccccc" /><path
       style="opacity:0.565141;fill:#000000;stroke-width:0.1;stroke-linecap:round"
       d="m 77.267716,184.40645 c 0.08853,2e-5 0.503976,-0.50466 0.651631,-0.80836 0.105732,-0.60638 0.311408,-1.53223 0.432552,-2.34051 0.11675,-0.77896 0.144995,-1.4504 0.451438,-1.53451 0.296553,-0.1331 0.510302,0.008 0.595584,0.24114 -0.09956,1.25264 -0.01317,2.58271 -0.598669,3.53736 -0.05684,0.23142 -0.01153,0.52372 -0.194388,0.68334 -0.07831,0.27373 -0.35377,0.40472 -0.425383,0.6765 -0.581523,0.12238 -1.112339,0.22879 -1.018007,-0.45498 z"
       id="path2663"
       sodipodi:nodetypes="scsccccccs"
       inkscape:label="cut_23" /><path
       style="opacity:0.565141;fill:#000000;stroke-width:0.1;stroke-linecap:round"
       d="m 80.886399,184.97466 c -0.948593,-0.21406 -0.110116,-1.54856 -0.07125,-2.32631 l 0.118948,-0.34968 c 0.04163,-0.12238 0.304281,-0.60581 0.176894,-0.651 l -0.354609,-0.12581 c -0.128517,-0.0456 -0.07672,-0.17105 -0.105958,-0.24071 -0.01979,-0.33963 -0.0018,-0.38589 0.287403,-0.5488 0.354658,-0.16831 1.619319,0.0237 1.851564,0.13912 0.521465,0.38063 0.481583,0.64145 0.399267,1.25963 -0.07653,0.60618 -0.544785,0.99217 -0.579905,1.26761 -0.263012,1.12295 -0.836753,1.3467 -1.722348,1.57595 z"
       id="path2667"
       sodipodi:nodetypes="ccsssccccccc"
       inkscape:label="cut_22" /><path
       style="opacity:0.565141;fill:#000000;stroke-width:0.1;stroke-linecap:round"
       d="m 85.878928,178.78777 c -0.397096,-0.72361 -0.806887,-1.44028 -1.230217,-2.14887 -0.07404,-0.55248 0.599237,-0.68745 0.881696,-1.03245 0.416062,-0.15321 0.883804,-0.82802 1.313325,-0.51882 0.344301,0.52553 0.04845,1.07454 -0.498268,1.27272 -0.58817,0.48065 0.159524,1.2206 -0.07811,1.82782 -0.05276,0.24009 -0.216984,0.43257 -0.388425,0.5996 z"
       id="path2669"
       inkscape:label="cut_21" /><path
       style="opacity:0.565141;fill:#000000;stroke-width:0.1;stroke-linecap:round"
       d="m 79.735671,177.14112 c 0.573327,-0.2969 1.08008,-0.74501 1.71506,-0.90732 0.271859,0.0379 0.738941,-0.21769 0.886446,0.0771 0.03362,0.33176 -0.298262,0.50057 -0.584257,0.50203 -0.222537,0.11086 -0.350025,0.34412 -0.635718,0.35033 -0.184948,0.1704 -0.332886,0.40908 -0.581556,0.50674 -0.286614,0.14144 -0.467833,-0.17338 -0.593092,-0.37197 -0.06145,-0.0614 -0.132674,-0.11214 -0.206883,-0.15689 z"
       id="path2671"
       inkscape:label="cut_20" /><path
       style="opacity:0.565141;fill:#000000;stroke-width:0.1;stroke-linecap:round"
       d="m 83.662289,175.17781 c 0.104922,-0.74818 0.801091,-1.20614 1.062925,-1.88848 0.38887,-0.39315 0.867787,-0.71676 1.364887,-0.95795 0.501211,-0.14442 1.258039,-0.52017 1.587237,0.10122 0.147924,0.63406 -0.782411,0.79102 -1.250286,0.82629 -0.76757,-0.051 -1.403765,1.52259 -2.010598,1.89649 -0.293499,0.32616 -0.552029,0.17274 -0.754165,0.0224 z"
       id="path2673"
       inkscape:label="cut_19"
       sodipodi:nodetypes="ccccccc" /><path
       style="opacity:0.565141;fill:#000000;stroke-width:0.1;stroke-linecap:round"
       d="m 79.434929,173.88932 c 0.220489,-0.74126 0.711471,-1.48251 1.094845,-2.22377 -0.02213,-0.19487 0.0607,-0.46492 0.25352,-0.5953 0.26388,-0.21654 0.353375,-0.097 0.670172,-0.0408 0.154723,0.1663 0.282293,0.33647 0.284204,0.5246 0.16493,0.1582 0.154715,0.31639 0.19755,0.47459 l 0.119636,0.5941 0.09812,0.87202 -9.84e-4,0.69953 c -0.28976,0.34869 -0.57952,0.36961 -0.86928,0.39604 l -0.655004,0.002 -0.76401,-0.33304"
       id="path2675"
       sodipodi:nodetypes="cccccccccccc"
       inkscape:label="cut_18" /><path
       style="opacity:0.565141;fill:#000000;stroke-width:0.1;stroke-linecap:round"
       d="m 83.324167,170.99884 c 0.228839,-0.11442 1.29119,-0.18443 1.552181,-0.0974 0.157355,0.0524 0.217848,0.57766 0.08087,0.66936 -0.353763,0.23683 -1.059508,0.44042 -1.358268,0.44042 -0.156843,-0.009 -0.291101,-0.0788 -0.381952,-0.26405 -0.109195,-0.29603 -0.210478,-0.58951 0.107169,-0.74833 z"
       id="path2677"
       sodipodi:nodetypes="ccsccc"
       inkscape:label="cut_17" /><path
       style="opacity:0.565141;fill:#000000;stroke-width:0.1;stroke-linecap:round"
       d="m 81.751569,170.35985 c -0.484237,-0.67168 -0.500827,-1.58646 -1.078599,-2.20214 -0.153592,-0.50718 -0.520759,-0.94765 -0.59643,-1.46538 0.01162,-0.53274 0.57943,-1.23803 1.145369,-0.89568 0.519453,0.31762 0.878092,0.87771 0.89169,1.49414 0.133322,0.63674 -0.341831,1.1838 -0.340775,1.80832 -0.08103,0.30922 -0.07852,0.63241 -0.147907,0.94377"
       id="path2679"
       inkscape:label="cut_16" /><path
       style="opacity:0.565141;fill:#000000;stroke-width:0.1;stroke-linecap:round"
       d="m 82.857314,169.82499 c 0.316485,-0.57274 0.906394,-0.95444 1.516905,-1.14782 0.306201,-0.16227 0.622746,-0.36221 0.979709,-0.35819 0.339383,0.16646 0.255304,0.69613 0.253799,1.0269 -0.04507,0.49287 -0.536301,0.6423 -0.952988,0.7013 -0.368501,0.16839 -0.825066,0.3136 -1.210703,0.13004 -0.181919,-0.13951 -0.40331,-0.21504 -0.586722,-0.35223 z"
       id="path2681"
       inkscape:label="cut_15" /><path
       style="opacity:0.565141;fill:#000000;stroke-width:0.1;stroke-linecap:round"
       d="m 76.552484,171.2249 c 0.138817,-0.83885 1.124689,-1.00272 1.829824,-1.03435 0.681202,-0.28288 1.513758,0.39564 0.910153,1.03942 -0.460594,0.39796 -1.283817,0.69782 -1.004193,1.47417 0.212596,0.70891 -0.276974,1.3561 -0.148467,2.0811 0.08449,0.35203 -0.266284,1.38217 -0.634201,0.79319 -0.08091,-0.78137 0.04905,-1.57611 -0.06944,-2.35223 -0.09552,-0.74912 -0.02308,-1.52697 0.556296,-2.03885 -0.206661,-0.50922 -1.089507,-0.13647 -1.439969,0.0375 z"
       id="path2683"
       inkscape:label="cut_14" /><path
       style="opacity:0.565141;fill:#000000;stroke-width:0.1;stroke-linecap:round"
       d="m 76.094398,174.26006 c -0.521303,1.24139 0.27155,2.54145 1.039937,3.48226 0.551156,0.75387 0.08229,1.68003 -0.424065,2.31166 -0.616917,0.78151 -0.900861,1.74369 -1.511938,2.52935 -0.607701,0.79959 0.541507,1.53712 1.022777,0.66825 0.945532,-1.30917 1.813518,-2.78371 1.992218,-4.41896 0.0863,-1.56676 -1.070116,-2.78854 -1.709127,-4.11865 -0.114478,-0.16926 -0.248445,-0.32737 -0.409802,-0.45391 z"
       id="path2685"
       inkscape:label="cut_13" /><path
       style="opacity:0.565141;fill:#000000;stroke-width:0.1;stroke-linecap:round"
       d="m 73.596673,186.79943 c 0.10948,0.0363 0.382322,0.11237 0.729975,-0.1804 0.196762,-0.16569 0.905142,-0.27459 1.199338,-0.33952 0.409565,-0.0904 0.411977,-0.11885 0.628152,-0.3035 0.02744,-0.66374 -0.320417,-1.66126 -1.203938,-1.29166 -0.128839,0.11321 -0.184966,0.0956 -0.248272,0.27543 -0.236617,0.20982 -0.455834,0.42003 -0.598681,0.6476 -0.435216,0.36543 -1.225082,0.71105 -0.506541,1.19206 z"
       id="path2689"
       sodipodi:nodetypes="csscccccc"
       inkscape:label="cut_12" /><path
       style="opacity:0.565141;fill:#000000;stroke-width:0.1;stroke-linecap:round"
       d="m 127.67841,171.18786 c 0.21058,-0.33692 0.55883,-0.65211 0.93699,-0.85434 0.11201,-0.10577 0.2387,-0.1922 0.38496,-0.24439 0.29228,-0.13553 0.54582,-0.32963 0.80069,-0.53256 0.12317,-0.13356 0.18607,-0.46546 0.3739,-0.49293 0.6045,-0.0576 1.22562,-0.0982 1.85116,-3e-4 l 0.0557,0.43662 c 0.003,0.13884 -0.0705,0.20339 -0.14822,0.31425 -0.36246,0.18112 -0.69299,0.1707 -1.02518,0.17024 -0.14017,0.067 -0.21487,0.0604 -0.22286,0.26563 -0.22509,0.3593 -0.45934,0.80217 -0.74653,1.08055 -0.74209,0.19872 -1.52761,0.60647 -2.22286,0.32528 -0.36689,-0.17163 -0.0503,-0.44805 -0.0377,-0.46813 z"
       id="path2691"
       sodipodi:nodetypes="scccccccccccss"
       inkscape:label="cut_11" /><path
       style="opacity:0.565141;fill:#000000;stroke-width:0.1;stroke-linecap:round"
       d="m 131.28836,172.39118 c -0.24658,-0.28748 -0.21323,-0.54582 0.13685,-0.69751 0.65124,-0.0388 1.10483,0.58298 1.55422,0.89881 0.62893,0.74495 1.36787,1.37853 0.26495,1.75489 -0.1896,-0.0158 -0.38066,-0.22316 -0.45364,-0.39673 -0.18982,-0.2641 -0.39157,-0.52119 -0.58061,-0.78487 -0.39646,-0.26126 -0.65432,-0.46989 -0.92178,-0.77491 z"
       id="path2693"
       sodipodi:nodetypes="cccccccc"
       inkscape:label="cut_10" /><path
       style="opacity:0.565141;fill:#000000;stroke-width:0.1;stroke-linecap:round"
       d="m 133.46599,170.58473 c 0.39486,-0.15639 0.77191,-0.26028 1.24998,-0.31576 1.05754,-0.0113 1.03814,0.68101 0.53338,0.91677 -0.3362,0.20755 -0.6798,0.30006 -0.98727,0.44502 0.0764,0.35763 -0.082,0.59547 -0.2348,0.7941 -1.00756,-0.17998 -1.26823,-1.42946 -0.56133,-1.84013 z"
       id="path2695"
       sodipodi:nodetypes="ccccccc"
       inkscape:label="cut_9" /><path
       style="opacity:0.565141;fill:#000000;stroke-width:0.1;stroke-linecap:round"
       d="m 136.51475,171.08847 c -1.09951,0.36322 -0.7125,1.41924 -0.85736,2.17907 -0.14341,0.32207 -0.33058,0.6579 -0.3878,1.00701 -0.0944,0.5335 0.11095,0.95141 0.88827,0.64043 0.37244,-0.1875 0.97371,-0.5783 1.19893,-0.80277 0.23001,-0.14096 0.30189,-0.54611 0.36039,-0.7361 -0.0364,-0.61319 -0.81338,-2.35711 -1.20243,-2.28764 z"
       id="path2697"
       sodipodi:nodetypes="ccccccc"
       inkscape:label="cut_8" /><path
       style="opacity:0.565141;fill:#000000;stroke-width:0.1;stroke-linecap:round"
       d="m 137.90222,170.32073 c 0.0329,0.34581 0.35993,0.54302 0.50571,0.83683 0.20177,0.2943 0.42611,0.57819 0.71289,0.7938 0.30966,0.26359 0.41557,0.69473 0.75491,0.93268 0.29816,0.23435 0.8033,0.23786 1.02539,-0.1064 0.1831,-0.2254 0.15963,-0.57285 -0.0771,-0.74701 -0.235,-0.3352 -0.50883,-0.6432 -0.83916,-0.88783 -0.31648,-0.23259 -0.63704,-0.48557 -0.80913,-0.84954 -0.0818,-0.13345 -0.16072,-0.30464 0.0775,-0.26545 0.22116,0.002 0.60729,0.0333 0.49254,0.31996 0.10156,0.34967 0.72315,0.41953 0.8395,0.0465 0.10745,-0.33832 0.0182,-0.69068 -0.0981,-1.01324 -0.32544,-0.1211 -0.67757,-0.15948 -1.02295,-0.1388 -0.2692,0.1219 -0.64564,-0.0357 -0.84501,0.23345 -0.12214,0.18793 -0.35145,0.20104 -0.5259,0.30909 -0.16579,0.12733 -0.2861,0.32601 -0.19105,0.53592 z"
       id="path2699"
       sodipodi:nodetypes="cccccccccccccsc"
       inkscape:label="cut_7" /><path
       style="opacity:0.565141;fill:#000000;stroke-width:0.1;stroke-linecap:round"
       d="m 136.60829,168.21123 c -1.2861,-0.37418 -1.92358,-1.5347 -1.85995,-2.77938 -0.5779,-0.96419 -0.0577,-2.06423 1.11043,-1.96031 1.13672,-0.33356 1.9524,0.7101 1.13032,1.62224 -0.31338,0.93113 -0.34072,1.93672 -0.25268,2.90032 l -0.0443,0.11277 -0.0838,0.10436 z"
       id="path2701"
       sodipodi:nodetypes="cccccccssssccc"
       inkscape:label="cut_6" /><path
       style="opacity:0.565141;fill:#000000;stroke-width:0.1;stroke-linecap:round"
       d="m 136.42111,176.09949 c 0.7526,-1.82464 3.57954,-2.95066 4.9558,-1.19632 0.65119,1.43829 -0.64506,2.00652 -1.13014,0.46047 -2.45629,-0.27885 -0.94968,2.82643 -1.73893,4.0983 -0.47075,1.75667 -2.13846,1.11221 -2.96139,0.0953 -1.20163,-0.30056 -1.70191,2.83238 -2.69877,1.55077 0.15534,-1.56818 2.22949,-3.73493 3.63626,-2.2069 1.80829,0.87937 1.37962,-2.04509 1.11207,-2.88779 -0.39926,0.13266 -0.95981,0.93827 -1.1749,0.0862 z"
       id="path2703"
       sodipodi:nodetypes="ccccscsscccccccccccccccccc"
       inkscape:label="cut_5" /><path
       style="opacity:0.565141;fill:#000000;stroke-width:0.1;stroke-linecap:round"
       d="m 132.61834,178.09111 c -0.31834,0.009 -0.37852,-0.59359 -0.45168,-1.18255 l -0.73573,-1.17981 -0.39519,-0.71978 c -0.005,-0.79285 0.50103,-0.75894 0.99194,-0.31858 0.83759,1.74956 2.12508,2.63231 0.59062,3.40072 z"
       id="path2705"
       sodipodi:nodetypes="ccccccc"
       inkscape:label="cut_4" /><path
       style="opacity:0.565141;fill:#000000;stroke-width:0.1;stroke-linecap:round"
       d="m 131.69767,187.82574 0.27294,-0.23837 c 1.04928,-0.91638 2.32133,-1.19613 3.37022,-2.35218 0.29939,-0.14336 0.57834,0.22997 0.6737,0.49543 0.16595,0.34663 0.4175,0.6411 0.63938,0.94468 0.18308,0.18472 0.73709,0.48951 0.58841,0.77549 0.008,0.23458 -0.0584,0.32561 -0.24559,0.47313 -0.26537,0.14289 -1.1111,0.14238 -1.39871,0.16248 -0.47383,-0.0214 -0.63503,0.0588 -1.25065,0.19839 -0.33811,0.0767 -1.29531,0.0752 -1.55554,0.088 -0.28356,0.007 -0.15506,0.23995 -0.56269,0.15825 -0.23768,-0.0477 -0.53275,-0.16324 -0.53147,-0.7057 z"
       id="path2707"
       sodipodi:nodetypes="csccccccscscc"
       inkscape:label="cut_3" /><path
       style="opacity:0.565141;fill:#000000;stroke-width:0.1;stroke-linecap:round"
       d="m 142.17789,177.47853 c -0.0273,-0.23174 0.28335,-0.60571 0.43097,-0.75471 0.21915,-0.30658 0.56545,-0.25236 0.93612,-0.22367 0.24834,0.0776 0.45936,0.17708 0.57577,0.33225 0.16677,0.51543 -0.25355,0.92276 -0.627,0.82179 -0.0535,0.0169 -0.17757,-0.24418 -0.23429,-0.22317 -0.058,0.0215 -0.0486,0.32512 -0.10259,0.34844 -0.46458,0.20055 -0.93531,0.40441 -0.97898,-0.30098 z"
       id="path2709"
       sodipodi:nodetypes="cccccsscc"
       inkscape:label="cut_2" /><path
       style="opacity:0.5;fill:#000000;stroke:none;stroke-width:1;stroke-linecap:round;stroke-dasharray:none"
       d="m 138.24479,168.04349 c -0.20936,-0.0458 -0.30808,-0.18635 -0.3638,-0.3638 l 0.19844,-0.42995 c 0.70216,-0.68038 0.84286,-1.14141 1.15755,-2.05052 0.37408,-0.29429 0.574,0.31093 0.79375,0.59531 0.17617,0.50415 0.37888,0.95869 0.3307,1.48828 -0.22536,0.30919 -0.48281,0.59271 -0.92604,0.72761 -0.40482,0.0123 -0.77481,0.067 -1.1906,0.0331 z"
       id="path6041"
       sodipodi:nodetypes="ccccccccc"
       inkscape:label="cut_1" /></g></svg>
