<?xml version="1.0" encoding="UTF-8" standalone="no"?>
<!-- Created with Inkscape (http://www.inkscape.org/) -->

<svg
   width="210mm"
   height="297mm"
   viewBox="0 0 210 297"
   version="1.1"
   id="svg5"
   xml:space="preserve"
   inkscape:version="1.2.2 (732a01da63, 2022-12-09)"
   sodipodi:docname="Creature_corps_Interieur_Bas.svg"
   xmlns:inkscape="http://www.inkscape.org/namespaces/inkscape"
   xmlns:sodipodi="http://sodipodi.sourceforge.net/DTD/sodipodi-0.dtd"
   xmlns="http://www.w3.org/2000/svg"
   xmlns:svg="http://www.w3.org/2000/svg"><sodipodi:namedview
     id="namedview7"
     pagecolor="#ffffff"
     bordercolor="#000000"
     borderopacity="0.25"
     inkscape:showpageshadow="2"
     inkscape:pageopacity="0.0"
     inkscape:pagecheckerboard="0"
     inkscape:deskcolor="#d1d1d1"
     inkscape:document-units="mm"
     showgrid="true"
     inkscape:zoom="0.70710678"
     inkscape:cx="427.0925"
     inkscape:cy="489.31789"
     inkscape:window-width="1920"
     inkscape:window-height="1009"
     inkscape:window-x="-8"
     inkscape:window-y="-8"
     inkscape:window-maximized="1"
     inkscape:current-layer="layer8"><inkscape:grid
       type="xygrid"
       id="grid4808" /></sodipodi:namedview><defs
     id="defs2"><inkscape:path-effect
       effect="mirror_symmetry"
       start_point="108.55816,143.77764"
       end_point="108.55816,153.87059"
       center_point="108.55816,148.82411"
       id="path-effect753"
       is_visible="true"
       lpeversion="1.2"
       lpesatellites=""
       mode="free"
       discard_orig_path="false"
       fuse_paths="true"
       oposite_fuse="false"
       split_items="false"
       split_open="false"
       link_styles="true" /><inkscape:path-effect
       center_point="108.9495,53.08641"
       end_point="108.9495,61.716891"
       start_point="108.9495,44.455929"
       effect="mirror_symmetry"
       id="path-effect897"
       is_visible="true"
       lpeversion="1.2"
       lpesatellites=""
       mode="free"
       discard_orig_path="false"
       fuse_paths="false"
       oposite_fuse="false"
       split_items="false"
       split_open="false"
       link_styles="false" /></defs><g
     inkscape:groupmode="layer"
     id="layer8"
     inkscape:label="corps_int_bas_couche_basse"
     style="display:inline"><path
       id="path2661-2"
       style="display:inline;opacity:1;fill:#edff05;fill-opacity:1;stroke-width:0.1;stroke-linecap:round"
       inkscape:label="détourage_bas"
       d="m 135.42326,187.926 c -0.101,-1.8e-4 -0.20298,0.005 -0.30593,0.0134 0.10157,-0.008 0.20212,-0.0126 0.30179,-0.0124 0.0375,7e-5 0.0745,0.002 0.11163,0.004 -0.0359,-0.001 -0.0713,-0.005 -0.10749,-0.005 z m -2.20607,0.64285 c -0.66706,0.0552 -1.48775,2.10605 -3.05149,2.93677 0.25489,-0.41876 0.50277,-0.83411 0.72605,-1.2392 -0.0527,-0.0661 -0.0909,-0.13578 -0.12299,-0.2067 -0.011,0.01 -0.0191,0.0183 -0.03,0.0279 0.0297,0.0593 0.066,0.11673 0.11059,0.1726 -0.22988,0.41708 -0.48245,0.84247 -0.74466,1.27331 -0.004,0.002 -0.009,0.004 -0.0134,0.007 0.0242,-0.0121 0.05,-0.0214 0.0739,-0.0341 -0.0458,0.0752 -0.0901,0.14932 -0.13642,0.22479 -0.0129,-0.003 -0.0268,-0.006 -0.0398,-0.009 -1.70211,2.77645 -3.80849,5.81344 -3.75429,8.9209 1.11919,2.64053 4.70068,5.0232 2.77193,8.24084 -1.76973,2.0045 -1.89708,7.02713 -5.6286,5.66012 -2.27161,-2.98901 -4.9592,-6.91298 -4.03025,-10.92388 0.48901,-5.22081 -4.78288,-3.27564 -4.74958,0.56792 -2.76352,5.28825 -3.25608,11.69159 -1.418,17.3576 0.91845,1.42667 0.0583,8.69287 -1.2547,4.69842 0.66185,-4.24771 -4.83353,-6.03737 -6.66885,-2.2288 -2.17261,0.69803 -0.18626,-3.65777 0.96119,-4.4664 0.89343,-3.28011 0.24899,-6.75538 0.47232,-10.11204 -0.43359,-3.35153 -1.87309,-6.49202 -3.14348,-9.58185 -3.983278,-4.1493 -5.271874,3.60609 -4.85965,6.42959 0.298689,1.32808 0.04596,2.47753 -0.527617,3.49022 -6e-5,1.5e-4 6e-5,3.7e-4 0,5.2e-4 -0.554054,1.3756 -1.856266,2.32824 -3.254065,3.25355 -0.604286,0.42977 -1.210059,0.82562 -1.794206,1.20406 -0.31381,0.22491 -0.618174,0.45735 -0.904337,0.70228 -0.252612,-0.26791 -0.478023,-0.49465 -0.687297,-0.70487 -5.66e-4,-4.5e-4 -9.84e-4,-0.001 -0.0016,-0.002 -0.339932,-0.27332 -0.634462,-0.6048 -0.891418,-0.97565 -0.02954,-0.0391 -0.05666,-0.0804 -0.08475,-0.1204 -0.124303,-0.17724 -0.234597,-0.36684 -0.332279,-0.57775 -0.0467,-0.10079 -0.09063,-0.20716 -0.131775,-0.31987 0.03956,0.10862 0.08185,0.21159 0.126607,0.30902 -1.057538,-2.1073 -1.114442,-5.10417 -0.424263,-7.39334 -0.04387,-0.66963 0.01756,-1.35182 0.395841,-1.95802 0.352103,-0.14585 0.593042,-0.35982 0.769979,-0.60875 1.250229,-3.02522 1.374451,-6.36727 -0.216524,-9.44387 -0.35989,-1.38189 -1.002836,-2.10302 -1.893425,-2.57762 -0.169523,0.14222 -0.351001,0.28067 -0.537951,0.41599 -0.009,0.0268 -0.01906,0.0475 -0.02791,0.0754 -0.204492,0.004 -0.4005,0.004 -0.592212,5.2e-4 0.166417,0.003 0.336146,0.004 0.512114,5.1e-4 -2.141033,1.50614 -5.266929,2.40182 -7.351489,-0.1111 -2.330605,0.25767 -3.939603,3.03891 -3.91604,5.68492 l 0.509529,2.31459 c 0.236369,0.49302 0.556089,0.94452 0.975134,1.3255 0.06094,0.1352 0.08832,0.25187 0.0894,0.35399 l 2.887162,-0.53175 c 8.110978,4.04694 6.559869,7.16158 3.835425,9.91567 l 16.463587,34.89244 6.26732,6.82853 1.77767,-0.0935 c 1.01467,-1.15922 2.43562,-2.02444 2.62775,-3.31401 0.18624,-1.25007 0.95475,-1.50095 1.51257,-2.35024 0.65716,-1.00058 1.49078,-2.43362 1.95802,-3.86385 0.63155,-1.93331 1.19377,-3.27 1.71204,-5.04052 0.17384,-0.59388 0.83395,-1.21255 0.54415,-1.73684 -0.21096,-0.38166 -0.36267,-1.79919 0.0517,-2.43861 0.28188,-0.43495 0.76726,-0.47929 1.00098,-0.88109 0.61276,-1.05341 1.51992,-2.09026 1.75596,-3.50417 0.30674,-1.83739 0.89936,-3.94443 2.74609,-6.40168 0.19621,-0.26108 0.26213,-0.55284 0.59841,-0.48938 1.22588,0.23132 3.25207,-3.07561 3.46387,-5.26738 3.86693,-5.84723 4.13772,-0.0308 9.66453,-15.1846 -1.1473,-0.80828 -1.04131,-1.03089 -0.69867,-1.16479 -0.34553,0.13373 -0.45684,0.35467 0.69453,1.16583 -0.0528,0.14484 -0.10209,0.27493 -0.15399,0.41599 -1.44086,-0.14812 -2.37386,-1.19037 -0.54984,-2.95641 4.2977,-1.85139 1.77899,-11.91018 -2.27635,-7.30291 -0.4171,-2.09846 -0.76196,-2.78383 -1.1622,-2.75074 z m -54.720689,12.05405 -0.66766,0.12299 0.66766,-0.12248 z m -0.66766,0.12299 -0.396875,-1.80248 c -0.0023,-0.005 -0.0049,-0.01 -0.0072,-0.0145 l 0.399976,1.81798 z m -0.906404,-4.11707 -0.169499,-0.77049 c -1.162522,-2.51787 -0.207597,-4.01508 1.590084,-4.64054 -1.800048,0.62474 -2.757521,2.122 -1.594218,4.64157 l 0.173633,0.78755 c -7.1e-5,-0.006 5.3e-5,-0.0121 0,-0.0181 z m 11.375533,-5.6503 c 0.02934,-0.0871 0.05878,-0.17087 0.08992,-0.24546 -0.03228,0.0784 -0.06457,0.15833 -0.09509,0.24908 0.0017,-10e-4 0.0035,-0.002 0.0052,-0.004 z m 2.6479,11.6055 c 0.152511,-0.21457 0.254713,-0.45592 0.335897,-0.70487 -0.08152,0.24848 -0.183537,0.49051 -0.335897,0.70487 z m 0.335897,-0.70487 c 0.01556,-0.0474 0.03029,-0.0948 0.04444,-0.14263 -0.01405,0.0478 -0.02898,0.0952 -0.04444,0.14263 z m 0.04444,-0.14263 c 0.04345,-0.14788 0.08361,-0.29589 0.120923,-0.44235 -0.03777,0.1472 -0.07695,0.2937 -0.120923,0.44235 z m -1.546158,3.41427 c 0.0091,0.13868 0.02338,0.27508 0.03979,0.41186 -0.01631,-0.13631 -0.03073,-0.27368 -0.03979,-0.41186 z m 0.03979,0.41186 c 0.02097,0.17525 0.04578,0.34709 0.07183,0.51624 -0.02612,-0.16906 -0.05081,-0.34108 -0.07183,-0.51624 z m 0.07183,0.51624 c 0.04484,0.29027 0.0901,0.57205 0.118856,0.83096 -0.02859,-0.25943 -0.07406,-0.54006 -0.118856,-0.83096 z m 0.118856,0.83096 c 0.01104,0.0994 0.01808,0.19527 0.02274,0.28836 -0.0046,-0.0932 -0.01176,-0.18877 -0.02274,-0.28836 z m 0.02274,0.28836 c 7.94e-4,0.0162 0.002,0.0326 0.0026,0.0486 -5.78e-4,-0.016 -0.0018,-0.0323 -0.0026,-0.0486 z m 0.0026,0.0486 c 0.0033,0.0921 0.0031,0.181 -0.0026,0.26562 0.0058,-0.0845 0.0058,-0.17363 0.0026,-0.26562 z m -0.0026,0.26562 c -6.62e-4,0.01 -0.0023,0.0184 -0.0031,0.0279 7.83e-4,-0.01 0.0024,-0.0183 0.0031,-0.0279 z m -0.0031,0.0279 c -0.006,0.0723 -0.01705,0.14075 -0.03152,0.20671 0.01451,-0.0658 0.02549,-0.13451 0.03152,-0.20671 z m -0.03152,0.20671 c -0.0064,0.0292 -0.01236,0.059 -0.02067,0.0868 0.0083,-0.0279 0.01425,-0.0576 0.02067,-0.0868 z m -0.02067,0.0868 c -0.0033,0.0111 -0.0067,0.0222 -0.01033,0.0331 0.0036,-0.0108 0.007,-0.022 0.01033,-0.0331 z m -0.01033,0.0331 c -0.01524,0.0458 -0.03262,0.09 -0.05374,0.13177 0.02105,-0.0418 0.03856,-0.086 0.05374,-0.13177 z m 0.574125,5.26583 c 0.02705,0.0413 0.05676,0.08 0.08475,0.1204 0.155306,0.20578 0.338365,0.40683 0.536401,0.61289 -0.23721,-0.24776 -0.444835,-0.48196 -0.621151,-0.73329 z m 0.621151,0.73329 c 0.103883,0.1085 0.212904,0.21951 0.329179,0.33641 -0.116768,-0.11735 -0.225171,-0.2282 -0.329179,-0.33641 z m 1.948201,0.3669 c 0.581722,-0.41693 1.196215,-0.80821 1.794206,-1.20406 -0.597995,0.39586 -1.212497,0.78712 -1.794206,1.20406 z m 5.048271,-4.45813 c 0.03264,-0.0811 0.06312,-0.16343 0.09043,-0.24753 -0.02753,0.0841 -0.05773,0.16635 -0.09043,0.24753 z m 0.09043,-0.24753 c 0.02739,-0.0843 0.05266,-0.16981 0.07441,-0.25735 -0.02174,0.0874 -0.04689,0.17325 -0.07441,0.25735 z m 31.739147,-17.80511 c 8e-5,-1.3e-4 -7e-5,-4e-4 0,-5.2e-4 -0.0533,-0.011 -0.10684,-0.0225 -0.16278,-0.0367 -2e-5,1.7e-4 3e-5,3.5e-4 0,5.2e-4 0.0559,0.0142 0.10943,0.0257 0.16278,0.0367 z m 0.10232,-0.1819 c -0.0808,0.0406 -0.16214,0.0803 -0.24701,0.11368 0.0847,-0.0336 0.16632,-0.0729 0.24701,-0.11368 z m -0.24701,0.11368 c -0.005,0.002 -0.0106,0.005 -0.016,0.007 v 5.2e-4 c 0.006,-0.002 0.0105,-0.005 0.016,-0.007 z m -0.016,0.007 c 1e-5,-1.7e-4 -1e-5,-3.4e-4 0,-5.1e-4 -0.0163,0.006 -0.0317,0.0142 -0.0481,0.0202 -1e-5,1.7e-4 1e-5,3.5e-4 0,5.2e-4 0.0164,-0.006 0.0318,-0.0139 0.0481,-0.0202 z m 0.91054,-1.57303 c -7e-5,-1.3e-4 7e-5,-3.8e-4 0,-5.1e-4 -0.10846,0.0964 -0.21081,0.1911 -0.29921,0.28008 v 5.2e-4 c 0.0884,-0.089 0.19075,-0.18374 0.29921,-0.28009 z m 0.03,-0.0279 c 0.0979,-0.086 0.20631,-0.17491 0.31781,-0.26407 -0.11045,0.0883 -0.22176,0.17727 -0.31884,0.26252 2.5e-4,5.5e-4 7.8e-4,9.9e-4 0.001,0.002 z m 7.00629,-0.59842 c 0.0738,0.15623 0.14101,0.32605 0.20102,0.51057 0.3278,0.97383 1.3713,1.90985 1.93735,2.87114 -0.56594,-0.96157 -1.60533,-1.89807 -1.93321,-2.87218 -0.0605,-0.18598 -0.13073,-0.35228 -0.20516,-0.50953 z m -48.616155,0.53796 c -0.137088,-0.0101 -0.26994,0.0362 -0.395325,0.14572 0.125323,-0.10947 0.258237,-0.1553 0.395325,-0.14521 z m 0,5.1e-4 c 0.02672,0.002 0.05357,0.006 0.08061,0.0124 -0.02702,-0.006 -0.05392,-0.0104 -0.08061,-0.0124 z m 0.09147,0.0155 c 0.02333,0.006 0.04674,0.0129 0.07028,0.0217 -0.02359,-0.009 -0.0469,-0.0159 -0.07028,-0.0217 z m 0.07028,0.0217 c 0.0029,10e-4 0.0059,0.002 0.0088,0.004 -0.0029,-0.001 -0.0059,-0.003 -0.0088,-0.004 z m 0.0088,0.004 c 0.04895,0.019 0.09812,0.0459 0.147795,0.0775 -0.04954,-0.0315 -0.09897,-0.0585 -0.147795,-0.0775 z m 0.147795,0.0775 c 0.01906,0.0121 0.03822,0.0269 0.05736,0.0408 -0.01913,-0.0139 -0.03831,-0.0287 -0.05736,-0.0408 z m 0.05736,0.0408 c 0.03629,0.0263 0.07252,0.0548 0.109037,0.0873 -0.03654,-0.0325 -0.07272,-0.061 -0.109037,-0.0873 z m 0.109037,0.0873 c 0.01801,0.016 0.03621,0.0332 0.05426,0.0506 -0.01805,-0.0175 -0.03625,-0.0346 -0.05426,-0.0506 z m 0.05426,0.0506 c 0.03679,0.0357 0.0737,0.0742 0.110588,0.11576 -0.03695,-0.0416 -0.07374,-0.08 -0.110588,-0.11576 z m 0.110588,0.11576 c 0.01927,0.0217 0.0386,0.0434 0.05788,0.0667 -0.01928,-0.0232 -0.03861,-0.045 -0.05788,-0.0667 z m 0.05788,0.0667 c 0.0365,0.044 0.07309,0.0917 0.109554,0.14108 -0.03654,-0.0495 -0.07298,-0.097 -0.109554,-0.14108 z m 0.109554,0.14108 c 0.0192,0.026 0.03818,0.0511 0.05736,0.0785 -0.01914,-0.0274 -0.03819,-0.0526 -0.05736,-0.0785 z m 0.05736,0.0785 c 0.03635,0.052 0.07234,0.10839 0.108521,0.16537 -0.03618,-0.057 -0.07218,-0.11334 -0.108521,-0.16537 z m 0.108521,0.16537 c 0.01872,0.0295 0.03767,0.0571 0.05633,0.0879 -0.01868,-0.0308 -0.03759,-0.0583 -0.05633,-0.0879 z m 0.05633,0.0879 c 0.0366,0.0603 0.07275,0.1256 0.109037,0.19068 -0.03633,-0.0652 -0.0724,-0.13025 -0.109037,-0.19068 z m 0.109037,0.19068 c 0.0363,0.0651 0.07262,0.13245 0.108521,0.20206 -0.03591,-0.0696 -0.07221,-0.13694 -0.108521,-0.20206 z m 0.108521,0.20206 c 0.03264,0.0633 0.06543,0.12599 0.09767,0.19275 -0.03222,-0.0667 -0.06504,-0.1295 -0.09767,-0.19275 z m 0.09767,0.19275 c 0.02062,0.0427 0.04054,0.0882 0.06098,0.13229 -0.02045,-0.0441 -0.04034,-0.0896 -0.06098,-0.13229 z m 0.06098,0.13229 c 0.03218,0.0694 0.06446,0.13873 0.09612,0.21136 -0.03166,-0.0726 -0.06394,-0.14194 -0.09612,-0.21136 z m 0.09612,0.21136 c 0.02072,0.0475 0.04102,0.0969 0.0615,0.14573 -0.02048,-0.0489 -0.04077,-0.0982 -0.0615,-0.14573 z m 0.0615,0.14573 c 0.02935,0.07 0.05854,0.14085 0.08733,0.21342 -0.02882,-0.0727 -0.05796,-0.14332 -0.08733,-0.21342 z m 0.08733,0.21342 c 0.0224,0.0565 0.04463,0.11414 0.06666,0.17208 -0.02207,-0.058 -0.04422,-0.11551 -0.06666,-0.17208 z m 0.06666,0.17208 c 0.02617,0.0688 0.05191,0.13855 0.07752,0.20929 -0.0256,-0.0707 -0.05136,-0.14049 -0.07752,-0.20929 z m 0.07752,0.20929 c 0.02236,0.0618 0.04476,0.1239 0.06666,0.18707 -0.02193,-0.0633 -0.04427,-0.12519 -0.06666,-0.18707 z m 0.06666,0.18707 c 0.02603,0.0751 0.05115,0.15152 0.07648,0.22841 -0.02533,-0.0769 -0.05046,-0.15333 -0.07648,-0.22841 z m 0.07648,0.22841 c 0.01908,0.0579 0.0387,0.11526 0.05736,0.17415 -0.01867,-0.0589 -0.03827,-0.11619 -0.05736,-0.17415 z m 0.05736,0.17415 c 0.0293,0.0925 0.05759,0.187 0.08578,0.28164 -0.0282,-0.0947 -0.05648,-0.18914 -0.08578,-0.28164 z m 0.08578,0.28164 c 0.01433,0.0481 0.02887,0.0956 0.04289,0.14418 -0.01404,-0.0487 -0.02855,-0.096 -0.04289,-0.14418 z m 0.04289,0.14418 c 0.04173,0.14462 0.08257,0.29111 0.121439,0.43976 -0.03888,-0.14874 -0.07969,-0.29506 -0.121439,-0.43976 z m -2.603459,-3.41892 c -0.04895,0.0541 -0.09636,0.11834 -0.142627,0.19379 -8.52e-4,-3.8e-4 -0.0017,-6.9e-4 -0.0026,-0.001 -6.8e-5,1.2e-4 6.8e-5,3.8e-4 0,5.1e-4 8.52e-4,3.8e-4 0.0017,6.6e-4 0.0026,10e-4 0.101864,0.0452 0.205123,0.0898 0.301274,0.14004 1.35e-4,7e-5 3.81e-4,-7e-5 5.17e-4,0 8.2e-5,-6e-5 -8.2e-5,-4.6e-4 0,-5.2e-4 -0.09613,-0.0503 -0.199407,-0.0948 -0.301274,-0.14004 0.04614,-0.0752 0.09333,-0.13985 0.14211,-0.19379 z m -0.145211,0.19327 c -0.0015,0.003 -0.0035,0.007 -0.0052,0.009 2e-4,9e-5 3.26e-4,4.1e-4 5.17e-4,5.2e-4 0.0016,-0.003 0.003,-0.007 0.0046,-0.009 z m -0.0046,0.009 c -0.04692,0.0775 -0.0918,0.1683 -0.135393,0.27026 0.04416,-0.10177 0.09011,-0.19048 0.13746,-0.26871 -7.03e-4,-7.9e-4 -0.0014,-0.001 -0.0021,-0.002 z m -5.776909,0.0915 c 0.06616,0.001 0.132912,0.003 0.199471,0.007 -0.04217,-0.002 -0.08462,-0.005 -0.126607,-0.006 -0.02439,-7.3e-4 -0.04852,-1e-4 -0.07286,-5.2e-4 z m -1.508435,0.22014 c -0.127043,0.0418 -0.255281,0.0886 -0.38654,0.1447 5.25e-4,1e-5 0.001,-2e-5 0.0016,0 0.130585,-0.0559 0.258583,-0.103 0.384989,-0.1447 z m -0.38654,0.1447 c -0.0215,-5.5e-4 -0.04212,9.2e-4 -0.06356,5.1e-4 0.02041,4e-4 0.04052,-1e-5 0.06098,5.2e-4 8.72e-4,-3.7e-4 0.0017,-6.6e-4 0.0026,-10e-4 z m -1.705322,0.12557 c -0.287655,0.054 -0.561537,0.1258 -0.818555,0.21498 0.256855,-0.0893 0.531027,-0.16078 0.818555,-0.21498 z m 50.682698,0.42737 c -0.0227,0.0408 -0.0289,0.0523 -0.0532,0.0961 0.024,-0.0433 0.0311,-0.0553 0.0532,-0.0951 2e-5,-3.5e-4 -3e-5,-7.3e-4 0,-0.001 z m 0,0.001 c -1.4e-4,0.002 -3.7e-4,0.004 -5.2e-4,0.006 -0.0228,0.041 -0.0287,0.0526 -0.0532,0.0966 0.0242,-0.0436 0.031,-0.0552 0.0537,-0.0961 1e-5,-1.7e-4 -2e-5,-3.4e-4 0,-5.2e-4 1.6e-4,-0.002 3.6e-4,-0.004 5.1e-4,-0.007 -2.3e-4,4.2e-4 -2.8e-4,6.1e-4 -5.1e-4,0.001 z m -0.0537,0.10284 c -0.53339,0.95949 -1.41856,2.56062 -2.2934,4.18734 0.87486,-1.62674 1.76008,-3.22796 2.2934,-4.18734 z m 10.37301,1.82572 c 0.2564,0.69646 0.15838,1.41154 -0.73277,2.16835 -0.82191,2.87269 -1.12012,3.78971 -1.32808,4.01164 0.20817,-0.21359 0.50446,-1.11954 1.33222,-4.01268 0.89066,-0.75639 0.98565,-1.47126 0.72863,-2.16731 z m -48.749993,0.71779 c 0.03843,0.14698 0.07523,0.29585 0.110588,0.44597 -0.03536,-0.15018 -0.07215,-0.29894 -0.110588,-0.44597 z m 0.110588,0.44597 c 0.0145,0.0616 0.02791,0.12402 0.04186,0.18603 -0.01397,-0.0621 -0.02734,-0.12438 -0.04186,-0.18603 z m 0.04186,0.18603 c 0.02053,0.0912 0.04066,0.18238 0.05994,0.2744 -0.01927,-0.092 -0.03943,-0.1832 -0.05994,-0.2744 z m 0.05994,0.2744 c 0.01367,0.0652 0.02677,0.13081 0.03979,0.19637 -0.01302,-0.0656 -0.02611,-0.1311 -0.03979,-0.19637 z m 0.03979,0.19637 c 0.01716,0.0864 0.03414,0.17308 0.05013,0.25994 -0.016,-0.087 -0.03295,-0.17341 -0.05013,-0.25994 z m 0.05013,0.25994 c 0.01366,0.0743 0.0265,0.14876 0.03927,0.22324 -0.01279,-0.0746 -0.02559,-0.14891 -0.03927,-0.22324 z m 0.03927,0.22324 c 0.01467,0.0856 0.02892,0.1711 0.04237,0.25683 -0.01345,-0.0857 -0.0277,-0.17127 -0.04237,-0.25683 z m 0.04237,0.25683 c 0.01102,0.0702 0.02136,0.14059 0.03152,0.21084 -0.01018,-0.0703 -0.02049,-0.14053 -0.03152,-0.21084 z m 0.03152,0.21084 c 0.01262,0.0872 0.02439,0.17435 0.03566,0.26148 -0.01128,-0.0872 -0.02303,-0.17419 -0.03566,-0.26148 z m 0.03566,0.26148 c 0.0087,0.0676 0.01794,0.13509 0.02584,0.20258 -0.0079,-0.0675 -0.01709,-0.13497 -0.02584,-0.20258 z m 0.02584,0.20258 c 0.01143,0.0976 0.02088,0.19481 0.03049,0.29197 -0.0096,-0.0972 -0.01906,-0.19436 -0.03049,-0.29197 z m 0.03049,0.29197 c 0.006,0.0603 0.01285,0.12082 0.01809,0.18086 -0.0052,-0.0601 -0.01212,-0.12053 -0.01809,-0.18086 z m 0.01809,0.18086 c 0.01332,0.15269 0.02462,0.30463 0.03307,0.45527 -0.0084,-0.15062 -0.01976,-0.3026 -0.03307,-0.45527 z m 0.03307,0.45527 c 0.0084,0.15027 0.01374,0.29904 0.01705,0.44649 -0.0033,-0.1475 -0.0086,-0.29617 -0.01705,-0.44649 z m 0.01705,0.44649 c 0.0014,0.0614 0.0011,0.1216 0.0015,0.18242 -4.6e-4,-0.0608 -1.68e-4,-0.121 -0.0015,-0.18242 z m 0.0015,0.18242 c 6.66e-4,0.0879 0.0013,0.17593 0,0.26251 0.0013,-0.0866 6.64e-4,-0.17452 0,-0.26251 z m 0,0.26251 c -9.1e-4,0.06 -0.0033,0.119 -0.0052,0.17829 0.0019,-0.0593 0.0043,-0.11827 0.0052,-0.17829 z m -0.0052,0.17829 c -0.0028,0.0886 -0.0063,0.17674 -0.01137,0.26355 0.005,-0.0868 0.0086,-0.17493 0.01137,-0.26355 z m -0.01137,0.26355 c -0.0034,0.0589 -0.0074,0.11719 -0.01189,0.17518 0.0045,-0.0581 0.0085,-0.11618 0.01189,-0.17518 z m -0.01189,0.17518 c -0.006,0.0781 -0.01321,0.15515 -0.02119,0.23151 0.008,-0.0763 0.01516,-0.15342 0.02119,-0.23151 z m -0.02119,0.23151 c -0.0065,0.0621 -0.01338,0.12363 -0.02119,0.18448 0.0078,-0.0608 0.0147,-0.12241 0.02119,-0.18448 z m -0.02119,0.18448 c -0.0096,0.0751 -0.02086,0.14861 -0.03256,0.2217 0.01171,-0.0731 0.02291,-0.14653 0.03256,-0.2217 z m -0.03256,0.2217 c -0.0092,0.0572 -0.01798,0.11468 -0.02842,0.17053 0.01045,-0.0559 0.01927,-0.11334 0.02842,-0.17053 z m -0.02842,0.17053 c -0.01432,0.0766 -0.03074,0.1508 -0.04754,0.22479 0.0168,-0.074 0.03322,-0.14818 0.04754,-0.22479 z m -0.04754,0.22479 c -0.01098,0.0484 -0.02101,0.0981 -0.03307,0.14521 0.01208,-0.0472 0.02208,-0.0968 0.03307,-0.14521 z m -0.03307,0.14521 c -0.03029,0.11842 -0.06346,0.23382 -0.100769,0.34417 0.03733,-0.1104 0.07046,-0.2257 0.100769,-0.34417 z m -0.100769,0.34417 c -0.0433,0.0989 -0.07931,0.2053 -0.113171,0.31471 0.03375,-0.10945 0.06988,-0.21583 0.113171,-0.31471 z m -0.113171,0.31471 c -0.0067,0.0218 -0.01367,0.044 -0.02015,0.0661 0.0065,-0.0222 0.01339,-0.0443 0.02015,-0.0661 z m -0.02015,0.0661 c -0.02938,0.0999 -0.05777,0.20439 -0.08475,0.30903 0.02705,-0.10566 0.05522,-0.20821 0.08475,-0.30903 z m 9.311585,-3.64267 c -0.29816,0.0495 -0.56863,0.1328 -0.81339,0.24495 0.24488,-0.11225 0.51505,-0.19494 0.81339,-0.24443 l 3.12487,1.01234 c 0.4112,0.25729 0.78997,0.52949 1.13792,0.81545 -0.3481,-0.28612 -0.7265,-0.55854 -1.13792,-0.81597 z m 25.78292,0.0419 c -0.55186,1.05012 -1.04568,2.02034 -1.37408,2.728 0.32844,-0.70773 0.82222,-1.67789 1.37408,-2.728 z m -26.59683,0.20309 c -0.306219,0.14036 -0.572139,0.32664 -0.803054,0.55138 0.230747,-0.22452 0.49713,-0.4111 0.803054,-0.55138 z m -0.937413,0.69091 c -0.08666,0.0958 -0.167942,0.19732 -0.243913,0.30437 0.07605,-0.10715 0.15715,-0.20851 0.243913,-0.30437 z m -0.243913,0.30437 c -0.07605,0.10716 -0.146985,0.21946 -0.212907,0.33693 0.06586,-0.11733 0.136942,-0.22988 0.212907,-0.33693 z m -0.212907,0.33745 c -0.329479,0.58732 -0.53625,1.29716 -0.656807,2.06913 0.120596,-0.77194 0.327271,-1.48187 0.656807,-2.06913 z m 38.736653,0.49351 c 1.7e-4,3.8e-4 3.4e-4,6.6e-4 5.1e-4,0.001 0.005,-3.7e-4 0.01,-2.9e-4 0.0145,-5.2e-4 -0.005,2.8e-4 -0.01,-9.6e-4 -0.015,-5.2e-4 z m 5.1e-4,0.001 c -0.002,1.1e-4 -0.003,-1.4e-4 -0.005,0 0.12685,0.28394 -0.0517,0.40815 -0.28732,0.49402 0.23729,-0.0858 0.41857,-0.20924 0.29197,-0.49402 z m 0.12093,0.005 c 0.27244,0.0431 0.39178,0.28967 0.53691,0.21808 -0.144,0.0659 -0.26463,-0.17668 -0.53691,-0.21808 z m -31.8947,0.18707 c 0.0547,0.0514 0.11087,0.1023 0.16382,0.15451 -0.0529,-0.0522 -0.10913,-0.10306 -0.16382,-0.15451 z m 19.65358,0.50591 c -0.20515,0.44212 -0.34596,0.78154 -0.39584,0.9741 0.05,-0.1927 0.19071,-0.53206 0.39584,-0.9741 z m -8.90798,0.047 c -0.06,-0.002 -0.1193,-0.001 -0.17725,0.003 0.11068,-0.008 0.22579,-0.003 0.34416,0.0134 -0.0566,-0.008 -0.11215,-0.0143 -0.16691,-0.0165 z m -0.17725,0.003 c -0.40568,0.0293 -0.762,0.21766 -1.08572,0.51108 0.32372,-0.29342 0.68004,-0.48173 1.08572,-0.51108 z m -1.08572,0.51108 c -0.13874,0.12575 -0.27139,0.27035 -0.39946,0.43046 0.128,-0.15999 0.26081,-0.30479 0.39946,-0.43046 z m 1.47846,-0.48938 c 0.15871,0.0269 0.32485,0.0778 0.49868,0.15348 -0.17381,-0.0757 -0.33999,-0.12649 -0.49868,-0.15348 z m 1.57251,0.19689 c -0.0483,-7e-4 -0.0975,1.6e-4 -0.14779,0.002 0.10064,-0.004 0.19736,-0.002 0.2899,0.004 -0.0463,-0.003 -0.0938,-0.005 -0.14211,-0.006 z m 0.14211,0.006 c 0.4627,0.0326 0.82625,0.19164 1.11311,0.44855 -0.28686,-0.25691 -0.6504,-0.41597 -1.11311,-0.44855 z m -0.2899,-0.004 c -0.20129,0.008 -0.41891,0.0361 -0.65474,0.0879 -0.0473,-0.0266 -0.0933,-0.0488 -0.13953,-0.0718 0.0463,0.0231 0.0921,0.0457 0.13953,0.0723 0.23583,-0.0517 0.45345,-0.0807 0.65474,-0.0884 z m -20.00601,0.60616 c -0.120397,0.7712 -0.154798,1.60429 -0.140043,2.4381 -0.01473,-0.83382 0.01961,-1.66692 0.140043,-2.4381 z m 21.57232,0.0124 c 0.083,0.0953 0.15666,0.20267 0.22531,0.31625 -0.0687,-0.11367 -0.14222,-0.22091 -0.22531,-0.31625 z m 5.30562,0.0853 c -0.0295,0.11401 -0.0269,0.17597 0.0129,0.17725 -0.0395,-0.002 -0.0425,-0.0632 -0.0129,-0.17725 z m 0.0129,0.17725 c 5.5e-4,2e-5 4.8e-4,0.001 10e-4,0.001 0.0165,0 0.0358,0.006 0.0579,0.0191 -0.022,-0.0128 -0.0413,-0.0196 -0.0579,-0.0196 -4.2e-4,0 -6e-4,-5.1e-4 -10e-4,-5.2e-4 z m 0.0589,0.0202 c 0.022,0.0128 0.0468,0.0321 0.0739,0.0568 -0.0272,-0.0248 -0.0518,-0.044 -0.0739,-0.0568 z m 0.0739,0.0568 c 0.0542,0.0493 0.11846,0.12136 0.19068,0.21342 -0.0722,-0.0921 -0.13647,-0.16401 -0.19068,-0.21342 z m -10.3203,-0.23668 c -0.17068,0.21341 -0.33322,0.4537 -0.49041,0.71055 0.1572,-0.25683 0.31972,-0.49717 0.49041,-0.71055 z m 5.58415,1.60042 c 0.0393,0.19908 0.0717,0.40657 0.0992,0.62063 -0.0275,-0.21406 -0.06,-0.42155 -0.0992,-0.62063 z m 0.0992,0.62063 c 0.0275,0.2139 0.0501,0.43468 0.0687,0.65991 -0.0186,-0.22541 -0.0412,-0.44584 -0.0687,-0.65991 z m -7.09207,0.17364 c -0.14119,0.26847 -0.28355,0.53316 -0.42943,0.78651 0.14588,-0.25335 0.28824,-0.51805 0.42943,-0.78651 z m -15.420244,0.4315 c 0.01321,0.33205 0.03313,0.66192 0.05736,0.9865 -0.02421,-0.32442 -0.04415,-0.65462 -0.05736,-0.9865 z m 10.349754,0.0971 c 0.0909,0.34273 0.16579,0.6917 0.22531,1.04593 -0.0595,-0.35422 -0.13437,-0.70321 -0.22531,-1.04593 z m -10.285158,0.97668 c 0.04529,0.5859 0.103735,1.15043 0.162264,1.6738 -0.05853,-0.52339 -0.116982,-1.0879 -0.162264,-1.6738 z m 10.530098,0.18965 c 0.0369,0.23372 0.0675,0.46946 0.092,0.70745 -0.0245,-0.23799 -0.0551,-0.47374 -0.092,-0.70745 z m 12.06645,0.24392 c 0.0353,0.90836 0.0609,1.8296 0.15348,2.66495 -0.0925,-0.83538 -0.11815,-1.7566 -0.15348,-2.66495 z m -11.9693,0.51056 c 0.0272,0.2738 0.0465,0.55015 0.0584,0.82889 -0.0119,-0.27874 -0.0312,-0.55509 -0.0584,-0.82889 z m -10.454649,0.82579 c 0.06472,0.57392 0.1279,1.09354 0.171049,1.52807 -0.04314,-0.43448 -0.106327,-0.95417 -0.171049,-1.52807 z m 10.513049,0.004 c 0.0119,0.27874 0.0166,0.55988 0.0145,0.84284 0.002,-0.28296 -0.003,-0.5641 -0.0145,-0.84284 z m 0.0145,0.84439 c -0.002,0.2679 -0.0107,0.53769 -0.0243,0.80874 0.0136,-0.27109 0.0222,-0.5408 0.0243,-0.80874 z m -0.0243,0.80874 c -0.002,0.032 -0.003,0.0641 -0.005,0.0961 0.002,-0.0321 0.004,-0.0641 0.005,-0.0961 z m -0.005,0.0961 c -0.0139,0.25354 -0.0327,0.50809 -0.0558,0.76378 0.0231,-0.25554 0.0419,-0.51039 0.0558,-0.76378 z m -0.0558,0.76378 c -0.003,0.0339 -0.006,0.0678 -0.009,0.1018 0.003,-0.034 0.006,-0.0679 0.009,-0.1018 z m -0.009,0.1018 c -0.0255,0.26963 -0.0553,0.54046 -0.0899,0.81184 0.0346,-0.2715 0.0644,-0.54209 0.0899,-0.81184 z m -18.627281,-1.33376 c -0.0026,0.005 -0.0056,0.01 -0.0083,0.0145 0.0027,-0.005 0.0057,-0.01 0.0083,-0.0145 z m -0.0083,0.0145 c -0.01434,0.0263 -0.03001,0.0515 -0.04703,0.076 0.01703,-0.0245 0.03266,-0.0497 0.04703,-0.076 z m -0.04703,0.076 c -0.0064,0.009 -0.01339,0.018 -0.02015,0.0269 0.0068,-0.009 0.01377,-0.0177 0.02015,-0.0269 z m -0.02015,0.0269 c -0.01919,0.0253 -0.03904,0.0501 -0.06149,0.0734 0.02242,-0.0232 0.04233,-0.0481 0.06149,-0.0734 z m -0.06459,0.077 c -0.0051,0.005 -0.01122,0.01 -0.01654,0.015 0.0053,-0.005 0.01141,-0.01 0.01654,-0.015 z m -0.01654,0.015 c -0.01988,0.0192 -0.04116,0.0376 -0.06356,0.0553 0.0224,-0.0177 0.04368,-0.0361 0.06356,-0.0553 z m -0.06356,0.0553 c -0.01038,0.008 -0.0211,0.0165 -0.03204,0.0243 0.011,-0.008 0.02161,-0.0161 0.03204,-0.0243 z m -0.03204,0.0243 c -0.02502,0.0179 -0.05154,0.0351 -0.07958,0.0512 0.02821,-0.0161 0.05443,-0.0332 0.07958,-0.0512 z m -0.07958,0.0512 c -0.0053,0.003 -0.01005,0.006 -0.0155,0.009 7e-6,1.8e-4 -6e-6,3.3e-4 0,5.1e-4 0.0056,-0.003 0.01006,-0.007 0.0155,-0.01 z m 8.700761,-0.0491 c 0.03979,0.41022 0.06196,0.74576 0.04651,0.96894 0.0154,-0.22328 -0.0067,-0.55874 -0.04651,-0.96894 z m -8.714713,0.092 c 0.01014,0.27504 0.02146,0.53429 0.03514,0.77773 -0.01359,-0.24325 -0.02502,-0.50307 -0.03514,-0.77773 z m 0.05013,0.99632 c 0.01025,0.16137 0.02046,0.32443 0.03256,0.47232 -0.01205,-0.14835 -0.02234,-0.31047 -0.03256,-0.47232 z m 0.03256,0.47232 c 0.01233,0.15182 0.02647,0.28924 0.04082,0.42788 -0.01441,-0.1382 -0.02845,-0.27654 -0.04082,-0.42788 z m 0.04082,0.42788 c 0.0061,0.0584 0.01162,0.12262 0.01809,0.1788 -0.0064,-0.0564 -0.01201,-0.12014 -0.01809,-0.1788 z m 0.01809,0.1788 c 0.0176,0.15397 0.03737,0.29519 0.05788,0.43357 -0.02061,-0.13821 -0.04018,-0.27976 -0.05788,-0.43357 z m 0.05788,0.43357 c 0.0049,0.0329 0.0094,0.0692 0.01447,0.10128 -0.0051,-0.0321 -0.0096,-0.0683 -0.01447,-0.10128 z m 0.01447,0.10128 c 0.02198,0.13968 0.04652,0.26878 0.07183,0.39378 -0.02543,-0.1249 -0.04974,-0.25419 -0.07183,-0.39378 z m 0.07183,0.39378 c 0.005,0.0247 0.0093,0.0518 0.01447,0.076 -0.0051,-0.0242 -0.0095,-0.0512 -0.01447,-0.076 z m 0.01447,0.076 c 0.02956,0.13904 0.06195,0.26889 0.09612,0.39171 -0.03424,-0.12265 -0.06646,-0.25287 -0.09612,-0.39171 z m 0.09819,0.39998 c 0.0352,0.12582 0.07333,0.24413 0.113688,0.35553 -0.04054,-0.11164 -0.07829,-0.22945 -0.113688,-0.35553 z m 17.398933,3.58014 c -0.14479,0.55489 -0.29447,1.10465 -0.44493,1.64693 0.15046,-0.54228 0.30014,-1.09204 0.44493,-1.64693 z m -0.45372,1.67949 c -0.31274,1.12632 -0.62813,2.21965 -0.90795,3.25664 0.27983,-1.037 0.59522,-2.13032 0.90795,-3.25664 z m 2.76314,2.86907 1.45469,2.52698 c 3.2e-4,3.8e-4 7.2e-4,6.5e-4 0.001,0.001 z m 1.45469,2.52698 c -0.0912,-0.1104 -0.18461,-0.21266 -0.27957,-0.30696 0.095,0.0944 0.18826,0.19649 0.27957,0.30696 z m -5.12578,-2.13889 c -70.666147,-146.92642 -35.333073,-73.46321 0,0 z m 2.92282,0.99322 c -0.11785,0.001 -0.23716,0.0108 -0.35864,0.0279 0.36333,-0.0511 0.71064,-0.0316 1.04128,0.0589 -0.22024,-0.0603 -0.44786,-0.0895 -0.68264,-0.0868 z m -0.35864,0.0279 c -0.36444,0.0513 -0.74523,0.17323 -1.14205,0.36483 0.39682,-0.1916 0.77761,-0.31354 1.14205,-0.36483 z m -1.14205,0.36483 c -0.66136,0.31935 -1.36724,0.83179 -2.11666,1.53273 -3e-5,1.6e-4 3e-5,3.5e-4 0,5.1e-4 0.74942,-0.70094 1.4553,-1.21389 2.11666,-1.53324 z m 2.19005,-0.30385 c 0.21969,0.0608 0.43212,0.15271 0.63717,0.27698 -0.2049,-0.12418 -0.41765,-0.21614 -0.63717,-0.27698 z m 0.63717,0.27698 c 0.10291,0.0624 0.20414,0.13289 0.30334,0.21136 -0.0994,-0.0787 -0.20023,-0.14886 -0.30334,-0.21136 z m 0.30386,0.21188 c 0.0992,0.0785 0.19651,0.16523 0.29197,0.25993 -0.0954,-0.0947 -0.19278,-0.1814 -0.29197,-0.25993 z"
       sodipodi:nodetypes="ccscccccccccccccccccccccccccsccccccccscccccccccccccccccccccsssssssssscccccccccccccccccccccccscccccccccccccccccccccccccccccccccccccccccccccccccccccccccccccccccccccccccccccscccsscccccccccccccccccccccccccccccccccccccccccccccccccccccccccccccccccccccccccccccccccccccccccccccccccccccccsccccscccsscccccccccccccccscccsscccscccccccscccccsscccccccccccccccccccccccccccccccccccccccccccccccccccccccccccccccccccccccccccccccccccccccccccccccccccccccccccccccccccccsccsscccccccccccccccccccccccccccccccccccccccccccccccccsscssscccccccccccccccccccccccccccccccccccccccccccccccccccccccccccccccccccccccccccccccccccccccccccccccccccccccccccccccccccccccccccccccccccccccccccccccccccccccccc" /><path
       style="display:inline;opacity:0.565141;fill:#000000;stroke-width:0.1;stroke-linecap:round"
       d="m 114.64465,220.57778 c -0.39193,3.42588 0.90381,6.23635 -0.51044,7.80884 -0.48278,1.57087 2.31508,2.67602 0.18795,3.6639 -0.10443,2.18628 1.62742,4.40212 0.19167,6.62545 -0.88367,1.73345 -1.09321,3.32948 -2.12808,4.63559 -0.91085,1.69363 -1.78878,3.58786 -3.22523,4.86872 -2.04259,1.34017 -3.22869,-1.56317 -3.49005,-3.18674 -0.94693,-2.04529 -3.04349,-3.44231 -3.41644,-5.77543 -1.07568,-1.81548 -1.2873,-4.44518 -0.0844,-6.0754 -0.74246,-0.5203 -2.919606,-0.95187 -1.40091,-2.11775 2.18393,-1.01695 1.53552,-3.31035 0.23654,-4.65027 1.92273,-1.35663 1.56521,-3.50071 0.50454,-5.3546 -0.36688,-1.10022 -1.06237,-3.69095 0.10141,-3.98432 1.40679,2.00813 2.90476,4.32603 2.4378,6.90164 0.054,1.54141 -2.74113,2.48501 -0.96824,3.91012 0.75907,1.61439 -1.73124,2.90398 0.088,3.92675 1.33104,1.68792 -0.80448,3.25202 -0.28651,4.97191 0.85906,1.5199 2.0678,2.75119 2.62971,4.42413 0.6455,1.96771 1.15269,4.3952 3.19044,5.39043 1.69004,-0.0356 2.46543,-2.17383 2.87224,-3.59524 0.65148,-1.7029 1.67989,-3.27333 1.87838,-5.11222 1.15376,-1.73035 0.63132,-3.39021 -0.45063,-4.96976 0.56252,-1.96896 0.29253,-3.63448 0.45833,-5.64322 1.68888,-3.31771 -1.88566,-9.21605 -0.22859,-10.38952 0.24923,-0.26746 0.87466,-0.66444 1.00751,-0.65934 1.22879,0.77548 0.39173,3.06014 0.40501,4.38633 z"
       id="path2398"
       sodipodi:nodetypes="ccccccccccccccccccccccccccc"
       inkscape:label="cut_5" /><path
       style="display:inline;opacity:0.565141;fill:#000000;stroke-width:0.1;stroke-linecap:round"
       d="m 108.23531,233.76041 c -0.0808,1.37635 -0.43824,4.12857 0.42241,4.67592 0.70917,-1.48558 0.43795,-3.4094 0.0352,-4.94145 -0.21615,-0.51263 -0.46485,-0.0128 -0.4576,0.26553 z"
       id="path2400"
       inkscape:label="cut_4" /><path
       style="display:inline;opacity:0.565141;fill:#000000;stroke-width:0.1;stroke-linecap:round"
       d="m 106.71533,222.74055 c -0.79403,1.02709 -0.31587,3.01649 -1.48657,3.57107 -0.0915,-0.84125 0.53588,-1.46145 -0.0608,-2.10517 -0.55537,0.72477 0.11835,1.53133 -0.8541,2.13987 -0.73952,0.71144 -0.65073,1.91126 -0.49871,2.85303 0.30668,0.96578 0.71918,1.8978 1.26031,2.75756 0.2072,0.94201 1.28113,2.00057 0.18129,2.84149 -0.66745,0.99616 -1.31042,2.07075 -1.04157,3.3716 0.53856,0.74047 1.47465,1.24642 1.81345,2.107 0.81638,1.04767 0.12599,2.40362 0.67734,3.46976 1.16723,0.61861 1.02024,-1.43323 0.50238,-2.01848 -0.30155,-0.99635 -0.617,-2.02738 -1.3274,-2.81829 -0.65052,-0.79648 -1.00839,-1.78075 -0.86858,-2.81862 0.30034,-0.83675 1.67351,-1.03595 1.34579,-2.25093 0.066,-0.92547 0.034,-1.87957 -0.36786,-2.73615 0.10703,-0.86731 -1.51083,-2.25787 -0.58608,-2.70649 1.58959,-0.13652 1.81276,1.37867 1.85783,2.59188 1.08644,0.81597 0.54157,-1.18846 0.49546,-1.78342 0.18572,-1.17039 0.47675,-2.35446 0.35082,-3.57077 -0.002,-1.15503 0.004,-2.31007 9.5e-4,-3.4651 -0.96267,0.29151 -0.56048,1.73115 -0.69957,2.64528 -0.39119,1.0309 0.29555,2.80935 -0.82849,3.28725 -0.71392,-0.41086 -2.71192,-0.0659 -1.90782,-1.39366 0.43874,-0.7663 2.04561,0.0872 1.62274,-1.31223 -0.0454,-0.91347 0.48064,-1.79764 0.41928,-2.65648 z"
       id="path2402"
       sodipodi:nodetypes="scccccccccccccccccccccccss"
       inkscape:label="cut_3" /><path
       style="display:inline;opacity:0.565141;fill:#000000;stroke-width:0.1;stroke-linecap:round"
       d="m 108.93197,222.36056 c 0.16291,2.21188 0.11488,4.45169 -0.14875,6.64913 -0.0553,0.74666 -0.51408,2.38305 0.71804,2.27343 0.55579,-0.80208 0.0898,-1.90338 0.28922,-2.81791 0.16084,-1.59454 0.13423,-3.20709 0.0365,-4.79921 0.17987,-0.75545 -0.31947,-1.02363 -0.89506,-1.30544 z"
       id="path2404"
       inkscape:label="cut_2" /><path
       style="display:inline;opacity:0.565141;fill:#000000;stroke-width:0.1;stroke-linecap:round"
       d="m 111.33861,227.87049 c -0.14573,0.90603 -0.34237,1.80172 -0.40185,2.72018 -0.0567,0.83406 -0.53091,1.57434 -0.47081,2.42788 0.29752,0.88345 0.51823,1.83151 0.99473,2.65697 0.38619,0.77715 -0.14973,1.74171 -0.50866,2.30145 -0.62552,0.47024 -0.70421,1.26343 -0.75755,1.97945 -0.24418,0.92539 -0.18547,1.8808 -0.40769,2.8051 -0.12547,0.44869 -0.55048,1.9306 0.11536,1.79136 0.36914,-0.70831 0.85875,-1.40768 1.03603,-2.21248 0.21634,-0.81116 -0.0643,-1.66787 0.2315,-2.46834 0.20327,-1.00168 1.07637,-1.77874 1.1232,-2.83563 0.1535,-0.85216 0.0562,-1.68841 -0.34812,-2.45418 -0.28828,-0.63848 0.0443,-1.35089 0.12412,-2.00309 0.13519,-0.81694 0.2493,-1.62083 0.30332,-2.44809 0.006,-0.77973 -0.0329,-2.28716 -0.87999,-2.36418 l -0.15347,0.1036 z"
       id="path2406"
       inkscape:label="cut_1" /></g></svg>
